  0
SECTION
  2
HEADER
  9
$ACADVER
  1
AC1024
  9
$ACADMAINTVER
 70
     6
  9
$DWGCODEPAGE
  3
ASCII
  9
$INSBASE
 10
0.0
 20
0.0
 30
0.0
  9
$EXTMIN
 10
1.000000000000000E+20
 20
1.000000000000000E+20
 30
1.000000000000000E+20
  9
$EXTMAX
 10
-1.000000000000000E+20
 20
-1.000000000000000E+20
 30
-1.000000000000000E+20
  9
$LIMMIN
 10
0.0
 20
0.0
  9
$LIMMAX
 10
12.0
 20
9.0
  9
$ORTHOMODE
 70
     0
  9
$REGENMODE
 70
     1
  9
$FILLMODE
 70
     1
  9
$QTEXTMODE
 70
     0
  9
$MIRRTEXT
 70
     1
  9
$LTSCALE
 40
1.0
  9
$ATTMODE
 70
     1
  9
$TEXTSIZE
 40
0.2
  9
$TRACEWID
 40
0.05
  9
$TEXTSTYLE
  7
Standard
  9
$CLAYER
  8
0
  9
$CELTYPE
  6
ByLayer
  9
$CECOLOR
 62
   178
  9
$CELTSCALE
 40
1.0
  9
$DISPSILH
 70
     0
  9
$DIMSCALE
 40
1.0
  9
$DIMASZ
 40
0.18
  9
$DIMEXO
 40
0.0625
  9
$DIMDLI
 40
0.38
  9
$DIMRND
 40
0.0
  9
$DIMDLE
 40
0.0
  9
$DIMEXE
 40
0.18
  9
$DIMTP
 40
0.0
  9
$DIMTM
 40
0.0
  9
$DIMTXT
 40
0.18
  9
$DIMCEN
 40
0.09
  9
$DIMTSZ
 40
0.0
  9
$DIMTOL
 70
     0
  9
$DIMLIM
 70
     0
  9
$DIMTIH
 70
     1
  9
$DIMTOH
 70
     1
  9
$DIMSE1
 70
     0
  9
$DIMSE2
 70
     0
  9
$DIMTAD
 70
     0
  9
$DIMZIN
 70
     0
  9
$DIMBLK
  1

  9
$DIMASO
 70
     1
  9
$DIMSHO
 70
     1
  9
$DIMPOST
  1

  9
$DIMAPOST
  1

  9
$DIMALT
 70
     0
  9
$DIMALTD
 70
     2
  9
$DIMALTF
 40
25.4
  9
$DIMLFAC
 40
1.0
  9
$DIMTOFL
 70
     0
  9
$DIMTVP
 40
0.0
  9
$DIMTIX
 70
     0
  9
$DIMSOXD
 70
     0
  9
$DIMSAH
 70
     0
  9
$DIMBLK1
  1

  9
$DIMBLK2
  1

  9
$DIMSTYLE
  2
Standard
  9
$DIMCLRD
 70
   178
  9
$DIMCLRE
 70
   178
  9
$DIMCLRT
 70
   178
  9
$DIMTFAC
 40
1.0
  9
$DIMGAP
 40
0.09
  9
$DIMJUST
 70
     0
  9
$DIMSD1
 70
     0
  9
$DIMSD2
 70
     0
  9
$DIMTOLJ
 70
     1
  9
$DIMTZIN
 70
     0
  9
$DIMALTZ
 70
     0
  9
$DIMALTTZ
 70
     0
  9
$DIMUPT
 70
     0
  9
$DIMDEC
 70
     4
  9
$DIMTDEC
 70
     4
  9
$DIMALTU
 70
     2
  9
$DIMALTTD
 70
     2
  9
$DIMTXSTY
  7
Standard
  9
$DIMAUNIT
 70
     0
  9
$DIMADEC
 70
     0
  9
$DIMALTRND
 40
0.0
  9
$DIMAZIN
 70
     0
  9
$DIMDSEP
 70
    46
  9
$DIMATFIT
 70
     3
  9
$DIMFRAC
 70
     0
  9
$DIMLDRBLK
  1

  9
$DIMLUNIT
 70
     2
  9
$DIMLWD
 70
    -2
  9
$DIMLWE
 70
    -2
  9
$DIMTMOVE
 70
     0
  9
$DIMFXL
 40
1.0
  9
$DIMFXLON
 70
     0
  9
$DIMJOGANG
 40
0.7853981633974483
  9
$DIMTFILL
 70
     0
  9
$DIMTFILLCLR
 70
     0
  9
$DIMARCSYM
 70
     0
  9
$DIMLTYPE
  6

  9
$DIMLTEX1
  6

  9
$DIMLTEX2
  6

  9
$DIMTXTDIRECTION
 70
     0
  9
$LUNITS
 70
     2
  9
$LUPREC
 70
     4
  9
$SKETCHINC
 40
0.1
  9
$FILLETRAD
 40
0.5
  9
$AUNITS
 70
     0
  9
$AUPREC
 70
     0
  9
$MENU
  1
.
  9
$ELEVATION
 40
0.0
  9
$PELEVATION
 40
0.0
  9
$THICKNESS
 40
0.0
  9
$LIMCHECK
 70
     0
  9
$CHAMFERA
 40
0.5
  9
$CHAMFERB
 40
0.5
  9
$CHAMFERC
 40
1.0
  9
$CHAMFERD
 40
0.0
  9
$SKPOLY
 70
     0
  9
$TDCREATE
 40
2456314.675798611
  9
$TDUCREATE
 40
2456314.884131944
  9
$TDUPDATE
 40
2456314.675798611
  9
$TDUUPDATE
 40
2456314.884131944
  9
$TDINDWG
 40
0.0000000116
  9
$TDUSRTIMER
 40
0.0000000116
  9
$USRTIMER
 70
     1
  9
$ANGBASE
 50
0.0
  9
$ANGDIR
 70
     0
  9
$PDMODE
 70
     0
  9
$PDSIZE
 40
0.0
  9
$PLINEWID
 40
0.0
  9
$SPLFRAME
 70
     0
  9
$SPLINETYPE
 70
     6
  9
$SPLINESEGS
 70
     8
  9
$HANDSEED
  5
2C8
  9
$SURFTAB1
 70
     6
  9
$SURFTAB2
 70
     6
  9
$SURFTYPE
 70
     6
  9
$SURFU
 70
     6
  9
$SURFV
 70
     6
  9
$UCSBASE
  2

  9
$UCSNAME
  2

  9
$UCSORG
 10
0.0
 20
0.0
 30
0.0
  9
$UCSXDIR
 10
1.0
 20
0.0
 30
0.0
  9
$UCSYDIR
 10
0.0
 20
1.0
 30
0.0
  9
$UCSORTHOREF
  2

  9
$UCSORTHOVIEW
 70
     0
  9
$UCSORGTOP
 10
0.0
 20
0.0
 30
0.0
  9
$UCSORGBOTTOM
 10
0.0
 20
0.0
 30
0.0
  9
$UCSORGLEFT
 10
0.0
 20
0.0
 30
0.0
  9
$UCSORGRIGHT
 10
0.0
 20
0.0
 30
0.0
  9
$UCSORGFRONT
 10
0.0
 20
0.0
 30
0.0
  9
$UCSORGBACK
 10
0.0
 20
0.0
 30
0.0
  9
$PUCSBASE
  2

  9
$PUCSNAME
  2

  9
$PUCSORG
 10
0.0
 20
0.0
 30
0.0
  9
$PUCSXDIR
 10
1.0
 20
0.0
 30
0.0
  9
$PUCSYDIR
 10
0.0
 20
1.0
 30
0.0
  9
$PUCSORTHOREF
  2

  9
$PUCSORTHOVIEW
 70
     0
  9
$PUCSORGTOP
 10
0.0
 20
0.0
 30
0.0
  9
$PUCSORGBOTTOM
 10
0.0
 20
0.0
 30
0.0
  9
$PUCSORGLEFT
 10
0.0
 20
0.0
 30
0.0
  9
$PUCSORGRIGHT
 10
0.0
 20
0.0
 30
0.0
  9
$PUCSORGFRONT
 10
0.0
 20
0.0
 30
0.0
  9
$PUCSORGBACK
 10
0.0
 20
0.0
 30
0.0
  9
$USERI1
 70
     0
  9
$USERI2
 70
     0
  9
$USERI3
 70
     0
  9
$USERI4
 70
     0
  9
$USERI5
 70
     0
  9
$USERR1
 40
0.0
  9
$USERR2
 40
0.0
  9
$USERR3
 40
0.0
  9
$USERR4
 40
0.0
  9
$USERR5
 40
0.0
  9
$WORLDVIEW
 70
     1
  9
$SHADEDGE
 70
     3
  9
$SHADEDIF
 70
    70
  9
$TILEMODE
 70
     1
  9
$MAXACTVP
 70
    64
  9
$PINSBASE
 10
0.0
 20
0.0
 30
0.0
  9
$PLIMCHECK
 70
     0
  9
$PEXTMIN
 10
1.000000000000000E+20
 20
1.000000000000000E+20
 30
1.000000000000000E+20
  9
$PEXTMAX
 10
-1.000000000000000E+20
 20
-1.000000000000000E+20
 30
-1.000000000000000E+20
  9
$PLIMMIN
 10
0.0
 20
0.0
  9
$PLIMMAX
 10
12.0
 20
9.0
  9
$UNITMODE
 70
     0
  9
$VISRETAIN
 70
     1
  9
$PLINEGEN
 70
     0
  9
$PSLTSCALE
 70
     1
  9
$TREEDEPTH
 70
  3020
  9
$CMLSTYLE
  2
Standard
  9
$CMLJUST
 70
     0
  9
$CMLSCALE
 40
1.0
  9
$PROXYGRAPHICS
 70
     1
  9
$MEASUREMENT
 70
     1
  9
$CELWEIGHT
370
    -1
  9
$ENDCAPS
280
     0
  9
$JOINSTYLE
280
     0
  9
$LWDISPLAY
290
     0
  9
$INSUNITS
 70
     0
  9
$HYPERLINKBASE
  1

  9
$STYLESHEET
  1

  9
$XEDIT
290
     1
  9
$CEPSNTYPE
380
     0
  9
$PSTYLEMODE
290
     1
  9
$FINGERPRINTGUID
  2
{5C7763D7-35FA-A619-BB16-72A5B0E1C754}
  9
$VERSIONGUID
  2
{FAEB1C32-E019-11D5-929B-00C0DF256EC4}
  9
$EXTNAMES
290
     1
  9
$PSVPSCALE
 40
0.0
  9
$OLESTARTUP
290
     0
  9
$SORTENTS
280
   127
  9
$INDEXCTL
280
     0
  9
$HIDETEXT
280
     1
  9
$XCLIPFRAME
280
     2
  9
$HALOGAP
280
     0
  9
$OBSCOLOR
 70
   257
  9
$OBSLTYPE
280
     0
  9
$INTERSECTIONDISPLAY
280
     0
  9
$INTERSECTIONCOLOR
 70
   257
  9
$DIMASSOC
280
     2
  9
$PROJECTNAME
  1

  9
$CAMERADISPLAY
290
     0
  9
$LENSLENGTH
 40
50.0
  9
$CAMERAHEIGHT
 40
0.0
  9
$STEPSPERSEC
 40
2.0
  9
$STEPSIZE
 40
6.0
  9
$3DDWFPREC
 40
2.0
  9
$PSOLWIDTH
 40
0.25
  9
$PSOLHEIGHT
 40
4.0
  9
$LOFTANG1
 40
1.570796326794897
  9
$LOFTANG2
 40
1.570796326794897
  9
$LOFTMAG1
 40
0.0
  9
$LOFTMAG2
 40
0.0
  9
$LOFTPARAM
 70
     7
  9
$LOFTNORMALS
280
     1
  9
$LATITUDE
 40
37.795
  9
$LONGITUDE
 40
-122.394
  9
$NORTHDIRECTION
 40
0.0
  9
$TIMEZONE
 70
 -8000
  9
$LIGHTGLYPHDISPLAY
280
     1
  9
$TILEMODELIGHTSYNCH
280
     1
  9
$SOLIDHIST
280
     1
  9
$SHOWHIST
280
     1
  9
$DWFFRAME
280
     2
  9
$DGNFRAME
280
     2
  9
$REALWORLDSCALE
290
     1
  9
$INTERFERECOLOR
 62
   256
  9
$CSHADOW
280
     0
  9
$SHADOWPLANELOCATION
 40
0.0
  0
ENDSEC
  0
SECTION
  2
CLASSES
  0
CLASS
  1
ACDBDICTIONARYWDFLT
  2
AcDbDictionaryWithDefault
  3
ObjectDBX Classes
 90
        0
 91
        4
280
     0
281
     0
  0
CLASS
  1
VISUALSTYLE
  2
AcDbVisualStyle
  3
ObjectDBX Classes
 90
     4095
 91
        4
280
     0
281
     0
  0
CLASS
  1
MATERIAL
  2
AcDbMaterial
  3
ObjectDBX Classes
 90
     1153
 91
        4
280
     0
281
     0
  0
ENDSEC
  0
SECTION
  2
TABLES
  0
TABLE
  2
VPORT
  5
25E
330
0
100
AcDbSymbolTable
 70
     1
  0
VPORT
  5
27E
330
25E
100
AcDbSymbolTableRecord
100
AcDbViewportTableRecord
  2
*Active
 70
     0
 10
0.0
 20
0.0
 11
1.0
 21
1.0
 12
10.42990654205607
 22
4.5
 13
0.0
 23
0.0
 14
0.5
 24
0.5
 15
0.5
 25
0.5
 16
0.0
 26
0.0
 36
1.0
 17
0.0
 27
0.0
 37
0.0
 40
9.0
 41
1.972972972850329
 42
50.0
 43
0.0
 44
0.0
 50
0.0
 51
0.0
 71
     0
 72
   100
 73
     1
 74
     3
 75
     0
 76
     0
 77
     0
 78
     0
281
     0
 65
     1
110
0.0
120
0.0
130
0.0
111
1.0
121
0.0
131
0.0
112
0.0
122
1.0
132
0.0
 79
     0
146
0.0
 60
     3
 61
     5
292
     1
282
     1
141
0.0
142
0.0
 63
   250
  0
ENDTAB
  0
TABLE
  2
LTYPE
  5
25B
330
0
100
AcDbSymbolTable
 70
    19
  0
LTYPE
  5
269
330
25B
100
AcDbSymbolTableRecord
100
AcDbLinetypeTableRecord
  2
ByBlock
 70
     0
  3

 72
    65
 73
     0
 40
0.0
  0
LTYPE
  5
26A
330
25B
100
AcDbSymbolTableRecord
100
AcDbLinetypeTableRecord
  2
ByLayer
 70
     0
  3

 72
    65
 73
     0
 40
0.0
  0
LTYPE
  5
26B
330
25B
100
AcDbSymbolTableRecord
100
AcDbLinetypeTableRecord
  2
Continuous
 70
     0
  3
Solid line
 72
    65
 73
     0
 40
0.0
  0
LTYPE
  5
2AB
330
25B
100
AcDbSymbolTableRecord
100
AcDbLinetypeTableRecord
  2
BORDER
 70
     0
  3

 72
    65
 73
     6
 40
42.0
 49
12.0
 74
     0
 49
-6.0
 74
     0
 49
12.0
 74
     0
 49
-5.95
 74
     0
 49
0.1
 74
     0
 49
-5.95
 74
     0
  0
LTYPE
  5
2AC
330
25B
100
AcDbSymbolTableRecord
100
AcDbLinetypeTableRecord
  2
BORDER2
 70
     0
  3

 72
    65
 73
     6
 40
21.0
 49
6.0
 74
     0
 49
-3.0
 74
     0
 49
6.0
 74
     0
 49
-2.95
 74
     0
 49
0.1
 74
     0
 49
-2.95
 74
     0
  0
LTYPE
  5
2AD
330
25B
100
AcDbSymbolTableRecord
100
AcDbLinetypeTableRecord
  2
BORDERX2
 70
     0
  3

 72
    65
 73
     6
 40
84.0
 49
24.0
 74
     0
 49
-12.0
 74
     0
 49
24.0
 74
     0
 49
-11.95
 74
     0
 49
0.1
 74
     0
 49
-11.95
 74
     0
  0
LTYPE
  5
2AE
330
25B
100
AcDbSymbolTableRecord
100
AcDbLinetypeTableRecord
  2
CENTER
 70
     0
  3

 72
    65
 73
     4
 40
50.0
 49
32.0
 74
     0
 49
-6.0
 74
     0
 49
6.0
 74
     0
 49
-6.0
 74
     0
  0
LTYPE
  5
2AF
330
25B
100
AcDbSymbolTableRecord
100
AcDbLinetypeTableRecord
  2
CENTER2
 70
     0
  3

 72
    65
 73
     4
 40
25.0
 49
16.0
 74
     0
 49
-3.0
 74
     0
 49
3.0
 74
     0
 49
-3.0
 74
     0
  0
LTYPE
  5
2B0
330
25B
100
AcDbSymbolTableRecord
100
AcDbLinetypeTableRecord
  2
CENTERX2
 70
     0
  3

 72
    65
 73
     4
 40
100.0
 49
64.0
 74
     0
 49
-12.0
 74
     0
 49
12.0
 74
     0
 49
-12.0
 74
     0
  0
LTYPE
  5
2B1
330
25B
100
AcDbSymbolTableRecord
100
AcDbLinetypeTableRecord
  2
DASHDOT
 70
     0
  3

 72
    65
 73
     4
 40
24.0
 49
12.0
 74
     0
 49
-5.95
 74
     0
 49
0.1
 74
     0
 49
-5.95
 74
     0
  0
LTYPE
  5
2B2
330
25B
100
AcDbSymbolTableRecord
100
AcDbLinetypeTableRecord
  2
DASHDOT2
 70
     0
  3

 72
    65
 73
     4
 40
12.0
 49
6.0
 74
     0
 49
-2.95
 74
     0
 49
0.1
 74
     0
 49
-2.95
 74
     0
  0
LTYPE
  5
2B3
330
25B
100
AcDbSymbolTableRecord
100
AcDbLinetypeTableRecord
  2
DASHDOTX2
 70
     0
  3

 72
    65
 73
     4
 40
48.0
 49
24.0
 74
     0
 49
-11.95
 74
     0
 49
0.1
 74
     0
 49
-11.95
 74
     0
  0
LTYPE
  5
2B4
330
25B
100
AcDbSymbolTableRecord
100
AcDbLinetypeTableRecord
  2
DASHED
 70
     0
  3

 72
    65
 73
     2
 40
18.0
 49
12.0
 74
     0
 49
-6.0
 74
     0
  0
LTYPE
  5
2B5
330
25B
100
AcDbSymbolTableRecord
100
AcDbLinetypeTableRecord
  2
DASHED2
 70
     0
  3

 72
    65
 73
     2
 40
9.0
 49
6.0
 74
     0
 49
-3.0
 74
     0
  0
LTYPE
  5
2B6
330
25B
100
AcDbSymbolTableRecord
100
AcDbLinetypeTableRecord
  2
DASHEDX2
 70
     0
  3

 72
    65
 73
     2
 40
36.0
 49
24.0
 74
     0
 49
-12.0
 74
     0
  0
LTYPE
  5
2B7
330
25B
100
AcDbSymbolTableRecord
100
AcDbLinetypeTableRecord
  2
DIVIDE
 70
     0
  3

 72
    65
 73
     6
 40
30.0
 49
12.0
 74
     0
 49
-5.9
 74
     0
 49
0.15
 74
     0
 49
-5.9
 74
     0
 49
0.15
 74
     0
 49
-5.9
 74
     0
  0
LTYPE
  5
2B8
330
25B
100
AcDbSymbolTableRecord
100
AcDbLinetypeTableRecord
  2
DIVIDE2
 70
     0
  3

 72
    65
 73
     6
 40
15.0
 49
6.0
 74
     0
 49
-2.9
 74
     0
 49
0.15
 74
     0
 49
-2.9
 74
     0
 49
0.15
 74
     0
 49
-2.9
 74
     0
  0
LTYPE
  5
2B9
330
25B
100
AcDbSymbolTableRecord
100
AcDbLinetypeTableRecord
  2
DIVIDEX2
 70
     0
  3

 72
    65
 73
     6
 40
60.0
 49
24.0
 74
     0
 49
-11.9
 74
     0
 49
0.15
 74
     0
 49
-11.9
 74
     0
 49
0.15
 74
     0
 49
-11.9
 74
     0
  0
LTYPE
  5
2BA
330
25B
100
AcDbSymbolTableRecord
100
AcDbLinetypeTableRecord
  2
DOT
 70
     0
  3

 72
    65
 73
     2
 40
6.3
 49
0.1
 74
     0
 49
-6.2
 74
     0
  0
LTYPE
  5
2BB
330
25B
100
AcDbSymbolTableRecord
100
AcDbLinetypeTableRecord
  2
DOT2
 70
     0
  3

 72
    65
 73
     2
 40
3.2
 49
0.1
 74
     0
 49
-3.1
 74
     0
  0
LTYPE
  5
2BC
330
25B
100
AcDbSymbolTableRecord
100
AcDbLinetypeTableRecord
  2
DOTX2
 70
     0
  3

 72
    65
 73
     2
 40
12.5
 49
0.1
 74
     0
 49
-12.4
 74
     0
  0
ENDTAB
  0
TABLE
  2
LAYER
  5
258
330
0
100
AcDbSymbolTable
 70
    10
  0
LAYER
  5
266
330
258
100
AcDbSymbolTableRecord
100
AcDbLayerTableRecord
  2
0
 70
     0
 62
     7
420
 16777215
  6
Continuous
370
     0
390
265
347
293
  0
LAYER
  5
2BD
330
258
100
AcDbSymbolTableRecord
100
AcDbLayerTableRecord
  2
sideplate
 70
     0
 62
   178
420
        0
  6
Continuous
370
     0
390
265
347
293
  0
LAYER
  5
2BE
330
258
100
AcDbSymbolTableRecord
100
AcDbLayerTableRecord
  2
g2
 70
     0
 62
   178
420
        0
  6
Continuous
370
     0
390
265
347
293
  0
LAYER
  5
2BF
330
258
100
AcDbSymbolTableRecord
100
AcDbLayerTableRecord
  2
l1
 70
     0
 62
   178
420
        0
  6
Continuous
370
     0
390
265
347
293
  0
LAYER
  5
2C0
330
258
100
AcDbSymbolTableRecord
100
AcDbLayerTableRecord
  2
a1
 70
     0
 62
   178
420
        0
  6
Continuous
370
    -3
390
265
347
293
  0
LAYER
  5
2C1
330
258
100
AcDbSymbolTableRecord
100
AcDbLayerTableRecord
  2
a1sk
 70
     0
 62
     1
420
 16711680
  6
Continuous
370
     0
390
265
347
293
  0
LAYER
  5
2C2
330
258
100
AcDbSymbolTableRecord
100
AcDbLayerTableRecord
  2
a2
 70
     0
 62
   178
420
        0
  6
Continuous
370
     0
390
265
347
293
  0
LAYER
  5
2C3
330
258
100
AcDbSymbolTableRecord
100
AcDbLayerTableRecord
  2
g1
 70
     0
 62
   178
420
        0
  6
Continuous
370
     0
390
265
347
293
  0
LAYER
  5
2C4
330
258
100
AcDbSymbolTableRecord
100
AcDbLayerTableRecord
  2
a2sk
 70
     0
 62
     1
420
 16711680
  6
Continuous
370
     0
390
265
347
293
  0
LAYER
  5
2C5
330
258
100
AcDbSymbolTableRecord
100
AcDbLayerTableRecord
  2
l2
 70
     0
 62
   178
420
        0
  6
Continuous
370
     0
390
265
347
293
  0
ENDTAB
  0
TABLE
  2
STYLE
  5
259
330
0
100
AcDbSymbolTable
 70
     1
  0
STYLE
  5
267
330
259
100
AcDbSymbolTableRecord
100
AcDbTextStyleTableRecord
  2
Standard
 70
     0
 40
0.0
 41
1.0
 50
0.0
 71
     0
 42
0.2
  3
txt
  4

  0
ENDTAB
  0
TABLE
  2
VIEW
  5
25C
330
0
100
AcDbSymbolTable
 70
     0
  0
ENDTAB
  0
TABLE
  2
UCS
  5
25D
330
0
100
AcDbSymbolTable
 70
     0
  0
ENDTAB
  0
TABLE
  2
APPID
  5
25F
330
0
100
AcDbSymbolTable
 70
     2
  0
APPID
  5
268
330
25F
100
AcDbSymbolTableRecord
100
AcDbRegAppTableRecord
  2
ACAD
 70
     0
  0
APPID
  5
294
330
25F
100
AcDbSymbolTableRecord
100
AcDbRegAppTableRecord
  2
QCAD
 70
     0
  0
ENDTAB
  0
TABLE
  2
DIMSTYLE
  5
260
330
0
100
AcDbSymbolTable
 70
     2
100
AcDbDimStyleTable
  0
DIMSTYLE
105
27C
330
260
100
AcDbSymbolTableRecord
100
AcDbDimStyleTableRecord
  2
Standard
 70
     0
178
     0
340
267
  0
DIMSTYLE
105
2AA
330
260
100
AcDbSymbolTableRecord
100
AcDbDimStyleTableRecord
  2
QCADDimStyle
 70
     0
 73
     0
 77
     1
178
     0
340
267
  0
ENDTAB
  0
TABLE
  2
BLOCK_RECORD
  5
257
330
0
100
AcDbSymbolTable
 70
     1
  0
BLOCK_RECORD
  5
274
330
257
100
AcDbSymbolTableRecord
100
AcDbBlockTableRecord
  2
*Model_Space
340
277
 70
     0
280
     1
281
     0
  0
BLOCK_RECORD
  5
270
330
257
100
AcDbSymbolTableRecord
100
AcDbBlockTableRecord
  2
*Paper_Space
340
273
 70
     0
280
     1
281
     0
  0
BLOCK_RECORD
  5
278
330
257
100
AcDbSymbolTableRecord
100
AcDbBlockTableRecord
  2
*Paper_Space0
340
27B
 70
     0
280
     1
281
     0
  0
ENDTAB
  0
ENDSEC
  0
SECTION
  2
BLOCKS
  0
BLOCK
  5
275
330
274
100
AcDbEntity
  8
0
100
AcDbBlockBegin
  2
*Model_Space
 70
     0
 10
0.0
 20
0.0
 30
0.0
  3
*Model_Space
  1

  0
ENDBLK
  5
276
330
274
100
AcDbEntity
  8
0
100
AcDbBlockEnd
  0
BLOCK
  5
271
330
270
100
AcDbEntity
 67
     1
  8
0
100
AcDbBlockBegin
  2
*Paper_Space
 70
     0
 10
0.0
 20
0.0
 30
0.0
  3
*Paper_Space
  1

  0
ENDBLK
  5
272
330
270
100
AcDbEntity
 67
     1
  8
0
100
AcDbBlockEnd
  0
BLOCK
  5
279
330
278
100
AcDbEntity
  8
0
100
AcDbBlockBegin
  2
*Paper_Space0
 70
     0
 10
0.0
 20
0.0
 30
0.0
  3
*Paper_Space0
  1

  0
ENDBLK
  5
27A
330
278
100
AcDbEntity
  8
0
100
AcDbBlockEnd
  0
ENDSEC
  0
SECTION
  2
ENTITIES
  0
LINE
  5
21
330
274
100
AcDbEntity
  8
a1
100
AcDbLine
 10
8.93113646558
 20
-1.11121619555
 30
0.0
 11
8.73266676634
 21
-1.08652250232
 31
0.0
  0
LINE
  5
22
330
274
100
AcDbEntity
  8
a1
100
AcDbLine
 10
8.73266676634
 20
-1.08652250232
 30
0.0
 11
8.73266676634
 21
1.08652250232
 31
0.0
  0
LINE
  5
23
330
274
100
AcDbEntity
  8
a1
100
AcDbLine
 10
8.93113646558
 20
1.11121619555
 30
0.0
 11
8.73266676634
 21
1.08652250232
 31
0.0
  0
LINE
  5
24
330
274
100
AcDbEntity
  8
a1
100
AcDbLine
 10
8.93113646558
 20
1.11121619555
 30
0.0
 11
8.95303295996
 21
1.11498915599
 31
0.0
  0
LINE
  5
25
330
274
100
AcDbEntity
  8
a1
100
AcDbLine
 10
8.95303295996
 20
1.11498915599
 30
0.0
 11
9.01788380614
 21
1.1303856241
 31
0.0
  0
LINE
  5
26
330
274
100
AcDbEntity
  8
a1
100
AcDbLine
 10
9.01788380614
 20
1.1303856241
 30
0.0
 11
9.12395119353
 21
1.16340647178
 31
0.0
  0
LINE
  5
27
330
274
100
AcDbEntity
  8
a1
100
AcDbLine
 10
9.12395119353
 20
1.16340647178
 30
0.0
 11
9.26887066815
 21
1.21985103113
 31
0.0
  0
LINE
  5
28
330
274
100
AcDbEntity
  8
a1
100
AcDbLine
 10
9.26887066815
 20
1.21985103113
 30
0.0
 11
9.44967189115
 21
1.30525903603
 31
0.0
  0
LINE
  5
29
330
274
100
AcDbEntity
  8
a1
100
AcDbLine
 10
9.44967189115
 20
1.30525903603
 30
0.0
 11
9.6628044323
 21
1.42485455587
 31
0.0
  0
LINE
  5
2A
330
274
100
AcDbEntity
  8
a1
100
AcDbLine
 10
9.6628044323
 20
1.42485455587
 30
0.0
 11
9.90416841599
 21
1.58349233997
 31
0.0
  0
LINE
  5
2B
330
274
100
AcDbEntity
  8
a1
100
AcDbLine
 10
9.90416841599
 20
1.58349233997
 30
0.0
 11
10.1691498039
 21
1.78560697503
 31
0.0
  0
LINE
  5
2C
330
274
100
AcDbEntity
  8
a1
100
AcDbLine
 10
10.1691498039
 20
1.78560697503
 30
0.0
 11
10.4526600659
 21
2.03516523932
 31
0.0
  0
LINE
  5
2D
330
274
100
AcDbEntity
  8
a1
100
AcDbLine
 10
10.4526600659
 20
2.03516523932
 30
0.0
 11
10.7491799597
 21
2.33562201594
 31
0.0
  0
LINE
  5
2E
330
274
100
AcDbEntity
  8
a1
100
AcDbLine
 10
7.87859767159
 20
4.35059751405
 30
0.0
 11
7.89852999816
 21
4.36041556141
 31
0.0
  0
LINE
  5
2F
330
274
100
AcDbEntity
  8
a1
100
AcDbLine
 10
7.89852999816
 20
4.36041556141
 30
0.0
 11
7.96004525171
 21
4.38607792805
 31
0.0
  0
LINE
  5
30
330
274
100
AcDbEntity
  8
a1
100
AcDbLine
 10
7.96004525171
 20
4.38607792805
 30
0.0
 11
8.06526473795
 21
4.42170834716
 31
0.0
  0
LINE
  5
31
330
274
100
AcDbEntity
  8
a1
100
AcDbLine
 10
8.06526473795
 20
4.42170834716
 30
0.0
 11
8.21568433529
 21
4.46122526935
 31
0.0
  0
LINE
  5
32
330
274
100
AcDbEntity
  8
a1
100
AcDbLine
 10
8.21568433529
 20
4.46122526935
 30
0.0
 11
8.41215716301
 21
4.49840103442
 31
0.0
  0
LINE
  5
33
330
274
100
AcDbEntity
  8
a1
100
AcDbLine
 10
8.41215716301
 20
4.49840103442
 30
0.0
 11
8.65488149365
 21
4.52692239089
 31
0.0
  0
LINE
  5
34
330
274
100
AcDbEntity
  8
a1
100
AcDbLine
 10
8.65488149365
 20
4.52692239089
 30
0.0
 11
8.94339400824
 21
4.54045191765
 31
0.0
  0
LINE
  5
35
330
274
100
AcDbEntity
  8
a1
100
AcDbLine
 10
8.94339400824
 20
4.54045191765
 30
0.0
 11
9.27656845604
 21
4.53268989503
 31
0.0
  0
LINE
  5
36
330
274
100
AcDbEntity
  8
a1
100
AcDbLine
 10
9.27656845604
 20
4.53268989503
 30
0.0
 11
9.65261974341
 21
4.497436169
 31
0.0
  0
LINE
  5
37
330
274
100
AcDbEntity
  8
a1
100
AcDbLine
 10
9.65261974341
 20
4.497436169
 30
0.0
 11
10.0691134389
 21
4.42865155119
 31
0.0
  0
LINE
  5
38
330
274
100
AcDbEntity
  8
a1
100
AcDbLine
 10
10.7491799597
 20
2.33562201594
 30
0.0
 11
10.0691134389
 21
4.42865155119
 31
0.0
  0
LINE
  5
39
330
274
100
AcDbEntity
  8
a1
100
AcDbLine
 10
7.87859767159
 20
4.35059751405
 30
0.0
 11
7.70351772333
 21
4.2539175693
 31
0.0
  0
LINE
  5
3A
330
274
100
AcDbEntity
  8
a1
100
AcDbLine
 10
7.70351772333
 20
4.2539175693
 30
0.0
 11
6.42623391704
 21
6.01194790758
 31
0.0
  0
LINE
  5
3B
330
274
100
AcDbEntity
  8
a1
100
AcDbLine
 10
6.57228468788
 20
6.1485830873
 30
0.0
 11
6.42623391704
 21
6.01194790758
 31
0.0
  0
LINE
  5
3C
330
274
100
AcDbEntity
  8
a1
100
AcDbLine
 10
6.57228468788
 20
6.1485830873
 30
0.0
 11
6.58778163345
 21
6.16450591289
 31
0.0
  0
LINE
  5
3D
330
274
100
AcDbEntity
  8
a1
100
AcDbLine
 10
6.58778163345
 20
6.16450591289
 30
0.0
 11
6.63119725322
 21
6.21508028823
 31
0.0
  0
LINE
  5
3E
330
274
100
AcDbEntity
  8
a1
100
AcDbLine
 10
6.63119725322
 20
6.21508028823
 30
0.0
 11
6.69759840488
 21
6.30413956123
 31
0.0
  0
LINE
  5
3F
330
274
100
AcDbEntity
  8
a1
100
AcDbLine
 10
6.69759840488
 20
6.30413956123
 30
0.0
 11
6.7816634431
 21
6.43498569893
 31
0.0
  0
LINE
  5
40
330
274
100
AcDbEntity
  8
a1
100
AcDbLine
 10
6.7816634431
 20
6.43498569893
 30
0.0
 11
6.87773313941
 21
6.61035451883
 31
0.0
  0
LINE
  5
41
330
274
100
AcDbEntity
  8
a1
100
AcDbLine
 10
6.87773313941
 20
6.61035451883
 30
0.0
 11
6.97986450445
 21
6.8323854913
 31
0.0
  0
LINE
  5
42
330
274
100
AcDbEntity
  8
a1
100
AcDbLine
 10
6.97986450445
 20
6.8323854913
 30
0.0
 11
7.08188711914
 21
7.10259634464
 31
0.0
  0
LINE
  5
43
330
274
100
AcDbEntity
  8
a1
100
AcDbLine
 10
7.08188711914
 20
7.10259634464
 30
0.0
 11
7.17746156341
 21
7.42186267118
 31
0.0
  0
LINE
  5
44
330
274
100
AcDbEntity
  8
a1
100
AcDbLine
 10
7.17746156341
 20
7.42186267118
 30
0.0
 11
7.26013951611
 21
7.79040269895
 31
0.0
  0
LINE
  5
45
330
274
100
AcDbEntity
  8
a1
100
AcDbLine
 10
7.26013951611
 20
7.79040269895
 30
0.0
 11
7.32342508705
 21
8.20776735786
 31
0.0
  0
LINE
  5
46
330
274
100
AcDbEntity
  8
a1
100
AcDbLine
 10
3.81670235074
 20
8.15063084466
 30
0.0
 11
3.82705703823
 21
8.17028973943
 31
0.0
  0
LINE
  5
47
330
274
100
AcDbEntity
  8
a1
100
AcDbLine
 10
3.82705703823
 20
8.17028973943
 30
0.0
 11
3.86173996312
 21
8.22720878898
 31
0.0
  0
LINE
  5
48
330
274
100
AcDbEntity
  8
a1
100
AcDbLine
 10
3.86173996312
 20
8.22720878898
 30
0.0
 11
3.92592128073
 21
8.31788086582
 31
0.0
  0
LINE
  5
49
330
274
100
AcDbEntity
  8
a1
100
AcDbLine
 10
3.92592128073
 20
8.31788086582
 30
0.0
 11
4.02438582719
 21
8.43826514842
 31
0.0
  0
LINE
  5
4A
330
274
100
AcDbEntity
  8
a1
100
AcDbLine
 10
4.02438582719
 20
8.43826514842
 30
0.0
 11
4.1614843173
 21
8.58382480474
 31
0.0
  0
LINE
  5
4B
330
274
100
AcDbEntity
  8
a1
100
AcDbLine
 10
4.1614843173
 20
8.58382480474
 30
0.0
 11
4.34108799303
 21
8.74956884875
 31
0.0
  0
LINE
  5
4C
330
274
100
AcDbEntity
  8
a1
100
AcDbLine
 10
4.34108799303
 20
8.74956884875
 30
0.0
 11
4.56654706412
 21
8.930097867
 31
0.0
  0
LINE
  5
4D
330
274
100
AcDbEntity
  8
a1
100
AcDbLine
 10
4.56654706412
 20
8.930097867
 30
0.0
 11
4.8406532569
 21
9.11965328565
 31
0.0
  0
LINE
  5
4E
330
274
100
AcDbEntity
  8
a1
100
AcDbLine
 10
4.8406532569
 20
9.11965328565
 30
0.0
 11
5.16560675939
 21
9.31216982301
 31
0.0
  0
LINE
  5
4F
330
274
100
AcDbEntity
  8
a1
100
AcDbLine
 10
5.16560675939
 20
9.31216982301
 30
0.0
 11
5.54298782099
 21
9.50133075009
 31
0.0
  0
LINE
  5
50
330
274
100
AcDbEntity
  8
a1
100
AcDbLine
 10
7.32342508705
 20
8.20776735786
 30
0.0
 11
5.54298782099
 21
9.50133075009
 31
0.0
  0
LINE
  5
51
330
274
100
AcDbEntity
  8
a1
100
AcDbLine
 10
3.81670235074
 20
8.15063084466
 30
0.0
 11
3.73188674294
 21
7.96950571478
 31
0.0
  0
LINE
  5
52
330
274
100
AcDbEntity
  8
a1
100
AcDbLine
 10
3.73188674294
 20
7.96950571478
 30
0.0
 11
1.66519813108
 21
8.64101355075
 31
0.0
  0
LINE
  5
53
330
274
100
AcDbEntity
  8
a1
100
AcDbLine
 10
1.70304354315
 20
8.83740022236
 30
0.0
 11
1.66519813108
 21
8.64101355075
 31
0.0
  0
LINE
  5
54
330
274
100
AcDbEntity
  8
a1
100
AcDbLine
 10
1.70304354315
 20
8.83740022236
 30
0.0
 11
1.70622163342
 21
8.85939093492
 31
0.0
  0
LINE
  5
55
330
274
100
AcDbEntity
  8
a1
100
AcDbLine
 10
1.70622163342
 20
8.85939093492
 30
0.0
 11
1.71161873567
 21
8.92582552507
 31
0.0
  0
LINE
  5
56
330
274
100
AcDbEntity
  8
a1
100
AcDbLine
 10
1.71161873567
 20
8.92582552507
 30
0.0
 11
1.71299066856
 21
9.03690560812
 31
0.0
  0
LINE
  5
57
330
274
100
AcDbEntity
  8
a1
100
AcDbLine
 10
1.71299066856
 20
9.03690560812
 30
0.0
 11
1.70409128306
 21
9.19217454686
 31
0.0
  0
LINE
  5
58
330
274
100
AcDbEntity
  8
a1
100
AcDbLine
 10
1.70409128306
 20
9.19217454686
 30
0.0
 11
1.67873409397
 21
9.39051925313
 31
0.0
  0
LINE
  5
59
330
274
100
AcDbEntity
  8
a1
100
AcDbLine
 10
1.67873409397
 20
9.39051925313
 30
0.0
 11
1.63085357277
 21
9.6301773933
 31
0.0
  0
LINE
  5
5A
330
274
100
AcDbEntity
  8
a1
100
AcDbLine
 10
1.63085357277
 20
9.6301773933
 30
0.0
 11
1.55456564726
 21
9.90874995403
 31
0.0
  0
LINE
  5
5B
330
274
100
AcDbEntity
  8
a1
100
AcDbLine
 10
1.55456564726
 20
9.90874995403
 30
0.0
 11
1.44422695862
 21
10.2232190868
 31
0.0
  0
LINE
  5
5C
330
274
100
AcDbEntity
  8
a1
100
AcDbLine
 10
1.44422695862
 20
10.2232190868
 30
0.0
 11
1.2944924342
 21
10.5699711136
 31
0.0
  0
LINE
  5
5D
330
274
100
AcDbEntity
  8
a1
100
AcDbLine
 10
1.2944924342
 20
10.5699711136
 30
0.0
 11
1.10037074526
 21
10.9448245408
 31
0.0
  0
LINE
  5
5E
330
274
100
AcDbEntity
  8
a1
100
AcDbLine
 10
-1.70304354315
 20
8.83740022236
 30
0.0
 11
-1.70622163342
 21
8.85939093492
 31
0.0
  0
LINE
  5
5F
330
274
100
AcDbEntity
  8
a1
100
AcDbLine
 10
-1.70622163342
 20
8.85939093492
 30
0.0
 11
-1.71161873567
 21
8.92582552507
 31
0.0
  0
LINE
  5
60
330
274
100
AcDbEntity
  8
a1
100
AcDbLine
 10
-1.71161873567
 20
8.92582552507
 30
0.0
 11
-1.71299066856
 21
9.03690560812
 31
0.0
  0
LINE
  5
61
330
274
100
AcDbEntity
  8
a1
100
AcDbLine
 10
-1.71299066856
 20
9.03690560812
 30
0.0
 11
-1.70409128306
 21
9.19217454686
 31
0.0
  0
LINE
  5
62
330
274
100
AcDbEntity
  8
a1
100
AcDbLine
 10
-1.70409128306
 20
9.19217454686
 30
0.0
 11
-1.67873409397
 21
9.39051925313
 31
0.0
  0
LINE
  5
63
330
274
100
AcDbEntity
  8
a1
100
AcDbLine
 10
-1.67873409397
 20
9.39051925313
 30
0.0
 11
-1.63085357277
 21
9.6301773933
 31
0.0
  0
LINE
  5
64
330
274
100
AcDbEntity
  8
a1
100
AcDbLine
 10
-1.63085357277
 20
9.6301773933
 30
0.0
 11
-1.55456564726
 21
9.90874995403
 31
0.0
  0
LINE
  5
65
330
274
100
AcDbEntity
  8
a1
100
AcDbLine
 10
-1.55456564726
 20
9.90874995403
 30
0.0
 11
-1.44422695862
 21
10.2232190868
 31
0.0
  0
LINE
  5
66
330
274
100
AcDbEntity
  8
a1
100
AcDbLine
 10
-1.44422695862
 20
10.2232190868
 30
0.0
 11
-1.2944924342
 21
10.5699711136
 31
0.0
  0
LINE
  5
67
330
274
100
AcDbEntity
  8
a1
100
AcDbLine
 10
-1.2944924342
 20
10.5699711136
 30
0.0
 11
-1.10037074526
 21
10.9448245408
 31
0.0
  0
LINE
  5
68
330
274
100
AcDbEntity
  8
a1
100
AcDbLine
 10
1.10037074526
 20
10.9448245408
 30
0.0
 11
-1.10037074526
 21
10.9448245408
 31
0.0
  0
LINE
  5
69
330
274
100
AcDbEntity
  8
a1
100
AcDbLine
 10
-1.70304354315
 20
8.83740022236
 30
0.0
 11
-1.66519813108
 21
8.64101355075
 31
0.0
  0
LINE
  5
6A
330
274
100
AcDbEntity
  8
a1
100
AcDbLine
 10
-1.66519813108
 20
8.64101355075
 30
0.0
 11
-3.73188674294
 21
7.96950571478
 31
0.0
  0
LINE
  5
6B
330
274
100
AcDbEntity
  8
a1
100
AcDbLine
 10
-3.81670235074
 20
8.15063084466
 30
0.0
 11
-3.73188674294
 21
7.96950571478
 31
0.0
  0
LINE
  5
6C
330
274
100
AcDbEntity
  8
a1
100
AcDbLine
 10
-3.81670235074
 20
8.15063084466
 30
0.0
 11
-3.82705703823
 21
8.17028973943
 31
0.0
  0
LINE
  5
6D
330
274
100
AcDbEntity
  8
a1
100
AcDbLine
 10
-3.82705703823
 20
8.17028973943
 30
0.0
 11
-3.86173996312
 21
8.22720878898
 31
0.0
  0
LINE
  5
6E
330
274
100
AcDbEntity
  8
a1
100
AcDbLine
 10
-3.86173996312
 20
8.22720878898
 30
0.0
 11
-3.92592128073
 21
8.31788086582
 31
0.0
  0
LINE
  5
6F
330
274
100
AcDbEntity
  8
a1
100
AcDbLine
 10
-3.92592128073
 20
8.31788086582
 30
0.0
 11
-4.02438582719
 21
8.43826514842
 31
0.0
  0
LINE
  5
70
330
274
100
AcDbEntity
  8
a1
100
AcDbLine
 10
-4.02438582719
 20
8.43826514842
 30
0.0
 11
-4.1614843173
 21
8.58382480474
 31
0.0
  0
LINE
  5
71
330
274
100
AcDbEntity
  8
a1
100
AcDbLine
 10
-4.1614843173
 20
8.58382480474
 30
0.0
 11
-4.34108799303
 21
8.74956884875
 31
0.0
  0
LINE
  5
72
330
274
100
AcDbEntity
  8
a1
100
AcDbLine
 10
-4.34108799303
 20
8.74956884875
 30
0.0
 11
-4.56654706412
 21
8.930097867
 31
0.0
  0
LINE
  5
73
330
274
100
AcDbEntity
  8
a1
100
AcDbLine
 10
-4.56654706412
 20
8.930097867
 30
0.0
 11
-4.8406532569
 21
9.11965328565
 31
0.0
  0
LINE
  5
74
330
274
100
AcDbEntity
  8
a1
100
AcDbLine
 10
-4.8406532569
 20
9.11965328565
 30
0.0
 11
-5.16560675939
 21
9.31216982301
 31
0.0
  0
LINE
  5
75
330
274
100
AcDbEntity
  8
a1
100
AcDbLine
 10
-5.16560675939
 20
9.31216982301
 30
0.0
 11
-5.54298782099
 21
9.50133075009
 31
0.0
  0
LINE
  5
76
330
274
100
AcDbEntity
  8
a1
100
AcDbLine
 10
-6.57228468788
 20
6.1485830873
 30
0.0
 11
-6.58778163345
 21
6.16450591289
 31
0.0
  0
LINE
  5
77
330
274
100
AcDbEntity
  8
a1
100
AcDbLine
 10
-6.58778163345
 20
6.16450591289
 30
0.0
 11
-6.63119725322
 21
6.21508028823
 31
0.0
  0
LINE
  5
78
330
274
100
AcDbEntity
  8
a1
100
AcDbLine
 10
-6.63119725322
 20
6.21508028823
 30
0.0
 11
-6.69759840488
 21
6.30413956123
 31
0.0
  0
LINE
  5
79
330
274
100
AcDbEntity
  8
a1
100
AcDbLine
 10
-6.69759840488
 20
6.30413956123
 30
0.0
 11
-6.7816634431
 21
6.43498569893
 31
0.0
  0
LINE
  5
7A
330
274
100
AcDbEntity
  8
a1
100
AcDbLine
 10
-6.7816634431
 20
6.43498569893
 30
0.0
 11
-6.87773313941
 21
6.61035451883
 31
0.0
  0
LINE
  5
7B
330
274
100
AcDbEntity
  8
a1
100
AcDbLine
 10
-6.87773313941
 20
6.61035451883
 30
0.0
 11
-6.97986450445
 21
6.8323854913
 31
0.0
  0
LINE
  5
7C
330
274
100
AcDbEntity
  8
a1
100
AcDbLine
 10
-6.97986450445
 20
6.8323854913
 30
0.0
 11
-7.08188711914
 21
7.10259634464
 31
0.0
  0
LINE
  5
7D
330
274
100
AcDbEntity
  8
a1
100
AcDbLine
 10
-7.08188711914
 20
7.10259634464
 30
0.0
 11
-7.17746156341
 21
7.42186267118
 31
0.0
  0
LINE
  5
7E
330
274
100
AcDbEntity
  8
a1
100
AcDbLine
 10
-7.17746156341
 20
7.42186267118
 30
0.0
 11
-7.26013951611
 21
7.79040269895
 31
0.0
  0
LINE
  5
7F
330
274
100
AcDbEntity
  8
a1
100
AcDbLine
 10
-7.26013951611
 20
7.79040269895
 30
0.0
 11
-7.32342508705
 21
8.20776735786
 31
0.0
  0
LINE
  5
80
330
274
100
AcDbEntity
  8
a1
100
AcDbLine
 10
-5.54298782099
 20
9.50133075009
 30
0.0
 11
-7.32342508705
 21
8.20776735786
 31
0.0
  0
LINE
  5
81
330
274
100
AcDbEntity
  8
a1
100
AcDbLine
 10
-6.57228468788
 20
6.1485830873
 30
0.0
 11
-6.42623391704
 21
6.01194790758
 31
0.0
  0
LINE
  5
82
330
274
100
AcDbEntity
  8
a1
100
AcDbLine
 10
-6.42623391704
 20
6.01194790758
 30
0.0
 11
-7.70351772333
 21
4.2539175693
 31
0.0
  0
LINE
  5
83
330
274
100
AcDbEntity
  8
a1
100
AcDbLine
 10
-7.87859767159
 20
4.35059751405
 30
0.0
 11
-7.70351772333
 21
4.2539175693
 31
0.0
  0
LINE
  5
84
330
274
100
AcDbEntity
  8
a1
100
AcDbLine
 10
-7.87859767159
 20
4.35059751405
 30
0.0
 11
-7.89852999816
 21
4.36041556141
 31
0.0
  0
LINE
  5
85
330
274
100
AcDbEntity
  8
a1
100
AcDbLine
 10
-7.89852999816
 20
4.36041556141
 30
0.0
 11
-7.96004525171
 21
4.38607792805
 31
0.0
  0
LINE
  5
86
330
274
100
AcDbEntity
  8
a1
100
AcDbLine
 10
-7.96004525171
 20
4.38607792805
 30
0.0
 11
-8.06526473795
 21
4.42170834716
 31
0.0
  0
LINE
  5
87
330
274
100
AcDbEntity
  8
a1
100
AcDbLine
 10
-8.06526473795
 20
4.42170834716
 30
0.0
 11
-8.21568433529
 21
4.46122526935
 31
0.0
  0
LINE
  5
88
330
274
100
AcDbEntity
  8
a1
100
AcDbLine
 10
-8.21568433529
 20
4.46122526935
 30
0.0
 11
-8.41215716301
 21
4.49840103442
 31
0.0
  0
LINE
  5
89
330
274
100
AcDbEntity
  8
a1
100
AcDbLine
 10
-8.41215716301
 20
4.49840103442
 30
0.0
 11
-8.65488149365
 21
4.52692239089
 31
0.0
  0
LINE
  5
8A
330
274
100
AcDbEntity
  8
a1
100
AcDbLine
 10
-8.65488149365
 20
4.52692239089
 30
0.0
 11
-8.94339400824
 21
4.54045191765
 31
0.0
  0
LINE
  5
8B
330
274
100
AcDbEntity
  8
a1
100
AcDbLine
 10
-8.94339400824
 20
4.54045191765
 30
0.0
 11
-9.27656845604
 21
4.53268989503
 31
0.0
  0
LINE
  5
8C
330
274
100
AcDbEntity
  8
a1
100
AcDbLine
 10
-9.27656845604
 20
4.53268989503
 30
0.0
 11
-9.65261974341
 21
4.497436169
 31
0.0
  0
LINE
  5
8D
330
274
100
AcDbEntity
  8
a1
100
AcDbLine
 10
-9.65261974341
 20
4.497436169
 30
0.0
 11
-10.0691134389
 21
4.42865155119
 31
0.0
  0
LINE
  5
A6
330
274
100
AcDbEntity
  8
a1
100
AcDbLine
 10
-7.87859767159
 20
-4.35059751405
 30
0.0
 11
-7.89852999816
 21
-4.36041556141
 31
0.0
  0
LINE
  5
A7
330
274
100
AcDbEntity
  8
a1
100
AcDbLine
 10
-7.89852999816
 20
-4.36041556141
 30
0.0
 11
-7.96004525171
 21
-4.38607792805
 31
0.0
  0
LINE
  5
A8
330
274
100
AcDbEntity
  8
a1
100
AcDbLine
 10
-7.96004525171
 20
-4.38607792805
 30
0.0
 11
-8.06526473795
 21
-4.42170834716
 31
0.0
  0
LINE
  5
A9
330
274
100
AcDbEntity
  8
a1
100
AcDbLine
 10
-8.06526473795
 20
-4.42170834716
 30
0.0
 11
-8.21568433529
 21
-4.46122526935
 31
0.0
  0
LINE
  5
AA
330
274
100
AcDbEntity
  8
a1
100
AcDbLine
 10
-8.21568433529
 20
-4.46122526935
 30
0.0
 11
-8.41215716301
 21
-4.49840103442
 31
0.0
  0
LINE
  5
AB
330
274
100
AcDbEntity
  8
a1
100
AcDbLine
 10
-8.41215716301
 20
-4.49840103442
 30
0.0
 11
-8.65488149365
 21
-4.52692239089
 31
0.0
  0
LINE
  5
AC
330
274
100
AcDbEntity
  8
a1
100
AcDbLine
 10
-8.65488149365
 20
-4.52692239089
 30
0.0
 11
-8.94339400824
 21
-4.54045191765
 31
0.0
  0
LINE
  5
AD
330
274
100
AcDbEntity
  8
a1
100
AcDbLine
 10
-8.94339400824
 20
-4.54045191765
 30
0.0
 11
-9.27656845604
 21
-4.53268989503
 31
0.0
  0
LINE
  5
AE
330
274
100
AcDbEntity
  8
a1
100
AcDbLine
 10
-9.27656845604
 20
-4.53268989503
 30
0.0
 11
-9.65261974341
 21
-4.497436169
 31
0.0
  0
LINE
  5
AF
330
274
100
AcDbEntity
  8
a1
100
AcDbLine
 10
-9.65261974341
 20
-4.497436169
 30
0.0
 11
-10.0691134389
 21
-4.42865155119
 31
0.0
  0
LINE
  5
B1
330
274
100
AcDbEntity
  8
a1
100
AcDbLine
 10
-7.87859767159
 20
-4.35059751405
 30
0.0
 11
-7.70351772333
 21
-4.2539175693
 31
0.0
  0
LINE
  5
B2
330
274
100
AcDbEntity
  8
a1
100
AcDbLine
 10
-7.70351772333
 20
-4.2539175693
 30
0.0
 11
-6.42623391704
 21
-6.01194790758
 31
0.0
  0
LINE
  5
B3
330
274
100
AcDbEntity
  8
a1
100
AcDbLine
 10
-6.57228468788
 20
-6.1485830873
 30
0.0
 11
-6.42623391704
 21
-6.01194790758
 31
0.0
  0
LINE
  5
B4
330
274
100
AcDbEntity
  8
a1
100
AcDbLine
 10
-6.57228468788
 20
-6.1485830873
 30
0.0
 11
-6.58778163345
 21
-6.16450591289
 31
0.0
  0
LINE
  5
B5
330
274
100
AcDbEntity
  8
a1
100
AcDbLine
 10
-6.58778163345
 20
-6.16450591289
 30
0.0
 11
-6.63119725322
 21
-6.21508028823
 31
0.0
  0
LINE
  5
B6
330
274
100
AcDbEntity
  8
a1
100
AcDbLine
 10
-6.63119725322
 20
-6.21508028823
 30
0.0
 11
-6.69759840488
 21
-6.30413956123
 31
0.0
  0
LINE
  5
B7
330
274
100
AcDbEntity
  8
a1
100
AcDbLine
 10
-6.69759840488
 20
-6.30413956123
 30
0.0
 11
-6.7816634431
 21
-6.43498569893
 31
0.0
  0
LINE
  5
B8
330
274
100
AcDbEntity
  8
a1
100
AcDbLine
 10
-6.7816634431
 20
-6.43498569893
 30
0.0
 11
-6.87773313941
 21
-6.61035451883
 31
0.0
  0
LINE
  5
B9
330
274
100
AcDbEntity
  8
a1
100
AcDbLine
 10
-6.87773313941
 20
-6.61035451883
 30
0.0
 11
-6.97986450445
 21
-6.8323854913
 31
0.0
  0
LINE
  5
BA
330
274
100
AcDbEntity
  8
a1
100
AcDbLine
 10
-6.97986450445
 20
-6.8323854913
 30
0.0
 11
-7.08188711914
 21
-7.10259634464
 31
0.0
  0
LINE
  5
BB
330
274
100
AcDbEntity
  8
a1
100
AcDbLine
 10
-7.08188711914
 20
-7.10259634464
 30
0.0
 11
-7.17746156341
 21
-7.42186267118
 31
0.0
  0
LINE
  5
BC
330
274
100
AcDbEntity
  8
a1
100
AcDbLine
 10
-7.17746156341
 20
-7.42186267118
 30
0.0
 11
-7.26013951611
 21
-7.79040269895
 31
0.0
  0
LINE
  5
BD
330
274
100
AcDbEntity
  8
a1
100
AcDbLine
 10
-7.26013951611
 20
-7.79040269895
 30
0.0
 11
-7.32342508705
 21
-8.20776735786
 31
0.0
  0
LINE
  5
BE
330
274
100
AcDbEntity
  8
a1
100
AcDbLine
 10
-3.81670235074
 20
-8.15063084466
 30
0.0
 11
-3.82705703823
 21
-8.17028973943
 31
0.0
  0
LINE
  5
BF
330
274
100
AcDbEntity
  8
a1
100
AcDbLine
 10
-3.82705703823
 20
-8.17028973943
 30
0.0
 11
-3.86173996312
 21
-8.22720878898
 31
0.0
  0
LINE
  5
C0
330
274
100
AcDbEntity
  8
a1
100
AcDbLine
 10
-3.86173996312
 20
-8.22720878898
 30
0.0
 11
-3.92592128073
 21
-8.31788086582
 31
0.0
  0
LINE
  5
C1
330
274
100
AcDbEntity
  8
a1
100
AcDbLine
 10
-3.92592128073
 20
-8.31788086582
 30
0.0
 11
-4.02438582719
 21
-8.43826514842
 31
0.0
  0
LINE
  5
C2
330
274
100
AcDbEntity
  8
a1
100
AcDbLine
 10
-4.02438582719
 20
-8.43826514842
 30
0.0
 11
-4.1614843173
 21
-8.58382480474
 31
0.0
  0
LINE
  5
C3
330
274
100
AcDbEntity
  8
a1
100
AcDbLine
 10
-4.1614843173
 20
-8.58382480474
 30
0.0
 11
-4.34108799303
 21
-8.74956884875
 31
0.0
  0
LINE
  5
C4
330
274
100
AcDbEntity
  8
a1
100
AcDbLine
 10
-4.34108799303
 20
-8.74956884875
 30
0.0
 11
-4.56654706412
 21
-8.930097867
 31
0.0
  0
LINE
  5
C5
330
274
100
AcDbEntity
  8
a1
100
AcDbLine
 10
-4.56654706412
 20
-8.930097867
 30
0.0
 11
-4.8406532569
 21
-9.11965328565
 31
0.0
  0
LINE
  5
C6
330
274
100
AcDbEntity
  8
a1
100
AcDbLine
 10
-4.8406532569
 20
-9.11965328565
 30
0.0
 11
-5.16560675939
 21
-9.31216982301
 31
0.0
  0
LINE
  5
C7
330
274
100
AcDbEntity
  8
a1
100
AcDbLine
 10
-5.16560675939
 20
-9.31216982301
 30
0.0
 11
-5.54298782099
 21
-9.50133075009
 31
0.0
  0
LINE
  5
C8
330
274
100
AcDbEntity
  8
a1
100
AcDbLine
 10
-7.32342508705
 20
-8.20776735786
 30
0.0
 11
-5.54298782099
 21
-9.50133075009
 31
0.0
  0
LINE
  5
C9
330
274
100
AcDbEntity
  8
a1
100
AcDbLine
 10
-3.81670235074
 20
-8.15063084466
 30
0.0
 11
-3.73188674294
 21
-7.96950571478
 31
0.0
  0
LINE
  5
CA
330
274
100
AcDbEntity
  8
a1
100
AcDbLine
 10
-3.73188674294
 20
-7.96950571478
 30
0.0
 11
-1.66519813108
 21
-8.64101355075
 31
0.0
  0
LINE
  5
CB
330
274
100
AcDbEntity
  8
a1
100
AcDbLine
 10
-1.70304354315
 20
-8.83740022236
 30
0.0
 11
-1.66519813108
 21
-8.64101355075
 31
0.0
  0
LINE
  5
CC
330
274
100
AcDbEntity
  8
a1
100
AcDbLine
 10
-1.70304354315
 20
-8.83740022236
 30
0.0
 11
-1.70622163342
 21
-8.85939093492
 31
0.0
  0
LINE
  5
CD
330
274
100
AcDbEntity
  8
a1
100
AcDbLine
 10
-1.70622163342
 20
-8.85939093492
 30
0.0
 11
-1.71161873567
 21
-8.92582552507
 31
0.0
  0
LINE
  5
CE
330
274
100
AcDbEntity
  8
a1
100
AcDbLine
 10
-1.71161873567
 20
-8.92582552507
 30
0.0
 11
-1.71299066856
 21
-9.03690560812
 31
0.0
  0
LINE
  5
CF
330
274
100
AcDbEntity
  8
a1
100
AcDbLine
 10
-1.71299066856
 20
-9.03690560812
 30
0.0
 11
-1.70409128306
 21
-9.19217454686
 31
0.0
  0
LINE
  5
D0
330
274
100
AcDbEntity
  8
a1
100
AcDbLine
 10
-1.70409128306
 20
-9.19217454686
 30
0.0
 11
-1.67873409397
 21
-9.39051925313
 31
0.0
  0
LINE
  5
D1
330
274
100
AcDbEntity
  8
a1
100
AcDbLine
 10
-1.67873409397
 20
-9.39051925313
 30
0.0
 11
-1.63085357277
 21
-9.6301773933
 31
0.0
  0
LINE
  5
D2
330
274
100
AcDbEntity
  8
a1
100
AcDbLine
 10
-1.63085357277
 20
-9.6301773933
 30
0.0
 11
-1.55456564726
 21
-9.90874995403
 31
0.0
  0
LINE
  5
D3
330
274
100
AcDbEntity
  8
a1
100
AcDbLine
 10
-1.55456564726
 20
-9.90874995403
 30
0.0
 11
-1.44422695862
 21
-10.2232190868
 31
0.0
  0
LINE
  5
D4
330
274
100
AcDbEntity
  8
a1
100
AcDbLine
 10
-1.44422695862
 20
-10.2232190868
 30
0.0
 11
-1.2944924342
 21
-10.5699711136
 31
0.0
  0
LINE
  5
D5
330
274
100
AcDbEntity
  8
a1
100
AcDbLine
 10
-1.2944924342
 20
-10.5699711136
 30
0.0
 11
-1.10037074526
 21
-10.9448245408
 31
0.0
  0
LINE
  5
D6
330
274
100
AcDbEntity
  8
a1
100
AcDbLine
 10
1.70304354315
 20
-8.83740022236
 30
0.0
 11
1.70622163342
 21
-8.85939093492
 31
0.0
  0
LINE
  5
D7
330
274
100
AcDbEntity
  8
a1
100
AcDbLine
 10
1.70622163342
 20
-8.85939093492
 30
0.0
 11
1.71161873567
 21
-8.92582552507
 31
0.0
  0
LINE
  5
D8
330
274
100
AcDbEntity
  8
a1
100
AcDbLine
 10
1.71161873567
 20
-8.92582552507
 30
0.0
 11
1.71299066856
 21
-9.03690560812
 31
0.0
  0
LINE
  5
D9
330
274
100
AcDbEntity
  8
a1
100
AcDbLine
 10
1.71299066856
 20
-9.03690560812
 30
0.0
 11
1.70409128306
 21
-9.19217454686
 31
0.0
  0
LINE
  5
DA
330
274
100
AcDbEntity
  8
a1
100
AcDbLine
 10
1.70409128306
 20
-9.19217454686
 30
0.0
 11
1.67873409397
 21
-9.39051925313
 31
0.0
  0
LINE
  5
DB
330
274
100
AcDbEntity
  8
a1
100
AcDbLine
 10
1.67873409397
 20
-9.39051925313
 30
0.0
 11
1.63085357277
 21
-9.6301773933
 31
0.0
  0
LINE
  5
DC
330
274
100
AcDbEntity
  8
a1
100
AcDbLine
 10
1.63085357277
 20
-9.6301773933
 30
0.0
 11
1.55456564726
 21
-9.90874995403
 31
0.0
  0
LINE
  5
DD
330
274
100
AcDbEntity
  8
a1
100
AcDbLine
 10
1.55456564726
 20
-9.90874995403
 30
0.0
 11
1.44422695862
 21
-10.2232190868
 31
0.0
  0
LINE
  5
DE
330
274
100
AcDbEntity
  8
a1
100
AcDbLine
 10
1.44422695862
 20
-10.2232190868
 30
0.0
 11
1.2944924342
 21
-10.5699711136
 31
0.0
  0
LINE
  5
DF
330
274
100
AcDbEntity
  8
a1
100
AcDbLine
 10
1.2944924342
 20
-10.5699711136
 30
0.0
 11
1.10037074526
 21
-10.9448245408
 31
0.0
  0
LINE
  5
E0
330
274
100
AcDbEntity
  8
a1
100
AcDbLine
 10
-1.10037074526
 20
-10.9448245408
 30
0.0
 11
1.10037074526
 21
-10.9448245408
 31
0.0
  0
LINE
  5
E1
330
274
100
AcDbEntity
  8
a1
100
AcDbLine
 10
1.70304354315
 20
-8.83740022236
 30
0.0
 11
1.66519813108
 21
-8.64101355075
 31
0.0
  0
LINE
  5
E2
330
274
100
AcDbEntity
  8
a1
100
AcDbLine
 10
1.66519813108
 20
-8.64101355075
 30
0.0
 11
3.73188674294
 21
-7.96950571478
 31
0.0
  0
LINE
  5
E3
330
274
100
AcDbEntity
  8
a1
100
AcDbLine
 10
3.81670235074
 20
-8.15063084466
 30
0.0
 11
3.73188674294
 21
-7.96950571478
 31
0.0
  0
LINE
  5
E4
330
274
100
AcDbEntity
  8
a1
100
AcDbLine
 10
3.81670235074
 20
-8.15063084466
 30
0.0
 11
3.82705703823
 21
-8.17028973943
 31
0.0
  0
LINE
  5
E5
330
274
100
AcDbEntity
  8
a1
100
AcDbLine
 10
3.82705703823
 20
-8.17028973943
 30
0.0
 11
3.86173996312
 21
-8.22720878898
 31
0.0
  0
LINE
  5
E6
330
274
100
AcDbEntity
  8
a1
100
AcDbLine
 10
3.86173996312
 20
-8.22720878898
 30
0.0
 11
3.92592128073
 21
-8.31788086582
 31
0.0
  0
LINE
  5
E7
330
274
100
AcDbEntity
  8
a1
100
AcDbLine
 10
3.92592128073
 20
-8.31788086582
 30
0.0
 11
4.02438582719
 21
-8.43826514842
 31
0.0
  0
LINE
  5
E8
330
274
100
AcDbEntity
  8
a1
100
AcDbLine
 10
4.02438582719
 20
-8.43826514842
 30
0.0
 11
4.1614843173
 21
-8.58382480474
 31
0.0
  0
LINE
  5
E9
330
274
100
AcDbEntity
  8
a1
100
AcDbLine
 10
4.1614843173
 20
-8.58382480474
 30
0.0
 11
4.34108799303
 21
-8.74956884875
 31
0.0
  0
LINE
  5
EA
330
274
100
AcDbEntity
  8
a1
100
AcDbLine
 10
4.34108799303
 20
-8.74956884875
 30
0.0
 11
4.56654706412
 21
-8.930097867
 31
0.0
  0
LINE
  5
EB
330
274
100
AcDbEntity
  8
a1
100
AcDbLine
 10
4.56654706412
 20
-8.930097867
 30
0.0
 11
4.8406532569
 21
-9.11965328565
 31
0.0
  0
LINE
  5
EC
330
274
100
AcDbEntity
  8
a1
100
AcDbLine
 10
4.8406532569
 20
-9.11965328565
 30
0.0
 11
5.16560675939
 21
-9.31216982301
 31
0.0
  0
LINE
  5
ED
330
274
100
AcDbEntity
  8
a1
100
AcDbLine
 10
5.16560675939
 20
-9.31216982301
 30
0.0
 11
5.54298782099
 21
-9.50133075009
 31
0.0
  0
LINE
  5
EE
330
274
100
AcDbEntity
  8
a1
100
AcDbLine
 10
6.57228468788
 20
-6.1485830873
 30
0.0
 11
6.58778163345
 21
-6.16450591289
 31
0.0
  0
LINE
  5
EF
330
274
100
AcDbEntity
  8
a1
100
AcDbLine
 10
6.58778163345
 20
-6.16450591289
 30
0.0
 11
6.63119725322
 21
-6.21508028823
 31
0.0
  0
LINE
  5
F0
330
274
100
AcDbEntity
  8
a1
100
AcDbLine
 10
6.63119725322
 20
-6.21508028823
 30
0.0
 11
6.69759840488
 21
-6.30413956123
 31
0.0
  0
LINE
  5
F1
330
274
100
AcDbEntity
  8
a1
100
AcDbLine
 10
6.69759840488
 20
-6.30413956123
 30
0.0
 11
6.7816634431
 21
-6.43498569893
 31
0.0
  0
LINE
  5
F2
330
274
100
AcDbEntity
  8
a1
100
AcDbLine
 10
6.7816634431
 20
-6.43498569893
 30
0.0
 11
6.87773313941
 21
-6.61035451883
 31
0.0
  0
LINE
  5
F3
330
274
100
AcDbEntity
  8
a1
100
AcDbLine
 10
6.87773313941
 20
-6.61035451883
 30
0.0
 11
6.97986450445
 21
-6.8323854913
 31
0.0
  0
LINE
  5
F4
330
274
100
AcDbEntity
  8
a1
100
AcDbLine
 10
6.97986450445
 20
-6.8323854913
 30
0.0
 11
7.08188711914
 21
-7.10259634464
 31
0.0
  0
LINE
  5
F5
330
274
100
AcDbEntity
  8
a1
100
AcDbLine
 10
7.08188711914
 20
-7.10259634464
 30
0.0
 11
7.17746156341
 21
-7.42186267118
 31
0.0
  0
LINE
  5
F6
330
274
100
AcDbEntity
  8
a1
100
AcDbLine
 10
7.17746156341
 20
-7.42186267118
 30
0.0
 11
7.26013951611
 21
-7.79040269895
 31
0.0
  0
LINE
  5
F7
330
274
100
AcDbEntity
  8
a1
100
AcDbLine
 10
7.26013951611
 20
-7.79040269895
 30
0.0
 11
7.32342508705
 21
-8.20776735786
 31
0.0
  0
LINE
  5
F8
330
274
100
AcDbEntity
  8
a1
100
AcDbLine
 10
5.54298782099
 20
-9.50133075009
 30
0.0
 11
7.32342508705
 21
-8.20776735786
 31
0.0
  0
LINE
  5
F9
330
274
100
AcDbEntity
  8
a1
100
AcDbLine
 10
6.57228468788
 20
-6.1485830873
 30
0.0
 11
6.42623391704
 21
-6.01194790758
 31
0.0
  0
LINE
  5
FA
330
274
100
AcDbEntity
  8
a1
100
AcDbLine
 10
6.42623391704
 20
-6.01194790758
 30
0.0
 11
7.70351772333
 21
-4.2539175693
 31
0.0
  0
LINE
  5
FB
330
274
100
AcDbEntity
  8
a1
100
AcDbLine
 10
7.87859767159
 20
-4.35059751405
 30
0.0
 11
7.70351772333
 21
-4.2539175693
 31
0.0
  0
LINE
  5
FC
330
274
100
AcDbEntity
  8
a1
100
AcDbLine
 10
7.87859767159
 20
-4.35059751405
 30
0.0
 11
7.89852999816
 21
-4.36041556141
 31
0.0
  0
LINE
  5
FD
330
274
100
AcDbEntity
  8
a1
100
AcDbLine
 10
7.89852999816
 20
-4.36041556141
 30
0.0
 11
7.96004525171
 21
-4.38607792805
 31
0.0
  0
LINE
  5
FE
330
274
100
AcDbEntity
  8
a1
100
AcDbLine
 10
7.96004525171
 20
-4.38607792805
 30
0.0
 11
8.06526473795
 21
-4.42170834716
 31
0.0
  0
LINE
  5
FF
330
274
100
AcDbEntity
  8
a1
100
AcDbLine
 10
8.06526473795
 20
-4.42170834716
 30
0.0
 11
8.21568433529
 21
-4.46122526935
 31
0.0
  0
LINE
  5
100
330
274
100
AcDbEntity
  8
a1
100
AcDbLine
 10
8.21568433529
 20
-4.46122526935
 30
0.0
 11
8.41215716301
 21
-4.49840103442
 31
0.0
  0
LINE
  5
101
330
274
100
AcDbEntity
  8
a1
100
AcDbLine
 10
8.41215716301
 20
-4.49840103442
 30
0.0
 11
8.65488149365
 21
-4.52692239089
 31
0.0
  0
LINE
  5
102
330
274
100
AcDbEntity
  8
a1
100
AcDbLine
 10
8.65488149365
 20
-4.52692239089
 30
0.0
 11
8.94339400824
 21
-4.54045191765
 31
0.0
  0
LINE
  5
103
330
274
100
AcDbEntity
  8
a1
100
AcDbLine
 10
8.94339400824
 20
-4.54045191765
 30
0.0
 11
9.27656845604
 21
-4.53268989503
 31
0.0
  0
LINE
  5
104
330
274
100
AcDbEntity
  8
a1
100
AcDbLine
 10
9.27656845604
 20
-4.53268989503
 30
0.0
 11
9.65261974341
 21
-4.497436169
 31
0.0
  0
LINE
  5
105
330
274
100
AcDbEntity
  8
a1
100
AcDbLine
 10
9.65261974341
 20
-4.497436169
 30
0.0
 11
10.0691134389
 21
-4.42865155119
 31
0.0
  0
LINE
  5
106
330
274
100
AcDbEntity
  8
a1
100
AcDbLine
 10
8.93113646558
 20
-1.11121619555
 30
0.0
 11
8.95303295996
 21
-1.11498915599
 31
0.0
  0
LINE
  5
107
330
274
100
AcDbEntity
  8
a1
100
AcDbLine
 10
8.95303295996
 20
-1.11498915599
 30
0.0
 11
9.01788380614
 21
-1.1303856241
 31
0.0
  0
LINE
  5
108
330
274
100
AcDbEntity
  8
a1
100
AcDbLine
 10
9.01788380614
 20
-1.1303856241
 30
0.0
 11
9.12395119353
 21
-1.16340647178
 31
0.0
  0
LINE
  5
109
330
274
100
AcDbEntity
  8
a1
100
AcDbLine
 10
9.12395119353
 20
-1.16340647178
 30
0.0
 11
9.26887066815
 21
-1.21985103113
 31
0.0
  0
LINE
  5
10A
330
274
100
AcDbEntity
  8
a1
100
AcDbLine
 10
9.26887066815
 20
-1.21985103113
 30
0.0
 11
9.44967189115
 21
-1.30525903603
 31
0.0
  0
LINE
  5
10B
330
274
100
AcDbEntity
  8
a1
100
AcDbLine
 10
9.44967189115
 20
-1.30525903603
 30
0.0
 11
9.6628044323
 21
-1.42485455587
 31
0.0
  0
LINE
  5
10C
330
274
100
AcDbEntity
  8
a1
100
AcDbLine
 10
9.6628044323
 20
-1.42485455587
 30
0.0
 11
9.90416841599
 21
-1.58349233997
 31
0.0
  0
LINE
  5
10D
330
274
100
AcDbEntity
  8
a1
100
AcDbLine
 10
9.90416841599
 20
-1.58349233997
 30
0.0
 11
10.1691498039
 21
-1.78560697503
 31
0.0
  0
LINE
  5
10E
330
274
100
AcDbEntity
  8
a1
100
AcDbLine
 10
10.1691498039
 20
-1.78560697503
 30
0.0
 11
10.4526600659
 21
-2.03516523932
 31
0.0
  0
LINE
  5
10F
330
274
100
AcDbEntity
  8
a1
100
AcDbLine
 10
10.4526600659
 20
-2.03516523932
 30
0.0
 11
10.7491799597
 21
-2.33562201594
 31
0.0
  0
LINE
  5
110
330
274
100
AcDbEntity
  8
a1
100
AcDbLine
 10
10.0691134389
 20
-4.42865155119
 30
0.0
 11
10.7491799597
 21
-2.33562201594
 31
0.0
  0
CIRCLE
  5
115
330
274
100
AcDbEntity
  8
a1sk
100
AcDbCircle
 10
0.0
 20
0.0
 30
0.0
 40
10.0
  0
CIRCLE
  5
11D
330
274
100
AcDbEntity
  8
a2sk
100
AcDbCircle
 10
20.0
 20
0.0
 30
0.0
 40
10.0
  0
LINE
  5
12B
330
274
100
AcDbEntity
  8
a2
100
AcDbLine
 10
26.14858308730664
 20
6.572284687878949
 30
0.0
 11
26.16450591289015
 21
6.587781633445535
 31
0.0
  0
LINE
  5
12C
330
274
100
AcDbEntity
  8
a2
100
AcDbLine
 10
26.16450591289015
 20
6.587781633445535
 30
0.0
 11
26.21508028822278
 21
6.631197253222293
 31
0.0
  0
LINE
  5
12D
330
274
100
AcDbEntity
  8
a2
100
AcDbLine
 10
26.21508028822278
 20
6.631197253222293
 30
0.0
 11
26.30413956123088
 21
6.697598404882748
 31
0.0
  0
LINE
  5
12E
330
274
100
AcDbEntity
  8
a2
100
AcDbLine
 10
26.30413956123088
 20
6.697598404882748
 30
0.0
 11
26.43498569893747
 21
6.78166344310057
 31
0.0
  0
LINE
  5
12F
330
274
100
AcDbEntity
  8
a2
100
AcDbLine
 10
26.43498569893747
 20
6.78166344310057
 30
0.0
 11
26.61035451882999
 21
6.877733139417034
 31
0.0
  0
LINE
  5
130
330
274
100
AcDbEntity
  8
a2
100
AcDbLine
 10
26.61035451882999
 20
6.877733139417034
 30
0.0
 11
26.83238549129669
 21
6.979864504457451
 31
0.0
  0
LINE
  5
131
330
274
100
AcDbEntity
  8
a2
100
AcDbLine
 10
26.83238549129669
 20
6.979864504457451
 30
0.0
 11
27.10259634463551
 21
7.081887119143094
 31
0.0
  0
LINE
  5
132
330
274
100
AcDbEntity
  8
a2
100
AcDbLine
 10
27.10259634463551
 20
7.081887119143094
 30
0.0
 11
27.42186267117905
 21
7.177461563412404
 31
0.0
  0
LINE
  5
133
330
274
100
AcDbEntity
  8
a2
100
AcDbLine
 10
27.42186267117905
 20
7.177461563412404
 30
0.0
 11
27.79040269895178
 21
7.260139516101795
 31
0.0
  0
LINE
  5
134
330
274
100
AcDbEntity
  8
a2
100
AcDbLine
 10
27.79040269895178
 20
7.260139516101795
 30
0.0
 11
28.20776735789827
 21
7.323425087069156
 31
0.0
  0
LINE
  5
135
330
274
100
AcDbEntity
  8
a2
100
AcDbLine
 10
29.50133075014023
 20
5.542987821004075
 30
0.0
 11
28.20776735789827
 21
7.323425087069156
 31
0.0
  0
LINE
  5
136
330
274
100
AcDbEntity
  8
a2
100
AcDbLine
 10
26.14858308730664
 20
6.572284687878949
 30
0.0
 11
26.01194790758434
 21
6.426233917042778
 31
0.0
  0
LINE
  5
137
330
274
100
AcDbEntity
  8
a2
100
AcDbLine
 10
26.01194790758434
 20
6.426233917042778
 30
0.0
 11
24.2539175692987
 21
7.703517723325019
 31
0.0
  0
LINE
  5
138
330
274
100
AcDbEntity
  8
a2
100
AcDbLine
 10
24.35059751405305
 20
7.878597671584004
 30
0.0
 11
24.2539175692987
 21
7.703517723325019
 31
0.0
  0
LINE
  5
139
330
274
100
AcDbEntity
  8
a2
100
AcDbLine
 10
24.35059751405305
 20
7.878597671584004
 30
0.0
 11
24.36041556141429
 21
7.898529998161239
 31
0.0
  0
LINE
  5
13A
330
274
100
AcDbEntity
  8
a2
100
AcDbLine
 10
24.36041556141429
 20
7.898529998161239
 30
0.0
 11
24.38607792804559
 21
7.960045251716156
 31
0.0
  0
LINE
  5
13B
330
274
100
AcDbEntity
  8
a2
100
AcDbLine
 10
24.38607792804559
 20
7.960045251716156
 30
0.0
 11
24.42170834715765
 21
8.065264737948322
 31
0.0
  0
LINE
  5
13C
330
274
100
AcDbEntity
  8
a2
100
AcDbLine
 10
24.42170834715765
 20
8.065264737948322
 30
0.0
 11
24.46122526935176
 21
8.21568433528272
 31
0.0
  0
LINE
  5
13D
330
274
100
AcDbEntity
  8
a2
100
AcDbLine
 10
24.46122526935176
 20
8.21568433528272
 30
0.0
 11
24.49840103441331
 21
8.412157163007837
 31
0.0
  0
LINE
  5
13E
330
274
100
AcDbEntity
  8
a2
100
AcDbLine
 10
24.49840103441331
 20
8.412157163007837
 30
0.0
 11
24.52692239088189
 21
8.654881493650851
 31
0.0
  0
LINE
  5
13F
330
274
100
AcDbEntity
  8
a2
100
AcDbLine
 10
24.52692239088189
 20
8.654881493650851
 30
0.0
 11
24.54045191764567
 21
8.943394008243308
 31
0.0
  0
LINE
  5
140
330
274
100
AcDbEntity
  8
a2
100
AcDbLine
 10
24.54045191764567
 20
8.943394008243308
 30
0.0
 11
24.53268989502742
 21
9.276568456040165
 31
0.0
  0
LINE
  5
141
330
274
100
AcDbEntity
  8
a2
100
AcDbLine
 10
24.53268989502742
 20
9.276568456040165
 30
0.0
 11
24.49743616900835
 21
9.652619743410847
 31
0.0
  0
LINE
  5
142
330
274
100
AcDbEntity
  8
a2
100
AcDbLine
 10
24.49743616900835
 20
9.652619743410847
 30
0.0
 11
24.42865155118361
 21
10.06911343885769
 31
0.0
  0
LINE
  5
143
330
274
100
AcDbEntity
  8
a2
100
AcDbLine
 10
21.11121619555374
 20
8.931136465579636
 30
0.0
 11
21.11498915599074
 21
8.953032959959657
 31
0.0
  0
LINE
  5
144
330
274
100
AcDbEntity
  8
a2
100
AcDbLine
 10
21.11498915599074
 20
8.953032959959657
 30
0.0
 11
21.13038562409693
 21
9.017883806141151
 31
0.0
  0
LINE
  5
145
330
274
100
AcDbEntity
  8
a2
100
AcDbLine
 10
21.13038562409693
 20
9.017883806141151
 30
0.0
 11
21.1634064717755
 21
9.123951193528715
 31
0.0
  0
LINE
  5
146
330
274
100
AcDbEntity
  8
a2
100
AcDbLine
 10
21.1634064717755
 20
9.123951193528715
 30
0.0
 11
21.21985103113129
 21
9.268870668154522
 31
0.0
  0
LINE
  5
147
330
274
100
AcDbEntity
  8
a2
100
AcDbLine
 10
21.21985103113129
 20
9.268870668154522
 30
0.0
 11
21.30525903602638
 21
9.449671891154479
 31
0.0
  0
LINE
  5
148
330
274
100
AcDbEntity
  8
a2
100
AcDbLine
 10
21.30525903602638
 20
9.449671891154479
 30
0.0
 11
21.42485455586444
 21
9.662804432300076
 31
0.0
  0
LINE
  5
149
330
274
100
AcDbEntity
  8
a2
100
AcDbLine
 10
21.42485455586444
 20
9.662804432300076
 30
0.0
 11
21.58349233996536
 21
9.904168415989906
 31
0.0
  0
LINE
  5
14A
330
274
100
AcDbEntity
  8
a2
100
AcDbLine
 10
21.58349233996536
 20
9.904168415989906
 30
0.0
 11
21.78560697502693
 21
10.16914980392848
 31
0.0
  0
LINE
  5
14B
330
274
100
AcDbEntity
  8
a2
100
AcDbLine
 10
21.78560697502693
 20
10.16914980392848
 30
0.0
 11
22.03516523932052
 21
10.45266006593036
 31
0.0
  0
LINE
  5
14C
330
274
100
AcDbEntity
  8
a2
100
AcDbLine
 10
22.03516523932052
 20
10.45266006593036
 30
0.0
 11
22.33562201594214
 21
10.74917995964788
 31
0.0
  0
LINE
  5
14D
330
274
100
AcDbEntity
  8
a2
100
AcDbLine
 10
24.42865155118361
 20
10.06911343885769
 30
0.0
 11
22.33562201594214
 21
10.74917995964788
 31
0.0
  0
LINE
  5
14E
330
274
100
AcDbEntity
  8
a2
100
AcDbLine
 10
21.11121619555374
 20
8.931136465579636
 30
0.0
 11
21.0865225023133
 21
8.732666766344016
 31
0.0
  0
LINE
  5
14F
330
274
100
AcDbEntity
  8
a2
100
AcDbLine
 10
21.0865225023133
 20
8.732666766344016
 30
0.0
 11
18.91347749768019
 21
8.732666766340632
 31
0.0
  0
LINE
  5
150
330
274
100
AcDbEntity
  8
a2
100
AcDbLine
 10
18.88878380444501
 20
8.931136465577591
 30
0.0
 11
18.91347749768019
 21
8.732666766340632
 31
0.0
  0
LINE
  5
151
330
274
100
AcDbEntity
  8
a2
100
AcDbLine
 10
18.88878380444501
 20
8.931136465577591
 30
0.0
 11
18.88501084400622
 21
8.953032959958842
 31
0.0
  0
LINE
  5
152
330
274
100
AcDbEntity
  8
a2
100
AcDbLine
 10
18.88501084400622
 20
8.953032959958842
 30
0.0
 11
18.86961437589951
 21
9.017883806144024
 31
0.0
  0
LINE
  5
153
330
274
100
AcDbEntity
  8
a2
100
AcDbLine
 10
18.86961437589951
 20
9.017883806144024
 30
0.0
 11
18.83659352821543
 21
9.123951193537486
 31
0.0
  0
LINE
  5
154
330
274
100
AcDbEntity
  8
a2
100
AcDbLine
 10
18.83659352821543
 20
9.123951193537486
 30
0.0
 11
18.78014896887541
 21
9.268870668145402
 31
0.0
  0
LINE
  5
155
330
274
100
AcDbEntity
  8
a2
100
AcDbLine
 10
18.78014896887541
 20
9.268870668145402
 30
0.0
 11
18.6947409639747
 21
9.449671891157745
 31
0.0
  0
LINE
  5
156
330
274
100
AcDbEntity
  8
a2
100
AcDbLine
 10
18.6947409639747
 20
9.449671891157745
 30
0.0
 11
18.57514544413101
 21
9.662804432299271
 31
0.0
  0
LINE
  5
157
330
274
100
AcDbEntity
  8
a2
100
AcDbLine
 10
18.57514544413101
 20
9.662804432299271
 30
0.0
 11
18.41650766002796
 21
9.904168415994365
 31
0.0
  0
LINE
  5
158
330
274
100
AcDbEntity
  8
a2
100
AcDbLine
 10
18.41650766002796
 20
9.904168415994365
 30
0.0
 11
18.21439302496515
 21
10.16914980396215
 31
0.0
  0
LINE
  5
159
330
274
100
AcDbEntity
  8
a2
100
AcDbLine
 10
18.21439302496515
 20
10.16914980396215
 30
0.0
 11
17.964834760686
 21
10.45266006589841
 31
0.0
  0
LINE
  5
15A
330
274
100
AcDbEntity
  8
a2
100
AcDbLine
 10
17.964834760686
 20
10.45266006589841
 30
0.0
 11
17.6643779840609
 21
10.74917995963332
 31
0.0
  0
LINE
  5
15B
330
274
100
AcDbEntity
  8
a2
100
AcDbLine
 10
15.64940248595063
 20
7.878597671589844
 30
0.0
 11
15.63958443859051
 21
7.898529998164917
 31
0.0
  0
LINE
  5
15C
330
274
100
AcDbEntity
  8
a2
100
AcDbLine
 10
15.63958443859051
 20
7.898529998164917
 30
0.0
 11
15.61392207195586
 21
7.960045251718842
 31
0.0
  0
LINE
  5
15D
330
274
100
AcDbEntity
  8
a2
100
AcDbLine
 10
15.61392207195586
 20
7.960045251718842
 30
0.0
 11
15.57829165284187
 21
8.065264737956001
 31
0.0
  0
LINE
  5
15E
330
274
100
AcDbEntity
  8
a2
100
AcDbLine
 10
15.57829165284187
 20
8.065264737956001
 30
0.0
 11
15.53877473064345
 21
8.215684335281905
 31
0.0
  0
LINE
  5
15F
330
274
100
AcDbEntity
  8
a2
100
AcDbLine
 10
15.53877473064345
 20
8.215684335281905
 30
0.0
 11
15.50159896558068
 21
8.412157163011026
 31
0.0
  0
LINE
  5
160
330
274
100
AcDbEntity
  8
a2
100
AcDbLine
 10
15.50159896558068
 20
8.412157163011026
 30
0.0
 11
15.47307760911873
 21
8.65488149365321
 31
0.0
  0
LINE
  5
161
330
274
100
AcDbEntity
  8
a2
100
AcDbLine
 10
15.47307760911873
 20
8.65488149365321
 30
0.0
 11
15.45954808235754
 21
8.943394008244706
 31
0.0
  0
LINE
  5
162
330
274
100
AcDbEntity
  8
a2
100
AcDbLine
 10
15.45954808235754
 20
8.943394008244706
 30
0.0
 11
15.46731010495579
 21
9.276568456066105
 31
0.0
  0
LINE
  5
163
330
274
100
AcDbEntity
  8
a2
100
AcDbLine
 10
15.46731010495579
 20
9.276568456066105
 30
0.0
 11
15.50256383100463
 21
9.652619743383228
 31
0.0
  0
LINE
  5
164
330
274
100
AcDbEntity
  8
a2
100
AcDbLine
 10
15.50256383100463
 20
9.652619743383228
 30
0.0
 11
15.57134844882074
 21
10.06911343883658
 31
0.0
  0
LINE
  5
165
330
274
100
AcDbEntity
  8
a2
100
AcDbLine
 10
17.6643779840609
 20
10.74917995963332
 30
0.0
 11
15.57134844882074
 21
10.06911343883658
 31
0.0
  0
LINE
  5
166
330
274
100
AcDbEntity
  8
a2
100
AcDbLine
 10
15.64940248595063
 20
7.878597671589844
 30
0.0
 11
15.7460824307079
 21
7.703517723330388
 31
0.0
  0
LINE
  5
167
330
274
100
AcDbEntity
  8
a2
100
AcDbLine
 10
15.7460824307079
 20
7.703517723330388
 30
0.0
 11
13.98805209241613
 21
6.426233917041955
 31
0.0
  0
LINE
  5
168
330
274
100
AcDbEntity
  8
a2
100
AcDbLine
 10
13.85141691269312
 20
6.572284687880692
 30
0.0
 11
13.98805209241613
 21
6.426233917041955
 31
0.0
  0
LINE
  5
169
330
274
100
AcDbEntity
  8
a2
100
AcDbLine
 10
13.85141691269312
 20
6.572284687880692
 30
0.0
 11
13.835494087107
 21
6.587781633449011
 31
0.0
  0
LINE
  5
16A
330
274
100
AcDbEntity
  8
a2
100
AcDbLine
 10
13.835494087107
 20
6.587781633449011
 30
0.0
 11
13.78491971177156
 21
6.631197253219224
 31
0.0
  0
LINE
  5
16B
330
274
100
AcDbEntity
  8
a2
100
AcDbLine
 10
13.78491971177156
 20
6.631197253219224
 30
0.0
 11
13.69586043877533
 21
6.697598404881054
 31
0.0
  0
LINE
  5
16C
330
274
100
AcDbEntity
  8
a2
100
AcDbLine
 10
13.69586043877533
 20
6.697598404881054
 30
0.0
 11
13.56501430106147
 21
6.781663443107742
 31
0.0
  0
LINE
  5
16D
330
274
100
AcDbEntity
  8
a2
100
AcDbLine
 10
13.56501430106147
 20
6.781663443107742
 30
0.0
 11
13.38964548116987
 21
6.877733139413427
 31
0.0
  0
LINE
  5
16E
330
274
100
AcDbEntity
  8
a2
100
AcDbLine
 10
13.38964548116987
 20
6.877733139413427
 30
0.0
 11
13.16761450870077
 21
6.979864504453468
 31
0.0
  0
LINE
  5
16F
330
274
100
AcDbEntity
  8
a2
100
AcDbLine
 10
13.16761450870077
 20
6.979864504453468
 30
0.0
 11
12.8974036553657
 21
7.081887119137699
 31
0.0
  0
LINE
  5
170
330
274
100
AcDbEntity
  8
a2
100
AcDbLine
 10
12.8974036553657
 20
7.081887119137699
 30
0.0
 11
12.57813732882672
 21
7.177461563411399
 31
0.0
  0
LINE
  5
171
330
274
100
AcDbEntity
  8
a2
100
AcDbLine
 10
12.57813732882672
 20
7.177461563411399
 30
0.0
 11
12.20959730104821
 21
7.260139516111138
 31
0.0
  0
LINE
  5
172
330
274
100
AcDbEntity
  8
a2
100
AcDbLine
 10
12.20959730104821
 20
7.260139516111138
 30
0.0
 11
11.79223264214771
 21
7.323425087049343
 31
0.0
  0
LINE
  5
173
330
274
100
AcDbEntity
  8
a2
100
AcDbLine
 10
11.84936915534279
 20
3.81670235073367
 30
0.0
 11
11.82971026056999
 21
3.827057038226839
 31
0.0
  0
LINE
  5
174
330
274
100
AcDbEntity
  8
a2
100
AcDbLine
 10
11.82971026056999
 20
3.827057038226839
 30
0.0
 11
11.77279121101878
 21
3.861739963121251
 31
0.0
  0
LINE
  5
175
330
274
100
AcDbEntity
  8
a2
100
AcDbLine
 10
11.77279121101878
 20
3.861739963121251
 30
0.0
 11
11.68211913417935
 21
3.925921280735401
 31
0.0
  0
LINE
  5
176
330
274
100
AcDbEntity
  8
a2
100
AcDbLine
 10
11.68211913417935
 20
3.925921280735401
 30
0.0
 11
11.56173485159
 21
4.024385827184281
 31
0.0
  0
LINE
  5
177
330
274
100
AcDbEntity
  8
a2
100
AcDbLine
 10
11.56173485159
 20
4.024385827184281
 30
0.0
 11
11.4161751952633
 21
4.161484317300937
 31
0.0
  0
LINE
  5
178
330
274
100
AcDbEntity
  8
a2
100
AcDbLine
 10
11.4161751952633
 20
4.161484317300937
 30
0.0
 11
11.25043115125306
 21
4.341087993031809
 31
0.0
  0
LINE
  5
179
330
274
100
AcDbEntity
  8
a2
100
AcDbLine
 10
11.25043115125306
 20
4.341087993031809
 30
0.0
 11
11.06990213299605
 21
4.566547064124714
 31
0.0
  0
LINE
  5
17A
330
274
100
AcDbEntity
  8
a2
100
AcDbLine
 10
11.06990213299605
 20
4.566547064124714
 30
0.0
 11
10.88034671434926
 21
4.840653256906828
 31
0.0
  0
LINE
  5
17B
330
274
100
AcDbEntity
  8
a2
100
AcDbLine
 10
10.88034671434926
 20
4.840653256906828
 30
0.0
 11
10.68783017699164
 21
5.165606759388653
 31
0.0
  0
LINE
  5
17C
330
274
100
AcDbEntity
  8
a2
100
AcDbLine
 10
10.68783017699164
 20
5.165606759388653
 30
0.0
 11
10.49866924990699
 21
5.542987820997131
 31
0.0
  0
LINE
  5
17D
330
274
100
AcDbEntity
  8
a2
100
AcDbLine
 10
11.79223264214771
 20
7.323425087049343
 30
0.0
 11
10.49866924990699
 21
5.542987820997131
 31
0.0
  0
LINE
  5
17E
330
274
100
AcDbEntity
  8
a2
100
AcDbLine
 10
11.84936915534279
 20
3.81670235073367
 30
0.0
 11
12.03049428522305
 21
3.731886742936926
 31
0.0
  0
LINE
  5
17F
330
274
100
AcDbEntity
  8
a2
100
AcDbLine
 10
12.03049428522305
 20
3.731886742936926
 30
0.0
 11
11.35898644924793
 21
1.665198131087634
 31
0.0
  0
LINE
  5
180
330
274
100
AcDbEntity
  8
a2
100
AcDbLine
 10
11.16259977763966
 20
1.703043543150545
 30
0.0
 11
11.35898644924793
 21
1.665198131087634
 31
0.0
  0
LINE
  5
181
330
274
100
AcDbEntity
  8
a2
100
AcDbLine
 10
11.16259977763966
 20
1.703043543150545
 30
0.0
 11
11.14060906508452
 21
1.706221633422009
 31
0.0
  0
LINE
  5
182
330
274
100
AcDbEntity
  8
a2
100
AcDbLine
 10
11.14060906508452
 20
1.706221633422009
 30
0.0
 11
11.0741744749366
 21
1.711618735678303
 31
0.0
  0
LINE
  5
183
330
274
100
AcDbEntity
  8
a2
100
AcDbLine
 10
11.0741744749366
 20
1.711618735678303
 30
0.0
 11
10.96309439188513
 21
1.712990668563635
 31
0.0
  0
LINE
  5
184
330
274
100
AcDbEntity
  8
a2
100
AcDbLine
 10
10.96309439188513
 20
1.712990668563635
 30
0.0
 11
10.80782545313433
 21
1.704091283051264
 31
0.0
  0
LINE
  5
185
330
274
100
AcDbEntity
  8
a2
100
AcDbLine
 10
10.80782545313433
 20
1.704091283051264
 30
0.0
 11
10.60948074687076
 21
1.678734093970966
 31
0.0
  0
LINE
  5
186
330
274
100
AcDbEntity
  8
a2
100
AcDbLine
 10
10.60948074687076
 20
1.678734093970966
 30
0.0
 11
10.36982260670036
 21
1.630853572779292
 31
0.0
  0
LINE
  5
187
330
274
100
AcDbEntity
  8
a2
100
AcDbLine
 10
10.36982260670036
 20
1.630853572779292
 30
0.0
 11
10.09125004597215
 21
1.554565647268622
 31
0.0
  0
LINE
  5
188
330
274
100
AcDbEntity
  8
a2
100
AcDbLine
 10
10.09125004597215
 20
1.554565647268622
 30
0.0
 11
9.77678091322922
 21
1.44422695861455
 31
0.0
  0
LINE
  5
189
330
274
100
AcDbEntity
  8
a2
100
AcDbLine
 10
9.77678091322922
 20
1.44422695861455
 30
0.0
 11
9.430028886373108
 21
1.294492434196124
 31
0.0
  0
LINE
  5
18A
330
274
100
AcDbEntity
  8
a2
100
AcDbLine
 10
9.430028886373108
 20
1.294492434196124
 30
0.0
 11
9.05517545913637
 21
1.100370745250616
 31
0.0
  0
LINE
  5
18B
330
274
100
AcDbEntity
  8
a2
100
AcDbLine
 10
11.16259977763925
 20
-1.703043543155485
 30
0.0
 11
11.14060906508007
 21
-1.706221633423957
 31
0.0
  0
LINE
  5
18C
330
274
100
AcDbEntity
  8
a2
100
AcDbLine
 10
11.14060906508007
 20
-1.706221633423957
 30
0.0
 11
11.07417447493398
 21
-1.711618735669221
 31
0.0
  0
LINE
  5
18D
330
274
100
AcDbEntity
  8
a2
100
AcDbLine
 10
11.07417447493398
 20
-1.711618735669221
 30
0.0
 11
10.96309439188853
 21
-1.712990668562032
 31
0.0
  0
LINE
  5
18E
330
274
100
AcDbEntity
  8
a2
100
AcDbLine
 10
10.96309439188853
 20
-1.712990668562032
 30
0.0
 11
10.80782545313395
 21
-1.704091283056272
 31
0.0
  0
LINE
  5
18F
330
274
100
AcDbEntity
  8
a2
100
AcDbLine
 10
10.80782545313395
 20
-1.704091283056272
 30
0.0
 11
10.60948074687591
 21
-1.678734093963132
 31
0.0
  0
LINE
  5
190
330
274
100
AcDbEntity
  8
a2
100
AcDbLine
 10
10.60948074687591
 20
-1.678734093963132
 30
0.0
 11
10.36982260669899
 21
-1.630853572769266
 31
0.0
  0
LINE
  5
191
330
274
100
AcDbEntity
  8
a2
100
AcDbLine
 10
10.36982260669899
 20
-1.630853572769266
 30
0.0
 11
10.09125004597478
 21
-1.554565647260587
 31
0.0
  0
LINE
  5
192
330
274
100
AcDbEntity
  8
a2
100
AcDbLine
 10
10.09125004597478
 20
-1.554565647260587
 30
0.0
 11
9.77678091326061
 21
-1.444226958605404
 31
0.0
  0
LINE
  5
193
330
274
100
AcDbEntity
  8
a2
100
AcDbLine
 10
9.77678091326061
 20
-1.444226958605404
 30
0.0
 11
9.430028886396641
 21
-1.294492434194793
 31
0.0
  0
LINE
  5
194
330
274
100
AcDbEntity
  8
a2
100
AcDbLine
 10
9.430028886396641
 20
-1.294492434194793
 30
0.0
 11
9.055175459136304
 21
-1.100370745279749
 31
0.0
  0
LINE
  5
195
330
274
100
AcDbEntity
  8
a2
100
AcDbLine
 10
9.05517545913637
 20
1.100370745250616
 30
0.0
 11
9.055175459136304
 21
-1.100370745279749
 31
0.0
  0
LINE
  5
196
330
274
100
AcDbEntity
  8
a2
100
AcDbLine
 10
11.16259977763925
 20
-1.703043543155485
 30
0.0
 11
11.35898644925054
 21
-1.665198131079622
 31
0.0
  0
LINE
  5
197
330
274
100
AcDbEntity
  8
a2
100
AcDbLine
 10
11.35898644925054
 20
-1.665198131079622
 30
0.0
 11
12.03049428522589
 21
-3.731886742945131
 31
0.0
  0
LINE
  5
198
330
274
100
AcDbEntity
  8
a2
100
AcDbLine
 10
11.8493691553385
 20
-3.816702350736557
 30
0.0
 11
12.03049428522589
 21
-3.731886742945131
 31
0.0
  0
LINE
  5
199
330
274
100
AcDbEntity
  8
a2
100
AcDbLine
 10
11.8493691553385
 20
-3.816702350736557
 30
0.0
 11
11.82971026056944
 21
-3.827057038229397
 31
0.0
  0
LINE
  5
19A
330
274
100
AcDbEntity
  8
a2
100
AcDbLine
 10
11.82971026056944
 20
-3.827057038229397
 30
0.0
 11
11.77279121102204
 21
-3.861739963122565
 31
0.0
  0
LINE
  5
19B
330
274
100
AcDbEntity
  8
a2
100
AcDbLine
 10
11.77279121102204
 20
-3.861739963122565
 30
0.0
 11
11.68211913418017
 21
-3.925921280734677
 31
0.0
  0
LINE
  5
19C
330
274
100
AcDbEntity
  8
a2
100
AcDbLine
 10
11.68211913418017
 20
-3.925921280734677
 30
0.0
 11
11.5617348515839
 21
-4.024385827187374
 31
0.0
  0
LINE
  5
19D
330
274
100
AcDbEntity
  8
a2
100
AcDbLine
 10
11.5617348515839
 20
-4.024385827187374
 30
0.0
 11
11.41617519526538
 21
-4.161484317302063
 31
0.0
  0
LINE
  5
19E
330
274
100
AcDbEntity
  8
a2
100
AcDbLine
 10
11.41617519526538
 20
-4.161484317302063
 30
0.0
 11
11.25043115125179
 21
-4.341087993035265
 31
0.0
  0
LINE
  5
19F
330
274
100
AcDbEntity
  8
a2
100
AcDbLine
 10
11.25043115125179
 20
-4.341087993035265
 30
0.0
 11
11.06990213300134
 21
-4.566547064124438
 31
0.0
  0
LINE
  5
1A0
330
274
100
AcDbEntity
  8
a2
100
AcDbLine
 10
11.06990213300134
 20
-4.566547064124438
 30
0.0
 11
10.88034671437803
 21
-4.840653256894122
 31
0.0
  0
LINE
  5
1A1
330
274
100
AcDbEntity
  8
a2
100
AcDbLine
 10
10.88034671437803
 20
-4.840653256894122
 30
0.0
 11
10.68783017701871
 21
-5.165606759380121
 31
0.0
  0
LINE
  5
1A2
330
274
100
AcDbEntity
  8
a2
100
AcDbLine
 10
10.68783017701871
 20
-5.165606759380121
 30
0.0
 11
10.49866924985977
 21
-5.542987821004073
 31
0.0
  0
LINE
  5
1A3
330
274
100
AcDbEntity
  8
a2
100
AcDbLine
 10
13.85141691269335
 20
-6.572284687878946
 30
0.0
 11
13.83549408710985
 21
-6.587781633445532
 31
0.0
  0
LINE
  5
1A4
330
274
100
AcDbEntity
  8
a2
100
AcDbLine
 10
13.83549408710985
 20
-6.587781633445532
 30
0.0
 11
13.78491971177722
 21
-6.631197253222293
 31
0.0
  0
LINE
  5
1A5
330
274
100
AcDbEntity
  8
a2
100
AcDbLine
 10
13.78491971177722
 20
-6.631197253222293
 30
0.0
 11
13.69586043876913
 21
-6.697598404882747
 31
0.0
  0
LINE
  5
1A6
330
274
100
AcDbEntity
  8
a2
100
AcDbLine
 10
13.69586043876913
 20
-6.697598404882747
 30
0.0
 11
13.56501430106253
 21
-6.78166344310057
 31
0.0
  0
LINE
  5
1A7
330
274
100
AcDbEntity
  8
a2
100
AcDbLine
 10
13.56501430106253
 20
-6.78166344310057
 30
0.0
 11
13.38964548117001
 21
-6.877733139417034
 31
0.0
  0
LINE
  5
1A8
330
274
100
AcDbEntity
  8
a2
100
AcDbLine
 10
13.38964548117001
 20
-6.877733139417034
 30
0.0
 11
13.16761450870331
 21
-6.979864504457448
 31
0.0
  0
LINE
  5
1A9
330
274
100
AcDbEntity
  8
a2
100
AcDbLine
 10
13.16761450870331
 20
-6.979864504457448
 30
0.0
 11
12.89740365536449
 21
-7.081887119143098
 31
0.0
  0
LINE
  5
1AA
330
274
100
AcDbEntity
  8
a2
100
AcDbLine
 10
12.89740365536449
 20
-7.081887119143098
 30
0.0
 11
12.57813732882095
 21
-7.177461563412402
 31
0.0
  0
LINE
  5
1AB
330
274
100
AcDbEntity
  8
a2
100
AcDbLine
 10
12.57813732882095
 20
-7.177461563412402
 30
0.0
 11
12.20959730104822
 21
-7.260139516101791
 31
0.0
  0
LINE
  5
1AC
330
274
100
AcDbEntity
  8
a2
100
AcDbLine
 10
12.20959730104822
 20
-7.260139516101791
 30
0.0
 11
11.79223264210173
 21
-7.323425087069152
 31
0.0
  0
LINE
  5
1AD
330
274
100
AcDbEntity
  8
a2
100
AcDbLine
 10
10.49866924985977
 20
-5.542987821004073
 30
0.0
 11
11.79223264210173
 21
-7.323425087069152
 31
0.0
  0
LINE
  5
1AE
330
274
100
AcDbEntity
  8
a2
100
AcDbLine
 10
13.85141691269335
 20
-6.572284687878946
 30
0.0
 11
13.98805209241566
 21
-6.426233917042781
 31
0.0
  0
LINE
  5
1AF
330
274
100
AcDbEntity
  8
a2
100
AcDbLine
 10
13.98805209241566
 20
-6.426233917042781
 30
0.0
 11
15.74608243070131
 21
-7.703517723325019
 31
0.0
  0
LINE
  5
1B0
330
274
100
AcDbEntity
  8
a2
100
AcDbLine
 10
15.64940248594695
 20
-7.878597671584004
 30
0.0
 11
15.74608243070131
 21
-7.703517723325019
 31
0.0
  0
LINE
  5
1B1
330
274
100
AcDbEntity
  8
a2
100
AcDbLine
 10
15.64940248594695
 20
-7.878597671584004
 30
0.0
 11
15.6395844385857
 21
-7.898529998161238
 31
0.0
  0
LINE
  5
1B2
330
274
100
AcDbEntity
  8
a2
100
AcDbLine
 10
15.6395844385857
 20
-7.898529998161238
 30
0.0
 11
15.61392207195441
 21
-7.960045251716153
 31
0.0
  0
LINE
  5
1B3
330
274
100
AcDbEntity
  8
a2
100
AcDbLine
 10
15.61392207195441
 20
-7.960045251716153
 30
0.0
 11
15.57829165284234
 21
-8.06526473794832
 31
0.0
  0
LINE
  5
1B4
330
274
100
AcDbEntity
  8
a2
100
AcDbLine
 10
15.57829165284234
 20
-8.06526473794832
 30
0.0
 11
15.53877473064823
 21
-8.215684335282718
 31
0.0
  0
LINE
  5
1B5
330
274
100
AcDbEntity
  8
a2
100
AcDbLine
 10
15.53877473064823
 20
-8.215684335282718
 30
0.0
 11
15.50159896558669
 21
-8.412157163007837
 31
0.0
  0
LINE
  5
1B6
330
274
100
AcDbEntity
  8
a2
100
AcDbLine
 10
15.50159896558669
 20
-8.412157163007837
 30
0.0
 11
15.47307760911811
 21
-8.654881493650851
 31
0.0
  0
LINE
  5
1B7
330
274
100
AcDbEntity
  8
a2
100
AcDbLine
 10
15.47307760911811
 20
-8.654881493650851
 30
0.0
 11
15.45954808235433
 21
-8.943394008243308
 31
0.0
  0
LINE
  5
1B8
330
274
100
AcDbEntity
  8
a2
100
AcDbLine
 10
15.45954808235433
 20
-8.943394008243308
 30
0.0
 11
15.46731010497258
 21
-9.276568456040161
 31
0.0
  0
LINE
  5
1B9
330
274
100
AcDbEntity
  8
a2
100
AcDbLine
 10
15.46731010497258
 20
-9.276568456040161
 30
0.0
 11
15.50256383099164
 21
-9.652619743410844
 31
0.0
  0
LINE
  5
1BA
330
274
100
AcDbEntity
  8
a2
100
AcDbLine
 10
15.50256383099164
 20
-9.652619743410844
 30
0.0
 11
15.57134844881639
 21
-10.06911343885769
 31
0.0
  0
LINE
  5
1BB
330
274
100
AcDbEntity
  8
a2
100
AcDbLine
 10
18.88878380444626
 20
-8.931136465579636
 30
0.0
 11
18.88501084400926
 21
-8.953032959959655
 31
0.0
  0
LINE
  5
1BC
330
274
100
AcDbEntity
  8
a2
100
AcDbLine
 10
18.88501084400926
 20
-8.953032959959655
 30
0.0
 11
18.86961437590307
 21
-9.017883806141151
 31
0.0
  0
LINE
  5
1BD
330
274
100
AcDbEntity
  8
a2
100
AcDbLine
 10
18.86961437590307
 20
-9.017883806141151
 30
0.0
 11
18.8365935282245
 21
-9.123951193528715
 31
0.0
  0
LINE
  5
1BE
330
274
100
AcDbEntity
  8
a2
100
AcDbLine
 10
18.8365935282245
 20
-9.123951193528715
 30
0.0
 11
18.7801489688687
 21
-9.268870668154522
 31
0.0
  0
LINE
  5
1BF
330
274
100
AcDbEntity
  8
a2
100
AcDbLine
 10
18.7801489688687
 20
-9.268870668154522
 30
0.0
 11
18.69474096397362
 21
-9.449671891154477
 31
0.0
  0
LINE
  5
1C0
330
274
100
AcDbEntity
  8
a2
100
AcDbLine
 10
18.69474096397362
 20
-9.449671891154477
 30
0.0
 11
18.57514544413556
 21
-9.662804432300076
 31
0.0
  0
LINE
  5
1C1
330
274
100
AcDbEntity
  8
a2
100
AcDbLine
 10
18.57514544413556
 20
-9.662804432300076
 30
0.0
 11
18.41650766003464
 21
-9.904168415989906
 31
0.0
  0
LINE
  5
1C2
330
274
100
AcDbEntity
  8
a2
100
AcDbLine
 10
18.41650766003464
 20
-9.904168415989906
 30
0.0
 11
18.21439302497307
 21
-10.16914980392847
 31
0.0
  0
LINE
  5
1C3
330
274
100
AcDbEntity
  8
a2
100
AcDbLine
 10
18.21439302497307
 20
-10.16914980392847
 30
0.0
 11
17.96483476067949
 21
-10.45266006593036
 31
0.0
  0
LINE
  5
1C4
330
274
100
AcDbEntity
  8
a2
100
AcDbLine
 10
17.96483476067949
 20
-10.45266006593036
 30
0.0
 11
17.66437798405786
 21
-10.74917995964788
 31
0.0
  0
LINE
  5
1C5
330
274
100
AcDbEntity
  8
a2
100
AcDbLine
 10
15.57134844881639
 20
-10.06911343885769
 30
0.0
 11
17.66437798405786
 21
-10.74917995964788
 31
0.0
  0
LINE
  5
1C6
330
274
100
AcDbEntity
  8
a2
100
AcDbLine
 10
18.88878380444626
 20
-8.931136465579636
 30
0.0
 11
18.9134774976867
 21
-8.732666766344016
 31
0.0
  0
LINE
  5
1C7
330
274
100
AcDbEntity
  8
a2
100
AcDbLine
 10
18.9134774976867
 20
-8.732666766344016
 30
0.0
 11
21.08652250231981
 21
-8.732666766340632
 31
0.0
  0
LINE
  5
1C8
330
274
100
AcDbEntity
  8
a2
100
AcDbLine
 10
21.11121619555498
 20
-8.931136465577591
 30
0.0
 11
21.08652250231981
 21
-8.732666766340632
 31
0.0
  0
LINE
  5
1C9
330
274
100
AcDbEntity
  8
a2
100
AcDbLine
 10
21.11121619555498
 20
-8.931136465577591
 30
0.0
 11
21.11498915599378
 21
-8.953032959958842
 31
0.0
  0
LINE
  5
1CA
330
274
100
AcDbEntity
  8
a2
100
AcDbLine
 10
21.11498915599378
 20
-8.953032959958842
 30
0.0
 11
21.13038562410049
 21
-9.017883806144026
 31
0.0
  0
LINE
  5
1CB
330
274
100
AcDbEntity
  8
a2
100
AcDbLine
 10
21.13038562410049
 20
-9.017883806144026
 30
0.0
 11
21.16340647178457
 21
-9.123951193537486
 31
0.0
  0
LINE
  5
1CC
330
274
100
AcDbEntity
  8
a2
100
AcDbLine
 10
21.16340647178457
 20
-9.123951193537486
 30
0.0
 11
21.21985103112459
 21
-9.268870668145402
 31
0.0
  0
LINE
  5
1CD
330
274
100
AcDbEntity
  8
a2
100
AcDbLine
 10
21.21985103112459
 20
-9.268870668145402
 30
0.0
 11
21.30525903602529
 21
-9.449671891157747
 31
0.0
  0
LINE
  5
1CE
330
274
100
AcDbEntity
  8
a2
100
AcDbLine
 10
21.30525903602529
 20
-9.449671891157747
 30
0.0
 11
21.42485455586899
 21
-9.662804432299271
 31
0.0
  0
LINE
  5
1CF
330
274
100
AcDbEntity
  8
a2
100
AcDbLine
 10
21.42485455586899
 20
-9.662804432299271
 30
0.0
 11
21.58349233997203
 21
-9.904168415994366
 31
0.0
  0
LINE
  5
1D0
330
274
100
AcDbEntity
  8
a2
100
AcDbLine
 10
21.58349233997203
 20
-9.904168415994366
 30
0.0
 11
21.78560697503485
 21
-10.16914980396215
 31
0.0
  0
LINE
  5
1D1
330
274
100
AcDbEntity
  8
a2
100
AcDbLine
 10
21.78560697503485
 20
-10.16914980396215
 30
0.0
 11
22.035165239314
 21
-10.45266006589842
 31
0.0
  0
LINE
  5
1D2
330
274
100
AcDbEntity
  8
a2
100
AcDbLine
 10
22.035165239314
 20
-10.45266006589842
 30
0.0
 11
22.3356220159391
 21
-10.74917995963332
 31
0.0
  0
LINE
  5
1D3
330
274
100
AcDbEntity
  8
a2
100
AcDbLine
 10
24.35059751404937
 20
-7.878597671589844
 30
0.0
 11
24.36041556140949
 21
-7.898529998164919
 31
0.0
  0
LINE
  5
1D4
330
274
100
AcDbEntity
  8
a2
100
AcDbLine
 10
24.36041556140949
 20
-7.898529998164919
 30
0.0
 11
24.38607792804414
 21
-7.960045251718844
 31
0.0
  0
LINE
  5
1D5
330
274
100
AcDbEntity
  8
a2
100
AcDbLine
 10
24.38607792804414
 20
-7.960045251718844
 30
0.0
 11
24.42170834715812
 21
-8.065264737956003
 31
0.0
  0
LINE
  5
1D6
330
274
100
AcDbEntity
  8
a2
100
AcDbLine
 10
24.42170834715812
 20
-8.065264737956003
 30
0.0
 11
24.46122526935655
 21
-8.215684335281908
 31
0.0
  0
LINE
  5
1D7
330
274
100
AcDbEntity
  8
a2
100
AcDbLine
 10
24.46122526935655
 20
-8.215684335281908
 30
0.0
 11
24.49840103441931
 21
-8.41215716301103
 31
0.0
  0
LINE
  5
1D8
330
274
100
AcDbEntity
  8
a2
100
AcDbLine
 10
24.49840103441931
 20
-8.41215716301103
 30
0.0
 11
24.52692239088127
 21
-8.654881493653212
 31
0.0
  0
LINE
  5
1D9
330
274
100
AcDbEntity
  8
a2
100
AcDbLine
 10
24.52692239088127
 20
-8.654881493653212
 30
0.0
 11
24.54045191764246
 21
-8.943394008244708
 31
0.0
  0
LINE
  5
1DA
330
274
100
AcDbEntity
  8
a2
100
AcDbLine
 10
24.54045191764246
 20
-8.943394008244708
 30
0.0
 11
24.53268989504421
 21
-9.276568456066107
 31
0.0
  0
LINE
  5
1DB
330
274
100
AcDbEntity
  8
a2
100
AcDbLine
 10
24.53268989504421
 20
-9.276568456066107
 30
0.0
 11
24.49743616899537
 21
-9.652619743383228
 31
0.0
  0
LINE
  5
1DC
330
274
100
AcDbEntity
  8
a2
100
AcDbLine
 10
24.49743616899537
 20
-9.652619743383228
 30
0.0
 11
24.42865155117925
 21
-10.06911343883659
 31
0.0
  0
LINE
  5
1DD
330
274
100
AcDbEntity
  8
a2
100
AcDbLine
 10
22.3356220159391
 20
-10.74917995963332
 30
0.0
 11
24.42865155117925
 21
-10.06911343883659
 31
0.0
  0
LINE
  5
1DE
330
274
100
AcDbEntity
  8
a2
100
AcDbLine
 10
24.35059751404937
 20
-7.878597671589844
 30
0.0
 11
24.2539175692921
 21
-7.703517723330389
 31
0.0
  0
LINE
  5
1DF
330
274
100
AcDbEntity
  8
a2
100
AcDbLine
 10
24.2539175692921
 20
-7.703517723330389
 30
0.0
 11
26.01194790758386
 21
-6.426233917041956
 31
0.0
  0
LINE
  5
1E0
330
274
100
AcDbEntity
  8
a2
100
AcDbLine
 10
26.14858308730688
 20
-6.572284687880695
 30
0.0
 11
26.01194790758386
 21
-6.426233917041956
 31
0.0
  0
LINE
  5
1E1
330
274
100
AcDbEntity
  8
a2
100
AcDbLine
 10
26.14858308730688
 20
-6.572284687880695
 30
0.0
 11
26.164505912893
 21
-6.587781633449012
 31
0.0
  0
LINE
  5
1E2
330
274
100
AcDbEntity
  8
a2
100
AcDbLine
 10
26.164505912893
 20
-6.587781633449012
 30
0.0
 11
26.21508028822843
 21
-6.631197253219228
 31
0.0
  0
LINE
  5
1E3
330
274
100
AcDbEntity
  8
a2
100
AcDbLine
 10
26.21508028822843
 20
-6.631197253219228
 30
0.0
 11
26.30413956122466
 21
-6.697598404881059
 31
0.0
  0
LINE
  5
1E4
330
274
100
AcDbEntity
  8
a2
100
AcDbLine
 10
26.30413956122466
 20
-6.697598404881059
 30
0.0
 11
26.43498569893852
 21
-6.781663443107745
 31
0.0
  0
LINE
  5
1E5
330
274
100
AcDbEntity
  8
a2
100
AcDbLine
 10
26.43498569893852
 20
-6.781663443107745
 30
0.0
 11
26.61035451883012
 21
-6.877733139413429
 31
0.0
  0
LINE
  5
1E6
330
274
100
AcDbEntity
  8
a2
100
AcDbLine
 10
26.61035451883012
 20
-6.877733139413429
 30
0.0
 11
26.83238549129922
 21
-6.979864504453472
 31
0.0
  0
LINE
  5
1E7
330
274
100
AcDbEntity
  8
a2
100
AcDbLine
 10
26.83238549129922
 20
-6.979864504453472
 30
0.0
 11
27.1025963446343
 21
-7.0818871191377
 31
0.0
  0
LINE
  5
1E8
330
274
100
AcDbEntity
  8
a2
100
AcDbLine
 10
27.1025963446343
 20
-7.0818871191377
 30
0.0
 11
27.42186267117328
 21
-7.177461563411401
 31
0.0
  0
LINE
  5
1E9
330
274
100
AcDbEntity
  8
a2
100
AcDbLine
 10
27.42186267117328
 20
-7.177461563411401
 30
0.0
 11
27.79040269895179
 21
-7.260139516111135
 31
0.0
  0
LINE
  5
1EA
330
274
100
AcDbEntity
  8
a2
100
AcDbLine
 10
27.79040269895179
 20
-7.260139516111135
 30
0.0
 11
28.20776735785229
 21
-7.323425087049344
 31
0.0
  0
LINE
  5
1F5
330
274
100
AcDbEntity
  8
a2
100
AcDbLine
 10
28.20776735785229
 20
-7.323425087049344
 30
0.0
 11
29.501330750093
 21
-5.542987820997132
 31
0.0
  0
CIRCLE
  5
207
330
274
100
AcDbEntity
  8
a1
100
AcDbCircle
 10
0.0
 20
0.0
 30
0.0
 40
1.5
  0
CIRCLE
  5
208
330
274
100
AcDbEntity
  8
a2
100
AcDbCircle
 10
20.0
 20
0.0
 30
0.0
 40
1.5
  0
CIRCLE
  5
20B
330
274
100
AcDbEntity
  8
sideplate
100
AcDbCircle
 10
0.0
 20
0.0
 30
0.0
 40
1.5
  0
CIRCLE
  5
20C
330
274
100
AcDbEntity
  8
sideplate
100
AcDbCircle
 10
20.0
 20
0.0
 30
0.0
 40
1.5
  0
CIRCLE
  5
20D
330
274
100
AcDbEntity
  8
sideplate
100
AcDbCircle
 10
20.0
 20
20.0
 30
0.0
 40
1.5
  0
CIRCLE
  5
20E
330
274
100
AcDbEntity
  8
sideplate
100
AcDbCircle
 10
0.0
 20
20.0
 30
0.0
 40
1.5
  0
CIRCLE
  5
210
330
274
100
AcDbEntity
  8
l2
100
AcDbCircle
 10
20.0
 20
20.0
 30
0.0
 40
1.5
  0
CIRCLE
  5
211
330
274
100
AcDbEntity
  8
l2
100
AcDbCircle
 10
45.0
 20
20.0
 30
0.0
 40
1.5
  0
CIRCLE
  5
212
330
274
100
AcDbEntity
  8
a2
100
AcDbCircle
 10
45.0
 20
0.0
 30
0.0
 40
1.5
  0
CIRCLE
  5
213
330
274
100
AcDbEntity
  8
a1
100
AcDbCircle
 10
-25.0
 20
0.0
 30
0.0
 40
1.5
  0
CIRCLE
  5
215
330
274
100
AcDbEntity
  8
l1
100
AcDbCircle
 10
0.0
 20
20.0
 30
0.0
 40
1.5
  0
CIRCLE
  5
216
330
274
100
AcDbEntity
  8
l1
100
AcDbCircle
 10
-25.0
 20
20.0
 30
0.0
 40
1.5
  0
LINE
  5
21D
330
274
100
AcDbEntity
  8
a1
100
AcDbLine
 10
-10.0691134389
 20
4.42865155119
 30
0.0
 11
-24.80757021619527
 21
4.996295705650823
 31
0.0
  0
LINE
  5
21E
330
274
100
AcDbEntity
  8
a1
100
AcDbLine
 10
-10.0691134389
 20
-4.42865155119
 30
0.0
 11
-24.80757021619527
 21
-4.996295705650823
 31
0.0
  0
LINE
  5
21F
330
274
100
AcDbEntity
  8
a2
100
AcDbLine
 10
29.50133075014023
 20
5.542987821004075
 30
0.0
 11
45.17408817520687
 21
4.996968411672535
 31
0.0
  0
LINE
  5
220
330
274
100
AcDbEntity
  8
a2
100
AcDbLine
 10
29.501330750093
 20
-5.542987820997132
 30
0.0
 11
45.17408817520413
 21
-4.996968411672631
 31
0.0
  0
ARC
  5
221
330
274
100
AcDbEntity
  8
a2
100
AcDbCircle
 10
45.0
 20
0.0
 30
0.0
 40
5.0
100
AcDbArc
 50
271.9953068200266
 51
88.00469317994198
  0
ARC
  5
222
330
274
100
AcDbEntity
  8
a1
100
AcDbCircle
 10
-25.0
 20
0.0
 30
0.0
 40
5.0
100
AcDbArc
 50
87.79437239390907
 51
272.205627606091
  0
LINE
  5
223
330
274
100
AcDbEntity
  8
l1
100
AcDbLine
 10
-25.0
 20
25.0
 30
0.0
 11
0.0000000000000003
 21
25.0
 31
0.0
  0
LINE
  5
224
330
274
100
AcDbEntity
  8
l1
100
AcDbLine
 10
-25.0
 20
15.0
 30
0.0
 11
0.0000000000000003
 21
15.0
 31
0.0
  0
LINE
  5
225
330
274
100
AcDbEntity
  8
l2
100
AcDbLine
 10
20.0
 20
25.0
 30
0.0
 11
45.0
 21
25.0
 31
0.0
  0
LINE
  5
226
330
274
100
AcDbEntity
  8
l2
100
AcDbLine
 10
45.0
 20
15.0
 30
0.0
 11
20.0
 21
15.0
 31
0.0
  0
ARC
  5
227
330
274
100
AcDbEntity
  8
l1
100
AcDbCircle
 10
-25.0
 20
20.0
 30
0.0
 40
5.0
100
AcDbArc
 50
90.0
 51
270.0
  0
ARC
  5
228
330
274
100
AcDbEntity
  8
l1
100
AcDbCircle
 10
0.0
 20
20.0
 30
0.0
 40
5.0
100
AcDbArc
 50
270.0
 51
90.0
  0
ARC
  5
229
330
274
100
AcDbEntity
  8
l2
100
AcDbCircle
 10
20.0
 20
20.0
 30
0.0
 40
5.0
100
AcDbArc
 50
90.0
 51
270.0
  0
ARC
  5
22A
330
274
100
AcDbEntity
  8
l2
100
AcDbCircle
 10
45.0
 20
20.0
 30
0.0
 40
5.0
100
AcDbArc
 50
270.0
 51
90.0
  0
LINE
  5
238
330
274
100
AcDbEntity
  8
sideplate
100
AcDbLine
 10
-4.0
 20
20.0
 30
0.0
 11
-4.0
 21
0.0000000000000005
 31
0.0
  0
LINE
  5
239
330
274
100
AcDbEntity
  8
sideplate
100
AcDbLine
 10
0.0000000000000002
 20
-4.0
 30
0.0
 11
2.0
 21
-4.0
 31
0.0
  0
LINE
  5
23A
330
274
100
AcDbEntity
  8
sideplate
100
AcDbLine
 10
24.0
 20
0.0
 30
0.0
 11
24.0
 21
20.0
 31
0.0
  0
LINE
  5
23B
330
274
100
AcDbEntity
  8
sideplate
100
AcDbLine
 10
20.0
 20
24.0
 30
0.0
 11
0.0000000000000002
 21
24.0
 31
0.0
  0
ARC
  5
23C
330
274
100
AcDbEntity
  8
sideplate
100
AcDbCircle
 10
0.0
 20
20.0
 30
0.0
 40
4.0
100
AcDbArc
 50
90.0
 51
180.0
  0
ARC
  5
23D
330
274
100
AcDbEntity
  8
sideplate
100
AcDbCircle
 10
20.0
 20
20.0
 30
0.0
 40
4.0
100
AcDbArc
 50
0.0
 51
90.0
  0
ARC
  5
23E
330
274
100
AcDbEntity
  8
sideplate
100
AcDbCircle
 10
20.0
 20
0.0
 30
0.0
 40
4.0
100
AcDbArc
 50
270.0
 51
0.0
  0
ARC
  5
23F
330
274
100
AcDbEntity
  8
sideplate
100
AcDbCircle
 10
0.0
 20
0.0
 30
0.0
 40
4.0
100
AcDbArc
 50
180.0
 51
270.0
  0
LINE
  5
241
330
274
100
AcDbEntity
  8
sideplate
100
AcDbLine
 10
18.0
 20
-4.0
 30
0.0
 11
18.0
 21
-30.0
 31
0.0
  0
LINE
  5
242
330
274
100
AcDbEntity
  8
sideplate
100
AcDbLine
 10
18.0
 20
-30.0
 30
0.0
 11
2.0
 21
-30.0
 31
0.0
  0
LINE
  5
243
330
274
100
AcDbEntity
  8
sideplate
100
AcDbLine
 10
2.0
 20
-30.0
 30
0.0
 11
2.0
 21
-4.0
 31
0.0
  0
LINE
  5
244
330
274
100
AcDbEntity
  8
sideplate
100
AcDbLine
 10
18.0
 20
-4.0
 30
0.0
 11
20.0
 21
-4.0
 31
0.0
  0
CIRCLE
  5
246
330
274
100
AcDbEntity
  8
g1
100
AcDbCircle
 10
-25.0
 20
20.0
 30
0.0
 40
1.5
  0
CIRCLE
  5
247
330
274
100
AcDbEntity
  8
g1
100
AcDbCircle
 10
-25.0
 20
0.0
 30
0.0
 40
1.5
  0
LINE
  5
24B
330
274
100
AcDbEntity
  8
g1
100
AcDbLine
 10
-29.0
 20
0.0
 30
0.0
 11
-29.0
 21
60.0
 31
0.0
  0
LINE
  5
24C
330
274
100
AcDbEntity
  8
g1
100
AcDbLine
 10
-21.0
 20
0.0
 30
0.0
 11
-21.0
 21
60.0
 31
0.0
  0
LINE
  5
24D
330
274
100
AcDbEntity
  8
g1
100
AcDbLine
 10
-29.0
 20
60.0
 30
0.0
 11
-21.0
 21
60.0
 31
0.0
  0
ARC
  5
24E
330
274
100
AcDbEntity
  8
g1
100
AcDbCircle
 10
-25.0
 20
0.0
 30
0.0
 40
4.0
100
AcDbArc
 50
180.0
 51
0.0
  0
LINE
  5
250
330
274
100
AcDbEntity
  8
g2
100
AcDbLine
 10
41.0
 20
0.0
 30
0.0
 11
41.0
 21
60.0
 31
0.0
  0
LINE
  5
251
330
274
100
AcDbEntity
  8
g2
100
AcDbLine
 10
49.0
 20
0.0
 30
0.0
 11
49.0
 21
60.0
 31
0.0
  0
LINE
  5
252
330
274
100
AcDbEntity
  8
g2
100
AcDbLine
 10
41.0
 20
60.0
 30
0.0
 11
49.0
 21
60.0
 31
0.0
  0
ARC
  5
253
330
274
100
AcDbEntity
  8
g2
100
AcDbCircle
 10
45.0
 20
0.0
 30
0.0
 40
4.0
100
AcDbArc
 50
180.0
 51
0.0
  0
CIRCLE
  5
254
330
274
100
AcDbEntity
  8
g2
100
AcDbCircle
 10
45.0
 20
20.0
 30
0.0
 40
1.5
  0
CIRCLE
  5
255
330
274
100
AcDbEntity
  8
g2
100
AcDbCircle
 10
45.0
 20
0.0
 30
0.0
 40
1.5
  0
ENDSEC
  0
SECTION
  2
OBJECTS
  0
DICTIONARY
  5
262
330
0
100
AcDbDictionary
281
     1
  3
ACAD_GROUP
350
263
  3
ACAD_LAYOUT
350
26F
  3
ACAD_MATERIAL
350
290
  3
ACAD_MLEADERSTYLE
350
2C7
  3
ACAD_MLINESTYLE
350
26C
  3
ACAD_PLOTSETTINGS
350
26E
  3
ACAD_PLOTSTYLENAME
350
264
  3
ACAD_TABLESTYLE
350
2C6
  3
ACAD_VISUALSTYLE
350
27F
  3
QCAD_OBJECTS
350
295
  0
DICTIONARY
  5
263
102
{ACAD_REACTORS
330
262
102
}
330
262
100
AcDbDictionary
281
     1
  0
DICTIONARY
  5
26F
102
{ACAD_REACTORS
330
262
102
}
330
262
100
AcDbDictionary
281
     1
  3
Layout1
350
273
  3
Layout2
350
27B
  3
Model
350
277
  0
DICTIONARY
  5
290
102
{ACAD_REACTORS
330
262
102
}
330
262
100
AcDbDictionary
281
     1
  3
ByBlock
350
292
  3
ByLayer
350
291
  3
Global
350
293
  0
DICTIONARY
  5
2C7
102
{ACAD_REACTORS
330
262
102
}
330
262
100
AcDbDictionary
281
     1
  0
DICTIONARY
  5
26C
102
{ACAD_REACTORS
330
262
102
}
330
262
100
AcDbDictionary
281
     1
  3
Standard
350
26D
  0
DICTIONARY
  5
26E
102
{ACAD_REACTORS
330
262
102
}
330
262
100
AcDbDictionary
281
     1
  0
ACDBDICTIONARYWDFLT
  5
264
102
{ACAD_REACTORS
330
262
102
}
330
262
100
AcDbDictionary
281
     1
  3
Normal
350
265
100
AcDbDictionaryWithDefault
340
265
  0
DICTIONARY
  5
2C6
102
{ACAD_REACTORS
330
262
102
}
330
262
100
AcDbDictionary
281
     1
  0
DICTIONARY
  5
27F
102
{ACAD_REACTORS
330
262
102
}
330
262
100
AcDbDictionary
281
     1
  3
2dWireframe
350
284
  3
3D Hidden
350
286
  3
3dWireframe
350
285
  3
Basic
350
287
  3
Brighten
350
28B
  3
ColorChange
350
28F
  3
Conceptual
350
289
  3
Dim
350
28A
  3
Facepattern
350
28E
  3
Flat
350
280
  3
FlatWithEdges
350
281
  3
Gouraud
350
282
  3
GouraudWithEdges
350
283
  3
Linepattern
350
28D
  3
Realistic
350
288
  3
Thicken
350
28C
  0
DICTIONARY
  5
295
102
{ACAD_REACTORS
330
262
102
}
330
262
100
AcDbDictionary
281
     1
  3
Grid/DisplayGrid
350
2A5
  3
Grid/GridSpacingX
350
29E
  3
Grid/GridSpacingY
350
29F
  3
Grid/MetaGridSpacingX
350
299
  3
Grid/MetaGridSpacingY
350
29C
  3
MultiPageSettings/Columns
350
29D
  3
MultiPageSettings/GlueMarginsBottom
350
2A2
  3
MultiPageSettings/GlueMarginsLeft
350
2A0
  3
MultiPageSettings/GlueMarginsRight
350
296
  3
MultiPageSettings/GlueMarginsTop
350
2A9
  3
MultiPageSettings/PrintCropMarks
350
298
  3
MultiPageSettings/Rows
350
2A1
  3
PageSettings/OffsetX
350
2A7
  3
PageSettings/OffsetY
350
2A8
  3
PageSettings/PageOrientation
350
297
  3
PageSettings/PaperHeight
350
29A
  3
PageSettings/PaperWidth
350
2A3
  3
PageSettings/Scale
350
29B
  3
PageSettings/ShowPaperBorders
350
2A6
  3
UnitSettings/PaperUnit
350
2A4
  0
LAYOUT
  5
273
102
{ACAD_REACTORS
330
26F
102
}
330
26F
100
AcDbPlotSettings
  1

  2
none_device
  4

  6

 40
0.0
 41
0.0
 42
0.0
 43
0.0
 44
0.0
 45
0.0
 46
0.0
 47
0.0
 48
0.0
 49
0.0
140
0.0
141
0.0
142
1.0
143
1.0
 70
   688
 72
     0
 73
     0
 74
     5
  7

 75
    16
 76
     0
 77
     2
 78
   300
147
1.0
148
0.0
149
0.0
100
AcDbLayout
  1
Layout1
 70
     1
 71
     1
 10
0.0
 20
0.0
 11
12.0
 21
9.0
 12
0.0
 22
0.0
 32
0.0
 14
1.000000000000000E+20
 24
1.000000000000000E+20
 34
1.000000000000000E+20
 15
-1.000000000000000E+20
 25
-1.000000000000000E+20
 35
-1.000000000000000E+20
146
0.0
 13
0.0
 23
0.0
 33
0.0
 16
1.0
 26
0.0
 36
0.0
 17
0.0
 27
1.0
 37
0.0
 76
     0
330
270
  0
LAYOUT
  5
27B
102
{ACAD_REACTORS
330
26F
102
}
330
26F
100
AcDbPlotSettings
  1

  2
none_device
  4

  6

 40
0.0
 41
0.0
 42
0.0
 43
0.0
 44
0.0
 45
0.0
 46
0.0
 47
0.0
 48
0.0
 49
0.0
140
0.0
141
0.0
142
1.0
143
1.0
 70
   688
 72
     0
 73
     0
 74
     5
  7

 75
    16
 76
     0
 77
     2
 78
   300
147
1.0
148
0.0
149
0.0
100
AcDbLayout
  1
Layout2
 70
     1
 71
     2
 10
0.0
 20
0.0
 11
0.0
 21
0.0
 12
0.0
 22
0.0
 32
0.0
 14
0.0
 24
0.0
 34
0.0
 15
0.0
 25
0.0
 35
0.0
146
0.0
 13
0.0
 23
0.0
 33
0.0
 16
1.0
 26
0.0
 36
0.0
 17
0.0
 27
1.0
 37
0.0
 76
     0
330
278
  0
LAYOUT
  5
277
102
{ACAD_REACTORS
330
26F
102
}
330
26F
100
AcDbPlotSettings
  1

  2
none_device
  4

  6

 40
0.0
 41
0.0
 42
0.0
 43
0.0
 44
0.0
 45
0.0
 46
0.0
 47
0.0
 48
0.0
 49
0.0
140
0.0
141
0.0
142
1.0
143
1.0
 70
  1712
 72
     0
 73
     0
 74
     0
  7

 75
     0
 76
     0
 77
     2
 78
   300
147
1.0
148
0.0
149
0.0
100
AcDbLayout
  1
Model
 70
     1
 71
     0
 10
0.0
 20
0.0
 11
12.0
 21
9.0
 12
0.0
 22
0.0
 32
0.0
 14
1.000000000000000E+20
 24
1.000000000000000E+20
 34
1.000000000000000E+20
 15
-1.000000000000000E+20
 25
-1.000000000000000E+20
 35
-1.000000000000000E+20
146
0.0
 13
0.0
 23
0.0
 33
0.0
 16
1.0
 26
0.0
 36
0.0
 17
0.0
 27
1.0
 37
0.0
 76
     0
330
274
331
27E
  0
MATERIAL
  5
292
102
{ACAD_REACTORS
330
290
102
}
330
290
100
AcDbMaterial
  1
ByBlock
 72
     1
 94
      127
  0
MATERIAL
  5
291
102
{ACAD_REACTORS
330
290
102
}
330
290
100
AcDbMaterial
  1
ByLayer
 72
     1
 94
      127
  0
MATERIAL
  5
293
102
{ACAD_REACTORS
330
290
102
}
330
290
100
AcDbMaterial
  1
Global
 72
     1
 94
      127
  0
MLINESTYLE
  5
26D
102
{ACAD_REACTORS
330
26C
102
}
330
26C
100
AcDbMlineStyle
  2
Standard
 70
     0
  3

 62
   256
 51
90.0
 52
90.0
 71
     2
 49
0.5
 62
   256
  6
BYLAYER
 49
-0.5
 62
   256
  6
BYLAYER
  0
ACDBPLACEHOLDER
  5
265
102
{ACAD_REACTORS
330
264
102
}
330
264
  0
VISUALSTYLE
  5
284
102
{ACAD_REACTORS
330
27F
102
}
330
27F
100
AcDbVisualStyle
  2
2dWireframe
 70
     4
177
     2
291
     0
 71
     0
176
     1
 72
     2
176
     1
 73
     0
176
     1
 90
        0
176
     1
 40
-0.6
176
     1
 41
-30.0
176
     1
 62
     5
 63
     7
421
 16777215
176
     1
 74
     1
176
     1
 91
        4
176
     1
 64
     7
176
     1
 65
   257
176
     1
 75
     1
176
     1
175
     1
176
     1
 42
1.0
176
     1
 92
        0
176
     1
 66
   257
176
     1
 43
1.0
176
     1
 76
     1
176
     1
 77
     6
176
     1
 78
     2
176
     1
 67
     7
176
     1
 79
     5
176
     1
170
     0
176
     1
171
     0
176
     1
290
     0
176
     1
 93
        1
176
     1
 44
0.0
176
     1
173
     0
176
     1
  0
VISUALSTYLE
  5
286
102
{ACAD_REACTORS
330
27F
102
}
330
27F
100
AcDbVisualStyle
  2
3D Hidden
 70
     6
177
     2
291
     0
 71
     1
176
     1
 72
     2
176
     1
 73
     2
176
     1
 90
        0
176
     1
 40
-0.6
176
     1
 41
-30.0
176
     1
 62
     5
 63
     7
421
 16777215
176
     1
 74
     2
176
     1
 91
        2
176
     1
 64
     7
176
     1
 65
   257
176
     1
 75
     2
176
     1
175
     1
176
     1
 42
40.0
176
     1
 92
        0
176
     1
 66
   257
176
     1
 43
1.0
176
     1
 76
     1
176
     1
 77
     6
176
     1
 78
     2
176
     1
 67
     7
176
     1
 79
     3
176
     1
170
     0
176
     1
171
     0
176
     1
290
     0
176
     1
 93
        1
176
     1
 44
0.0
176
     1
173
     0
176
     1
  0
VISUALSTYLE
  5
285
102
{ACAD_REACTORS
330
27F
102
}
330
27F
100
AcDbVisualStyle
  2
3dWireframe
 70
     5
177
     2
291
     0
 71
     0
176
     1
 72
     2
176
     1
 73
     0
176
     1
 90
        0
176
     1
 40
-0.6
176
     1
 41
-30.0
176
     1
 62
     5
 63
     7
421
 16777215
176
     1
 74
     1
176
     1
 91
        4
176
     1
 64
     7
176
     1
 65
   257
176
     1
 75
     1
176
     1
175
     1
176
     1
 42
1.0
176
     1
 92
        0
176
     1
 66
   257
176
     1
 43
1.0
176
     1
 76
     1
176
     1
 77
     6
176
     1
 78
     2
176
     1
 67
     7
176
     1
 79
     5
176
     1
170
     0
176
     1
171
     0
176
     1
290
     0
176
     1
 93
        1
176
     1
 44
0.0
176
     1
173
     0
176
     1
  0
VISUALSTYLE
  5
287
102
{ACAD_REACTORS
330
27F
102
}
330
27F
100
AcDbVisualStyle
  2
Basic
 70
     7
177
     2
291
     1
 71
     1
176
     1
 72
     0
176
     1
 73
     1
176
     1
 90
        0
176
     1
 40
-0.6
176
     1
 41
-30.0
176
     1
 62
     5
 63
     7
421
 16777215
176
     1
 74
     0
176
     1
 91
        4
176
     1
 64
     7
176
     1
 65
   257
176
     1
 75
     1
176
     1
175
     1
176
     1
 42
1.0
176
     1
 92
        8
176
     1
 66
     7
176
     1
 43
1.0
176
     1
 76
     1
176
     1
 77
     6
176
     1
 78
     2
176
     1
 67
     7
176
     1
 79
     5
176
     1
170
     0
176
     1
171
     0
176
     1
290
     0
176
     1
 93
        1
176
     1
 44
0.0
176
     1
173
     0
176
     1
  0
VISUALSTYLE
  5
28B
102
{ACAD_REACTORS
330
27F
102
}
330
27F
100
AcDbVisualStyle
  2
Brighten
 70
    12
177
     2
291
     1
 71
     2
176
     1
 72
     2
176
     1
 73
     0
176
     1
 90
        0
176
     1
 40
-0.6
176
     1
 41
-30.0
176
     1
 62
     5
 63
     7
421
 16777215
176
     1
 74
     1
176
     1
 91
        4
176
     1
 64
     7
176
     1
 65
   257
176
     1
 75
     1
176
     1
175
     1
176
     1
 42
1.0
176
     1
 92
        8
176
     1
 66
     7
176
     1
 43
1.0
176
     1
 76
     1
176
     1
 77
     6
176
     1
 78
     2
176
     1
 67
     7
176
     1
 79
     5
176
     1
170
     0
176
     1
171
     0
176
     1
290
     0
176
     1
 93
        1
176
     1
 44
50.0
176
     1
173
     0
176
     1
  0
VISUALSTYLE
  5
28F
102
{ACAD_REACTORS
330
27F
102
}
330
27F
100
AcDbVisualStyle
  2
ColorChange
 70
    16
177
     2
291
     1
 71
     2
176
     1
 72
     2
176
     1
 73
     3
176
     1
 90
        0
176
     1
 40
-0.6
176
     1
 41
-30.0
176
     1
 62
     5
 63
     8
421
  8421504
176
     1
 74
     1
176
     1
 91
        4
176
     1
 64
     7
176
     1
 65
   257
176
     1
 75
     1
176
     1
175
     1
176
     1
 42
1.0
176
     1
 92
        8
176
     1
 66
     8
424
  8421504
176
     1
 43
1.0
176
     1
 76
     1
176
     1
 77
     6
176
     1
 78
     2
176
     1
 67
     7
176
     1
 79
     5
176
     1
170
     0
176
     1
171
     0
176
     1
290
     0
176
     1
 93
        1
176
     1
 44
0.0
176
     1
173
     0
176
     1
  0
VISUALSTYLE
  5
289
102
{ACAD_REACTORS
330
27F
102
}
330
27F
100
AcDbVisualStyle
  2
Conceptual
 70
     9
177
     2
291
     0
 71
     3
176
     1
 72
     2
176
     1
 73
     0
176
     1
 90
        0
176
     1
 40
-0.6
176
     1
 41
-30.0
176
     1
 62
     5
 63
     7
421
 16777215
176
     1
 74
     2
176
     1
 91
        2
176
     1
 64
     7
176
     1
 65
   257
176
     1
 75
     1
176
     1
175
     1
176
     1
 42
40.0
176
     1
 92
        8
176
     1
 66
     7
176
     1
 43
1.0
176
     1
 76
     1
176
     1
 77
     6
176
     1
 78
     2
176
     1
 67
     7
176
     1
 79
     3
176
     1
170
     0
176
     1
171
     0
176
     1
290
     0
176
     1
 93
        1
176
     1
 44
0.0
176
     1
173
     0
176
     1
  0
VISUALSTYLE
  5
28A
102
{ACAD_REACTORS
330
27F
102
}
330
27F
100
AcDbVisualStyle
  2
Dim
 70
    11
177
     2
291
     1
 71
     2
176
     1
 72
     2
176
     1
 73
     0
176
     1
 90
        0
176
     1
 40
-0.6
176
     1
 41
-30.0
176
     1
 62
     5
 63
     7
421
 16777215
176
     1
 74
     1
176
     1
 91
        4
176
     1
 64
     7
176
     1
 65
   257
176
     1
 75
     1
176
     1
175
     1
176
     1
 42
1.0
176
     1
 92
        8
176
     1
 66
     7
176
     1
 43
1.0
176
     1
 76
     1
176
     1
 77
     6
176
     1
 78
     2
176
     1
 67
     7
176
     1
 79
     5
176
     1
170
     0
176
     1
171
     0
176
     1
290
     0
176
     1
 93
        1
176
     1
 44
-50.0
176
     1
173
     0
176
     1
  0
VISUALSTYLE
  5
28E
102
{ACAD_REACTORS
330
27F
102
}
330
27F
100
AcDbVisualStyle
  2
Facepattern
 70
    15
177
     2
291
     1
 71
     2
176
     1
 72
     2
176
     1
 73
     0
176
     1
 90
        0
176
     1
 40
-0.6
176
     1
 41
-30.0
176
     1
 62
     5
 63
     7
421
 16777215
176
     1
 74
     1
176
     1
 91
        4
176
     1
 64
     7
176
     1
 65
   257
176
     1
 75
     1
176
     1
175
     1
176
     1
 42
1.0
176
     1
 92
        8
176
     1
 66
     7
176
     1
 43
1.0
176
     1
 76
     1
176
     1
 77
     6
176
     1
 78
     2
176
     1
 67
     7
176
     1
 79
     5
176
     1
170
     0
176
     1
171
     0
176
     1
290
     0
176
     1
 93
        1
176
     1
 44
0.0
176
     1
173
     0
176
     1
  0
VISUALSTYLE
  5
280
102
{ACAD_REACTORS
330
27F
102
}
330
27F
100
AcDbVisualStyle
  2
Flat
 70
     0
177
     2
291
     1
 71
     2
176
     1
 72
     1
176
     1
 73
     1
176
     1
 90
        2
176
     1
 40
-0.6
176
     1
 41
30.0
176
     1
 62
     5
 63
     7
421
 16777215
176
     1
 74
     0
176
     1
 91
        4
176
     1
 64
     7
176
     1
 65
   257
176
     1
 75
     1
176
     1
175
     1
176
     1
 42
1.0
176
     1
 92
        8
176
     1
 66
     7
176
     1
 43
1.0
176
     1
 76
     1
176
     1
 77
     6
176
     1
 78
     2
176
     1
 67
     7
176
     1
 79
     5
176
     1
170
     0
176
     1
171
     0
176
     1
290
     0
176
     1
 93
       13
176
     1
 44
0.0
176
     1
173
     0
176
     1
  0
VISUALSTYLE
  5
281
102
{ACAD_REACTORS
330
27F
102
}
330
27F
100
AcDbVisualStyle
  2
FlatWithEdges
 70
     1
177
     2
291
     1
 71
     2
176
     1
 72
     1
176
     1
 73
     1
176
     1
 90
        2
176
     1
 40
-0.6
176
     1
 41
30.0
176
     1
 62
     5
 63
     7
421
 16777215
176
     1
 74
     1
176
     1
 91
        4
176
     1
 64
     7
176
     1
 65
   257
176
     1
 75
     1
176
     1
175
     1
176
     1
 42
1.0
176
     1
 92
        0
176
     1
 66
   257
176
     1
 43
1.0
176
     1
 76
     1
176
     1
 77
     6
176
     1
 78
     2
176
     1
 67
     7
176
     1
 79
     5
176
     1
170
     0
176
     1
171
     0
176
     1
290
     0
176
     1
 93
       13
176
     1
 44
0.0
176
     1
173
     0
176
     1
  0
VISUALSTYLE
  5
282
102
{ACAD_REACTORS
330
27F
102
}
330
27F
100
AcDbVisualStyle
  2
Gouraud
 70
     2
177
     2
291
     1
 71
     2
176
     1
 72
     2
176
     1
 73
     1
176
     1
 90
        2
176
     1
 40
-0.6
176
     1
 41
30.0
176
     1
 62
     5
 63
     7
421
 16777215
176
     1
 74
     0
176
     1
 91
        4
176
     1
 64
     7
176
     1
 65
   257
176
     1
 75
     1
176
     1
175
     1
176
     1
 42
1.0
176
     1
 92
        0
176
     1
 66
     7
176
     1
 43
1.0
176
     1
 76
     1
176
     1
 77
     6
176
     1
 78
     2
176
     1
 67
     7
176
     1
 79
     5
176
     1
170
     0
176
     1
171
     0
176
     1
290
     0
176
     1
 93
       13
176
     1
 44
0.0
176
     1
173
     0
176
     1
  0
VISUALSTYLE
  5
283
102
{ACAD_REACTORS
330
27F
102
}
330
27F
100
AcDbVisualStyle
  2
GouraudWithEdges
 70
     3
177
     2
291
     1
 71
     2
176
     1
 72
     2
176
     1
 73
     1
176
     1
 90
        2
176
     1
 40
-0.6
176
     1
 41
30.0
176
     1
 62
     5
 63
     7
421
 16777215
176
     1
 74
     1
176
     1
 91
        4
176
     1
 64
     7
176
     1
 65
   257
176
     1
 75
     1
176
     1
175
     1
176
     1
 42
1.0
176
     1
 92
        0
176
     1
 66
   257
176
     1
 43
1.0
176
     1
 76
     1
176
     1
 77
     6
176
     1
 78
     2
176
     1
 67
     7
176
     1
 79
     5
176
     1
170
     0
176
     1
171
     0
176
     1
290
     0
176
     1
 93
       13
176
     1
 44
0.0
176
     1
173
     0
176
     1
  0
VISUALSTYLE
  5
28D
102
{ACAD_REACTORS
330
27F
102
}
330
27F
100
AcDbVisualStyle
  2
Linepattern
 70
    14
177
     2
291
     1
 71
     2
176
     1
 72
     2
176
     1
 73
     0
176
     1
 90
        0
176
     1
 40
-0.6
176
     1
 41
-30.0
176
     1
 62
     5
 63
     7
421
 16777215
176
     1
 74
     1
176
     1
 91
        4
176
     1
 64
     7
176
     1
 65
   257
176
     1
 75
     7
176
     1
175
     7
176
     1
 42
1.0
176
     1
 92
        8
176
     1
 66
     7
176
     1
 43
1.0
176
     1
 76
     1
176
     1
 77
     6
176
     1
 78
     2
176
     1
 67
     7
176
     1
 79
     5
176
     1
170
     0
176
     1
171
     0
176
     1
290
     0
176
     1
 93
        1
176
     1
 44
0.0
176
     1
173
     0
176
     1
  0
VISUALSTYLE
  5
288
102
{ACAD_REACTORS
330
27F
102
}
330
27F
100
AcDbVisualStyle
  2
Realistic
 70
     8
177
     2
291
     0
 71
     2
176
     1
 72
     2
176
     1
 73
     0
176
     1
 90
        0
176
     1
 40
-0.6
176
     1
 41
-30.0
176
     1
 62
     5
 63
     7
421
 16777215
176
     1
 74
     1
176
     1
 91
        0
176
     1
 64
     7
176
     1
 65
   257
176
     1
 75
     1
176
     1
175
     1
176
     1
 42
1.0
176
     1
 92
        8
176
     1
 66
     8
424
  7895160
176
     1
 43
1.0
176
     1
 76
     1
176
     1
 77
     6
176
     1
 78
     2
176
     1
 67
     7
176
     1
 79
     5
176
     1
170
     0
176
     1
171
     0
176
     1
290
     0
176
     1
 93
       13
176
     1
 44
0.0
176
     1
173
     0
176
     1
  0
VISUALSTYLE
  5
28C
102
{ACAD_REACTORS
330
27F
102
}
330
27F
100
AcDbVisualStyle
  2
Thicken
 70
    13
177
     2
291
     1
 71
     2
176
     1
 72
     2
176
     1
 73
     0
176
     1
 90
        0
176
     1
 40
-0.6
176
     1
 41
-30.0
176
     1
 62
     5
 63
     7
421
 16777215
176
     1
 74
     1
176
     1
 91
        4
176
     1
 64
     7
176
     1
 65
   257
176
     1
 75
     1
176
     1
175
     1
176
     1
 42
1.0
176
     1
 92
       12
176
     1
 66
     7
176
     1
 43
1.0
176
     1
 76
     1
176
     1
 77
     6
176
     1
 78
     2
176
     1
 67
     7
176
     1
 79
     5
176
     1
170
     0
176
     1
171
     0
176
     1
290
     0
176
     1
 93
        1
176
     1
 44
0.0
176
     1
173
     0
176
     1
  0
XRECORD
  5
2A5
102
{ACAD_REACTORS
330
295
102
}
330
295
100
AcDbXrecord
280
     1
290
     1
  0
XRECORD
  5
29E
102
{ACAD_REACTORS
330
295
102
}
330
295
100
AcDbXrecord
280
     1
1000
auto
  0
XRECORD
  5
29F
102
{ACAD_REACTORS
330
295
102
}
330
295
100
AcDbXrecord
280
     1
1000
auto
  0
XRECORD
  5
299
102
{ACAD_REACTORS
330
295
102
}
330
295
100
AcDbXrecord
280
     1
1000
auto
  0
XRECORD
  5
29C
102
{ACAD_REACTORS
330
295
102
}
330
295
100
AcDbXrecord
280
     1
1000
auto
  0
XRECORD
  5
29D
102
{ACAD_REACTORS
330
295
102
}
330
295
100
AcDbXrecord
280
     1
 90
        1
  0
XRECORD
  5
2A2
102
{ACAD_REACTORS
330
295
102
}
330
295
100
AcDbXrecord
280
     1
 40
10.0
  0
XRECORD
  5
2A0
102
{ACAD_REACTORS
330
295
102
}
330
295
100
AcDbXrecord
280
     1
 40
10.0
  0
XRECORD
  5
296
102
{ACAD_REACTORS
330
295
102
}
330
295
100
AcDbXrecord
280
     1
 40
10.0
  0
XRECORD
  5
2A9
102
{ACAD_REACTORS
330
295
102
}
330
295
100
AcDbXrecord
280
     1
 40
10.0
  0
XRECORD
  5
298
102
{ACAD_REACTORS
330
295
102
}
330
295
100
AcDbXrecord
280
     1
290
     0
  0
XRECORD
  5
2A1
102
{ACAD_REACTORS
330
295
102
}
330
295
100
AcDbXrecord
280
     1
 90
        1
  0
XRECORD
  5
2A7
102
{ACAD_REACTORS
330
295
102
}
330
295
100
AcDbXrecord
280
     1
 40
0.0
  0
XRECORD
  5
2A8
102
{ACAD_REACTORS
330
295
102
}
330
295
100
AcDbXrecord
280
     1
 40
0.0
  0
XRECORD
  5
297
102
{ACAD_REACTORS
330
295
102
}
330
295
100
AcDbXrecord
280
     1
1000
Portrait
  0
XRECORD
  5
29A
102
{ACAD_REACTORS
330
295
102
}
330
295
100
AcDbXrecord
280
     1
 40
297.0
  0
XRECORD
  5
2A3
102
{ACAD_REACTORS
330
295
102
}
330
295
100
AcDbXrecord
280
     1
 40
210.0
  0
XRECORD
  5
29B
102
{ACAD_REACTORS
330
295
102
}
330
295
100
AcDbXrecord
280
     1
1000
1:1
  0
XRECORD
  5
2A6
102
{ACAD_REACTORS
330
295
102
}
330
295
100
AcDbXrecord
280
     1
290
     1
  0
XRECORD
  5
2A4
102
{ACAD_REACTORS
330
295
102
}
330
295
100
AcDbXrecord
280
     1
 90
        4
  0
ENDSEC
  0
EOF
