  0
SECTION
  2
HEADER
  9
$ACADVER
  1
AC1024
  9
$ACADMAINTVER
 70
     6
  9
$DWGCODEPAGE
  3
ASCII
  9
$INSBASE
 10
0.0
 20
0.0
 30
0.0
  9
$EXTMIN
 10
1.000000000000000E+20
 20
1.000000000000000E+20
 30
1.000000000000000E+20
  9
$EXTMAX
 10
-1.000000000000000E+20
 20
-1.000000000000000E+20
 30
-1.000000000000000E+20
  9
$LIMMIN
 10
0.0
 20
0.0
  9
$LIMMAX
 10
12.0
 20
9.0
  9
$ORTHOMODE
 70
     0
  9
$REGENMODE
 70
     1
  9
$FILLMODE
 70
     1
  9
$QTEXTMODE
 70
     0
  9
$MIRRTEXT
 70
     1
  9
$LTSCALE
 40
1.0
  9
$ATTMODE
 70
     1
  9
$TEXTSIZE
 40
0.2
  9
$TRACEWID
 40
0.05
  9
$TEXTSTYLE
  7
Standard
  9
$CLAYER
  8
0
  9
$CELTYPE
  6
ByLayer
  9
$CECOLOR
 62
   178
  9
$CELTSCALE
 40
1.0
  9
$DISPSILH
 70
     0
  9
$DIMSCALE
 40
1.0
  9
$DIMASZ
 40
0.18
  9
$DIMEXO
 40
0.0625
  9
$DIMDLI
 40
0.38
  9
$DIMRND
 40
0.0
  9
$DIMDLE
 40
0.0
  9
$DIMEXE
 40
0.18
  9
$DIMTP
 40
0.0
  9
$DIMTM
 40
0.0
  9
$DIMTXT
 40
0.18
  9
$DIMCEN
 40
0.09
  9
$DIMTSZ
 40
0.0
  9
$DIMTOL
 70
     0
  9
$DIMLIM
 70
     0
  9
$DIMTIH
 70
     1
  9
$DIMTOH
 70
     1
  9
$DIMSE1
 70
     0
  9
$DIMSE2
 70
     0
  9
$DIMTAD
 70
     0
  9
$DIMZIN
 70
     0
  9
$DIMBLK
  1

  9
$DIMASO
 70
     1
  9
$DIMSHO
 70
     1
  9
$DIMPOST
  1

  9
$DIMAPOST
  1

  9
$DIMALT
 70
     0
  9
$DIMALTD
 70
     2
  9
$DIMALTF
 40
25.4
  9
$DIMLFAC
 40
1.0
  9
$DIMTOFL
 70
     0
  9
$DIMTVP
 40
0.0
  9
$DIMTIX
 70
     0
  9
$DIMSOXD
 70
     0
  9
$DIMSAH
 70
     0
  9
$DIMBLK1
  1

  9
$DIMBLK2
  1

  9
$DIMSTYLE
  2
Standard
  9
$DIMCLRD
 70
   178
  9
$DIMCLRE
 70
   178
  9
$DIMCLRT
 70
   178
  9
$DIMTFAC
 40
1.0
  9
$DIMGAP
 40
0.09
  9
$DIMJUST
 70
     0
  9
$DIMSD1
 70
     0
  9
$DIMSD2
 70
     0
  9
$DIMTOLJ
 70
     1
  9
$DIMTZIN
 70
     0
  9
$DIMALTZ
 70
     0
  9
$DIMALTTZ
 70
     0
  9
$DIMUPT
 70
     0
  9
$DIMDEC
 70
     4
  9
$DIMTDEC
 70
     4
  9
$DIMALTU
 70
     2
  9
$DIMALTTD
 70
     2
  9
$DIMTXSTY
  7
Standard
  9
$DIMAUNIT
 70
     0
  9
$DIMADEC
 70
     0
  9
$DIMALTRND
 40
0.0
  9
$DIMAZIN
 70
     0
  9
$DIMDSEP
 70
    46
  9
$DIMATFIT
 70
     3
  9
$DIMFRAC
 70
     0
  9
$DIMLDRBLK
  1

  9
$DIMLUNIT
 70
     2
  9
$DIMLWD
 70
    -2
  9
$DIMLWE
 70
    -2
  9
$DIMTMOVE
 70
     0
  9
$DIMFXL
 40
1.0
  9
$DIMFXLON
 70
     0
  9
$DIMJOGANG
 40
0.7853981633974483
  9
$DIMTFILL
 70
     0
  9
$DIMTFILLCLR
 70
     0
  9
$DIMARCSYM
 70
     0
  9
$DIMLTYPE
  6

  9
$DIMLTEX1
  6

  9
$DIMLTEX2
  6

  9
$DIMTXTDIRECTION
 70
     0
  9
$LUNITS
 70
     2
  9
$LUPREC
 70
     4
  9
$SKETCHINC
 40
0.1
  9
$FILLETRAD
 40
0.5
  9
$AUNITS
 70
     0
  9
$AUPREC
 70
     0
  9
$MENU
  1
.
  9
$ELEVATION
 40
0.0
  9
$PELEVATION
 40
0.0
  9
$THICKNESS
 40
0.0
  9
$LIMCHECK
 70
     0
  9
$CHAMFERA
 40
0.5
  9
$CHAMFERB
 40
0.5
  9
$CHAMFERC
 40
1.0
  9
$CHAMFERD
 40
0.0
  9
$SKPOLY
 70
     0
  9
$TDCREATE
 40
2456314.729490729
  9
$TDUCREATE
 40
2456314.937824074
  9
$TDUPDATE
 40
2456314.729490729
  9
$TDUUPDATE
 40
2456314.937824074
  9
$TDINDWG
 40
0.0000000116
  9
$TDUSRTIMER
 40
0.0000000116
  9
$USRTIMER
 70
     1
  9
$ANGBASE
 50
0.0
  9
$ANGDIR
 70
     0
  9
$PDMODE
 70
     0
  9
$PDSIZE
 40
0.0
  9
$PLINEWID
 40
0.0
  9
$SPLFRAME
 70
     0
  9
$SPLINETYPE
 70
     6
  9
$SPLINESEGS
 70
     8
  9
$HANDSEED
  5
2F7
  9
$SURFTAB1
 70
     6
  9
$SURFTAB2
 70
     6
  9
$SURFTYPE
 70
     6
  9
$SURFU
 70
     6
  9
$SURFV
 70
     6
  9
$UCSBASE
  2

  9
$UCSNAME
  2

  9
$UCSORG
 10
0.0
 20
0.0
 30
0.0
  9
$UCSXDIR
 10
1.0
 20
0.0
 30
0.0
  9
$UCSYDIR
 10
0.0
 20
1.0
 30
0.0
  9
$UCSORTHOREF
  2

  9
$UCSORTHOVIEW
 70
     0
  9
$UCSORGTOP
 10
0.0
 20
0.0
 30
0.0
  9
$UCSORGBOTTOM
 10
0.0
 20
0.0
 30
0.0
  9
$UCSORGLEFT
 10
0.0
 20
0.0
 30
0.0
  9
$UCSORGRIGHT
 10
0.0
 20
0.0
 30
0.0
  9
$UCSORGFRONT
 10
0.0
 20
0.0
 30
0.0
  9
$UCSORGBACK
 10
0.0
 20
0.0
 30
0.0
  9
$PUCSBASE
  2

  9
$PUCSNAME
  2

  9
$PUCSORG
 10
0.0
 20
0.0
 30
0.0
  9
$PUCSXDIR
 10
1.0
 20
0.0
 30
0.0
  9
$PUCSYDIR
 10
0.0
 20
1.0
 30
0.0
  9
$PUCSORTHOREF
  2

  9
$PUCSORTHOVIEW
 70
     0
  9
$PUCSORGTOP
 10
0.0
 20
0.0
 30
0.0
  9
$PUCSORGBOTTOM
 10
0.0
 20
0.0
 30
0.0
  9
$PUCSORGLEFT
 10
0.0
 20
0.0
 30
0.0
  9
$PUCSORGRIGHT
 10
0.0
 20
0.0
 30
0.0
  9
$PUCSORGFRONT
 10
0.0
 20
0.0
 30
0.0
  9
$PUCSORGBACK
 10
0.0
 20
0.0
 30
0.0
  9
$USERI1
 70
     0
  9
$USERI2
 70
     0
  9
$USERI3
 70
     0
  9
$USERI4
 70
     0
  9
$USERI5
 70
     0
  9
$USERR1
 40
0.0
  9
$USERR2
 40
0.0
  9
$USERR3
 40
0.0
  9
$USERR4
 40
0.0
  9
$USERR5
 40
0.0
  9
$WORLDVIEW
 70
     1
  9
$SHADEDGE
 70
     3
  9
$SHADEDIF
 70
    70
  9
$TILEMODE
 70
     1
  9
$MAXACTVP
 70
    64
  9
$PINSBASE
 10
0.0
 20
0.0
 30
0.0
  9
$PLIMCHECK
 70
     0
  9
$PEXTMIN
 10
1.000000000000000E+20
 20
1.000000000000000E+20
 30
1.000000000000000E+20
  9
$PEXTMAX
 10
-1.000000000000000E+20
 20
-1.000000000000000E+20
 30
-1.000000000000000E+20
  9
$PLIMMIN
 10
0.0
 20
0.0
  9
$PLIMMAX
 10
12.0
 20
9.0
  9
$UNITMODE
 70
     0
  9
$VISRETAIN
 70
     1
  9
$PLINEGEN
 70
     0
  9
$PSLTSCALE
 70
     1
  9
$TREEDEPTH
 70
  3020
  9
$CMLSTYLE
  2
Standard
  9
$CMLJUST
 70
     0
  9
$CMLSCALE
 40
1.0
  9
$PROXYGRAPHICS
 70
     1
  9
$MEASUREMENT
 70
     1
  9
$CELWEIGHT
370
    -1
  9
$ENDCAPS
280
     0
  9
$JOINSTYLE
280
     0
  9
$LWDISPLAY
290
     0
  9
$INSUNITS
 70
     0
  9
$HYPERLINKBASE
  1

  9
$STYLESHEET
  1

  9
$XEDIT
290
     1
  9
$CEPSNTYPE
380
     0
  9
$PSTYLEMODE
290
     1
  9
$FINGERPRINTGUID
  2
{A994E652-41EC-8775-06A7-4DAEA97AC4FE}
  9
$VERSIONGUID
  2
{FAEB1C32-E019-11D5-929B-00C0DF256EC4}
  9
$EXTNAMES
290
     1
  9
$PSVPSCALE
 40
0.0
  9
$OLESTARTUP
290
     0
  9
$SORTENTS
280
   127
  9
$INDEXCTL
280
     0
  9
$HIDETEXT
280
     1
  9
$XCLIPFRAME
280
     2
  9
$HALOGAP
280
     0
  9
$OBSCOLOR
 70
   257
  9
$OBSLTYPE
280
     0
  9
$INTERSECTIONDISPLAY
280
     0
  9
$INTERSECTIONCOLOR
 70
   257
  9
$DIMASSOC
280
     2
  9
$PROJECTNAME
  1

  9
$CAMERADISPLAY
290
     0
  9
$LENSLENGTH
 40
50.0
  9
$CAMERAHEIGHT
 40
0.0
  9
$STEPSPERSEC
 40
2.0
  9
$STEPSIZE
 40
6.0
  9
$3DDWFPREC
 40
2.0
  9
$PSOLWIDTH
 40
0.25
  9
$PSOLHEIGHT
 40
4.0
  9
$LOFTANG1
 40
1.570796326794897
  9
$LOFTANG2
 40
1.570796326794897
  9
$LOFTMAG1
 40
0.0
  9
$LOFTMAG2
 40
0.0
  9
$LOFTPARAM
 70
     7
  9
$LOFTNORMALS
280
     1
  9
$LATITUDE
 40
37.795
  9
$LONGITUDE
 40
-122.394
  9
$NORTHDIRECTION
 40
0.0
  9
$TIMEZONE
 70
 -8000
  9
$LIGHTGLYPHDISPLAY
280
     1
  9
$TILEMODELIGHTSYNCH
280
     1
  9
$SOLIDHIST
280
     1
  9
$SHOWHIST
280
     1
  9
$DWFFRAME
280
     2
  9
$DGNFRAME
280
     2
  9
$REALWORLDSCALE
290
     1
  9
$INTERFERECOLOR
 62
   256
  9
$CSHADOW
280
     0
  9
$SHADOWPLANELOCATION
 40
0.0
  0
ENDSEC
  0
SECTION
  2
CLASSES
  0
CLASS
  1
ACDBDICTIONARYWDFLT
  2
AcDbDictionaryWithDefault
  3
ObjectDBX Classes
 90
        0
 91
        4
280
     0
281
     0
  0
CLASS
  1
VISUALSTYLE
  2
AcDbVisualStyle
  3
ObjectDBX Classes
 90
     4095
 91
        4
280
     0
281
     0
  0
CLASS
  1
MATERIAL
  2
AcDbMaterial
  3
ObjectDBX Classes
 90
     1153
 91
        4
280
     0
281
     0
  0
ENDSEC
  0
SECTION
  2
TABLES
  0
TABLE
  2
VPORT
  5
296
330
0
100
AcDbSymbolTable
 70
     1
  0
VPORT
  5
2B6
330
296
100
AcDbSymbolTableRecord
100
AcDbViewportTableRecord
  2
*Active
 70
     0
 10
0.0
 20
0.0
 11
1.0
 21
1.0
 12
10.42990654205607
 22
4.5
 13
0.0
 23
0.0
 14
0.5
 24
0.5
 15
0.5
 25
0.5
 16
0.0
 26
0.0
 36
1.0
 17
0.0
 27
0.0
 37
0.0
 40
9.0
 41
1.972972972850329
 42
50.0
 43
0.0
 44
0.0
 50
0.0
 51
0.0
 71
     0
 72
   100
 73
     1
 74
     3
 75
     0
 76
     0
 77
     0
 78
     0
281
     0
 65
     1
110
0.0
120
0.0
130
0.0
111
1.0
121
0.0
131
0.0
112
0.0
122
1.0
132
0.0
 79
     0
146
0.0
 60
     3
 61
     5
292
     1
282
     1
141
0.0
142
0.0
 63
   250
  0
ENDTAB
  0
TABLE
  2
LTYPE
  5
293
330
0
100
AcDbSymbolTable
 70
    19
  0
LTYPE
  5
2A1
330
293
100
AcDbSymbolTableRecord
100
AcDbLinetypeTableRecord
  2
ByBlock
 70
     0
  3

 72
    65
 73
     0
 40
0.0
  0
LTYPE
  5
2A2
330
293
100
AcDbSymbolTableRecord
100
AcDbLinetypeTableRecord
  2
ByLayer
 70
     0
  3

 72
    65
 73
     0
 40
0.0
  0
LTYPE
  5
2A3
330
293
100
AcDbSymbolTableRecord
100
AcDbLinetypeTableRecord
  2
Continuous
 70
     0
  3
Solid line
 72
    65
 73
     0
 40
0.0
  0
LTYPE
  5
2E3
330
293
100
AcDbSymbolTableRecord
100
AcDbLinetypeTableRecord
  2
BORDER
 70
     0
  3

 72
    65
 73
     6
 40
42.0
 49
12.0
 74
     0
 49
-6.0
 74
     0
 49
12.0
 74
     0
 49
-5.95
 74
     0
 49
0.1
 74
     0
 49
-5.95
 74
     0
  0
LTYPE
  5
2E4
330
293
100
AcDbSymbolTableRecord
100
AcDbLinetypeTableRecord
  2
BORDER2
 70
     0
  3

 72
    65
 73
     6
 40
21.0
 49
6.0
 74
     0
 49
-3.0
 74
     0
 49
6.0
 74
     0
 49
-2.95
 74
     0
 49
0.1
 74
     0
 49
-2.95
 74
     0
  0
LTYPE
  5
2E5
330
293
100
AcDbSymbolTableRecord
100
AcDbLinetypeTableRecord
  2
BORDERX2
 70
     0
  3

 72
    65
 73
     6
 40
84.0
 49
24.0
 74
     0
 49
-12.0
 74
     0
 49
24.0
 74
     0
 49
-11.95
 74
     0
 49
0.1
 74
     0
 49
-11.95
 74
     0
  0
LTYPE
  5
2E6
330
293
100
AcDbSymbolTableRecord
100
AcDbLinetypeTableRecord
  2
CENTER
 70
     0
  3

 72
    65
 73
     4
 40
50.0
 49
32.0
 74
     0
 49
-6.0
 74
     0
 49
6.0
 74
     0
 49
-6.0
 74
     0
  0
LTYPE
  5
2E7
330
293
100
AcDbSymbolTableRecord
100
AcDbLinetypeTableRecord
  2
CENTER2
 70
     0
  3

 72
    65
 73
     4
 40
25.0
 49
16.0
 74
     0
 49
-3.0
 74
     0
 49
3.0
 74
     0
 49
-3.0
 74
     0
  0
LTYPE
  5
2E8
330
293
100
AcDbSymbolTableRecord
100
AcDbLinetypeTableRecord
  2
CENTERX2
 70
     0
  3

 72
    65
 73
     4
 40
100.0
 49
64.0
 74
     0
 49
-12.0
 74
     0
 49
12.0
 74
     0
 49
-12.0
 74
     0
  0
LTYPE
  5
2E9
330
293
100
AcDbSymbolTableRecord
100
AcDbLinetypeTableRecord
  2
DASHDOT
 70
     0
  3

 72
    65
 73
     4
 40
24.0
 49
12.0
 74
     0
 49
-5.95
 74
     0
 49
0.1
 74
     0
 49
-5.95
 74
     0
  0
LTYPE
  5
2EA
330
293
100
AcDbSymbolTableRecord
100
AcDbLinetypeTableRecord
  2
DASHDOT2
 70
     0
  3

 72
    65
 73
     4
 40
12.0
 49
6.0
 74
     0
 49
-2.95
 74
     0
 49
0.1
 74
     0
 49
-2.95
 74
     0
  0
LTYPE
  5
2EB
330
293
100
AcDbSymbolTableRecord
100
AcDbLinetypeTableRecord
  2
DASHDOTX2
 70
     0
  3

 72
    65
 73
     4
 40
48.0
 49
24.0
 74
     0
 49
-11.95
 74
     0
 49
0.1
 74
     0
 49
-11.95
 74
     0
  0
LTYPE
  5
2EC
330
293
100
AcDbSymbolTableRecord
100
AcDbLinetypeTableRecord
  2
DASHED
 70
     0
  3

 72
    65
 73
     2
 40
18.0
 49
12.0
 74
     0
 49
-6.0
 74
     0
  0
LTYPE
  5
2ED
330
293
100
AcDbSymbolTableRecord
100
AcDbLinetypeTableRecord
  2
DASHED2
 70
     0
  3

 72
    65
 73
     2
 40
9.0
 49
6.0
 74
     0
 49
-3.0
 74
     0
  0
LTYPE
  5
2EE
330
293
100
AcDbSymbolTableRecord
100
AcDbLinetypeTableRecord
  2
DASHEDX2
 70
     0
  3

 72
    65
 73
     2
 40
36.0
 49
24.0
 74
     0
 49
-12.0
 74
     0
  0
LTYPE
  5
2EF
330
293
100
AcDbSymbolTableRecord
100
AcDbLinetypeTableRecord
  2
DIVIDE
 70
     0
  3

 72
    65
 73
     6
 40
30.0
 49
12.0
 74
     0
 49
-5.9
 74
     0
 49
0.15
 74
     0
 49
-5.9
 74
     0
 49
0.15
 74
     0
 49
-5.9
 74
     0
  0
LTYPE
  5
2F0
330
293
100
AcDbSymbolTableRecord
100
AcDbLinetypeTableRecord
  2
DIVIDE2
 70
     0
  3

 72
    65
 73
     6
 40
15.0
 49
6.0
 74
     0
 49
-2.9
 74
     0
 49
0.15
 74
     0
 49
-2.9
 74
     0
 49
0.15
 74
     0
 49
-2.9
 74
     0
  0
LTYPE
  5
2F1
330
293
100
AcDbSymbolTableRecord
100
AcDbLinetypeTableRecord
  2
DIVIDEX2
 70
     0
  3

 72
    65
 73
     6
 40
60.0
 49
24.0
 74
     0
 49
-11.9
 74
     0
 49
0.15
 74
     0
 49
-11.9
 74
     0
 49
0.15
 74
     0
 49
-11.9
 74
     0
  0
LTYPE
  5
2F2
330
293
100
AcDbSymbolTableRecord
100
AcDbLinetypeTableRecord
  2
DOT
 70
     0
  3

 72
    65
 73
     2
 40
6.3
 49
0.1
 74
     0
 49
-6.2
 74
     0
  0
LTYPE
  5
2F3
330
293
100
AcDbSymbolTableRecord
100
AcDbLinetypeTableRecord
  2
DOT2
 70
     0
  3

 72
    65
 73
     2
 40
3.2
 49
0.1
 74
     0
 49
-3.1
 74
     0
  0
LTYPE
  5
2F4
330
293
100
AcDbSymbolTableRecord
100
AcDbLinetypeTableRecord
  2
DOTX2
 70
     0
  3

 72
    65
 73
     2
 40
12.5
 49
0.1
 74
     0
 49
-12.4
 74
     0
  0
ENDTAB
  0
TABLE
  2
LAYER
  5
290
330
0
100
AcDbSymbolTable
 70
     1
  0
LAYER
  5
29E
330
290
100
AcDbSymbolTableRecord
100
AcDbLayerTableRecord
  2
0
 70
     0
 62
     7
420
 16777215
  6
Continuous
370
     0
390
29D
347
2CB
  0
ENDTAB
  0
TABLE
  2
STYLE
  5
291
330
0
100
AcDbSymbolTable
 70
     1
  0
STYLE
  5
29F
330
291
100
AcDbSymbolTableRecord
100
AcDbTextStyleTableRecord
  2
Standard
 70
     0
 40
0.0
 41
1.0
 50
0.0
 71
     0
 42
0.2
  3
txt
  4

  0
ENDTAB
  0
TABLE
  2
VIEW
  5
294
330
0
100
AcDbSymbolTable
 70
     0
  0
ENDTAB
  0
TABLE
  2
UCS
  5
295
330
0
100
AcDbSymbolTable
 70
     0
  0
ENDTAB
  0
TABLE
  2
APPID
  5
297
330
0
100
AcDbSymbolTable
 70
     2
  0
APPID
  5
2A0
330
297
100
AcDbSymbolTableRecord
100
AcDbRegAppTableRecord
  2
ACAD
 70
     0
  0
APPID
  5
2CC
330
297
100
AcDbSymbolTableRecord
100
AcDbRegAppTableRecord
  2
QCAD
 70
     0
  0
ENDTAB
  0
TABLE
  2
DIMSTYLE
  5
298
330
0
100
AcDbSymbolTable
 70
     2
100
AcDbDimStyleTable
  0
DIMSTYLE
105
2B4
330
298
100
AcDbSymbolTableRecord
100
AcDbDimStyleTableRecord
  2
Standard
 70
     0
178
     0
340
29F
  0
DIMSTYLE
105
2E2
330
298
100
AcDbSymbolTableRecord
100
AcDbDimStyleTableRecord
  2
QCADDimStyle
 70
     0
 73
     0
 77
     1
178
     0
340
29F
  0
ENDTAB
  0
TABLE
  2
BLOCK_RECORD
  5
28F
330
0
100
AcDbSymbolTable
 70
     1
  0
BLOCK_RECORD
  5
2AC
330
28F
100
AcDbSymbolTableRecord
100
AcDbBlockTableRecord
  2
*Model_Space
340
2AF
 70
     0
280
     1
281
     0
  0
BLOCK_RECORD
  5
2A8
330
28F
100
AcDbSymbolTableRecord
100
AcDbBlockTableRecord
  2
*Paper_Space
340
2AB
 70
     0
280
     1
281
     0
  0
BLOCK_RECORD
  5
2B0
330
28F
100
AcDbSymbolTableRecord
100
AcDbBlockTableRecord
  2
*Paper_Space0
340
2B3
 70
     0
280
     1
281
     0
  0
ENDTAB
  0
ENDSEC
  0
SECTION
  2
BLOCKS
  0
BLOCK
  5
2AD
330
2AC
100
AcDbEntity
  8
0
100
AcDbBlockBegin
  2
*Model_Space
 70
     0
 10
0.0
 20
0.0
 30
0.0
  3
*Model_Space
  1

  0
ENDBLK
  5
2AE
330
2AC
100
AcDbEntity
  8
0
100
AcDbBlockEnd
  0
BLOCK
  5
2A9
330
2A8
100
AcDbEntity
 67
     1
  8
0
100
AcDbBlockBegin
  2
*Paper_Space
 70
     0
 10
0.0
 20
0.0
 30
0.0
  3
*Paper_Space
  1

  0
ENDBLK
  5
2AA
330
2A8
100
AcDbEntity
 67
     1
  8
0
100
AcDbBlockEnd
  0
BLOCK
  5
2B1
330
2B0
100
AcDbEntity
  8
0
100
AcDbBlockBegin
  2
*Paper_Space0
 70
     0
 10
0.0
 20
0.0
 30
0.0
  3
*Paper_Space0
  1

  0
ENDBLK
  5
2B2
330
2B0
100
AcDbEntity
  8
0
100
AcDbBlockEnd
  0
ENDSEC
  0
SECTION
  2
ENTITIES
  0
LINE
  5
21
330
2AC
100
AcDbEntity
  8
0
100
AcDbLine
 10
13.6727478661
 20
-1.45549503266
 30
0.0
 11
13.4738715335
 21
-1.43432419582
 31
0.0
  0
LINE
  5
22
330
2AC
100
AcDbEntity
  8
0
100
AcDbLine
 10
13.4738715335
 20
-1.43432419582
 30
0.0
 11
13.4738715335
 21
1.43432419582
 31
0.0
  0
LINE
  5
23
330
2AC
100
AcDbEntity
  8
0
100
AcDbLine
 10
13.6727478661
 20
1.45549503266
 30
0.0
 11
13.4738715335
 21
1.43432419582
 31
0.0
  0
LINE
  5
24
330
2AC
100
AcDbEntity
  8
0
100
AcDbLine
 10
13.6727478661
 20
1.45549503266
 30
0.0
 11
13.6997193049
 21
1.45951737453
 31
0.0
  0
LINE
  5
25
330
2AC
100
AcDbEntity
  8
0
100
AcDbLine
 10
13.6997193049
 20
1.45951737453
 30
0.0
 11
13.7798276991
 21
1.47609233545
 31
0.0
  0
LINE
  5
26
330
2AC
100
AcDbEntity
  8
0
100
AcDbLine
 10
13.7798276991
 20
1.47609233545
 30
0.0
 11
13.9113878952
 21
1.51188188394
 31
0.0
  0
LINE
  5
27
330
2AC
100
AcDbEntity
  8
0
100
AcDbLine
 10
13.9113878952
 20
1.51188188394
 30
0.0
 11
14.092089957
 21
1.57337237923
 31
0.0
  0
LINE
  5
28
330
2AC
100
AcDbEntity
  8
0
100
AcDbLine
 10
14.092089957
 20
1.57337237923
 30
0.0
 11
14.3190154181
 21
1.66682256342
 31
0.0
  0
LINE
  5
29
330
2AC
100
AcDbEntity
  8
0
100
AcDbLine
 10
14.3190154181
 20
1.66682256342
 30
0.0
 11
14.5886575863
 21
1.79821295472
 31
0.0
  0
LINE
  5
2A
330
2AC
100
AcDbEntity
  8
0
100
AcDbLine
 10
14.5886575863
 20
1.79821295472
 30
0.0
 11
14.8969457883
 21
1.97319694481
 31
0.0
  0
LINE
  5
2B
330
2AC
100
AcDbEntity
  8
0
100
AcDbLine
 10
14.8969457883
 20
1.97319694481
 30
0.0
 11
15.2392734141
 21
2.19705389398
 31
0.0
  0
LINE
  5
2C
330
2AC
100
AcDbEntity
  8
0
100
AcDbLine
 10
15.2392734141
 20
2.19705389398
 30
0.0
 11
15.6105296056
 21
2.47464450738
 31
0.0
  0
LINE
  5
2D
330
2AC
100
AcDbEntity
  8
0
100
AcDbLine
 10
15.6105296056
 20
2.47464450738
 30
0.0
 11
16.0051344081
 21
2.81036876299
 31
0.0
  0
LINE
  5
2E
330
2AC
100
AcDbEntity
  8
0
100
AcDbLine
 10
12.5686945079
 20
5.57587825968
 30
0.0
 11
12.59406363
 21
5.58588052885
 31
0.0
  0
LINE
  5
2F
330
2AC
100
AcDbEntity
  8
0
100
AcDbLine
 10
12.59406363
 20
5.58588052885
 30
0.0
 11
12.6717270149
 21
5.61158038873
 31
0.0
  0
LINE
  5
30
330
2AC
100
AcDbEntity
  8
0
100
AcDbLine
 10
12.6717270149
 20
5.61158038873
 30
0.0
 11
12.8035562611
 21
5.64636582857
 31
0.0
  0
LINE
  5
31
330
2AC
100
AcDbEntity
  8
0
100
AcDbLine
 10
12.8035562611
 20
5.64636582857
 30
0.0
 11
12.9907940848
 21
5.68346452849
 31
0.0
  0
LINE
  5
32
330
2AC
100
AcDbEntity
  8
0
100
AcDbLine
 10
12.9907940848
 20
5.68346452849
 30
0.0
 11
13.2340423909
 21
5.71599702552
 31
0.0
  0
LINE
  5
33
330
2AC
100
AcDbEntity
  8
0
100
AcDbLine
 10
13.2340423909
 20
5.71599702552
 30
0.0
 11
13.5332545542
 21
5.73703069296
 31
0.0
  0
LINE
  5
34
330
2AC
100
AcDbEntity
  8
0
100
AcDbLine
 10
13.5332545542
 20
5.73703069296
 30
0.0
 11
13.8877319639
 21
5.73963421327
 31
0.0
  0
LINE
  5
35
330
2AC
100
AcDbEntity
  8
0
100
AcDbLine
 10
13.8877319639
 20
5.73963421327
 30
0.0
 11
14.2961248588
 21
5.71693222138
 31
0.0
  0
LINE
  5
36
330
2AC
100
AcDbEntity
  8
0
100
AcDbLine
 10
14.2961248588
 20
5.71693222138
 30
0.0
 11
14.7564374586
 21
5.66215979405
 31
0.0
  0
LINE
  5
37
330
2AC
100
AcDbEntity
  8
0
100
AcDbLine
 10
14.7564374586
 20
5.66215979405
 30
0.0
 11
15.2660373699
 21
5.56871646129
 31
0.0
  0
LINE
  5
38
330
2AC
100
AcDbEntity
  8
0
100
AcDbLine
 10
16.0051344081
 20
2.81036876299
 30
0.0
 11
15.2660373699
 21
5.56871646129
 31
0.0
  0
LINE
  5
39
330
2AC
100
AcDbEntity
  8
0
100
AcDbLine
 10
12.5686945079
 20
5.57587825968
 30
0.0
 11
12.3858771333
 21
5.4947745759
 31
0.0
  0
LINE
  5
3A
330
2AC
100
AcDbEntity
  8
0
100
AcDbLine
 10
12.3858771333
 20
5.4947745759
 30
0.0
 11
10.9515529374
 21
7.9790969576
 31
0.0
  0
LINE
  5
3B
330
2AC
100
AcDbEntity
  8
0
100
AcDbLine
 10
11.1131994752
 20
8.09686960642
 30
0.0
 11
10.9515529374
 21
7.9790969576
 31
0.0
  0
LINE
  5
3C
330
2AC
100
AcDbEntity
  8
0
100
AcDbLine
 10
11.1131994752
 20
8.09686960642
 30
0.0
 11
11.1345462555
 21
8.11383877607
 31
0.0
  0
LINE
  5
3D
330
2AC
100
AcDbEntity
  8
0
100
AcDbLine
 10
11.1345462555
 20
8.11383877607
 30
0.0
 11
11.1956346795
 21
8.16824731039
 31
0.0
  0
LINE
  5
3E
330
2AC
100
AcDbEntity
  8
0
100
AcDbLine
 10
11.1956346795
 20
8.16824731039
 30
0.0
 11
11.2916743771
 21
8.26502206659
 31
0.0
  0
LINE
  5
3F
330
2AC
100
AcDbEntity
  8
0
100
AcDbLine
 10
11.2916743771
 20
8.26502206659
 30
0.0
 11
11.4174217056
 21
8.40862542854
 31
0.0
  0
LINE
  5
40
330
2AC
100
AcDbEntity
  8
0
100
AcDbLine
 10
11.4174217056
 20
8.40862542854
 30
0.0
 11
11.5672198275
 21
8.60301839256
 31
0.0
  0
LINE
  5
41
330
2AC
100
AcDbEntity
  8
0
100
AcDbLine
 10
11.5672198275
 20
8.60301839256
 30
0.0
 11
11.7350415995
 21
8.85162689337
 31
0.0
  0
LINE
  5
42
330
2AC
100
AcDbEntity
  8
0
100
AcDbLine
 10
11.7350415995
 20
8.85162689337
 30
0.0
 11
11.9145350191
 21
9.15731157502
 31
0.0
  0
LINE
  5
43
330
2AC
100
AcDbEntity
  8
0
100
AcDbLine
 10
11.9145350191
 20
9.15731157502
 30
0.0
 11
12.0990709648
 21
9.52234119273
 31
0.0
  0
LINE
  5
44
330
2AC
100
AcDbEntity
  8
0
100
AcDbLine
 10
12.0990709648
 20
9.52234119273
 30
0.0
 11
12.2817929512
 21
9.94836981151
 31
0.0
  0
LINE
  5
45
330
2AC
100
AcDbEntity
  8
0
100
AcDbLine
 10
12.2817929512
 20
9.94836981151
 30
0.0
 11
12.4556686069
 21
10.4364179468
 31
0.0
  0
LINE
  5
46
330
2AC
100
AcDbEntity
  8
0
100
AcDbLine
 10
8.09686960642
 20
11.1131994752
 30
0.0
 11
8.11383877607
 21
11.1345462555
 31
0.0
  0
LINE
  5
47
330
2AC
100
AcDbEntity
  8
0
100
AcDbLine
 10
8.11383877607
 20
11.1345462555
 30
0.0
 11
8.16824731039
 21
11.1956346795
 31
0.0
  0
LINE
  5
48
330
2AC
100
AcDbEntity
  8
0
100
AcDbLine
 10
8.16824731039
 20
11.1956346795
 30
0.0
 11
8.26502206659
 21
11.2916743771
 31
0.0
  0
LINE
  5
49
330
2AC
100
AcDbEntity
  8
0
100
AcDbLine
 10
8.26502206659
 20
11.2916743771
 30
0.0
 11
8.40862542854
 21
11.4174217056
 31
0.0
  0
LINE
  5
4A
330
2AC
100
AcDbEntity
  8
0
100
AcDbLine
 10
8.40862542854
 20
11.4174217056
 30
0.0
 11
8.60301839256
 21
11.5672198275
 31
0.0
  0
LINE
  5
4B
330
2AC
100
AcDbEntity
  8
0
100
AcDbLine
 10
8.60301839256
 20
11.5672198275
 30
0.0
 11
8.85162689337
 21
11.7350415995
 31
0.0
  0
LINE
  5
4C
330
2AC
100
AcDbEntity
  8
0
100
AcDbLine
 10
8.85162689337
 20
11.7350415995
 30
0.0
 11
9.15731157502
 21
11.9145350191
 31
0.0
  0
LINE
  5
4D
330
2AC
100
AcDbEntity
  8
0
100
AcDbLine
 10
9.15731157502
 20
11.9145350191
 30
0.0
 11
9.52234119273
 21
12.0990709648
 31
0.0
  0
LINE
  5
4E
330
2AC
100
AcDbEntity
  8
0
100
AcDbLine
 10
9.52234119273
 20
12.0990709648
 30
0.0
 11
9.94836981151
 21
12.2817929512
 31
0.0
  0
LINE
  5
4F
330
2AC
100
AcDbEntity
  8
0
100
AcDbLine
 10
9.94836981151
 20
12.2817929512
 30
0.0
 11
10.4364179468
 21
12.4556686069
 31
0.0
  0
LINE
  5
50
330
2AC
100
AcDbEntity
  8
0
100
AcDbLine
 10
12.4556686069
 20
10.4364179468
 30
0.0
 11
10.4364179468
 21
12.4556686069
 31
0.0
  0
LINE
  5
51
330
2AC
100
AcDbEntity
  8
0
100
AcDbLine
 10
8.09686960642
 20
11.1131994752
 30
0.0
 11
7.9790969576
 21
10.9515529374
 31
0.0
  0
LINE
  5
52
330
2AC
100
AcDbEntity
  8
0
100
AcDbLine
 10
7.9790969576
 20
10.9515529374
 30
0.0
 11
5.4947745759
 21
12.3858771333
 31
0.0
  0
LINE
  5
53
330
2AC
100
AcDbEntity
  8
0
100
AcDbLine
 10
5.57587825968
 20
12.5686945079
 30
0.0
 11
5.4947745759
 21
12.3858771333
 31
0.0
  0
LINE
  5
54
330
2AC
100
AcDbEntity
  8
0
100
AcDbLine
 10
5.57587825968
 20
12.5686945079
 30
0.0
 11
5.58588052885
 21
12.59406363
 31
0.0
  0
LINE
  5
55
330
2AC
100
AcDbEntity
  8
0
100
AcDbLine
 10
5.58588052885
 20
12.59406363
 30
0.0
 11
5.61158038873
 21
12.6717270149
 31
0.0
  0
LINE
  5
56
330
2AC
100
AcDbEntity
  8
0
100
AcDbLine
 10
5.61158038873
 20
12.6717270149
 30
0.0
 11
5.64636582857
 21
12.8035562611
 31
0.0
  0
LINE
  5
57
330
2AC
100
AcDbEntity
  8
0
100
AcDbLine
 10
5.64636582857
 20
12.8035562611
 30
0.0
 11
5.68346452849
 21
12.9907940848
 31
0.0
  0
LINE
  5
58
330
2AC
100
AcDbEntity
  8
0
100
AcDbLine
 10
5.68346452849
 20
12.9907940848
 30
0.0
 11
5.71599702552
 21
13.2340423909
 31
0.0
  0
LINE
  5
59
330
2AC
100
AcDbEntity
  8
0
100
AcDbLine
 10
5.71599702552
 20
13.2340423909
 30
0.0
 11
5.73703069296
 21
13.5332545542
 31
0.0
  0
LINE
  5
5A
330
2AC
100
AcDbEntity
  8
0
100
AcDbLine
 10
5.73703069296
 20
13.5332545542
 30
0.0
 11
5.73963421327
 21
13.8877319639
 31
0.0
  0
LINE
  5
5B
330
2AC
100
AcDbEntity
  8
0
100
AcDbLine
 10
5.73963421327
 20
13.8877319639
 30
0.0
 11
5.71693222138
 21
14.2961248588
 31
0.0
  0
LINE
  5
5C
330
2AC
100
AcDbEntity
  8
0
100
AcDbLine
 10
5.71693222138
 20
14.2961248588
 30
0.0
 11
5.66215979405
 21
14.7564374586
 31
0.0
  0
LINE
  5
5D
330
2AC
100
AcDbEntity
  8
0
100
AcDbLine
 10
5.66215979405
 20
14.7564374586
 30
0.0
 11
5.56871646129
 21
15.2660373699
 31
0.0
  0
LINE
  5
5E
330
2AC
100
AcDbEntity
  8
0
100
AcDbLine
 10
1.45549503266
 20
13.6727478661
 30
0.0
 11
1.45951737453
 21
13.6997193049
 31
0.0
  0
LINE
  5
5F
330
2AC
100
AcDbEntity
  8
0
100
AcDbLine
 10
1.45951737453
 20
13.6997193049
 30
0.0
 11
1.47609233545
 21
13.7798276991
 31
0.0
  0
LINE
  5
60
330
2AC
100
AcDbEntity
  8
0
100
AcDbLine
 10
1.47609233545
 20
13.7798276991
 30
0.0
 11
1.51188188394
 21
13.9113878952
 31
0.0
  0
LINE
  5
61
330
2AC
100
AcDbEntity
  8
0
100
AcDbLine
 10
1.51188188394
 20
13.9113878952
 30
0.0
 11
1.57337237923
 21
14.092089957
 31
0.0
  0
LINE
  5
62
330
2AC
100
AcDbEntity
  8
0
100
AcDbLine
 10
1.57337237923
 20
14.092089957
 30
0.0
 11
1.66682256342
 21
14.3190154181
 31
0.0
  0
LINE
  5
63
330
2AC
100
AcDbEntity
  8
0
100
AcDbLine
 10
1.66682256342
 20
14.3190154181
 30
0.0
 11
1.79821295472
 21
14.5886575863
 31
0.0
  0
LINE
  5
64
330
2AC
100
AcDbEntity
  8
0
100
AcDbLine
 10
1.79821295472
 20
14.5886575863
 30
0.0
 11
1.97319694481
 21
14.8969457883
 31
0.0
  0
LINE
  5
65
330
2AC
100
AcDbEntity
  8
0
100
AcDbLine
 10
1.97319694481
 20
14.8969457883
 30
0.0
 11
2.19705389398
 21
15.2392734141
 31
0.0
  0
LINE
  5
66
330
2AC
100
AcDbEntity
  8
0
100
AcDbLine
 10
2.19705389398
 20
15.2392734141
 30
0.0
 11
2.47464450738
 21
15.6105296056
 31
0.0
  0
LINE
  5
67
330
2AC
100
AcDbEntity
  8
0
100
AcDbLine
 10
2.47464450738
 20
15.6105296056
 30
0.0
 11
2.81036876299
 21
16.0051344081
 31
0.0
  0
LINE
  5
68
330
2AC
100
AcDbEntity
  8
0
100
AcDbLine
 10
5.56871646129
 20
15.2660373699
 30
0.0
 11
2.81036876299
 21
16.0051344081
 31
0.0
  0
LINE
  5
69
330
2AC
100
AcDbEntity
  8
0
100
AcDbLine
 10
1.45549503266
 20
13.6727478661
 30
0.0
 11
1.43432419582
 21
13.4738715335
 31
0.0
  0
LINE
  5
6A
330
2AC
100
AcDbEntity
  8
0
100
AcDbLine
 10
1.43432419582
 20
13.4738715335
 30
0.0
 11
-1.43432419582
 21
13.4738715335
 31
0.0
  0
LINE
  5
6B
330
2AC
100
AcDbEntity
  8
0
100
AcDbLine
 10
-1.45549503266
 20
13.6727478661
 30
0.0
 11
-1.43432419582
 21
13.4738715335
 31
0.0
  0
LINE
  5
6C
330
2AC
100
AcDbEntity
  8
0
100
AcDbLine
 10
-1.45549503266
 20
13.6727478661
 30
0.0
 11
-1.45951737453
 21
13.6997193049
 31
0.0
  0
LINE
  5
6D
330
2AC
100
AcDbEntity
  8
0
100
AcDbLine
 10
-1.45951737453
 20
13.6997193049
 30
0.0
 11
-1.47609233545
 21
13.7798276991
 31
0.0
  0
LINE
  5
6E
330
2AC
100
AcDbEntity
  8
0
100
AcDbLine
 10
-1.47609233545
 20
13.7798276991
 30
0.0
 11
-1.51188188394
 21
13.9113878952
 31
0.0
  0
LINE
  5
6F
330
2AC
100
AcDbEntity
  8
0
100
AcDbLine
 10
-1.51188188394
 20
13.9113878952
 30
0.0
 11
-1.57337237923
 21
14.092089957
 31
0.0
  0
LINE
  5
70
330
2AC
100
AcDbEntity
  8
0
100
AcDbLine
 10
-1.57337237923
 20
14.092089957
 30
0.0
 11
-1.66682256342
 21
14.3190154181
 31
0.0
  0
LINE
  5
71
330
2AC
100
AcDbEntity
  8
0
100
AcDbLine
 10
-1.66682256342
 20
14.3190154181
 30
0.0
 11
-1.79821295472
 21
14.5886575863
 31
0.0
  0
LINE
  5
72
330
2AC
100
AcDbEntity
  8
0
100
AcDbLine
 10
-1.79821295472
 20
14.5886575863
 30
0.0
 11
-1.97319694481
 21
14.8969457883
 31
0.0
  0
LINE
  5
73
330
2AC
100
AcDbEntity
  8
0
100
AcDbLine
 10
-1.97319694481
 20
14.8969457883
 30
0.0
 11
-2.19705389398
 21
15.2392734141
 31
0.0
  0
LINE
  5
74
330
2AC
100
AcDbEntity
  8
0
100
AcDbLine
 10
-2.19705389398
 20
15.2392734141
 30
0.0
 11
-2.47464450738
 21
15.6105296056
 31
0.0
  0
LINE
  5
75
330
2AC
100
AcDbEntity
  8
0
100
AcDbLine
 10
-2.47464450738
 20
15.6105296056
 30
0.0
 11
-2.81036876299
 21
16.0051344081
 31
0.0
  0
LINE
  5
76
330
2AC
100
AcDbEntity
  8
0
100
AcDbLine
 10
-5.57587825968
 20
12.5686945079
 30
0.0
 11
-5.58588052885
 21
12.59406363
 31
0.0
  0
LINE
  5
77
330
2AC
100
AcDbEntity
  8
0
100
AcDbLine
 10
-5.58588052885
 20
12.59406363
 30
0.0
 11
-5.61158038873
 21
12.6717270149
 31
0.0
  0
LINE
  5
78
330
2AC
100
AcDbEntity
  8
0
100
AcDbLine
 10
-5.61158038873
 20
12.6717270149
 30
0.0
 11
-5.64636582857
 21
12.8035562611
 31
0.0
  0
LINE
  5
79
330
2AC
100
AcDbEntity
  8
0
100
AcDbLine
 10
-5.64636582857
 20
12.8035562611
 30
0.0
 11
-5.68346452849
 21
12.9907940848
 31
0.0
  0
LINE
  5
7A
330
2AC
100
AcDbEntity
  8
0
100
AcDbLine
 10
-5.68346452849
 20
12.9907940848
 30
0.0
 11
-5.71599702552
 21
13.2340423909
 31
0.0
  0
LINE
  5
7B
330
2AC
100
AcDbEntity
  8
0
100
AcDbLine
 10
-5.71599702552
 20
13.2340423909
 30
0.0
 11
-5.73703069296
 21
13.5332545542
 31
0.0
  0
LINE
  5
7C
330
2AC
100
AcDbEntity
  8
0
100
AcDbLine
 10
-5.73703069296
 20
13.5332545542
 30
0.0
 11
-5.73963421327
 21
13.8877319639
 31
0.0
  0
LINE
  5
7D
330
2AC
100
AcDbEntity
  8
0
100
AcDbLine
 10
-5.73963421327
 20
13.8877319639
 30
0.0
 11
-5.71693222138
 21
14.2961248588
 31
0.0
  0
LINE
  5
7E
330
2AC
100
AcDbEntity
  8
0
100
AcDbLine
 10
-5.71693222138
 20
14.2961248588
 30
0.0
 11
-5.66215979405
 21
14.7564374586
 31
0.0
  0
LINE
  5
7F
330
2AC
100
AcDbEntity
  8
0
100
AcDbLine
 10
-5.66215979405
 20
14.7564374586
 30
0.0
 11
-5.56871646129
 21
15.2660373699
 31
0.0
  0
LINE
  5
80
330
2AC
100
AcDbEntity
  8
0
100
AcDbLine
 10
-2.81036876299
 20
16.0051344081
 30
0.0
 11
-5.56871646129
 21
15.2660373699
 31
0.0
  0
LINE
  5
81
330
2AC
100
AcDbEntity
  8
0
100
AcDbLine
 10
-5.57587825968
 20
12.5686945079
 30
0.0
 11
-5.4947745759
 21
12.3858771333
 31
0.0
  0
LINE
  5
82
330
2AC
100
AcDbEntity
  8
0
100
AcDbLine
 10
-5.4947745759
 20
12.3858771333
 30
0.0
 11
-7.9790969576
 21
10.9515529374
 31
0.0
  0
LINE
  5
83
330
2AC
100
AcDbEntity
  8
0
100
AcDbLine
 10
-8.09686960642
 20
11.1131994752
 30
0.0
 11
-7.9790969576
 21
10.9515529374
 31
0.0
  0
LINE
  5
84
330
2AC
100
AcDbEntity
  8
0
100
AcDbLine
 10
-8.09686960642
 20
11.1131994752
 30
0.0
 11
-8.11383877607
 21
11.1345462555
 31
0.0
  0
LINE
  5
85
330
2AC
100
AcDbEntity
  8
0
100
AcDbLine
 10
-8.11383877607
 20
11.1345462555
 30
0.0
 11
-8.16824731039
 21
11.1956346795
 31
0.0
  0
LINE
  5
86
330
2AC
100
AcDbEntity
  8
0
100
AcDbLine
 10
-8.16824731039
 20
11.1956346795
 30
0.0
 11
-8.26502206659
 21
11.2916743771
 31
0.0
  0
LINE
  5
87
330
2AC
100
AcDbEntity
  8
0
100
AcDbLine
 10
-8.26502206659
 20
11.2916743771
 30
0.0
 11
-8.40862542854
 21
11.4174217056
 31
0.0
  0
LINE
  5
88
330
2AC
100
AcDbEntity
  8
0
100
AcDbLine
 10
-8.40862542854
 20
11.4174217056
 30
0.0
 11
-8.60301839256
 21
11.5672198275
 31
0.0
  0
LINE
  5
89
330
2AC
100
AcDbEntity
  8
0
100
AcDbLine
 10
-8.60301839256
 20
11.5672198275
 30
0.0
 11
-8.85162689337
 21
11.7350415995
 31
0.0
  0
LINE
  5
8A
330
2AC
100
AcDbEntity
  8
0
100
AcDbLine
 10
-8.85162689337
 20
11.7350415995
 30
0.0
 11
-9.15731157502
 21
11.9145350191
 31
0.0
  0
LINE
  5
8B
330
2AC
100
AcDbEntity
  8
0
100
AcDbLine
 10
-9.15731157502
 20
11.9145350191
 30
0.0
 11
-9.52234119273
 21
12.0990709648
 31
0.0
  0
LINE
  5
8C
330
2AC
100
AcDbEntity
  8
0
100
AcDbLine
 10
-9.52234119273
 20
12.0990709648
 30
0.0
 11
-9.94836981151
 21
12.2817929512
 31
0.0
  0
LINE
  5
8D
330
2AC
100
AcDbEntity
  8
0
100
AcDbLine
 10
-9.94836981151
 20
12.2817929512
 30
0.0
 11
-10.4364179468
 21
12.4556686069
 31
0.0
  0
LINE
  5
8E
330
2AC
100
AcDbEntity
  8
0
100
AcDbLine
 10
-11.1131994752
 20
8.09686960642
 30
0.0
 11
-11.1345462555
 21
8.11383877607
 31
0.0
  0
LINE
  5
8F
330
2AC
100
AcDbEntity
  8
0
100
AcDbLine
 10
-11.1345462555
 20
8.11383877607
 30
0.0
 11
-11.1956346795
 21
8.16824731039
 31
0.0
  0
LINE
  5
90
330
2AC
100
AcDbEntity
  8
0
100
AcDbLine
 10
-11.1956346795
 20
8.16824731039
 30
0.0
 11
-11.2916743771
 21
8.26502206659
 31
0.0
  0
LINE
  5
91
330
2AC
100
AcDbEntity
  8
0
100
AcDbLine
 10
-11.2916743771
 20
8.26502206659
 30
0.0
 11
-11.4174217056
 21
8.40862542854
 31
0.0
  0
LINE
  5
92
330
2AC
100
AcDbEntity
  8
0
100
AcDbLine
 10
-11.4174217056
 20
8.40862542854
 30
0.0
 11
-11.5672198275
 21
8.60301839256
 31
0.0
  0
LINE
  5
93
330
2AC
100
AcDbEntity
  8
0
100
AcDbLine
 10
-11.5672198275
 20
8.60301839256
 30
0.0
 11
-11.7350415995
 21
8.85162689337
 31
0.0
  0
LINE
  5
94
330
2AC
100
AcDbEntity
  8
0
100
AcDbLine
 10
-11.7350415995
 20
8.85162689337
 30
0.0
 11
-11.9145350191
 21
9.15731157502
 31
0.0
  0
LINE
  5
95
330
2AC
100
AcDbEntity
  8
0
100
AcDbLine
 10
-11.9145350191
 20
9.15731157502
 30
0.0
 11
-12.0990709648
 21
9.52234119273
 31
0.0
  0
LINE
  5
96
330
2AC
100
AcDbEntity
  8
0
100
AcDbLine
 10
-12.0990709648
 20
9.52234119273
 30
0.0
 11
-12.2817929512
 21
9.94836981151
 31
0.0
  0
LINE
  5
97
330
2AC
100
AcDbEntity
  8
0
100
AcDbLine
 10
-12.2817929512
 20
9.94836981151
 30
0.0
 11
-12.4556686069
 21
10.4364179468
 31
0.0
  0
LINE
  5
98
330
2AC
100
AcDbEntity
  8
0
100
AcDbLine
 10
-10.4364179468
 20
12.4556686069
 30
0.0
 11
-12.4556686069
 21
10.4364179468
 31
0.0
  0
LINE
  5
99
330
2AC
100
AcDbEntity
  8
0
100
AcDbLine
 10
-11.1131994752
 20
8.09686960642
 30
0.0
 11
-10.9515529374
 21
7.9790969576
 31
0.0
  0
LINE
  5
9A
330
2AC
100
AcDbEntity
  8
0
100
AcDbLine
 10
-10.9515529374
 20
7.9790969576
 30
0.0
 11
-12.3858771333
 21
5.4947745759
 31
0.0
  0
LINE
  5
9B
330
2AC
100
AcDbEntity
  8
0
100
AcDbLine
 10
-12.5686945079
 20
5.57587825968
 30
0.0
 11
-12.3858771333
 21
5.4947745759
 31
0.0
  0
LINE
  5
9C
330
2AC
100
AcDbEntity
  8
0
100
AcDbLine
 10
-12.5686945079
 20
5.57587825968
 30
0.0
 11
-12.59406363
 21
5.58588052885
 31
0.0
  0
LINE
  5
9D
330
2AC
100
AcDbEntity
  8
0
100
AcDbLine
 10
-12.59406363
 20
5.58588052885
 30
0.0
 11
-12.6717270149
 21
5.61158038873
 31
0.0
  0
LINE
  5
9E
330
2AC
100
AcDbEntity
  8
0
100
AcDbLine
 10
-12.6717270149
 20
5.61158038873
 30
0.0
 11
-12.8035562611
 21
5.64636582857
 31
0.0
  0
LINE
  5
9F
330
2AC
100
AcDbEntity
  8
0
100
AcDbLine
 10
-12.8035562611
 20
5.64636582857
 30
0.0
 11
-12.9907940848
 21
5.68346452849
 31
0.0
  0
LINE
  5
A0
330
2AC
100
AcDbEntity
  8
0
100
AcDbLine
 10
-12.9907940848
 20
5.68346452849
 30
0.0
 11
-13.2340423909
 21
5.71599702552
 31
0.0
  0
LINE
  5
A1
330
2AC
100
AcDbEntity
  8
0
100
AcDbLine
 10
-13.2340423909
 20
5.71599702552
 30
0.0
 11
-13.5332545542
 21
5.73703069296
 31
0.0
  0
LINE
  5
A2
330
2AC
100
AcDbEntity
  8
0
100
AcDbLine
 10
-13.5332545542
 20
5.73703069296
 30
0.0
 11
-13.8877319639
 21
5.73963421327
 31
0.0
  0
LINE
  5
A3
330
2AC
100
AcDbEntity
  8
0
100
AcDbLine
 10
-13.8877319639
 20
5.73963421327
 30
0.0
 11
-14.2961248588
 21
5.71693222138
 31
0.0
  0
LINE
  5
A4
330
2AC
100
AcDbEntity
  8
0
100
AcDbLine
 10
-14.2961248588
 20
5.71693222138
 30
0.0
 11
-14.7564374586
 21
5.66215979405
 31
0.0
  0
LINE
  5
A5
330
2AC
100
AcDbEntity
  8
0
100
AcDbLine
 10
-14.7564374586
 20
5.66215979405
 30
0.0
 11
-15.2660373699
 21
5.56871646129
 31
0.0
  0
LINE
  5
BE
330
2AC
100
AcDbEntity
  8
0
100
AcDbLine
 10
-12.5686945079
 20
-5.57587825968
 30
0.0
 11
-12.59406363
 21
-5.58588052885
 31
0.0
  0
LINE
  5
BF
330
2AC
100
AcDbEntity
  8
0
100
AcDbLine
 10
-12.59406363
 20
-5.58588052885
 30
0.0
 11
-12.6717270149
 21
-5.61158038873
 31
0.0
  0
LINE
  5
C0
330
2AC
100
AcDbEntity
  8
0
100
AcDbLine
 10
-12.6717270149
 20
-5.61158038873
 30
0.0
 11
-12.8035562611
 21
-5.64636582857
 31
0.0
  0
LINE
  5
C1
330
2AC
100
AcDbEntity
  8
0
100
AcDbLine
 10
-12.8035562611
 20
-5.64636582857
 30
0.0
 11
-12.9907940848
 21
-5.68346452849
 31
0.0
  0
LINE
  5
C2
330
2AC
100
AcDbEntity
  8
0
100
AcDbLine
 10
-12.9907940848
 20
-5.68346452849
 30
0.0
 11
-13.2340423909
 21
-5.71599702552
 31
0.0
  0
LINE
  5
C3
330
2AC
100
AcDbEntity
  8
0
100
AcDbLine
 10
-13.2340423909
 20
-5.71599702552
 30
0.0
 11
-13.5332545542
 21
-5.73703069296
 31
0.0
  0
LINE
  5
C4
330
2AC
100
AcDbEntity
  8
0
100
AcDbLine
 10
-13.5332545542
 20
-5.73703069296
 30
0.0
 11
-13.8877319639
 21
-5.73963421327
 31
0.0
  0
LINE
  5
C5
330
2AC
100
AcDbEntity
  8
0
100
AcDbLine
 10
-13.8877319639
 20
-5.73963421327
 30
0.0
 11
-14.2961248588
 21
-5.71693222138
 31
0.0
  0
LINE
  5
C6
330
2AC
100
AcDbEntity
  8
0
100
AcDbLine
 10
-14.2961248588
 20
-5.71693222138
 30
0.0
 11
-14.7564374586
 21
-5.66215979405
 31
0.0
  0
LINE
  5
C7
330
2AC
100
AcDbEntity
  8
0
100
AcDbLine
 10
-14.7564374586
 20
-5.66215979405
 30
0.0
 11
-15.2660373699
 21
-5.56871646129
 31
0.0
  0
LINE
  5
C9
330
2AC
100
AcDbEntity
  8
0
100
AcDbLine
 10
-12.5686945079
 20
-5.57587825968
 30
0.0
 11
-12.3858771333
 21
-5.4947745759
 31
0.0
  0
LINE
  5
CA
330
2AC
100
AcDbEntity
  8
0
100
AcDbLine
 10
-12.3858771333
 20
-5.4947745759
 30
0.0
 11
-10.9515529374
 21
-7.9790969576
 31
0.0
  0
LINE
  5
CB
330
2AC
100
AcDbEntity
  8
0
100
AcDbLine
 10
-11.1131994752
 20
-8.09686960642
 30
0.0
 11
-10.9515529374
 21
-7.9790969576
 31
0.0
  0
LINE
  5
CC
330
2AC
100
AcDbEntity
  8
0
100
AcDbLine
 10
-11.1131994752
 20
-8.09686960642
 30
0.0
 11
-11.1345462555
 21
-8.11383877607
 31
0.0
  0
LINE
  5
CD
330
2AC
100
AcDbEntity
  8
0
100
AcDbLine
 10
-11.1345462555
 20
-8.11383877607
 30
0.0
 11
-11.1956346795
 21
-8.16824731039
 31
0.0
  0
LINE
  5
CE
330
2AC
100
AcDbEntity
  8
0
100
AcDbLine
 10
-11.1956346795
 20
-8.16824731039
 30
0.0
 11
-11.2916743771
 21
-8.26502206659
 31
0.0
  0
LINE
  5
CF
330
2AC
100
AcDbEntity
  8
0
100
AcDbLine
 10
-11.2916743771
 20
-8.26502206659
 30
0.0
 11
-11.4174217056
 21
-8.40862542854
 31
0.0
  0
LINE
  5
D0
330
2AC
100
AcDbEntity
  8
0
100
AcDbLine
 10
-11.4174217056
 20
-8.40862542854
 30
0.0
 11
-11.5672198275
 21
-8.60301839256
 31
0.0
  0
LINE
  5
D1
330
2AC
100
AcDbEntity
  8
0
100
AcDbLine
 10
-11.5672198275
 20
-8.60301839256
 30
0.0
 11
-11.7350415995
 21
-8.85162689337
 31
0.0
  0
LINE
  5
D2
330
2AC
100
AcDbEntity
  8
0
100
AcDbLine
 10
-11.7350415995
 20
-8.85162689337
 30
0.0
 11
-11.9145350191
 21
-9.15731157502
 31
0.0
  0
LINE
  5
D3
330
2AC
100
AcDbEntity
  8
0
100
AcDbLine
 10
-11.9145350191
 20
-9.15731157502
 30
0.0
 11
-12.0990709648
 21
-9.52234119273
 31
0.0
  0
LINE
  5
D4
330
2AC
100
AcDbEntity
  8
0
100
AcDbLine
 10
-12.0990709648
 20
-9.52234119273
 30
0.0
 11
-12.2817929512
 21
-9.94836981151
 31
0.0
  0
LINE
  5
D5
330
2AC
100
AcDbEntity
  8
0
100
AcDbLine
 10
-12.2817929512
 20
-9.94836981151
 30
0.0
 11
-12.4556686069
 21
-10.4364179468
 31
0.0
  0
LINE
  5
D6
330
2AC
100
AcDbEntity
  8
0
100
AcDbLine
 10
-8.09686960642
 20
-11.1131994752
 30
0.0
 11
-8.11383877607
 21
-11.1345462555
 31
0.0
  0
LINE
  5
D7
330
2AC
100
AcDbEntity
  8
0
100
AcDbLine
 10
-8.11383877607
 20
-11.1345462555
 30
0.0
 11
-8.16824731039
 21
-11.1956346795
 31
0.0
  0
LINE
  5
D8
330
2AC
100
AcDbEntity
  8
0
100
AcDbLine
 10
-8.16824731039
 20
-11.1956346795
 30
0.0
 11
-8.26502206659
 21
-11.2916743771
 31
0.0
  0
LINE
  5
D9
330
2AC
100
AcDbEntity
  8
0
100
AcDbLine
 10
-8.26502206659
 20
-11.2916743771
 30
0.0
 11
-8.40862542854
 21
-11.4174217056
 31
0.0
  0
LINE
  5
DA
330
2AC
100
AcDbEntity
  8
0
100
AcDbLine
 10
-8.40862542854
 20
-11.4174217056
 30
0.0
 11
-8.60301839256
 21
-11.5672198275
 31
0.0
  0
LINE
  5
DB
330
2AC
100
AcDbEntity
  8
0
100
AcDbLine
 10
-8.60301839256
 20
-11.5672198275
 30
0.0
 11
-8.85162689337
 21
-11.7350415995
 31
0.0
  0
LINE
  5
DC
330
2AC
100
AcDbEntity
  8
0
100
AcDbLine
 10
-8.85162689337
 20
-11.7350415995
 30
0.0
 11
-9.15731157502
 21
-11.9145350191
 31
0.0
  0
LINE
  5
DD
330
2AC
100
AcDbEntity
  8
0
100
AcDbLine
 10
-9.15731157502
 20
-11.9145350191
 30
0.0
 11
-9.52234119273
 21
-12.0990709648
 31
0.0
  0
LINE
  5
DE
330
2AC
100
AcDbEntity
  8
0
100
AcDbLine
 10
-9.52234119273
 20
-12.0990709648
 30
0.0
 11
-9.94836981151
 21
-12.2817929512
 31
0.0
  0
LINE
  5
DF
330
2AC
100
AcDbEntity
  8
0
100
AcDbLine
 10
-9.94836981151
 20
-12.2817929512
 30
0.0
 11
-10.4364179468
 21
-12.4556686069
 31
0.0
  0
LINE
  5
E0
330
2AC
100
AcDbEntity
  8
0
100
AcDbLine
 10
-12.4556686069
 20
-10.4364179468
 30
0.0
 11
-10.4364179468
 21
-12.4556686069
 31
0.0
  0
LINE
  5
E1
330
2AC
100
AcDbEntity
  8
0
100
AcDbLine
 10
-8.09686960642
 20
-11.1131994752
 30
0.0
 11
-7.9790969576
 21
-10.9515529374
 31
0.0
  0
LINE
  5
E2
330
2AC
100
AcDbEntity
  8
0
100
AcDbLine
 10
-7.9790969576
 20
-10.9515529374
 30
0.0
 11
-5.4947745759
 21
-12.3858771333
 31
0.0
  0
LINE
  5
E3
330
2AC
100
AcDbEntity
  8
0
100
AcDbLine
 10
-5.57587825968
 20
-12.5686945079
 30
0.0
 11
-5.4947745759
 21
-12.3858771333
 31
0.0
  0
LINE
  5
E4
330
2AC
100
AcDbEntity
  8
0
100
AcDbLine
 10
-5.57587825968
 20
-12.5686945079
 30
0.0
 11
-5.58588052885
 21
-12.59406363
 31
0.0
  0
LINE
  5
E5
330
2AC
100
AcDbEntity
  8
0
100
AcDbLine
 10
-5.58588052885
 20
-12.59406363
 30
0.0
 11
-5.61158038873
 21
-12.6717270149
 31
0.0
  0
LINE
  5
E6
330
2AC
100
AcDbEntity
  8
0
100
AcDbLine
 10
-5.61158038873
 20
-12.6717270149
 30
0.0
 11
-5.64636582857
 21
-12.8035562611
 31
0.0
  0
LINE
  5
E7
330
2AC
100
AcDbEntity
  8
0
100
AcDbLine
 10
-5.64636582857
 20
-12.8035562611
 30
0.0
 11
-5.68346452849
 21
-12.9907940848
 31
0.0
  0
LINE
  5
E8
330
2AC
100
AcDbEntity
  8
0
100
AcDbLine
 10
-5.68346452849
 20
-12.9907940848
 30
0.0
 11
-5.71599702552
 21
-13.2340423909
 31
0.0
  0
LINE
  5
E9
330
2AC
100
AcDbEntity
  8
0
100
AcDbLine
 10
-5.71599702552
 20
-13.2340423909
 30
0.0
 11
-5.73703069296
 21
-13.5332545542
 31
0.0
  0
LINE
  5
EA
330
2AC
100
AcDbEntity
  8
0
100
AcDbLine
 10
-5.73703069296
 20
-13.5332545542
 30
0.0
 11
-5.73963421327
 21
-13.8877319639
 31
0.0
  0
LINE
  5
EB
330
2AC
100
AcDbEntity
  8
0
100
AcDbLine
 10
-5.73963421327
 20
-13.8877319639
 30
0.0
 11
-5.71693222138
 21
-14.2961248588
 31
0.0
  0
LINE
  5
EC
330
2AC
100
AcDbEntity
  8
0
100
AcDbLine
 10
-5.71693222138
 20
-14.2961248588
 30
0.0
 11
-5.66215979405
 21
-14.7564374586
 31
0.0
  0
LINE
  5
ED
330
2AC
100
AcDbEntity
  8
0
100
AcDbLine
 10
-5.66215979405
 20
-14.7564374586
 30
0.0
 11
-5.56871646129
 21
-15.2660373699
 31
0.0
  0
LINE
  5
EE
330
2AC
100
AcDbEntity
  8
0
100
AcDbLine
 10
-1.45549503266
 20
-13.6727478661
 30
0.0
 11
-1.45951737453
 21
-13.6997193049
 31
0.0
  0
LINE
  5
EF
330
2AC
100
AcDbEntity
  8
0
100
AcDbLine
 10
-1.45951737453
 20
-13.6997193049
 30
0.0
 11
-1.47609233545
 21
-13.7798276991
 31
0.0
  0
LINE
  5
F0
330
2AC
100
AcDbEntity
  8
0
100
AcDbLine
 10
-1.47609233545
 20
-13.7798276991
 30
0.0
 11
-1.51188188394
 21
-13.9113878952
 31
0.0
  0
LINE
  5
F1
330
2AC
100
AcDbEntity
  8
0
100
AcDbLine
 10
-1.51188188394
 20
-13.9113878952
 30
0.0
 11
-1.57337237923
 21
-14.092089957
 31
0.0
  0
LINE
  5
F2
330
2AC
100
AcDbEntity
  8
0
100
AcDbLine
 10
-1.57337237923
 20
-14.092089957
 30
0.0
 11
-1.66682256342
 21
-14.3190154181
 31
0.0
  0
LINE
  5
F3
330
2AC
100
AcDbEntity
  8
0
100
AcDbLine
 10
-1.66682256342
 20
-14.3190154181
 30
0.0
 11
-1.79821295472
 21
-14.5886575863
 31
0.0
  0
LINE
  5
F4
330
2AC
100
AcDbEntity
  8
0
100
AcDbLine
 10
-1.79821295472
 20
-14.5886575863
 30
0.0
 11
-1.97319694481
 21
-14.8969457883
 31
0.0
  0
LINE
  5
F5
330
2AC
100
AcDbEntity
  8
0
100
AcDbLine
 10
-1.97319694481
 20
-14.8969457883
 30
0.0
 11
-2.19705389398
 21
-15.2392734141
 31
0.0
  0
LINE
  5
F6
330
2AC
100
AcDbEntity
  8
0
100
AcDbLine
 10
-2.19705389398
 20
-15.2392734141
 30
0.0
 11
-2.47464450738
 21
-15.6105296056
 31
0.0
  0
LINE
  5
F7
330
2AC
100
AcDbEntity
  8
0
100
AcDbLine
 10
-2.47464450738
 20
-15.6105296056
 30
0.0
 11
-2.81036876299
 21
-16.0051344081
 31
0.0
  0
LINE
  5
F8
330
2AC
100
AcDbEntity
  8
0
100
AcDbLine
 10
-5.56871646129
 20
-15.2660373699
 30
0.0
 11
-2.81036876299
 21
-16.0051344081
 31
0.0
  0
LINE
  5
F9
330
2AC
100
AcDbEntity
  8
0
100
AcDbLine
 10
-1.45549503266
 20
-13.6727478661
 30
0.0
 11
-1.43432419582
 21
-13.4738715335
 31
0.0
  0
LINE
  5
FA
330
2AC
100
AcDbEntity
  8
0
100
AcDbLine
 10
-1.43432419582
 20
-13.4738715335
 30
0.0
 11
1.43432419582
 21
-13.4738715335
 31
0.0
  0
LINE
  5
FB
330
2AC
100
AcDbEntity
  8
0
100
AcDbLine
 10
1.45549503266
 20
-13.6727478661
 30
0.0
 11
1.43432419582
 21
-13.4738715335
 31
0.0
  0
LINE
  5
FC
330
2AC
100
AcDbEntity
  8
0
100
AcDbLine
 10
1.45549503266
 20
-13.6727478661
 30
0.0
 11
1.45951737453
 21
-13.6997193049
 31
0.0
  0
LINE
  5
FD
330
2AC
100
AcDbEntity
  8
0
100
AcDbLine
 10
1.45951737453
 20
-13.6997193049
 30
0.0
 11
1.47609233545
 21
-13.7798276991
 31
0.0
  0
LINE
  5
FE
330
2AC
100
AcDbEntity
  8
0
100
AcDbLine
 10
1.47609233545
 20
-13.7798276991
 30
0.0
 11
1.51188188394
 21
-13.9113878952
 31
0.0
  0
LINE
  5
FF
330
2AC
100
AcDbEntity
  8
0
100
AcDbLine
 10
1.51188188394
 20
-13.9113878952
 30
0.0
 11
1.57337237923
 21
-14.092089957
 31
0.0
  0
LINE
  5
100
330
2AC
100
AcDbEntity
  8
0
100
AcDbLine
 10
1.57337237923
 20
-14.092089957
 30
0.0
 11
1.66682256342
 21
-14.3190154181
 31
0.0
  0
LINE
  5
101
330
2AC
100
AcDbEntity
  8
0
100
AcDbLine
 10
1.66682256342
 20
-14.3190154181
 30
0.0
 11
1.79821295472
 21
-14.5886575863
 31
0.0
  0
LINE
  5
102
330
2AC
100
AcDbEntity
  8
0
100
AcDbLine
 10
1.79821295472
 20
-14.5886575863
 30
0.0
 11
1.97319694481
 21
-14.8969457883
 31
0.0
  0
LINE
  5
103
330
2AC
100
AcDbEntity
  8
0
100
AcDbLine
 10
1.97319694481
 20
-14.8969457883
 30
0.0
 11
2.19705389398
 21
-15.2392734141
 31
0.0
  0
LINE
  5
104
330
2AC
100
AcDbEntity
  8
0
100
AcDbLine
 10
2.19705389398
 20
-15.2392734141
 30
0.0
 11
2.47464450738
 21
-15.6105296056
 31
0.0
  0
LINE
  5
105
330
2AC
100
AcDbEntity
  8
0
100
AcDbLine
 10
2.47464450738
 20
-15.6105296056
 30
0.0
 11
2.81036876299
 21
-16.0051344081
 31
0.0
  0
LINE
  5
106
330
2AC
100
AcDbEntity
  8
0
100
AcDbLine
 10
5.57587825968
 20
-12.5686945079
 30
0.0
 11
5.58588052885
 21
-12.59406363
 31
0.0
  0
LINE
  5
107
330
2AC
100
AcDbEntity
  8
0
100
AcDbLine
 10
5.58588052885
 20
-12.59406363
 30
0.0
 11
5.61158038873
 21
-12.6717270149
 31
0.0
  0
LINE
  5
108
330
2AC
100
AcDbEntity
  8
0
100
AcDbLine
 10
5.61158038873
 20
-12.6717270149
 30
0.0
 11
5.64636582857
 21
-12.8035562611
 31
0.0
  0
LINE
  5
109
330
2AC
100
AcDbEntity
  8
0
100
AcDbLine
 10
5.64636582857
 20
-12.8035562611
 30
0.0
 11
5.68346452849
 21
-12.9907940848
 31
0.0
  0
LINE
  5
10A
330
2AC
100
AcDbEntity
  8
0
100
AcDbLine
 10
5.68346452849
 20
-12.9907940848
 30
0.0
 11
5.71599702552
 21
-13.2340423909
 31
0.0
  0
LINE
  5
10B
330
2AC
100
AcDbEntity
  8
0
100
AcDbLine
 10
5.71599702552
 20
-13.2340423909
 30
0.0
 11
5.73703069296
 21
-13.5332545542
 31
0.0
  0
LINE
  5
10C
330
2AC
100
AcDbEntity
  8
0
100
AcDbLine
 10
5.73703069296
 20
-13.5332545542
 30
0.0
 11
5.73963421327
 21
-13.8877319639
 31
0.0
  0
LINE
  5
10D
330
2AC
100
AcDbEntity
  8
0
100
AcDbLine
 10
5.73963421327
 20
-13.8877319639
 30
0.0
 11
5.71693222138
 21
-14.2961248588
 31
0.0
  0
LINE
  5
10E
330
2AC
100
AcDbEntity
  8
0
100
AcDbLine
 10
5.71693222138
 20
-14.2961248588
 30
0.0
 11
5.66215979405
 21
-14.7564374586
 31
0.0
  0
LINE
  5
10F
330
2AC
100
AcDbEntity
  8
0
100
AcDbLine
 10
5.66215979405
 20
-14.7564374586
 30
0.0
 11
5.56871646129
 21
-15.2660373699
 31
0.0
  0
LINE
  5
110
330
2AC
100
AcDbEntity
  8
0
100
AcDbLine
 10
2.81036876299
 20
-16.0051344081
 30
0.0
 11
5.56871646129
 21
-15.2660373699
 31
0.0
  0
LINE
  5
111
330
2AC
100
AcDbEntity
  8
0
100
AcDbLine
 10
5.57587825968
 20
-12.5686945079
 30
0.0
 11
5.4947745759
 21
-12.3858771333
 31
0.0
  0
LINE
  5
112
330
2AC
100
AcDbEntity
  8
0
100
AcDbLine
 10
5.4947745759
 20
-12.3858771333
 30
0.0
 11
7.9790969576
 21
-10.9515529374
 31
0.0
  0
LINE
  5
113
330
2AC
100
AcDbEntity
  8
0
100
AcDbLine
 10
8.09686960642
 20
-11.1131994752
 30
0.0
 11
7.9790969576
 21
-10.9515529374
 31
0.0
  0
LINE
  5
114
330
2AC
100
AcDbEntity
  8
0
100
AcDbLine
 10
8.09686960642
 20
-11.1131994752
 30
0.0
 11
8.11383877607
 21
-11.1345462555
 31
0.0
  0
LINE
  5
115
330
2AC
100
AcDbEntity
  8
0
100
AcDbLine
 10
8.11383877607
 20
-11.1345462555
 30
0.0
 11
8.16824731039
 21
-11.1956346795
 31
0.0
  0
LINE
  5
116
330
2AC
100
AcDbEntity
  8
0
100
AcDbLine
 10
8.16824731039
 20
-11.1956346795
 30
0.0
 11
8.26502206659
 21
-11.2916743771
 31
0.0
  0
LINE
  5
117
330
2AC
100
AcDbEntity
  8
0
100
AcDbLine
 10
8.26502206659
 20
-11.2916743771
 30
0.0
 11
8.40862542854
 21
-11.4174217056
 31
0.0
  0
LINE
  5
118
330
2AC
100
AcDbEntity
  8
0
100
AcDbLine
 10
8.40862542854
 20
-11.4174217056
 30
0.0
 11
8.60301839256
 21
-11.5672198275
 31
0.0
  0
LINE
  5
119
330
2AC
100
AcDbEntity
  8
0
100
AcDbLine
 10
8.60301839256
 20
-11.5672198275
 30
0.0
 11
8.85162689337
 21
-11.7350415995
 31
0.0
  0
LINE
  5
11A
330
2AC
100
AcDbEntity
  8
0
100
AcDbLine
 10
8.85162689337
 20
-11.7350415995
 30
0.0
 11
9.15731157502
 21
-11.9145350191
 31
0.0
  0
LINE
  5
11B
330
2AC
100
AcDbEntity
  8
0
100
AcDbLine
 10
9.15731157502
 20
-11.9145350191
 30
0.0
 11
9.52234119273
 21
-12.0990709648
 31
0.0
  0
LINE
  5
11C
330
2AC
100
AcDbEntity
  8
0
100
AcDbLine
 10
9.52234119273
 20
-12.0990709648
 30
0.0
 11
9.94836981151
 21
-12.2817929512
 31
0.0
  0
LINE
  5
11D
330
2AC
100
AcDbEntity
  8
0
100
AcDbLine
 10
9.94836981151
 20
-12.2817929512
 30
0.0
 11
10.4364179468
 21
-12.4556686069
 31
0.0
  0
LINE
  5
11E
330
2AC
100
AcDbEntity
  8
0
100
AcDbLine
 10
11.1131994752
 20
-8.09686960642
 30
0.0
 11
11.1345462555
 21
-8.11383877607
 31
0.0
  0
LINE
  5
11F
330
2AC
100
AcDbEntity
  8
0
100
AcDbLine
 10
11.1345462555
 20
-8.11383877607
 30
0.0
 11
11.1956346795
 21
-8.16824731039
 31
0.0
  0
LINE
  5
120
330
2AC
100
AcDbEntity
  8
0
100
AcDbLine
 10
11.1956346795
 20
-8.16824731039
 30
0.0
 11
11.2916743771
 21
-8.26502206659
 31
0.0
  0
LINE
  5
121
330
2AC
100
AcDbEntity
  8
0
100
AcDbLine
 10
11.2916743771
 20
-8.26502206659
 30
0.0
 11
11.4174217056
 21
-8.40862542854
 31
0.0
  0
LINE
  5
122
330
2AC
100
AcDbEntity
  8
0
100
AcDbLine
 10
11.4174217056
 20
-8.40862542854
 30
0.0
 11
11.5672198275
 21
-8.60301839256
 31
0.0
  0
LINE
  5
123
330
2AC
100
AcDbEntity
  8
0
100
AcDbLine
 10
11.5672198275
 20
-8.60301839256
 30
0.0
 11
11.7350415995
 21
-8.85162689337
 31
0.0
  0
LINE
  5
124
330
2AC
100
AcDbEntity
  8
0
100
AcDbLine
 10
11.7350415995
 20
-8.85162689337
 30
0.0
 11
11.9145350191
 21
-9.15731157502
 31
0.0
  0
LINE
  5
125
330
2AC
100
AcDbEntity
  8
0
100
AcDbLine
 10
11.9145350191
 20
-9.15731157502
 30
0.0
 11
12.0990709648
 21
-9.52234119273
 31
0.0
  0
LINE
  5
126
330
2AC
100
AcDbEntity
  8
0
100
AcDbLine
 10
12.0990709648
 20
-9.52234119273
 30
0.0
 11
12.2817929512
 21
-9.94836981151
 31
0.0
  0
LINE
  5
127
330
2AC
100
AcDbEntity
  8
0
100
AcDbLine
 10
12.2817929512
 20
-9.94836981151
 30
0.0
 11
12.4556686069
 21
-10.4364179468
 31
0.0
  0
LINE
  5
128
330
2AC
100
AcDbEntity
  8
0
100
AcDbLine
 10
10.4364179468
 20
-12.4556686069
 30
0.0
 11
12.4556686069
 21
-10.4364179468
 31
0.0
  0
LINE
  5
129
330
2AC
100
AcDbEntity
  8
0
100
AcDbLine
 10
11.1131994752
 20
-8.09686960642
 30
0.0
 11
10.9515529374
 21
-7.9790969576
 31
0.0
  0
LINE
  5
12A
330
2AC
100
AcDbEntity
  8
0
100
AcDbLine
 10
10.9515529374
 20
-7.9790969576
 30
0.0
 11
12.3858771333
 21
-5.4947745759
 31
0.0
  0
LINE
  5
12B
330
2AC
100
AcDbEntity
  8
0
100
AcDbLine
 10
12.5686945079
 20
-5.57587825968
 30
0.0
 11
12.3858771333
 21
-5.4947745759
 31
0.0
  0
LINE
  5
12C
330
2AC
100
AcDbEntity
  8
0
100
AcDbLine
 10
12.5686945079
 20
-5.57587825968
 30
0.0
 11
12.59406363
 21
-5.58588052885
 31
0.0
  0
LINE
  5
12D
330
2AC
100
AcDbEntity
  8
0
100
AcDbLine
 10
12.59406363
 20
-5.58588052885
 30
0.0
 11
12.6717270149
 21
-5.61158038873
 31
0.0
  0
LINE
  5
12E
330
2AC
100
AcDbEntity
  8
0
100
AcDbLine
 10
12.6717270149
 20
-5.61158038873
 30
0.0
 11
12.8035562611
 21
-5.64636582857
 31
0.0
  0
LINE
  5
12F
330
2AC
100
AcDbEntity
  8
0
100
AcDbLine
 10
12.8035562611
 20
-5.64636582857
 30
0.0
 11
12.9907940848
 21
-5.68346452849
 31
0.0
  0
LINE
  5
130
330
2AC
100
AcDbEntity
  8
0
100
AcDbLine
 10
12.9907940848
 20
-5.68346452849
 30
0.0
 11
13.2340423909
 21
-5.71599702552
 31
0.0
  0
LINE
  5
131
330
2AC
100
AcDbEntity
  8
0
100
AcDbLine
 10
13.2340423909
 20
-5.71599702552
 30
0.0
 11
13.5332545542
 21
-5.73703069296
 31
0.0
  0
LINE
  5
132
330
2AC
100
AcDbEntity
  8
0
100
AcDbLine
 10
13.5332545542
 20
-5.73703069296
 30
0.0
 11
13.8877319639
 21
-5.73963421327
 31
0.0
  0
LINE
  5
133
330
2AC
100
AcDbEntity
  8
0
100
AcDbLine
 10
13.8877319639
 20
-5.73963421327
 30
0.0
 11
14.2961248588
 21
-5.71693222138
 31
0.0
  0
LINE
  5
134
330
2AC
100
AcDbEntity
  8
0
100
AcDbLine
 10
14.2961248588
 20
-5.71693222138
 30
0.0
 11
14.7564374586
 21
-5.66215979405
 31
0.0
  0
LINE
  5
135
330
2AC
100
AcDbEntity
  8
0
100
AcDbLine
 10
14.7564374586
 20
-5.66215979405
 30
0.0
 11
15.2660373699
 21
-5.56871646129
 31
0.0
  0
LINE
  5
136
330
2AC
100
AcDbEntity
  8
0
100
AcDbLine
 10
13.6727478661
 20
-1.45549503266
 30
0.0
 11
13.6997193049
 21
-1.45951737453
 31
0.0
  0
LINE
  5
137
330
2AC
100
AcDbEntity
  8
0
100
AcDbLine
 10
13.6997193049
 20
-1.45951737453
 30
0.0
 11
13.7798276991
 21
-1.47609233545
 31
0.0
  0
LINE
  5
138
330
2AC
100
AcDbEntity
  8
0
100
AcDbLine
 10
13.7798276991
 20
-1.47609233545
 30
0.0
 11
13.9113878952
 21
-1.51188188394
 31
0.0
  0
LINE
  5
139
330
2AC
100
AcDbEntity
  8
0
100
AcDbLine
 10
13.9113878952
 20
-1.51188188394
 30
0.0
 11
14.092089957
 21
-1.57337237923
 31
0.0
  0
LINE
  5
13A
330
2AC
100
AcDbEntity
  8
0
100
AcDbLine
 10
14.092089957
 20
-1.57337237923
 30
0.0
 11
14.3190154181
 21
-1.66682256342
 31
0.0
  0
LINE
  5
13B
330
2AC
100
AcDbEntity
  8
0
100
AcDbLine
 10
14.3190154181
 20
-1.66682256342
 30
0.0
 11
14.5886575863
 21
-1.79821295472
 31
0.0
  0
LINE
  5
13C
330
2AC
100
AcDbEntity
  8
0
100
AcDbLine
 10
14.5886575863
 20
-1.79821295472
 30
0.0
 11
14.8969457883
 21
-1.97319694481
 31
0.0
  0
LINE
  5
13D
330
2AC
100
AcDbEntity
  8
0
100
AcDbLine
 10
14.8969457883
 20
-1.97319694481
 30
0.0
 11
15.2392734141
 21
-2.19705389398
 31
0.0
  0
LINE
  5
13E
330
2AC
100
AcDbEntity
  8
0
100
AcDbLine
 10
15.2392734141
 20
-2.19705389398
 30
0.0
 11
15.6105296056
 21
-2.47464450738
 31
0.0
  0
LINE
  5
13F
330
2AC
100
AcDbEntity
  8
0
100
AcDbLine
 10
15.6105296056
 20
-2.47464450738
 30
0.0
 11
16.0051344081
 21
-2.81036876299
 31
0.0
  0
LINE
  5
140
330
2AC
100
AcDbEntity
  8
0
100
AcDbLine
 10
15.2660373699
 20
-5.56871646129
 30
0.0
 11
16.0051344081
 21
-2.81036876299
 31
0.0
  0
LINE
  5
14E
330
2AC
100
AcDbEntity
  8
0
100
AcDbLine
 10
60.6972831411399
 20
8.638902325988632
 30
0.0
 11
60.71919905361113
 21
8.65512978805844
 31
0.0
  0
LINE
  5
14F
330
2AC
100
AcDbEntity
  8
0
100
AcDbLine
 10
60.71919905361113
 20
8.65512978805844
 30
0.0
 11
60.78756450964966
 21
8.70005470956779
 31
0.0
  0
LINE
  5
150
330
2AC
100
AcDbEntity
  8
0
100
AcDbLine
 10
60.78756450964966
 20
8.70005470956779
 30
0.0
 11
60.9058986488916
 21
8.767774783906138
 31
0.0
  0
LINE
  5
151
330
2AC
100
AcDbEntity
  8
0
100
AcDbLine
 10
60.9058986488916
 20
8.767774783906138
 30
0.0
 11
61.07715464837375
 21
8.852070091017724
 31
0.0
  0
LINE
  5
152
330
2AC
100
AcDbEntity
  8
0
100
AcDbLine
 10
61.07715464837375
 20
8.852070091017724
 30
0.0
 11
61.30369443962071
 21
8.94645136440028
 31
0.0
  0
LINE
  5
153
330
2AC
100
AcDbEntity
  8
0
100
AcDbLine
 10
61.30369443962071
 20
8.94645136440028
 30
0.0
 11
61.58726728197017
 21
9.04421013339052
 31
0.0
  0
LINE
  5
154
330
2AC
100
AcDbEntity
  8
0
100
AcDbLine
 10
61.58726728197017
 20
9.04421013339052
 30
0.0
 11
61.92899232619492
 21
9.138470445586186
 31
0.0
  0
LINE
  5
155
330
2AC
100
AcDbEntity
  8
0
100
AcDbLine
 10
61.92899232619492
 20
9.138470445586186
 30
0.0
 11
62.32934527851467
 21
9.222241864396098
 31
0.0
  0
LINE
  5
156
330
2AC
100
AcDbEntity
  8
0
100
AcDbLine
 10
62.32934527851467
 20
9.222241864396098
 30
0.0
 11
62.78814925416726
 21
9.288473429798408
 31
0.0
  0
LINE
  5
157
330
2AC
100
AcDbEntity
  8
0
100
AcDbLine
 10
62.78814925416726
 20
9.288473429798408
 30
0.0
 11
63.30456988372269
 21
9.330108263818
 31
0.0
  0
LINE
  5
158
330
2AC
100
AcDbEntity
  8
0
100
AcDbLine
 10
64.73239571838857
 20
6.857041373810032
 30
0.0
 11
63.30456988372269
 21
9.330108263818
 31
0.0
  0
LINE
  5
159
330
2AC
100
AcDbEntity
  8
0
100
AcDbLine
 10
60.6972831411399
 20
8.638902325988632
 30
0.0
 11
60.54168629550963
 21
8.513245564896225
 31
0.0
  0
LINE
  5
15A
330
2AC
100
AcDbEntity
  8
0
100
AcDbLine
 10
60.54168629550963
 20
8.513245564896225
 30
0.0
 11
58.51324556486011
 21
10.54168629545795
 31
0.0
  0
LINE
  5
15B
330
2AC
100
AcDbEntity
  8
0
100
AcDbLine
 10
58.63890232594455
 20
10.69728314114118
 30
0.0
 11
58.51324556486011
 21
10.54168629545795
 31
0.0
  0
LINE
  5
15C
330
2AC
100
AcDbEntity
  8
0
100
AcDbLine
 10
58.63890232594455
 20
10.69728314114118
 30
0.0
 11
58.65512978805945
 21
10.71919905365005
 31
0.0
  0
LINE
  5
15D
330
2AC
100
AcDbEntity
  8
0
100
AcDbLine
 10
58.65512978805945
 20
10.71919905365005
 30
0.0
 11
58.70005470959021
 21
10.78756450968678
 31
0.0
  0
LINE
  5
15E
330
2AC
100
AcDbEntity
  8
0
100
AcDbLine
 10
58.70005470959021
 20
10.78756450968678
 30
0.0
 11
58.76777478386133
 21
10.90589864885795
 31
0.0
  0
LINE
  5
15F
330
2AC
100
AcDbEntity
  8
0
100
AcDbLine
 10
58.76777478386133
 20
10.90589864885795
 30
0.0
 11
58.85207009103293
 21
11.07715464839396
 31
0.0
  0
LINE
  5
160
330
2AC
100
AcDbEntity
  8
0
100
AcDbLine
 10
58.85207009103293
 20
11.07715464839396
 30
0.0
 11
58.94645136438343
 21
11.30369443965806
 31
0.0
  0
LINE
  5
161
330
2AC
100
AcDbEntity
  8
0
100
AcDbLine
 10
58.94645136438343
 20
11.30369443965806
 30
0.0
 11
59.04421013338781
 21
11.5872672820019
 31
0.0
  0
LINE
  5
162
330
2AC
100
AcDbEntity
  8
0
100
AcDbLine
 10
59.04421013338781
 20
11.5872672820019
 30
0.0
 11
59.13847044562127
 21
11.92899232617165
 31
0.0
  0
LINE
  5
163
330
2AC
100
AcDbEntity
  8
0
100
AcDbLine
 10
59.13847044562127
 20
11.92899232617165
 30
0.0
 11
59.22224186436173
 21
12.32934527853133
 31
0.0
  0
LINE
  5
164
330
2AC
100
AcDbEntity
  8
0
100
AcDbLine
 10
59.22224186436173
 20
12.32934527853133
 30
0.0
 11
59.28847342975736
 21
12.78814925418847
 31
0.0
  0
LINE
  5
165
330
2AC
100
AcDbEntity
  8
0
100
AcDbLine
 10
59.28847342975736
 20
12.78814925418847
 30
0.0
 11
59.3301082638211
 21
13.30456988371215
 31
0.0
  0
LINE
  5
166
330
2AC
100
AcDbEntity
  8
0
100
AcDbLine
 10
54.94466778873098
 20
12.83015044565105
 30
0.0
 11
54.95553379465333
 21
12.85516179633593
 31
0.0
  0
LINE
  5
167
330
2AC
100
AcDbEntity
  8
0
100
AcDbLine
 10
54.95553379465333
 20
12.85516179633593
 30
0.0
 11
54.99227755555707
 21
12.92825064766296
 31
0.0
  0
LINE
  5
168
330
2AC
100
AcDbEntity
  8
0
100
AcDbLine
 10
54.99227755555707
 20
12.92825064766296
 30
0.0
 11
55.0608978890787
 21
13.0460650219135
 31
0.0
  0
LINE
  5
169
330
2AC
100
AcDbEntity
  8
0
100
AcDbLine
 10
55.0608978890787
 20
13.0460650219135
 30
0.0
 11
55.16706228164158
 21
13.20469489911192
 31
0.0
  0
LINE
  5
16A
330
2AC
100
AcDbEntity
  8
0
100
AcDbLine
 10
55.16706228164158
 20
13.20469489911192
 30
0.0
 11
55.31606085916908
 21
13.39970137510703
 31
0.0
  0
LINE
  5
16B
330
2AC
100
AcDbEntity
  8
0
100
AcDbLine
 10
55.31606085916908
 20
13.39970137510703
 30
0.0
 11
55.51276275996
 21
13.62614937367944
 31
0.0
  0
LINE
  5
16C
330
2AC
100
AcDbEntity
  8
0
100
AcDbLine
 10
55.51276275996
 20
13.62614937367944
 30
0.0
 11
55.76157517320364
 21
13.87864372072715
 31
0.0
  0
LINE
  5
16D
330
2AC
100
AcDbEntity
  8
0
100
AcDbLine
 10
55.76157517320364
 20
13.87864372072715
 30
0.0
 11
56.06640529105698
 21
14.15136837364729
 31
0.0
  0
LINE
  5
16E
330
2AC
100
AcDbEntity
  8
0
100
AcDbLine
 10
56.06640529105698
 20
14.15136837364729
 30
0.0
 11
56.43062540663556
 21
14.43812857964087
 31
0.0
  0
LINE
  5
16F
330
2AC
100
AcDbEntity
  8
0
100
AcDbLine
 10
56.43062540663556
 20
14.43812857964087
 30
0.0
 11
56.85704137380955
 21
14.73239571838428
 31
0.0
  0
LINE
  5
170
330
2AC
100
AcDbEntity
  8
0
100
AcDbLine
 10
59.3301082638211
 20
13.30456988371215
 30
0.0
 11
56.85704137380955
 21
14.73239571838428
 31
0.0
  0
LINE
  5
171
330
2AC
100
AcDbEntity
  8
0
100
AcDbLine
 10
54.94466778873098
 20
12.83015044565105
 30
0.0
 11
54.87274534816279
 21
12.64353007555303
 31
0.0
  0
LINE
  5
172
330
2AC
100
AcDbEntity
  8
0
100
AcDbLine
 10
54.87274534816279
 20
12.64353007555303
 30
0.0
 11
52.10184378010052
 21
13.38599091308572
 31
0.0
  0
LINE
  5
173
330
2AC
100
AcDbEntity
  8
0
100
AcDbLine
 10
52.13286730454868
 20
13.58357011469647
 30
0.0
 11
52.10184378010052
 21
13.38599091308572
 31
0.0
  0
LINE
  5
174
330
2AC
100
AcDbEntity
  8
0
100
AcDbLine
 10
52.13286730454868
 20
13.58357011469647
 30
0.0
 11
52.13596274270446
 21
13.61066358267857
 31
0.0
  0
LINE
  5
175
330
2AC
100
AcDbEntity
  8
0
100
AcDbLine
 10
52.13596274270446
 20
13.61066358267857
 30
0.0
 11
52.14068613797532
 21
13.69233226510392
 31
0.0
  0
LINE
  5
176
330
2AC
100
AcDbEntity
  8
0
100
AcDbLine
 10
52.14068613797532
 20
13.69233226510392
 30
0.0
 11
52.14016637307753
 21
13.82867267299158
 31
0.0
  0
LINE
  5
177
330
2AC
100
AcDbEntity
  8
0
100
AcDbLine
 10
52.14016637307753
 20
13.82867267299158
 30
0.0
 11
52.1275402507149
 21
14.01913237264941
 31
0.0
  0
LINE
  5
178
330
2AC
100
AcDbEntity
  8
0
100
AcDbLine
 10
52.1275402507149
 20
14.01913237264941
 30
0.0
 11
52.09600693548224
 21
14.26251222352857
 31
0.0
  0
LINE
  5
179
330
2AC
100
AcDbEntity
  8
0
100
AcDbLine
 10
52.09600693548224
 20
14.26251222352857
 30
0.0
 11
52.03888209169575
 21
14.55697289332169
 31
0.0
  0
LINE
  5
17A
330
2AC
100
AcDbEntity
  8
0
100
AcDbLine
 10
52.03888209169575
 20
14.55697289332169
 30
0.0
 11
51.94965139451348
 21
14.90004561882751
 31
0.0
  0
LINE
  5
17B
330
2AC
100
AcDbEntity
  8
0
100
AcDbLine
 10
51.94965139451348
 20
14.90004561882751
 30
0.0
 11
51.82202309515405
 21
15.28864715542148
 31
0.0
  0
LINE
  5
17C
330
2AC
100
AcDbEntity
  8
0
100
AcDbLine
 10
51.82202309515405
 20
15.28864715542148
 30
0.0
 11
51.64997932549856
 21
15.71909883639507
 31
0.0
  0
LINE
  5
17D
330
2AC
100
AcDbEntity
  8
0
100
AcDbLine
 10
51.64997932549856
 20
15.71909883639507
 30
0.0
 11
51.42782583466417
 21
16.18714963763822
 31
0.0
  0
LINE
  5
17E
330
2AC
100
AcDbEntity
  8
0
100
AcDbLine
 10
47.86713269545021
 20
13.58357011470926
 30
0.0
 11
47.86403725730936
 21
13.61066358270023
 31
0.0
  0
LINE
  5
17F
330
2AC
100
AcDbEntity
  8
0
100
AcDbLine
 10
47.86403725730936
 20
13.61066358270023
 30
0.0
 11
47.85931386204017
 21
13.69233226511848
 31
0.0
  0
LINE
  5
180
330
2AC
100
AcDbEntity
  8
0
100
AcDbLine
 10
47.85931386204017
 20
13.69233226511848
 30
0.0
 11
47.85983362690978
 21
13.82867267300795
 31
0.0
  0
LINE
  5
181
330
2AC
100
AcDbEntity
  8
0
100
AcDbLine
 10
47.85983362690978
 20
13.82867267300795
 30
0.0
 11
47.87245974929857
 21
14.0191323726381
 31
0.0
  0
LINE
  5
182
330
2AC
100
AcDbEntity
  8
0
100
AcDbLine
 10
47.87245974929857
 20
14.0191323726381
 30
0.0
 11
47.90399306452781
 21
14.26251222359385
 31
0.0
  0
LINE
  5
183
330
2AC
100
AcDbEntity
  8
0
100
AcDbLine
 10
47.90399306452781
 20
14.26251222359385
 30
0.0
 11
47.96111790831781
 21
14.55697289332672
 31
0.0
  0
LINE
  5
184
330
2AC
100
AcDbEntity
  8
0
100
AcDbLine
 10
47.96111790831781
 20
14.55697289332672
 30
0.0
 11
48.05034860547484
 21
14.90004561880207
 31
0.0
  0
LINE
  5
185
330
2AC
100
AcDbEntity
  8
0
100
AcDbLine
 10
48.05034860547484
 20
14.90004561880207
 30
0.0
 11
48.17797690485065
 21
15.28864715543825
 31
0.0
  0
LINE
  5
186
330
2AC
100
AcDbEntity
  8
0
100
AcDbLine
 10
48.17797690485065
 20
15.28864715543825
 30
0.0
 11
48.3500206744967
 21
15.71909883646743
 31
0.0
  0
LINE
  5
187
330
2AC
100
AcDbEntity
  8
0
100
AcDbLine
 10
48.3500206744967
 20
15.71909883646743
 30
0.0
 11
48.57217416532616
 21
16.18714963763462
 31
0.0
  0
LINE
  5
188
330
2AC
100
AcDbEntity
  8
0
100
AcDbLine
 10
51.42782583466417
 20
16.18714963763822
 30
0.0
 11
48.57217416532616
 21
16.18714963763462
 31
0.0
  0
LINE
  5
189
330
2AC
100
AcDbEntity
  8
0
100
AcDbLine
 10
47.86713269545021
 20
13.58357011470926
 30
0.0
 11
47.89815621987933
 21
13.38599091303832
 31
0.0
  0
LINE
  5
18A
330
2AC
100
AcDbEntity
  8
0
100
AcDbLine
 10
47.89815621987933
 20
13.38599091303832
 30
0.0
 11
45.12725465185166
 21
12.64353007557917
 31
0.0
  0
LINE
  5
18B
330
2AC
100
AcDbEntity
  8
0
100
AcDbLine
 10
45.05533221128672
 20
12.83015044570021
 30
0.0
 11
45.12725465185166
 21
12.64353007557917
 31
0.0
  0
LINE
  5
18C
330
2AC
100
AcDbEntity
  8
0
100
AcDbLine
 10
45.05533221128672
 20
12.83015044570021
 30
0.0
 11
45.04446620535707
 21
12.85516179632744
 31
0.0
  0
LINE
  5
18D
330
2AC
100
AcDbEntity
  8
0
100
AcDbLine
 10
45.04446620535707
 20
12.85516179632744
 30
0.0
 11
45.00772244444317
 21
12.92825064762984
 31
0.0
  0
LINE
  5
18E
330
2AC
100
AcDbEntity
  8
0
100
AcDbLine
 10
45.00772244444317
 20
12.92825064762984
 30
0.0
 11
44.93910211091735
 21
13.04606502198965
 31
0.0
  0
LINE
  5
18F
330
2AC
100
AcDbEntity
  8
0
100
AcDbLine
 10
44.93910211091735
 20
13.04606502198965
 30
0.0
 11
44.8329377183623
 21
13.20469489907212
 31
0.0
  0
LINE
  5
190
330
2AC
100
AcDbEntity
  8
0
100
AcDbLine
 10
44.8329377183623
 20
13.20469489907212
 30
0.0
 11
44.68393914083036
 21
13.39970137515445
 31
0.0
  0
LINE
  5
191
330
2AC
100
AcDbEntity
  8
0
100
AcDbLine
 10
44.68393914083036
 20
13.39970137515445
 30
0.0
 11
44.48723724005457
 21
13.6261493736635
 31
0.0
  0
LINE
  5
192
330
2AC
100
AcDbEntity
  8
0
100
AcDbLine
 10
44.48723724005457
 20
13.6261493736635
 30
0.0
 11
44.23842482678151
 21
13.8786437206922
 31
0.0
  0
LINE
  5
193
330
2AC
100
AcDbEntity
  8
0
100
AcDbLine
 10
44.23842482678151
 20
13.8786437206922
 30
0.0
 11
43.93359470896216
 21
14.15136837368089
 31
0.0
  0
LINE
  5
194
330
2AC
100
AcDbEntity
  8
0
100
AcDbLine
 10
43.93359470896216
 20
14.15136837368089
 30
0.0
 11
43.56937459337125
 21
14.43812857973085
 31
0.0
  0
LINE
  5
195
330
2AC
100
AcDbEntity
  8
0
100
AcDbLine
 10
43.56937459337125
 20
14.43812857973085
 30
0.0
 11
43.14295862618995
 21
14.73239571838856
 31
0.0
  0
LINE
  5
196
330
2AC
100
AcDbEntity
  8
0
100
AcDbLine
 10
41.36109767401138
 20
10.6972831411399
 30
0.0
 11
41.34487021194156
 21
10.71919905361113
 31
0.0
  0
LINE
  5
197
330
2AC
100
AcDbEntity
  8
0
100
AcDbLine
 10
41.34487021194156
 20
10.71919905361113
 30
0.0
 11
41.29994529043221
 21
10.78756450964966
 31
0.0
  0
LINE
  5
198
330
2AC
100
AcDbEntity
  8
0
100
AcDbLine
 10
41.29994529043221
 20
10.78756450964966
 30
0.0
 11
41.23222521609387
 21
10.9058986488916
 31
0.0
  0
LINE
  5
199
330
2AC
100
AcDbEntity
  8
0
100
AcDbLine
 10
41.23222521609387
 20
10.9058986488916
 30
0.0
 11
41.14792990898228
 21
11.07715464837375
 31
0.0
  0
LINE
  5
19A
330
2AC
100
AcDbEntity
  8
0
100
AcDbLine
 10
41.14792990898228
 20
11.07715464837375
 30
0.0
 11
41.05354863559973
 21
11.3036944396207
 31
0.0
  0
LINE
  5
19B
330
2AC
100
AcDbEntity
  8
0
100
AcDbLine
 10
41.05354863559973
 20
11.3036944396207
 30
0.0
 11
40.95578986660949
 21
11.58726728197017
 31
0.0
  0
LINE
  5
19C
330
2AC
100
AcDbEntity
  8
0
100
AcDbLine
 10
40.95578986660949
 20
11.58726728197017
 30
0.0
 11
40.86152955441381
 21
11.92899232619491
 31
0.0
  0
LINE
  5
19D
330
2AC
100
AcDbEntity
  8
0
100
AcDbLine
 10
40.86152955441381
 20
11.92899232619491
 30
0.0
 11
40.7777581356039
 21
12.32934527851468
 31
0.0
  0
LINE
  5
19E
330
2AC
100
AcDbEntity
  8
0
100
AcDbLine
 10
40.7777581356039
 20
12.32934527851468
 30
0.0
 11
40.7115265702016
 21
12.78814925416726
 31
0.0
  0
LINE
  5
19F
330
2AC
100
AcDbEntity
  8
0
100
AcDbLine
 10
40.7115265702016
 20
12.78814925416726
 30
0.0
 11
40.66989173618201
 21
13.30456988372269
 31
0.0
  0
LINE
  5
1A0
330
2AC
100
AcDbEntity
  8
0
100
AcDbLine
 10
43.14295862618995
 20
14.73239571838856
 30
0.0
 11
40.66989173618201
 21
13.30456988372269
 31
0.0
  0
LINE
  5
1A1
330
2AC
100
AcDbEntity
  8
0
100
AcDbLine
 10
41.36109767401138
 20
10.6972831411399
 30
0.0
 11
41.48675443510377
 21
10.54168629550963
 31
0.0
  0
LINE
  5
1A2
330
2AC
100
AcDbEntity
  8
0
100
AcDbLine
 10
41.48675443510377
 20
10.54168629550963
 30
0.0
 11
39.45831370454206
 21
8.513245564860108
 31
0.0
  0
LINE
  5
1A3
330
2AC
100
AcDbEntity
  8
0
100
AcDbLine
 10
39.30271685885882
 20
8.638902325944555
 30
0.0
 11
39.45831370454206
 21
8.513245564860108
 31
0.0
  0
LINE
  5
1A4
330
2AC
100
AcDbEntity
  8
0
100
AcDbLine
 10
39.30271685885882
 20
8.638902325944555
 30
0.0
 11
39.28080094634995
 21
8.655129788059448
 31
0.0
  0
LINE
  5
1A5
330
2AC
100
AcDbEntity
  8
0
100
AcDbLine
 10
39.28080094634995
 20
8.655129788059448
 30
0.0
 11
39.21243549031323
 21
8.700054709590214
 31
0.0
  0
LINE
  5
1A6
330
2AC
100
AcDbEntity
  8
0
100
AcDbLine
 10
39.21243549031323
 20
8.700054709590214
 30
0.0
 11
39.09410135114204
 21
8.767774783861329
 31
0.0
  0
LINE
  5
1A7
330
2AC
100
AcDbEntity
  8
0
100
AcDbLine
 10
39.09410135114204
 20
8.767774783861329
 30
0.0
 11
38.92284535160604
 21
8.852070091032925
 31
0.0
  0
LINE
  5
1A8
330
2AC
100
AcDbEntity
  8
0
100
AcDbLine
 10
38.92284535160604
 20
8.852070091032925
 30
0.0
 11
38.69630556034193
 21
8.94645136438343
 31
0.0
  0
LINE
  5
1A9
330
2AC
100
AcDbEntity
  8
0
100
AcDbLine
 10
38.69630556034193
 20
8.94645136438343
 30
0.0
 11
38.4127327179981
 21
9.04421013338781
 31
0.0
  0
LINE
  5
1AA
330
2AC
100
AcDbEntity
  8
0
100
AcDbLine
 10
38.4127327179981
 20
9.04421013338781
 30
0.0
 11
38.07100767382835
 21
9.138470445621271
 31
0.0
  0
LINE
  5
1AB
330
2AC
100
AcDbEntity
  8
0
100
AcDbLine
 10
38.07100767382835
 20
9.138470445621271
 30
0.0
 11
37.67065472146868
 21
9.222241864361736
 31
0.0
  0
LINE
  5
1AC
330
2AC
100
AcDbEntity
  8
0
100
AcDbLine
 10
37.67065472146868
 20
9.222241864361736
 30
0.0
 11
37.21185074581152
 21
9.288473429757351
 31
0.0
  0
LINE
  5
1AD
330
2AC
100
AcDbEntity
  8
0
100
AcDbLine
 10
37.21185074581152
 20
9.288473429757351
 30
0.0
 11
36.69543011628785
 21
9.330108263821106
 31
0.0
  0
LINE
  5
1AE
330
2AC
100
AcDbEntity
  8
0
100
AcDbLine
 10
37.16984955434896
 20
4.944667788730984
 30
0.0
 11
37.14483820366407
 21
4.95553379465334
 31
0.0
  0
LINE
  5
1AF
330
2AC
100
AcDbEntity
  8
0
100
AcDbLine
 10
37.14483820366407
 20
4.95553379465334
 30
0.0
 11
37.07174935233704
 21
4.992277555557067
 31
0.0
  0
LINE
  5
1B0
330
2AC
100
AcDbEntity
  8
0
100
AcDbLine
 10
37.07174935233704
 20
4.992277555557067
 30
0.0
 11
36.95393497808649
 21
5.060897889078707
 31
0.0
  0
LINE
  5
1B1
330
2AC
100
AcDbEntity
  8
0
100
AcDbLine
 10
36.95393497808649
 20
5.060897889078707
 30
0.0
 11
36.79530510088808
 21
5.167062281641585
 31
0.0
  0
LINE
  5
1B2
330
2AC
100
AcDbEntity
  8
0
100
AcDbLine
 10
36.79530510088808
 20
5.167062281641585
 30
0.0
 11
36.60029862489297
 21
5.316060859169072
 31
0.0
  0
LINE
  5
1B3
330
2AC
100
AcDbEntity
  8
0
100
AcDbLine
 10
36.60029862489297
 20
5.316060859169072
 30
0.0
 11
36.37385062632056
 21
5.512762759960006
 31
0.0
  0
LINE
  5
1B4
330
2AC
100
AcDbEntity
  8
0
100
AcDbLine
 10
36.37385062632056
 20
5.512762759960006
 30
0.0
 11
36.12135627927285
 21
5.761575173203636
 31
0.0
  0
LINE
  5
1B5
330
2AC
100
AcDbEntity
  8
0
100
AcDbLine
 10
36.12135627927285
 20
5.761575173203636
 30
0.0
 11
35.84863162635271
 21
6.066405291056985
 31
0.0
  0
LINE
  5
1B6
330
2AC
100
AcDbEntity
  8
0
100
AcDbLine
 10
35.84863162635271
 20
6.066405291056985
 30
0.0
 11
35.56187142035913
 21
6.430625406635565
 31
0.0
  0
LINE
  5
1B7
330
2AC
100
AcDbEntity
  8
0
100
AcDbLine
 10
35.56187142035913
 20
6.430625406635565
 30
0.0
 11
35.26760428161572
 21
6.857041373809549
 31
0.0
  0
LINE
  5
1B8
330
2AC
100
AcDbEntity
  8
0
100
AcDbLine
 10
36.69543011628785
 20
9.330108263821106
 30
0.0
 11
35.26760428161572
 21
6.857041373809549
 31
0.0
  0
LINE
  5
1B9
330
2AC
100
AcDbEntity
  8
0
100
AcDbLine
 10
37.16984955434896
 20
4.944667788730984
 30
0.0
 11
37.35646992444697
 21
4.872745348162795
 31
0.0
  0
LINE
  5
1BA
330
2AC
100
AcDbEntity
  8
0
100
AcDbLine
 10
37.35646992444697
 20
4.872745348162795
 30
0.0
 11
36.61400908691427
 21
2.101843780100517
 31
0.0
  0
LINE
  5
1BB
330
2AC
100
AcDbEntity
  8
0
100
AcDbLine
 10
36.41642988530354
 20
2.132867304548686
 30
0.0
 11
36.61400908691427
 21
2.101843780100517
 31
0.0
  0
LINE
  5
1BC
330
2AC
100
AcDbEntity
  8
0
100
AcDbLine
 10
36.41642988530354
 20
2.132867304548686
 30
0.0
 11
36.38933641732142
 21
2.135962742704468
 31
0.0
  0
LINE
  5
1BD
330
2AC
100
AcDbEntity
  8
0
100
AcDbLine
 10
36.38933641732142
 20
2.135962742704468
 30
0.0
 11
36.30766773489608
 21
2.140686137975321
 31
0.0
  0
LINE
  5
1BE
330
2AC
100
AcDbEntity
  8
0
100
AcDbLine
 10
36.30766773489608
 20
2.140686137975321
 30
0.0
 11
36.17132732700842
 21
2.140166373077534
 31
0.0
  0
LINE
  5
1BF
330
2AC
100
AcDbEntity
  8
0
100
AcDbLine
 10
36.17132732700842
 20
2.140166373077534
 30
0.0
 11
35.98086762735059
 21
2.127540250714901
 31
0.0
  0
LINE
  5
1C0
330
2AC
100
AcDbEntity
  8
0
100
AcDbLine
 10
35.98086762735059
 20
2.127540250714901
 30
0.0
 11
35.73748777647143
 21
2.096006935482246
 31
0.0
  0
LINE
  5
1C1
330
2AC
100
AcDbEntity
  8
0
100
AcDbLine
 10
35.73748777647143
 20
2.096006935482246
 30
0.0
 11
35.44302710667831
 21
2.038882091695754
 31
0.0
  0
LINE
  5
1C2
330
2AC
100
AcDbEntity
  8
0
100
AcDbLine
 10
35.44302710667831
 20
2.038882091695754
 30
0.0
 11
35.09995438117249
 21
1.949651394513479
 31
0.0
  0
LINE
  5
1C3
330
2AC
100
AcDbEntity
  8
0
100
AcDbLine
 10
35.09995438117249
 20
1.949651394513479
 30
0.0
 11
34.71135284457851
 21
1.822023095154051
 31
0.0
  0
LINE
  5
1C4
330
2AC
100
AcDbEntity
  8
0
100
AcDbLine
 10
34.71135284457851
 20
1.822023095154051
 30
0.0
 11
34.28090116360492
 21
1.649979325498569
 31
0.0
  0
LINE
  5
1C5
330
2AC
100
AcDbEntity
  8
0
100
AcDbLine
 10
34.28090116360492
 20
1.649979325498569
 30
0.0
 11
33.81285036236179
 21
1.427825834664168
 31
0.0
  0
LINE
  5
1C6
330
2AC
100
AcDbEntity
  8
0
100
AcDbLine
 10
36.41642988529074
 20
-2.132867304549777
 30
0.0
 11
36.38933641729977
 21
-2.135962742690634
 31
0.0
  0
LINE
  5
1C7
330
2AC
100
AcDbEntity
  8
0
100
AcDbLine
 10
36.38933641729977
 20
-2.135962742690634
 30
0.0
 11
36.30766773488153
 21
-2.140686137959833
 31
0.0
  0
LINE
  5
1C8
330
2AC
100
AcDbEntity
  8
0
100
AcDbLine
 10
36.30766773488153
 20
-2.140686137959833
 30
0.0
 11
36.17132732699204
 21
-2.140166373090207
 31
0.0
  0
LINE
  5
1C9
330
2AC
100
AcDbEntity
  8
0
100
AcDbLine
 10
36.17132732699204
 20
-2.140166373090207
 30
0.0
 11
35.9808676273619
 21
-2.127540250701435
 31
0.0
  0
LINE
  5
1CA
330
2AC
100
AcDbEntity
  8
0
100
AcDbLine
 10
35.9808676273619
 20
-2.127540250701435
 30
0.0
 11
35.73748777640615
 21
-2.096006935472198
 31
0.0
  0
LINE
  5
1CB
330
2AC
100
AcDbEntity
  8
0
100
AcDbLine
 10
35.73748777640615
 20
-2.096006935472198
 30
0.0
 11
35.44302710667327
 21
-2.038882091682192
 31
0.0
  0
LINE
  5
1CC
330
2AC
100
AcDbEntity
  8
0
100
AcDbLine
 10
35.44302710667327
 20
-2.038882091682192
 30
0.0
 11
35.09995438119793
 21
-1.949651394525148
 31
0.0
  0
LINE
  5
1CD
330
2AC
100
AcDbEntity
  8
0
100
AcDbLine
 10
35.09995438119793
 20
-1.949651394525148
 30
0.0
 11
34.71135284456175
 21
-1.822023095149352
 31
0.0
  0
LINE
  5
1CE
330
2AC
100
AcDbEntity
  8
0
100
AcDbLine
 10
34.71135284456175
 20
-1.822023095149352
 30
0.0
 11
34.28090116353257
 21
-1.649979325503295
 31
0.0
  0
LINE
  5
1CF
330
2AC
100
AcDbEntity
  8
0
100
AcDbLine
 10
34.28090116353257
 20
-1.649979325503295
 30
0.0
 11
33.81285036236538
 21
-1.427825834673851
 31
0.0
  0
LINE
  5
1D0
330
2AC
100
AcDbEntity
  8
0
100
AcDbLine
 10
33.81285036236179
 20
1.427825834664168
 30
0.0
 11
33.81285036236538
 21
-1.427825834673851
 31
0.0
  0
LINE
  5
1D1
330
2AC
100
AcDbEntity
  8
0
100
AcDbLine
 10
36.41642988529074
 20
-2.132867304549777
 30
0.0
 11
36.61400908696168
 21
-2.101843780120669
 31
0.0
  0
LINE
  5
1D2
330
2AC
100
AcDbEntity
  8
0
100
AcDbLine
 10
36.61400908696168
 20
-2.101843780120669
 30
0.0
 11
37.35646992442083
 21
-4.872745348148341
 31
0.0
  0
LINE
  5
1D3
330
2AC
100
AcDbEntity
  8
0
100
AcDbLine
 10
37.16984955429979
 20
-4.944667788713277
 30
0.0
 11
37.35646992442083
 21
-4.872745348148341
 31
0.0
  0
LINE
  5
1D4
330
2AC
100
AcDbEntity
  8
0
100
AcDbLine
 10
37.16984955429979
 20
-4.944667788713277
 30
0.0
 11
37.14483820367256
 21
-4.955533794642936
 31
0.0
  0
LINE
  5
1D5
330
2AC
100
AcDbEntity
  8
0
100
AcDbLine
 10
37.14483820367256
 20
-4.955533794642936
 30
0.0
 11
37.07174935237016
 21
-4.992277555556815
 31
0.0
  0
LINE
  5
1D6
330
2AC
100
AcDbEntity
  8
0
100
AcDbLine
 10
37.07174935237016
 20
-4.992277555556815
 30
0.0
 11
36.95393497801035
 21
-5.060897889082653
 31
0.0
  0
LINE
  5
1D7
330
2AC
100
AcDbEntity
  8
0
100
AcDbLine
 10
36.95393497801035
 20
-5.060897889082653
 30
0.0
 11
36.79530510092788
 21
-5.167062281637685
 31
0.0
  0
LINE
  5
1D8
330
2AC
100
AcDbEntity
  8
0
100
AcDbLine
 10
36.79530510092788
 20
-5.167062281637685
 30
0.0
 11
36.60029862484554
 21
-5.316060859169626
 31
0.0
  0
LINE
  5
1D9
330
2AC
100
AcDbEntity
  8
0
100
AcDbLine
 10
36.60029862484554
 20
-5.316060859169626
 30
0.0
 11
36.3738506263365
 21
-5.512762759945427
 31
0.0
  0
LINE
  5
1DA
330
2AC
100
AcDbEntity
  8
0
100
AcDbLine
 10
36.3738506263365
 20
-5.512762759945427
 30
0.0
 11
36.1213562793078
 21
-5.761575173218495
 31
0.0
  0
LINE
  5
1DB
330
2AC
100
AcDbEntity
  8
0
100
AcDbLine
 10
36.1213562793078
 20
-5.761575173218495
 30
0.0
 11
35.8486316263191
 21
-6.066405291037828
 31
0.0
  0
LINE
  5
1DC
330
2AC
100
AcDbEntity
  8
0
100
AcDbLine
 10
35.8486316263191
 20
-6.066405291037828
 30
0.0
 11
35.56187142026914
 21
-6.430625406628749
 31
0.0
  0
LINE
  5
1DD
330
2AC
100
AcDbEntity
  8
0
100
AcDbLine
 10
35.56187142026914
 20
-6.430625406628749
 30
0.0
 11
35.26760428161143
 21
-6.857041373810027
 31
0.0
  0
LINE
  5
1DE
330
2AC
100
AcDbEntity
  8
0
100
AcDbLine
 10
39.3027168588601
 20
-8.63890232598863
 30
0.0
 11
39.28080094638887
 21
-8.655129788058437
 31
0.0
  0
LINE
  5
1DF
330
2AC
100
AcDbEntity
  8
0
100
AcDbLine
 10
39.28080094638887
 20
-8.655129788058437
 30
0.0
 11
39.21243549035034
 21
-8.700054709567784
 31
0.0
  0
LINE
  5
1E0
330
2AC
100
AcDbEntity
  8
0
100
AcDbLine
 10
39.21243549035034
 20
-8.700054709567784
 30
0.0
 11
39.0941013511084
 21
-8.767774783906134
 31
0.0
  0
LINE
  5
1E1
330
2AC
100
AcDbEntity
  8
0
100
AcDbLine
 10
39.0941013511084
 20
-8.767774783906134
 30
0.0
 11
38.92284535162625
 21
-8.852070091017724
 31
0.0
  0
LINE
  5
1E2
330
2AC
100
AcDbEntity
  8
0
100
AcDbLine
 10
38.92284535162625
 20
-8.852070091017724
 30
0.0
 11
38.69630556037929
 21
-8.946451364400279
 31
0.0
  0
LINE
  5
1E3
330
2AC
100
AcDbEntity
  8
0
100
AcDbLine
 10
38.69630556037929
 20
-8.946451364400279
 30
0.0
 11
38.41273271802983
 21
-9.044210133390516
 31
0.0
  0
LINE
  5
1E4
330
2AC
100
AcDbEntity
  8
0
100
AcDbLine
 10
38.41273271802983
 20
-9.044210133390516
 30
0.0
 11
38.07100767380508
 21
-9.138470445586183
 31
0.0
  0
LINE
  5
1E5
330
2AC
100
AcDbEntity
  8
0
100
AcDbLine
 10
38.07100767380508
 20
-9.138470445586183
 30
0.0
 11
37.67065472148532
 21
-9.222241864396095
 31
0.0
  0
LINE
  5
1E6
330
2AC
100
AcDbEntity
  8
0
100
AcDbLine
 10
37.67065472148532
 20
-9.222241864396095
 30
0.0
 11
37.21185074583273
 21
-9.288473429798405
 31
0.0
  0
LINE
  5
1E7
330
2AC
100
AcDbEntity
  8
0
100
AcDbLine
 10
37.21185074583273
 20
-9.288473429798405
 30
0.0
 11
36.69543011627731
 21
-9.330108263817992
 31
0.0
  0
LINE
  5
1E8
330
2AC
100
AcDbEntity
  8
0
100
AcDbLine
 10
35.26760428161143
 20
-6.857041373810027
 30
0.0
 11
36.69543011627731
 21
-9.330108263817992
 31
0.0
  0
LINE
  5
1E9
330
2AC
100
AcDbEntity
  8
0
100
AcDbLine
 10
39.3027168588601
 20
-8.63890232598863
 30
0.0
 11
39.45831370449037
 21
-8.513245564896224
 31
0.0
  0
LINE
  5
1EA
330
2AC
100
AcDbEntity
  8
0
100
AcDbLine
 10
39.45831370449037
 20
-8.513245564896224
 30
0.0
 11
41.48675443513989
 21
-10.54168629545795
 31
0.0
  0
LINE
  5
1EB
330
2AC
100
AcDbEntity
  8
0
100
AcDbLine
 10
41.36109767405544
 20
-10.69728314114118
 30
0.0
 11
41.48675443513989
 21
-10.54168629545795
 31
0.0
  0
LINE
  5
1EC
330
2AC
100
AcDbEntity
  8
0
100
AcDbLine
 10
41.36109767405544
 20
-10.69728314114118
 30
0.0
 11
41.34487021194055
 21
-10.71919905365005
 31
0.0
  0
LINE
  5
1ED
330
2AC
100
AcDbEntity
  8
0
100
AcDbLine
 10
41.34487021194055
 20
-10.71919905365005
 30
0.0
 11
41.29994529040978
 21
-10.78756450968678
 31
0.0
  0
LINE
  5
1EE
330
2AC
100
AcDbEntity
  8
0
100
AcDbLine
 10
41.29994529040978
 20
-10.78756450968678
 30
0.0
 11
41.23222521613866
 21
-10.90589864885795
 31
0.0
  0
LINE
  5
1EF
330
2AC
100
AcDbEntity
  8
0
100
AcDbLine
 10
41.23222521613866
 20
-10.90589864885795
 30
0.0
 11
41.14792990896707
 21
-11.07715464839395
 31
0.0
  0
LINE
  5
1F0
330
2AC
100
AcDbEntity
  8
0
100
AcDbLine
 10
41.14792990896707
 20
-11.07715464839395
 30
0.0
 11
41.05354863561657
 21
-11.30369443965806
 31
0.0
  0
LINE
  5
1F1
330
2AC
100
AcDbEntity
  8
0
100
AcDbLine
 10
41.05354863561657
 20
-11.30369443965806
 30
0.0
 11
40.95578986661219
 21
-11.5872672820019
 31
0.0
  0
LINE
  5
1F2
330
2AC
100
AcDbEntity
  8
0
100
AcDbLine
 10
40.95578986661219
 20
-11.5872672820019
 30
0.0
 11
40.86152955437873
 21
-11.92899232617165
 31
0.0
  0
LINE
  5
1F3
330
2AC
100
AcDbEntity
  8
0
100
AcDbLine
 10
40.86152955437873
 20
-11.92899232617165
 30
0.0
 11
40.77775813563827
 21
-12.32934527853133
 31
0.0
  0
LINE
  5
1F4
330
2AC
100
AcDbEntity
  8
0
100
AcDbLine
 10
40.77775813563827
 20
-12.32934527853133
 30
0.0
 11
40.71152657024264
 21
-12.78814925418847
 31
0.0
  0
LINE
  5
1F5
330
2AC
100
AcDbEntity
  8
0
100
AcDbLine
 10
40.71152657024264
 20
-12.78814925418847
 30
0.0
 11
40.66989173617889
 21
-13.30456988371215
 31
0.0
  0
LINE
  5
1F6
330
2AC
100
AcDbEntity
  8
0
100
AcDbLine
 10
45.05533221126902
 20
-12.83015044565105
 30
0.0
 11
45.04446620534666
 21
-12.85516179633593
 31
0.0
  0
LINE
  5
1F7
330
2AC
100
AcDbEntity
  8
0
100
AcDbLine
 10
45.04446620534666
 20
-12.85516179633593
 30
0.0
 11
45.00772244444293
 21
-12.92825064766296
 31
0.0
  0
LINE
  5
1F8
330
2AC
100
AcDbEntity
  8
0
100
AcDbLine
 10
45.00772244444293
 20
-12.92825064766296
 30
0.0
 11
44.93910211092129
 21
-13.0460650219135
 31
0.0
  0
LINE
  5
1F9
330
2AC
100
AcDbEntity
  8
0
100
AcDbLine
 10
44.93910211092129
 20
-13.0460650219135
 30
0.0
 11
44.83293771835841
 21
-13.20469489911192
 31
0.0
  0
LINE
  5
1FA
330
2AC
100
AcDbEntity
  8
0
100
AcDbLine
 10
44.83293771835841
 20
-13.20469489911192
 30
0.0
 11
44.68393914083092
 21
-13.39970137510704
 31
0.0
  0
LINE
  5
1FB
330
2AC
100
AcDbEntity
  8
0
100
AcDbLine
 10
44.68393914083092
 20
-13.39970137510704
 30
0.0
 11
44.48723724004
 21
-13.62614937367944
 31
0.0
  0
LINE
  5
1FC
330
2AC
100
AcDbEntity
  8
0
100
AcDbLine
 10
44.48723724004
 20
-13.62614937367944
 30
0.0
 11
44.23842482679635
 21
-13.87864372072714
 31
0.0
  0
LINE
  5
1FD
330
2AC
100
AcDbEntity
  8
0
100
AcDbLine
 10
44.23842482679635
 20
-13.87864372072714
 30
0.0
 11
43.93359470894302
 21
-14.15136837364729
 31
0.0
  0
LINE
  5
1FE
330
2AC
100
AcDbEntity
  8
0
100
AcDbLine
 10
43.93359470894302
 20
-14.15136837364729
 30
0.0
 11
43.56937459336443
 21
-14.43812857964087
 31
0.0
  0
LINE
  5
1FF
330
2AC
100
AcDbEntity
  8
0
100
AcDbLine
 10
43.56937459336443
 20
-14.43812857964087
 30
0.0
 11
43.14295862619044
 21
-14.73239571838427
 31
0.0
  0
LINE
  5
200
330
2AC
100
AcDbEntity
  8
0
100
AcDbLine
 10
40.66989173617889
 20
-13.30456988371215
 30
0.0
 11
43.14295862619044
 21
-14.73239571838427
 31
0.0
  0
LINE
  5
201
330
2AC
100
AcDbEntity
  8
0
100
AcDbLine
 10
45.05533221126902
 20
-12.83015044565105
 30
0.0
 11
45.12725465183721
 21
-12.64353007555303
 31
0.0
  0
LINE
  5
202
330
2AC
100
AcDbEntity
  8
0
100
AcDbLine
 10
45.12725465183721
 20
-12.64353007555303
 30
0.0
 11
47.89815621989948
 21
-13.38599091308572
 31
0.0
  0
LINE
  5
203
330
2AC
100
AcDbEntity
  8
0
100
AcDbLine
 10
47.86713269545132
 20
-13.58357011469646
 30
0.0
 11
47.89815621989948
 21
-13.38599091308572
 31
0.0
  0
LINE
  5
204
330
2AC
100
AcDbEntity
  8
0
100
AcDbLine
 10
47.86713269545132
 20
-13.58357011469646
 30
0.0
 11
47.86403725729553
 21
-13.61066358267857
 31
0.0
  0
LINE
  5
205
330
2AC
100
AcDbEntity
  8
0
100
AcDbLine
 10
47.86403725729553
 20
-13.61066358267857
 30
0.0
 11
47.85931386202468
 21
-13.69233226510392
 31
0.0
  0
LINE
  5
206
330
2AC
100
AcDbEntity
  8
0
100
AcDbLine
 10
47.85931386202468
 20
-13.69233226510392
 30
0.0
 11
47.85983362692247
 21
-13.82867267299158
 31
0.0
  0
LINE
  5
207
330
2AC
100
AcDbEntity
  8
0
100
AcDbLine
 10
47.85983362692247
 20
-13.82867267299158
 30
0.0
 11
47.87245974928509
 21
-14.01913237264941
 31
0.0
  0
LINE
  5
208
330
2AC
100
AcDbEntity
  8
0
100
AcDbLine
 10
47.87245974928509
 20
-14.01913237264941
 30
0.0
 11
47.90399306451776
 21
-14.26251222352857
 31
0.0
  0
LINE
  5
209
330
2AC
100
AcDbEntity
  8
0
100
AcDbLine
 10
47.90399306451776
 20
-14.26251222352857
 30
0.0
 11
47.96111790830425
 21
-14.55697289332169
 31
0.0
  0
LINE
  5
20A
330
2AC
100
AcDbEntity
  8
0
100
AcDbLine
 10
47.96111790830425
 20
-14.55697289332169
 30
0.0
 11
48.05034860548651
 21
-14.90004561882751
 31
0.0
  0
LINE
  5
20B
330
2AC
100
AcDbEntity
  8
0
100
AcDbLine
 10
48.05034860548651
 20
-14.90004561882751
 30
0.0
 11
48.17797690484595
 21
-15.28864715542148
 31
0.0
  0
LINE
  5
20C
330
2AC
100
AcDbEntity
  8
0
100
AcDbLine
 10
48.17797690484595
 20
-15.28864715542148
 30
0.0
 11
48.35002067450144
 21
-15.71909883639507
 31
0.0
  0
LINE
  5
20D
330
2AC
100
AcDbEntity
  8
0
100
AcDbLine
 10
48.35002067450144
 20
-15.71909883639507
 30
0.0
 11
48.57217416533583
 21
-16.18714963763822
 31
0.0
  0
LINE
  5
20E
330
2AC
100
AcDbEntity
  8
0
100
AcDbLine
 10
52.13286730454978
 20
-13.58357011470926
 30
0.0
 11
52.13596274269064
 21
-13.61066358270023
 31
0.0
  0
LINE
  5
20F
330
2AC
100
AcDbEntity
  8
0
100
AcDbLine
 10
52.13596274269064
 20
-13.61066358270023
 30
0.0
 11
52.14068613795983
 21
-13.69233226511848
 31
0.0
  0
LINE
  5
210
330
2AC
100
AcDbEntity
  8
0
100
AcDbLine
 10
52.14068613795983
 20
-13.69233226511848
 30
0.0
 11
52.14016637309021
 21
-13.82867267300795
 31
0.0
  0
LINE
  5
211
330
2AC
100
AcDbEntity
  8
0
100
AcDbLine
 10
52.14016637309021
 20
-13.82867267300795
 30
0.0
 11
52.12754025070143
 21
-14.0191323726381
 31
0.0
  0
LINE
  5
212
330
2AC
100
AcDbEntity
  8
0
100
AcDbLine
 10
52.12754025070143
 20
-14.0191323726381
 30
0.0
 11
52.09600693547218
 21
-14.26251222359385
 31
0.0
  0
LINE
  5
213
330
2AC
100
AcDbEntity
  8
0
100
AcDbLine
 10
52.09600693547218
 20
-14.26251222359385
 30
0.0
 11
52.03888209168218
 21
-14.55697289332672
 31
0.0
  0
LINE
  5
214
330
2AC
100
AcDbEntity
  8
0
100
AcDbLine
 10
52.03888209168218
 20
-14.55697289332672
 30
0.0
 11
51.94965139452516
 21
-14.90004561880207
 31
0.0
  0
LINE
  5
215
330
2AC
100
AcDbEntity
  8
0
100
AcDbLine
 10
51.94965139452516
 20
-14.90004561880207
 30
0.0
 11
51.82202309514934
 21
-15.28864715543825
 31
0.0
  0
LINE
  5
216
330
2AC
100
AcDbEntity
  8
0
100
AcDbLine
 10
51.82202309514934
 20
-15.28864715543825
 30
0.0
 11
51.64997932550329
 21
-15.71909883646743
 31
0.0
  0
LINE
  5
217
330
2AC
100
AcDbEntity
  8
0
100
AcDbLine
 10
51.64997932550329
 20
-15.71909883646743
 30
0.0
 11
51.42782583467383
 21
-16.18714963763462
 31
0.0
  0
LINE
  5
218
330
2AC
100
AcDbEntity
  8
0
100
AcDbLine
 10
48.57217416533583
 20
-16.18714963763822
 30
0.0
 11
51.42782583467383
 21
-16.18714963763462
 31
0.0
  0
LINE
  5
219
330
2AC
100
AcDbEntity
  8
0
100
AcDbLine
 10
52.13286730454978
 20
-13.58357011470926
 30
0.0
 11
52.10184378012067
 21
-13.38599091303832
 31
0.0
  0
LINE
  5
21A
330
2AC
100
AcDbEntity
  8
0
100
AcDbLine
 10
52.10184378012067
 20
-13.38599091303832
 30
0.0
 11
54.87274534814834
 21
-12.64353007557917
 31
0.0
  0
LINE
  5
21B
330
2AC
100
AcDbEntity
  8
0
100
AcDbLine
 10
54.94466778871327
 20
-12.83015044570022
 30
0.0
 11
54.87274534814834
 21
-12.64353007557917
 31
0.0
  0
LINE
  5
21C
330
2AC
100
AcDbEntity
  8
0
100
AcDbLine
 10
54.94466778871327
 20
-12.83015044570022
 30
0.0
 11
54.95553379464293
 21
-12.85516179632744
 31
0.0
  0
LINE
  5
21D
330
2AC
100
AcDbEntity
  8
0
100
AcDbLine
 10
54.95553379464293
 20
-12.85516179632744
 30
0.0
 11
54.99227755555683
 21
-12.92825064762984
 31
0.0
  0
LINE
  5
21E
330
2AC
100
AcDbEntity
  8
0
100
AcDbLine
 10
54.99227755555683
 20
-12.92825064762984
 30
0.0
 11
55.06089788908265
 21
-13.04606502198965
 31
0.0
  0
LINE
  5
21F
330
2AC
100
AcDbEntity
  8
0
100
AcDbLine
 10
55.06089788908265
 20
-13.04606502198965
 30
0.0
 11
55.1670622816377
 21
-13.20469489907212
 31
0.0
  0
LINE
  5
220
330
2AC
100
AcDbEntity
  8
0
100
AcDbLine
 10
55.1670622816377
 20
-13.20469489907212
 30
0.0
 11
55.31606085916963
 21
-13.39970137515446
 31
0.0
  0
LINE
  5
221
330
2AC
100
AcDbEntity
  8
0
100
AcDbLine
 10
55.31606085916963
 20
-13.39970137515446
 30
0.0
 11
55.51276275994542
 21
-13.6261493736635
 31
0.0
  0
LINE
  5
222
330
2AC
100
AcDbEntity
  8
0
100
AcDbLine
 10
55.51276275994542
 20
-13.6261493736635
 30
0.0
 11
55.76157517321849
 21
-13.8786437206922
 31
0.0
  0
LINE
  5
223
330
2AC
100
AcDbEntity
  8
0
100
AcDbLine
 10
55.76157517321849
 20
-13.8786437206922
 30
0.0
 11
56.06640529103783
 21
-14.1513683736809
 31
0.0
  0
LINE
  5
224
330
2AC
100
AcDbEntity
  8
0
100
AcDbLine
 10
56.06640529103783
 20
-14.1513683736809
 30
0.0
 11
56.43062540662874
 21
-14.43812857973086
 31
0.0
  0
LINE
  5
225
330
2AC
100
AcDbEntity
  8
0
100
AcDbLine
 10
56.43062540662874
 20
-14.43812857973086
 30
0.0
 11
56.85704137381004
 21
-14.73239571838857
 31
0.0
  0
LINE
  5
226
330
2AC
100
AcDbEntity
  8
0
100
AcDbLine
 10
58.63890232598862
 20
-10.69728314113991
 30
0.0
 11
58.65512978805844
 21
-10.71919905361113
 31
0.0
  0
LINE
  5
227
330
2AC
100
AcDbEntity
  8
0
100
AcDbLine
 10
58.65512978805844
 20
-10.71919905361113
 30
0.0
 11
58.70005470956779
 21
-10.78756450964966
 31
0.0
  0
LINE
  5
228
330
2AC
100
AcDbEntity
  8
0
100
AcDbLine
 10
58.70005470956779
 20
-10.78756450964966
 30
0.0
 11
58.76777478390614
 21
-10.9058986488916
 31
0.0
  0
LINE
  5
229
330
2AC
100
AcDbEntity
  8
0
100
AcDbLine
 10
58.76777478390614
 20
-10.9058986488916
 30
0.0
 11
58.85207009101772
 21
-11.07715464837375
 31
0.0
  0
LINE
  5
22A
330
2AC
100
AcDbEntity
  8
0
100
AcDbLine
 10
58.85207009101772
 20
-11.07715464837375
 30
0.0
 11
58.94645136440027
 21
-11.3036944396207
 31
0.0
  0
LINE
  5
22B
330
2AC
100
AcDbEntity
  8
0
100
AcDbLine
 10
58.94645136440027
 20
-11.3036944396207
 30
0.0
 11
59.04421013339051
 21
-11.58726728197017
 31
0.0
  0
LINE
  5
22C
330
2AC
100
AcDbEntity
  8
0
100
AcDbLine
 10
59.04421013339051
 20
-11.58726728197017
 30
0.0
 11
59.13847044558618
 21
-11.92899232619492
 31
0.0
  0
LINE
  5
22D
330
2AC
100
AcDbEntity
  8
0
100
AcDbLine
 10
59.13847044558618
 20
-11.92899232619492
 30
0.0
 11
59.2222418643961
 21
-12.32934527851467
 31
0.0
  0
LINE
  5
22E
330
2AC
100
AcDbEntity
  8
0
100
AcDbLine
 10
59.2222418643961
 20
-12.32934527851467
 30
0.0
 11
59.2884734297984
 21
-12.78814925416726
 31
0.0
  0
LINE
  5
22F
330
2AC
100
AcDbEntity
  8
0
100
AcDbLine
 10
59.2884734297984
 20
-12.78814925416726
 30
0.0
 11
59.330108263818
 21
-13.30456988372268
 31
0.0
  0
LINE
  5
230
330
2AC
100
AcDbEntity
  8
0
100
AcDbLine
 10
56.85704137381004
 20
-14.73239571838857
 30
0.0
 11
59.330108263818
 21
-13.30456988372268
 31
0.0
  0
LINE
  5
231
330
2AC
100
AcDbEntity
  8
0
100
AcDbLine
 10
58.63890232598862
 20
-10.69728314113991
 30
0.0
 11
58.51324556489623
 21
-10.54168629550963
 31
0.0
  0
LINE
  5
232
330
2AC
100
AcDbEntity
  8
0
100
AcDbLine
 10
58.51324556489623
 20
-10.54168629550963
 30
0.0
 11
60.54168629545794
 21
-8.51324556486011
 31
0.0
  0
LINE
  5
233
330
2AC
100
AcDbEntity
  8
0
100
AcDbLine
 10
60.69728314114118
 20
-8.638902325944557
 30
0.0
 11
60.54168629545794
 21
-8.51324556486011
 31
0.0
  0
LINE
  5
234
330
2AC
100
AcDbEntity
  8
0
100
AcDbLine
 10
60.69728314114118
 20
-8.638902325944557
 30
0.0
 11
60.71919905365004
 21
-8.655129788059453
 31
0.0
  0
LINE
  5
235
330
2AC
100
AcDbEntity
  8
0
100
AcDbLine
 10
60.71919905365004
 20
-8.655129788059453
 30
0.0
 11
60.78756450968677
 21
-8.700054709590216
 31
0.0
  0
LINE
  5
236
330
2AC
100
AcDbEntity
  8
0
100
AcDbLine
 10
60.78756450968677
 20
-8.700054709590216
 30
0.0
 11
60.90589864885795
 21
-8.767774783861329
 31
0.0
  0
LINE
  5
237
330
2AC
100
AcDbEntity
  8
0
100
AcDbLine
 10
60.90589864885795
 20
-8.767774783861329
 30
0.0
 11
61.07715464839395
 21
-8.85207009103293
 31
0.0
  0
LINE
  5
238
330
2AC
100
AcDbEntity
  8
0
100
AcDbLine
 10
61.07715464839395
 20
-8.85207009103293
 30
0.0
 11
61.30369443965807
 21
-8.946451364383432
 31
0.0
  0
LINE
  5
239
330
2AC
100
AcDbEntity
  8
0
100
AcDbLine
 10
61.30369443965807
 20
-8.946451364383432
 30
0.0
 11
61.5872672820019
 21
-9.044210133387812
 31
0.0
  0
LINE
  5
23A
330
2AC
100
AcDbEntity
  8
0
100
AcDbLine
 10
61.5872672820019
 20
-9.044210133387812
 30
0.0
 11
61.92899232617165
 21
-9.138470445621273
 31
0.0
  0
LINE
  5
23B
330
2AC
100
AcDbEntity
  8
0
100
AcDbLine
 10
61.92899232617165
 20
-9.138470445621273
 30
0.0
 11
62.32934527853132
 21
-9.222241864361736
 31
0.0
  0
LINE
  5
23C
330
2AC
100
AcDbEntity
  8
0
100
AcDbLine
 10
62.32934527853132
 20
-9.222241864361736
 30
0.0
 11
62.78814925418847
 21
-9.288473429757358
 31
0.0
  0
LINE
  5
23D
330
2AC
100
AcDbEntity
  8
0
100
AcDbLine
 10
62.78814925418847
 20
-9.288473429757358
 30
0.0
 11
63.30456988371215
 21
-9.330108263821108
 31
0.0
  0
LINE
  5
248
330
2AC
100
AcDbEntity
  8
0
100
AcDbLine
 10
63.30456988371215
 20
-9.330108263821108
 30
0.0
 11
64.73239571838427
 21
-6.857041373809558
 31
0.0
  0
CIRCLE
  5
261
330
2AC
100
AcDbEntity
  8
0
100
AcDbCircle
 10
0.0
 20
0.0
 30
0.0
 40
1.4
  0
CIRCLE
  5
262
330
2AC
100
AcDbEntity
  8
0
100
AcDbCircle
 10
50.0
 20
0.0
 30
0.0
 40
1.4
  0
CIRCLE
  5
263
330
2AC
100
AcDbEntity
  8
0
100
AcDbCircle
 10
-35.0
 20
0.0
 30
0.0
 40
1.4
  0
CIRCLE
  5
264
330
2AC
100
AcDbEntity
  8
0
100
AcDbCircle
 10
85.0
 20
0.0
 30
0.0
 40
1.4
  0
LINE
  5
267
330
2AC
100
AcDbEntity
  8
0
100
AcDbLine
 10
-15.2660373699
 20
5.56871646129
 30
0.0
 11
-35.14351453044095
 21
4.997939933567861
 31
0.0
  0
LINE
  5
268
330
2AC
100
AcDbEntity
  8
0
100
AcDbLine
 10
-15.2660373699
 20
-5.56871646129
 30
0.0
 11
-35.14351453044095
 21
-4.997939933567861
 31
0.0
  0
LINE
  5
269
330
2AC
100
AcDbEntity
  8
0
100
AcDbLine
 10
64.73239571838427
 20
-6.857041373809558
 30
0.0
 11
85.45122785328725
 21
-4.979597717127136
 31
0.0
  0
LINE
  5
26A
330
2AC
100
AcDbEntity
  8
0
100
AcDbLine
 10
64.73239571838857
 20
6.857041373810032
 30
0.0
 11
85.45122785328743
 21
4.979597717127119
 31
0.0
  0
ARC
  5
26B
330
2AC
100
AcDbEntity
  8
0
100
AcDbCircle
 10
85.0
 20
0.0
 30
0.0
 40
5.0
100
AcDbArc
 50
275.1777347433194
 51
84.82226525667816
  0
ARC
  5
26C
330
2AC
100
AcDbEntity
  8
0
100
AcDbCircle
 10
-35.0
 20
0.0
 30
0.0
 40
5.0
100
AcDbArc
 50
91.64478127539846
 51
268.3552187246016
  0
CIRCLE
  5
26D
330
2AC
100
AcDbEntity
  8
0
100
AcDbCircle
 10
0.0
 20
50.0
 30
0.0
 40
1.4
  0
CIRCLE
  5
26E
330
2AC
100
AcDbEntity
  8
0
100
AcDbCircle
 10
30.0
 20
50.0
 30
0.0
 40
1.4
  0
CIRCLE
  5
26F
330
2AC
100
AcDbEntity
  8
0
100
AcDbCircle
 10
29.9
 20
80.0
 30
0.0
 40
1.4
  0
CIRCLE
  5
270
330
2AC
100
AcDbEntity
  8
0
100
AcDbCircle
 10
0.1
 20
80.0
 30
0.0
 40
1.4
  0
LINE
  5
271
330
2AC
100
AcDbEntity
  8
0
100
AcDbLine
 10
-10.0
 20
90.0
 30
0.0
 11
0.0
 21
90.0
 31
0.0
  0
LINE
  5
272
330
2AC
100
AcDbEntity
  8
0
100
AcDbLine
 10
40.0
 20
90.0
 30
0.0
 11
40.0
 21
40.0
 31
0.0
  0
LINE
  5
273
330
2AC
100
AcDbEntity
  8
0
100
AcDbLine
 10
40.0
 20
40.0
 30
0.0
 11
-10.0
 21
40.0
 31
0.0
  0
LINE
  5
274
330
2AC
100
AcDbEntity
  8
0
100
AcDbLine
 10
-10.0
 20
40.0
 30
0.0
 11
-10.0
 21
90.0
 31
0.0
  0
LINE
  5
276
330
2AC
100
AcDbEntity
  8
0
100
AcDbLine
 10
0.0
 20
90.0
 30
0.0
 11
0.0
 21
120.0
 31
0.0
  0
LINE
  5
278
330
2AC
100
AcDbEntity
  8
0
100
AcDbLine
 10
0.0
 20
120.0
 30
0.0
 11
30.0
 21
120.0
 31
0.0
  0
LINE
  5
279
330
2AC
100
AcDbEntity
  8
0
100
AcDbLine
 10
30.0
 20
120.0
 30
0.0
 11
30.0
 21
90.0
 31
0.0
  0
LINE
  5
27A
330
2AC
100
AcDbEntity
  8
0
100
AcDbLine
 10
30.0
 20
90.0
 30
0.0
 11
40.0
 21
90.0
 31
0.0
  0
CIRCLE
  5
27B
330
2AC
100
AcDbEntity
  8
0
100
AcDbCircle
 10
50.0
 20
80.0
 30
0.0
 40
1.4
  0
CIRCLE
  5
27C
330
2AC
100
AcDbEntity
  8
0
100
AcDbCircle
 10
85.0
 20
80.0
 30
0.0
 40
1.4
  0
LINE
  5
280
330
2AC
100
AcDbEntity
  8
0
100
AcDbLine
 10
85.0
 20
84.0
 30
0.0
 11
50.0
 21
84.0
 31
0.0
  0
LINE
  5
281
330
2AC
100
AcDbEntity
  8
0
100
AcDbLine
 10
50.0
 20
76.0
 30
0.0
 11
85.0
 21
76.0
 31
0.0
  0
ARC
  5
282
330
2AC
100
AcDbEntity
  8
0
100
AcDbCircle
 10
50.0
 20
80.0
 30
0.0
 40
4.0
100
AcDbArc
 50
90.0
 51
270.0
  0
ARC
  5
283
330
2AC
100
AcDbEntity
  8
0
100
AcDbCircle
 10
85.0
 20
80.0
 30
0.0
 40
4.0
100
AcDbArc
 50
270.0
 51
90.0
  0
CIRCLE
  5
286
330
2AC
100
AcDbEntity
  8
0
100
AcDbCircle
 10
50.0
 20
60.0
 30
0.0
 40
1.4
  0
CIRCLE
  5
287
330
2AC
100
AcDbEntity
  8
0
100
AcDbCircle
 10
80.0
 20
60.0
 30
0.0
 40
1.4
  0
CIRCLE
  5
288
330
2AC
100
AcDbEntity
  8
0
100
AcDbCircle
 10
120.0
 20
60.0
 30
0.0
 40
1.4
  0
LINE
  5
289
330
2AC
100
AcDbEntity
  8
0
100
AcDbLine
 10
50.0
 20
64.0
 30
0.0
 11
120.0
 21
64.0
 31
0.0
  0
LINE
  5
28A
330
2AC
100
AcDbEntity
  8
0
100
AcDbLine
 10
120.0
 20
56.0
 30
0.0
 11
50.0
 21
56.0
 31
0.0
  0
ARC
  5
28B
330
2AC
100
AcDbEntity
  8
0
100
AcDbCircle
 10
50.0
 20
60.0
 30
0.0
 40
4.0
100
AcDbArc
 50
90.0
 51
270.0
  0
ARC
  5
28D
330
2AC
100
AcDbEntity
  8
0
100
AcDbCircle
 10
120.0
 20
60.0
 30
0.0
 40
4.0
100
AcDbArc
 50
270.0
 51
90.0
  0
ENDSEC
  0
SECTION
  2
OBJECTS
  0
DICTIONARY
  5
29A
330
0
100
AcDbDictionary
281
     1
  3
ACAD_GROUP
350
29B
  3
ACAD_LAYOUT
350
2A7
  3
ACAD_MATERIAL
350
2C8
  3
ACAD_MLEADERSTYLE
350
2F6
  3
ACAD_MLINESTYLE
350
2A4
  3
ACAD_PLOTSETTINGS
350
2A6
  3
ACAD_PLOTSTYLENAME
350
29C
  3
ACAD_TABLESTYLE
350
2F5
  3
ACAD_VISUALSTYLE
350
2B7
  3
QCAD_OBJECTS
350
2CD
  0
DICTIONARY
  5
29B
102
{ACAD_REACTORS
330
29A
102
}
330
29A
100
AcDbDictionary
281
     1
  0
DICTIONARY
  5
2A7
102
{ACAD_REACTORS
330
29A
102
}
330
29A
100
AcDbDictionary
281
     1
  3
Layout1
350
2AB
  3
Layout2
350
2B3
  3
Model
350
2AF
  0
DICTIONARY
  5
2C8
102
{ACAD_REACTORS
330
29A
102
}
330
29A
100
AcDbDictionary
281
     1
  3
ByBlock
350
2CA
  3
ByLayer
350
2C9
  3
Global
350
2CB
  0
DICTIONARY
  5
2F6
102
{ACAD_REACTORS
330
29A
102
}
330
29A
100
AcDbDictionary
281
     1
  0
DICTIONARY
  5
2A4
102
{ACAD_REACTORS
330
29A
102
}
330
29A
100
AcDbDictionary
281
     1
  3
Standard
350
2A5
  0
DICTIONARY
  5
2A6
102
{ACAD_REACTORS
330
29A
102
}
330
29A
100
AcDbDictionary
281
     1
  0
ACDBDICTIONARYWDFLT
  5
29C
102
{ACAD_REACTORS
330
29A
102
}
330
29A
100
AcDbDictionary
281
     1
  3
Normal
350
29D
100
AcDbDictionaryWithDefault
340
29D
  0
DICTIONARY
  5
2F5
102
{ACAD_REACTORS
330
29A
102
}
330
29A
100
AcDbDictionary
281
     1
  0
DICTIONARY
  5
2B7
102
{ACAD_REACTORS
330
29A
102
}
330
29A
100
AcDbDictionary
281
     1
  3
2dWireframe
350
2BC
  3
3D Hidden
350
2BE
  3
3dWireframe
350
2BD
  3
Basic
350
2BF
  3
Brighten
350
2C3
  3
ColorChange
350
2C7
  3
Conceptual
350
2C1
  3
Dim
350
2C2
  3
Facepattern
350
2C6
  3
Flat
350
2B8
  3
FlatWithEdges
350
2B9
  3
Gouraud
350
2BA
  3
GouraudWithEdges
350
2BB
  3
Linepattern
350
2C5
  3
Realistic
350
2C0
  3
Thicken
350
2C4
  0
DICTIONARY
  5
2CD
102
{ACAD_REACTORS
330
29A
102
}
330
29A
100
AcDbDictionary
281
     1
  3
Grid/DisplayGrid
350
2DD
  3
Grid/GridSpacingX
350
2D6
  3
Grid/GridSpacingY
350
2D7
  3
Grid/MetaGridSpacingX
350
2D1
  3
Grid/MetaGridSpacingY
350
2D4
  3
MultiPageSettings/Columns
350
2D5
  3
MultiPageSettings/GlueMarginsBottom
350
2DA
  3
MultiPageSettings/GlueMarginsLeft
350
2D8
  3
MultiPageSettings/GlueMarginsRight
350
2CE
  3
MultiPageSettings/GlueMarginsTop
350
2E1
  3
MultiPageSettings/PrintCropMarks
350
2D0
  3
MultiPageSettings/Rows
350
2D9
  3
PageSettings/OffsetX
350
2DF
  3
PageSettings/OffsetY
350
2E0
  3
PageSettings/PageOrientation
350
2CF
  3
PageSettings/PaperHeight
350
2D2
  3
PageSettings/PaperWidth
350
2DB
  3
PageSettings/Scale
350
2D3
  3
PageSettings/ShowPaperBorders
350
2DE
  3
UnitSettings/PaperUnit
350
2DC
  0
LAYOUT
  5
2AB
102
{ACAD_REACTORS
330
2A7
102
}
330
2A7
100
AcDbPlotSettings
  1

  2
none_device
  4

  6

 40
0.0
 41
0.0
 42
0.0
 43
0.0
 44
0.0
 45
0.0
 46
0.0
 47
0.0
 48
0.0
 49
0.0
140
0.0
141
0.0
142
1.0
143
1.0
 70
   688
 72
     0
 73
     0
 74
     5
  7

 75
    16
 76
     0
 77
     2
 78
   300
147
1.0
148
0.0
149
0.0
100
AcDbLayout
  1
Layout1
 70
     1
 71
     1
 10
0.0
 20
0.0
 11
12.0
 21
9.0
 12
0.0
 22
0.0
 32
0.0
 14
1.000000000000000E+20
 24
1.000000000000000E+20
 34
1.000000000000000E+20
 15
-1.000000000000000E+20
 25
-1.000000000000000E+20
 35
-1.000000000000000E+20
146
0.0
 13
0.0
 23
0.0
 33
0.0
 16
1.0
 26
0.0
 36
0.0
 17
0.0
 27
1.0
 37
0.0
 76
     0
330
2A8
  0
LAYOUT
  5
2B3
102
{ACAD_REACTORS
330
2A7
102
}
330
2A7
100
AcDbPlotSettings
  1

  2
none_device
  4

  6

 40
0.0
 41
0.0
 42
0.0
 43
0.0
 44
0.0
 45
0.0
 46
0.0
 47
0.0
 48
0.0
 49
0.0
140
0.0
141
0.0
142
1.0
143
1.0
 70
   688
 72
     0
 73
     0
 74
     5
  7

 75
    16
 76
     0
 77
     2
 78
   300
147
1.0
148
0.0
149
0.0
100
AcDbLayout
  1
Layout2
 70
     1
 71
     2
 10
0.0
 20
0.0
 11
0.0
 21
0.0
 12
0.0
 22
0.0
 32
0.0
 14
0.0
 24
0.0
 34
0.0
 15
0.0
 25
0.0
 35
0.0
146
0.0
 13
0.0
 23
0.0
 33
0.0
 16
1.0
 26
0.0
 36
0.0
 17
0.0
 27
1.0
 37
0.0
 76
     0
330
2B0
  0
LAYOUT
  5
2AF
102
{ACAD_REACTORS
330
2A7
102
}
330
2A7
100
AcDbPlotSettings
  1

  2
none_device
  4

  6

 40
0.0
 41
0.0
 42
0.0
 43
0.0
 44
0.0
 45
0.0
 46
0.0
 47
0.0
 48
0.0
 49
0.0
140
0.0
141
0.0
142
1.0
143
1.0
 70
  1712
 72
     0
 73
     0
 74
     0
  7

 75
     0
 76
     0
 77
     2
 78
   300
147
1.0
148
0.0
149
0.0
100
AcDbLayout
  1
Model
 70
     1
 71
     0
 10
0.0
 20
0.0
 11
12.0
 21
9.0
 12
0.0
 22
0.0
 32
0.0
 14
1.000000000000000E+20
 24
1.000000000000000E+20
 34
1.000000000000000E+20
 15
-1.000000000000000E+20
 25
-1.000000000000000E+20
 35
-1.000000000000000E+20
146
0.0
 13
0.0
 23
0.0
 33
0.0
 16
1.0
 26
0.0
 36
0.0
 17
0.0
 27
1.0
 37
0.0
 76
     0
330
2AC
331
2B6
  0
MATERIAL
  5
2CA
102
{ACAD_REACTORS
330
2C8
102
}
330
2C8
100
AcDbMaterial
  1
ByBlock
 72
     1
 94
      127
  0
MATERIAL
  5
2C9
102
{ACAD_REACTORS
330
2C8
102
}
330
2C8
100
AcDbMaterial
  1
ByLayer
 72
     1
 94
      127
  0
MATERIAL
  5
2CB
102
{ACAD_REACTORS
330
2C8
102
}
330
2C8
100
AcDbMaterial
  1
Global
 72
     1
 94
      127
  0
MLINESTYLE
  5
2A5
102
{ACAD_REACTORS
330
2A4
102
}
330
2A4
100
AcDbMlineStyle
  2
Standard
 70
     0
  3

 62
   256
 51
90.0
 52
90.0
 71
     2
 49
0.5
 62
   256
  6
BYLAYER
 49
-0.5
 62
   256
  6
BYLAYER
  0
ACDBPLACEHOLDER
  5
29D
102
{ACAD_REACTORS
330
29C
102
}
330
29C
  0
VISUALSTYLE
  5
2BC
102
{ACAD_REACTORS
330
2B7
102
}
330
2B7
100
AcDbVisualStyle
  2
2dWireframe
 70
     4
177
     2
291
     0
 71
     0
176
     1
 72
     2
176
     1
 73
     0
176
     1
 90
        0
176
     1
 40
-0.6
176
     1
 41
-30.0
176
     1
 62
     5
 63
     7
421
 16777215
176
     1
 74
     1
176
     1
 91
        4
176
     1
 64
     7
176
     1
 65
   257
176
     1
 75
     1
176
     1
175
     1
176
     1
 42
1.0
176
     1
 92
        0
176
     1
 66
   257
176
     1
 43
1.0
176
     1
 76
     1
176
     1
 77
     6
176
     1
 78
     2
176
     1
 67
     7
176
     1
 79
     5
176
     1
170
     0
176
     1
171
     0
176
     1
290
     0
176
     1
 93
        1
176
     1
 44
0.0
176
     1
173
     0
176
     1
  0
VISUALSTYLE
  5
2BE
102
{ACAD_REACTORS
330
2B7
102
}
330
2B7
100
AcDbVisualStyle
  2
3D Hidden
 70
     6
177
     2
291
     0
 71
     1
176
     1
 72
     2
176
     1
 73
     2
176
     1
 90
        0
176
     1
 40
-0.6
176
     1
 41
-30.0
176
     1
 62
     5
 63
     7
421
 16777215
176
     1
 74
     2
176
     1
 91
        2
176
     1
 64
     7
176
     1
 65
   257
176
     1
 75
     2
176
     1
175
     1
176
     1
 42
40.0
176
     1
 92
        0
176
     1
 66
   257
176
     1
 43
1.0
176
     1
 76
     1
176
     1
 77
     6
176
     1
 78
     2
176
     1
 67
     7
176
     1
 79
     3
176
     1
170
     0
176
     1
171
     0
176
     1
290
     0
176
     1
 93
        1
176
     1
 44
0.0
176
     1
173
     0
176
     1
  0
VISUALSTYLE
  5
2BD
102
{ACAD_REACTORS
330
2B7
102
}
330
2B7
100
AcDbVisualStyle
  2
3dWireframe
 70
     5
177
     2
291
     0
 71
     0
176
     1
 72
     2
176
     1
 73
     0
176
     1
 90
        0
176
     1
 40
-0.6
176
     1
 41
-30.0
176
     1
 62
     5
 63
     7
421
 16777215
176
     1
 74
     1
176
     1
 91
        4
176
     1
 64
     7
176
     1
 65
   257
176
     1
 75
     1
176
     1
175
     1
176
     1
 42
1.0
176
     1
 92
        0
176
     1
 66
   257
176
     1
 43
1.0
176
     1
 76
     1
176
     1
 77
     6
176
     1
 78
     2
176
     1
 67
     7
176
     1
 79
     5
176
     1
170
     0
176
     1
171
     0
176
     1
290
     0
176
     1
 93
        1
176
     1
 44
0.0
176
     1
173
     0
176
     1
  0
VISUALSTYLE
  5
2BF
102
{ACAD_REACTORS
330
2B7
102
}
330
2B7
100
AcDbVisualStyle
  2
Basic
 70
     7
177
     2
291
     1
 71
     1
176
     1
 72
     0
176
     1
 73
     1
176
     1
 90
        0
176
     1
 40
-0.6
176
     1
 41
-30.0
176
     1
 62
     5
 63
     7
421
 16777215
176
     1
 74
     0
176
     1
 91
        4
176
     1
 64
     7
176
     1
 65
   257
176
     1
 75
     1
176
     1
175
     1
176
     1
 42
1.0
176
     1
 92
        8
176
     1
 66
     7
176
     1
 43
1.0
176
     1
 76
     1
176
     1
 77
     6
176
     1
 78
     2
176
     1
 67
     7
176
     1
 79
     5
176
     1
170
     0
176
     1
171
     0
176
     1
290
     0
176
     1
 93
        1
176
     1
 44
0.0
176
     1
173
     0
176
     1
  0
VISUALSTYLE
  5
2C3
102
{ACAD_REACTORS
330
2B7
102
}
330
2B7
100
AcDbVisualStyle
  2
Brighten
 70
    12
177
     2
291
     1
 71
     2
176
     1
 72
     2
176
     1
 73
     0
176
     1
 90
        0
176
     1
 40
-0.6
176
     1
 41
-30.0
176
     1
 62
     5
 63
     7
421
 16777215
176
     1
 74
     1
176
     1
 91
        4
176
     1
 64
     7
176
     1
 65
   257
176
     1
 75
     1
176
     1
175
     1
176
     1
 42
1.0
176
     1
 92
        8
176
     1
 66
     7
176
     1
 43
1.0
176
     1
 76
     1
176
     1
 77
     6
176
     1
 78
     2
176
     1
 67
     7
176
     1
 79
     5
176
     1
170
     0
176
     1
171
     0
176
     1
290
     0
176
     1
 93
        1
176
     1
 44
50.0
176
     1
173
     0
176
     1
  0
VISUALSTYLE
  5
2C7
102
{ACAD_REACTORS
330
2B7
102
}
330
2B7
100
AcDbVisualStyle
  2
ColorChange
 70
    16
177
     2
291
     1
 71
     2
176
     1
 72
     2
176
     1
 73
     3
176
     1
 90
        0
176
     1
 40
-0.6
176
     1
 41
-30.0
176
     1
 62
     5
 63
     8
421
  8421504
176
     1
 74
     1
176
     1
 91
        4
176
     1
 64
     7
176
     1
 65
   257
176
     1
 75
     1
176
     1
175
     1
176
     1
 42
1.0
176
     1
 92
        8
176
     1
 66
     8
424
  8421504
176
     1
 43
1.0
176
     1
 76
     1
176
     1
 77
     6
176
     1
 78
     2
176
     1
 67
     7
176
     1
 79
     5
176
     1
170
     0
176
     1
171
     0
176
     1
290
     0
176
     1
 93
        1
176
     1
 44
0.0
176
     1
173
     0
176
     1
  0
VISUALSTYLE
  5
2C1
102
{ACAD_REACTORS
330
2B7
102
}
330
2B7
100
AcDbVisualStyle
  2
Conceptual
 70
     9
177
     2
291
     0
 71
     3
176
     1
 72
     2
176
     1
 73
     0
176
     1
 90
        0
176
     1
 40
-0.6
176
     1
 41
-30.0
176
     1
 62
     5
 63
     7
421
 16777215
176
     1
 74
     2
176
     1
 91
        2
176
     1
 64
     7
176
     1
 65
   257
176
     1
 75
     1
176
     1
175
     1
176
     1
 42
40.0
176
     1
 92
        8
176
     1
 66
     7
176
     1
 43
1.0
176
     1
 76
     1
176
     1
 77
     6
176
     1
 78
     2
176
     1
 67
     7
176
     1
 79
     3
176
     1
170
     0
176
     1
171
     0
176
     1
290
     0
176
     1
 93
        1
176
     1
 44
0.0
176
     1
173
     0
176
     1
  0
VISUALSTYLE
  5
2C2
102
{ACAD_REACTORS
330
2B7
102
}
330
2B7
100
AcDbVisualStyle
  2
Dim
 70
    11
177
     2
291
     1
 71
     2
176
     1
 72
     2
176
     1
 73
     0
176
     1
 90
        0
176
     1
 40
-0.6
176
     1
 41
-30.0
176
     1
 62
     5
 63
     7
421
 16777215
176
     1
 74
     1
176
     1
 91
        4
176
     1
 64
     7
176
     1
 65
   257
176
     1
 75
     1
176
     1
175
     1
176
     1
 42
1.0
176
     1
 92
        8
176
     1
 66
     7
176
     1
 43
1.0
176
     1
 76
     1
176
     1
 77
     6
176
     1
 78
     2
176
     1
 67
     7
176
     1
 79
     5
176
     1
170
     0
176
     1
171
     0
176
     1
290
     0
176
     1
 93
        1
176
     1
 44
-50.0
176
     1
173
     0
176
     1
  0
VISUALSTYLE
  5
2C6
102
{ACAD_REACTORS
330
2B7
102
}
330
2B7
100
AcDbVisualStyle
  2
Facepattern
 70
    15
177
     2
291
     1
 71
     2
176
     1
 72
     2
176
     1
 73
     0
176
     1
 90
        0
176
     1
 40
-0.6
176
     1
 41
-30.0
176
     1
 62
     5
 63
     7
421
 16777215
176
     1
 74
     1
176
     1
 91
        4
176
     1
 64
     7
176
     1
 65
   257
176
     1
 75
     1
176
     1
175
     1
176
     1
 42
1.0
176
     1
 92
        8
176
     1
 66
     7
176
     1
 43
1.0
176
     1
 76
     1
176
     1
 77
     6
176
     1
 78
     2
176
     1
 67
     7
176
     1
 79
     5
176
     1
170
     0
176
     1
171
     0
176
     1
290
     0
176
     1
 93
        1
176
     1
 44
0.0
176
     1
173
     0
176
     1
  0
VISUALSTYLE
  5
2B8
102
{ACAD_REACTORS
330
2B7
102
}
330
2B7
100
AcDbVisualStyle
  2
Flat
 70
     0
177
     2
291
     1
 71
     2
176
     1
 72
     1
176
     1
 73
     1
176
     1
 90
        2
176
     1
 40
-0.6
176
     1
 41
30.0
176
     1
 62
     5
 63
     7
421
 16777215
176
     1
 74
     0
176
     1
 91
        4
176
     1
 64
     7
176
     1
 65
   257
176
     1
 75
     1
176
     1
175
     1
176
     1
 42
1.0
176
     1
 92
        8
176
     1
 66
     7
176
     1
 43
1.0
176
     1
 76
     1
176
     1
 77
     6
176
     1
 78
     2
176
     1
 67
     7
176
     1
 79
     5
176
     1
170
     0
176
     1
171
     0
176
     1
290
     0
176
     1
 93
       13
176
     1
 44
0.0
176
     1
173
     0
176
     1
  0
VISUALSTYLE
  5
2B9
102
{ACAD_REACTORS
330
2B7
102
}
330
2B7
100
AcDbVisualStyle
  2
FlatWithEdges
 70
     1
177
     2
291
     1
 71
     2
176
     1
 72
     1
176
     1
 73
     1
176
     1
 90
        2
176
     1
 40
-0.6
176
     1
 41
30.0
176
     1
 62
     5
 63
     7
421
 16777215
176
     1
 74
     1
176
     1
 91
        4
176
     1
 64
     7
176
     1
 65
   257
176
     1
 75
     1
176
     1
175
     1
176
     1
 42
1.0
176
     1
 92
        0
176
     1
 66
   257
176
     1
 43
1.0
176
     1
 76
     1
176
     1
 77
     6
176
     1
 78
     2
176
     1
 67
     7
176
     1
 79
     5
176
     1
170
     0
176
     1
171
     0
176
     1
290
     0
176
     1
 93
       13
176
     1
 44
0.0
176
     1
173
     0
176
     1
  0
VISUALSTYLE
  5
2BA
102
{ACAD_REACTORS
330
2B7
102
}
330
2B7
100
AcDbVisualStyle
  2
Gouraud
 70
     2
177
     2
291
     1
 71
     2
176
     1
 72
     2
176
     1
 73
     1
176
     1
 90
        2
176
     1
 40
-0.6
176
     1
 41
30.0
176
     1
 62
     5
 63
     7
421
 16777215
176
     1
 74
     0
176
     1
 91
        4
176
     1
 64
     7
176
     1
 65
   257
176
     1
 75
     1
176
     1
175
     1
176
     1
 42
1.0
176
     1
 92
        0
176
     1
 66
     7
176
     1
 43
1.0
176
     1
 76
     1
176
     1
 77
     6
176
     1
 78
     2
176
     1
 67
     7
176
     1
 79
     5
176
     1
170
     0
176
     1
171
     0
176
     1
290
     0
176
     1
 93
       13
176
     1
 44
0.0
176
     1
173
     0
176
     1
  0
VISUALSTYLE
  5
2BB
102
{ACAD_REACTORS
330
2B7
102
}
330
2B7
100
AcDbVisualStyle
  2
GouraudWithEdges
 70
     3
177
     2
291
     1
 71
     2
176
     1
 72
     2
176
     1
 73
     1
176
     1
 90
        2
176
     1
 40
-0.6
176
     1
 41
30.0
176
     1
 62
     5
 63
     7
421
 16777215
176
     1
 74
     1
176
     1
 91
        4
176
     1
 64
     7
176
     1
 65
   257
176
     1
 75
     1
176
     1
175
     1
176
     1
 42
1.0
176
     1
 92
        0
176
     1
 66
   257
176
     1
 43
1.0
176
     1
 76
     1
176
     1
 77
     6
176
     1
 78
     2
176
     1
 67
     7
176
     1
 79
     5
176
     1
170
     0
176
     1
171
     0
176
     1
290
     0
176
     1
 93
       13
176
     1
 44
0.0
176
     1
173
     0
176
     1
  0
VISUALSTYLE
  5
2C5
102
{ACAD_REACTORS
330
2B7
102
}
330
2B7
100
AcDbVisualStyle
  2
Linepattern
 70
    14
177
     2
291
     1
 71
     2
176
     1
 72
     2
176
     1
 73
     0
176
     1
 90
        0
176
     1
 40
-0.6
176
     1
 41
-30.0
176
     1
 62
     5
 63
     7
421
 16777215
176
     1
 74
     1
176
     1
 91
        4
176
     1
 64
     7
176
     1
 65
   257
176
     1
 75
     7
176
     1
175
     7
176
     1
 42
1.0
176
     1
 92
        8
176
     1
 66
     7
176
     1
 43
1.0
176
     1
 76
     1
176
     1
 77
     6
176
     1
 78
     2
176
     1
 67
     7
176
     1
 79
     5
176
     1
170
     0
176
     1
171
     0
176
     1
290
     0
176
     1
 93
        1
176
     1
 44
0.0
176
     1
173
     0
176
     1
  0
VISUALSTYLE
  5
2C0
102
{ACAD_REACTORS
330
2B7
102
}
330
2B7
100
AcDbVisualStyle
  2
Realistic
 70
     8
177
     2
291
     0
 71
     2
176
     1
 72
     2
176
     1
 73
     0
176
     1
 90
        0
176
     1
 40
-0.6
176
     1
 41
-30.0
176
     1
 62
     5
 63
     7
421
 16777215
176
     1
 74
     1
176
     1
 91
        0
176
     1
 64
     7
176
     1
 65
   257
176
     1
 75
     1
176
     1
175
     1
176
     1
 42
1.0
176
     1
 92
        8
176
     1
 66
     8
424
  7895160
176
     1
 43
1.0
176
     1
 76
     1
176
     1
 77
     6
176
     1
 78
     2
176
     1
 67
     7
176
     1
 79
     5
176
     1
170
     0
176
     1
171
     0
176
     1
290
     0
176
     1
 93
       13
176
     1
 44
0.0
176
     1
173
     0
176
     1
  0
VISUALSTYLE
  5
2C4
102
{ACAD_REACTORS
330
2B7
102
}
330
2B7
100
AcDbVisualStyle
  2
Thicken
 70
    13
177
     2
291
     1
 71
     2
176
     1
 72
     2
176
     1
 73
     0
176
     1
 90
        0
176
     1
 40
-0.6
176
     1
 41
-30.0
176
     1
 62
     5
 63
     7
421
 16777215
176
     1
 74
     1
176
     1
 91
        4
176
     1
 64
     7
176
     1
 65
   257
176
     1
 75
     1
176
     1
175
     1
176
     1
 42
1.0
176
     1
 92
       12
176
     1
 66
     7
176
     1
 43
1.0
176
     1
 76
     1
176
     1
 77
     6
176
     1
 78
     2
176
     1
 67
     7
176
     1
 79
     5
176
     1
170
     0
176
     1
171
     0
176
     1
290
     0
176
     1
 93
        1
176
     1
 44
0.0
176
     1
173
     0
176
     1
  0
XRECORD
  5
2DD
102
{ACAD_REACTORS
330
2CD
102
}
330
2CD
100
AcDbXrecord
280
     1
290
     1
  0
XRECORD
  5
2D6
102
{ACAD_REACTORS
330
2CD
102
}
330
2CD
100
AcDbXrecord
280
     1
1000
auto
  0
XRECORD
  5
2D7
102
{ACAD_REACTORS
330
2CD
102
}
330
2CD
100
AcDbXrecord
280
     1
1000
auto
  0
XRECORD
  5
2D1
102
{ACAD_REACTORS
330
2CD
102
}
330
2CD
100
AcDbXrecord
280
     1
1000
auto
  0
XRECORD
  5
2D4
102
{ACAD_REACTORS
330
2CD
102
}
330
2CD
100
AcDbXrecord
280
     1
1000
auto
  0
XRECORD
  5
2D5
102
{ACAD_REACTORS
330
2CD
102
}
330
2CD
100
AcDbXrecord
280
     1
 90
        1
  0
XRECORD
  5
2DA
102
{ACAD_REACTORS
330
2CD
102
}
330
2CD
100
AcDbXrecord
280
     1
 40
10.0
  0
XRECORD
  5
2D8
102
{ACAD_REACTORS
330
2CD
102
}
330
2CD
100
AcDbXrecord
280
     1
 40
10.0
  0
XRECORD
  5
2CE
102
{ACAD_REACTORS
330
2CD
102
}
330
2CD
100
AcDbXrecord
280
     1
 40
10.0
  0
XRECORD
  5
2E1
102
{ACAD_REACTORS
330
2CD
102
}
330
2CD
100
AcDbXrecord
280
     1
 40
10.0
  0
XRECORD
  5
2D0
102
{ACAD_REACTORS
330
2CD
102
}
330
2CD
100
AcDbXrecord
280
     1
290
     0
  0
XRECORD
  5
2D9
102
{ACAD_REACTORS
330
2CD
102
}
330
2CD
100
AcDbXrecord
280
     1
 90
        1
  0
XRECORD
  5
2DF
102
{ACAD_REACTORS
330
2CD
102
}
330
2CD
100
AcDbXrecord
280
     1
 40
0.0
  0
XRECORD
  5
2E0
102
{ACAD_REACTORS
330
2CD
102
}
330
2CD
100
AcDbXrecord
280
     1
 40
0.0
  0
XRECORD
  5
2CF
102
{ACAD_REACTORS
330
2CD
102
}
330
2CD
100
AcDbXrecord
280
     1
1000
Portrait
  0
XRECORD
  5
2D2
102
{ACAD_REACTORS
330
2CD
102
}
330
2CD
100
AcDbXrecord
280
     1
 40
297.0
  0
XRECORD
  5
2DB
102
{ACAD_REACTORS
330
2CD
102
}
330
2CD
100
AcDbXrecord
280
     1
 40
210.0
  0
XRECORD
  5
2D3
102
{ACAD_REACTORS
330
2CD
102
}
330
2CD
100
AcDbXrecord
280
     1
1000
1:1
  0
XRECORD
  5
2DE
102
{ACAD_REACTORS
330
2CD
102
}
330
2CD
100
AcDbXrecord
280
     1
290
     1
  0
XRECORD
  5
2DC
102
{ACAD_REACTORS
330
2CD
102
}
330
2CD
100
AcDbXrecord
280
     1
 90
        4
  0
ENDSEC
  0
EOF
