  0
SECTION
  2
HEADER
  9
$ACADVER
  1
AC1024
  9
$ACADMAINTVER
 70
     6
  9
$DWGCODEPAGE
  3
ASCII
  9
$INSBASE
 10
0.0
 20
0.0
 30
0.0
  9
$EXTMIN
 10
1.000000000000000E+20
 20
1.000000000000000E+20
 30
1.000000000000000E+20
  9
$EXTMAX
 10
-1.000000000000000E+20
 20
-1.000000000000000E+20
 30
-1.000000000000000E+20
  9
$LIMMIN
 10
0.0
 20
0.0
  9
$LIMMAX
 10
12.0
 20
9.0
  9
$ORTHOMODE
 70
     0
  9
$REGENMODE
 70
     1
  9
$FILLMODE
 70
     1
  9
$QTEXTMODE
 70
     0
  9
$MIRRTEXT
 70
     1
  9
$LTSCALE
 40
1.0
  9
$ATTMODE
 70
     1
  9
$TEXTSIZE
 40
0.2
  9
$TRACEWID
 40
0.05
  9
$TEXTSTYLE
  7
Standard
  9
$CLAYER
  8
0
  9
$CELTYPE
  6
ByLayer
  9
$CECOLOR
 62
   178
  9
$CELTSCALE
 40
1.0
  9
$DISPSILH
 70
     0
  9
$DIMSCALE
 40
1.0
  9
$DIMASZ
 40
0.18
  9
$DIMEXO
 40
0.0625
  9
$DIMDLI
 40
0.38
  9
$DIMRND
 40
0.0
  9
$DIMDLE
 40
0.0
  9
$DIMEXE
 40
0.18
  9
$DIMTP
 40
0.0
  9
$DIMTM
 40
0.0
  9
$DIMTXT
 40
0.18
  9
$DIMCEN
 40
0.09
  9
$DIMTSZ
 40
0.0
  9
$DIMTOL
 70
     0
  9
$DIMLIM
 70
     0
  9
$DIMTIH
 70
     1
  9
$DIMTOH
 70
     1
  9
$DIMSE1
 70
     0
  9
$DIMSE2
 70
     0
  9
$DIMTAD
 70
     0
  9
$DIMZIN
 70
     0
  9
$DIMBLK
  1

  9
$DIMASO
 70
     1
  9
$DIMSHO
 70
     1
  9
$DIMPOST
  1

  9
$DIMAPOST
  1

  9
$DIMALT
 70
     0
  9
$DIMALTD
 70
     2
  9
$DIMALTF
 40
25.4
  9
$DIMLFAC
 40
1.0
  9
$DIMTOFL
 70
     0
  9
$DIMTVP
 40
0.0
  9
$DIMTIX
 70
     0
  9
$DIMSOXD
 70
     0
  9
$DIMSAH
 70
     0
  9
$DIMBLK1
  1

  9
$DIMBLK2
  1

  9
$DIMSTYLE
  2
Standard
  9
$DIMCLRD
 70
   178
  9
$DIMCLRE
 70
   178
  9
$DIMCLRT
 70
   178
  9
$DIMTFAC
 40
1.0
  9
$DIMGAP
 40
0.09
  9
$DIMJUST
 70
     0
  9
$DIMSD1
 70
     0
  9
$DIMSD2
 70
     0
  9
$DIMTOLJ
 70
     1
  9
$DIMTZIN
 70
     0
  9
$DIMALTZ
 70
     0
  9
$DIMALTTZ
 70
     0
  9
$DIMUPT
 70
     0
  9
$DIMDEC
 70
     4
  9
$DIMTDEC
 70
     4
  9
$DIMALTU
 70
     2
  9
$DIMALTTD
 70
     2
  9
$DIMTXSTY
  7
Standard
  9
$DIMAUNIT
 70
     0
  9
$DIMADEC
 70
     0
  9
$DIMALTRND
 40
0.0
  9
$DIMAZIN
 70
     0
  9
$DIMDSEP
 70
    46
  9
$DIMATFIT
 70
     3
  9
$DIMFRAC
 70
     0
  9
$DIMLDRBLK
  1

  9
$DIMLUNIT
 70
     2
  9
$DIMLWD
 70
    -2
  9
$DIMLWE
 70
    -2
  9
$DIMTMOVE
 70
     0
  9
$DIMFXL
 40
1.0
  9
$DIMFXLON
 70
     0
  9
$DIMJOGANG
 40
0.7853981633974483
  9
$DIMTFILL
 70
     0
  9
$DIMTFILLCLR
 70
     0
  9
$DIMARCSYM
 70
     0
  9
$DIMLTYPE
  6

  9
$DIMLTEX1
  6

  9
$DIMLTEX2
  6

  9
$DIMTXTDIRECTION
 70
     0
  9
$LUNITS
 70
     2
  9
$LUPREC
 70
     4
  9
$SKETCHINC
 40
0.1
  9
$FILLETRAD
 40
0.5
  9
$AUNITS
 70
     0
  9
$AUPREC
 70
     0
  9
$MENU
  1
.
  9
$ELEVATION
 40
0.0
  9
$PELEVATION
 40
0.0
  9
$THICKNESS
 40
0.0
  9
$LIMCHECK
 70
     0
  9
$CHAMFERA
 40
0.5
  9
$CHAMFERB
 40
0.5
  9
$CHAMFERC
 40
1.0
  9
$CHAMFERD
 40
0.0
  9
$SKPOLY
 70
     0
  9
$TDCREATE
 40
2456323.69494213
  9
$TDUCREATE
 40
2456323.903275463
  9
$TDUPDATE
 40
2456323.69494213
  9
$TDUUPDATE
 40
2456323.903275463
  9
$TDINDWG
 40
0.0000000116
  9
$TDUSRTIMER
 40
0.0000000116
  9
$USRTIMER
 70
     1
  9
$ANGBASE
 50
0.0
  9
$ANGDIR
 70
     0
  9
$PDMODE
 70
     0
  9
$PDSIZE
 40
0.0
  9
$PLINEWID
 40
0.0
  9
$SPLFRAME
 70
     0
  9
$SPLINETYPE
 70
     6
  9
$SPLINESEGS
 70
     8
  9
$HANDSEED
  5
331
  9
$SURFTAB1
 70
     6
  9
$SURFTAB2
 70
     6
  9
$SURFTYPE
 70
     6
  9
$SURFU
 70
     6
  9
$SURFV
 70
     6
  9
$UCSBASE
  2

  9
$UCSNAME
  2

  9
$UCSORG
 10
0.0
 20
0.0
 30
0.0
  9
$UCSXDIR
 10
1.0
 20
0.0
 30
0.0
  9
$UCSYDIR
 10
0.0
 20
1.0
 30
0.0
  9
$UCSORTHOREF
  2

  9
$UCSORTHOVIEW
 70
     0
  9
$UCSORGTOP
 10
0.0
 20
0.0
 30
0.0
  9
$UCSORGBOTTOM
 10
0.0
 20
0.0
 30
0.0
  9
$UCSORGLEFT
 10
0.0
 20
0.0
 30
0.0
  9
$UCSORGRIGHT
 10
0.0
 20
0.0
 30
0.0
  9
$UCSORGFRONT
 10
0.0
 20
0.0
 30
0.0
  9
$UCSORGBACK
 10
0.0
 20
0.0
 30
0.0
  9
$PUCSBASE
  2

  9
$PUCSNAME
  2

  9
$PUCSORG
 10
0.0
 20
0.0
 30
0.0
  9
$PUCSXDIR
 10
1.0
 20
0.0
 30
0.0
  9
$PUCSYDIR
 10
0.0
 20
1.0
 30
0.0
  9
$PUCSORTHOREF
  2

  9
$PUCSORTHOVIEW
 70
     0
  9
$PUCSORGTOP
 10
0.0
 20
0.0
 30
0.0
  9
$PUCSORGBOTTOM
 10
0.0
 20
0.0
 30
0.0
  9
$PUCSORGLEFT
 10
0.0
 20
0.0
 30
0.0
  9
$PUCSORGRIGHT
 10
0.0
 20
0.0
 30
0.0
  9
$PUCSORGFRONT
 10
0.0
 20
0.0
 30
0.0
  9
$PUCSORGBACK
 10
0.0
 20
0.0
 30
0.0
  9
$USERI1
 70
     0
  9
$USERI2
 70
     0
  9
$USERI3
 70
     0
  9
$USERI4
 70
     0
  9
$USERI5
 70
     0
  9
$USERR1
 40
0.0
  9
$USERR2
 40
0.0
  9
$USERR3
 40
0.0
  9
$USERR4
 40
0.0
  9
$USERR5
 40
0.0
  9
$WORLDVIEW
 70
     1
  9
$SHADEDGE
 70
     3
  9
$SHADEDIF
 70
    70
  9
$TILEMODE
 70
     1
  9
$MAXACTVP
 70
    64
  9
$PINSBASE
 10
0.0
 20
0.0
 30
0.0
  9
$PLIMCHECK
 70
     0
  9
$PEXTMIN
 10
1.000000000000000E+20
 20
1.000000000000000E+20
 30
1.000000000000000E+20
  9
$PEXTMAX
 10
-1.000000000000000E+20
 20
-1.000000000000000E+20
 30
-1.000000000000000E+20
  9
$PLIMMIN
 10
0.0
 20
0.0
  9
$PLIMMAX
 10
12.0
 20
9.0
  9
$UNITMODE
 70
     0
  9
$VISRETAIN
 70
     1
  9
$PLINEGEN
 70
     0
  9
$PSLTSCALE
 70
     1
  9
$TREEDEPTH
 70
  3020
  9
$CMLSTYLE
  2
Standard
  9
$CMLJUST
 70
     0
  9
$CMLSCALE
 40
1.0
  9
$PROXYGRAPHICS
 70
     1
  9
$MEASUREMENT
 70
     1
  9
$CELWEIGHT
370
    -1
  9
$ENDCAPS
280
     0
  9
$JOINSTYLE
280
     0
  9
$LWDISPLAY
290
     0
  9
$INSUNITS
 70
     0
  9
$HYPERLINKBASE
  1

  9
$STYLESHEET
  1

  9
$XEDIT
290
     1
  9
$CEPSNTYPE
380
     0
  9
$PSTYLEMODE
290
     1
  9
$FINGERPRINTGUID
  2
{FE68D833-A2DC-8CCA-B5D6-772BBAD583D4}
  9
$VERSIONGUID
  2
{FAEB1C32-E019-11D5-929B-00C0DF256EC4}
  9
$EXTNAMES
290
     1
  9
$PSVPSCALE
 40
0.0
  9
$OLESTARTUP
290
     0
  9
$SORTENTS
280
   127
  9
$INDEXCTL
280
     0
  9
$HIDETEXT
280
     1
  9
$XCLIPFRAME
280
     2
  9
$HALOGAP
280
     0
  9
$OBSCOLOR
 70
   257
  9
$OBSLTYPE
280
     0
  9
$INTERSECTIONDISPLAY
280
     0
  9
$INTERSECTIONCOLOR
 70
   257
  9
$DIMASSOC
280
     2
  9
$PROJECTNAME
  1

  9
$CAMERADISPLAY
290
     0
  9
$LENSLENGTH
 40
50.0
  9
$CAMERAHEIGHT
 40
0.0
  9
$STEPSPERSEC
 40
2.0
  9
$STEPSIZE
 40
6.0
  9
$3DDWFPREC
 40
2.0
  9
$PSOLWIDTH
 40
0.25
  9
$PSOLHEIGHT
 40
4.0
  9
$LOFTANG1
 40
1.570796326794897
  9
$LOFTANG2
 40
1.570796326794897
  9
$LOFTMAG1
 40
0.0
  9
$LOFTMAG2
 40
0.0
  9
$LOFTPARAM
 70
     7
  9
$LOFTNORMALS
280
     1
  9
$LATITUDE
 40
37.795
  9
$LONGITUDE
 40
-122.394
  9
$NORTHDIRECTION
 40
0.0
  9
$TIMEZONE
 70
 -8000
  9
$LIGHTGLYPHDISPLAY
280
     1
  9
$TILEMODELIGHTSYNCH
280
     1
  9
$SOLIDHIST
280
     1
  9
$SHOWHIST
280
     1
  9
$DWFFRAME
280
     2
  9
$DGNFRAME
280
     2
  9
$REALWORLDSCALE
290
     1
  9
$INTERFERECOLOR
 62
   256
  9
$CSHADOW
280
     0
  9
$SHADOWPLANELOCATION
 40
0.0
  0
ENDSEC
  0
SECTION
  2
CLASSES
  0
CLASS
  1
ACDBDICTIONARYWDFLT
  2
AcDbDictionaryWithDefault
  3
ObjectDBX Classes
 90
        0
 91
        4
280
     0
281
     0
  0
CLASS
  1
VISUALSTYLE
  2
AcDbVisualStyle
  3
ObjectDBX Classes
 90
     4095
 91
        4
280
     0
281
     0
  0
CLASS
  1
MATERIAL
  2
AcDbMaterial
  3
ObjectDBX Classes
 90
     1153
 91
        4
280
     0
281
     0
  0
ENDSEC
  0
SECTION
  2
TABLES
  0
TABLE
  2
VPORT
  5
2CE
330
0
100
AcDbSymbolTable
 70
     1
  0
VPORT
  5
2EE
330
2CE
100
AcDbSymbolTableRecord
100
AcDbViewportTableRecord
  2
*Active
 70
     0
 10
0.0
 20
0.0
 11
1.0
 21
1.0
 12
10.42990654205607
 22
4.5
 13
0.0
 23
0.0
 14
0.5
 24
0.5
 15
0.5
 25
0.5
 16
0.0
 26
0.0
 36
1.0
 17
0.0
 27
0.0
 37
0.0
 40
9.0
 41
1.972972972850329
 42
50.0
 43
0.0
 44
0.0
 50
0.0
 51
0.0
 71
     0
 72
   100
 73
     1
 74
     3
 75
     0
 76
     0
 77
     0
 78
     0
281
     0
 65
     1
110
0.0
120
0.0
130
0.0
111
1.0
121
0.0
131
0.0
112
0.0
122
1.0
132
0.0
 79
     0
146
0.0
 60
     3
 61
     5
292
     1
282
     1
141
0.0
142
0.0
 63
   250
  0
ENDTAB
  0
TABLE
  2
LTYPE
  5
2CB
330
0
100
AcDbSymbolTable
 70
    19
  0
LTYPE
  5
2D9
330
2CB
100
AcDbSymbolTableRecord
100
AcDbLinetypeTableRecord
  2
ByBlock
 70
     0
  3

 72
    65
 73
     0
 40
0.0
  0
LTYPE
  5
2DA
330
2CB
100
AcDbSymbolTableRecord
100
AcDbLinetypeTableRecord
  2
ByLayer
 70
     0
  3

 72
    65
 73
     0
 40
0.0
  0
LTYPE
  5
2DB
330
2CB
100
AcDbSymbolTableRecord
100
AcDbLinetypeTableRecord
  2
Continuous
 70
     0
  3
Solid line
 72
    65
 73
     0
 40
0.0
  0
LTYPE
  5
31B
330
2CB
100
AcDbSymbolTableRecord
100
AcDbLinetypeTableRecord
  2
BORDER
 70
     0
  3

 72
    65
 73
     6
 40
42.0
 49
12.0
 74
     0
 49
-6.0
 74
     0
 49
12.0
 74
     0
 49
-5.95
 74
     0
 49
0.1
 74
     0
 49
-5.95
 74
     0
  0
LTYPE
  5
31C
330
2CB
100
AcDbSymbolTableRecord
100
AcDbLinetypeTableRecord
  2
BORDER2
 70
     0
  3

 72
    65
 73
     6
 40
21.0
 49
6.0
 74
     0
 49
-3.0
 74
     0
 49
6.0
 74
     0
 49
-2.95
 74
     0
 49
0.1
 74
     0
 49
-2.95
 74
     0
  0
LTYPE
  5
31D
330
2CB
100
AcDbSymbolTableRecord
100
AcDbLinetypeTableRecord
  2
BORDERX2
 70
     0
  3

 72
    65
 73
     6
 40
84.0
 49
24.0
 74
     0
 49
-12.0
 74
     0
 49
24.0
 74
     0
 49
-11.95
 74
     0
 49
0.1
 74
     0
 49
-11.95
 74
     0
  0
LTYPE
  5
31E
330
2CB
100
AcDbSymbolTableRecord
100
AcDbLinetypeTableRecord
  2
CENTER
 70
     0
  3

 72
    65
 73
     4
 40
50.0
 49
32.0
 74
     0
 49
-6.0
 74
     0
 49
6.0
 74
     0
 49
-6.0
 74
     0
  0
LTYPE
  5
31F
330
2CB
100
AcDbSymbolTableRecord
100
AcDbLinetypeTableRecord
  2
CENTER2
 70
     0
  3

 72
    65
 73
     4
 40
25.0
 49
16.0
 74
     0
 49
-3.0
 74
     0
 49
3.0
 74
     0
 49
-3.0
 74
     0
  0
LTYPE
  5
320
330
2CB
100
AcDbSymbolTableRecord
100
AcDbLinetypeTableRecord
  2
CENTERX2
 70
     0
  3

 72
    65
 73
     4
 40
100.0
 49
64.0
 74
     0
 49
-12.0
 74
     0
 49
12.0
 74
     0
 49
-12.0
 74
     0
  0
LTYPE
  5
321
330
2CB
100
AcDbSymbolTableRecord
100
AcDbLinetypeTableRecord
  2
DASHDOT
 70
     0
  3

 72
    65
 73
     4
 40
24.0
 49
12.0
 74
     0
 49
-5.95
 74
     0
 49
0.1
 74
     0
 49
-5.95
 74
     0
  0
LTYPE
  5
322
330
2CB
100
AcDbSymbolTableRecord
100
AcDbLinetypeTableRecord
  2
DASHDOT2
 70
     0
  3

 72
    65
 73
     4
 40
12.0
 49
6.0
 74
     0
 49
-2.95
 74
     0
 49
0.1
 74
     0
 49
-2.95
 74
     0
  0
LTYPE
  5
323
330
2CB
100
AcDbSymbolTableRecord
100
AcDbLinetypeTableRecord
  2
DASHDOTX2
 70
     0
  3

 72
    65
 73
     4
 40
48.0
 49
24.0
 74
     0
 49
-11.95
 74
     0
 49
0.1
 74
     0
 49
-11.95
 74
     0
  0
LTYPE
  5
324
330
2CB
100
AcDbSymbolTableRecord
100
AcDbLinetypeTableRecord
  2
DASHED
 70
     0
  3

 72
    65
 73
     2
 40
18.0
 49
12.0
 74
     0
 49
-6.0
 74
     0
  0
LTYPE
  5
325
330
2CB
100
AcDbSymbolTableRecord
100
AcDbLinetypeTableRecord
  2
DASHED2
 70
     0
  3

 72
    65
 73
     2
 40
9.0
 49
6.0
 74
     0
 49
-3.0
 74
     0
  0
LTYPE
  5
326
330
2CB
100
AcDbSymbolTableRecord
100
AcDbLinetypeTableRecord
  2
DASHEDX2
 70
     0
  3

 72
    65
 73
     2
 40
36.0
 49
24.0
 74
     0
 49
-12.0
 74
     0
  0
LTYPE
  5
327
330
2CB
100
AcDbSymbolTableRecord
100
AcDbLinetypeTableRecord
  2
DIVIDE
 70
     0
  3

 72
    65
 73
     6
 40
30.0
 49
12.0
 74
     0
 49
-5.9
 74
     0
 49
0.15
 74
     0
 49
-5.9
 74
     0
 49
0.15
 74
     0
 49
-5.9
 74
     0
  0
LTYPE
  5
328
330
2CB
100
AcDbSymbolTableRecord
100
AcDbLinetypeTableRecord
  2
DIVIDE2
 70
     0
  3

 72
    65
 73
     6
 40
15.0
 49
6.0
 74
     0
 49
-2.9
 74
     0
 49
0.15
 74
     0
 49
-2.9
 74
     0
 49
0.15
 74
     0
 49
-2.9
 74
     0
  0
LTYPE
  5
329
330
2CB
100
AcDbSymbolTableRecord
100
AcDbLinetypeTableRecord
  2
DIVIDEX2
 70
     0
  3

 72
    65
 73
     6
 40
60.0
 49
24.0
 74
     0
 49
-11.9
 74
     0
 49
0.15
 74
     0
 49
-11.9
 74
     0
 49
0.15
 74
     0
 49
-11.9
 74
     0
  0
LTYPE
  5
32A
330
2CB
100
AcDbSymbolTableRecord
100
AcDbLinetypeTableRecord
  2
DOT
 70
     0
  3

 72
    65
 73
     2
 40
6.3
 49
0.1
 74
     0
 49
-6.2
 74
     0
  0
LTYPE
  5
32B
330
2CB
100
AcDbSymbolTableRecord
100
AcDbLinetypeTableRecord
  2
DOT2
 70
     0
  3

 72
    65
 73
     2
 40
3.2
 49
0.1
 74
     0
 49
-3.1
 74
     0
  0
LTYPE
  5
32C
330
2CB
100
AcDbSymbolTableRecord
100
AcDbLinetypeTableRecord
  2
DOTX2
 70
     0
  3

 72
    65
 73
     2
 40
12.5
 49
0.1
 74
     0
 49
-12.4
 74
     0
  0
ENDTAB
  0
TABLE
  2
LAYER
  5
2C8
330
0
100
AcDbSymbolTable
 70
     3
  0
LAYER
  5
2D6
330
2C8
100
AcDbSymbolTableRecord
100
AcDbLayerTableRecord
  2
0
 70
     0
 62
     7
420
 16777215
  6
Continuous
370
    -3
390
2D5
347
303
  0
LAYER
  5
32D
330
2C8
100
AcDbSymbolTableRecord
100
AcDbLayerTableRecord
  2
mount
 70
     1
 62
   178
420
        0
  6
Continuous
370
     0
390
2D5
347
303
  0
LAYER
  5
32E
330
2C8
100
AcDbSymbolTableRecord
100
AcDbLayerTableRecord
  2
drive
 70
     0
 62
     7
420
 16777215
  6
Continuous
370
     0
390
2D5
347
303
  0
ENDTAB
  0
TABLE
  2
STYLE
  5
2C9
330
0
100
AcDbSymbolTable
 70
     1
  0
STYLE
  5
2D7
330
2C9
100
AcDbSymbolTableRecord
100
AcDbTextStyleTableRecord
  2
Standard
 70
     0
 40
0.0
 41
1.0
 50
0.0
 71
     0
 42
0.2
  3
txt
  4

  0
ENDTAB
  0
TABLE
  2
VIEW
  5
2CC
330
0
100
AcDbSymbolTable
 70
     0
  0
ENDTAB
  0
TABLE
  2
UCS
  5
2CD
330
0
100
AcDbSymbolTable
 70
     0
  0
ENDTAB
  0
TABLE
  2
APPID
  5
2CF
330
0
100
AcDbSymbolTable
 70
     2
  0
APPID
  5
2D8
330
2CF
100
AcDbSymbolTableRecord
100
AcDbRegAppTableRecord
  2
ACAD
 70
     0
  0
APPID
  5
304
330
2CF
100
AcDbSymbolTableRecord
100
AcDbRegAppTableRecord
  2
QCAD
 70
     0
  0
ENDTAB
  0
TABLE
  2
DIMSTYLE
  5
2D0
330
0
100
AcDbSymbolTable
 70
     2
100
AcDbDimStyleTable
  0
DIMSTYLE
105
2EC
330
2D0
100
AcDbSymbolTableRecord
100
AcDbDimStyleTableRecord
  2
Standard
 70
     0
178
     0
340
2D7
  0
DIMSTYLE
105
31A
330
2D0
100
AcDbSymbolTableRecord
100
AcDbDimStyleTableRecord
  2
QCADDimStyle
 70
     0
 73
     0
 77
     1
178
     0
340
2D7
  0
ENDTAB
  0
TABLE
  2
BLOCK_RECORD
  5
2C7
330
0
100
AcDbSymbolTable
 70
     1
  0
BLOCK_RECORD
  5
2E4
330
2C7
100
AcDbSymbolTableRecord
100
AcDbBlockTableRecord
  2
*Model_Space
340
2E7
 70
     0
280
     1
281
     0
  0
BLOCK_RECORD
  5
2E0
330
2C7
100
AcDbSymbolTableRecord
100
AcDbBlockTableRecord
  2
*Paper_Space
340
2E3
 70
     0
280
     1
281
     0
  0
BLOCK_RECORD
  5
2E8
330
2C7
100
AcDbSymbolTableRecord
100
AcDbBlockTableRecord
  2
*Paper_Space0
340
2EB
 70
     0
280
     1
281
     0
  0
ENDTAB
  0
ENDSEC
  0
SECTION
  2
BLOCKS
  0
BLOCK
  5
2E5
330
2E4
100
AcDbEntity
  8
0
100
AcDbBlockBegin
  2
*Model_Space
 70
     0
 10
0.0
 20
0.0
 30
0.0
  3
*Model_Space
  1

  0
ENDBLK
  5
2E6
330
2E4
100
AcDbEntity
  8
0
100
AcDbBlockEnd
  0
BLOCK
  5
2E1
330
2E0
100
AcDbEntity
 67
     1
  8
0
100
AcDbBlockBegin
  2
*Paper_Space
 70
     0
 10
0.0
 20
0.0
 30
0.0
  3
*Paper_Space
  1

  0
ENDBLK
  5
2E2
330
2E0
100
AcDbEntity
 67
     1
  8
0
100
AcDbBlockEnd
  0
BLOCK
  5
2E9
330
2E8
100
AcDbEntity
  8
0
100
AcDbBlockBegin
  2
*Paper_Space0
 70
     0
 10
0.0
 20
0.0
 30
0.0
  3
*Paper_Space0
  1

  0
ENDBLK
  5
2EA
330
2E8
100
AcDbEntity
  8
0
100
AcDbBlockEnd
  0
ENDSEC
  0
SECTION
  2
ENTITIES
  0
LINE
  5
107
330
2E4
100
AcDbEntity
  8
drive
100
AcDbLine
 10
15.6294888148
 20
-1.94462834221
 30
0.0
 11
15.6294888148
 21
1.94462834221
 31
0.0
  0
LINE
  5
108
330
2E4
100
AcDbEntity
  8
drive
100
AcDbLine
 10
15.6294888148
 20
1.94462834221
 30
0.0
 11
15.6678076799
 21
1.95123102298
 31
0.0
  0
LINE
  5
109
330
2E4
100
AcDbEntity
  8
drive
100
AcDbLine
 10
15.6678076799
 20
1.95123102298
 30
0.0
 11
15.7812966608
 21
1.97817484217
 31
0.0
  0
LINE
  5
10A
330
2E4
100
AcDbEntity
  8
drive
100
AcDbLine
 10
15.7812966608
 20
1.97817484217
 30
0.0
 11
15.9669145887
 21
2.03596132561
 31
0.0
  0
LINE
  5
10B
330
2E4
100
AcDbEntity
  8
drive
100
AcDbLine
 10
15.9669145887
 20
2.03596132561
 30
0.0
 11
16.2205236693
 21
2.13473930448
 31
0.0
  0
LINE
  5
10C
330
2E4
100
AcDbEntity
  8
drive
100
AcDbLine
 10
16.2205236693
 20
2.13473930448
 30
0.0
 11
16.5369258095
 21
2.28420331304
 31
0.0
  0
LINE
  5
10D
330
2E4
100
AcDbEntity
  8
drive
100
AcDbLine
 10
16.5369258095
 20
2.28420331304
 30
0.0
 11
16.9099077565
 21
2.49349547276
 31
0.0
  0
LINE
  5
10E
330
2E4
100
AcDbEntity
  8
drive
100
AcDbLine
 10
16.9099077565
 20
2.49349547276
 30
0.0
 11
17.332294728
 21
2.77111159494
 31
0.0
  0
LINE
  5
10F
330
2E4
100
AcDbEntity
  8
drive
100
AcDbLine
 10
17.332294728
 20
2.77111159494
 30
0.0
 11
17.7960121569
 21
3.1248122063
 31
0.0
  0
LINE
  5
110
330
2E4
100
AcDbEntity
  8
drive
100
AcDbLine
 10
17.7960121569
 20
3.1248122063
 30
0.0
 11
18.2921551154
 21
3.56153916882
 31
0.0
  0
LINE
  5
111
330
2E4
100
AcDbEntity
  8
drive
100
AcDbLine
 10
18.2921551154
 20
3.56153916882
 30
0.0
 11
18.8110649294
 21
4.0873385279
 31
0.0
  0
LINE
  5
112
330
2E4
100
AcDbEntity
  8
drive
100
AcDbLine
 10
13.7875459253
 20
7.61354564959
 30
0.0
 11
13.8224274968
 21
7.63072723247
 31
0.0
  0
LINE
  5
113
330
2E4
100
AcDbEntity
  8
drive
100
AcDbLine
 10
13.8224274968
 20
7.63072723247
 30
0.0
 11
13.9300791905
 21
7.67563637408
 31
0.0
  0
LINE
  5
114
330
2E4
100
AcDbEntity
  8
drive
100
AcDbLine
 10
13.9300791905
 20
7.67563637408
 30
0.0
 11
14.1142132914
 21
7.73798960753
 31
0.0
  0
LINE
  5
115
330
2E4
100
AcDbEntity
  8
drive
100
AcDbLine
 10
14.1142132914
 20
7.73798960753
 30
0.0
 11
14.3774475868
 21
7.80714422137
 31
0.0
  0
LINE
  5
116
330
2E4
100
AcDbEntity
  8
drive
100
AcDbLine
 10
14.3774475868
 20
7.80714422137
 30
0.0
 11
14.7212750353
 21
7.87220181023
 31
0.0
  0
LINE
  5
117
330
2E4
100
AcDbEntity
  8
drive
100
AcDbLine
 10
14.7212750353
 20
7.87220181023
 30
0.0
 11
15.1460426139
 21
7.92211418405
 31
0.0
  0
LINE
  5
118
330
2E4
100
AcDbEntity
  8
drive
100
AcDbLine
 10
15.1460426139
 20
7.92211418405
 30
0.0
 11
15.6509395144
 21
7.94579085588
 31
0.0
  0
LINE
  5
119
330
2E4
100
AcDbEntity
  8
drive
100
AcDbLine
 10
15.6509395144
 20
7.94579085588
 30
0.0
 11
16.2339947981
 21
7.93220731631
 31
0.0
  0
LINE
  5
11A
330
2E4
100
AcDbEntity
  8
drive
100
AcDbLine
 10
16.2339947981
 20
7.93220731631
 30
0.0
 11
16.892084551
 21
7.87051329576
 31
0.0
  0
LINE
  5
11B
330
2E4
100
AcDbEntity
  8
drive
100
AcDbLine
 10
16.892084551
 20
7.87051329576
 30
0.0
 11
17.620948518
 21
7.75014021458
 31
0.0
  0
LINE
  5
11C
330
2E4
100
AcDbEntity
  8
drive
100
AcDbLine
 10
18.8110649294
 20
4.0873385279
 30
0.0
 11
17.620948518
 21
7.75014021458
 31
0.0
  0
LINE
  5
11D
330
2E4
100
AcDbEntity
  8
drive
100
AcDbLine
 10
13.7875459253
 20
7.61354564959
 30
0.0
 11
11.5014982038
 21
10.7600204028
 31
0.0
  0
LINE
  5
11E
330
2E4
100
AcDbEntity
  8
drive
100
AcDbLine
 10
11.5014982038
 20
10.7600204028
 30
0.0
 11
11.5286178585
 21
10.7878853476
 31
0.0
  0
LINE
  5
11F
330
2E4
100
AcDbEntity
  8
drive
100
AcDbLine
 10
11.5286178585
 20
10.7878853476
 30
0.0
 11
11.6045951931
 21
10.8763905044
 31
0.0
  0
LINE
  5
120
330
2E4
100
AcDbEntity
  8
drive
100
AcDbLine
 10
11.6045951931
 20
10.8763905044
 30
0.0
 11
11.7207972085
 21
11.0322442322
 31
0.0
  0
LINE
  5
121
330
2E4
100
AcDbEntity
  8
drive
100
AcDbLine
 10
11.7207972085
 20
11.0322442322
 30
0.0
 11
11.8679110254
 21
11.2612249731
 31
0.0
  0
LINE
  5
122
330
2E4
100
AcDbEntity
  8
drive
100
AcDbLine
 10
11.8679110254
 20
11.2612249731
 30
0.0
 11
12.036032994
 21
11.568120408
 31
0.0
  0
LINE
  5
123
330
2E4
100
AcDbEntity
  8
drive
100
AcDbLine
 10
12.036032994
 20
11.568120408
 30
0.0
 11
12.2147628828
 21
11.9566746098
 31
0.0
  0
LINE
  5
124
330
2E4
100
AcDbEntity
  8
drive
100
AcDbLine
 10
12.2147628828
 20
11.9566746098
 30
0.0
 11
12.3933024585
 21
12.4295436031
 31
0.0
  0
LINE
  5
125
330
2E4
100
AcDbEntity
  8
drive
100
AcDbLine
 10
12.3933024585
 20
12.4295436031
 30
0.0
 11
12.560557736
 21
12.9882596746
 31
0.0
  0
LINE
  5
126
330
2E4
100
AcDbEntity
  8
drive
100
AcDbLine
 10
12.560557736
 20
12.9882596746
 30
0.0
 11
12.7052441532
 21
13.6332047232
 31
0.0
  0
LINE
  5
127
330
2E4
100
AcDbEntity
  8
drive
100
AcDbLine
 10
12.7052441532
 20
13.6332047232
 30
0.0
 11
12.8159939023
 21
14.3635928762
 31
0.0
  0
LINE
  5
128
330
2E4
100
AcDbEntity
  8
drive
100
AcDbLine
 10
6.67922911379
 20
14.2636039782
 30
0.0
 11
6.6973498169
 21
14.298007044
 31
0.0
  0
LINE
  5
129
330
2E4
100
AcDbEntity
  8
drive
100
AcDbLine
 10
6.6973498169
 20
14.298007044
 30
0.0
 11
6.75804493546
 21
14.3976153807
 31
0.0
  0
LINE
  5
12A
330
2E4
100
AcDbEntity
  8
drive
100
AcDbLine
 10
6.75804493546
 20
14.3976153807
 30
0.0
 11
6.87036224129
 21
14.5562915152
 31
0.0
  0
LINE
  5
12B
330
2E4
100
AcDbEntity
  8
drive
100
AcDbLine
 10
6.87036224129
 20
14.5562915152
 30
0.0
 11
7.04267519758
 21
14.7669640097
 31
0.0
  0
LINE
  5
12C
330
2E4
100
AcDbEntity
  8
drive
100
AcDbLine
 10
7.04267519758
 20
14.7669640097
 30
0.0
 11
7.28259755527
 21
15.0216934083
 31
0.0
  0
LINE
  5
12D
330
2E4
100
AcDbEntity
  8
drive
100
AcDbLine
 10
7.28259755527
 20
15.0216934083
 30
0.0
 11
7.59690398781
 21
15.3117454853
 31
0.0
  0
LINE
  5
12E
330
2E4
100
AcDbEntity
  8
drive
100
AcDbLine
 10
7.59690398781
 20
15.3117454853
 30
0.0
 11
7.99145736222
 21
15.6276712673
 31
0.0
  0
LINE
  5
12F
330
2E4
100
AcDbEntity
  8
drive
100
AcDbLine
 10
7.99145736222
 20
15.6276712673
 30
0.0
 11
8.47114319958
 21
15.9593932499
 31
0.0
  0
LINE
  5
130
330
2E4
100
AcDbEntity
  8
drive
100
AcDbLine
 10
8.47114319958
 20
15.9593932499
 30
0.0
 11
9.03981182893
 21
16.2962971903
 31
0.0
  0
LINE
  5
131
330
2E4
100
AcDbEntity
  8
drive
100
AcDbLine
 10
9.03981182893
 20
16.2962971903
 30
0.0
 11
9.70022868674
 21
16.6273288127
 31
0.0
  0
LINE
  5
132
330
2E4
100
AcDbEntity
  8
drive
100
AcDbLine
 10
12.8159939023
 20
14.3635928762
 30
0.0
 11
9.70022868674
 21
16.6273288127
 31
0.0
  0
LINE
  5
133
330
2E4
100
AcDbEntity
  8
drive
100
AcDbLine
 10
6.67922911379
 20
14.2636039782
 30
0.0
 11
2.98032620052
 21
15.4654503891
 31
0.0
  0
LINE
  5
134
330
2E4
100
AcDbEntity
  8
drive
100
AcDbLine
 10
2.98032620052
 20
15.4654503891
 30
0.0
 11
2.98588785849
 21
15.5039341361
 31
0.0
  0
LINE
  5
135
330
2E4
100
AcDbEntity
  8
drive
100
AcDbLine
 10
2.98588785849
 20
15.5039341361
 30
0.0
 11
2.99533278743
 21
15.6201946689
 31
0.0
  0
LINE
  5
136
330
2E4
100
AcDbEntity
  8
drive
100
AcDbLine
 10
2.99533278743
 20
15.6201946689
 30
0.0
 11
2.99773366999
 21
15.8145848142
 31
0.0
  0
LINE
  5
137
330
2E4
100
AcDbEntity
  8
drive
100
AcDbLine
 10
2.99773366999
 20
15.8145848142
 30
0.0
 11
2.98215974535
 21
16.086305457
 31
0.0
  0
LINE
  5
138
330
2E4
100
AcDbEntity
  8
drive
100
AcDbLine
 10
2.98215974535
 20
16.086305457
 30
0.0
 11
2.93778466445
 21
16.433408693
 31
0.0
  0
LINE
  5
139
330
2E4
100
AcDbEntity
  8
drive
100
AcDbLine
 10
2.93778466445
 20
16.433408693
 30
0.0
 11
2.85399375235
 21
16.8528104383
 31
0.0
  0
LINE
  5
13A
330
2E4
100
AcDbEntity
  8
drive
100
AcDbLine
 10
2.85399375235
 20
16.8528104383
 30
0.0
 11
2.72048988271
 21
17.3403124196
 31
0.0
  0
LINE
  5
13B
330
2E4
100
AcDbEntity
  8
drive
100
AcDbLine
 10
2.72048988271
 20
17.3403124196
 30
0.0
 11
2.52739717758
 21
17.8906334018
 31
0.0
  0
LINE
  5
13C
330
2E4
100
AcDbEntity
  8
drive
100
AcDbLine
 10
2.52739717758
 20
17.8906334018
 30
0.0
 11
2.26536175985
 21
18.4974494489
 31
0.0
  0
LINE
  5
13D
330
2E4
100
AcDbEntity
  8
drive
100
AcDbLine
 10
2.26536175985
 20
18.4974494489
 30
0.0
 11
1.92564880421
 21
19.1534429464
 31
0.0
  0
LINE
  5
13E
330
2E4
100
AcDbEntity
  8
drive
100
AcDbLine
 10
-2.98032620052
 20
15.4654503891
 30
0.0
 11
-2.98588785849
 21
15.5039341361
 31
0.0
  0
LINE
  5
13F
330
2E4
100
AcDbEntity
  8
drive
100
AcDbLine
 10
-2.98588785849
 20
15.5039341361
 30
0.0
 11
-2.99533278743
 21
15.6201946689
 31
0.0
  0
LINE
  5
140
330
2E4
100
AcDbEntity
  8
drive
100
AcDbLine
 10
-2.99533278743
 20
15.6201946689
 30
0.0
 11
-2.99773366999
 21
15.8145848142
 31
0.0
  0
LINE
  5
141
330
2E4
100
AcDbEntity
  8
drive
100
AcDbLine
 10
-2.99773366999
 20
15.8145848142
 30
0.0
 11
-2.98215974535
 21
16.086305457
 31
0.0
  0
LINE
  5
142
330
2E4
100
AcDbEntity
  8
drive
100
AcDbLine
 10
-2.98215974535
 20
16.086305457
 30
0.0
 11
-2.93778466445
 21
16.433408693
 31
0.0
  0
LINE
  5
143
330
2E4
100
AcDbEntity
  8
drive
100
AcDbLine
 10
-2.93778466445
 20
16.433408693
 30
0.0
 11
-2.85399375235
 21
16.8528104383
 31
0.0
  0
LINE
  5
144
330
2E4
100
AcDbEntity
  8
drive
100
AcDbLine
 10
-2.85399375235
 20
16.8528104383
 30
0.0
 11
-2.72048988271
 21
17.3403124196
 31
0.0
  0
LINE
  5
145
330
2E4
100
AcDbEntity
  8
drive
100
AcDbLine
 10
-2.72048988271
 20
17.3403124196
 30
0.0
 11
-2.52739717758
 21
17.8906334018
 31
0.0
  0
LINE
  5
146
330
2E4
100
AcDbEntity
  8
drive
100
AcDbLine
 10
-2.52739717758
 20
17.8906334018
 30
0.0
 11
-2.26536175985
 21
18.4974494489
 31
0.0
  0
LINE
  5
147
330
2E4
100
AcDbEntity
  8
drive
100
AcDbLine
 10
-2.26536175985
 20
18.4974494489
 30
0.0
 11
-1.92564880421
 21
19.1534429464
 31
0.0
  0
LINE
  5
148
330
2E4
100
AcDbEntity
  8
drive
100
AcDbLine
 10
1.92564880421
 20
19.1534429464
 30
0.0
 11
-1.92564880421
 21
19.1534429464
 31
0.0
  0
LINE
  5
149
330
2E4
100
AcDbEntity
  8
drive
100
AcDbLine
 10
-2.98032620052
 20
15.4654503891
 30
0.0
 11
-6.67922911379
 21
14.2636039782
 31
0.0
  0
LINE
  5
14A
330
2E4
100
AcDbEntity
  8
drive
100
AcDbLine
 10
-6.67922911379
 20
14.2636039782
 30
0.0
 11
-6.6973498169
 21
14.298007044
 31
0.0
  0
LINE
  5
14B
330
2E4
100
AcDbEntity
  8
drive
100
AcDbLine
 10
-6.6973498169
 20
14.298007044
 30
0.0
 11
-6.75804493546
 21
14.3976153807
 31
0.0
  0
LINE
  5
14C
330
2E4
100
AcDbEntity
  8
drive
100
AcDbLine
 10
-6.75804493546
 20
14.3976153807
 30
0.0
 11
-6.87036224129
 21
14.5562915152
 31
0.0
  0
LINE
  5
14D
330
2E4
100
AcDbEntity
  8
drive
100
AcDbLine
 10
-6.87036224129
 20
14.5562915152
 30
0.0
 11
-7.04267519758
 21
14.7669640097
 31
0.0
  0
LINE
  5
14E
330
2E4
100
AcDbEntity
  8
drive
100
AcDbLine
 10
-7.04267519758
 20
14.7669640097
 30
0.0
 11
-7.28259755527
 21
15.0216934083
 31
0.0
  0
LINE
  5
14F
330
2E4
100
AcDbEntity
  8
drive
100
AcDbLine
 10
-7.28259755527
 20
15.0216934083
 30
0.0
 11
-7.59690398781
 21
15.3117454853
 31
0.0
  0
LINE
  5
150
330
2E4
100
AcDbEntity
  8
drive
100
AcDbLine
 10
-7.59690398781
 20
15.3117454853
 30
0.0
 11
-7.99145736222
 21
15.6276712673
 31
0.0
  0
LINE
  5
151
330
2E4
100
AcDbEntity
  8
drive
100
AcDbLine
 10
-7.99145736222
 20
15.6276712673
 30
0.0
 11
-8.47114319958
 21
15.9593932499
 31
0.0
  0
LINE
  5
152
330
2E4
100
AcDbEntity
  8
drive
100
AcDbLine
 10
-8.47114319958
 20
15.9593932499
 30
0.0
 11
-9.03981182893
 21
16.2962971903
 31
0.0
  0
LINE
  5
153
330
2E4
100
AcDbEntity
  8
drive
100
AcDbLine
 10
-9.03981182893
 20
16.2962971903
 30
0.0
 11
-9.70022868674
 21
16.6273288127
 31
0.0
  0
LINE
  5
154
330
2E4
100
AcDbEntity
  8
drive
100
AcDbLine
 10
-11.5014982038
 20
10.7600204028
 30
0.0
 11
-11.5286178585
 21
10.7878853476
 31
0.0
  0
LINE
  5
155
330
2E4
100
AcDbEntity
  8
drive
100
AcDbLine
 10
-11.5286178585
 20
10.7878853476
 30
0.0
 11
-11.6045951931
 21
10.8763905044
 31
0.0
  0
LINE
  5
156
330
2E4
100
AcDbEntity
  8
drive
100
AcDbLine
 10
-11.6045951931
 20
10.8763905044
 30
0.0
 11
-11.7207972085
 21
11.0322442322
 31
0.0
  0
LINE
  5
157
330
2E4
100
AcDbEntity
  8
drive
100
AcDbLine
 10
-11.7207972085
 20
11.0322442322
 30
0.0
 11
-11.8679110254
 21
11.2612249731
 31
0.0
  0
LINE
  5
158
330
2E4
100
AcDbEntity
  8
drive
100
AcDbLine
 10
-11.8679110254
 20
11.2612249731
 30
0.0
 11
-12.036032994
 21
11.568120408
 31
0.0
  0
LINE
  5
159
330
2E4
100
AcDbEntity
  8
drive
100
AcDbLine
 10
-12.036032994
 20
11.568120408
 30
0.0
 11
-12.2147628828
 21
11.9566746098
 31
0.0
  0
LINE
  5
15A
330
2E4
100
AcDbEntity
  8
drive
100
AcDbLine
 10
-12.2147628828
 20
11.9566746098
 30
0.0
 11
-12.3933024585
 21
12.4295436031
 31
0.0
  0
LINE
  5
15B
330
2E4
100
AcDbEntity
  8
drive
100
AcDbLine
 10
-12.3933024585
 20
12.4295436031
 30
0.0
 11
-12.560557736
 21
12.9882596746
 31
0.0
  0
LINE
  5
15C
330
2E4
100
AcDbEntity
  8
drive
100
AcDbLine
 10
-12.560557736
 20
12.9882596746
 30
0.0
 11
-12.7052441532
 21
13.6332047232
 31
0.0
  0
LINE
  5
15D
330
2E4
100
AcDbEntity
  8
drive
100
AcDbLine
 10
-12.7052441532
 20
13.6332047232
 30
0.0
 11
-12.8159939023
 21
14.3635928762
 31
0.0
  0
LINE
  5
15E
330
2E4
100
AcDbEntity
  8
drive
100
AcDbLine
 10
-9.70022868674
 20
16.6273288127
 30
0.0
 11
-12.8159939023
 21
14.3635928762
 31
0.0
  0
LINE
  5
15F
330
2E4
100
AcDbEntity
  8
drive
100
AcDbLine
 10
-11.5014982038
 20
10.7600204028
 30
0.0
 11
-13.7875459253
 21
7.61354564959
 31
0.0
  0
LINE
  5
160
330
2E4
100
AcDbEntity
  8
drive
100
AcDbLine
 10
-13.7875459253
 20
7.61354564959
 30
0.0
 11
-13.8224274968
 21
7.63072723247
 31
0.0
  0
LINE
  5
161
330
2E4
100
AcDbEntity
  8
drive
100
AcDbLine
 10
-13.8224274968
 20
7.63072723247
 30
0.0
 11
-13.9300791905
 21
7.67563637408
 31
0.0
  0
LINE
  5
162
330
2E4
100
AcDbEntity
  8
drive
100
AcDbLine
 10
-13.9300791905
 20
7.67563637408
 30
0.0
 11
-14.1142132914
 21
7.73798960753
 31
0.0
  0
LINE
  5
163
330
2E4
100
AcDbEntity
  8
drive
100
AcDbLine
 10
-14.1142132914
 20
7.73798960753
 30
0.0
 11
-14.3774475868
 21
7.80714422137
 31
0.0
  0
LINE
  5
164
330
2E4
100
AcDbEntity
  8
drive
100
AcDbLine
 10
-14.3774475868
 20
7.80714422137
 30
0.0
 11
-14.7212750353
 21
7.87220181023
 31
0.0
  0
LINE
  5
165
330
2E4
100
AcDbEntity
  8
drive
100
AcDbLine
 10
-14.7212750353
 20
7.87220181023
 30
0.0
 11
-15.1460426139
 21
7.92211418405
 31
0.0
  0
LINE
  5
166
330
2E4
100
AcDbEntity
  8
drive
100
AcDbLine
 10
-15.1460426139
 20
7.92211418405
 30
0.0
 11
-15.6509395144
 21
7.94579085588
 31
0.0
  0
LINE
  5
167
330
2E4
100
AcDbEntity
  8
drive
100
AcDbLine
 10
-15.6509395144
 20
7.94579085588
 30
0.0
 11
-16.2339947981
 21
7.93220731631
 31
0.0
  0
LINE
  5
168
330
2E4
100
AcDbEntity
  8
drive
100
AcDbLine
 10
-16.2339947981
 20
7.93220731631
 30
0.0
 11
-16.892084551
 21
7.87051329576
 31
0.0
  0
LINE
  5
169
330
2E4
100
AcDbEntity
  8
drive
100
AcDbLine
 10
-16.892084551
 20
7.87051329576
 30
0.0
 11
-17.620948518
 21
7.75014021458
 31
0.0
  0
LINE
  5
16A
330
2E4
100
AcDbEntity
  8
drive
100
AcDbLine
 10
-15.6294888148
 20
1.94462834221
 30
0.0
 11
-15.6678076799
 21
1.95123102298
 31
0.0
  0
LINE
  5
16B
330
2E4
100
AcDbEntity
  8
drive
100
AcDbLine
 10
-15.6678076799
 20
1.95123102298
 30
0.0
 11
-15.7812966608
 21
1.97817484217
 31
0.0
  0
LINE
  5
16C
330
2E4
100
AcDbEntity
  8
drive
100
AcDbLine
 10
-15.7812966608
 20
1.97817484217
 30
0.0
 11
-15.9669145887
 21
2.03596132561
 31
0.0
  0
LINE
  5
16D
330
2E4
100
AcDbEntity
  8
drive
100
AcDbLine
 10
-15.9669145887
 20
2.03596132561
 30
0.0
 11
-16.2205236693
 21
2.13473930448
 31
0.0
  0
LINE
  5
16E
330
2E4
100
AcDbEntity
  8
drive
100
AcDbLine
 10
-16.2205236693
 20
2.13473930448
 30
0.0
 11
-16.5369258095
 21
2.28420331304
 31
0.0
  0
LINE
  5
16F
330
2E4
100
AcDbEntity
  8
drive
100
AcDbLine
 10
-16.5369258095
 20
2.28420331304
 30
0.0
 11
-16.9099077565
 21
2.49349547276
 31
0.0
  0
LINE
  5
170
330
2E4
100
AcDbEntity
  8
drive
100
AcDbLine
 10
-16.9099077565
 20
2.49349547276
 30
0.0
 11
-17.332294728
 21
2.77111159494
 31
0.0
  0
LINE
  5
171
330
2E4
100
AcDbEntity
  8
drive
100
AcDbLine
 10
-17.332294728
 20
2.77111159494
 30
0.0
 11
-17.7960121569
 21
3.1248122063
 31
0.0
  0
LINE
  5
172
330
2E4
100
AcDbEntity
  8
drive
100
AcDbLine
 10
-17.7960121569
 20
3.1248122063
 30
0.0
 11
-18.2921551154
 21
3.56153916882
 31
0.0
  0
LINE
  5
173
330
2E4
100
AcDbEntity
  8
drive
100
AcDbLine
 10
-18.2921551154
 20
3.56153916882
 30
0.0
 11
-18.8110649294
 21
4.0873385279
 31
0.0
  0
LINE
  5
174
330
2E4
100
AcDbEntity
  8
drive
100
AcDbLine
 10
-17.620948518
 20
7.75014021458
 30
0.0
 11
-18.8110649294
 21
4.0873385279
 31
0.0
  0
LINE
  5
175
330
2E4
100
AcDbEntity
  8
drive
100
AcDbLine
 10
-15.6294888148
 20
1.94462834221
 30
0.0
 11
-15.6294888148
 21
-1.94462834221
 31
0.0
  0
LINE
  5
176
330
2E4
100
AcDbEntity
  8
drive
100
AcDbLine
 10
-15.6294888148
 20
-1.94462834221
 30
0.0
 11
-15.6678076799
 21
-1.95123102298
 31
0.0
  0
LINE
  5
177
330
2E4
100
AcDbEntity
  8
drive
100
AcDbLine
 10
-15.6678076799
 20
-1.95123102298
 30
0.0
 11
-15.7812966608
 21
-1.97817484217
 31
0.0
  0
LINE
  5
178
330
2E4
100
AcDbEntity
  8
drive
100
AcDbLine
 10
-15.7812966608
 20
-1.97817484217
 30
0.0
 11
-15.9669145887
 21
-2.03596132561
 31
0.0
  0
LINE
  5
179
330
2E4
100
AcDbEntity
  8
drive
100
AcDbLine
 10
-15.9669145887
 20
-2.03596132561
 30
0.0
 11
-16.2205236693
 21
-2.13473930448
 31
0.0
  0
LINE
  5
17A
330
2E4
100
AcDbEntity
  8
drive
100
AcDbLine
 10
-16.2205236693
 20
-2.13473930448
 30
0.0
 11
-16.5369258095
 21
-2.28420331304
 31
0.0
  0
LINE
  5
17B
330
2E4
100
AcDbEntity
  8
drive
100
AcDbLine
 10
-16.5369258095
 20
-2.28420331304
 30
0.0
 11
-16.9099077565
 21
-2.49349547276
 31
0.0
  0
LINE
  5
17C
330
2E4
100
AcDbEntity
  8
drive
100
AcDbLine
 10
-16.9099077565
 20
-2.49349547276
 30
0.0
 11
-17.332294728
 21
-2.77111159494
 31
0.0
  0
LINE
  5
17D
330
2E4
100
AcDbEntity
  8
drive
100
AcDbLine
 10
-17.332294728
 20
-2.77111159494
 30
0.0
 11
-17.7960121569
 21
-3.1248122063
 31
0.0
  0
LINE
  5
17E
330
2E4
100
AcDbEntity
  8
drive
100
AcDbLine
 10
-17.7960121569
 20
-3.1248122063
 30
0.0
 11
-18.2921551154
 21
-3.56153916882
 31
0.0
  0
LINE
  5
17F
330
2E4
100
AcDbEntity
  8
drive
100
AcDbLine
 10
-18.2921551154
 20
-3.56153916882
 30
0.0
 11
-18.8110649294
 21
-4.0873385279
 31
0.0
  0
LINE
  5
180
330
2E4
100
AcDbEntity
  8
drive
100
AcDbLine
 10
-13.7875459253
 20
-7.61354564959
 30
0.0
 11
-13.8224274968
 21
-7.63072723247
 31
0.0
  0
LINE
  5
181
330
2E4
100
AcDbEntity
  8
drive
100
AcDbLine
 10
-13.8224274968
 20
-7.63072723247
 30
0.0
 11
-13.9300791905
 21
-7.67563637408
 31
0.0
  0
LINE
  5
182
330
2E4
100
AcDbEntity
  8
drive
100
AcDbLine
 10
-13.9300791905
 20
-7.67563637408
 30
0.0
 11
-14.1142132914
 21
-7.73798960753
 31
0.0
  0
LINE
  5
183
330
2E4
100
AcDbEntity
  8
drive
100
AcDbLine
 10
-14.1142132914
 20
-7.73798960753
 30
0.0
 11
-14.3774475868
 21
-7.80714422137
 31
0.0
  0
LINE
  5
184
330
2E4
100
AcDbEntity
  8
drive
100
AcDbLine
 10
-14.3774475868
 20
-7.80714422137
 30
0.0
 11
-14.7212750353
 21
-7.87220181023
 31
0.0
  0
LINE
  5
185
330
2E4
100
AcDbEntity
  8
drive
100
AcDbLine
 10
-14.7212750353
 20
-7.87220181023
 30
0.0
 11
-15.1460426139
 21
-7.92211418405
 31
0.0
  0
LINE
  5
186
330
2E4
100
AcDbEntity
  8
drive
100
AcDbLine
 10
-15.1460426139
 20
-7.92211418405
 30
0.0
 11
-15.6509395144
 21
-7.94579085588
 31
0.0
  0
LINE
  5
187
330
2E4
100
AcDbEntity
  8
drive
100
AcDbLine
 10
-15.6509395144
 20
-7.94579085588
 30
0.0
 11
-16.2339947981
 21
-7.93220731631
 31
0.0
  0
LINE
  5
188
330
2E4
100
AcDbEntity
  8
drive
100
AcDbLine
 10
-16.2339947981
 20
-7.93220731631
 30
0.0
 11
-16.892084551
 21
-7.87051329576
 31
0.0
  0
LINE
  5
189
330
2E4
100
AcDbEntity
  8
drive
100
AcDbLine
 10
-16.892084551
 20
-7.87051329576
 30
0.0
 11
-17.620948518
 21
-7.75014021458
 31
0.0
  0
LINE
  5
18A
330
2E4
100
AcDbEntity
  8
drive
100
AcDbLine
 10
-18.8110649294
 20
-4.0873385279
 30
0.0
 11
-17.620948518
 21
-7.75014021458
 31
0.0
  0
LINE
  5
18B
330
2E4
100
AcDbEntity
  8
drive
100
AcDbLine
 10
-13.7875459253
 20
-7.61354564959
 30
0.0
 11
-11.5014982038
 21
-10.7600204028
 31
0.0
  0
LINE
  5
18C
330
2E4
100
AcDbEntity
  8
drive
100
AcDbLine
 10
-11.5014982038
 20
-10.7600204028
 30
0.0
 11
-11.5286178585
 21
-10.7878853476
 31
0.0
  0
LINE
  5
18D
330
2E4
100
AcDbEntity
  8
drive
100
AcDbLine
 10
-11.5286178585
 20
-10.7878853476
 30
0.0
 11
-11.6045951931
 21
-10.8763905044
 31
0.0
  0
LINE
  5
18E
330
2E4
100
AcDbEntity
  8
drive
100
AcDbLine
 10
-11.6045951931
 20
-10.8763905044
 30
0.0
 11
-11.7207972085
 21
-11.0322442322
 31
0.0
  0
LINE
  5
18F
330
2E4
100
AcDbEntity
  8
drive
100
AcDbLine
 10
-11.7207972085
 20
-11.0322442322
 30
0.0
 11
-11.8679110254
 21
-11.2612249731
 31
0.0
  0
LINE
  5
190
330
2E4
100
AcDbEntity
  8
drive
100
AcDbLine
 10
-11.8679110254
 20
-11.2612249731
 30
0.0
 11
-12.036032994
 21
-11.568120408
 31
0.0
  0
LINE
  5
191
330
2E4
100
AcDbEntity
  8
drive
100
AcDbLine
 10
-12.036032994
 20
-11.568120408
 30
0.0
 11
-12.2147628828
 21
-11.9566746098
 31
0.0
  0
LINE
  5
192
330
2E4
100
AcDbEntity
  8
drive
100
AcDbLine
 10
-12.2147628828
 20
-11.9566746098
 30
0.0
 11
-12.3933024585
 21
-12.4295436031
 31
0.0
  0
LINE
  5
193
330
2E4
100
AcDbEntity
  8
drive
100
AcDbLine
 10
-12.3933024585
 20
-12.4295436031
 30
0.0
 11
-12.560557736
 21
-12.9882596746
 31
0.0
  0
LINE
  5
194
330
2E4
100
AcDbEntity
  8
drive
100
AcDbLine
 10
-12.560557736
 20
-12.9882596746
 30
0.0
 11
-12.7052441532
 21
-13.6332047232
 31
0.0
  0
LINE
  5
195
330
2E4
100
AcDbEntity
  8
drive
100
AcDbLine
 10
-12.7052441532
 20
-13.6332047232
 30
0.0
 11
-12.8159939023
 21
-14.3635928762
 31
0.0
  0
LINE
  5
196
330
2E4
100
AcDbEntity
  8
drive
100
AcDbLine
 10
-6.67922911379
 20
-14.2636039782
 30
0.0
 11
-6.6973498169
 21
-14.298007044
 31
0.0
  0
LINE
  5
197
330
2E4
100
AcDbEntity
  8
drive
100
AcDbLine
 10
-6.6973498169
 20
-14.298007044
 30
0.0
 11
-6.75804493546
 21
-14.3976153807
 31
0.0
  0
LINE
  5
198
330
2E4
100
AcDbEntity
  8
drive
100
AcDbLine
 10
-6.75804493546
 20
-14.3976153807
 30
0.0
 11
-6.87036224129
 21
-14.5562915152
 31
0.0
  0
LINE
  5
199
330
2E4
100
AcDbEntity
  8
drive
100
AcDbLine
 10
-6.87036224129
 20
-14.5562915152
 30
0.0
 11
-7.04267519758
 21
-14.7669640097
 31
0.0
  0
LINE
  5
19A
330
2E4
100
AcDbEntity
  8
drive
100
AcDbLine
 10
-7.04267519758
 20
-14.7669640097
 30
0.0
 11
-7.28259755527
 21
-15.0216934083
 31
0.0
  0
LINE
  5
19B
330
2E4
100
AcDbEntity
  8
drive
100
AcDbLine
 10
-7.28259755527
 20
-15.0216934083
 30
0.0
 11
-7.59690398781
 21
-15.3117454853
 31
0.0
  0
LINE
  5
19C
330
2E4
100
AcDbEntity
  8
drive
100
AcDbLine
 10
-7.59690398781
 20
-15.3117454853
 30
0.0
 11
-7.99145736222
 21
-15.6276712673
 31
0.0
  0
LINE
  5
19D
330
2E4
100
AcDbEntity
  8
drive
100
AcDbLine
 10
-7.99145736222
 20
-15.6276712673
 30
0.0
 11
-8.47114319958
 21
-15.9593932499
 31
0.0
  0
LINE
  5
19E
330
2E4
100
AcDbEntity
  8
drive
100
AcDbLine
 10
-8.47114319958
 20
-15.9593932499
 30
0.0
 11
-9.03981182893
 21
-16.2962971903
 31
0.0
  0
LINE
  5
19F
330
2E4
100
AcDbEntity
  8
drive
100
AcDbLine
 10
-9.03981182893
 20
-16.2962971903
 30
0.0
 11
-9.70022868674
 21
-16.6273288127
 31
0.0
  0
LINE
  5
1A0
330
2E4
100
AcDbEntity
  8
drive
100
AcDbLine
 10
-12.8159939023
 20
-14.3635928762
 30
0.0
 11
-9.70022868674
 21
-16.6273288127
 31
0.0
  0
LINE
  5
1A1
330
2E4
100
AcDbEntity
  8
drive
100
AcDbLine
 10
-6.67922911379
 20
-14.2636039782
 30
0.0
 11
-2.98032620052
 21
-15.4654503891
 31
0.0
  0
LINE
  5
1A2
330
2E4
100
AcDbEntity
  8
drive
100
AcDbLine
 10
-2.98032620052
 20
-15.4654503891
 30
0.0
 11
-2.98588785849
 21
-15.5039341361
 31
0.0
  0
LINE
  5
1A3
330
2E4
100
AcDbEntity
  8
drive
100
AcDbLine
 10
-2.98588785849
 20
-15.5039341361
 30
0.0
 11
-2.99533278743
 21
-15.6201946689
 31
0.0
  0
LINE
  5
1A4
330
2E4
100
AcDbEntity
  8
drive
100
AcDbLine
 10
-2.99533278743
 20
-15.6201946689
 30
0.0
 11
-2.99773366999
 21
-15.8145848142
 31
0.0
  0
LINE
  5
1A5
330
2E4
100
AcDbEntity
  8
drive
100
AcDbLine
 10
-2.99773366999
 20
-15.8145848142
 30
0.0
 11
-2.98215974535
 21
-16.086305457
 31
0.0
  0
LINE
  5
1A6
330
2E4
100
AcDbEntity
  8
drive
100
AcDbLine
 10
-2.98215974535
 20
-16.086305457
 30
0.0
 11
-2.93778466445
 21
-16.433408693
 31
0.0
  0
LINE
  5
1A7
330
2E4
100
AcDbEntity
  8
drive
100
AcDbLine
 10
-2.93778466445
 20
-16.433408693
 30
0.0
 11
-2.85399375235
 21
-16.8528104383
 31
0.0
  0
LINE
  5
1A8
330
2E4
100
AcDbEntity
  8
drive
100
AcDbLine
 10
-2.85399375235
 20
-16.8528104383
 30
0.0
 11
-2.72048988271
 21
-17.3403124196
 31
0.0
  0
LINE
  5
1A9
330
2E4
100
AcDbEntity
  8
drive
100
AcDbLine
 10
-2.72048988271
 20
-17.3403124196
 30
0.0
 11
-2.52739717758
 21
-17.8906334018
 31
0.0
  0
LINE
  5
1AA
330
2E4
100
AcDbEntity
  8
drive
100
AcDbLine
 10
-2.52739717758
 20
-17.8906334018
 30
0.0
 11
-2.26536175985
 21
-18.4974494489
 31
0.0
  0
LINE
  5
1AB
330
2E4
100
AcDbEntity
  8
drive
100
AcDbLine
 10
-2.26536175985
 20
-18.4974494489
 30
0.0
 11
-1.92564880421
 21
-19.1534429464
 31
0.0
  0
LINE
  5
1AC
330
2E4
100
AcDbEntity
  8
drive
100
AcDbLine
 10
2.98032620052
 20
-15.4654503891
 30
0.0
 11
2.98588785849
 21
-15.5039341361
 31
0.0
  0
LINE
  5
1AD
330
2E4
100
AcDbEntity
  8
drive
100
AcDbLine
 10
2.98588785849
 20
-15.5039341361
 30
0.0
 11
2.99533278743
 21
-15.6201946689
 31
0.0
  0
LINE
  5
1AE
330
2E4
100
AcDbEntity
  8
drive
100
AcDbLine
 10
2.99533278743
 20
-15.6201946689
 30
0.0
 11
2.99773366999
 21
-15.8145848142
 31
0.0
  0
LINE
  5
1AF
330
2E4
100
AcDbEntity
  8
drive
100
AcDbLine
 10
2.99773366999
 20
-15.8145848142
 30
0.0
 11
2.98215974535
 21
-16.086305457
 31
0.0
  0
LINE
  5
1B0
330
2E4
100
AcDbEntity
  8
drive
100
AcDbLine
 10
2.98215974535
 20
-16.086305457
 30
0.0
 11
2.93778466445
 21
-16.433408693
 31
0.0
  0
LINE
  5
1B1
330
2E4
100
AcDbEntity
  8
drive
100
AcDbLine
 10
2.93778466445
 20
-16.433408693
 30
0.0
 11
2.85399375235
 21
-16.8528104383
 31
0.0
  0
LINE
  5
1B2
330
2E4
100
AcDbEntity
  8
drive
100
AcDbLine
 10
2.85399375235
 20
-16.8528104383
 30
0.0
 11
2.72048988271
 21
-17.3403124196
 31
0.0
  0
LINE
  5
1B3
330
2E4
100
AcDbEntity
  8
drive
100
AcDbLine
 10
2.72048988271
 20
-17.3403124196
 30
0.0
 11
2.52739717758
 21
-17.8906334018
 31
0.0
  0
LINE
  5
1B4
330
2E4
100
AcDbEntity
  8
drive
100
AcDbLine
 10
2.52739717758
 20
-17.8906334018
 30
0.0
 11
2.26536175985
 21
-18.4974494489
 31
0.0
  0
LINE
  5
1B5
330
2E4
100
AcDbEntity
  8
drive
100
AcDbLine
 10
2.26536175985
 20
-18.4974494489
 30
0.0
 11
1.92564880421
 21
-19.1534429464
 31
0.0
  0
LINE
  5
1B6
330
2E4
100
AcDbEntity
  8
drive
100
AcDbLine
 10
-1.92564880421
 20
-19.1534429464
 30
0.0
 11
1.92564880421
 21
-19.1534429464
 31
0.0
  0
LINE
  5
1B7
330
2E4
100
AcDbEntity
  8
drive
100
AcDbLine
 10
2.98032620052
 20
-15.4654503891
 30
0.0
 11
6.67922911379
 21
-14.2636039782
 31
0.0
  0
LINE
  5
1B8
330
2E4
100
AcDbEntity
  8
drive
100
AcDbLine
 10
6.67922911379
 20
-14.2636039782
 30
0.0
 11
6.6973498169
 21
-14.298007044
 31
0.0
  0
LINE
  5
1B9
330
2E4
100
AcDbEntity
  8
drive
100
AcDbLine
 10
6.6973498169
 20
-14.298007044
 30
0.0
 11
6.75804493546
 21
-14.3976153807
 31
0.0
  0
LINE
  5
1BA
330
2E4
100
AcDbEntity
  8
drive
100
AcDbLine
 10
6.75804493546
 20
-14.3976153807
 30
0.0
 11
6.87036224129
 21
-14.5562915152
 31
0.0
  0
LINE
  5
1BB
330
2E4
100
AcDbEntity
  8
drive
100
AcDbLine
 10
6.87036224129
 20
-14.5562915152
 30
0.0
 11
7.04267519758
 21
-14.7669640097
 31
0.0
  0
LINE
  5
1BC
330
2E4
100
AcDbEntity
  8
drive
100
AcDbLine
 10
7.04267519758
 20
-14.7669640097
 30
0.0
 11
7.28259755527
 21
-15.0216934083
 31
0.0
  0
LINE
  5
1BD
330
2E4
100
AcDbEntity
  8
drive
100
AcDbLine
 10
7.28259755527
 20
-15.0216934083
 30
0.0
 11
7.59690398781
 21
-15.3117454853
 31
0.0
  0
LINE
  5
1BE
330
2E4
100
AcDbEntity
  8
drive
100
AcDbLine
 10
7.59690398781
 20
-15.3117454853
 30
0.0
 11
7.99145736222
 21
-15.6276712673
 31
0.0
  0
LINE
  5
1BF
330
2E4
100
AcDbEntity
  8
drive
100
AcDbLine
 10
7.99145736222
 20
-15.6276712673
 30
0.0
 11
8.47114319958
 21
-15.9593932499
 31
0.0
  0
LINE
  5
1C0
330
2E4
100
AcDbEntity
  8
drive
100
AcDbLine
 10
8.47114319958
 20
-15.9593932499
 30
0.0
 11
9.03981182893
 21
-16.2962971903
 31
0.0
  0
LINE
  5
1C1
330
2E4
100
AcDbEntity
  8
drive
100
AcDbLine
 10
9.03981182893
 20
-16.2962971903
 30
0.0
 11
9.70022868674
 21
-16.6273288127
 31
0.0
  0
LINE
  5
1C2
330
2E4
100
AcDbEntity
  8
drive
100
AcDbLine
 10
11.5014982038
 20
-10.7600204028
 30
0.0
 11
11.5286178585
 21
-10.7878853476
 31
0.0
  0
LINE
  5
1C3
330
2E4
100
AcDbEntity
  8
drive
100
AcDbLine
 10
11.5286178585
 20
-10.7878853476
 30
0.0
 11
11.6045951931
 21
-10.8763905044
 31
0.0
  0
LINE
  5
1C4
330
2E4
100
AcDbEntity
  8
drive
100
AcDbLine
 10
11.6045951931
 20
-10.8763905044
 30
0.0
 11
11.7207972085
 21
-11.0322442322
 31
0.0
  0
LINE
  5
1C5
330
2E4
100
AcDbEntity
  8
drive
100
AcDbLine
 10
11.7207972085
 20
-11.0322442322
 30
0.0
 11
11.8679110254
 21
-11.2612249731
 31
0.0
  0
LINE
  5
1C6
330
2E4
100
AcDbEntity
  8
drive
100
AcDbLine
 10
11.8679110254
 20
-11.2612249731
 30
0.0
 11
12.036032994
 21
-11.568120408
 31
0.0
  0
LINE
  5
1C7
330
2E4
100
AcDbEntity
  8
drive
100
AcDbLine
 10
12.036032994
 20
-11.568120408
 30
0.0
 11
12.2147628828
 21
-11.9566746098
 31
0.0
  0
LINE
  5
1C8
330
2E4
100
AcDbEntity
  8
drive
100
AcDbLine
 10
12.2147628828
 20
-11.9566746098
 30
0.0
 11
12.3933024585
 21
-12.4295436031
 31
0.0
  0
LINE
  5
1C9
330
2E4
100
AcDbEntity
  8
drive
100
AcDbLine
 10
12.3933024585
 20
-12.4295436031
 30
0.0
 11
12.560557736
 21
-12.9882596746
 31
0.0
  0
LINE
  5
1CA
330
2E4
100
AcDbEntity
  8
drive
100
AcDbLine
 10
12.560557736
 20
-12.9882596746
 30
0.0
 11
12.7052441532
 21
-13.6332047232
 31
0.0
  0
LINE
  5
1CB
330
2E4
100
AcDbEntity
  8
drive
100
AcDbLine
 10
12.7052441532
 20
-13.6332047232
 30
0.0
 11
12.8159939023
 21
-14.3635928762
 31
0.0
  0
LINE
  5
1CC
330
2E4
100
AcDbEntity
  8
drive
100
AcDbLine
 10
9.70022868674
 20
-16.6273288127
 30
0.0
 11
12.8159939023
 21
-14.3635928762
 31
0.0
  0
LINE
  5
1CD
330
2E4
100
AcDbEntity
  8
drive
100
AcDbLine
 10
11.5014982038
 20
-10.7600204028
 30
0.0
 11
13.7875459253
 21
-7.61354564959
 31
0.0
  0
LINE
  5
1CE
330
2E4
100
AcDbEntity
  8
drive
100
AcDbLine
 10
13.7875459253
 20
-7.61354564959
 30
0.0
 11
13.8224274968
 21
-7.63072723247
 31
0.0
  0
LINE
  5
1CF
330
2E4
100
AcDbEntity
  8
drive
100
AcDbLine
 10
13.8224274968
 20
-7.63072723247
 30
0.0
 11
13.9300791905
 21
-7.67563637408
 31
0.0
  0
LINE
  5
1D0
330
2E4
100
AcDbEntity
  8
drive
100
AcDbLine
 10
13.9300791905
 20
-7.67563637408
 30
0.0
 11
14.1142132914
 21
-7.73798960753
 31
0.0
  0
LINE
  5
1D1
330
2E4
100
AcDbEntity
  8
drive
100
AcDbLine
 10
14.1142132914
 20
-7.73798960753
 30
0.0
 11
14.3774475868
 21
-7.80714422137
 31
0.0
  0
LINE
  5
1D2
330
2E4
100
AcDbEntity
  8
drive
100
AcDbLine
 10
14.3774475868
 20
-7.80714422137
 30
0.0
 11
14.7212750353
 21
-7.87220181023
 31
0.0
  0
LINE
  5
1D3
330
2E4
100
AcDbEntity
  8
drive
100
AcDbLine
 10
14.7212750353
 20
-7.87220181023
 30
0.0
 11
15.1460426139
 21
-7.92211418405
 31
0.0
  0
LINE
  5
1D4
330
2E4
100
AcDbEntity
  8
drive
100
AcDbLine
 10
15.1460426139
 20
-7.92211418405
 30
0.0
 11
15.6509395144
 21
-7.94579085588
 31
0.0
  0
LINE
  5
1D5
330
2E4
100
AcDbEntity
  8
drive
100
AcDbLine
 10
15.6509395144
 20
-7.94579085588
 30
0.0
 11
16.2339947981
 21
-7.93220731631
 31
0.0
  0
LINE
  5
1D6
330
2E4
100
AcDbEntity
  8
drive
100
AcDbLine
 10
16.2339947981
 20
-7.93220731631
 30
0.0
 11
16.892084551
 21
-7.87051329576
 31
0.0
  0
LINE
  5
1D7
330
2E4
100
AcDbEntity
  8
drive
100
AcDbLine
 10
16.892084551
 20
-7.87051329576
 30
0.0
 11
17.620948518
 21
-7.75014021458
 31
0.0
  0
LINE
  5
1D8
330
2E4
100
AcDbEntity
  8
drive
100
AcDbLine
 10
15.6294888148
 20
-1.94462834221
 30
0.0
 11
15.6678076799
 21
-1.95123102298
 31
0.0
  0
LINE
  5
1D9
330
2E4
100
AcDbEntity
  8
drive
100
AcDbLine
 10
15.6678076799
 20
-1.95123102298
 30
0.0
 11
15.7812966608
 21
-1.97817484217
 31
0.0
  0
LINE
  5
1DA
330
2E4
100
AcDbEntity
  8
drive
100
AcDbLine
 10
15.7812966608
 20
-1.97817484217
 30
0.0
 11
15.9669145887
 21
-2.03596132561
 31
0.0
  0
LINE
  5
1DB
330
2E4
100
AcDbEntity
  8
drive
100
AcDbLine
 10
15.9669145887
 20
-2.03596132561
 30
0.0
 11
16.2205236693
 21
-2.13473930448
 31
0.0
  0
LINE
  5
1DC
330
2E4
100
AcDbEntity
  8
drive
100
AcDbLine
 10
16.2205236693
 20
-2.13473930448
 30
0.0
 11
16.5369258095
 21
-2.28420331304
 31
0.0
  0
LINE
  5
1DD
330
2E4
100
AcDbEntity
  8
drive
100
AcDbLine
 10
16.5369258095
 20
-2.28420331304
 30
0.0
 11
16.9099077565
 21
-2.49349547276
 31
0.0
  0
LINE
  5
1DE
330
2E4
100
AcDbEntity
  8
drive
100
AcDbLine
 10
16.9099077565
 20
-2.49349547276
 30
0.0
 11
17.332294728
 21
-2.77111159494
 31
0.0
  0
LINE
  5
1DF
330
2E4
100
AcDbEntity
  8
drive
100
AcDbLine
 10
17.332294728
 20
-2.77111159494
 30
0.0
 11
17.7960121569
 21
-3.1248122063
 31
0.0
  0
LINE
  5
1E0
330
2E4
100
AcDbEntity
  8
drive
100
AcDbLine
 10
17.7960121569
 20
-3.1248122063
 30
0.0
 11
18.2921551154
 21
-3.56153916882
 31
0.0
  0
LINE
  5
1E1
330
2E4
100
AcDbEntity
  8
drive
100
AcDbLine
 10
18.2921551154
 20
-3.56153916882
 30
0.0
 11
18.8110649294
 21
-4.0873385279
 31
0.0
  0
LINE
  5
1E2
330
2E4
100
AcDbEntity
  8
drive
100
AcDbLine
 10
17.620948518
 20
-7.75014021458
 30
0.0
 11
18.8110649294
 21
-4.0873385279
 31
0.0
  0
LINE
  5
1E3
330
2E4
100
AcDbEntity
  8
mount
100
AcDbLine
 10
15.6294888148
 20
-1.94462834221
 30
0.0
 11
15.6294888148
 21
1.94462834221
 31
0.0
  0
LINE
  5
1E4
330
2E4
100
AcDbEntity
  8
mount
100
AcDbLine
 10
15.6294888148
 20
1.94462834221
 30
0.0
 11
15.6678076799
 21
1.95123102298
 31
0.0
  0
LINE
  5
1E5
330
2E4
100
AcDbEntity
  8
mount
100
AcDbLine
 10
15.6678076799
 20
1.95123102298
 30
0.0
 11
15.7812966608
 21
1.97817484217
 31
0.0
  0
LINE
  5
1E6
330
2E4
100
AcDbEntity
  8
mount
100
AcDbLine
 10
15.7812966608
 20
1.97817484217
 30
0.0
 11
15.9669145887
 21
2.03596132561
 31
0.0
  0
LINE
  5
1E7
330
2E4
100
AcDbEntity
  8
mount
100
AcDbLine
 10
15.9669145887
 20
2.03596132561
 30
0.0
 11
16.2205236693
 21
2.13473930448
 31
0.0
  0
LINE
  5
1E8
330
2E4
100
AcDbEntity
  8
mount
100
AcDbLine
 10
16.2205236693
 20
2.13473930448
 30
0.0
 11
16.5369258095
 21
2.28420331304
 31
0.0
  0
LINE
  5
1E9
330
2E4
100
AcDbEntity
  8
mount
100
AcDbLine
 10
16.5369258095
 20
2.28420331304
 30
0.0
 11
16.9099077565
 21
2.49349547276
 31
0.0
  0
LINE
  5
1EA
330
2E4
100
AcDbEntity
  8
mount
100
AcDbLine
 10
16.9099077565
 20
2.49349547276
 30
0.0
 11
17.332294728
 21
2.77111159494
 31
0.0
  0
LINE
  5
1EB
330
2E4
100
AcDbEntity
  8
mount
100
AcDbLine
 10
17.332294728
 20
2.77111159494
 30
0.0
 11
17.7960121569
 21
3.1248122063
 31
0.0
  0
LINE
  5
1EC
330
2E4
100
AcDbEntity
  8
mount
100
AcDbLine
 10
17.7960121569
 20
3.1248122063
 30
0.0
 11
18.2921551154
 21
3.56153916882
 31
0.0
  0
LINE
  5
1ED
330
2E4
100
AcDbEntity
  8
mount
100
AcDbLine
 10
18.2921551154
 20
3.56153916882
 30
0.0
 11
18.8110649294
 21
4.0873385279
 31
0.0
  0
LINE
  5
1EE
330
2E4
100
AcDbEntity
  8
mount
100
AcDbLine
 10
13.7875459253
 20
7.61354564959
 30
0.0
 11
13.8224274968
 21
7.63072723247
 31
0.0
  0
LINE
  5
1EF
330
2E4
100
AcDbEntity
  8
mount
100
AcDbLine
 10
13.8224274968
 20
7.63072723247
 30
0.0
 11
13.9300791905
 21
7.67563637408
 31
0.0
  0
LINE
  5
1F0
330
2E4
100
AcDbEntity
  8
mount
100
AcDbLine
 10
13.9300791905
 20
7.67563637408
 30
0.0
 11
14.1142132914
 21
7.73798960753
 31
0.0
  0
LINE
  5
1F1
330
2E4
100
AcDbEntity
  8
mount
100
AcDbLine
 10
14.1142132914
 20
7.73798960753
 30
0.0
 11
14.3774475868
 21
7.80714422137
 31
0.0
  0
LINE
  5
1F2
330
2E4
100
AcDbEntity
  8
mount
100
AcDbLine
 10
14.3774475868
 20
7.80714422137
 30
0.0
 11
14.7212750353
 21
7.87220181023
 31
0.0
  0
LINE
  5
1F3
330
2E4
100
AcDbEntity
  8
mount
100
AcDbLine
 10
14.7212750353
 20
7.87220181023
 30
0.0
 11
15.1460426139
 21
7.92211418405
 31
0.0
  0
LINE
  5
1F4
330
2E4
100
AcDbEntity
  8
mount
100
AcDbLine
 10
15.1460426139
 20
7.92211418405
 30
0.0
 11
15.6509395144
 21
7.94579085588
 31
0.0
  0
LINE
  5
1F5
330
2E4
100
AcDbEntity
  8
mount
100
AcDbLine
 10
15.6509395144
 20
7.94579085588
 30
0.0
 11
16.2339947981
 21
7.93220731631
 31
0.0
  0
LINE
  5
1F6
330
2E4
100
AcDbEntity
  8
mount
100
AcDbLine
 10
16.2339947981
 20
7.93220731631
 30
0.0
 11
16.892084551
 21
7.87051329576
 31
0.0
  0
LINE
  5
1F7
330
2E4
100
AcDbEntity
  8
mount
100
AcDbLine
 10
16.892084551
 20
7.87051329576
 30
0.0
 11
17.620948518
 21
7.75014021458
 31
0.0
  0
LINE
  5
1F8
330
2E4
100
AcDbEntity
  8
mount
100
AcDbLine
 10
18.8110649294
 20
4.0873385279
 30
0.0
 11
17.620948518
 21
7.75014021458
 31
0.0
  0
LINE
  5
1F9
330
2E4
100
AcDbEntity
  8
mount
100
AcDbLine
 10
13.7875459253
 20
7.61354564959
 30
0.0
 11
11.5014982038
 21
10.7600204028
 31
0.0
  0
LINE
  5
1FA
330
2E4
100
AcDbEntity
  8
mount
100
AcDbLine
 10
11.5014982038
 20
10.7600204028
 30
0.0
 11
11.5286178585
 21
10.7878853476
 31
0.0
  0
LINE
  5
1FB
330
2E4
100
AcDbEntity
  8
mount
100
AcDbLine
 10
11.5286178585
 20
10.7878853476
 30
0.0
 11
11.6045951931
 21
10.8763905044
 31
0.0
  0
LINE
  5
1FC
330
2E4
100
AcDbEntity
  8
mount
100
AcDbLine
 10
11.6045951931
 20
10.8763905044
 30
0.0
 11
11.7207972085
 21
11.0322442322
 31
0.0
  0
LINE
  5
1FD
330
2E4
100
AcDbEntity
  8
mount
100
AcDbLine
 10
11.7207972085
 20
11.0322442322
 30
0.0
 11
11.8679110254
 21
11.2612249731
 31
0.0
  0
LINE
  5
1FE
330
2E4
100
AcDbEntity
  8
mount
100
AcDbLine
 10
11.8679110254
 20
11.2612249731
 30
0.0
 11
12.036032994
 21
11.568120408
 31
0.0
  0
LINE
  5
1FF
330
2E4
100
AcDbEntity
  8
mount
100
AcDbLine
 10
12.036032994
 20
11.568120408
 30
0.0
 11
12.2147628828
 21
11.9566746098
 31
0.0
  0
LINE
  5
200
330
2E4
100
AcDbEntity
  8
mount
100
AcDbLine
 10
12.2147628828
 20
11.9566746098
 30
0.0
 11
12.3933024585
 21
12.4295436031
 31
0.0
  0
LINE
  5
201
330
2E4
100
AcDbEntity
  8
mount
100
AcDbLine
 10
12.3933024585
 20
12.4295436031
 30
0.0
 11
12.560557736
 21
12.9882596746
 31
0.0
  0
LINE
  5
202
330
2E4
100
AcDbEntity
  8
mount
100
AcDbLine
 10
12.560557736
 20
12.9882596746
 30
0.0
 11
12.7052441532
 21
13.6332047232
 31
0.0
  0
LINE
  5
203
330
2E4
100
AcDbEntity
  8
mount
100
AcDbLine
 10
12.7052441532
 20
13.6332047232
 30
0.0
 11
12.8159939023
 21
14.3635928762
 31
0.0
  0
LINE
  5
204
330
2E4
100
AcDbEntity
  8
mount
100
AcDbLine
 10
6.67922911379
 20
14.2636039782
 30
0.0
 11
6.6973498169
 21
14.298007044
 31
0.0
  0
LINE
  5
205
330
2E4
100
AcDbEntity
  8
mount
100
AcDbLine
 10
6.6973498169
 20
14.298007044
 30
0.0
 11
6.75804493546
 21
14.3976153807
 31
0.0
  0
LINE
  5
206
330
2E4
100
AcDbEntity
  8
mount
100
AcDbLine
 10
6.75804493546
 20
14.3976153807
 30
0.0
 11
6.87036224129
 21
14.5562915152
 31
0.0
  0
LINE
  5
207
330
2E4
100
AcDbEntity
  8
mount
100
AcDbLine
 10
6.87036224129
 20
14.5562915152
 30
0.0
 11
7.04267519758
 21
14.7669640097
 31
0.0
  0
LINE
  5
208
330
2E4
100
AcDbEntity
  8
mount
100
AcDbLine
 10
7.04267519758
 20
14.7669640097
 30
0.0
 11
7.28259755527
 21
15.0216934083
 31
0.0
  0
LINE
  5
209
330
2E4
100
AcDbEntity
  8
mount
100
AcDbLine
 10
7.28259755527
 20
15.0216934083
 30
0.0
 11
7.59690398781
 21
15.3117454853
 31
0.0
  0
LINE
  5
20A
330
2E4
100
AcDbEntity
  8
mount
100
AcDbLine
 10
7.59690398781
 20
15.3117454853
 30
0.0
 11
7.99145736222
 21
15.6276712673
 31
0.0
  0
LINE
  5
20B
330
2E4
100
AcDbEntity
  8
mount
100
AcDbLine
 10
7.99145736222
 20
15.6276712673
 30
0.0
 11
8.47114319958
 21
15.9593932499
 31
0.0
  0
LINE
  5
20C
330
2E4
100
AcDbEntity
  8
mount
100
AcDbLine
 10
8.47114319958
 20
15.9593932499
 30
0.0
 11
9.03981182893
 21
16.2962971903
 31
0.0
  0
LINE
  5
20D
330
2E4
100
AcDbEntity
  8
mount
100
AcDbLine
 10
9.03981182893
 20
16.2962971903
 30
0.0
 11
9.70022868674
 21
16.6273288127
 31
0.0
  0
LINE
  5
20E
330
2E4
100
AcDbEntity
  8
mount
100
AcDbLine
 10
12.8159939023
 20
14.3635928762
 30
0.0
 11
9.70022868674
 21
16.6273288127
 31
0.0
  0
LINE
  5
20F
330
2E4
100
AcDbEntity
  8
mount
100
AcDbLine
 10
6.67922911379
 20
14.2636039782
 30
0.0
 11
2.98032620052
 21
15.4654503891
 31
0.0
  0
LINE
  5
210
330
2E4
100
AcDbEntity
  8
mount
100
AcDbLine
 10
2.98032620052
 20
15.4654503891
 30
0.0
 11
2.98588785849
 21
15.5039341361
 31
0.0
  0
LINE
  5
211
330
2E4
100
AcDbEntity
  8
mount
100
AcDbLine
 10
2.98588785849
 20
15.5039341361
 30
0.0
 11
2.99533278743
 21
15.6201946689
 31
0.0
  0
LINE
  5
212
330
2E4
100
AcDbEntity
  8
mount
100
AcDbLine
 10
2.99533278743
 20
15.6201946689
 30
0.0
 11
2.99773366999
 21
15.8145848142
 31
0.0
  0
LINE
  5
213
330
2E4
100
AcDbEntity
  8
mount
100
AcDbLine
 10
2.99773366999
 20
15.8145848142
 30
0.0
 11
2.98215974535
 21
16.086305457
 31
0.0
  0
LINE
  5
214
330
2E4
100
AcDbEntity
  8
mount
100
AcDbLine
 10
2.98215974535
 20
16.086305457
 30
0.0
 11
2.93778466445
 21
16.433408693
 31
0.0
  0
LINE
  5
215
330
2E4
100
AcDbEntity
  8
mount
100
AcDbLine
 10
2.93778466445
 20
16.433408693
 30
0.0
 11
2.85399375235
 21
16.8528104383
 31
0.0
  0
LINE
  5
216
330
2E4
100
AcDbEntity
  8
mount
100
AcDbLine
 10
2.85399375235
 20
16.8528104383
 30
0.0
 11
2.72048988271
 21
17.3403124196
 31
0.0
  0
LINE
  5
217
330
2E4
100
AcDbEntity
  8
mount
100
AcDbLine
 10
2.72048988271
 20
17.3403124196
 30
0.0
 11
2.52739717758
 21
17.8906334018
 31
0.0
  0
LINE
  5
218
330
2E4
100
AcDbEntity
  8
mount
100
AcDbLine
 10
2.52739717758
 20
17.8906334018
 30
0.0
 11
2.26536175985
 21
18.4974494489
 31
0.0
  0
LINE
  5
219
330
2E4
100
AcDbEntity
  8
mount
100
AcDbLine
 10
2.26536175985
 20
18.4974494489
 30
0.0
 11
1.92564880421
 21
19.1534429464
 31
0.0
  0
LINE
  5
21A
330
2E4
100
AcDbEntity
  8
mount
100
AcDbLine
 10
-2.98032620052
 20
15.4654503891
 30
0.0
 11
-2.98588785849
 21
15.5039341361
 31
0.0
  0
LINE
  5
21B
330
2E4
100
AcDbEntity
  8
mount
100
AcDbLine
 10
-2.98588785849
 20
15.5039341361
 30
0.0
 11
-2.99533278743
 21
15.6201946689
 31
0.0
  0
LINE
  5
21C
330
2E4
100
AcDbEntity
  8
mount
100
AcDbLine
 10
-2.99533278743
 20
15.6201946689
 30
0.0
 11
-2.99773366999
 21
15.8145848142
 31
0.0
  0
LINE
  5
21D
330
2E4
100
AcDbEntity
  8
mount
100
AcDbLine
 10
-2.99773366999
 20
15.8145848142
 30
0.0
 11
-2.98215974535
 21
16.086305457
 31
0.0
  0
LINE
  5
21E
330
2E4
100
AcDbEntity
  8
mount
100
AcDbLine
 10
-2.98215974535
 20
16.086305457
 30
0.0
 11
-2.93778466445
 21
16.433408693
 31
0.0
  0
LINE
  5
21F
330
2E4
100
AcDbEntity
  8
mount
100
AcDbLine
 10
-2.93778466445
 20
16.433408693
 30
0.0
 11
-2.85399375235
 21
16.8528104383
 31
0.0
  0
LINE
  5
220
330
2E4
100
AcDbEntity
  8
mount
100
AcDbLine
 10
-2.85399375235
 20
16.8528104383
 30
0.0
 11
-2.72048988271
 21
17.3403124196
 31
0.0
  0
LINE
  5
221
330
2E4
100
AcDbEntity
  8
mount
100
AcDbLine
 10
-2.72048988271
 20
17.3403124196
 30
0.0
 11
-2.52739717758
 21
17.8906334018
 31
0.0
  0
LINE
  5
222
330
2E4
100
AcDbEntity
  8
mount
100
AcDbLine
 10
-2.52739717758
 20
17.8906334018
 30
0.0
 11
-2.26536175985
 21
18.4974494489
 31
0.0
  0
LINE
  5
223
330
2E4
100
AcDbEntity
  8
mount
100
AcDbLine
 10
-2.26536175985
 20
18.4974494489
 30
0.0
 11
-1.92564880421
 21
19.1534429464
 31
0.0
  0
LINE
  5
224
330
2E4
100
AcDbEntity
  8
mount
100
AcDbLine
 10
1.92564880421
 20
19.1534429464
 30
0.0
 11
-1.92564880421
 21
19.1534429464
 31
0.0
  0
LINE
  5
225
330
2E4
100
AcDbEntity
  8
mount
100
AcDbLine
 10
-2.98032620052
 20
15.4654503891
 30
0.0
 11
-6.67922911379
 21
14.2636039782
 31
0.0
  0
LINE
  5
226
330
2E4
100
AcDbEntity
  8
mount
100
AcDbLine
 10
-6.67922911379
 20
14.2636039782
 30
0.0
 11
-6.6973498169
 21
14.298007044
 31
0.0
  0
LINE
  5
227
330
2E4
100
AcDbEntity
  8
mount
100
AcDbLine
 10
-6.6973498169
 20
14.298007044
 30
0.0
 11
-6.75804493546
 21
14.3976153807
 31
0.0
  0
LINE
  5
228
330
2E4
100
AcDbEntity
  8
mount
100
AcDbLine
 10
-6.75804493546
 20
14.3976153807
 30
0.0
 11
-6.87036224129
 21
14.5562915152
 31
0.0
  0
LINE
  5
229
330
2E4
100
AcDbEntity
  8
mount
100
AcDbLine
 10
-6.87036224129
 20
14.5562915152
 30
0.0
 11
-7.04267519758
 21
14.7669640097
 31
0.0
  0
LINE
  5
22A
330
2E4
100
AcDbEntity
  8
mount
100
AcDbLine
 10
-7.04267519758
 20
14.7669640097
 30
0.0
 11
-7.28259755527
 21
15.0216934083
 31
0.0
  0
LINE
  5
22B
330
2E4
100
AcDbEntity
  8
mount
100
AcDbLine
 10
-7.28259755527
 20
15.0216934083
 30
0.0
 11
-7.59690398781
 21
15.3117454853
 31
0.0
  0
LINE
  5
22C
330
2E4
100
AcDbEntity
  8
mount
100
AcDbLine
 10
-7.59690398781
 20
15.3117454853
 30
0.0
 11
-7.99145736222
 21
15.6276712673
 31
0.0
  0
LINE
  5
22D
330
2E4
100
AcDbEntity
  8
mount
100
AcDbLine
 10
-7.99145736222
 20
15.6276712673
 30
0.0
 11
-8.47114319958
 21
15.9593932499
 31
0.0
  0
LINE
  5
22E
330
2E4
100
AcDbEntity
  8
mount
100
AcDbLine
 10
-8.47114319958
 20
15.9593932499
 30
0.0
 11
-9.03981182893
 21
16.2962971903
 31
0.0
  0
LINE
  5
22F
330
2E4
100
AcDbEntity
  8
mount
100
AcDbLine
 10
-9.03981182893
 20
16.2962971903
 30
0.0
 11
-9.70022868674
 21
16.6273288127
 31
0.0
  0
LINE
  5
230
330
2E4
100
AcDbEntity
  8
mount
100
AcDbLine
 10
-11.5014982038
 20
10.7600204028
 30
0.0
 11
-11.5286178585
 21
10.7878853476
 31
0.0
  0
LINE
  5
231
330
2E4
100
AcDbEntity
  8
mount
100
AcDbLine
 10
-11.5286178585
 20
10.7878853476
 30
0.0
 11
-11.6045951931
 21
10.8763905044
 31
0.0
  0
LINE
  5
232
330
2E4
100
AcDbEntity
  8
mount
100
AcDbLine
 10
-11.6045951931
 20
10.8763905044
 30
0.0
 11
-11.7207972085
 21
11.0322442322
 31
0.0
  0
LINE
  5
233
330
2E4
100
AcDbEntity
  8
mount
100
AcDbLine
 10
-11.7207972085
 20
11.0322442322
 30
0.0
 11
-11.8679110254
 21
11.2612249731
 31
0.0
  0
LINE
  5
234
330
2E4
100
AcDbEntity
  8
mount
100
AcDbLine
 10
-11.8679110254
 20
11.2612249731
 30
0.0
 11
-12.036032994
 21
11.568120408
 31
0.0
  0
LINE
  5
235
330
2E4
100
AcDbEntity
  8
mount
100
AcDbLine
 10
-12.036032994
 20
11.568120408
 30
0.0
 11
-12.2147628828
 21
11.9566746098
 31
0.0
  0
LINE
  5
236
330
2E4
100
AcDbEntity
  8
mount
100
AcDbLine
 10
-12.2147628828
 20
11.9566746098
 30
0.0
 11
-12.3933024585
 21
12.4295436031
 31
0.0
  0
LINE
  5
237
330
2E4
100
AcDbEntity
  8
mount
100
AcDbLine
 10
-12.3933024585
 20
12.4295436031
 30
0.0
 11
-12.560557736
 21
12.9882596746
 31
0.0
  0
LINE
  5
238
330
2E4
100
AcDbEntity
  8
mount
100
AcDbLine
 10
-12.560557736
 20
12.9882596746
 30
0.0
 11
-12.7052441532
 21
13.6332047232
 31
0.0
  0
LINE
  5
239
330
2E4
100
AcDbEntity
  8
mount
100
AcDbLine
 10
-12.7052441532
 20
13.6332047232
 30
0.0
 11
-12.8159939023
 21
14.3635928762
 31
0.0
  0
LINE
  5
23A
330
2E4
100
AcDbEntity
  8
mount
100
AcDbLine
 10
-9.70022868674
 20
16.6273288127
 30
0.0
 11
-12.8159939023
 21
14.3635928762
 31
0.0
  0
LINE
  5
23B
330
2E4
100
AcDbEntity
  8
mount
100
AcDbLine
 10
-11.5014982038
 20
10.7600204028
 30
0.0
 11
-13.7875459253
 21
7.61354564959
 31
0.0
  0
LINE
  5
23C
330
2E4
100
AcDbEntity
  8
mount
100
AcDbLine
 10
-13.7875459253
 20
7.61354564959
 30
0.0
 11
-13.8224274968
 21
7.63072723247
 31
0.0
  0
LINE
  5
23D
330
2E4
100
AcDbEntity
  8
mount
100
AcDbLine
 10
-13.8224274968
 20
7.63072723247
 30
0.0
 11
-13.9300791905
 21
7.67563637408
 31
0.0
  0
LINE
  5
23E
330
2E4
100
AcDbEntity
  8
mount
100
AcDbLine
 10
-13.9300791905
 20
7.67563637408
 30
0.0
 11
-14.1142132914
 21
7.73798960753
 31
0.0
  0
LINE
  5
23F
330
2E4
100
AcDbEntity
  8
mount
100
AcDbLine
 10
-14.1142132914
 20
7.73798960753
 30
0.0
 11
-14.3774475868
 21
7.80714422137
 31
0.0
  0
LINE
  5
240
330
2E4
100
AcDbEntity
  8
mount
100
AcDbLine
 10
-14.3774475868
 20
7.80714422137
 30
0.0
 11
-14.7212750353
 21
7.87220181023
 31
0.0
  0
LINE
  5
241
330
2E4
100
AcDbEntity
  8
mount
100
AcDbLine
 10
-14.7212750353
 20
7.87220181023
 30
0.0
 11
-15.1460426139
 21
7.92211418405
 31
0.0
  0
LINE
  5
242
330
2E4
100
AcDbEntity
  8
mount
100
AcDbLine
 10
-15.1460426139
 20
7.92211418405
 30
0.0
 11
-15.6509395144
 21
7.94579085588
 31
0.0
  0
LINE
  5
243
330
2E4
100
AcDbEntity
  8
mount
100
AcDbLine
 10
-15.6509395144
 20
7.94579085588
 30
0.0
 11
-16.2339947981
 21
7.93220731631
 31
0.0
  0
LINE
  5
244
330
2E4
100
AcDbEntity
  8
mount
100
AcDbLine
 10
-16.2339947981
 20
7.93220731631
 30
0.0
 11
-16.892084551
 21
7.87051329576
 31
0.0
  0
LINE
  5
245
330
2E4
100
AcDbEntity
  8
mount
100
AcDbLine
 10
-16.892084551
 20
7.87051329576
 30
0.0
 11
-17.620948518
 21
7.75014021458
 31
0.0
  0
LINE
  5
246
330
2E4
100
AcDbEntity
  8
mount
100
AcDbLine
 10
-15.6294888148
 20
1.94462834221
 30
0.0
 11
-15.6678076799
 21
1.95123102298
 31
0.0
  0
LINE
  5
247
330
2E4
100
AcDbEntity
  8
mount
100
AcDbLine
 10
-15.6678076799
 20
1.95123102298
 30
0.0
 11
-15.7812966608
 21
1.97817484217
 31
0.0
  0
LINE
  5
248
330
2E4
100
AcDbEntity
  8
mount
100
AcDbLine
 10
-15.7812966608
 20
1.97817484217
 30
0.0
 11
-15.9669145887
 21
2.03596132561
 31
0.0
  0
LINE
  5
249
330
2E4
100
AcDbEntity
  8
mount
100
AcDbLine
 10
-15.9669145887
 20
2.03596132561
 30
0.0
 11
-16.2205236693
 21
2.13473930448
 31
0.0
  0
LINE
  5
24A
330
2E4
100
AcDbEntity
  8
mount
100
AcDbLine
 10
-16.2205236693
 20
2.13473930448
 30
0.0
 11
-16.5369258095
 21
2.28420331304
 31
0.0
  0
LINE
  5
24B
330
2E4
100
AcDbEntity
  8
mount
100
AcDbLine
 10
-16.5369258095
 20
2.28420331304
 30
0.0
 11
-16.9099077565
 21
2.49349547276
 31
0.0
  0
LINE
  5
24C
330
2E4
100
AcDbEntity
  8
mount
100
AcDbLine
 10
-16.9099077565
 20
2.49349547276
 30
0.0
 11
-17.332294728
 21
2.77111159494
 31
0.0
  0
LINE
  5
24D
330
2E4
100
AcDbEntity
  8
mount
100
AcDbLine
 10
-17.332294728
 20
2.77111159494
 30
0.0
 11
-17.7960121569
 21
3.1248122063
 31
0.0
  0
LINE
  5
24E
330
2E4
100
AcDbEntity
  8
mount
100
AcDbLine
 10
-17.7960121569
 20
3.1248122063
 30
0.0
 11
-18.2921551154
 21
3.56153916882
 31
0.0
  0
LINE
  5
24F
330
2E4
100
AcDbEntity
  8
mount
100
AcDbLine
 10
-18.2921551154
 20
3.56153916882
 30
0.0
 11
-18.8110649294
 21
4.0873385279
 31
0.0
  0
LINE
  5
250
330
2E4
100
AcDbEntity
  8
mount
100
AcDbLine
 10
-17.620948518
 20
7.75014021458
 30
0.0
 11
-18.8110649294
 21
4.0873385279
 31
0.0
  0
LINE
  5
251
330
2E4
100
AcDbEntity
  8
mount
100
AcDbLine
 10
-15.6294888148
 20
1.94462834221
 30
0.0
 11
-15.6294888148
 21
-1.94462834221
 31
0.0
  0
LINE
  5
252
330
2E4
100
AcDbEntity
  8
mount
100
AcDbLine
 10
-15.6294888148
 20
-1.94462834221
 30
0.0
 11
-15.6678076799
 21
-1.95123102298
 31
0.0
  0
LINE
  5
253
330
2E4
100
AcDbEntity
  8
mount
100
AcDbLine
 10
-15.6678076799
 20
-1.95123102298
 30
0.0
 11
-15.7812966608
 21
-1.97817484217
 31
0.0
  0
LINE
  5
254
330
2E4
100
AcDbEntity
  8
mount
100
AcDbLine
 10
-15.7812966608
 20
-1.97817484217
 30
0.0
 11
-15.9669145887
 21
-2.03596132561
 31
0.0
  0
LINE
  5
255
330
2E4
100
AcDbEntity
  8
mount
100
AcDbLine
 10
-15.9669145887
 20
-2.03596132561
 30
0.0
 11
-16.2205236693
 21
-2.13473930448
 31
0.0
  0
LINE
  5
256
330
2E4
100
AcDbEntity
  8
mount
100
AcDbLine
 10
-16.2205236693
 20
-2.13473930448
 30
0.0
 11
-16.5369258095
 21
-2.28420331304
 31
0.0
  0
LINE
  5
257
330
2E4
100
AcDbEntity
  8
mount
100
AcDbLine
 10
-16.5369258095
 20
-2.28420331304
 30
0.0
 11
-16.9099077565
 21
-2.49349547276
 31
0.0
  0
LINE
  5
258
330
2E4
100
AcDbEntity
  8
mount
100
AcDbLine
 10
-16.9099077565
 20
-2.49349547276
 30
0.0
 11
-17.332294728
 21
-2.77111159494
 31
0.0
  0
LINE
  5
259
330
2E4
100
AcDbEntity
  8
mount
100
AcDbLine
 10
-17.332294728
 20
-2.77111159494
 30
0.0
 11
-17.7960121569
 21
-3.1248122063
 31
0.0
  0
LINE
  5
25A
330
2E4
100
AcDbEntity
  8
mount
100
AcDbLine
 10
-17.7960121569
 20
-3.1248122063
 30
0.0
 11
-18.2921551154
 21
-3.56153916882
 31
0.0
  0
LINE
  5
25B
330
2E4
100
AcDbEntity
  8
mount
100
AcDbLine
 10
-18.2921551154
 20
-3.56153916882
 30
0.0
 11
-18.8110649294
 21
-4.0873385279
 31
0.0
  0
LINE
  5
25C
330
2E4
100
AcDbEntity
  8
mount
100
AcDbLine
 10
-13.7875459253
 20
-7.61354564959
 30
0.0
 11
-13.8224274968
 21
-7.63072723247
 31
0.0
  0
LINE
  5
25D
330
2E4
100
AcDbEntity
  8
mount
100
AcDbLine
 10
-13.8224274968
 20
-7.63072723247
 30
0.0
 11
-13.9300791905
 21
-7.67563637408
 31
0.0
  0
LINE
  5
25E
330
2E4
100
AcDbEntity
  8
mount
100
AcDbLine
 10
-13.9300791905
 20
-7.67563637408
 30
0.0
 11
-14.1142132914
 21
-7.73798960753
 31
0.0
  0
LINE
  5
25F
330
2E4
100
AcDbEntity
  8
mount
100
AcDbLine
 10
-14.1142132914
 20
-7.73798960753
 30
0.0
 11
-14.3774475868
 21
-7.80714422137
 31
0.0
  0
LINE
  5
260
330
2E4
100
AcDbEntity
  8
mount
100
AcDbLine
 10
-14.3774475868
 20
-7.80714422137
 30
0.0
 11
-14.7212750353
 21
-7.87220181023
 31
0.0
  0
LINE
  5
261
330
2E4
100
AcDbEntity
  8
mount
100
AcDbLine
 10
-14.7212750353
 20
-7.87220181023
 30
0.0
 11
-15.1460426139
 21
-7.92211418405
 31
0.0
  0
LINE
  5
262
330
2E4
100
AcDbEntity
  8
mount
100
AcDbLine
 10
-15.1460426139
 20
-7.92211418405
 30
0.0
 11
-15.6509395144
 21
-7.94579085588
 31
0.0
  0
LINE
  5
263
330
2E4
100
AcDbEntity
  8
mount
100
AcDbLine
 10
-15.6509395144
 20
-7.94579085588
 30
0.0
 11
-16.2339947981
 21
-7.93220731631
 31
0.0
  0
LINE
  5
264
330
2E4
100
AcDbEntity
  8
mount
100
AcDbLine
 10
-16.2339947981
 20
-7.93220731631
 30
0.0
 11
-16.892084551
 21
-7.87051329576
 31
0.0
  0
LINE
  5
265
330
2E4
100
AcDbEntity
  8
mount
100
AcDbLine
 10
-16.892084551
 20
-7.87051329576
 30
0.0
 11
-17.620948518
 21
-7.75014021458
 31
0.0
  0
LINE
  5
266
330
2E4
100
AcDbEntity
  8
mount
100
AcDbLine
 10
-18.8110649294
 20
-4.0873385279
 30
0.0
 11
-17.620948518
 21
-7.75014021458
 31
0.0
  0
LINE
  5
267
330
2E4
100
AcDbEntity
  8
mount
100
AcDbLine
 10
-13.7875459253
 20
-7.61354564959
 30
0.0
 11
-11.5014982038
 21
-10.7600204028
 31
0.0
  0
LINE
  5
268
330
2E4
100
AcDbEntity
  8
mount
100
AcDbLine
 10
-11.5014982038
 20
-10.7600204028
 30
0.0
 11
-11.5286178585
 21
-10.7878853476
 31
0.0
  0
LINE
  5
269
330
2E4
100
AcDbEntity
  8
mount
100
AcDbLine
 10
-11.5286178585
 20
-10.7878853476
 30
0.0
 11
-11.6045951931
 21
-10.8763905044
 31
0.0
  0
LINE
  5
26A
330
2E4
100
AcDbEntity
  8
mount
100
AcDbLine
 10
-11.6045951931
 20
-10.8763905044
 30
0.0
 11
-11.7207972085
 21
-11.0322442322
 31
0.0
  0
LINE
  5
26B
330
2E4
100
AcDbEntity
  8
mount
100
AcDbLine
 10
-11.7207972085
 20
-11.0322442322
 30
0.0
 11
-11.8679110254
 21
-11.2612249731
 31
0.0
  0
LINE
  5
26C
330
2E4
100
AcDbEntity
  8
mount
100
AcDbLine
 10
-11.8679110254
 20
-11.2612249731
 30
0.0
 11
-12.036032994
 21
-11.568120408
 31
0.0
  0
LINE
  5
26D
330
2E4
100
AcDbEntity
  8
mount
100
AcDbLine
 10
-12.036032994
 20
-11.568120408
 30
0.0
 11
-12.2147628828
 21
-11.9566746098
 31
0.0
  0
LINE
  5
26E
330
2E4
100
AcDbEntity
  8
mount
100
AcDbLine
 10
-12.2147628828
 20
-11.9566746098
 30
0.0
 11
-12.3933024585
 21
-12.4295436031
 31
0.0
  0
LINE
  5
26F
330
2E4
100
AcDbEntity
  8
mount
100
AcDbLine
 10
-12.3933024585
 20
-12.4295436031
 30
0.0
 11
-12.560557736
 21
-12.9882596746
 31
0.0
  0
LINE
  5
270
330
2E4
100
AcDbEntity
  8
mount
100
AcDbLine
 10
-12.560557736
 20
-12.9882596746
 30
0.0
 11
-12.7052441532
 21
-13.6332047232
 31
0.0
  0
LINE
  5
271
330
2E4
100
AcDbEntity
  8
mount
100
AcDbLine
 10
-12.7052441532
 20
-13.6332047232
 30
0.0
 11
-12.8159939023
 21
-14.3635928762
 31
0.0
  0
LINE
  5
272
330
2E4
100
AcDbEntity
  8
mount
100
AcDbLine
 10
-6.67922911379
 20
-14.2636039782
 30
0.0
 11
-6.6973498169
 21
-14.298007044
 31
0.0
  0
LINE
  5
273
330
2E4
100
AcDbEntity
  8
mount
100
AcDbLine
 10
-6.6973498169
 20
-14.298007044
 30
0.0
 11
-6.75804493546
 21
-14.3976153807
 31
0.0
  0
LINE
  5
274
330
2E4
100
AcDbEntity
  8
mount
100
AcDbLine
 10
-6.75804493546
 20
-14.3976153807
 30
0.0
 11
-6.87036224129
 21
-14.5562915152
 31
0.0
  0
LINE
  5
275
330
2E4
100
AcDbEntity
  8
mount
100
AcDbLine
 10
-6.87036224129
 20
-14.5562915152
 30
0.0
 11
-7.04267519758
 21
-14.7669640097
 31
0.0
  0
LINE
  5
276
330
2E4
100
AcDbEntity
  8
mount
100
AcDbLine
 10
-7.04267519758
 20
-14.7669640097
 30
0.0
 11
-7.28259755527
 21
-15.0216934083
 31
0.0
  0
LINE
  5
277
330
2E4
100
AcDbEntity
  8
mount
100
AcDbLine
 10
-7.28259755527
 20
-15.0216934083
 30
0.0
 11
-7.59690398781
 21
-15.3117454853
 31
0.0
  0
LINE
  5
278
330
2E4
100
AcDbEntity
  8
mount
100
AcDbLine
 10
-7.59690398781
 20
-15.3117454853
 30
0.0
 11
-7.99145736222
 21
-15.6276712673
 31
0.0
  0
LINE
  5
279
330
2E4
100
AcDbEntity
  8
mount
100
AcDbLine
 10
-7.99145736222
 20
-15.6276712673
 30
0.0
 11
-8.47114319958
 21
-15.9593932499
 31
0.0
  0
LINE
  5
27A
330
2E4
100
AcDbEntity
  8
mount
100
AcDbLine
 10
-8.47114319958
 20
-15.9593932499
 30
0.0
 11
-9.03981182893
 21
-16.2962971903
 31
0.0
  0
LINE
  5
27B
330
2E4
100
AcDbEntity
  8
mount
100
AcDbLine
 10
-9.03981182893
 20
-16.2962971903
 30
0.0
 11
-9.70022868674
 21
-16.6273288127
 31
0.0
  0
LINE
  5
27C
330
2E4
100
AcDbEntity
  8
mount
100
AcDbLine
 10
-12.8159939023
 20
-14.3635928762
 30
0.0
 11
-9.70022868674
 21
-16.6273288127
 31
0.0
  0
LINE
  5
27D
330
2E4
100
AcDbEntity
  8
mount
100
AcDbLine
 10
-6.67922911379
 20
-14.2636039782
 30
0.0
 11
-2.98032620052
 21
-15.4654503891
 31
0.0
  0
LINE
  5
27E
330
2E4
100
AcDbEntity
  8
mount
100
AcDbLine
 10
-2.98032620052
 20
-15.4654503891
 30
0.0
 11
-2.98588785849
 21
-15.5039341361
 31
0.0
  0
LINE
  5
27F
330
2E4
100
AcDbEntity
  8
mount
100
AcDbLine
 10
-2.98588785849
 20
-15.5039341361
 30
0.0
 11
-2.99533278743
 21
-15.6201946689
 31
0.0
  0
LINE
  5
280
330
2E4
100
AcDbEntity
  8
mount
100
AcDbLine
 10
-2.99533278743
 20
-15.6201946689
 30
0.0
 11
-2.99773366999
 21
-15.8145848142
 31
0.0
  0
LINE
  5
281
330
2E4
100
AcDbEntity
  8
mount
100
AcDbLine
 10
-2.99773366999
 20
-15.8145848142
 30
0.0
 11
-2.98215974535
 21
-16.086305457
 31
0.0
  0
LINE
  5
282
330
2E4
100
AcDbEntity
  8
mount
100
AcDbLine
 10
-2.98215974535
 20
-16.086305457
 30
0.0
 11
-2.93778466445
 21
-16.433408693
 31
0.0
  0
LINE
  5
283
330
2E4
100
AcDbEntity
  8
mount
100
AcDbLine
 10
-2.93778466445
 20
-16.433408693
 30
0.0
 11
-2.85399375235
 21
-16.8528104383
 31
0.0
  0
LINE
  5
284
330
2E4
100
AcDbEntity
  8
mount
100
AcDbLine
 10
-2.85399375235
 20
-16.8528104383
 30
0.0
 11
-2.72048988271
 21
-17.3403124196
 31
0.0
  0
LINE
  5
285
330
2E4
100
AcDbEntity
  8
mount
100
AcDbLine
 10
-2.72048988271
 20
-17.3403124196
 30
0.0
 11
-2.52739717758
 21
-17.8906334018
 31
0.0
  0
LINE
  5
286
330
2E4
100
AcDbEntity
  8
mount
100
AcDbLine
 10
-2.52739717758
 20
-17.8906334018
 30
0.0
 11
-2.26536175985
 21
-18.4974494489
 31
0.0
  0
LINE
  5
287
330
2E4
100
AcDbEntity
  8
mount
100
AcDbLine
 10
-2.26536175985
 20
-18.4974494489
 30
0.0
 11
-1.92564880421
 21
-19.1534429464
 31
0.0
  0
LINE
  5
288
330
2E4
100
AcDbEntity
  8
mount
100
AcDbLine
 10
2.98032620052
 20
-15.4654503891
 30
0.0
 11
2.98588785849
 21
-15.5039341361
 31
0.0
  0
LINE
  5
289
330
2E4
100
AcDbEntity
  8
mount
100
AcDbLine
 10
2.98588785849
 20
-15.5039341361
 30
0.0
 11
2.99533278743
 21
-15.6201946689
 31
0.0
  0
LINE
  5
28A
330
2E4
100
AcDbEntity
  8
mount
100
AcDbLine
 10
2.99533278743
 20
-15.6201946689
 30
0.0
 11
2.99773366999
 21
-15.8145848142
 31
0.0
  0
LINE
  5
28B
330
2E4
100
AcDbEntity
  8
mount
100
AcDbLine
 10
2.99773366999
 20
-15.8145848142
 30
0.0
 11
2.98215974535
 21
-16.086305457
 31
0.0
  0
LINE
  5
28C
330
2E4
100
AcDbEntity
  8
mount
100
AcDbLine
 10
2.98215974535
 20
-16.086305457
 30
0.0
 11
2.93778466445
 21
-16.433408693
 31
0.0
  0
LINE
  5
28D
330
2E4
100
AcDbEntity
  8
mount
100
AcDbLine
 10
2.93778466445
 20
-16.433408693
 30
0.0
 11
2.85399375235
 21
-16.8528104383
 31
0.0
  0
LINE
  5
28E
330
2E4
100
AcDbEntity
  8
mount
100
AcDbLine
 10
2.85399375235
 20
-16.8528104383
 30
0.0
 11
2.72048988271
 21
-17.3403124196
 31
0.0
  0
LINE
  5
28F
330
2E4
100
AcDbEntity
  8
mount
100
AcDbLine
 10
2.72048988271
 20
-17.3403124196
 30
0.0
 11
2.52739717758
 21
-17.8906334018
 31
0.0
  0
LINE
  5
290
330
2E4
100
AcDbEntity
  8
mount
100
AcDbLine
 10
2.52739717758
 20
-17.8906334018
 30
0.0
 11
2.26536175985
 21
-18.4974494489
 31
0.0
  0
LINE
  5
291
330
2E4
100
AcDbEntity
  8
mount
100
AcDbLine
 10
2.26536175985
 20
-18.4974494489
 30
0.0
 11
1.92564880421
 21
-19.1534429464
 31
0.0
  0
LINE
  5
292
330
2E4
100
AcDbEntity
  8
mount
100
AcDbLine
 10
-1.92564880421
 20
-19.1534429464
 30
0.0
 11
1.92564880421
 21
-19.1534429464
 31
0.0
  0
LINE
  5
293
330
2E4
100
AcDbEntity
  8
mount
100
AcDbLine
 10
2.98032620052
 20
-15.4654503891
 30
0.0
 11
6.67922911379
 21
-14.2636039782
 31
0.0
  0
LINE
  5
294
330
2E4
100
AcDbEntity
  8
mount
100
AcDbLine
 10
6.67922911379
 20
-14.2636039782
 30
0.0
 11
6.6973498169
 21
-14.298007044
 31
0.0
  0
LINE
  5
295
330
2E4
100
AcDbEntity
  8
mount
100
AcDbLine
 10
6.6973498169
 20
-14.298007044
 30
0.0
 11
6.75804493546
 21
-14.3976153807
 31
0.0
  0
LINE
  5
296
330
2E4
100
AcDbEntity
  8
mount
100
AcDbLine
 10
6.75804493546
 20
-14.3976153807
 30
0.0
 11
6.87036224129
 21
-14.5562915152
 31
0.0
  0
LINE
  5
297
330
2E4
100
AcDbEntity
  8
mount
100
AcDbLine
 10
6.87036224129
 20
-14.5562915152
 30
0.0
 11
7.04267519758
 21
-14.7669640097
 31
0.0
  0
LINE
  5
298
330
2E4
100
AcDbEntity
  8
mount
100
AcDbLine
 10
7.04267519758
 20
-14.7669640097
 30
0.0
 11
7.28259755527
 21
-15.0216934083
 31
0.0
  0
LINE
  5
299
330
2E4
100
AcDbEntity
  8
mount
100
AcDbLine
 10
7.28259755527
 20
-15.0216934083
 30
0.0
 11
7.59690398781
 21
-15.3117454853
 31
0.0
  0
LINE
  5
29A
330
2E4
100
AcDbEntity
  8
mount
100
AcDbLine
 10
7.59690398781
 20
-15.3117454853
 30
0.0
 11
7.99145736222
 21
-15.6276712673
 31
0.0
  0
LINE
  5
29B
330
2E4
100
AcDbEntity
  8
mount
100
AcDbLine
 10
7.99145736222
 20
-15.6276712673
 30
0.0
 11
8.47114319958
 21
-15.9593932499
 31
0.0
  0
LINE
  5
29C
330
2E4
100
AcDbEntity
  8
mount
100
AcDbLine
 10
8.47114319958
 20
-15.9593932499
 30
0.0
 11
9.03981182893
 21
-16.2962971903
 31
0.0
  0
LINE
  5
29D
330
2E4
100
AcDbEntity
  8
mount
100
AcDbLine
 10
9.03981182893
 20
-16.2962971903
 30
0.0
 11
9.70022868674
 21
-16.6273288127
 31
0.0
  0
LINE
  5
29E
330
2E4
100
AcDbEntity
  8
mount
100
AcDbLine
 10
11.5014982038
 20
-10.7600204028
 30
0.0
 11
11.5286178585
 21
-10.7878853476
 31
0.0
  0
LINE
  5
29F
330
2E4
100
AcDbEntity
  8
mount
100
AcDbLine
 10
11.5286178585
 20
-10.7878853476
 30
0.0
 11
11.6045951931
 21
-10.8763905044
 31
0.0
  0
LINE
  5
2A0
330
2E4
100
AcDbEntity
  8
mount
100
AcDbLine
 10
11.6045951931
 20
-10.8763905044
 30
0.0
 11
11.7207972085
 21
-11.0322442322
 31
0.0
  0
LINE
  5
2A1
330
2E4
100
AcDbEntity
  8
mount
100
AcDbLine
 10
11.7207972085
 20
-11.0322442322
 30
0.0
 11
11.8679110254
 21
-11.2612249731
 31
0.0
  0
LINE
  5
2A2
330
2E4
100
AcDbEntity
  8
mount
100
AcDbLine
 10
11.8679110254
 20
-11.2612249731
 30
0.0
 11
12.036032994
 21
-11.568120408
 31
0.0
  0
LINE
  5
2A3
330
2E4
100
AcDbEntity
  8
mount
100
AcDbLine
 10
12.036032994
 20
-11.568120408
 30
0.0
 11
12.2147628828
 21
-11.9566746098
 31
0.0
  0
LINE
  5
2A4
330
2E4
100
AcDbEntity
  8
mount
100
AcDbLine
 10
12.2147628828
 20
-11.9566746098
 30
0.0
 11
12.3933024585
 21
-12.4295436031
 31
0.0
  0
LINE
  5
2A5
330
2E4
100
AcDbEntity
  8
mount
100
AcDbLine
 10
12.3933024585
 20
-12.4295436031
 30
0.0
 11
12.560557736
 21
-12.9882596746
 31
0.0
  0
LINE
  5
2A6
330
2E4
100
AcDbEntity
  8
mount
100
AcDbLine
 10
12.560557736
 20
-12.9882596746
 30
0.0
 11
12.7052441532
 21
-13.6332047232
 31
0.0
  0
LINE
  5
2A7
330
2E4
100
AcDbEntity
  8
mount
100
AcDbLine
 10
12.7052441532
 20
-13.6332047232
 30
0.0
 11
12.8159939023
 21
-14.3635928762
 31
0.0
  0
LINE
  5
2A8
330
2E4
100
AcDbEntity
  8
mount
100
AcDbLine
 10
9.70022868674
 20
-16.6273288127
 30
0.0
 11
12.8159939023
 21
-14.3635928762
 31
0.0
  0
LINE
  5
2A9
330
2E4
100
AcDbEntity
  8
mount
100
AcDbLine
 10
11.5014982038
 20
-10.7600204028
 30
0.0
 11
13.7875459253
 21
-7.61354564959
 31
0.0
  0
LINE
  5
2AA
330
2E4
100
AcDbEntity
  8
mount
100
AcDbLine
 10
13.7875459253
 20
-7.61354564959
 30
0.0
 11
13.8224274968
 21
-7.63072723247
 31
0.0
  0
LINE
  5
2AB
330
2E4
100
AcDbEntity
  8
mount
100
AcDbLine
 10
13.8224274968
 20
-7.63072723247
 30
0.0
 11
13.9300791905
 21
-7.67563637408
 31
0.0
  0
LINE
  5
2AC
330
2E4
100
AcDbEntity
  8
mount
100
AcDbLine
 10
13.9300791905
 20
-7.67563637408
 30
0.0
 11
14.1142132914
 21
-7.73798960753
 31
0.0
  0
LINE
  5
2AD
330
2E4
100
AcDbEntity
  8
mount
100
AcDbLine
 10
14.1142132914
 20
-7.73798960753
 30
0.0
 11
14.3774475868
 21
-7.80714422137
 31
0.0
  0
LINE
  5
2AE
330
2E4
100
AcDbEntity
  8
mount
100
AcDbLine
 10
14.3774475868
 20
-7.80714422137
 30
0.0
 11
14.7212750353
 21
-7.87220181023
 31
0.0
  0
LINE
  5
2AF
330
2E4
100
AcDbEntity
  8
mount
100
AcDbLine
 10
14.7212750353
 20
-7.87220181023
 30
0.0
 11
15.1460426139
 21
-7.92211418405
 31
0.0
  0
LINE
  5
2B0
330
2E4
100
AcDbEntity
  8
mount
100
AcDbLine
 10
15.1460426139
 20
-7.92211418405
 30
0.0
 11
15.6509395144
 21
-7.94579085588
 31
0.0
  0
LINE
  5
2B1
330
2E4
100
AcDbEntity
  8
mount
100
AcDbLine
 10
15.6509395144
 20
-7.94579085588
 30
0.0
 11
16.2339947981
 21
-7.93220731631
 31
0.0
  0
LINE
  5
2B2
330
2E4
100
AcDbEntity
  8
mount
100
AcDbLine
 10
16.2339947981
 20
-7.93220731631
 30
0.0
 11
16.892084551
 21
-7.87051329576
 31
0.0
  0
LINE
  5
2B3
330
2E4
100
AcDbEntity
  8
mount
100
AcDbLine
 10
16.892084551
 20
-7.87051329576
 30
0.0
 11
17.620948518
 21
-7.75014021458
 31
0.0
  0
LINE
  5
2B4
330
2E4
100
AcDbEntity
  8
mount
100
AcDbLine
 10
15.6294888148
 20
-1.94462834221
 30
0.0
 11
15.6678076799
 21
-1.95123102298
 31
0.0
  0
LINE
  5
2B5
330
2E4
100
AcDbEntity
  8
mount
100
AcDbLine
 10
15.6678076799
 20
-1.95123102298
 30
0.0
 11
15.7812966608
 21
-1.97817484217
 31
0.0
  0
LINE
  5
2B6
330
2E4
100
AcDbEntity
  8
mount
100
AcDbLine
 10
15.7812966608
 20
-1.97817484217
 30
0.0
 11
15.9669145887
 21
-2.03596132561
 31
0.0
  0
LINE
  5
2B7
330
2E4
100
AcDbEntity
  8
mount
100
AcDbLine
 10
15.9669145887
 20
-2.03596132561
 30
0.0
 11
16.2205236693
 21
-2.13473930448
 31
0.0
  0
LINE
  5
2B8
330
2E4
100
AcDbEntity
  8
mount
100
AcDbLine
 10
16.2205236693
 20
-2.13473930448
 30
0.0
 11
16.5369258095
 21
-2.28420331304
 31
0.0
  0
LINE
  5
2B9
330
2E4
100
AcDbEntity
  8
mount
100
AcDbLine
 10
16.5369258095
 20
-2.28420331304
 30
0.0
 11
16.9099077565
 21
-2.49349547276
 31
0.0
  0
LINE
  5
2BA
330
2E4
100
AcDbEntity
  8
mount
100
AcDbLine
 10
16.9099077565
 20
-2.49349547276
 30
0.0
 11
17.332294728
 21
-2.77111159494
 31
0.0
  0
LINE
  5
2BB
330
2E4
100
AcDbEntity
  8
mount
100
AcDbLine
 10
17.332294728
 20
-2.77111159494
 30
0.0
 11
17.7960121569
 21
-3.1248122063
 31
0.0
  0
LINE
  5
2BC
330
2E4
100
AcDbEntity
  8
mount
100
AcDbLine
 10
17.7960121569
 20
-3.1248122063
 30
0.0
 11
18.2921551154
 21
-3.56153916882
 31
0.0
  0
LINE
  5
2BD
330
2E4
100
AcDbEntity
  8
mount
100
AcDbLine
 10
18.2921551154
 20
-3.56153916882
 30
0.0
 11
18.8110649294
 21
-4.0873385279
 31
0.0
  0
LINE
  5
2BE
330
2E4
100
AcDbEntity
  8
mount
100
AcDbLine
 10
17.620948518
 20
-7.75014021458
 30
0.0
 11
18.8110649294
 21
-4.0873385279
 31
0.0
  0
CIRCLE
  5
2C0
330
2E4
100
AcDbEntity
  8
mount
100
AcDbCircle
 10
0.0
 20
0.0
 30
0.0
 40
4.02
  0
CIRCLE
  5
2C1
330
2E4
100
AcDbEntity
  8
mount
100
AcDbCircle
 10
-8.5
 20
0.0
 30
0.0
 40
1.05
  0
CIRCLE
  5
2C2
330
2E4
100
AcDbEntity
  8
mount
100
AcDbCircle
 10
8.5
 20
0.0
 30
0.0
 40
1.05
  0
CIRCLE
  5
2C3
330
2E4
100
AcDbEntity
  8
drive
100
AcDbCircle
 10
0.0
 20
0.0
 30
0.0
 40
2.95
  0
CIRCLE
  5
2C4
330
2E4
100
AcDbEntity
  8
drive
100
AcDbCircle
 10
-8.5
 20
0.0
 30
0.0
 40
2.95
  0
CIRCLE
  5
2C5
330
2E4
100
AcDbEntity
  8
drive
100
AcDbCircle
 10
8.5
 20
0.0
 30
0.0
 40
2.95
  0
ENDSEC
  0
SECTION
  2
OBJECTS
  0
DICTIONARY
  5
2D2
330
0
100
AcDbDictionary
281
     1
  3
ACAD_GROUP
350
2D3
  3
ACAD_LAYOUT
350
2DF
  3
ACAD_MATERIAL
350
300
  3
ACAD_MLEADERSTYLE
350
330
  3
ACAD_MLINESTYLE
350
2DC
  3
ACAD_PLOTSETTINGS
350
2DE
  3
ACAD_PLOTSTYLENAME
350
2D4
  3
ACAD_TABLESTYLE
350
32F
  3
ACAD_VISUALSTYLE
350
2EF
  3
QCAD_OBJECTS
350
305
  0
DICTIONARY
  5
2D3
102
{ACAD_REACTORS
330
2D2
102
}
330
2D2
100
AcDbDictionary
281
     1
  0
DICTIONARY
  5
2DF
102
{ACAD_REACTORS
330
2D2
102
}
330
2D2
100
AcDbDictionary
281
     1
  3
Layout1
350
2E3
  3
Layout2
350
2EB
  3
Model
350
2E7
  0
DICTIONARY
  5
300
102
{ACAD_REACTORS
330
2D2
102
}
330
2D2
100
AcDbDictionary
281
     1
  3
ByBlock
350
302
  3
ByLayer
350
301
  3
Global
350
303
  0
DICTIONARY
  5
330
102
{ACAD_REACTORS
330
2D2
102
}
330
2D2
100
AcDbDictionary
281
     1
  0
DICTIONARY
  5
2DC
102
{ACAD_REACTORS
330
2D2
102
}
330
2D2
100
AcDbDictionary
281
     1
  3
Standard
350
2DD
  0
DICTIONARY
  5
2DE
102
{ACAD_REACTORS
330
2D2
102
}
330
2D2
100
AcDbDictionary
281
     1
  0
ACDBDICTIONARYWDFLT
  5
2D4
102
{ACAD_REACTORS
330
2D2
102
}
330
2D2
100
AcDbDictionary
281
     1
  3
Normal
350
2D5
100
AcDbDictionaryWithDefault
340
2D5
  0
DICTIONARY
  5
32F
102
{ACAD_REACTORS
330
2D2
102
}
330
2D2
100
AcDbDictionary
281
     1
  0
DICTIONARY
  5
2EF
102
{ACAD_REACTORS
330
2D2
102
}
330
2D2
100
AcDbDictionary
281
     1
  3
2dWireframe
350
2F4
  3
3D Hidden
350
2F6
  3
3dWireframe
350
2F5
  3
Basic
350
2F7
  3
Brighten
350
2FB
  3
ColorChange
350
2FF
  3
Conceptual
350
2F9
  3
Dim
350
2FA
  3
Facepattern
350
2FE
  3
Flat
350
2F0
  3
FlatWithEdges
350
2F1
  3
Gouraud
350
2F2
  3
GouraudWithEdges
350
2F3
  3
Linepattern
350
2FD
  3
Realistic
350
2F8
  3
Thicken
350
2FC
  0
DICTIONARY
  5
305
102
{ACAD_REACTORS
330
2D2
102
}
330
2D2
100
AcDbDictionary
281
     1
  3
Grid/DisplayGrid
350
315
  3
Grid/GridSpacingX
350
30E
  3
Grid/GridSpacingY
350
30F
  3
Grid/MetaGridSpacingX
350
309
  3
Grid/MetaGridSpacingY
350
30C
  3
MultiPageSettings/Columns
350
30D
  3
MultiPageSettings/GlueMarginsBottom
350
312
  3
MultiPageSettings/GlueMarginsLeft
350
310
  3
MultiPageSettings/GlueMarginsRight
350
306
  3
MultiPageSettings/GlueMarginsTop
350
319
  3
MultiPageSettings/PrintCropMarks
350
308
  3
MultiPageSettings/Rows
350
311
  3
PageSettings/OffsetX
350
317
  3
PageSettings/OffsetY
350
318
  3
PageSettings/PageOrientation
350
307
  3
PageSettings/PaperHeight
350
30A
  3
PageSettings/PaperWidth
350
313
  3
PageSettings/Scale
350
30B
  3
PageSettings/ShowPaperBorders
350
316
  3
UnitSettings/PaperUnit
350
314
  0
LAYOUT
  5
2E3
102
{ACAD_REACTORS
330
2DF
102
}
330
2DF
100
AcDbPlotSettings
  1

  2
none_device
  4

  6

 40
0.0
 41
0.0
 42
0.0
 43
0.0
 44
0.0
 45
0.0
 46
0.0
 47
0.0
 48
0.0
 49
0.0
140
0.0
141
0.0
142
1.0
143
1.0
 70
   688
 72
     0
 73
     0
 74
     5
  7

 75
    16
 76
     0
 77
     2
 78
   300
147
1.0
148
0.0
149
0.0
100
AcDbLayout
  1
Layout1
 70
     1
 71
     1
 10
0.0
 20
0.0
 11
12.0
 21
9.0
 12
0.0
 22
0.0
 32
0.0
 14
1.000000000000000E+20
 24
1.000000000000000E+20
 34
1.000000000000000E+20
 15
-1.000000000000000E+20
 25
-1.000000000000000E+20
 35
-1.000000000000000E+20
146
0.0
 13
0.0
 23
0.0
 33
0.0
 16
1.0
 26
0.0
 36
0.0
 17
0.0
 27
1.0
 37
0.0
 76
     0
330
2E0
  0
LAYOUT
  5
2EB
102
{ACAD_REACTORS
330
2DF
102
}
330
2DF
100
AcDbPlotSettings
  1

  2
none_device
  4

  6

 40
0.0
 41
0.0
 42
0.0
 43
0.0
 44
0.0
 45
0.0
 46
0.0
 47
0.0
 48
0.0
 49
0.0
140
0.0
141
0.0
142
1.0
143
1.0
 70
   688
 72
     0
 73
     0
 74
     5
  7

 75
    16
 76
     0
 77
     2
 78
   300
147
1.0
148
0.0
149
0.0
100
AcDbLayout
  1
Layout2
 70
     1
 71
     2
 10
0.0
 20
0.0
 11
0.0
 21
0.0
 12
0.0
 22
0.0
 32
0.0
 14
0.0
 24
0.0
 34
0.0
 15
0.0
 25
0.0
 35
0.0
146
0.0
 13
0.0
 23
0.0
 33
0.0
 16
1.0
 26
0.0
 36
0.0
 17
0.0
 27
1.0
 37
0.0
 76
     0
330
2E8
  0
LAYOUT
  5
2E7
102
{ACAD_REACTORS
330
2DF
102
}
330
2DF
100
AcDbPlotSettings
  1

  2
none_device
  4

  6

 40
0.0
 41
0.0
 42
0.0
 43
0.0
 44
0.0
 45
0.0
 46
0.0
 47
0.0
 48
0.0
 49
0.0
140
0.0
141
0.0
142
1.0
143
1.0
 70
  1712
 72
     0
 73
     0
 74
     0
  7

 75
     0
 76
     0
 77
     2
 78
   300
147
1.0
148
0.0
149
0.0
100
AcDbLayout
  1
Model
 70
     1
 71
     0
 10
0.0
 20
0.0
 11
12.0
 21
9.0
 12
0.0
 22
0.0
 32
0.0
 14
1.000000000000000E+20
 24
1.000000000000000E+20
 34
1.000000000000000E+20
 15
-1.000000000000000E+20
 25
-1.000000000000000E+20
 35
-1.000000000000000E+20
146
0.0
 13
0.0
 23
0.0
 33
0.0
 16
1.0
 26
0.0
 36
0.0
 17
0.0
 27
1.0
 37
0.0
 76
     0
330
2E4
331
2EE
  0
MATERIAL
  5
302
102
{ACAD_REACTORS
330
300
102
}
330
300
100
AcDbMaterial
  1
ByBlock
 72
     1
 94
      127
  0
MATERIAL
  5
301
102
{ACAD_REACTORS
330
300
102
}
330
300
100
AcDbMaterial
  1
ByLayer
 72
     1
 94
      127
  0
MATERIAL
  5
303
102
{ACAD_REACTORS
330
300
102
}
330
300
100
AcDbMaterial
  1
Global
 72
     1
 94
      127
  0
MLINESTYLE
  5
2DD
102
{ACAD_REACTORS
330
2DC
102
}
330
2DC
100
AcDbMlineStyle
  2
Standard
 70
     0
  3

 62
   256
 51
90.0
 52
90.0
 71
     2
 49
0.5
 62
   256
  6
BYLAYER
 49
-0.5
 62
   256
  6
BYLAYER
  0
ACDBPLACEHOLDER
  5
2D5
102
{ACAD_REACTORS
330
2D4
102
}
330
2D4
  0
VISUALSTYLE
  5
2F4
102
{ACAD_REACTORS
330
2EF
102
}
330
2EF
100
AcDbVisualStyle
  2
2dWireframe
 70
     4
177
     2
291
     0
 71
     0
176
     1
 72
     2
176
     1
 73
     0
176
     1
 90
        0
176
     1
 40
-0.6
176
     1
 41
-30.0
176
     1
 62
     5
 63
     7
421
 16777215
176
     1
 74
     1
176
     1
 91
        4
176
     1
 64
     7
176
     1
 65
   257
176
     1
 75
     1
176
     1
175
     1
176
     1
 42
1.0
176
     1
 92
        0
176
     1
 66
   257
176
     1
 43
1.0
176
     1
 76
     1
176
     1
 77
     6
176
     1
 78
     2
176
     1
 67
     7
176
     1
 79
     5
176
     1
170
     0
176
     1
171
     0
176
     1
290
     0
176
     1
 93
        1
176
     1
 44
0.0
176
     1
173
     0
176
     1
  0
VISUALSTYLE
  5
2F6
102
{ACAD_REACTORS
330
2EF
102
}
330
2EF
100
AcDbVisualStyle
  2
3D Hidden
 70
     6
177
     2
291
     0
 71
     1
176
     1
 72
     2
176
     1
 73
     2
176
     1
 90
        0
176
     1
 40
-0.6
176
     1
 41
-30.0
176
     1
 62
     5
 63
     7
421
 16777215
176
     1
 74
     2
176
     1
 91
        2
176
     1
 64
     7
176
     1
 65
   257
176
     1
 75
     2
176
     1
175
     1
176
     1
 42
40.0
176
     1
 92
        0
176
     1
 66
   257
176
     1
 43
1.0
176
     1
 76
     1
176
     1
 77
     6
176
     1
 78
     2
176
     1
 67
     7
176
     1
 79
     3
176
     1
170
     0
176
     1
171
     0
176
     1
290
     0
176
     1
 93
        1
176
     1
 44
0.0
176
     1
173
     0
176
     1
  0
VISUALSTYLE
  5
2F5
102
{ACAD_REACTORS
330
2EF
102
}
330
2EF
100
AcDbVisualStyle
  2
3dWireframe
 70
     5
177
     2
291
     0
 71
     0
176
     1
 72
     2
176
     1
 73
     0
176
     1
 90
        0
176
     1
 40
-0.6
176
     1
 41
-30.0
176
     1
 62
     5
 63
     7
421
 16777215
176
     1
 74
     1
176
     1
 91
        4
176
     1
 64
     7
176
     1
 65
   257
176
     1
 75
     1
176
     1
175
     1
176
     1
 42
1.0
176
     1
 92
        0
176
     1
 66
   257
176
     1
 43
1.0
176
     1
 76
     1
176
     1
 77
     6
176
     1
 78
     2
176
     1
 67
     7
176
     1
 79
     5
176
     1
170
     0
176
     1
171
     0
176
     1
290
     0
176
     1
 93
        1
176
     1
 44
0.0
176
     1
173
     0
176
     1
  0
VISUALSTYLE
  5
2F7
102
{ACAD_REACTORS
330
2EF
102
}
330
2EF
100
AcDbVisualStyle
  2
Basic
 70
     7
177
     2
291
     1
 71
     1
176
     1
 72
     0
176
     1
 73
     1
176
     1
 90
        0
176
     1
 40
-0.6
176
     1
 41
-30.0
176
     1
 62
     5
 63
     7
421
 16777215
176
     1
 74
     0
176
     1
 91
        4
176
     1
 64
     7
176
     1
 65
   257
176
     1
 75
     1
176
     1
175
     1
176
     1
 42
1.0
176
     1
 92
        8
176
     1
 66
     7
176
     1
 43
1.0
176
     1
 76
     1
176
     1
 77
     6
176
     1
 78
     2
176
     1
 67
     7
176
     1
 79
     5
176
     1
170
     0
176
     1
171
     0
176
     1
290
     0
176
     1
 93
        1
176
     1
 44
0.0
176
     1
173
     0
176
     1
  0
VISUALSTYLE
  5
2FB
102
{ACAD_REACTORS
330
2EF
102
}
330
2EF
100
AcDbVisualStyle
  2
Brighten
 70
    12
177
     2
291
     1
 71
     2
176
     1
 72
     2
176
     1
 73
     0
176
     1
 90
        0
176
     1
 40
-0.6
176
     1
 41
-30.0
176
     1
 62
     5
 63
     7
421
 16777215
176
     1
 74
     1
176
     1
 91
        4
176
     1
 64
     7
176
     1
 65
   257
176
     1
 75
     1
176
     1
175
     1
176
     1
 42
1.0
176
     1
 92
        8
176
     1
 66
     7
176
     1
 43
1.0
176
     1
 76
     1
176
     1
 77
     6
176
     1
 78
     2
176
     1
 67
     7
176
     1
 79
     5
176
     1
170
     0
176
     1
171
     0
176
     1
290
     0
176
     1
 93
        1
176
     1
 44
50.0
176
     1
173
     0
176
     1
  0
VISUALSTYLE
  5
2FF
102
{ACAD_REACTORS
330
2EF
102
}
330
2EF
100
AcDbVisualStyle
  2
ColorChange
 70
    16
177
     2
291
     1
 71
     2
176
     1
 72
     2
176
     1
 73
     3
176
     1
 90
        0
176
     1
 40
-0.6
176
     1
 41
-30.0
176
     1
 62
     5
 63
     8
421
  8421504
176
     1
 74
     1
176
     1
 91
        4
176
     1
 64
     7
176
     1
 65
   257
176
     1
 75
     1
176
     1
175
     1
176
     1
 42
1.0
176
     1
 92
        8
176
     1
 66
     8
424
  8421504
176
     1
 43
1.0
176
     1
 76
     1
176
     1
 77
     6
176
     1
 78
     2
176
     1
 67
     7
176
     1
 79
     5
176
     1
170
     0
176
     1
171
     0
176
     1
290
     0
176
     1
 93
        1
176
     1
 44
0.0
176
     1
173
     0
176
     1
  0
VISUALSTYLE
  5
2F9
102
{ACAD_REACTORS
330
2EF
102
}
330
2EF
100
AcDbVisualStyle
  2
Conceptual
 70
     9
177
     2
291
     0
 71
     3
176
     1
 72
     2
176
     1
 73
     0
176
     1
 90
        0
176
     1
 40
-0.6
176
     1
 41
-30.0
176
     1
 62
     5
 63
     7
421
 16777215
176
     1
 74
     2
176
     1
 91
        2
176
     1
 64
     7
176
     1
 65
   257
176
     1
 75
     1
176
     1
175
     1
176
     1
 42
40.0
176
     1
 92
        8
176
     1
 66
     7
176
     1
 43
1.0
176
     1
 76
     1
176
     1
 77
     6
176
     1
 78
     2
176
     1
 67
     7
176
     1
 79
     3
176
     1
170
     0
176
     1
171
     0
176
     1
290
     0
176
     1
 93
        1
176
     1
 44
0.0
176
     1
173
     0
176
     1
  0
VISUALSTYLE
  5
2FA
102
{ACAD_REACTORS
330
2EF
102
}
330
2EF
100
AcDbVisualStyle
  2
Dim
 70
    11
177
     2
291
     1
 71
     2
176
     1
 72
     2
176
     1
 73
     0
176
     1
 90
        0
176
     1
 40
-0.6
176
     1
 41
-30.0
176
     1
 62
     5
 63
     7
421
 16777215
176
     1
 74
     1
176
     1
 91
        4
176
     1
 64
     7
176
     1
 65
   257
176
     1
 75
     1
176
     1
175
     1
176
     1
 42
1.0
176
     1
 92
        8
176
     1
 66
     7
176
     1
 43
1.0
176
     1
 76
     1
176
     1
 77
     6
176
     1
 78
     2
176
     1
 67
     7
176
     1
 79
     5
176
     1
170
     0
176
     1
171
     0
176
     1
290
     0
176
     1
 93
        1
176
     1
 44
-50.0
176
     1
173
     0
176
     1
  0
VISUALSTYLE
  5
2FE
102
{ACAD_REACTORS
330
2EF
102
}
330
2EF
100
AcDbVisualStyle
  2
Facepattern
 70
    15
177
     2
291
     1
 71
     2
176
     1
 72
     2
176
     1
 73
     0
176
     1
 90
        0
176
     1
 40
-0.6
176
     1
 41
-30.0
176
     1
 62
     5
 63
     7
421
 16777215
176
     1
 74
     1
176
     1
 91
        4
176
     1
 64
     7
176
     1
 65
   257
176
     1
 75
     1
176
     1
175
     1
176
     1
 42
1.0
176
     1
 92
        8
176
     1
 66
     7
176
     1
 43
1.0
176
     1
 76
     1
176
     1
 77
     6
176
     1
 78
     2
176
     1
 67
     7
176
     1
 79
     5
176
     1
170
     0
176
     1
171
     0
176
     1
290
     0
176
     1
 93
        1
176
     1
 44
0.0
176
     1
173
     0
176
     1
  0
VISUALSTYLE
  5
2F0
102
{ACAD_REACTORS
330
2EF
102
}
330
2EF
100
AcDbVisualStyle
  2
Flat
 70
     0
177
     2
291
     1
 71
     2
176
     1
 72
     1
176
     1
 73
     1
176
     1
 90
        2
176
     1
 40
-0.6
176
     1
 41
30.0
176
     1
 62
     5
 63
     7
421
 16777215
176
     1
 74
     0
176
     1
 91
        4
176
     1
 64
     7
176
     1
 65
   257
176
     1
 75
     1
176
     1
175
     1
176
     1
 42
1.0
176
     1
 92
        8
176
     1
 66
     7
176
     1
 43
1.0
176
     1
 76
     1
176
     1
 77
     6
176
     1
 78
     2
176
     1
 67
     7
176
     1
 79
     5
176
     1
170
     0
176
     1
171
     0
176
     1
290
     0
176
     1
 93
       13
176
     1
 44
0.0
176
     1
173
     0
176
     1
  0
VISUALSTYLE
  5
2F1
102
{ACAD_REACTORS
330
2EF
102
}
330
2EF
100
AcDbVisualStyle
  2
FlatWithEdges
 70
     1
177
     2
291
     1
 71
     2
176
     1
 72
     1
176
     1
 73
     1
176
     1
 90
        2
176
     1
 40
-0.6
176
     1
 41
30.0
176
     1
 62
     5
 63
     7
421
 16777215
176
     1
 74
     1
176
     1
 91
        4
176
     1
 64
     7
176
     1
 65
   257
176
     1
 75
     1
176
     1
175
     1
176
     1
 42
1.0
176
     1
 92
        0
176
     1
 66
   257
176
     1
 43
1.0
176
     1
 76
     1
176
     1
 77
     6
176
     1
 78
     2
176
     1
 67
     7
176
     1
 79
     5
176
     1
170
     0
176
     1
171
     0
176
     1
290
     0
176
     1
 93
       13
176
     1
 44
0.0
176
     1
173
     0
176
     1
  0
VISUALSTYLE
  5
2F2
102
{ACAD_REACTORS
330
2EF
102
}
330
2EF
100
AcDbVisualStyle
  2
Gouraud
 70
     2
177
     2
291
     1
 71
     2
176
     1
 72
     2
176
     1
 73
     1
176
     1
 90
        2
176
     1
 40
-0.6
176
     1
 41
30.0
176
     1
 62
     5
 63
     7
421
 16777215
176
     1
 74
     0
176
     1
 91
        4
176
     1
 64
     7
176
     1
 65
   257
176
     1
 75
     1
176
     1
175
     1
176
     1
 42
1.0
176
     1
 92
        0
176
     1
 66
     7
176
     1
 43
1.0
176
     1
 76
     1
176
     1
 77
     6
176
     1
 78
     2
176
     1
 67
     7
176
     1
 79
     5
176
     1
170
     0
176
     1
171
     0
176
     1
290
     0
176
     1
 93
       13
176
     1
 44
0.0
176
     1
173
     0
176
     1
  0
VISUALSTYLE
  5
2F3
102
{ACAD_REACTORS
330
2EF
102
}
330
2EF
100
AcDbVisualStyle
  2
GouraudWithEdges
 70
     3
177
     2
291
     1
 71
     2
176
     1
 72
     2
176
     1
 73
     1
176
     1
 90
        2
176
     1
 40
-0.6
176
     1
 41
30.0
176
     1
 62
     5
 63
     7
421
 16777215
176
     1
 74
     1
176
     1
 91
        4
176
     1
 64
     7
176
     1
 65
   257
176
     1
 75
     1
176
     1
175
     1
176
     1
 42
1.0
176
     1
 92
        0
176
     1
 66
   257
176
     1
 43
1.0
176
     1
 76
     1
176
     1
 77
     6
176
     1
 78
     2
176
     1
 67
     7
176
     1
 79
     5
176
     1
170
     0
176
     1
171
     0
176
     1
290
     0
176
     1
 93
       13
176
     1
 44
0.0
176
     1
173
     0
176
     1
  0
VISUALSTYLE
  5
2FD
102
{ACAD_REACTORS
330
2EF
102
}
330
2EF
100
AcDbVisualStyle
  2
Linepattern
 70
    14
177
     2
291
     1
 71
     2
176
     1
 72
     2
176
     1
 73
     0
176
     1
 90
        0
176
     1
 40
-0.6
176
     1
 41
-30.0
176
     1
 62
     5
 63
     7
421
 16777215
176
     1
 74
     1
176
     1
 91
        4
176
     1
 64
     7
176
     1
 65
   257
176
     1
 75
     7
176
     1
175
     7
176
     1
 42
1.0
176
     1
 92
        8
176
     1
 66
     7
176
     1
 43
1.0
176
     1
 76
     1
176
     1
 77
     6
176
     1
 78
     2
176
     1
 67
     7
176
     1
 79
     5
176
     1
170
     0
176
     1
171
     0
176
     1
290
     0
176
     1
 93
        1
176
     1
 44
0.0
176
     1
173
     0
176
     1
  0
VISUALSTYLE
  5
2F8
102
{ACAD_REACTORS
330
2EF
102
}
330
2EF
100
AcDbVisualStyle
  2
Realistic
 70
     8
177
     2
291
     0
 71
     2
176
     1
 72
     2
176
     1
 73
     0
176
     1
 90
        0
176
     1
 40
-0.6
176
     1
 41
-30.0
176
     1
 62
     5
 63
     7
421
 16777215
176
     1
 74
     1
176
     1
 91
        0
176
     1
 64
     7
176
     1
 65
   257
176
     1
 75
     1
176
     1
175
     1
176
     1
 42
1.0
176
     1
 92
        8
176
     1
 66
     8
424
  7895160
176
     1
 43
1.0
176
     1
 76
     1
176
     1
 77
     6
176
     1
 78
     2
176
     1
 67
     7
176
     1
 79
     5
176
     1
170
     0
176
     1
171
     0
176
     1
290
     0
176
     1
 93
       13
176
     1
 44
0.0
176
     1
173
     0
176
     1
  0
VISUALSTYLE
  5
2FC
102
{ACAD_REACTORS
330
2EF
102
}
330
2EF
100
AcDbVisualStyle
  2
Thicken
 70
    13
177
     2
291
     1
 71
     2
176
     1
 72
     2
176
     1
 73
     0
176
     1
 90
        0
176
     1
 40
-0.6
176
     1
 41
-30.0
176
     1
 62
     5
 63
     7
421
 16777215
176
     1
 74
     1
176
     1
 91
        4
176
     1
 64
     7
176
     1
 65
   257
176
     1
 75
     1
176
     1
175
     1
176
     1
 42
1.0
176
     1
 92
       12
176
     1
 66
     7
176
     1
 43
1.0
176
     1
 76
     1
176
     1
 77
     6
176
     1
 78
     2
176
     1
 67
     7
176
     1
 79
     5
176
     1
170
     0
176
     1
171
     0
176
     1
290
     0
176
     1
 93
        1
176
     1
 44
0.0
176
     1
173
     0
176
     1
  0
XRECORD
  5
315
102
{ACAD_REACTORS
330
305
102
}
330
305
100
AcDbXrecord
280
     1
290
     1
  0
XRECORD
  5
30E
102
{ACAD_REACTORS
330
305
102
}
330
305
100
AcDbXrecord
280
     1
1000
auto
  0
XRECORD
  5
30F
102
{ACAD_REACTORS
330
305
102
}
330
305
100
AcDbXrecord
280
     1
1000
auto
  0
XRECORD
  5
309
102
{ACAD_REACTORS
330
305
102
}
330
305
100
AcDbXrecord
280
     1
1000
auto
  0
XRECORD
  5
30C
102
{ACAD_REACTORS
330
305
102
}
330
305
100
AcDbXrecord
280
     1
1000
auto
  0
XRECORD
  5
30D
102
{ACAD_REACTORS
330
305
102
}
330
305
100
AcDbXrecord
280
     1
 90
        1
  0
XRECORD
  5
312
102
{ACAD_REACTORS
330
305
102
}
330
305
100
AcDbXrecord
280
     1
 40
10.0
  0
XRECORD
  5
310
102
{ACAD_REACTORS
330
305
102
}
330
305
100
AcDbXrecord
280
     1
 40
10.0
  0
XRECORD
  5
306
102
{ACAD_REACTORS
330
305
102
}
330
305
100
AcDbXrecord
280
     1
 40
10.0
  0
XRECORD
  5
319
102
{ACAD_REACTORS
330
305
102
}
330
305
100
AcDbXrecord
280
     1
 40
10.0
  0
XRECORD
  5
308
102
{ACAD_REACTORS
330
305
102
}
330
305
100
AcDbXrecord
280
     1
290
     0
  0
XRECORD
  5
311
102
{ACAD_REACTORS
330
305
102
}
330
305
100
AcDbXrecord
280
     1
 90
        1
  0
XRECORD
  5
317
102
{ACAD_REACTORS
330
305
102
}
330
305
100
AcDbXrecord
280
     1
 40
0.0
  0
XRECORD
  5
318
102
{ACAD_REACTORS
330
305
102
}
330
305
100
AcDbXrecord
280
     1
 40
0.0
  0
XRECORD
  5
307
102
{ACAD_REACTORS
330
305
102
}
330
305
100
AcDbXrecord
280
     1
1000
Portrait
  0
XRECORD
  5
30A
102
{ACAD_REACTORS
330
305
102
}
330
305
100
AcDbXrecord
280
     1
 40
297.0
  0
XRECORD
  5
313
102
{ACAD_REACTORS
330
305
102
}
330
305
100
AcDbXrecord
280
     1
 40
210.0
  0
XRECORD
  5
30B
102
{ACAD_REACTORS
330
305
102
}
330
305
100
AcDbXrecord
280
     1
1000
1:1
  0
XRECORD
  5
316
102
{ACAD_REACTORS
330
305
102
}
330
305
100
AcDbXrecord
280
     1
290
     1
  0
XRECORD
  5
314
102
{ACAD_REACTORS
330
305
102
}
330
305
100
AcDbXrecord
280
     1
 90
        4
  0
ENDSEC
  0
EOF
