  0
SECTION
  2
HEADER
  9
$ACADVER
  1
AC1024
  9
$ACADMAINTVER
 70
     6
  9
$DWGCODEPAGE
  3
ASCII
  9
$INSBASE
 10
0.0
 20
0.0
 30
0.0
  9
$EXTMIN
 10
1.000000000000000E+20
 20
1.000000000000000E+20
 30
1.000000000000000E+20
  9
$EXTMAX
 10
-1.000000000000000E+20
 20
-1.000000000000000E+20
 30
-1.000000000000000E+20
  9
$LIMMIN
 10
0.0
 20
0.0
  9
$LIMMAX
 10
12.0
 20
9.0
  9
$ORTHOMODE
 70
     0
  9
$REGENMODE
 70
     1
  9
$FILLMODE
 70
     1
  9
$QTEXTMODE
 70
     0
  9
$MIRRTEXT
 70
     1
  9
$LTSCALE
 40
1.0
  9
$ATTMODE
 70
     1
  9
$TEXTSIZE
 40
0.2
  9
$TRACEWID
 40
0.05
  9
$TEXTSTYLE
  7
Standard
  9
$CLAYER
  8
0
  9
$CELTYPE
  6
ByLayer
  9
$CECOLOR
 62
   178
  9
$CELTSCALE
 40
1.0
  9
$DISPSILH
 70
     0
  9
$DIMSCALE
 40
1.0
  9
$DIMASZ
 40
0.18
  9
$DIMEXO
 40
0.0625
  9
$DIMDLI
 40
0.38
  9
$DIMRND
 40
0.0
  9
$DIMDLE
 40
0.0
  9
$DIMEXE
 40
0.18
  9
$DIMTP
 40
0.0
  9
$DIMTM
 40
0.0
  9
$DIMTXT
 40
0.18
  9
$DIMCEN
 40
0.09
  9
$DIMTSZ
 40
0.0
  9
$DIMTOL
 70
     0
  9
$DIMLIM
 70
     0
  9
$DIMTIH
 70
     1
  9
$DIMTOH
 70
     1
  9
$DIMSE1
 70
     0
  9
$DIMSE2
 70
     0
  9
$DIMTAD
 70
     0
  9
$DIMZIN
 70
     0
  9
$DIMBLK
  1

  9
$DIMASO
 70
     1
  9
$DIMSHO
 70
     1
  9
$DIMPOST
  1

  9
$DIMAPOST
  1

  9
$DIMALT
 70
     0
  9
$DIMALTD
 70
     2
  9
$DIMALTF
 40
25.4
  9
$DIMLFAC
 40
1.0
  9
$DIMTOFL
 70
     0
  9
$DIMTVP
 40
0.0
  9
$DIMTIX
 70
     0
  9
$DIMSOXD
 70
     0
  9
$DIMSAH
 70
     0
  9
$DIMBLK1
  1

  9
$DIMBLK2
  1

  9
$DIMSTYLE
  2
Standard
  9
$DIMCLRD
 70
   178
  9
$DIMCLRE
 70
   178
  9
$DIMCLRT
 70
   178
  9
$DIMTFAC
 40
1.0
  9
$DIMGAP
 40
0.09
  9
$DIMJUST
 70
     0
  9
$DIMSD1
 70
     0
  9
$DIMSD2
 70
     0
  9
$DIMTOLJ
 70
     1
  9
$DIMTZIN
 70
     0
  9
$DIMALTZ
 70
     0
  9
$DIMALTTZ
 70
     0
  9
$DIMUPT
 70
     0
  9
$DIMDEC
 70
     4
  9
$DIMTDEC
 70
     4
  9
$DIMALTU
 70
     2
  9
$DIMALTTD
 70
     2
  9
$DIMTXSTY
  7
Standard
  9
$DIMAUNIT
 70
     0
  9
$DIMADEC
 70
     0
  9
$DIMALTRND
 40
0.0
  9
$DIMAZIN
 70
     0
  9
$DIMDSEP
 70
    46
  9
$DIMATFIT
 70
     3
  9
$DIMFRAC
 70
     0
  9
$DIMLDRBLK
  1

  9
$DIMLUNIT
 70
     2
  9
$DIMLWD
 70
    -2
  9
$DIMLWE
 70
    -2
  9
$DIMTMOVE
 70
     0
  9
$DIMFXL
 40
1.0
  9
$DIMFXLON
 70
     0
  9
$DIMJOGANG
 40
0.7853981633974483
  9
$DIMTFILL
 70
     0
  9
$DIMTFILLCLR
 70
     0
  9
$DIMARCSYM
 70
     0
  9
$DIMLTYPE
  6

  9
$DIMLTEX1
  6

  9
$DIMLTEX2
  6

  9
$DIMTXTDIRECTION
 70
     0
  9
$LUNITS
 70
     2
  9
$LUPREC
 70
     4
  9
$SKETCHINC
 40
0.1
  9
$FILLETRAD
 40
0.5
  9
$AUNITS
 70
     0
  9
$AUPREC
 70
     0
  9
$MENU
  1
.
  9
$ELEVATION
 40
0.0
  9
$PELEVATION
 40
0.0
  9
$THICKNESS
 40
0.0
  9
$LIMCHECK
 70
     0
  9
$CHAMFERA
 40
0.5
  9
$CHAMFERB
 40
0.5
  9
$CHAMFERC
 40
1.0
  9
$CHAMFERD
 40
0.0
  9
$SKPOLY
 70
     0
  9
$TDCREATE
 40
2456323.573483796
  9
$TDUCREATE
 40
2456323.78181713
  9
$TDUPDATE
 40
2456323.573483796
  9
$TDUUPDATE
 40
2456323.78181713
  9
$TDINDWG
 40
0.0000000116
  9
$TDUSRTIMER
 40
0.0000000116
  9
$USRTIMER
 70
     1
  9
$ANGBASE
 50
0.0
  9
$ANGDIR
 70
     0
  9
$PDMODE
 70
     0
  9
$PDSIZE
 40
0.0
  9
$PLINEWID
 40
0.0
  9
$SPLFRAME
 70
     0
  9
$SPLINETYPE
 70
     6
  9
$SPLINESEGS
 70
     8
  9
$HANDSEED
  5
171
  9
$SURFTAB1
 70
     6
  9
$SURFTAB2
 70
     6
  9
$SURFTYPE
 70
     6
  9
$SURFU
 70
     6
  9
$SURFV
 70
     6
  9
$UCSBASE
  2

  9
$UCSNAME
  2

  9
$UCSORG
 10
0.0
 20
0.0
 30
0.0
  9
$UCSXDIR
 10
1.0
 20
0.0
 30
0.0
  9
$UCSYDIR
 10
0.0
 20
1.0
 30
0.0
  9
$UCSORTHOREF
  2

  9
$UCSORTHOVIEW
 70
     0
  9
$UCSORGTOP
 10
0.0
 20
0.0
 30
0.0
  9
$UCSORGBOTTOM
 10
0.0
 20
0.0
 30
0.0
  9
$UCSORGLEFT
 10
0.0
 20
0.0
 30
0.0
  9
$UCSORGRIGHT
 10
0.0
 20
0.0
 30
0.0
  9
$UCSORGFRONT
 10
0.0
 20
0.0
 30
0.0
  9
$UCSORGBACK
 10
0.0
 20
0.0
 30
0.0
  9
$PUCSBASE
  2

  9
$PUCSNAME
  2

  9
$PUCSORG
 10
0.0
 20
0.0
 30
0.0
  9
$PUCSXDIR
 10
1.0
 20
0.0
 30
0.0
  9
$PUCSYDIR
 10
0.0
 20
1.0
 30
0.0
  9
$PUCSORTHOREF
  2

  9
$PUCSORTHOVIEW
 70
     0
  9
$PUCSORGTOP
 10
0.0
 20
0.0
 30
0.0
  9
$PUCSORGBOTTOM
 10
0.0
 20
0.0
 30
0.0
  9
$PUCSORGLEFT
 10
0.0
 20
0.0
 30
0.0
  9
$PUCSORGRIGHT
 10
0.0
 20
0.0
 30
0.0
  9
$PUCSORGFRONT
 10
0.0
 20
0.0
 30
0.0
  9
$PUCSORGBACK
 10
0.0
 20
0.0
 30
0.0
  9
$USERI1
 70
     0
  9
$USERI2
 70
     0
  9
$USERI3
 70
     0
  9
$USERI4
 70
     0
  9
$USERI5
 70
     0
  9
$USERR1
 40
0.0
  9
$USERR2
 40
0.0
  9
$USERR3
 40
0.0
  9
$USERR4
 40
0.0
  9
$USERR5
 40
0.0
  9
$WORLDVIEW
 70
     1
  9
$SHADEDGE
 70
     3
  9
$SHADEDIF
 70
    70
  9
$TILEMODE
 70
     1
  9
$MAXACTVP
 70
    64
  9
$PINSBASE
 10
0.0
 20
0.0
 30
0.0
  9
$PLIMCHECK
 70
     0
  9
$PEXTMIN
 10
1.000000000000000E+20
 20
1.000000000000000E+20
 30
1.000000000000000E+20
  9
$PEXTMAX
 10
-1.000000000000000E+20
 20
-1.000000000000000E+20
 30
-1.000000000000000E+20
  9
$PLIMMIN
 10
0.0
 20
0.0
  9
$PLIMMAX
 10
12.0
 20
9.0
  9
$UNITMODE
 70
     0
  9
$VISRETAIN
 70
     1
  9
$PLINEGEN
 70
     0
  9
$PSLTSCALE
 70
     1
  9
$TREEDEPTH
 70
  3020
  9
$CMLSTYLE
  2
Standard
  9
$CMLJUST
 70
     0
  9
$CMLSCALE
 40
1.0
  9
$PROXYGRAPHICS
 70
     1
  9
$MEASUREMENT
 70
     1
  9
$CELWEIGHT
370
    -1
  9
$ENDCAPS
280
     0
  9
$JOINSTYLE
280
     0
  9
$LWDISPLAY
290
     0
  9
$INSUNITS
 70
     0
  9
$HYPERLINKBASE
  1

  9
$STYLESHEET
  1

  9
$XEDIT
290
     1
  9
$CEPSNTYPE
380
     0
  9
$PSTYLEMODE
290
     1
  9
$FINGERPRINTGUID
  2
{98251FB7-D6A4-4E61-8E12-4181908CF5D9}
  9
$VERSIONGUID
  2
{FAEB1C32-E019-11D5-929B-00C0DF256EC4}
  9
$EXTNAMES
290
     1
  9
$PSVPSCALE
 40
0.0
  9
$OLESTARTUP
290
     0
  9
$SORTENTS
280
   127
  9
$INDEXCTL
280
     0
  9
$HIDETEXT
280
     1
  9
$XCLIPFRAME
280
     2
  9
$HALOGAP
280
     0
  9
$OBSCOLOR
 70
   257
  9
$OBSLTYPE
280
     0
  9
$INTERSECTIONDISPLAY
280
     0
  9
$INTERSECTIONCOLOR
 70
   257
  9
$DIMASSOC
280
     2
  9
$PROJECTNAME
  1

  9
$CAMERADISPLAY
290
     0
  9
$LENSLENGTH
 40
50.0
  9
$CAMERAHEIGHT
 40
0.0
  9
$STEPSPERSEC
 40
2.0
  9
$STEPSIZE
 40
6.0
  9
$3DDWFPREC
 40
2.0
  9
$PSOLWIDTH
 40
0.25
  9
$PSOLHEIGHT
 40
4.0
  9
$LOFTANG1
 40
1.570796326794897
  9
$LOFTANG2
 40
1.570796326794897
  9
$LOFTMAG1
 40
0.0
  9
$LOFTMAG2
 40
0.0
  9
$LOFTPARAM
 70
     7
  9
$LOFTNORMALS
280
     1
  9
$LATITUDE
 40
37.795
  9
$LONGITUDE
 40
-122.394
  9
$NORTHDIRECTION
 40
0.0
  9
$TIMEZONE
 70
 -8000
  9
$LIGHTGLYPHDISPLAY
280
     1
  9
$TILEMODELIGHTSYNCH
280
     1
  9
$SOLIDHIST
280
     1
  9
$SHOWHIST
280
     1
  9
$DWFFRAME
280
     2
  9
$DGNFRAME
280
     2
  9
$REALWORLDSCALE
290
     1
  9
$INTERFERECOLOR
 62
   256
  9
$CSHADOW
280
     0
  9
$SHADOWPLANELOCATION
 40
0.0
  0
ENDSEC
  0
SECTION
  2
CLASSES
  0
CLASS
  1
ACDBDICTIONARYWDFLT
  2
AcDbDictionaryWithDefault
  3
ObjectDBX Classes
 90
        0
 91
        4
280
     0
281
     0
  0
CLASS
  1
VISUALSTYLE
  2
AcDbVisualStyle
  3
ObjectDBX Classes
 90
     4095
 91
        4
280
     0
281
     0
  0
CLASS
  1
MATERIAL
  2
AcDbMaterial
  3
ObjectDBX Classes
 90
     1153
 91
        4
280
     0
281
     0
  0
ENDSEC
  0
SECTION
  2
TABLES
  0
TABLE
  2
VPORT
  5
10E
330
0
100
AcDbSymbolTable
 70
     1
  0
VPORT
  5
12E
330
10E
100
AcDbSymbolTableRecord
100
AcDbViewportTableRecord
  2
*Active
 70
     0
 10
0.0
 20
0.0
 11
1.0
 21
1.0
 12
10.42990654205607
 22
4.5
 13
0.0
 23
0.0
 14
0.5
 24
0.5
 15
0.5
 25
0.5
 16
0.0
 26
0.0
 36
1.0
 17
0.0
 27
0.0
 37
0.0
 40
9.0
 41
1.972972972850329
 42
50.0
 43
0.0
 44
0.0
 50
0.0
 51
0.0
 71
     0
 72
   100
 73
     1
 74
     3
 75
     0
 76
     0
 77
     0
 78
     0
281
     0
 65
     1
110
0.0
120
0.0
130
0.0
111
1.0
121
0.0
131
0.0
112
0.0
122
1.0
132
0.0
 79
     0
146
0.0
 60
     3
 61
     5
292
     1
282
     1
141
0.0
142
0.0
 63
   250
  0
ENDTAB
  0
TABLE
  2
LTYPE
  5
10B
330
0
100
AcDbSymbolTable
 70
    19
  0
LTYPE
  5
119
330
10B
100
AcDbSymbolTableRecord
100
AcDbLinetypeTableRecord
  2
ByBlock
 70
     0
  3

 72
    65
 73
     0
 40
0.0
  0
LTYPE
  5
11A
330
10B
100
AcDbSymbolTableRecord
100
AcDbLinetypeTableRecord
  2
ByLayer
 70
     0
  3

 72
    65
 73
     0
 40
0.0
  0
LTYPE
  5
11B
330
10B
100
AcDbSymbolTableRecord
100
AcDbLinetypeTableRecord
  2
Continuous
 70
     0
  3
Solid line
 72
    65
 73
     0
 40
0.0
  0
LTYPE
  5
15B
330
10B
100
AcDbSymbolTableRecord
100
AcDbLinetypeTableRecord
  2
BORDER
 70
     0
  3

 72
    65
 73
     6
 40
42.0
 49
12.0
 74
     0
 49
-6.0
 74
     0
 49
12.0
 74
     0
 49
-5.95
 74
     0
 49
0.1
 74
     0
 49
-5.95
 74
     0
  0
LTYPE
  5
15C
330
10B
100
AcDbSymbolTableRecord
100
AcDbLinetypeTableRecord
  2
BORDER2
 70
     0
  3

 72
    65
 73
     6
 40
21.0
 49
6.0
 74
     0
 49
-3.0
 74
     0
 49
6.0
 74
     0
 49
-2.95
 74
     0
 49
0.1
 74
     0
 49
-2.95
 74
     0
  0
LTYPE
  5
15D
330
10B
100
AcDbSymbolTableRecord
100
AcDbLinetypeTableRecord
  2
BORDERX2
 70
     0
  3

 72
    65
 73
     6
 40
84.0
 49
24.0
 74
     0
 49
-12.0
 74
     0
 49
24.0
 74
     0
 49
-11.95
 74
     0
 49
0.1
 74
     0
 49
-11.95
 74
     0
  0
LTYPE
  5
15E
330
10B
100
AcDbSymbolTableRecord
100
AcDbLinetypeTableRecord
  2
CENTER
 70
     0
  3

 72
    65
 73
     4
 40
50.0
 49
32.0
 74
     0
 49
-6.0
 74
     0
 49
6.0
 74
     0
 49
-6.0
 74
     0
  0
LTYPE
  5
15F
330
10B
100
AcDbSymbolTableRecord
100
AcDbLinetypeTableRecord
  2
CENTER2
 70
     0
  3

 72
    65
 73
     4
 40
25.0
 49
16.0
 74
     0
 49
-3.0
 74
     0
 49
3.0
 74
     0
 49
-3.0
 74
     0
  0
LTYPE
  5
160
330
10B
100
AcDbSymbolTableRecord
100
AcDbLinetypeTableRecord
  2
CENTERX2
 70
     0
  3

 72
    65
 73
     4
 40
100.0
 49
64.0
 74
     0
 49
-12.0
 74
     0
 49
12.0
 74
     0
 49
-12.0
 74
     0
  0
LTYPE
  5
161
330
10B
100
AcDbSymbolTableRecord
100
AcDbLinetypeTableRecord
  2
DASHDOT
 70
     0
  3

 72
    65
 73
     4
 40
24.0
 49
12.0
 74
     0
 49
-5.95
 74
     0
 49
0.1
 74
     0
 49
-5.95
 74
     0
  0
LTYPE
  5
162
330
10B
100
AcDbSymbolTableRecord
100
AcDbLinetypeTableRecord
  2
DASHDOT2
 70
     0
  3

 72
    65
 73
     4
 40
12.0
 49
6.0
 74
     0
 49
-2.95
 74
     0
 49
0.1
 74
     0
 49
-2.95
 74
     0
  0
LTYPE
  5
163
330
10B
100
AcDbSymbolTableRecord
100
AcDbLinetypeTableRecord
  2
DASHDOTX2
 70
     0
  3

 72
    65
 73
     4
 40
48.0
 49
24.0
 74
     0
 49
-11.95
 74
     0
 49
0.1
 74
     0
 49
-11.95
 74
     0
  0
LTYPE
  5
164
330
10B
100
AcDbSymbolTableRecord
100
AcDbLinetypeTableRecord
  2
DASHED
 70
     0
  3

 72
    65
 73
     2
 40
18.0
 49
12.0
 74
     0
 49
-6.0
 74
     0
  0
LTYPE
  5
165
330
10B
100
AcDbSymbolTableRecord
100
AcDbLinetypeTableRecord
  2
DASHED2
 70
     0
  3

 72
    65
 73
     2
 40
9.0
 49
6.0
 74
     0
 49
-3.0
 74
     0
  0
LTYPE
  5
166
330
10B
100
AcDbSymbolTableRecord
100
AcDbLinetypeTableRecord
  2
DASHEDX2
 70
     0
  3

 72
    65
 73
     2
 40
36.0
 49
24.0
 74
     0
 49
-12.0
 74
     0
  0
LTYPE
  5
167
330
10B
100
AcDbSymbolTableRecord
100
AcDbLinetypeTableRecord
  2
DIVIDE
 70
     0
  3

 72
    65
 73
     6
 40
30.0
 49
12.0
 74
     0
 49
-5.9
 74
     0
 49
0.15
 74
     0
 49
-5.9
 74
     0
 49
0.15
 74
     0
 49
-5.9
 74
     0
  0
LTYPE
  5
168
330
10B
100
AcDbSymbolTableRecord
100
AcDbLinetypeTableRecord
  2
DIVIDE2
 70
     0
  3

 72
    65
 73
     6
 40
15.0
 49
6.0
 74
     0
 49
-2.9
 74
     0
 49
0.15
 74
     0
 49
-2.9
 74
     0
 49
0.15
 74
     0
 49
-2.9
 74
     0
  0
LTYPE
  5
169
330
10B
100
AcDbSymbolTableRecord
100
AcDbLinetypeTableRecord
  2
DIVIDEX2
 70
     0
  3

 72
    65
 73
     6
 40
60.0
 49
24.0
 74
     0
 49
-11.9
 74
     0
 49
0.15
 74
     0
 49
-11.9
 74
     0
 49
0.15
 74
     0
 49
-11.9
 74
     0
  0
LTYPE
  5
16A
330
10B
100
AcDbSymbolTableRecord
100
AcDbLinetypeTableRecord
  2
DOT
 70
     0
  3

 72
    65
 73
     2
 40
6.3
 49
0.1
 74
     0
 49
-6.2
 74
     0
  0
LTYPE
  5
16B
330
10B
100
AcDbSymbolTableRecord
100
AcDbLinetypeTableRecord
  2
DOT2
 70
     0
  3

 72
    65
 73
     2
 40
3.2
 49
0.1
 74
     0
 49
-3.1
 74
     0
  0
LTYPE
  5
16C
330
10B
100
AcDbSymbolTableRecord
100
AcDbLinetypeTableRecord
  2
DOTX2
 70
     0
  3

 72
    65
 73
     2
 40
12.5
 49
0.1
 74
     0
 49
-12.4
 74
     0
  0
ENDTAB
  0
TABLE
  2
LAYER
  5
108
330
0
100
AcDbSymbolTable
 70
     3
  0
LAYER
  5
116
330
108
100
AcDbSymbolTableRecord
100
AcDbLayerTableRecord
  2
0
 70
     0
 62
     7
420
 16777215
  6
Continuous
370
    -3
390
115
347
143
  0
LAYER
  5
16D
330
108
100
AcDbSymbolTableRecord
100
AcDbLayerTableRecord
  2
mount
 70
     0
 62
   178
420
        0
  6
Continuous
370
     0
390
115
347
143
  0
LAYER
  5
16E
330
108
100
AcDbSymbolTableRecord
100
AcDbLayerTableRecord
  2
drive
 70
     0
 62
     7
420
 16777215
  6
Continuous
370
     0
390
115
347
143
  0
ENDTAB
  0
TABLE
  2
STYLE
  5
109
330
0
100
AcDbSymbolTable
 70
     1
  0
STYLE
  5
117
330
109
100
AcDbSymbolTableRecord
100
AcDbTextStyleTableRecord
  2
Standard
 70
     0
 40
0.0
 41
1.0
 50
0.0
 71
     0
 42
0.2
  3
txt
  4

  0
ENDTAB
  0
TABLE
  2
VIEW
  5
10C
330
0
100
AcDbSymbolTable
 70
     0
  0
ENDTAB
  0
TABLE
  2
UCS
  5
10D
330
0
100
AcDbSymbolTable
 70
     0
  0
ENDTAB
  0
TABLE
  2
APPID
  5
10F
330
0
100
AcDbSymbolTable
 70
     2
  0
APPID
  5
118
330
10F
100
AcDbSymbolTableRecord
100
AcDbRegAppTableRecord
  2
ACAD
 70
     0
  0
APPID
  5
144
330
10F
100
AcDbSymbolTableRecord
100
AcDbRegAppTableRecord
  2
QCAD
 70
     0
  0
ENDTAB
  0
TABLE
  2
DIMSTYLE
  5
110
330
0
100
AcDbSymbolTable
 70
     2
100
AcDbDimStyleTable
  0
DIMSTYLE
105
12C
330
110
100
AcDbSymbolTableRecord
100
AcDbDimStyleTableRecord
  2
Standard
 70
     0
178
     0
340
117
  0
DIMSTYLE
105
15A
330
110
100
AcDbSymbolTableRecord
100
AcDbDimStyleTableRecord
  2
QCADDimStyle
 70
     0
 73
     0
 77
     1
178
     0
340
117
  0
ENDTAB
  0
TABLE
  2
BLOCK_RECORD
  5
107
330
0
100
AcDbSymbolTable
 70
     1
  0
BLOCK_RECORD
  5
124
330
107
100
AcDbSymbolTableRecord
100
AcDbBlockTableRecord
  2
*Model_Space
340
127
 70
     0
280
     1
281
     0
  0
BLOCK_RECORD
  5
120
330
107
100
AcDbSymbolTableRecord
100
AcDbBlockTableRecord
  2
*Paper_Space
340
123
 70
     0
280
     1
281
     0
  0
BLOCK_RECORD
  5
128
330
107
100
AcDbSymbolTableRecord
100
AcDbBlockTableRecord
  2
*Paper_Space0
340
12B
 70
     0
280
     1
281
     0
  0
ENDTAB
  0
ENDSEC
  0
SECTION
  2
BLOCKS
  0
BLOCK
  5
125
330
124
100
AcDbEntity
  8
0
100
AcDbBlockBegin
  2
*Model_Space
 70
     0
 10
0.0
 20
0.0
 30
0.0
  3
*Model_Space
  1

  0
ENDBLK
  5
126
330
124
100
AcDbEntity
  8
0
100
AcDbBlockEnd
  0
BLOCK
  5
121
330
120
100
AcDbEntity
 67
     1
  8
0
100
AcDbBlockBegin
  2
*Paper_Space
 70
     0
 10
0.0
 20
0.0
 30
0.0
  3
*Paper_Space
  1

  0
ENDBLK
  5
122
330
120
100
AcDbEntity
 67
     1
  8
0
100
AcDbBlockEnd
  0
BLOCK
  5
129
330
128
100
AcDbEntity
  8
0
100
AcDbBlockBegin
  2
*Paper_Space0
 70
     0
 10
0.0
 20
0.0
 30
0.0
  3
*Paper_Space0
  1

  0
ENDBLK
  5
12A
330
128
100
AcDbEntity
  8
0
100
AcDbBlockEnd
  0
ENDSEC
  0
SECTION
  2
ENTITIES
  0
LINE
  5
21
330
124
100
AcDbEntity
  8
drive
100
AcDbLine
 10
6.8496116896
 20
-1.44319773477
 30
0.0
 11
6.8496116896
 21
1.44319773477
 31
0.0
  0
LINE
  5
22
330
124
100
AcDbEntity
  8
drive
100
AcDbLine
 10
6.8496116896
 20
1.44319773477
 30
0.0
 11
6.89161660402
 21
1.45537644036
 31
0.0
  0
LINE
  5
23
330
124
100
AcDbEntity
  8
drive
100
AcDbLine
 10
6.89161660402
 20
1.45537644036
 30
0.0
 11
7.01336578063
 21
1.50422751838
 31
0.0
  0
LINE
  5
24
330
124
100
AcDbEntity
  8
drive
100
AcDbLine
 10
7.01336578063
 20
1.50422751838
 30
0.0
 11
7.20618460813
 21
1.6072969214
 31
0.0
  0
LINE
  5
25
330
124
100
AcDbEntity
  8
drive
100
AcDbLine
 10
7.20618460813
 20
1.6072969214
 30
0.0
 11
7.4585300264
 21
1.78054200885
 31
0.0
  0
LINE
  5
26
330
124
100
AcDbEntity
  8
drive
100
AcDbLine
 10
7.4585300264
 20
1.78054200885
 30
0.0
 11
7.7562487373
 21
2.03791695736
 31
0.0
  0
LINE
  5
27
330
124
100
AcDbEntity
  8
drive
100
AcDbLine
 10
7.7562487373
 20
2.03791695736
 30
0.0
 11
8.0828913218
 21
2.39099725638
 31
0.0
  0
LINE
  5
28
330
124
100
AcDbEntity
  8
drive
100
AcDbLine
 10
8.0828913218
 20
2.39099725638
 30
0.0
 11
8.42007662551
 21
2.84865049112
 31
0.0
  0
LINE
  5
29
330
124
100
AcDbEntity
  8
drive
100
AcDbLine
 10
8.42007662551
 20
2.84865049112
 30
0.0
 11
8.74789987744
 21
3.41675982977
 31
0.0
  0
LINE
  5
2A
330
124
100
AcDbEntity
  8
drive
100
AcDbLine
 10
8.74789987744
 20
3.41675982977
 30
0.0
 11
9.04537721554
 21
4.098005738
 31
0.0
  0
LINE
  5
2B
330
124
100
AcDbEntity
  8
drive
100
AcDbLine
 10
9.04537721554
 20
4.098005738
 30
0.0
 11
9.29091862128
 21
4.89171045472
 31
0.0
  0
LINE
  5
2C
330
124
100
AcDbEntity
  8
drive
100
AcDbLine
 10
3.48920902691
 20
6.0683952052
 30
0.0
 11
3.51377189662
 21
6.10458082578
 31
0.0
  0
LINE
  5
2D
330
124
100
AcDbEntity
  8
drive
100
AcDbLine
 10
3.51377189662
 20
6.10458082578
 30
0.0
 11
3.59785459733
 21
6.20527536025
 31
0.0
  0
LINE
  5
2E
330
124
100
AcDbEntity
  8
drive
100
AcDbLine
 10
3.59785459733
 20
6.20527536025
 30
0.0
 11
3.75546371923
 21
6.35680676547
 31
0.0
  0
LINE
  5
2F
330
124
100
AcDbEntity
  8
drive
100
AcDbLine
 10
3.75546371923
 20
6.35680676547
 30
0.0
 11
3.99820861127
 21
6.54326584366
 31
0.0
  0
LINE
  5
30
330
124
100
AcDbEntity
  8
drive
100
AcDbLine
 10
3.99820861127
 20
6.54326584366
 30
0.0
 11
4.33498687439
 21
6.74687993067
 31
0.0
  0
LINE
  5
31
330
124
100
AcDbEntity
  8
drive
100
AcDbLine
 10
4.33498687439
 20
6.74687993067
 30
0.0
 11
4.77172430325
 21
6.94842767638
 31
0.0
  0
LINE
  5
32
330
124
100
AcDbEntity
  8
drive
100
AcDbLine
 10
4.77172430325
 20
6.94842767638
 30
0.0
 11
5.31117438345
 21
7.12768732961
 31
0.0
  0
LINE
  5
33
330
124
100
AcDbEntity
  8
drive
100
AcDbLine
 10
5.31117438345
 20
7.12768732961
 30
0.0
 11
5.95278142794
 21
7.26391032924
 31
0.0
  0
LINE
  5
34
330
124
100
AcDbEntity
  8
drive
100
AcDbLine
 10
5.95278142794
 20
7.26391032924
 30
0.0
 11
6.69261034107
 21
7.3363115271
 31
0.0
  0
LINE
  5
35
330
124
100
AcDbEntity
  8
drive
100
AcDbLine
 10
6.69261034107
 20
7.3363115271
 30
0.0
 11
7.52334485112
 21
7.32456703507
 31
0.0
  0
LINE
  5
36
330
124
100
AcDbEntity
  8
drive
100
AcDbLine
 10
9.29091862128
 20
4.89171045472
 30
0.0
 11
7.52334485112
 21
7.32456703507
 31
0.0
  0
LINE
  5
37
330
124
100
AcDbEntity
  8
drive
100
AcDbLine
 10
3.48920902691
 20
6.0683952052
 30
0.0
 11
0.744083807006
 21
6.96034045778
 31
0.0
  0
LINE
  5
38
330
124
100
AcDbEntity
  8
drive
100
AcDbLine
 10
0.744083807006
 20
6.96034045778
 30
0.0
 11
0.745481402096
 21
7.00405293235
 31
0.0
  0
LINE
  5
39
330
124
100
AcDbEntity
  8
drive
100
AcDbLine
 10
0.745481402096
 20
7.00405293235
 30
0.0
 11
0.736643830638
 21
7.13493909342
 31
0.0
  0
LINE
  5
3A
330
124
100
AcDbEntity
  8
drive
100
AcDbLine
 10
0.736643830638
 20
7.13493909342
 30
0.0
 11
0.698203297799
 21
7.35017089291
 31
0.0
  0
LINE
  5
3B
330
124
100
AcDbEntity
  8
drive
100
AcDbLine
 10
0.698203297799
 20
7.35017089291
 30
0.0
 11
0.611416451161
 21
7.64370132353
 31
0.0
  0
LINE
  5
3C
330
124
100
AcDbEntity
  8
drive
100
AcDbLine
 10
0.611416451161
 20
7.64370132353
 30
0.0
 11
0.458638470458
 21
8.00638187657
 31
0.0
  0
LINE
  5
3D
330
124
100
AcDbEntity
  8
drive
100
AcDbLine
 10
0.458638470458
 20
8.00638187657
 30
0.0
 11
0.223777260995
 21
8.42614524783
 31
0.0
  0
LINE
  5
3E
330
124
100
AcDbEntity
  8
drive
100
AcDbLine
 10
0.223777260995
 20
8.42614524783
 30
0.0
 11
-0.107280841003
 21
8.88825015519
 31
0.0
  0
LINE
  5
3F
330
124
100
AcDbEntity
  8
drive
100
AcDbLine
 10
-0.107280841003
 20
8.88825015519
 30
0.0
 11
-0.546281973502
 21
9.37558403543
 31
0.0
  0
LINE
  5
40
330
124
100
AcDbEntity
  8
drive
100
AcDbLine
 10
-0.546281973502
 20
9.37558403543
 30
0.0
 11
-1.10225978081
 21
9.86901835927
 31
0.0
  0
LINE
  5
41
330
124
100
AcDbEntity
  8
drive
100
AcDbLine
 10
-1.10225978081
 20
9.86901835927
 30
0.0
 11
-1.78124135646
 21
10.3478103592
 31
0.0
  0
LINE
  5
42
330
124
100
AcDbEntity
  8
drive
100
AcDbLine
 10
-4.69316191712
 20
5.19367222875
 30
0.0
 11
-4.7199861432
 21
5.22821487776
 31
0.0
  0
LINE
  5
43
330
124
100
AcDbEntity
  8
drive
100
AcDbLine
 10
-4.7199861432
 20
5.22821487776
 30
0.0
 11
-4.7897693529
 21
5.33929860056
 31
0.0
  0
LINE
  5
44
330
124
100
AcDbEntity
  8
drive
100
AcDbLine
 10
-4.7897693529
 20
5.33929860056
 30
0.0
 11
-4.88518038613
 21
5.53601956237
 31
0.0
  0
LINE
  5
45
330
124
100
AcDbEntity
  8
drive
100
AcDbLine
 10
-4.88518038613
 20
5.53601956237
 30
0.0
 11
-4.98750121053
 21
5.82450269766
 31
0.0
  0
LINE
  5
46
330
124
100
AcDbEntity
  8
drive
100
AcDbLine
 10
-4.98750121053
 20
5.82450269766
 30
0.0
 11
-5.07707950814
 21
6.20771807253
 31
0.0
  0
LINE
  5
47
330
124
100
AcDbEntity
  8
drive
100
AcDbLine
 10
-5.07707950814
 20
6.20771807253
 30
0.0
 11
-5.13380351745
 21
6.68536172875
 31
0.0
  0
LINE
  5
48
330
124
100
AcDbEntity
  8
drive
100
AcDbLine
 10
-5.13380351745
 20
6.68536172875
 30
0.0
 11
-5.13759033636
 21
7.253803522
 31
0.0
  0
LINE
  5
49
330
124
100
AcDbEntity
  8
drive
100
AcDbLine
 10
-5.13759033636
 20
7.253803522
 30
0.0
 11
-5.06887862737
 21
7.90610330447
 31
0.0
  0
LINE
  5
4A
330
124
100
AcDbEntity
  8
drive
100
AcDbLine
 10
-5.06887862737
 20
7.90610330447
 30
0.0
 11
-4.90911655129
 21
8.6320956138
 31
0.0
  0
LINE
  5
4B
330
124
100
AcDbEntity
  8
drive
100
AcDbLine
 10
-4.90911655129
 20
8.6320956138
 30
0.0
 11
-4.6412357942
 21
9.41854183527
 31
0.0
  0
LINE
  5
4C
330
124
100
AcDbEntity
  8
drive
100
AcDbLine
 10
-1.78124135646
 20
10.3478103592
 30
0.0
 11
-4.6412357942
 21
9.41854183527
 31
0.0
  0
LINE
  5
4D
330
124
100
AcDbEntity
  8
drive
100
AcDbLine
 10
-4.69316191712
 20
5.19367222875
 30
0.0
 11
-6.3897426064
 21
2.85852924141
 31
0.0
  0
LINE
  5
4E
330
124
100
AcDbEntity
  8
drive
100
AcDbLine
 10
-6.3897426064
 20
2.85852924141
 30
0.0
 11
-6.43088375955
 21
2.87336633084
 31
0.0
  0
LINE
  5
4F
330
124
100
AcDbEntity
  8
drive
100
AcDbLine
 10
-6.43088375955
 20
2.87336633084
 30
0.0
 11
-6.5580948557
 21
2.90540734901
 31
0.0
  0
LINE
  5
50
330
124
100
AcDbEntity
  8
drive
100
AcDbLine
 10
-6.5580948557
 20
2.90540734901
 30
0.0
 11
-6.77467123903
 21
2.93535851354
 31
0.0
  0
LINE
  5
51
330
124
100
AcDbEntity
  8
drive
100
AcDbLine
 10
-6.77467123903
 20
2.93535851354
 30
0.0
 11
-7.0806538783
 21
2.94352520894
 31
0.0
  0
LINE
  5
52
330
124
100
AcDbEntity
  8
drive
100
AcDbLine
 10
-7.0806538783
 20
2.94352520894
 30
0.0
 11
-7.47279457401
 21
2.91029916927
 31
0.0
  0
LINE
  5
53
330
124
100
AcDbEntity
  8
drive
100
AcDbLine
 10
-7.47279457401
 20
2.91029916927
 30
0.0
 11
-7.94458936859
 21
2.81664690092
 31
0.0
  0
LINE
  5
54
330
124
100
AcDbEntity
  8
drive
100
AcDbLine
 10
-7.94458936859
 20
2.81664690092
 30
0.0
 11
-8.48637983159
 21
2.6445902053
 31
0.0
  0
LINE
  5
55
330
124
100
AcDbEntity
  8
drive
100
AcDbLine
 10
-8.48637983159
 20
2.6445902053
 30
0.0
 11
-9.0855207045
 21
2.37766976851
 31
0.0
  0
LINE
  5
56
330
124
100
AcDbEntity
  8
drive
100
AcDbLine
 10
-9.0855207045
 20
2.37766976851
 30
0.0
 11
-9.72661122451
 21
2.00138304363
 31
0.0
  0
LINE
  5
57
330
124
100
AcDbEntity
  8
drive
100
AcDbLine
 10
-9.72661122451
 20
2.00138304363
 30
0.0
 11
-10.3917863217
 21
1.50358805641
 31
0.0
  0
LINE
  5
58
330
124
100
AcDbEntity
  8
drive
100
AcDbLine
 10
-6.3897426064
 20
-2.85852924141
 30
0.0
 11
-6.43088375955
 21
-2.87336633084
 31
0.0
  0
LINE
  5
59
330
124
100
AcDbEntity
  8
drive
100
AcDbLine
 10
-6.43088375955
 20
-2.87336633084
 30
0.0
 11
-6.5580948557
 21
-2.90540734901
 31
0.0
  0
LINE
  5
5A
330
124
100
AcDbEntity
  8
drive
100
AcDbLine
 10
-6.5580948557
 20
-2.90540734901
 30
0.0
 11
-6.77467123903
 21
-2.93535851354
 31
0.0
  0
LINE
  5
5B
330
124
100
AcDbEntity
  8
drive
100
AcDbLine
 10
-6.77467123903
 20
-2.93535851354
 30
0.0
 11
-7.0806538783
 21
-2.94352520894
 31
0.0
  0
LINE
  5
5C
330
124
100
AcDbEntity
  8
drive
100
AcDbLine
 10
-7.0806538783
 20
-2.94352520894
 30
0.0
 11
-7.47279457401
 21
-2.91029916927
 31
0.0
  0
LINE
  5
5D
330
124
100
AcDbEntity
  8
drive
100
AcDbLine
 10
-7.47279457401
 20
-2.91029916927
 30
0.0
 11
-7.94458936859
 21
-2.81664690092
 31
0.0
  0
LINE
  5
5E
330
124
100
AcDbEntity
  8
drive
100
AcDbLine
 10
-7.94458936859
 20
-2.81664690092
 30
0.0
 11
-8.48637983159
 21
-2.6445902053
 31
0.0
  0
LINE
  5
5F
330
124
100
AcDbEntity
  8
drive
100
AcDbLine
 10
-8.48637983159
 20
-2.6445902053
 30
0.0
 11
-9.0855207045
 21
-2.37766976851
 31
0.0
  0
LINE
  5
60
330
124
100
AcDbEntity
  8
drive
100
AcDbLine
 10
-9.0855207045
 20
-2.37766976851
 30
0.0
 11
-9.72661122451
 21
-2.00138304363
 31
0.0
  0
LINE
  5
61
330
124
100
AcDbEntity
  8
drive
100
AcDbLine
 10
-9.72661122451
 20
-2.00138304363
 30
0.0
 11
-10.3917863217
 21
-1.50358805641
 31
0.0
  0
LINE
  5
62
330
124
100
AcDbEntity
  8
drive
100
AcDbLine
 10
-10.3917863217
 20
1.50358805641
 30
0.0
 11
-10.3917863217
 21
-1.50358805641
 31
0.0
  0
LINE
  5
63
330
124
100
AcDbEntity
  8
drive
100
AcDbLine
 10
-6.3897426064
 20
-2.85852924141
 30
0.0
 11
-4.69316191712
 21
-5.19367222875
 31
0.0
  0
LINE
  5
64
330
124
100
AcDbEntity
  8
drive
100
AcDbLine
 10
-4.69316191712
 20
-5.19367222875
 30
0.0
 11
-4.7199861432
 21
-5.22821487776
 31
0.0
  0
LINE
  5
65
330
124
100
AcDbEntity
  8
drive
100
AcDbLine
 10
-4.7199861432
 20
-5.22821487776
 30
0.0
 11
-4.7897693529
 21
-5.33929860056
 31
0.0
  0
LINE
  5
66
330
124
100
AcDbEntity
  8
drive
100
AcDbLine
 10
-4.7897693529
 20
-5.33929860056
 30
0.0
 11
-4.88518038613
 21
-5.53601956237
 31
0.0
  0
LINE
  5
67
330
124
100
AcDbEntity
  8
drive
100
AcDbLine
 10
-4.88518038613
 20
-5.53601956237
 30
0.0
 11
-4.98750121053
 21
-5.82450269766
 31
0.0
  0
LINE
  5
68
330
124
100
AcDbEntity
  8
drive
100
AcDbLine
 10
-4.98750121053
 20
-5.82450269766
 30
0.0
 11
-5.07707950814
 21
-6.20771807253
 31
0.0
  0
LINE
  5
69
330
124
100
AcDbEntity
  8
drive
100
AcDbLine
 10
-5.07707950814
 20
-6.20771807253
 30
0.0
 11
-5.13380351745
 21
-6.68536172875
 31
0.0
  0
LINE
  5
6A
330
124
100
AcDbEntity
  8
drive
100
AcDbLine
 10
-5.13380351745
 20
-6.68536172875
 30
0.0
 11
-5.13759033636
 21
-7.253803522
 31
0.0
  0
LINE
  5
6B
330
124
100
AcDbEntity
  8
drive
100
AcDbLine
 10
-5.13759033636
 20
-7.253803522
 30
0.0
 11
-5.06887862737
 21
-7.90610330447
 31
0.0
  0
LINE
  5
6C
330
124
100
AcDbEntity
  8
drive
100
AcDbLine
 10
-5.06887862737
 20
-7.90610330447
 30
0.0
 11
-4.90911655129
 21
-8.6320956138
 31
0.0
  0
LINE
  5
6D
330
124
100
AcDbEntity
  8
drive
100
AcDbLine
 10
-4.90911655129
 20
-8.6320956138
 30
0.0
 11
-4.6412357942
 21
-9.41854183527
 31
0.0
  0
LINE
  5
6E
330
124
100
AcDbEntity
  8
drive
100
AcDbLine
 10
0.744083807006
 20
-6.96034045778
 30
0.0
 11
0.745481402096
 21
-7.00405293235
 31
0.0
  0
LINE
  5
6F
330
124
100
AcDbEntity
  8
drive
100
AcDbLine
 10
0.745481402096
 20
-7.00405293235
 30
0.0
 11
0.736643830638
 21
-7.13493909342
 31
0.0
  0
LINE
  5
70
330
124
100
AcDbEntity
  8
drive
100
AcDbLine
 10
0.736643830638
 20
-7.13493909342
 30
0.0
 11
0.698203297799
 21
-7.35017089291
 31
0.0
  0
LINE
  5
71
330
124
100
AcDbEntity
  8
drive
100
AcDbLine
 10
0.698203297799
 20
-7.35017089291
 30
0.0
 11
0.611416451161
 21
-7.64370132353
 31
0.0
  0
LINE
  5
72
330
124
100
AcDbEntity
  8
drive
100
AcDbLine
 10
0.611416451161
 20
-7.64370132353
 30
0.0
 11
0.458638470458
 21
-8.00638187657
 31
0.0
  0
LINE
  5
73
330
124
100
AcDbEntity
  8
drive
100
AcDbLine
 10
0.458638470458
 20
-8.00638187657
 30
0.0
 11
0.223777260995
 21
-8.42614524783
 31
0.0
  0
LINE
  5
74
330
124
100
AcDbEntity
  8
drive
100
AcDbLine
 10
0.223777260995
 20
-8.42614524783
 30
0.0
 11
-0.107280841003
 21
-8.88825015519
 31
0.0
  0
LINE
  5
75
330
124
100
AcDbEntity
  8
drive
100
AcDbLine
 10
-0.107280841003
 20
-8.88825015519
 30
0.0
 11
-0.546281973502
 21
-9.37558403543
 31
0.0
  0
LINE
  5
76
330
124
100
AcDbEntity
  8
drive
100
AcDbLine
 10
-0.546281973502
 20
-9.37558403543
 30
0.0
 11
-1.10225978081
 21
-9.86901835927
 31
0.0
  0
LINE
  5
77
330
124
100
AcDbEntity
  8
drive
100
AcDbLine
 10
-1.10225978081
 20
-9.86901835927
 30
0.0
 11
-1.78124135646
 21
-10.3478103592
 31
0.0
  0
LINE
  5
78
330
124
100
AcDbEntity
  8
drive
100
AcDbLine
 10
-4.6412357942
 20
-9.41854183527
 30
0.0
 11
-1.78124135646
 21
-10.3478103592
 31
0.0
  0
LINE
  5
79
330
124
100
AcDbEntity
  8
drive
100
AcDbLine
 10
0.744083807006
 20
-6.96034045778
 30
0.0
 11
3.48920902691
 21
-6.0683952052
 31
0.0
  0
LINE
  5
7A
330
124
100
AcDbEntity
  8
drive
100
AcDbLine
 10
3.48920902691
 20
-6.0683952052
 30
0.0
 11
3.51377189662
 21
-6.10458082578
 31
0.0
  0
LINE
  5
7B
330
124
100
AcDbEntity
  8
drive
100
AcDbLine
 10
3.51377189662
 20
-6.10458082578
 30
0.0
 11
3.59785459733
 21
-6.20527536025
 31
0.0
  0
LINE
  5
7C
330
124
100
AcDbEntity
  8
drive
100
AcDbLine
 10
3.59785459733
 20
-6.20527536025
 30
0.0
 11
3.75546371923
 21
-6.35680676547
 31
0.0
  0
LINE
  5
7D
330
124
100
AcDbEntity
  8
drive
100
AcDbLine
 10
3.75546371923
 20
-6.35680676547
 30
0.0
 11
3.99820861127
 21
-6.54326584366
 31
0.0
  0
LINE
  5
7E
330
124
100
AcDbEntity
  8
drive
100
AcDbLine
 10
3.99820861127
 20
-6.54326584366
 30
0.0
 11
4.33498687439
 21
-6.74687993067
 31
0.0
  0
LINE
  5
7F
330
124
100
AcDbEntity
  8
drive
100
AcDbLine
 10
4.33498687439
 20
-6.74687993067
 30
0.0
 11
4.77172430325
 21
-6.94842767638
 31
0.0
  0
LINE
  5
80
330
124
100
AcDbEntity
  8
drive
100
AcDbLine
 10
4.77172430325
 20
-6.94842767638
 30
0.0
 11
5.31117438345
 21
-7.12768732961
 31
0.0
  0
LINE
  5
81
330
124
100
AcDbEntity
  8
drive
100
AcDbLine
 10
5.31117438345
 20
-7.12768732961
 30
0.0
 11
5.95278142794
 21
-7.26391032924
 31
0.0
  0
LINE
  5
82
330
124
100
AcDbEntity
  8
drive
100
AcDbLine
 10
5.95278142794
 20
-7.26391032924
 30
0.0
 11
6.69261034107
 21
-7.3363115271
 31
0.0
  0
LINE
  5
83
330
124
100
AcDbEntity
  8
drive
100
AcDbLine
 10
6.69261034107
 20
-7.3363115271
 30
0.0
 11
7.52334485112
 21
-7.32456703507
 31
0.0
  0
LINE
  5
84
330
124
100
AcDbEntity
  8
drive
100
AcDbLine
 10
6.8496116896
 20
-1.44319773477
 30
0.0
 11
6.89161660402
 21
-1.45537644036
 31
0.0
  0
LINE
  5
85
330
124
100
AcDbEntity
  8
drive
100
AcDbLine
 10
6.89161660402
 20
-1.45537644036
 30
0.0
 11
7.01336578063
 21
-1.50422751838
 31
0.0
  0
LINE
  5
86
330
124
100
AcDbEntity
  8
drive
100
AcDbLine
 10
7.01336578063
 20
-1.50422751838
 30
0.0
 11
7.20618460813
 21
-1.6072969214
 31
0.0
  0
LINE
  5
87
330
124
100
AcDbEntity
  8
drive
100
AcDbLine
 10
7.20618460813
 20
-1.6072969214
 30
0.0
 11
7.4585300264
 21
-1.78054200885
 31
0.0
  0
LINE
  5
88
330
124
100
AcDbEntity
  8
drive
100
AcDbLine
 10
7.4585300264
 20
-1.78054200885
 30
0.0
 11
7.7562487373
 21
-2.03791695736
 31
0.0
  0
LINE
  5
89
330
124
100
AcDbEntity
  8
drive
100
AcDbLine
 10
7.7562487373
 20
-2.03791695736
 30
0.0
 11
8.0828913218
 21
-2.39099725638
 31
0.0
  0
LINE
  5
8A
330
124
100
AcDbEntity
  8
drive
100
AcDbLine
 10
8.0828913218
 20
-2.39099725638
 30
0.0
 11
8.42007662551
 21
-2.84865049112
 31
0.0
  0
LINE
  5
8B
330
124
100
AcDbEntity
  8
drive
100
AcDbLine
 10
8.42007662551
 20
-2.84865049112
 30
0.0
 11
8.74789987744
 21
-3.41675982977
 31
0.0
  0
LINE
  5
8C
330
124
100
AcDbEntity
  8
drive
100
AcDbLine
 10
8.74789987744
 20
-3.41675982977
 30
0.0
 11
9.04537721554
 21
-4.098005738
 31
0.0
  0
LINE
  5
8D
330
124
100
AcDbEntity
  8
drive
100
AcDbLine
 10
9.04537721554
 20
-4.098005738
 30
0.0
 11
9.29091862128
 21
-4.89171045472
 31
0.0
  0
LINE
  5
8E
330
124
100
AcDbEntity
  8
drive
100
AcDbLine
 10
7.52334485112
 20
-7.32456703507
 30
0.0
 11
9.29091862128
 21
-4.89171045472
 31
0.0
  0
CIRCLE
  5
8F
330
124
100
AcDbEntity
  8
drive
100
AcDbCircle
 10
0.0
 20
0.0
 30
0.0
 40
2.65
  0
LINE
  5
92
330
124
100
AcDbEntity
  8
mount
100
AcDbLine
 10
8.42007662551
 20
-2.84865049112
 30
0.0
 11
8.74789987744
 21
-3.41675982977
 31
0.0
  0
LINE
  5
93
330
124
100
AcDbEntity
  8
mount
100
AcDbLine
 10
8.74789987744
 20
-3.41675982977
 30
0.0
 11
9.04537721554
 21
-4.098005738
 31
0.0
  0
LINE
  5
94
330
124
100
AcDbEntity
  8
mount
100
AcDbLine
 10
9.04537721554
 20
-4.098005738
 30
0.0
 11
9.29091862128
 21
-4.89171045472
 31
0.0
  0
LINE
  5
95
330
124
100
AcDbEntity
  8
mount
100
AcDbLine
 10
7.52334485112
 20
-7.32456703507
 30
0.0
 11
9.29091862128
 21
-4.89171045472
 31
0.0
  0
LINE
  5
96
330
124
100
AcDbEntity
  8
mount
100
AcDbLine
 10
6.8496116896
 20
-1.44319773477
 30
0.0
 11
6.8496116896
 21
1.44319773477
 31
0.0
  0
LINE
  5
97
330
124
100
AcDbEntity
  8
mount
100
AcDbLine
 10
6.8496116896
 20
1.44319773477
 30
0.0
 11
6.89161660402
 21
1.45537644036
 31
0.0
  0
LINE
  5
98
330
124
100
AcDbEntity
  8
mount
100
AcDbLine
 10
6.89161660402
 20
1.45537644036
 30
0.0
 11
7.01336578063
 21
1.50422751838
 31
0.0
  0
LINE
  5
99
330
124
100
AcDbEntity
  8
mount
100
AcDbLine
 10
7.01336578063
 20
1.50422751838
 30
0.0
 11
7.20618460813
 21
1.6072969214
 31
0.0
  0
LINE
  5
9A
330
124
100
AcDbEntity
  8
mount
100
AcDbLine
 10
7.20618460813
 20
1.6072969214
 30
0.0
 11
7.4585300264
 21
1.78054200885
 31
0.0
  0
LINE
  5
9B
330
124
100
AcDbEntity
  8
mount
100
AcDbLine
 10
7.4585300264
 20
1.78054200885
 30
0.0
 11
7.7562487373
 21
2.03791695736
 31
0.0
  0
LINE
  5
9C
330
124
100
AcDbEntity
  8
mount
100
AcDbLine
 10
7.7562487373
 20
2.03791695736
 30
0.0
 11
8.0828913218
 21
2.39099725638
 31
0.0
  0
LINE
  5
9D
330
124
100
AcDbEntity
  8
mount
100
AcDbLine
 10
8.0828913218
 20
2.39099725638
 30
0.0
 11
8.42007662551
 21
2.84865049112
 31
0.0
  0
LINE
  5
9E
330
124
100
AcDbEntity
  8
mount
100
AcDbLine
 10
8.42007662551
 20
2.84865049112
 30
0.0
 11
8.74789987744
 21
3.41675982977
 31
0.0
  0
LINE
  5
9F
330
124
100
AcDbEntity
  8
mount
100
AcDbLine
 10
8.74789987744
 20
3.41675982977
 30
0.0
 11
9.04537721554
 21
4.098005738
 31
0.0
  0
LINE
  5
A0
330
124
100
AcDbEntity
  8
mount
100
AcDbLine
 10
9.04537721554
 20
4.098005738
 30
0.0
 11
9.29091862128
 21
4.89171045472
 31
0.0
  0
LINE
  5
A1
330
124
100
AcDbEntity
  8
mount
100
AcDbLine
 10
3.48920902691
 20
6.0683952052
 30
0.0
 11
3.51377189662
 21
6.10458082578
 31
0.0
  0
LINE
  5
A2
330
124
100
AcDbEntity
  8
mount
100
AcDbLine
 10
3.51377189662
 20
6.10458082578
 30
0.0
 11
3.59785459733
 21
6.20527536025
 31
0.0
  0
LINE
  5
A3
330
124
100
AcDbEntity
  8
mount
100
AcDbLine
 10
3.59785459733
 20
6.20527536025
 30
0.0
 11
3.75546371923
 21
6.35680676547
 31
0.0
  0
LINE
  5
A4
330
124
100
AcDbEntity
  8
mount
100
AcDbLine
 10
3.75546371923
 20
6.35680676547
 30
0.0
 11
3.99820861127
 21
6.54326584366
 31
0.0
  0
LINE
  5
A5
330
124
100
AcDbEntity
  8
mount
100
AcDbLine
 10
3.99820861127
 20
6.54326584366
 30
0.0
 11
4.33498687439
 21
6.74687993067
 31
0.0
  0
LINE
  5
A6
330
124
100
AcDbEntity
  8
mount
100
AcDbLine
 10
4.33498687439
 20
6.74687993067
 30
0.0
 11
4.77172430325
 21
6.94842767638
 31
0.0
  0
LINE
  5
A7
330
124
100
AcDbEntity
  8
mount
100
AcDbLine
 10
4.77172430325
 20
6.94842767638
 30
0.0
 11
5.31117438345
 21
7.12768732961
 31
0.0
  0
LINE
  5
A8
330
124
100
AcDbEntity
  8
mount
100
AcDbLine
 10
5.31117438345
 20
7.12768732961
 30
0.0
 11
5.95278142794
 21
7.26391032924
 31
0.0
  0
LINE
  5
A9
330
124
100
AcDbEntity
  8
mount
100
AcDbLine
 10
5.95278142794
 20
7.26391032924
 30
0.0
 11
6.69261034107
 21
7.3363115271
 31
0.0
  0
LINE
  5
AA
330
124
100
AcDbEntity
  8
mount
100
AcDbLine
 10
6.69261034107
 20
7.3363115271
 30
0.0
 11
7.52334485112
 21
7.32456703507
 31
0.0
  0
LINE
  5
AB
330
124
100
AcDbEntity
  8
mount
100
AcDbLine
 10
9.29091862128
 20
4.89171045472
 30
0.0
 11
7.52334485112
 21
7.32456703507
 31
0.0
  0
LINE
  5
AC
330
124
100
AcDbEntity
  8
mount
100
AcDbLine
 10
3.48920902691
 20
6.0683952052
 30
0.0
 11
0.744083807006
 21
6.96034045778
 31
0.0
  0
LINE
  5
AD
330
124
100
AcDbEntity
  8
mount
100
AcDbLine
 10
0.744083807006
 20
6.96034045778
 30
0.0
 11
0.745481402096
 21
7.00405293235
 31
0.0
  0
LINE
  5
AE
330
124
100
AcDbEntity
  8
mount
100
AcDbLine
 10
0.745481402096
 20
7.00405293235
 30
0.0
 11
0.736643830638
 21
7.13493909342
 31
0.0
  0
LINE
  5
AF
330
124
100
AcDbEntity
  8
mount
100
AcDbLine
 10
0.736643830638
 20
7.13493909342
 30
0.0
 11
0.698203297799
 21
7.35017089291
 31
0.0
  0
LINE
  5
B0
330
124
100
AcDbEntity
  8
mount
100
AcDbLine
 10
0.698203297799
 20
7.35017089291
 30
0.0
 11
0.611416451161
 21
7.64370132353
 31
0.0
  0
LINE
  5
B1
330
124
100
AcDbEntity
  8
mount
100
AcDbLine
 10
0.611416451161
 20
7.64370132353
 30
0.0
 11
0.458638470458
 21
8.00638187657
 31
0.0
  0
LINE
  5
B2
330
124
100
AcDbEntity
  8
mount
100
AcDbLine
 10
0.458638470458
 20
8.00638187657
 30
0.0
 11
0.223777260995
 21
8.42614524783
 31
0.0
  0
LINE
  5
B3
330
124
100
AcDbEntity
  8
mount
100
AcDbLine
 10
0.223777260995
 20
8.42614524783
 30
0.0
 11
-0.107280841003
 21
8.88825015519
 31
0.0
  0
LINE
  5
B4
330
124
100
AcDbEntity
  8
mount
100
AcDbLine
 10
-0.107280841003
 20
8.88825015519
 30
0.0
 11
-0.546281973502
 21
9.37558403543
 31
0.0
  0
LINE
  5
B5
330
124
100
AcDbEntity
  8
mount
100
AcDbLine
 10
-0.546281973502
 20
9.37558403543
 30
0.0
 11
-1.10225978081
 21
9.86901835927
 31
0.0
  0
LINE
  5
B6
330
124
100
AcDbEntity
  8
mount
100
AcDbLine
 10
-1.10225978081
 20
9.86901835927
 30
0.0
 11
-1.78124135646
 21
10.3478103592
 31
0.0
  0
LINE
  5
B7
330
124
100
AcDbEntity
  8
mount
100
AcDbLine
 10
-4.69316191712
 20
5.19367222875
 30
0.0
 11
-4.7199861432
 21
5.22821487776
 31
0.0
  0
LINE
  5
B8
330
124
100
AcDbEntity
  8
mount
100
AcDbLine
 10
-4.7199861432
 20
5.22821487776
 30
0.0
 11
-4.7897693529
 21
5.33929860056
 31
0.0
  0
LINE
  5
B9
330
124
100
AcDbEntity
  8
mount
100
AcDbLine
 10
-4.7897693529
 20
5.33929860056
 30
0.0
 11
-4.88518038613
 21
5.53601956237
 31
0.0
  0
LINE
  5
BA
330
124
100
AcDbEntity
  8
mount
100
AcDbLine
 10
-4.88518038613
 20
5.53601956237
 30
0.0
 11
-4.98750121053
 21
5.82450269766
 31
0.0
  0
LINE
  5
BB
330
124
100
AcDbEntity
  8
mount
100
AcDbLine
 10
-4.98750121053
 20
5.82450269766
 30
0.0
 11
-5.07707950814
 21
6.20771807253
 31
0.0
  0
LINE
  5
BC
330
124
100
AcDbEntity
  8
mount
100
AcDbLine
 10
-5.07707950814
 20
6.20771807253
 30
0.0
 11
-5.13380351745
 21
6.68536172875
 31
0.0
  0
LINE
  5
BD
330
124
100
AcDbEntity
  8
mount
100
AcDbLine
 10
-5.13380351745
 20
6.68536172875
 30
0.0
 11
-5.13759033636
 21
7.253803522
 31
0.0
  0
LINE
  5
BE
330
124
100
AcDbEntity
  8
mount
100
AcDbLine
 10
-5.13759033636
 20
7.253803522
 30
0.0
 11
-5.06887862737
 21
7.90610330447
 31
0.0
  0
LINE
  5
BF
330
124
100
AcDbEntity
  8
mount
100
AcDbLine
 10
-5.06887862737
 20
7.90610330447
 30
0.0
 11
-4.90911655129
 21
8.6320956138
 31
0.0
  0
LINE
  5
C0
330
124
100
AcDbEntity
  8
mount
100
AcDbLine
 10
-4.90911655129
 20
8.6320956138
 30
0.0
 11
-4.6412357942
 21
9.41854183527
 31
0.0
  0
LINE
  5
C1
330
124
100
AcDbEntity
  8
mount
100
AcDbLine
 10
-1.78124135646
 20
10.3478103592
 30
0.0
 11
-4.6412357942
 21
9.41854183527
 31
0.0
  0
LINE
  5
C2
330
124
100
AcDbEntity
  8
mount
100
AcDbLine
 10
-4.69316191712
 20
5.19367222875
 30
0.0
 11
-6.542896259763495
 21
2.647731321866873
 31
0.0
  0
LINE
  5
D8
330
124
100
AcDbEntity
  8
mount
100
AcDbLine
 10
-6.542896259763495
 20
-2.647731321866873
 30
0.0
 11
-4.69316191712
 21
-5.19367222875
 31
0.0
  0
LINE
  5
D9
330
124
100
AcDbEntity
  8
mount
100
AcDbLine
 10
-4.69316191712
 20
-5.19367222875
 30
0.0
 11
-4.7199861432
 21
-5.22821487776
 31
0.0
  0
LINE
  5
DA
330
124
100
AcDbEntity
  8
mount
100
AcDbLine
 10
-4.7199861432
 20
-5.22821487776
 30
0.0
 11
-4.7897693529
 21
-5.33929860056
 31
0.0
  0
LINE
  5
DB
330
124
100
AcDbEntity
  8
mount
100
AcDbLine
 10
-4.7897693529
 20
-5.33929860056
 30
0.0
 11
-4.88518038613
 21
-5.53601956237
 31
0.0
  0
LINE
  5
DC
330
124
100
AcDbEntity
  8
mount
100
AcDbLine
 10
-4.88518038613
 20
-5.53601956237
 30
0.0
 11
-4.98750121053
 21
-5.82450269766
 31
0.0
  0
LINE
  5
DD
330
124
100
AcDbEntity
  8
mount
100
AcDbLine
 10
-4.98750121053
 20
-5.82450269766
 30
0.0
 11
-5.07707950814
 21
-6.20771807253
 31
0.0
  0
LINE
  5
DE
330
124
100
AcDbEntity
  8
mount
100
AcDbLine
 10
-5.07707950814
 20
-6.20771807253
 30
0.0
 11
-5.13380351745
 21
-6.68536172875
 31
0.0
  0
LINE
  5
DF
330
124
100
AcDbEntity
  8
mount
100
AcDbLine
 10
-5.13380351745
 20
-6.68536172875
 30
0.0
 11
-5.13759033636
 21
-7.253803522
 31
0.0
  0
LINE
  5
E0
330
124
100
AcDbEntity
  8
mount
100
AcDbLine
 10
-5.13759033636
 20
-7.253803522
 30
0.0
 11
-5.06887862737
 21
-7.90610330447
 31
0.0
  0
LINE
  5
E1
330
124
100
AcDbEntity
  8
mount
100
AcDbLine
 10
-5.06887862737
 20
-7.90610330447
 30
0.0
 11
-4.90911655129
 21
-8.6320956138
 31
0.0
  0
LINE
  5
E2
330
124
100
AcDbEntity
  8
mount
100
AcDbLine
 10
-4.90911655129
 20
-8.6320956138
 30
0.0
 11
-4.6412357942
 21
-9.41854183527
 31
0.0
  0
LINE
  5
E3
330
124
100
AcDbEntity
  8
mount
100
AcDbLine
 10
0.744083807006
 20
-6.96034045778
 30
0.0
 11
0.745481402096
 21
-7.00405293235
 31
0.0
  0
LINE
  5
E4
330
124
100
AcDbEntity
  8
mount
100
AcDbLine
 10
0.745481402096
 20
-7.00405293235
 30
0.0
 11
0.736643830638
 21
-7.13493909342
 31
0.0
  0
LINE
  5
E5
330
124
100
AcDbEntity
  8
mount
100
AcDbLine
 10
0.736643830638
 20
-7.13493909342
 30
0.0
 11
0.698203297799
 21
-7.35017089291
 31
0.0
  0
LINE
  5
E6
330
124
100
AcDbEntity
  8
mount
100
AcDbLine
 10
0.698203297799
 20
-7.35017089291
 30
0.0
 11
0.611416451161
 21
-7.64370132353
 31
0.0
  0
LINE
  5
E7
330
124
100
AcDbEntity
  8
mount
100
AcDbLine
 10
0.611416451161
 20
-7.64370132353
 30
0.0
 11
0.458638470458
 21
-8.00638187657
 31
0.0
  0
LINE
  5
E8
330
124
100
AcDbEntity
  8
mount
100
AcDbLine
 10
0.458638470458
 20
-8.00638187657
 30
0.0
 11
0.223777260995
 21
-8.42614524783
 31
0.0
  0
LINE
  5
E9
330
124
100
AcDbEntity
  8
mount
100
AcDbLine
 10
0.223777260995
 20
-8.42614524783
 30
0.0
 11
-0.107280841003
 21
-8.88825015519
 31
0.0
  0
LINE
  5
EA
330
124
100
AcDbEntity
  8
mount
100
AcDbLine
 10
-0.107280841003
 20
-8.88825015519
 30
0.0
 11
-0.546281973502
 21
-9.37558403543
 31
0.0
  0
LINE
  5
EB
330
124
100
AcDbEntity
  8
mount
100
AcDbLine
 10
-0.546281973502
 20
-9.37558403543
 30
0.0
 11
-1.10225978081
 21
-9.86901835927
 31
0.0
  0
LINE
  5
EC
330
124
100
AcDbEntity
  8
mount
100
AcDbLine
 10
-1.10225978081
 20
-9.86901835927
 30
0.0
 11
-1.78124135646
 21
-10.3478103592
 31
0.0
  0
LINE
  5
ED
330
124
100
AcDbEntity
  8
mount
100
AcDbLine
 10
-4.6412357942
 20
-9.41854183527
 30
0.0
 11
-1.78124135646
 21
-10.3478103592
 31
0.0
  0
LINE
  5
EE
330
124
100
AcDbEntity
  8
mount
100
AcDbLine
 10
0.744083807006
 20
-6.96034045778
 30
0.0
 11
3.48920902691
 21
-6.0683952052
 31
0.0
  0
LINE
  5
EF
330
124
100
AcDbEntity
  8
mount
100
AcDbLine
 10
3.48920902691
 20
-6.0683952052
 30
0.0
 11
3.51377189662
 21
-6.10458082578
 31
0.0
  0
LINE
  5
F0
330
124
100
AcDbEntity
  8
mount
100
AcDbLine
 10
3.51377189662
 20
-6.10458082578
 30
0.0
 11
3.59785459733
 21
-6.20527536025
 31
0.0
  0
LINE
  5
F1
330
124
100
AcDbEntity
  8
mount
100
AcDbLine
 10
3.59785459733
 20
-6.20527536025
 30
0.0
 11
3.75546371923
 21
-6.35680676547
 31
0.0
  0
LINE
  5
F2
330
124
100
AcDbEntity
  8
mount
100
AcDbLine
 10
3.75546371923
 20
-6.35680676547
 30
0.0
 11
3.99820861127
 21
-6.54326584366
 31
0.0
  0
LINE
  5
F3
330
124
100
AcDbEntity
  8
mount
100
AcDbLine
 10
3.99820861127
 20
-6.54326584366
 30
0.0
 11
4.33498687439
 21
-6.74687993067
 31
0.0
  0
LINE
  5
F4
330
124
100
AcDbEntity
  8
mount
100
AcDbLine
 10
4.33498687439
 20
-6.74687993067
 30
0.0
 11
4.77172430325
 21
-6.94842767638
 31
0.0
  0
LINE
  5
F5
330
124
100
AcDbEntity
  8
mount
100
AcDbLine
 10
4.77172430325
 20
-6.94842767638
 30
0.0
 11
5.31117438345
 21
-7.12768732961
 31
0.0
  0
LINE
  5
F6
330
124
100
AcDbEntity
  8
mount
100
AcDbLine
 10
5.31117438345
 20
-7.12768732961
 30
0.0
 11
5.95278142794
 21
-7.26391032924
 31
0.0
  0
LINE
  5
F7
330
124
100
AcDbEntity
  8
mount
100
AcDbLine
 10
5.95278142794
 20
-7.26391032924
 30
0.0
 11
6.69261034107
 21
-7.3363115271
 31
0.0
  0
LINE
  5
F8
330
124
100
AcDbEntity
  8
mount
100
AcDbLine
 10
6.69261034107
 20
-7.3363115271
 30
0.0
 11
7.52334485112
 21
-7.32456703507
 31
0.0
  0
LINE
  5
F9
330
124
100
AcDbEntity
  8
mount
100
AcDbLine
 10
6.8496116896
 20
-1.44319773477
 30
0.0
 11
6.89161660402
 21
-1.45537644036
 31
0.0
  0
LINE
  5
FA
330
124
100
AcDbEntity
  8
mount
100
AcDbLine
 10
6.89161660402
 20
-1.45537644036
 30
0.0
 11
7.01336578063
 21
-1.50422751838
 31
0.0
  0
LINE
  5
FB
330
124
100
AcDbEntity
  8
mount
100
AcDbLine
 10
7.01336578063
 20
-1.50422751838
 30
0.0
 11
7.20618460813
 21
-1.6072969214
 31
0.0
  0
LINE
  5
FC
330
124
100
AcDbEntity
  8
mount
100
AcDbLine
 10
7.20618460813
 20
-1.6072969214
 30
0.0
 11
7.4585300264
 21
-1.78054200885
 31
0.0
  0
LINE
  5
FD
330
124
100
AcDbEntity
  8
mount
100
AcDbLine
 10
7.4585300264
 20
-1.78054200885
 30
0.0
 11
7.7562487373
 21
-2.03791695736
 31
0.0
  0
LINE
  5
FE
330
124
100
AcDbEntity
  8
mount
100
AcDbLine
 10
7.7562487373
 20
-2.03791695736
 30
0.0
 11
8.0828913218
 21
-2.39099725638
 31
0.0
  0
LINE
  5
FF
330
124
100
AcDbEntity
  8
mount
100
AcDbLine
 10
8.0828913218
 20
-2.39099725638
 30
0.0
 11
8.42007662551
 21
-2.84865049112
 31
0.0
  0
LINE
  5
103
330
124
100
AcDbEntity
  8
mount
100
AcDbLine
 10
-0.434125
 20
3.42257731605511
 30
0.0
 11
-6.542896259763495
 21
2.647731321866873
 31
0.0
  0
LINE
  5
104
330
124
100
AcDbEntity
  8
mount
100
AcDbLine
 10
-6.542896259763495
 20
-2.647731321866873
 30
0.0
 11
-0.434125
 21
-3.42257731605511
 31
0.0
  0
ARC
  5
105
330
124
100
AcDbEntity
  8
mount
100
AcDbCircle
 10
0.0
 20
0.0
 30
0.0
 40
3.45
100
AcDbArc
 50
262.7711177350188
 51
97.22888226498121
  0
ENDSEC
  0
SECTION
  2
OBJECTS
  0
DICTIONARY
  5
112
330
0
100
AcDbDictionary
281
     1
  3
ACAD_GROUP
350
113
  3
ACAD_LAYOUT
350
11F
  3
ACAD_MATERIAL
350
140
  3
ACAD_MLEADERSTYLE
350
170
  3
ACAD_MLINESTYLE
350
11C
  3
ACAD_PLOTSETTINGS
350
11E
  3
ACAD_PLOTSTYLENAME
350
114
  3
ACAD_TABLESTYLE
350
16F
  3
ACAD_VISUALSTYLE
350
12F
  3
QCAD_OBJECTS
350
145
  0
DICTIONARY
  5
113
102
{ACAD_REACTORS
330
112
102
}
330
112
100
AcDbDictionary
281
     1
  0
DICTIONARY
  5
11F
102
{ACAD_REACTORS
330
112
102
}
330
112
100
AcDbDictionary
281
     1
  3
Layout1
350
123
  3
Layout2
350
12B
  3
Model
350
127
  0
DICTIONARY
  5
140
102
{ACAD_REACTORS
330
112
102
}
330
112
100
AcDbDictionary
281
     1
  3
ByBlock
350
142
  3
ByLayer
350
141
  3
Global
350
143
  0
DICTIONARY
  5
170
102
{ACAD_REACTORS
330
112
102
}
330
112
100
AcDbDictionary
281
     1
  0
DICTIONARY
  5
11C
102
{ACAD_REACTORS
330
112
102
}
330
112
100
AcDbDictionary
281
     1
  3
Standard
350
11D
  0
DICTIONARY
  5
11E
102
{ACAD_REACTORS
330
112
102
}
330
112
100
AcDbDictionary
281
     1
  0
ACDBDICTIONARYWDFLT
  5
114
102
{ACAD_REACTORS
330
112
102
}
330
112
100
AcDbDictionary
281
     1
  3
Normal
350
115
100
AcDbDictionaryWithDefault
340
115
  0
DICTIONARY
  5
16F
102
{ACAD_REACTORS
330
112
102
}
330
112
100
AcDbDictionary
281
     1
  0
DICTIONARY
  5
12F
102
{ACAD_REACTORS
330
112
102
}
330
112
100
AcDbDictionary
281
     1
  3
2dWireframe
350
134
  3
3D Hidden
350
136
  3
3dWireframe
350
135
  3
Basic
350
137
  3
Brighten
350
13B
  3
ColorChange
350
13F
  3
Conceptual
350
139
  3
Dim
350
13A
  3
Facepattern
350
13E
  3
Flat
350
130
  3
FlatWithEdges
350
131
  3
Gouraud
350
132
  3
GouraudWithEdges
350
133
  3
Linepattern
350
13D
  3
Realistic
350
138
  3
Thicken
350
13C
  0
DICTIONARY
  5
145
102
{ACAD_REACTORS
330
112
102
}
330
112
100
AcDbDictionary
281
     1
  3
Grid/DisplayGrid
350
155
  3
Grid/GridSpacingX
350
14E
  3
Grid/GridSpacingY
350
14F
  3
Grid/MetaGridSpacingX
350
149
  3
Grid/MetaGridSpacingY
350
14C
  3
MultiPageSettings/Columns
350
14D
  3
MultiPageSettings/GlueMarginsBottom
350
152
  3
MultiPageSettings/GlueMarginsLeft
350
150
  3
MultiPageSettings/GlueMarginsRight
350
146
  3
MultiPageSettings/GlueMarginsTop
350
159
  3
MultiPageSettings/PrintCropMarks
350
148
  3
MultiPageSettings/Rows
350
151
  3
PageSettings/OffsetX
350
157
  3
PageSettings/OffsetY
350
158
  3
PageSettings/PageOrientation
350
147
  3
PageSettings/PaperHeight
350
14A
  3
PageSettings/PaperWidth
350
153
  3
PageSettings/Scale
350
14B
  3
PageSettings/ShowPaperBorders
350
156
  3
UnitSettings/PaperUnit
350
154
  0
LAYOUT
  5
123
102
{ACAD_REACTORS
330
11F
102
}
330
11F
100
AcDbPlotSettings
  1

  2
none_device
  4

  6

 40
0.0
 41
0.0
 42
0.0
 43
0.0
 44
0.0
 45
0.0
 46
0.0
 47
0.0
 48
0.0
 49
0.0
140
0.0
141
0.0
142
1.0
143
1.0
 70
   688
 72
     0
 73
     0
 74
     5
  7

 75
    16
 76
     0
 77
     2
 78
   300
147
1.0
148
0.0
149
0.0
100
AcDbLayout
  1
Layout1
 70
     1
 71
     1
 10
0.0
 20
0.0
 11
12.0
 21
9.0
 12
0.0
 22
0.0
 32
0.0
 14
1.000000000000000E+20
 24
1.000000000000000E+20
 34
1.000000000000000E+20
 15
-1.000000000000000E+20
 25
-1.000000000000000E+20
 35
-1.000000000000000E+20
146
0.0
 13
0.0
 23
0.0
 33
0.0
 16
1.0
 26
0.0
 36
0.0
 17
0.0
 27
1.0
 37
0.0
 76
     0
330
120
  0
LAYOUT
  5
12B
102
{ACAD_REACTORS
330
11F
102
}
330
11F
100
AcDbPlotSettings
  1

  2
none_device
  4

  6

 40
0.0
 41
0.0
 42
0.0
 43
0.0
 44
0.0
 45
0.0
 46
0.0
 47
0.0
 48
0.0
 49
0.0
140
0.0
141
0.0
142
1.0
143
1.0
 70
   688
 72
     0
 73
     0
 74
     5
  7

 75
    16
 76
     0
 77
     2
 78
   300
147
1.0
148
0.0
149
0.0
100
AcDbLayout
  1
Layout2
 70
     1
 71
     2
 10
0.0
 20
0.0
 11
0.0
 21
0.0
 12
0.0
 22
0.0
 32
0.0
 14
0.0
 24
0.0
 34
0.0
 15
0.0
 25
0.0
 35
0.0
146
0.0
 13
0.0
 23
0.0
 33
0.0
 16
1.0
 26
0.0
 36
0.0
 17
0.0
 27
1.0
 37
0.0
 76
     0
330
128
  0
LAYOUT
  5
127
102
{ACAD_REACTORS
330
11F
102
}
330
11F
100
AcDbPlotSettings
  1

  2
none_device
  4

  6

 40
0.0
 41
0.0
 42
0.0
 43
0.0
 44
0.0
 45
0.0
 46
0.0
 47
0.0
 48
0.0
 49
0.0
140
0.0
141
0.0
142
1.0
143
1.0
 70
  1712
 72
     0
 73
     0
 74
     0
  7

 75
     0
 76
     0
 77
     2
 78
   300
147
1.0
148
0.0
149
0.0
100
AcDbLayout
  1
Model
 70
     1
 71
     0
 10
0.0
 20
0.0
 11
12.0
 21
9.0
 12
0.0
 22
0.0
 32
0.0
 14
1.000000000000000E+20
 24
1.000000000000000E+20
 34
1.000000000000000E+20
 15
-1.000000000000000E+20
 25
-1.000000000000000E+20
 35
-1.000000000000000E+20
146
0.0
 13
0.0
 23
0.0
 33
0.0
 16
1.0
 26
0.0
 36
0.0
 17
0.0
 27
1.0
 37
0.0
 76
     0
330
124
331
12E
  0
MATERIAL
  5
142
102
{ACAD_REACTORS
330
140
102
}
330
140
100
AcDbMaterial
  1
ByBlock
 72
     1
 94
      127
  0
MATERIAL
  5
141
102
{ACAD_REACTORS
330
140
102
}
330
140
100
AcDbMaterial
  1
ByLayer
 72
     1
 94
      127
  0
MATERIAL
  5
143
102
{ACAD_REACTORS
330
140
102
}
330
140
100
AcDbMaterial
  1
Global
 72
     1
 94
      127
  0
MLINESTYLE
  5
11D
102
{ACAD_REACTORS
330
11C
102
}
330
11C
100
AcDbMlineStyle
  2
Standard
 70
     0
  3

 62
   256
 51
90.0
 52
90.0
 71
     2
 49
0.5
 62
   256
  6
BYLAYER
 49
-0.5
 62
   256
  6
BYLAYER
  0
ACDBPLACEHOLDER
  5
115
102
{ACAD_REACTORS
330
114
102
}
330
114
  0
VISUALSTYLE
  5
134
102
{ACAD_REACTORS
330
12F
102
}
330
12F
100
AcDbVisualStyle
  2
2dWireframe
 70
     4
177
     2
291
     0
 71
     0
176
     1
 72
     2
176
     1
 73
     0
176
     1
 90
        0
176
     1
 40
-0.6
176
     1
 41
-30.0
176
     1
 62
     5
 63
     7
421
 16777215
176
     1
 74
     1
176
     1
 91
        4
176
     1
 64
     7
176
     1
 65
   257
176
     1
 75
     1
176
     1
175
     1
176
     1
 42
1.0
176
     1
 92
        0
176
     1
 66
   257
176
     1
 43
1.0
176
     1
 76
     1
176
     1
 77
     6
176
     1
 78
     2
176
     1
 67
     7
176
     1
 79
     5
176
     1
170
     0
176
     1
171
     0
176
     1
290
     0
176
     1
 93
        1
176
     1
 44
0.0
176
     1
173
     0
176
     1
  0
VISUALSTYLE
  5
136
102
{ACAD_REACTORS
330
12F
102
}
330
12F
100
AcDbVisualStyle
  2
3D Hidden
 70
     6
177
     2
291
     0
 71
     1
176
     1
 72
     2
176
     1
 73
     2
176
     1
 90
        0
176
     1
 40
-0.6
176
     1
 41
-30.0
176
     1
 62
     5
 63
     7
421
 16777215
176
     1
 74
     2
176
     1
 91
        2
176
     1
 64
     7
176
     1
 65
   257
176
     1
 75
     2
176
     1
175
     1
176
     1
 42
40.0
176
     1
 92
        0
176
     1
 66
   257
176
     1
 43
1.0
176
     1
 76
     1
176
     1
 77
     6
176
     1
 78
     2
176
     1
 67
     7
176
     1
 79
     3
176
     1
170
     0
176
     1
171
     0
176
     1
290
     0
176
     1
 93
        1
176
     1
 44
0.0
176
     1
173
     0
176
     1
  0
VISUALSTYLE
  5
135
102
{ACAD_REACTORS
330
12F
102
}
330
12F
100
AcDbVisualStyle
  2
3dWireframe
 70
     5
177
     2
291
     0
 71
     0
176
     1
 72
     2
176
     1
 73
     0
176
     1
 90
        0
176
     1
 40
-0.6
176
     1
 41
-30.0
176
     1
 62
     5
 63
     7
421
 16777215
176
     1
 74
     1
176
     1
 91
        4
176
     1
 64
     7
176
     1
 65
   257
176
     1
 75
     1
176
     1
175
     1
176
     1
 42
1.0
176
     1
 92
        0
176
     1
 66
   257
176
     1
 43
1.0
176
     1
 76
     1
176
     1
 77
     6
176
     1
 78
     2
176
     1
 67
     7
176
     1
 79
     5
176
     1
170
     0
176
     1
171
     0
176
     1
290
     0
176
     1
 93
        1
176
     1
 44
0.0
176
     1
173
     0
176
     1
  0
VISUALSTYLE
  5
137
102
{ACAD_REACTORS
330
12F
102
}
330
12F
100
AcDbVisualStyle
  2
Basic
 70
     7
177
     2
291
     1
 71
     1
176
     1
 72
     0
176
     1
 73
     1
176
     1
 90
        0
176
     1
 40
-0.6
176
     1
 41
-30.0
176
     1
 62
     5
 63
     7
421
 16777215
176
     1
 74
     0
176
     1
 91
        4
176
     1
 64
     7
176
     1
 65
   257
176
     1
 75
     1
176
     1
175
     1
176
     1
 42
1.0
176
     1
 92
        8
176
     1
 66
     7
176
     1
 43
1.0
176
     1
 76
     1
176
     1
 77
     6
176
     1
 78
     2
176
     1
 67
     7
176
     1
 79
     5
176
     1
170
     0
176
     1
171
     0
176
     1
290
     0
176
     1
 93
        1
176
     1
 44
0.0
176
     1
173
     0
176
     1
  0
VISUALSTYLE
  5
13B
102
{ACAD_REACTORS
330
12F
102
}
330
12F
100
AcDbVisualStyle
  2
Brighten
 70
    12
177
     2
291
     1
 71
     2
176
     1
 72
     2
176
     1
 73
     0
176
     1
 90
        0
176
     1
 40
-0.6
176
     1
 41
-30.0
176
     1
 62
     5
 63
     7
421
 16777215
176
     1
 74
     1
176
     1
 91
        4
176
     1
 64
     7
176
     1
 65
   257
176
     1
 75
     1
176
     1
175
     1
176
     1
 42
1.0
176
     1
 92
        8
176
     1
 66
     7
176
     1
 43
1.0
176
     1
 76
     1
176
     1
 77
     6
176
     1
 78
     2
176
     1
 67
     7
176
     1
 79
     5
176
     1
170
     0
176
     1
171
     0
176
     1
290
     0
176
     1
 93
        1
176
     1
 44
50.0
176
     1
173
     0
176
     1
  0
VISUALSTYLE
  5
13F
102
{ACAD_REACTORS
330
12F
102
}
330
12F
100
AcDbVisualStyle
  2
ColorChange
 70
    16
177
     2
291
     1
 71
     2
176
     1
 72
     2
176
     1
 73
     3
176
     1
 90
        0
176
     1
 40
-0.6
176
     1
 41
-30.0
176
     1
 62
     5
 63
     8
421
  8421504
176
     1
 74
     1
176
     1
 91
        4
176
     1
 64
     7
176
     1
 65
   257
176
     1
 75
     1
176
     1
175
     1
176
     1
 42
1.0
176
     1
 92
        8
176
     1
 66
     8
424
  8421504
176
     1
 43
1.0
176
     1
 76
     1
176
     1
 77
     6
176
     1
 78
     2
176
     1
 67
     7
176
     1
 79
     5
176
     1
170
     0
176
     1
171
     0
176
     1
290
     0
176
     1
 93
        1
176
     1
 44
0.0
176
     1
173
     0
176
     1
  0
VISUALSTYLE
  5
139
102
{ACAD_REACTORS
330
12F
102
}
330
12F
100
AcDbVisualStyle
  2
Conceptual
 70
     9
177
     2
291
     0
 71
     3
176
     1
 72
     2
176
     1
 73
     0
176
     1
 90
        0
176
     1
 40
-0.6
176
     1
 41
-30.0
176
     1
 62
     5
 63
     7
421
 16777215
176
     1
 74
     2
176
     1
 91
        2
176
     1
 64
     7
176
     1
 65
   257
176
     1
 75
     1
176
     1
175
     1
176
     1
 42
40.0
176
     1
 92
        8
176
     1
 66
     7
176
     1
 43
1.0
176
     1
 76
     1
176
     1
 77
     6
176
     1
 78
     2
176
     1
 67
     7
176
     1
 79
     3
176
     1
170
     0
176
     1
171
     0
176
     1
290
     0
176
     1
 93
        1
176
     1
 44
0.0
176
     1
173
     0
176
     1
  0
VISUALSTYLE
  5
13A
102
{ACAD_REACTORS
330
12F
102
}
330
12F
100
AcDbVisualStyle
  2
Dim
 70
    11
177
     2
291
     1
 71
     2
176
     1
 72
     2
176
     1
 73
     0
176
     1
 90
        0
176
     1
 40
-0.6
176
     1
 41
-30.0
176
     1
 62
     5
 63
     7
421
 16777215
176
     1
 74
     1
176
     1
 91
        4
176
     1
 64
     7
176
     1
 65
   257
176
     1
 75
     1
176
     1
175
     1
176
     1
 42
1.0
176
     1
 92
        8
176
     1
 66
     7
176
     1
 43
1.0
176
     1
 76
     1
176
     1
 77
     6
176
     1
 78
     2
176
     1
 67
     7
176
     1
 79
     5
176
     1
170
     0
176
     1
171
     0
176
     1
290
     0
176
     1
 93
        1
176
     1
 44
-50.0
176
     1
173
     0
176
     1
  0
VISUALSTYLE
  5
13E
102
{ACAD_REACTORS
330
12F
102
}
330
12F
100
AcDbVisualStyle
  2
Facepattern
 70
    15
177
     2
291
     1
 71
     2
176
     1
 72
     2
176
     1
 73
     0
176
     1
 90
        0
176
     1
 40
-0.6
176
     1
 41
-30.0
176
     1
 62
     5
 63
     7
421
 16777215
176
     1
 74
     1
176
     1
 91
        4
176
     1
 64
     7
176
     1
 65
   257
176
     1
 75
     1
176
     1
175
     1
176
     1
 42
1.0
176
     1
 92
        8
176
     1
 66
     7
176
     1
 43
1.0
176
     1
 76
     1
176
     1
 77
     6
176
     1
 78
     2
176
     1
 67
     7
176
     1
 79
     5
176
     1
170
     0
176
     1
171
     0
176
     1
290
     0
176
     1
 93
        1
176
     1
 44
0.0
176
     1
173
     0
176
     1
  0
VISUALSTYLE
  5
130
102
{ACAD_REACTORS
330
12F
102
}
330
12F
100
AcDbVisualStyle
  2
Flat
 70
     0
177
     2
291
     1
 71
     2
176
     1
 72
     1
176
     1
 73
     1
176
     1
 90
        2
176
     1
 40
-0.6
176
     1
 41
30.0
176
     1
 62
     5
 63
     7
421
 16777215
176
     1
 74
     0
176
     1
 91
        4
176
     1
 64
     7
176
     1
 65
   257
176
     1
 75
     1
176
     1
175
     1
176
     1
 42
1.0
176
     1
 92
        8
176
     1
 66
     7
176
     1
 43
1.0
176
     1
 76
     1
176
     1
 77
     6
176
     1
 78
     2
176
     1
 67
     7
176
     1
 79
     5
176
     1
170
     0
176
     1
171
     0
176
     1
290
     0
176
     1
 93
       13
176
     1
 44
0.0
176
     1
173
     0
176
     1
  0
VISUALSTYLE
  5
131
102
{ACAD_REACTORS
330
12F
102
}
330
12F
100
AcDbVisualStyle
  2
FlatWithEdges
 70
     1
177
     2
291
     1
 71
     2
176
     1
 72
     1
176
     1
 73
     1
176
     1
 90
        2
176
     1
 40
-0.6
176
     1
 41
30.0
176
     1
 62
     5
 63
     7
421
 16777215
176
     1
 74
     1
176
     1
 91
        4
176
     1
 64
     7
176
     1
 65
   257
176
     1
 75
     1
176
     1
175
     1
176
     1
 42
1.0
176
     1
 92
        0
176
     1
 66
   257
176
     1
 43
1.0
176
     1
 76
     1
176
     1
 77
     6
176
     1
 78
     2
176
     1
 67
     7
176
     1
 79
     5
176
     1
170
     0
176
     1
171
     0
176
     1
290
     0
176
     1
 93
       13
176
     1
 44
0.0
176
     1
173
     0
176
     1
  0
VISUALSTYLE
  5
132
102
{ACAD_REACTORS
330
12F
102
}
330
12F
100
AcDbVisualStyle
  2
Gouraud
 70
     2
177
     2
291
     1
 71
     2
176
     1
 72
     2
176
     1
 73
     1
176
     1
 90
        2
176
     1
 40
-0.6
176
     1
 41
30.0
176
     1
 62
     5
 63
     7
421
 16777215
176
     1
 74
     0
176
     1
 91
        4
176
     1
 64
     7
176
     1
 65
   257
176
     1
 75
     1
176
     1
175
     1
176
     1
 42
1.0
176
     1
 92
        0
176
     1
 66
     7
176
     1
 43
1.0
176
     1
 76
     1
176
     1
 77
     6
176
     1
 78
     2
176
     1
 67
     7
176
     1
 79
     5
176
     1
170
     0
176
     1
171
     0
176
     1
290
     0
176
     1
 93
       13
176
     1
 44
0.0
176
     1
173
     0
176
     1
  0
VISUALSTYLE
  5
133
102
{ACAD_REACTORS
330
12F
102
}
330
12F
100
AcDbVisualStyle
  2
GouraudWithEdges
 70
     3
177
     2
291
     1
 71
     2
176
     1
 72
     2
176
     1
 73
     1
176
     1
 90
        2
176
     1
 40
-0.6
176
     1
 41
30.0
176
     1
 62
     5
 63
     7
421
 16777215
176
     1
 74
     1
176
     1
 91
        4
176
     1
 64
     7
176
     1
 65
   257
176
     1
 75
     1
176
     1
175
     1
176
     1
 42
1.0
176
     1
 92
        0
176
     1
 66
   257
176
     1
 43
1.0
176
     1
 76
     1
176
     1
 77
     6
176
     1
 78
     2
176
     1
 67
     7
176
     1
 79
     5
176
     1
170
     0
176
     1
171
     0
176
     1
290
     0
176
     1
 93
       13
176
     1
 44
0.0
176
     1
173
     0
176
     1
  0
VISUALSTYLE
  5
13D
102
{ACAD_REACTORS
330
12F
102
}
330
12F
100
AcDbVisualStyle
  2
Linepattern
 70
    14
177
     2
291
     1
 71
     2
176
     1
 72
     2
176
     1
 73
     0
176
     1
 90
        0
176
     1
 40
-0.6
176
     1
 41
-30.0
176
     1
 62
     5
 63
     7
421
 16777215
176
     1
 74
     1
176
     1
 91
        4
176
     1
 64
     7
176
     1
 65
   257
176
     1
 75
     7
176
     1
175
     7
176
     1
 42
1.0
176
     1
 92
        8
176
     1
 66
     7
176
     1
 43
1.0
176
     1
 76
     1
176
     1
 77
     6
176
     1
 78
     2
176
     1
 67
     7
176
     1
 79
     5
176
     1
170
     0
176
     1
171
     0
176
     1
290
     0
176
     1
 93
        1
176
     1
 44
0.0
176
     1
173
     0
176
     1
  0
VISUALSTYLE
  5
138
102
{ACAD_REACTORS
330
12F
102
}
330
12F
100
AcDbVisualStyle
  2
Realistic
 70
     8
177
     2
291
     0
 71
     2
176
     1
 72
     2
176
     1
 73
     0
176
     1
 90
        0
176
     1
 40
-0.6
176
     1
 41
-30.0
176
     1
 62
     5
 63
     7
421
 16777215
176
     1
 74
     1
176
     1
 91
        0
176
     1
 64
     7
176
     1
 65
   257
176
     1
 75
     1
176
     1
175
     1
176
     1
 42
1.0
176
     1
 92
        8
176
     1
 66
     8
424
  7895160
176
     1
 43
1.0
176
     1
 76
     1
176
     1
 77
     6
176
     1
 78
     2
176
     1
 67
     7
176
     1
 79
     5
176
     1
170
     0
176
     1
171
     0
176
     1
290
     0
176
     1
 93
       13
176
     1
 44
0.0
176
     1
173
     0
176
     1
  0
VISUALSTYLE
  5
13C
102
{ACAD_REACTORS
330
12F
102
}
330
12F
100
AcDbVisualStyle
  2
Thicken
 70
    13
177
     2
291
     1
 71
     2
176
     1
 72
     2
176
     1
 73
     0
176
     1
 90
        0
176
     1
 40
-0.6
176
     1
 41
-30.0
176
     1
 62
     5
 63
     7
421
 16777215
176
     1
 74
     1
176
     1
 91
        4
176
     1
 64
     7
176
     1
 65
   257
176
     1
 75
     1
176
     1
175
     1
176
     1
 42
1.0
176
     1
 92
       12
176
     1
 66
     7
176
     1
 43
1.0
176
     1
 76
     1
176
     1
 77
     6
176
     1
 78
     2
176
     1
 67
     7
176
     1
 79
     5
176
     1
170
     0
176
     1
171
     0
176
     1
290
     0
176
     1
 93
        1
176
     1
 44
0.0
176
     1
173
     0
176
     1
  0
XRECORD
  5
155
102
{ACAD_REACTORS
330
145
102
}
330
145
100
AcDbXrecord
280
     1
290
     1
  0
XRECORD
  5
14E
102
{ACAD_REACTORS
330
145
102
}
330
145
100
AcDbXrecord
280
     1
1000
auto
  0
XRECORD
  5
14F
102
{ACAD_REACTORS
330
145
102
}
330
145
100
AcDbXrecord
280
     1
1000
auto
  0
XRECORD
  5
149
102
{ACAD_REACTORS
330
145
102
}
330
145
100
AcDbXrecord
280
     1
1000
auto
  0
XRECORD
  5
14C
102
{ACAD_REACTORS
330
145
102
}
330
145
100
AcDbXrecord
280
     1
1000
auto
  0
XRECORD
  5
14D
102
{ACAD_REACTORS
330
145
102
}
330
145
100
AcDbXrecord
280
     1
 90
        1
  0
XRECORD
  5
152
102
{ACAD_REACTORS
330
145
102
}
330
145
100
AcDbXrecord
280
     1
 40
10.0
  0
XRECORD
  5
150
102
{ACAD_REACTORS
330
145
102
}
330
145
100
AcDbXrecord
280
     1
 40
10.0
  0
XRECORD
  5
146
102
{ACAD_REACTORS
330
145
102
}
330
145
100
AcDbXrecord
280
     1
 40
10.0
  0
XRECORD
  5
159
102
{ACAD_REACTORS
330
145
102
}
330
145
100
AcDbXrecord
280
     1
 40
10.0
  0
XRECORD
  5
148
102
{ACAD_REACTORS
330
145
102
}
330
145
100
AcDbXrecord
280
     1
290
     0
  0
XRECORD
  5
151
102
{ACAD_REACTORS
330
145
102
}
330
145
100
AcDbXrecord
280
     1
 90
        1
  0
XRECORD
  5
157
102
{ACAD_REACTORS
330
145
102
}
330
145
100
AcDbXrecord
280
     1
 40
0.0
  0
XRECORD
  5
158
102
{ACAD_REACTORS
330
145
102
}
330
145
100
AcDbXrecord
280
     1
 40
0.0
  0
XRECORD
  5
147
102
{ACAD_REACTORS
330
145
102
}
330
145
100
AcDbXrecord
280
     1
1000
Portrait
  0
XRECORD
  5
14A
102
{ACAD_REACTORS
330
145
102
}
330
145
100
AcDbXrecord
280
     1
 40
297.0
  0
XRECORD
  5
153
102
{ACAD_REACTORS
330
145
102
}
330
145
100
AcDbXrecord
280
     1
 40
210.0
  0
XRECORD
  5
14B
102
{ACAD_REACTORS
330
145
102
}
330
145
100
AcDbXrecord
280
     1
1000
1:1
  0
XRECORD
  5
156
102
{ACAD_REACTORS
330
145
102
}
330
145
100
AcDbXrecord
280
     1
290
     1
  0
XRECORD
  5
154
102
{ACAD_REACTORS
330
145
102
}
330
145
100
AcDbXrecord
280
     1
 90
        4
  0
ENDSEC
  0
EOF
