  0
SECTION
  2
HEADER
  9
$ACADVER
  1
AC1024
  9
$ACADMAINTVER
 70
     6
  9
$DWGCODEPAGE
  3
ASCII
  9
$INSBASE
 10
0.0
 20
0.0
 30
0.0
  9
$EXTMIN
 10
1.000000000000000E+20
 20
1.000000000000000E+20
 30
1.000000000000000E+20
  9
$EXTMAX
 10
-1.000000000000000E+20
 20
-1.000000000000000E+20
 30
-1.000000000000000E+20
  9
$LIMMIN
 10
0.0
 20
0.0
  9
$LIMMAX
 10
12.0
 20
9.0
  9
$ORTHOMODE
 70
     0
  9
$REGENMODE
 70
     1
  9
$FILLMODE
 70
     1
  9
$QTEXTMODE
 70
     0
  9
$MIRRTEXT
 70
     1
  9
$LTSCALE
 40
1.0
  9
$ATTMODE
 70
     1
  9
$TEXTSIZE
 40
0.2
  9
$TRACEWID
 40
0.05
  9
$TEXTSTYLE
  7
Standard
  9
$CLAYER
  8
0
  9
$CELTYPE
  6
ByLayer
  9
$CECOLOR
 62
   178
  9
$CELTSCALE
 40
1.0
  9
$DISPSILH
 70
     0
  9
$DIMSCALE
 40
1.0
  9
$DIMASZ
 40
0.18
  9
$DIMEXO
 40
0.0625
  9
$DIMDLI
 40
0.38
  9
$DIMRND
 40
0.0
  9
$DIMDLE
 40
0.0
  9
$DIMEXE
 40
0.18
  9
$DIMTP
 40
0.0
  9
$DIMTM
 40
0.0
  9
$DIMTXT
 40
0.18
  9
$DIMCEN
 40
0.09
  9
$DIMTSZ
 40
0.0
  9
$DIMTOL
 70
     0
  9
$DIMLIM
 70
     0
  9
$DIMTIH
 70
     1
  9
$DIMTOH
 70
     1
  9
$DIMSE1
 70
     0
  9
$DIMSE2
 70
     0
  9
$DIMTAD
 70
     0
  9
$DIMZIN
 70
     0
  9
$DIMBLK
  1

  9
$DIMASO
 70
     1
  9
$DIMSHO
 70
     1
  9
$DIMPOST
  1

  9
$DIMAPOST
  1

  9
$DIMALT
 70
     0
  9
$DIMALTD
 70
     2
  9
$DIMALTF
 40
25.4
  9
$DIMLFAC
 40
1.0
  9
$DIMTOFL
 70
     0
  9
$DIMTVP
 40
0.0
  9
$DIMTIX
 70
     0
  9
$DIMSOXD
 70
     0
  9
$DIMSAH
 70
     0
  9
$DIMBLK1
  1

  9
$DIMBLK2
  1

  9
$DIMSTYLE
  2
Standard
  9
$DIMCLRD
 70
   178
  9
$DIMCLRE
 70
   178
  9
$DIMCLRT
 70
   178
  9
$DIMTFAC
 40
1.0
  9
$DIMGAP
 40
0.09
  9
$DIMJUST
 70
     0
  9
$DIMSD1
 70
     0
  9
$DIMSD2
 70
     0
  9
$DIMTOLJ
 70
     1
  9
$DIMTZIN
 70
     0
  9
$DIMALTZ
 70
     0
  9
$DIMALTTZ
 70
     0
  9
$DIMUPT
 70
     0
  9
$DIMDEC
 70
     4
  9
$DIMTDEC
 70
     4
  9
$DIMALTU
 70
     2
  9
$DIMALTTD
 70
     2
  9
$DIMTXSTY
  7
Standard
  9
$DIMAUNIT
 70
     0
  9
$DIMADEC
 70
     0
  9
$DIMALTRND
 40
0.0
  9
$DIMAZIN
 70
     0
  9
$DIMDSEP
 70
    46
  9
$DIMATFIT
 70
     3
  9
$DIMFRAC
 70
     0
  9
$DIMLDRBLK
  1

  9
$DIMLUNIT
 70
     2
  9
$DIMLWD
 70
    -2
  9
$DIMLWE
 70
    -2
  9
$DIMTMOVE
 70
     0
  9
$DIMFXL
 40
1.0
  9
$DIMFXLON
 70
     0
  9
$DIMJOGANG
 40
0.7853981633974483
  9
$DIMTFILL
 70
     0
  9
$DIMTFILLCLR
 70
     0
  9
$DIMARCSYM
 70
     0
  9
$DIMLTYPE
  6

  9
$DIMLTEX1
  6

  9
$DIMLTEX2
  6

  9
$DIMTXTDIRECTION
 70
     0
  9
$LUNITS
 70
     2
  9
$LUPREC
 70
     4
  9
$SKETCHINC
 40
0.1
  9
$FILLETRAD
 40
0.5
  9
$AUNITS
 70
     0
  9
$AUPREC
 70
     0
  9
$MENU
  1
.
  9
$ELEVATION
 40
0.0
  9
$PELEVATION
 40
0.0
  9
$THICKNESS
 40
0.0
  9
$LIMCHECK
 70
     0
  9
$CHAMFERA
 40
0.5
  9
$CHAMFERB
 40
0.5
  9
$CHAMFERC
 40
1.0
  9
$CHAMFERD
 40
0.0
  9
$SKPOLY
 70
     0
  9
$TDCREATE
 40
2456323.695462963
  9
$TDUCREATE
 40
2456323.903796296
  9
$TDUPDATE
 40
2456323.695462963
  9
$TDUUPDATE
 40
2456323.903796296
  9
$TDINDWG
 40
0.0000000116
  9
$TDUSRTIMER
 40
0.0000000116
  9
$USRTIMER
 70
     1
  9
$ANGBASE
 50
0.0
  9
$ANGDIR
 70
     0
  9
$PDMODE
 70
     0
  9
$PDSIZE
 40
0.0
  9
$PLINEWID
 40
0.0
  9
$SPLFRAME
 70
     0
  9
$SPLINETYPE
 70
     6
  9
$SPLINESEGS
 70
     8
  9
$HANDSEED
  5
5EE
  9
$SURFTAB1
 70
     6
  9
$SURFTAB2
 70
     6
  9
$SURFTYPE
 70
     6
  9
$SURFU
 70
     6
  9
$SURFV
 70
     6
  9
$UCSBASE
  2

  9
$UCSNAME
  2

  9
$UCSORG
 10
0.0
 20
0.0
 30
0.0
  9
$UCSXDIR
 10
1.0
 20
0.0
 30
0.0
  9
$UCSYDIR
 10
0.0
 20
1.0
 30
0.0
  9
$UCSORTHOREF
  2

  9
$UCSORTHOVIEW
 70
     0
  9
$UCSORGTOP
 10
0.0
 20
0.0
 30
0.0
  9
$UCSORGBOTTOM
 10
0.0
 20
0.0
 30
0.0
  9
$UCSORGLEFT
 10
0.0
 20
0.0
 30
0.0
  9
$UCSORGRIGHT
 10
0.0
 20
0.0
 30
0.0
  9
$UCSORGFRONT
 10
0.0
 20
0.0
 30
0.0
  9
$UCSORGBACK
 10
0.0
 20
0.0
 30
0.0
  9
$PUCSBASE
  2

  9
$PUCSNAME
  2

  9
$PUCSORG
 10
0.0
 20
0.0
 30
0.0
  9
$PUCSXDIR
 10
1.0
 20
0.0
 30
0.0
  9
$PUCSYDIR
 10
0.0
 20
1.0
 30
0.0
  9
$PUCSORTHOREF
  2

  9
$PUCSORTHOVIEW
 70
     0
  9
$PUCSORGTOP
 10
0.0
 20
0.0
 30
0.0
  9
$PUCSORGBOTTOM
 10
0.0
 20
0.0
 30
0.0
  9
$PUCSORGLEFT
 10
0.0
 20
0.0
 30
0.0
  9
$PUCSORGRIGHT
 10
0.0
 20
0.0
 30
0.0
  9
$PUCSORGFRONT
 10
0.0
 20
0.0
 30
0.0
  9
$PUCSORGBACK
 10
0.0
 20
0.0
 30
0.0
  9
$USERI1
 70
     0
  9
$USERI2
 70
     0
  9
$USERI3
 70
     0
  9
$USERI4
 70
     0
  9
$USERI5
 70
     0
  9
$USERR1
 40
0.0
  9
$USERR2
 40
0.0
  9
$USERR3
 40
0.0
  9
$USERR4
 40
0.0
  9
$USERR5
 40
0.0
  9
$WORLDVIEW
 70
     1
  9
$SHADEDGE
 70
     3
  9
$SHADEDIF
 70
    70
  9
$TILEMODE
 70
     1
  9
$MAXACTVP
 70
    64
  9
$PINSBASE
 10
0.0
 20
0.0
 30
0.0
  9
$PLIMCHECK
 70
     0
  9
$PEXTMIN
 10
1.000000000000000E+20
 20
1.000000000000000E+20
 30
1.000000000000000E+20
  9
$PEXTMAX
 10
-1.000000000000000E+20
 20
-1.000000000000000E+20
 30
-1.000000000000000E+20
  9
$PLIMMIN
 10
0.0
 20
0.0
  9
$PLIMMAX
 10
12.0
 20
9.0
  9
$UNITMODE
 70
     0
  9
$VISRETAIN
 70
     1
  9
$PLINEGEN
 70
     0
  9
$PSLTSCALE
 70
     1
  9
$TREEDEPTH
 70
  3020
  9
$CMLSTYLE
  2
Standard
  9
$CMLJUST
 70
     0
  9
$CMLSCALE
 40
1.0
  9
$PROXYGRAPHICS
 70
     1
  9
$MEASUREMENT
 70
     1
  9
$CELWEIGHT
370
    -1
  9
$ENDCAPS
280
     0
  9
$JOINSTYLE
280
     0
  9
$LWDISPLAY
290
     0
  9
$INSUNITS
 70
     0
  9
$HYPERLINKBASE
  1

  9
$STYLESHEET
  1

  9
$XEDIT
290
     1
  9
$CEPSNTYPE
380
     0
  9
$PSTYLEMODE
290
     1
  9
$FINGERPRINTGUID
  2
{B7651952-AF4F-49BA-8AB3-C679B51A54D9}
  9
$VERSIONGUID
  2
{FAEB1C32-E019-11D5-929B-00C0DF256EC4}
  9
$EXTNAMES
290
     1
  9
$PSVPSCALE
 40
0.0
  9
$OLESTARTUP
290
     0
  9
$SORTENTS
280
   127
  9
$INDEXCTL
280
     0
  9
$HIDETEXT
280
     1
  9
$XCLIPFRAME
280
     2
  9
$HALOGAP
280
     0
  9
$OBSCOLOR
 70
   257
  9
$OBSLTYPE
280
     0
  9
$INTERSECTIONDISPLAY
280
     0
  9
$INTERSECTIONCOLOR
 70
   257
  9
$DIMASSOC
280
     2
  9
$PROJECTNAME
  1

  9
$CAMERADISPLAY
290
     0
  9
$LENSLENGTH
 40
50.0
  9
$CAMERAHEIGHT
 40
0.0
  9
$STEPSPERSEC
 40
2.0
  9
$STEPSIZE
 40
6.0
  9
$3DDWFPREC
 40
2.0
  9
$PSOLWIDTH
 40
0.25
  9
$PSOLHEIGHT
 40
4.0
  9
$LOFTANG1
 40
1.570796326794897
  9
$LOFTANG2
 40
1.570796326794897
  9
$LOFTMAG1
 40
0.0
  9
$LOFTMAG2
 40
0.0
  9
$LOFTPARAM
 70
     7
  9
$LOFTNORMALS
280
     1
  9
$LATITUDE
 40
37.795
  9
$LONGITUDE
 40
-122.394
  9
$NORTHDIRECTION
 40
0.0
  9
$TIMEZONE
 70
 -8000
  9
$LIGHTGLYPHDISPLAY
280
     1
  9
$TILEMODELIGHTSYNCH
280
     1
  9
$SOLIDHIST
280
     1
  9
$SHOWHIST
280
     1
  9
$DWFFRAME
280
     2
  9
$DGNFRAME
280
     2
  9
$REALWORLDSCALE
290
     1
  9
$INTERFERECOLOR
 62
   256
  9
$CSHADOW
280
     0
  9
$SHADOWPLANELOCATION
 40
0.0
  0
ENDSEC
  0
SECTION
  2
CLASSES
  0
CLASS
  1
ACDBDICTIONARYWDFLT
  2
AcDbDictionaryWithDefault
  3
ObjectDBX Classes
 90
        0
 91
        4
280
     0
281
     0
  0
CLASS
  1
VISUALSTYLE
  2
AcDbVisualStyle
  3
ObjectDBX Classes
 90
     4095
 91
        4
280
     0
281
     0
  0
CLASS
  1
MATERIAL
  2
AcDbMaterial
  3
ObjectDBX Classes
 90
     1153
 91
        4
280
     0
281
     0
  0
ENDSEC
  0
SECTION
  2
TABLES
  0
TABLE
  2
VPORT
  5
58A
330
0
100
AcDbSymbolTable
 70
     1
  0
VPORT
  5
5AA
330
58A
100
AcDbSymbolTableRecord
100
AcDbViewportTableRecord
  2
*Active
 70
     0
 10
0.0
 20
0.0
 11
1.0
 21
1.0
 12
10.42990654205607
 22
4.5
 13
0.0
 23
0.0
 14
0.5
 24
0.5
 15
0.5
 25
0.5
 16
0.0
 26
0.0
 36
1.0
 17
0.0
 27
0.0
 37
0.0
 40
9.0
 41
1.972972972850329
 42
50.0
 43
0.0
 44
0.0
 50
0.0
 51
0.0
 71
     0
 72
   100
 73
     1
 74
     3
 75
     0
 76
     0
 77
     0
 78
     0
281
     0
 65
     1
110
0.0
120
0.0
130
0.0
111
1.0
121
0.0
131
0.0
112
0.0
122
1.0
132
0.0
 79
     0
146
0.0
 60
     3
 61
     5
292
     1
282
     1
141
0.0
142
0.0
 63
   250
  0
ENDTAB
  0
TABLE
  2
LTYPE
  5
587
330
0
100
AcDbSymbolTable
 70
    19
  0
LTYPE
  5
595
330
587
100
AcDbSymbolTableRecord
100
AcDbLinetypeTableRecord
  2
ByBlock
 70
     0
  3

 72
    65
 73
     0
 40
0.0
  0
LTYPE
  5
596
330
587
100
AcDbSymbolTableRecord
100
AcDbLinetypeTableRecord
  2
ByLayer
 70
     0
  3

 72
    65
 73
     0
 40
0.0
  0
LTYPE
  5
597
330
587
100
AcDbSymbolTableRecord
100
AcDbLinetypeTableRecord
  2
Continuous
 70
     0
  3
Solid line
 72
    65
 73
     0
 40
0.0
  0
LTYPE
  5
5D7
330
587
100
AcDbSymbolTableRecord
100
AcDbLinetypeTableRecord
  2
BORDER
 70
     0
  3

 72
    65
 73
     6
 40
42.0
 49
12.0
 74
     0
 49
-6.0
 74
     0
 49
12.0
 74
     0
 49
-5.95
 74
     0
 49
0.1
 74
     0
 49
-5.95
 74
     0
  0
LTYPE
  5
5D8
330
587
100
AcDbSymbolTableRecord
100
AcDbLinetypeTableRecord
  2
BORDER2
 70
     0
  3

 72
    65
 73
     6
 40
21.0
 49
6.0
 74
     0
 49
-3.0
 74
     0
 49
6.0
 74
     0
 49
-2.95
 74
     0
 49
0.1
 74
     0
 49
-2.95
 74
     0
  0
LTYPE
  5
5D9
330
587
100
AcDbSymbolTableRecord
100
AcDbLinetypeTableRecord
  2
BORDERX2
 70
     0
  3

 72
    65
 73
     6
 40
84.0
 49
24.0
 74
     0
 49
-12.0
 74
     0
 49
24.0
 74
     0
 49
-11.95
 74
     0
 49
0.1
 74
     0
 49
-11.95
 74
     0
  0
LTYPE
  5
5DA
330
587
100
AcDbSymbolTableRecord
100
AcDbLinetypeTableRecord
  2
CENTER
 70
     0
  3

 72
    65
 73
     4
 40
50.0
 49
32.0
 74
     0
 49
-6.0
 74
     0
 49
6.0
 74
     0
 49
-6.0
 74
     0
  0
LTYPE
  5
5DB
330
587
100
AcDbSymbolTableRecord
100
AcDbLinetypeTableRecord
  2
CENTER2
 70
     0
  3

 72
    65
 73
     4
 40
25.0
 49
16.0
 74
     0
 49
-3.0
 74
     0
 49
3.0
 74
     0
 49
-3.0
 74
     0
  0
LTYPE
  5
5DC
330
587
100
AcDbSymbolTableRecord
100
AcDbLinetypeTableRecord
  2
CENTERX2
 70
     0
  3

 72
    65
 73
     4
 40
100.0
 49
64.0
 74
     0
 49
-12.0
 74
     0
 49
12.0
 74
     0
 49
-12.0
 74
     0
  0
LTYPE
  5
5DD
330
587
100
AcDbSymbolTableRecord
100
AcDbLinetypeTableRecord
  2
DASHDOT
 70
     0
  3

 72
    65
 73
     4
 40
24.0
 49
12.0
 74
     0
 49
-5.95
 74
     0
 49
0.1
 74
     0
 49
-5.95
 74
     0
  0
LTYPE
  5
5DE
330
587
100
AcDbSymbolTableRecord
100
AcDbLinetypeTableRecord
  2
DASHDOT2
 70
     0
  3

 72
    65
 73
     4
 40
12.0
 49
6.0
 74
     0
 49
-2.95
 74
     0
 49
0.1
 74
     0
 49
-2.95
 74
     0
  0
LTYPE
  5
5DF
330
587
100
AcDbSymbolTableRecord
100
AcDbLinetypeTableRecord
  2
DASHDOTX2
 70
     0
  3

 72
    65
 73
     4
 40
48.0
 49
24.0
 74
     0
 49
-11.95
 74
     0
 49
0.1
 74
     0
 49
-11.95
 74
     0
  0
LTYPE
  5
5E0
330
587
100
AcDbSymbolTableRecord
100
AcDbLinetypeTableRecord
  2
DASHED
 70
     0
  3

 72
    65
 73
     2
 40
18.0
 49
12.0
 74
     0
 49
-6.0
 74
     0
  0
LTYPE
  5
5E1
330
587
100
AcDbSymbolTableRecord
100
AcDbLinetypeTableRecord
  2
DASHED2
 70
     0
  3

 72
    65
 73
     2
 40
9.0
 49
6.0
 74
     0
 49
-3.0
 74
     0
  0
LTYPE
  5
5E2
330
587
100
AcDbSymbolTableRecord
100
AcDbLinetypeTableRecord
  2
DASHEDX2
 70
     0
  3

 72
    65
 73
     2
 40
36.0
 49
24.0
 74
     0
 49
-12.0
 74
     0
  0
LTYPE
  5
5E3
330
587
100
AcDbSymbolTableRecord
100
AcDbLinetypeTableRecord
  2
DIVIDE
 70
     0
  3

 72
    65
 73
     6
 40
30.0
 49
12.0
 74
     0
 49
-5.9
 74
     0
 49
0.15
 74
     0
 49
-5.9
 74
     0
 49
0.15
 74
     0
 49
-5.9
 74
     0
  0
LTYPE
  5
5E4
330
587
100
AcDbSymbolTableRecord
100
AcDbLinetypeTableRecord
  2
DIVIDE2
 70
     0
  3

 72
    65
 73
     6
 40
15.0
 49
6.0
 74
     0
 49
-2.9
 74
     0
 49
0.15
 74
     0
 49
-2.9
 74
     0
 49
0.15
 74
     0
 49
-2.9
 74
     0
  0
LTYPE
  5
5E5
330
587
100
AcDbSymbolTableRecord
100
AcDbLinetypeTableRecord
  2
DIVIDEX2
 70
     0
  3

 72
    65
 73
     6
 40
60.0
 49
24.0
 74
     0
 49
-11.9
 74
     0
 49
0.15
 74
     0
 49
-11.9
 74
     0
 49
0.15
 74
     0
 49
-11.9
 74
     0
  0
LTYPE
  5
5E6
330
587
100
AcDbSymbolTableRecord
100
AcDbLinetypeTableRecord
  2
DOT
 70
     0
  3

 72
    65
 73
     2
 40
6.3
 49
0.1
 74
     0
 49
-6.2
 74
     0
  0
LTYPE
  5
5E7
330
587
100
AcDbSymbolTableRecord
100
AcDbLinetypeTableRecord
  2
DOT2
 70
     0
  3

 72
    65
 73
     2
 40
3.2
 49
0.1
 74
     0
 49
-3.1
 74
     0
  0
LTYPE
  5
5E8
330
587
100
AcDbSymbolTableRecord
100
AcDbLinetypeTableRecord
  2
DOTX2
 70
     0
  3

 72
    65
 73
     2
 40
12.5
 49
0.1
 74
     0
 49
-12.4
 74
     0
  0
ENDTAB
  0
TABLE
  2
LAYER
  5
584
330
0
100
AcDbSymbolTable
 70
     4
  0
LAYER
  5
592
330
584
100
AcDbSymbolTableRecord
100
AcDbLayerTableRecord
  2
0
 70
     0
 62
     7
420
 16777215
  6
Continuous
370
    -3
390
591
347
5BF
  0
LAYER
  5
5E9
330
584
100
AcDbSymbolTableRecord
100
AcDbLayerTableRecord
  2
grip
 70
     0
 62
     7
420
 16777215
  6
Continuous
370
     0
390
591
347
5BF
  0
LAYER
  5
5EA
330
584
100
AcDbSymbolTableRecord
100
AcDbLayerTableRecord
  2
spoon
 70
     0
 62
   178
420
        0
  6
Continuous
370
     0
390
591
347
5BF
  0
LAYER
  5
5EB
330
584
100
AcDbSymbolTableRecord
100
AcDbLayerTableRecord
  2
spoon2
 70
     0
 62
   178
420
        0
  6
Continuous
370
     0
390
591
347
5BF
  0
ENDTAB
  0
TABLE
  2
STYLE
  5
585
330
0
100
AcDbSymbolTable
 70
     1
  0
STYLE
  5
593
330
585
100
AcDbSymbolTableRecord
100
AcDbTextStyleTableRecord
  2
Standard
 70
     0
 40
0.0
 41
1.0
 50
0.0
 71
     0
 42
0.2
  3
txt
  4

  0
ENDTAB
  0
TABLE
  2
VIEW
  5
588
330
0
100
AcDbSymbolTable
 70
     0
  0
ENDTAB
  0
TABLE
  2
UCS
  5
589
330
0
100
AcDbSymbolTable
 70
     0
  0
ENDTAB
  0
TABLE
  2
APPID
  5
58B
330
0
100
AcDbSymbolTable
 70
     2
  0
APPID
  5
594
330
58B
100
AcDbSymbolTableRecord
100
AcDbRegAppTableRecord
  2
ACAD
 70
     0
  0
APPID
  5
5C0
330
58B
100
AcDbSymbolTableRecord
100
AcDbRegAppTableRecord
  2
QCAD
 70
     0
  0
ENDTAB
  0
TABLE
  2
DIMSTYLE
  5
58C
330
0
100
AcDbSymbolTable
 70
     2
100
AcDbDimStyleTable
  0
DIMSTYLE
105
5A8
330
58C
100
AcDbSymbolTableRecord
100
AcDbDimStyleTableRecord
  2
Standard
 70
     0
178
     0
340
593
  0
DIMSTYLE
105
5D6
330
58C
100
AcDbSymbolTableRecord
100
AcDbDimStyleTableRecord
  2
QCADDimStyle
 70
     0
 73
     0
 77
     1
178
     0
340
593
  0
ENDTAB
  0
TABLE
  2
BLOCK_RECORD
  5
583
330
0
100
AcDbSymbolTable
 70
     1
  0
BLOCK_RECORD
  5
5A0
330
583
100
AcDbSymbolTableRecord
100
AcDbBlockTableRecord
  2
*Model_Space
340
5A3
 70
     0
280
     1
281
     0
  0
BLOCK_RECORD
  5
59C
330
583
100
AcDbSymbolTableRecord
100
AcDbBlockTableRecord
  2
*Paper_Space
340
59F
 70
     0
280
     1
281
     0
  0
BLOCK_RECORD
  5
5A4
330
583
100
AcDbSymbolTableRecord
100
AcDbBlockTableRecord
  2
*Paper_Space0
340
5A7
 70
     0
280
     1
281
     0
  0
ENDTAB
  0
ENDSEC
  0
SECTION
  2
BLOCKS
  0
BLOCK
  5
5A1
330
5A0
100
AcDbEntity
  8
0
100
AcDbBlockBegin
  2
*Model_Space
 70
     0
 10
0.0
 20
0.0
 30
0.0
  3
*Model_Space
  1

  0
ENDBLK
  5
5A2
330
5A0
100
AcDbEntity
  8
0
100
AcDbBlockEnd
  0
BLOCK
  5
59D
330
59C
100
AcDbEntity
 67
     1
  8
0
100
AcDbBlockBegin
  2
*Paper_Space
 70
     0
 10
0.0
 20
0.0
 30
0.0
  3
*Paper_Space
  1

  0
ENDBLK
  5
59E
330
59C
100
AcDbEntity
 67
     1
  8
0
100
AcDbBlockEnd
  0
BLOCK
  5
5A5
330
5A4
100
AcDbEntity
  8
0
100
AcDbBlockBegin
  2
*Paper_Space0
 70
     0
 10
0.0
 20
0.0
 30
0.0
  3
*Paper_Space0
  1

  0
ENDBLK
  5
5A6
330
5A4
100
AcDbEntity
  8
0
100
AcDbBlockEnd
  0
ENDSEC
  0
SECTION
  2
ENTITIES
  0
LINE
  5
21
330
5A0
100
AcDbEntity
  8
grip
100
AcDbLine
 10
15.6294888148
 20
-1.94462834221
 30
0.0
 11
15.6294888148
 21
1.94462834221
 31
0.0
  0
LINE
  5
22
330
5A0
100
AcDbEntity
  8
grip
100
AcDbLine
 10
15.6294888148
 20
1.94462834221
 30
0.0
 11
15.6678076799
 21
1.95123102298
 31
0.0
  0
LINE
  5
23
330
5A0
100
AcDbEntity
  8
grip
100
AcDbLine
 10
15.6678076799
 20
1.95123102298
 30
0.0
 11
15.7812966608
 21
1.97817484217
 31
0.0
  0
LINE
  5
24
330
5A0
100
AcDbEntity
  8
grip
100
AcDbLine
 10
15.7812966608
 20
1.97817484217
 30
0.0
 11
15.9669145887
 21
2.03596132561
 31
0.0
  0
LINE
  5
25
330
5A0
100
AcDbEntity
  8
grip
100
AcDbLine
 10
15.9669145887
 20
2.03596132561
 30
0.0
 11
16.2205236693
 21
2.13473930448
 31
0.0
  0
LINE
  5
26
330
5A0
100
AcDbEntity
  8
grip
100
AcDbLine
 10
16.2205236693
 20
2.13473930448
 30
0.0
 11
16.5369258095
 21
2.28420331304
 31
0.0
  0
LINE
  5
27
330
5A0
100
AcDbEntity
  8
grip
100
AcDbLine
 10
16.5369258095
 20
2.28420331304
 30
0.0
 11
16.9099077565
 21
2.49349547276
 31
0.0
  0
LINE
  5
28
330
5A0
100
AcDbEntity
  8
grip
100
AcDbLine
 10
16.9099077565
 20
2.49349547276
 30
0.0
 11
17.332294728
 21
2.77111159494
 31
0.0
  0
LINE
  5
29
330
5A0
100
AcDbEntity
  8
grip
100
AcDbLine
 10
17.332294728
 20
2.77111159494
 30
0.0
 11
17.7960121569
 21
3.1248122063
 31
0.0
  0
LINE
  5
2A
330
5A0
100
AcDbEntity
  8
grip
100
AcDbLine
 10
17.7960121569
 20
3.1248122063
 30
0.0
 11
18.2921551154
 21
3.56153916882
 31
0.0
  0
LINE
  5
2B
330
5A0
100
AcDbEntity
  8
grip
100
AcDbLine
 10
18.2921551154
 20
3.56153916882
 30
0.0
 11
18.8110649294
 21
4.0873385279
 31
0.0
  0
LINE
  5
2C
330
5A0
100
AcDbEntity
  8
grip
100
AcDbLine
 10
13.7875459253
 20
7.61354564959
 30
0.0
 11
13.8224274968
 21
7.63072723247
 31
0.0
  0
LINE
  5
2D
330
5A0
100
AcDbEntity
  8
grip
100
AcDbLine
 10
13.8224274968
 20
7.63072723247
 30
0.0
 11
13.9300791905
 21
7.67563637408
 31
0.0
  0
LINE
  5
2E
330
5A0
100
AcDbEntity
  8
grip
100
AcDbLine
 10
13.9300791905
 20
7.67563637408
 30
0.0
 11
14.1142132914
 21
7.73798960753
 31
0.0
  0
LINE
  5
2F
330
5A0
100
AcDbEntity
  8
grip
100
AcDbLine
 10
14.1142132914
 20
7.73798960753
 30
0.0
 11
14.3774475868
 21
7.80714422137
 31
0.0
  0
LINE
  5
30
330
5A0
100
AcDbEntity
  8
grip
100
AcDbLine
 10
14.3774475868
 20
7.80714422137
 30
0.0
 11
14.7212750353
 21
7.87220181023
 31
0.0
  0
LINE
  5
31
330
5A0
100
AcDbEntity
  8
grip
100
AcDbLine
 10
14.7212750353
 20
7.87220181023
 30
0.0
 11
15.1460426139
 21
7.92211418405
 31
0.0
  0
LINE
  5
32
330
5A0
100
AcDbEntity
  8
grip
100
AcDbLine
 10
15.1460426139
 20
7.92211418405
 30
0.0
 11
15.6509395144
 21
7.94579085588
 31
0.0
  0
LINE
  5
33
330
5A0
100
AcDbEntity
  8
grip
100
AcDbLine
 10
15.6509395144
 20
7.94579085588
 30
0.0
 11
16.2339947981
 21
7.93220731631
 31
0.0
  0
LINE
  5
34
330
5A0
100
AcDbEntity
  8
grip
100
AcDbLine
 10
16.2339947981
 20
7.93220731631
 30
0.0
 11
16.892084551
 21
7.87051329576
 31
0.0
  0
LINE
  5
35
330
5A0
100
AcDbEntity
  8
grip
100
AcDbLine
 10
16.892084551
 20
7.87051329576
 30
0.0
 11
17.620948518
 21
7.75014021458
 31
0.0
  0
LINE
  5
36
330
5A0
100
AcDbEntity
  8
grip
100
AcDbLine
 10
18.8110649294
 20
4.0873385279
 30
0.0
 11
17.620948518
 21
7.75014021458
 31
0.0
  0
LINE
  5
37
330
5A0
100
AcDbEntity
  8
grip
100
AcDbLine
 10
13.7875459253
 20
7.61354564959
 30
0.0
 11
11.5014982038
 21
10.7600204028
 31
0.0
  0
LINE
  5
38
330
5A0
100
AcDbEntity
  8
grip
100
AcDbLine
 10
11.5014982038
 20
10.7600204028
 30
0.0
 11
11.5286178585
 21
10.7878853476
 31
0.0
  0
LINE
  5
39
330
5A0
100
AcDbEntity
  8
grip
100
AcDbLine
 10
11.5286178585
 20
10.7878853476
 30
0.0
 11
11.6045951931
 21
10.8763905044
 31
0.0
  0
LINE
  5
3A
330
5A0
100
AcDbEntity
  8
grip
100
AcDbLine
 10
11.6045951931
 20
10.8763905044
 30
0.0
 11
11.7207972085
 21
11.0322442322
 31
0.0
  0
LINE
  5
3B
330
5A0
100
AcDbEntity
  8
grip
100
AcDbLine
 10
11.7207972085
 20
11.0322442322
 30
0.0
 11
11.8679110254
 21
11.2612249731
 31
0.0
  0
LINE
  5
3C
330
5A0
100
AcDbEntity
  8
grip
100
AcDbLine
 10
11.8679110254
 20
11.2612249731
 30
0.0
 11
12.036032994
 21
11.568120408
 31
0.0
  0
LINE
  5
3D
330
5A0
100
AcDbEntity
  8
grip
100
AcDbLine
 10
12.036032994
 20
11.568120408
 30
0.0
 11
12.2147628828
 21
11.9566746098
 31
0.0
  0
LINE
  5
3E
330
5A0
100
AcDbEntity
  8
grip
100
AcDbLine
 10
12.2147628828
 20
11.9566746098
 30
0.0
 11
12.3933024585
 21
12.4295436031
 31
0.0
  0
LINE
  5
3F
330
5A0
100
AcDbEntity
  8
grip
100
AcDbLine
 10
12.3933024585
 20
12.4295436031
 30
0.0
 11
12.560557736
 21
12.9882596746
 31
0.0
  0
LINE
  5
40
330
5A0
100
AcDbEntity
  8
grip
100
AcDbLine
 10
12.560557736
 20
12.9882596746
 30
0.0
 11
12.7052441532
 21
13.6332047232
 31
0.0
  0
LINE
  5
41
330
5A0
100
AcDbEntity
  8
grip
100
AcDbLine
 10
12.7052441532
 20
13.6332047232
 30
0.0
 11
12.8159939023
 21
14.3635928762
 31
0.0
  0
LINE
  5
42
330
5A0
100
AcDbEntity
  8
grip
100
AcDbLine
 10
6.67922911379
 20
14.2636039782
 30
0.0
 11
6.6973498169
 21
14.298007044
 31
0.0
  0
LINE
  5
43
330
5A0
100
AcDbEntity
  8
grip
100
AcDbLine
 10
6.6973498169
 20
14.298007044
 30
0.0
 11
6.75804493546
 21
14.3976153807
 31
0.0
  0
LINE
  5
44
330
5A0
100
AcDbEntity
  8
grip
100
AcDbLine
 10
6.75804493546
 20
14.3976153807
 30
0.0
 11
6.87036224129
 21
14.5562915152
 31
0.0
  0
LINE
  5
45
330
5A0
100
AcDbEntity
  8
grip
100
AcDbLine
 10
6.87036224129
 20
14.5562915152
 30
0.0
 11
7.04267519758
 21
14.7669640097
 31
0.0
  0
LINE
  5
46
330
5A0
100
AcDbEntity
  8
grip
100
AcDbLine
 10
7.04267519758
 20
14.7669640097
 30
0.0
 11
7.28259755527
 21
15.0216934083
 31
0.0
  0
LINE
  5
47
330
5A0
100
AcDbEntity
  8
grip
100
AcDbLine
 10
7.28259755527
 20
15.0216934083
 30
0.0
 11
7.59690398781
 21
15.3117454853
 31
0.0
  0
LINE
  5
48
330
5A0
100
AcDbEntity
  8
grip
100
AcDbLine
 10
7.59690398781
 20
15.3117454853
 30
0.0
 11
7.99145736222
 21
15.6276712673
 31
0.0
  0
LINE
  5
49
330
5A0
100
AcDbEntity
  8
grip
100
AcDbLine
 10
7.99145736222
 20
15.6276712673
 30
0.0
 11
8.47114319958
 21
15.9593932499
 31
0.0
  0
LINE
  5
4A
330
5A0
100
AcDbEntity
  8
grip
100
AcDbLine
 10
8.47114319958
 20
15.9593932499
 30
0.0
 11
9.03981182893
 21
16.2962971903
 31
0.0
  0
LINE
  5
4B
330
5A0
100
AcDbEntity
  8
grip
100
AcDbLine
 10
9.03981182893
 20
16.2962971903
 30
0.0
 11
9.70022868674
 21
16.6273288127
 31
0.0
  0
LINE
  5
4C
330
5A0
100
AcDbEntity
  8
grip
100
AcDbLine
 10
12.8159939023
 20
14.3635928762
 30
0.0
 11
9.70022868674
 21
16.6273288127
 31
0.0
  0
LINE
  5
4D
330
5A0
100
AcDbEntity
  8
grip
100
AcDbLine
 10
6.67922911379
 20
14.2636039782
 30
0.0
 11
2.98032620052
 21
15.4654503891
 31
0.0
  0
LINE
  5
4E
330
5A0
100
AcDbEntity
  8
grip
100
AcDbLine
 10
2.98032620052
 20
15.4654503891
 30
0.0
 11
2.98588785849
 21
15.5039341361
 31
0.0
  0
LINE
  5
4F
330
5A0
100
AcDbEntity
  8
grip
100
AcDbLine
 10
2.98588785849
 20
15.5039341361
 30
0.0
 11
2.99533278743
 21
15.6201946689
 31
0.0
  0
LINE
  5
50
330
5A0
100
AcDbEntity
  8
grip
100
AcDbLine
 10
2.99533278743
 20
15.6201946689
 30
0.0
 11
2.99773366999
 21
15.8145848142
 31
0.0
  0
LINE
  5
51
330
5A0
100
AcDbEntity
  8
grip
100
AcDbLine
 10
2.99773366999
 20
15.8145848142
 30
0.0
 11
2.98215974535
 21
16.086305457
 31
0.0
  0
LINE
  5
52
330
5A0
100
AcDbEntity
  8
grip
100
AcDbLine
 10
2.98215974535
 20
16.086305457
 30
0.0
 11
2.93778466445
 21
16.433408693
 31
0.0
  0
LINE
  5
53
330
5A0
100
AcDbEntity
  8
grip
100
AcDbLine
 10
2.93778466445
 20
16.433408693
 30
0.0
 11
2.85399375235
 21
16.8528104383
 31
0.0
  0
LINE
  5
54
330
5A0
100
AcDbEntity
  8
grip
100
AcDbLine
 10
2.85399375235
 20
16.8528104383
 30
0.0
 11
2.72048988271
 21
17.3403124196
 31
0.0
  0
LINE
  5
55
330
5A0
100
AcDbEntity
  8
grip
100
AcDbLine
 10
2.72048988271
 20
17.3403124196
 30
0.0
 11
2.52739717758
 21
17.8906334018
 31
0.0
  0
LINE
  5
56
330
5A0
100
AcDbEntity
  8
grip
100
AcDbLine
 10
2.52739717758
 20
17.8906334018
 30
0.0
 11
2.26536175985
 21
18.4974494489
 31
0.0
  0
LINE
  5
57
330
5A0
100
AcDbEntity
  8
grip
100
AcDbLine
 10
2.26536175985
 20
18.4974494489
 30
0.0
 11
1.92564880421
 21
19.1534429464
 31
0.0
  0
LINE
  5
58
330
5A0
100
AcDbEntity
  8
grip
100
AcDbLine
 10
-2.98032620052
 20
15.4654503891
 30
0.0
 11
-2.98588785849
 21
15.5039341361
 31
0.0
  0
LINE
  5
59
330
5A0
100
AcDbEntity
  8
grip
100
AcDbLine
 10
-2.98588785849
 20
15.5039341361
 30
0.0
 11
-2.99533278743
 21
15.6201946689
 31
0.0
  0
LINE
  5
5A
330
5A0
100
AcDbEntity
  8
grip
100
AcDbLine
 10
-2.99533278743
 20
15.6201946689
 30
0.0
 11
-2.99773366999
 21
15.8145848142
 31
0.0
  0
LINE
  5
5B
330
5A0
100
AcDbEntity
  8
grip
100
AcDbLine
 10
-2.99773366999
 20
15.8145848142
 30
0.0
 11
-2.98215974535
 21
16.086305457
 31
0.0
  0
LINE
  5
5C
330
5A0
100
AcDbEntity
  8
grip
100
AcDbLine
 10
-2.98215974535
 20
16.086305457
 30
0.0
 11
-2.93778466445
 21
16.433408693
 31
0.0
  0
LINE
  5
5D
330
5A0
100
AcDbEntity
  8
grip
100
AcDbLine
 10
-2.93778466445
 20
16.433408693
 30
0.0
 11
-2.85399375235
 21
16.8528104383
 31
0.0
  0
LINE
  5
5E
330
5A0
100
AcDbEntity
  8
grip
100
AcDbLine
 10
-2.85399375235
 20
16.8528104383
 30
0.0
 11
-2.72048988271
 21
17.3403124196
 31
0.0
  0
LINE
  5
5F
330
5A0
100
AcDbEntity
  8
grip
100
AcDbLine
 10
-2.72048988271
 20
17.3403124196
 30
0.0
 11
-2.52739717758
 21
17.8906334018
 31
0.0
  0
LINE
  5
60
330
5A0
100
AcDbEntity
  8
grip
100
AcDbLine
 10
-2.52739717758
 20
17.8906334018
 30
0.0
 11
-2.26536175985
 21
18.4974494489
 31
0.0
  0
LINE
  5
61
330
5A0
100
AcDbEntity
  8
grip
100
AcDbLine
 10
-2.26536175985
 20
18.4974494489
 30
0.0
 11
-1.92564880421
 21
19.1534429464
 31
0.0
  0
LINE
  5
62
330
5A0
100
AcDbEntity
  8
grip
100
AcDbLine
 10
1.92564880421
 20
19.1534429464
 30
0.0
 11
-1.92564880421
 21
19.1534429464
 31
0.0
  0
LINE
  5
63
330
5A0
100
AcDbEntity
  8
grip
100
AcDbLine
 10
-2.98032620052
 20
15.4654503891
 30
0.0
 11
-6.67922911379
 21
14.2636039782
 31
0.0
  0
LINE
  5
64
330
5A0
100
AcDbEntity
  8
grip
100
AcDbLine
 10
-6.67922911379
 20
14.2636039782
 30
0.0
 11
-6.6973498169
 21
14.298007044
 31
0.0
  0
LINE
  5
65
330
5A0
100
AcDbEntity
  8
grip
100
AcDbLine
 10
-6.6973498169
 20
14.298007044
 30
0.0
 11
-6.75804493546
 21
14.3976153807
 31
0.0
  0
LINE
  5
66
330
5A0
100
AcDbEntity
  8
grip
100
AcDbLine
 10
-6.75804493546
 20
14.3976153807
 30
0.0
 11
-6.87036224129
 21
14.5562915152
 31
0.0
  0
LINE
  5
67
330
5A0
100
AcDbEntity
  8
grip
100
AcDbLine
 10
-6.87036224129
 20
14.5562915152
 30
0.0
 11
-7.04267519758
 21
14.7669640097
 31
0.0
  0
LINE
  5
68
330
5A0
100
AcDbEntity
  8
grip
100
AcDbLine
 10
-7.04267519758
 20
14.7669640097
 30
0.0
 11
-7.28259755527
 21
15.0216934083
 31
0.0
  0
LINE
  5
69
330
5A0
100
AcDbEntity
  8
grip
100
AcDbLine
 10
-7.28259755527
 20
15.0216934083
 30
0.0
 11
-7.59690398781
 21
15.3117454853
 31
0.0
  0
LINE
  5
6A
330
5A0
100
AcDbEntity
  8
grip
100
AcDbLine
 10
-7.59690398781
 20
15.3117454853
 30
0.0
 11
-7.99145736222
 21
15.6276712673
 31
0.0
  0
LINE
  5
6B
330
5A0
100
AcDbEntity
  8
grip
100
AcDbLine
 10
-7.99145736222
 20
15.6276712673
 30
0.0
 11
-8.47114319958
 21
15.9593932499
 31
0.0
  0
LINE
  5
6C
330
5A0
100
AcDbEntity
  8
grip
100
AcDbLine
 10
-8.47114319958
 20
15.9593932499
 30
0.0
 11
-9.03981182893
 21
16.2962971903
 31
0.0
  0
LINE
  5
6D
330
5A0
100
AcDbEntity
  8
grip
100
AcDbLine
 10
-9.03981182893
 20
16.2962971903
 30
0.0
 11
-9.70022868674
 21
16.6273288127
 31
0.0
  0
LINE
  5
6E
330
5A0
100
AcDbEntity
  8
grip
100
AcDbLine
 10
-11.5014982038
 20
10.7600204028
 30
0.0
 11
-11.5286178585
 21
10.7878853476
 31
0.0
  0
LINE
  5
6F
330
5A0
100
AcDbEntity
  8
grip
100
AcDbLine
 10
-11.5286178585
 20
10.7878853476
 30
0.0
 11
-11.6045951931
 21
10.8763905044
 31
0.0
  0
LINE
  5
70
330
5A0
100
AcDbEntity
  8
grip
100
AcDbLine
 10
-11.6045951931
 20
10.8763905044
 30
0.0
 11
-11.7207972085
 21
11.0322442322
 31
0.0
  0
LINE
  5
71
330
5A0
100
AcDbEntity
  8
grip
100
AcDbLine
 10
-11.7207972085
 20
11.0322442322
 30
0.0
 11
-11.8679110254
 21
11.2612249731
 31
0.0
  0
LINE
  5
72
330
5A0
100
AcDbEntity
  8
grip
100
AcDbLine
 10
-11.8679110254
 20
11.2612249731
 30
0.0
 11
-12.036032994
 21
11.568120408
 31
0.0
  0
LINE
  5
73
330
5A0
100
AcDbEntity
  8
grip
100
AcDbLine
 10
-12.036032994
 20
11.568120408
 30
0.0
 11
-12.2147628828
 21
11.9566746098
 31
0.0
  0
LINE
  5
74
330
5A0
100
AcDbEntity
  8
grip
100
AcDbLine
 10
-12.2147628828
 20
11.9566746098
 30
0.0
 11
-12.3933024585
 21
12.4295436031
 31
0.0
  0
LINE
  5
75
330
5A0
100
AcDbEntity
  8
grip
100
AcDbLine
 10
-12.3933024585
 20
12.4295436031
 30
0.0
 11
-12.560557736
 21
12.9882596746
 31
0.0
  0
LINE
  5
76
330
5A0
100
AcDbEntity
  8
grip
100
AcDbLine
 10
-12.560557736
 20
12.9882596746
 30
0.0
 11
-12.7052441532
 21
13.6332047232
 31
0.0
  0
LINE
  5
77
330
5A0
100
AcDbEntity
  8
grip
100
AcDbLine
 10
-12.7052441532
 20
13.6332047232
 30
0.0
 11
-12.8159939023
 21
14.3635928762
 31
0.0
  0
LINE
  5
78
330
5A0
100
AcDbEntity
  8
grip
100
AcDbLine
 10
-9.70022868674
 20
16.6273288127
 30
0.0
 11
-12.8159939023
 21
14.3635928762
 31
0.0
  0
LINE
  5
79
330
5A0
100
AcDbEntity
  8
grip
100
AcDbLine
 10
-11.5014982038
 20
10.7600204028
 30
0.0
 11
-13.7875459253
 21
7.61354564959
 31
0.0
  0
LINE
  5
7A
330
5A0
100
AcDbEntity
  8
grip
100
AcDbLine
 10
-13.7875459253
 20
7.61354564959
 30
0.0
 11
-13.8224274968
 21
7.63072723247
 31
0.0
  0
LINE
  5
7B
330
5A0
100
AcDbEntity
  8
grip
100
AcDbLine
 10
-13.8224274968
 20
7.63072723247
 30
0.0
 11
-13.9300791905
 21
7.67563637408
 31
0.0
  0
LINE
  5
7C
330
5A0
100
AcDbEntity
  8
grip
100
AcDbLine
 10
-13.9300791905
 20
7.67563637408
 30
0.0
 11
-14.1142132914
 21
7.73798960753
 31
0.0
  0
LINE
  5
7D
330
5A0
100
AcDbEntity
  8
grip
100
AcDbLine
 10
-14.1142132914
 20
7.73798960753
 30
0.0
 11
-14.3774475868
 21
7.80714422137
 31
0.0
  0
LINE
  5
7E
330
5A0
100
AcDbEntity
  8
grip
100
AcDbLine
 10
-14.3774475868
 20
7.80714422137
 30
0.0
 11
-14.7212750353
 21
7.87220181023
 31
0.0
  0
LINE
  5
7F
330
5A0
100
AcDbEntity
  8
grip
100
AcDbLine
 10
-14.7212750353
 20
7.87220181023
 30
0.0
 11
-15.1460426139
 21
7.92211418405
 31
0.0
  0
LINE
  5
80
330
5A0
100
AcDbEntity
  8
grip
100
AcDbLine
 10
-15.1460426139
 20
7.92211418405
 30
0.0
 11
-15.6509395144
 21
7.94579085588
 31
0.0
  0
LINE
  5
81
330
5A0
100
AcDbEntity
  8
grip
100
AcDbLine
 10
-15.6509395144
 20
7.94579085588
 30
0.0
 11
-16.2339947981
 21
7.93220731631
 31
0.0
  0
LINE
  5
82
330
5A0
100
AcDbEntity
  8
grip
100
AcDbLine
 10
-16.2339947981
 20
7.93220731631
 30
0.0
 11
-16.892084551
 21
7.87051329576
 31
0.0
  0
LINE
  5
83
330
5A0
100
AcDbEntity
  8
grip
100
AcDbLine
 10
-16.892084551
 20
7.87051329576
 30
0.0
 11
-17.620948518
 21
7.75014021458
 31
0.0
  0
LINE
  5
84
330
5A0
100
AcDbEntity
  8
grip
100
AcDbLine
 10
-15.6294888148
 20
1.94462834221
 30
0.0
 11
-15.6678076799
 21
1.95123102298
 31
0.0
  0
LINE
  5
85
330
5A0
100
AcDbEntity
  8
grip
100
AcDbLine
 10
-15.6678076799
 20
1.95123102298
 30
0.0
 11
-15.7812966608
 21
1.97817484217
 31
0.0
  0
LINE
  5
86
330
5A0
100
AcDbEntity
  8
grip
100
AcDbLine
 10
-15.7812966608
 20
1.97817484217
 30
0.0
 11
-15.9669145887
 21
2.03596132561
 31
0.0
  0
LINE
  5
87
330
5A0
100
AcDbEntity
  8
grip
100
AcDbLine
 10
-15.9669145887
 20
2.03596132561
 30
0.0
 11
-16.2205236693
 21
2.13473930448
 31
0.0
  0
LINE
  5
88
330
5A0
100
AcDbEntity
  8
grip
100
AcDbLine
 10
-16.2205236693
 20
2.13473930448
 30
0.0
 11
-16.5369258095
 21
2.28420331304
 31
0.0
  0
LINE
  5
89
330
5A0
100
AcDbEntity
  8
grip
100
AcDbLine
 10
-16.5369258095
 20
2.28420331304
 30
0.0
 11
-16.9099077565
 21
2.49349547276
 31
0.0
  0
LINE
  5
8A
330
5A0
100
AcDbEntity
  8
grip
100
AcDbLine
 10
-16.9099077565
 20
2.49349547276
 30
0.0
 11
-17.332294728
 21
2.77111159494
 31
0.0
  0
LINE
  5
8B
330
5A0
100
AcDbEntity
  8
grip
100
AcDbLine
 10
-17.332294728
 20
2.77111159494
 30
0.0
 11
-17.7960121569
 21
3.1248122063
 31
0.0
  0
LINE
  5
8C
330
5A0
100
AcDbEntity
  8
grip
100
AcDbLine
 10
-17.7960121569
 20
3.1248122063
 30
0.0
 11
-18.2921551154
 21
3.56153916882
 31
0.0
  0
LINE
  5
8D
330
5A0
100
AcDbEntity
  8
grip
100
AcDbLine
 10
-18.2921551154
 20
3.56153916882
 30
0.0
 11
-18.8110649294
 21
4.0873385279
 31
0.0
  0
LINE
  5
8E
330
5A0
100
AcDbEntity
  8
grip
100
AcDbLine
 10
-17.620948518
 20
7.75014021458
 30
0.0
 11
-18.8110649294
 21
4.0873385279
 31
0.0
  0
LINE
  5
8F
330
5A0
100
AcDbEntity
  8
grip
100
AcDbLine
 10
-15.6294888148
 20
1.94462834221
 30
0.0
 11
-15.6294888148
 21
-1.94462834221
 31
0.0
  0
LINE
  5
90
330
5A0
100
AcDbEntity
  8
grip
100
AcDbLine
 10
-15.6294888148
 20
-1.94462834221
 30
0.0
 11
-15.6678076799
 21
-1.95123102298
 31
0.0
  0
LINE
  5
91
330
5A0
100
AcDbEntity
  8
grip
100
AcDbLine
 10
-15.6678076799
 20
-1.95123102298
 30
0.0
 11
-15.7812966608
 21
-1.97817484217
 31
0.0
  0
LINE
  5
92
330
5A0
100
AcDbEntity
  8
grip
100
AcDbLine
 10
-15.7812966608
 20
-1.97817484217
 30
0.0
 11
-15.9669145887
 21
-2.03596132561
 31
0.0
  0
LINE
  5
93
330
5A0
100
AcDbEntity
  8
grip
100
AcDbLine
 10
-15.9669145887
 20
-2.03596132561
 30
0.0
 11
-16.2205236693
 21
-2.13473930448
 31
0.0
  0
LINE
  5
94
330
5A0
100
AcDbEntity
  8
grip
100
AcDbLine
 10
-16.2205236693
 20
-2.13473930448
 30
0.0
 11
-16.5369258095
 21
-2.28420331304
 31
0.0
  0
LINE
  5
95
330
5A0
100
AcDbEntity
  8
grip
100
AcDbLine
 10
-16.5369258095
 20
-2.28420331304
 30
0.0
 11
-16.9099077565
 21
-2.49349547276
 31
0.0
  0
LINE
  5
96
330
5A0
100
AcDbEntity
  8
grip
100
AcDbLine
 10
-16.9099077565
 20
-2.49349547276
 30
0.0
 11
-17.332294728
 21
-2.77111159494
 31
0.0
  0
LINE
  5
97
330
5A0
100
AcDbEntity
  8
grip
100
AcDbLine
 10
-17.332294728
 20
-2.77111159494
 30
0.0
 11
-17.7960121569
 21
-3.1248122063
 31
0.0
  0
LINE
  5
98
330
5A0
100
AcDbEntity
  8
grip
100
AcDbLine
 10
-17.7960121569
 20
-3.1248122063
 30
0.0
 11
-18.2921551154
 21
-3.56153916882
 31
0.0
  0
LINE
  5
99
330
5A0
100
AcDbEntity
  8
grip
100
AcDbLine
 10
-18.2921551154
 20
-3.56153916882
 30
0.0
 11
-18.8110649294
 21
-4.0873385279
 31
0.0
  0
LINE
  5
9A
330
5A0
100
AcDbEntity
  8
grip
100
AcDbLine
 10
-13.7875459253
 20
-7.61354564959
 30
0.0
 11
-13.8224274968
 21
-7.63072723247
 31
0.0
  0
LINE
  5
9B
330
5A0
100
AcDbEntity
  8
grip
100
AcDbLine
 10
-13.8224274968
 20
-7.63072723247
 30
0.0
 11
-13.9300791905
 21
-7.67563637408
 31
0.0
  0
LINE
  5
9C
330
5A0
100
AcDbEntity
  8
grip
100
AcDbLine
 10
-13.9300791905
 20
-7.67563637408
 30
0.0
 11
-14.1142132914
 21
-7.73798960753
 31
0.0
  0
LINE
  5
9D
330
5A0
100
AcDbEntity
  8
grip
100
AcDbLine
 10
-14.1142132914
 20
-7.73798960753
 30
0.0
 11
-14.3774475868
 21
-7.80714422137
 31
0.0
  0
LINE
  5
9E
330
5A0
100
AcDbEntity
  8
grip
100
AcDbLine
 10
-14.3774475868
 20
-7.80714422137
 30
0.0
 11
-14.7212750353
 21
-7.87220181023
 31
0.0
  0
LINE
  5
9F
330
5A0
100
AcDbEntity
  8
grip
100
AcDbLine
 10
-14.7212750353
 20
-7.87220181023
 30
0.0
 11
-15.1460426139
 21
-7.92211418405
 31
0.0
  0
LINE
  5
A0
330
5A0
100
AcDbEntity
  8
grip
100
AcDbLine
 10
-15.1460426139
 20
-7.92211418405
 30
0.0
 11
-15.6509395144
 21
-7.94579085588
 31
0.0
  0
LINE
  5
A1
330
5A0
100
AcDbEntity
  8
grip
100
AcDbLine
 10
-15.6509395144
 20
-7.94579085588
 30
0.0
 11
-16.2339947981
 21
-7.93220731631
 31
0.0
  0
LINE
  5
A2
330
5A0
100
AcDbEntity
  8
grip
100
AcDbLine
 10
-16.2339947981
 20
-7.93220731631
 30
0.0
 11
-16.892084551
 21
-7.87051329576
 31
0.0
  0
LINE
  5
A3
330
5A0
100
AcDbEntity
  8
grip
100
AcDbLine
 10
-16.892084551
 20
-7.87051329576
 30
0.0
 11
-17.620948518
 21
-7.75014021458
 31
0.0
  0
LINE
  5
A4
330
5A0
100
AcDbEntity
  8
grip
100
AcDbLine
 10
-18.8110649294
 20
-4.0873385279
 30
0.0
 11
-17.620948518
 21
-7.75014021458
 31
0.0
  0
LINE
  5
A5
330
5A0
100
AcDbEntity
  8
grip
100
AcDbLine
 10
-13.7875459253
 20
-7.61354564959
 30
0.0
 11
-11.5014982038
 21
-10.7600204028
 31
0.0
  0
LINE
  5
A6
330
5A0
100
AcDbEntity
  8
grip
100
AcDbLine
 10
-11.5014982038
 20
-10.7600204028
 30
0.0
 11
-11.5286178585
 21
-10.7878853476
 31
0.0
  0
LINE
  5
A7
330
5A0
100
AcDbEntity
  8
grip
100
AcDbLine
 10
-11.5286178585
 20
-10.7878853476
 30
0.0
 11
-11.6045951931
 21
-10.8763905044
 31
0.0
  0
LINE
  5
A8
330
5A0
100
AcDbEntity
  8
grip
100
AcDbLine
 10
-11.6045951931
 20
-10.8763905044
 30
0.0
 11
-11.7207972085
 21
-11.0322442322
 31
0.0
  0
LINE
  5
A9
330
5A0
100
AcDbEntity
  8
grip
100
AcDbLine
 10
-11.7207972085
 20
-11.0322442322
 30
0.0
 11
-11.8679110254
 21
-11.2612249731
 31
0.0
  0
LINE
  5
AA
330
5A0
100
AcDbEntity
  8
grip
100
AcDbLine
 10
-11.8679110254
 20
-11.2612249731
 30
0.0
 11
-12.036032994
 21
-11.568120408
 31
0.0
  0
LINE
  5
AB
330
5A0
100
AcDbEntity
  8
grip
100
AcDbLine
 10
-12.036032994
 20
-11.568120408
 30
0.0
 11
-12.2147628828
 21
-11.9566746098
 31
0.0
  0
LINE
  5
AC
330
5A0
100
AcDbEntity
  8
grip
100
AcDbLine
 10
-12.2147628828
 20
-11.9566746098
 30
0.0
 11
-12.3933024585
 21
-12.4295436031
 31
0.0
  0
LINE
  5
AD
330
5A0
100
AcDbEntity
  8
grip
100
AcDbLine
 10
-12.3933024585
 20
-12.4295436031
 30
0.0
 11
-12.560557736
 21
-12.9882596746
 31
0.0
  0
LINE
  5
AE
330
5A0
100
AcDbEntity
  8
grip
100
AcDbLine
 10
-12.560557736
 20
-12.9882596746
 30
0.0
 11
-12.7052441532
 21
-13.6332047232
 31
0.0
  0
LINE
  5
AF
330
5A0
100
AcDbEntity
  8
grip
100
AcDbLine
 10
-12.7052441532
 20
-13.6332047232
 30
0.0
 11
-12.8159939023
 21
-14.3635928762
 31
0.0
  0
LINE
  5
B0
330
5A0
100
AcDbEntity
  8
grip
100
AcDbLine
 10
-6.67922911379
 20
-14.2636039782
 30
0.0
 11
-6.6973498169
 21
-14.298007044
 31
0.0
  0
LINE
  5
B1
330
5A0
100
AcDbEntity
  8
grip
100
AcDbLine
 10
-6.6973498169
 20
-14.298007044
 30
0.0
 11
-6.75804493546
 21
-14.3976153807
 31
0.0
  0
LINE
  5
B2
330
5A0
100
AcDbEntity
  8
grip
100
AcDbLine
 10
-6.75804493546
 20
-14.3976153807
 30
0.0
 11
-6.87036224129
 21
-14.5562915152
 31
0.0
  0
LINE
  5
B3
330
5A0
100
AcDbEntity
  8
grip
100
AcDbLine
 10
-6.87036224129
 20
-14.5562915152
 30
0.0
 11
-7.04267519758
 21
-14.7669640097
 31
0.0
  0
LINE
  5
B4
330
5A0
100
AcDbEntity
  8
grip
100
AcDbLine
 10
-7.04267519758
 20
-14.7669640097
 30
0.0
 11
-7.28259755527
 21
-15.0216934083
 31
0.0
  0
LINE
  5
B5
330
5A0
100
AcDbEntity
  8
grip
100
AcDbLine
 10
-7.28259755527
 20
-15.0216934083
 30
0.0
 11
-7.59690398781
 21
-15.3117454853
 31
0.0
  0
LINE
  5
B6
330
5A0
100
AcDbEntity
  8
grip
100
AcDbLine
 10
-7.59690398781
 20
-15.3117454853
 30
0.0
 11
-7.99145736222
 21
-15.6276712673
 31
0.0
  0
LINE
  5
B7
330
5A0
100
AcDbEntity
  8
grip
100
AcDbLine
 10
-7.99145736222
 20
-15.6276712673
 30
0.0
 11
-8.47114319958
 21
-15.9593932499
 31
0.0
  0
LINE
  5
B8
330
5A0
100
AcDbEntity
  8
grip
100
AcDbLine
 10
-8.47114319958
 20
-15.9593932499
 30
0.0
 11
-9.03981182893
 21
-16.2962971903
 31
0.0
  0
LINE
  5
B9
330
5A0
100
AcDbEntity
  8
grip
100
AcDbLine
 10
-9.03981182893
 20
-16.2962971903
 30
0.0
 11
-9.70022868674
 21
-16.6273288127
 31
0.0
  0
LINE
  5
BA
330
5A0
100
AcDbEntity
  8
grip
100
AcDbLine
 10
-12.8159939023
 20
-14.3635928762
 30
0.0
 11
-9.70022868674
 21
-16.6273288127
 31
0.0
  0
LINE
  5
BB
330
5A0
100
AcDbEntity
  8
grip
100
AcDbLine
 10
-6.67922911379
 20
-14.2636039782
 30
0.0
 11
-2.98032620052
 21
-15.4654503891
 31
0.0
  0
LINE
  5
BC
330
5A0
100
AcDbEntity
  8
grip
100
AcDbLine
 10
-2.98032620052
 20
-15.4654503891
 30
0.0
 11
-2.98588785849
 21
-15.5039341361
 31
0.0
  0
LINE
  5
BD
330
5A0
100
AcDbEntity
  8
grip
100
AcDbLine
 10
-2.98588785849
 20
-15.5039341361
 30
0.0
 11
-2.99533278743
 21
-15.6201946689
 31
0.0
  0
LINE
  5
BE
330
5A0
100
AcDbEntity
  8
grip
100
AcDbLine
 10
-2.99533278743
 20
-15.6201946689
 30
0.0
 11
-2.99773366999
 21
-15.8145848142
 31
0.0
  0
LINE
  5
BF
330
5A0
100
AcDbEntity
  8
grip
100
AcDbLine
 10
-2.99773366999
 20
-15.8145848142
 30
0.0
 11
-2.98215974535
 21
-16.086305457
 31
0.0
  0
LINE
  5
C0
330
5A0
100
AcDbEntity
  8
grip
100
AcDbLine
 10
-2.98215974535
 20
-16.086305457
 30
0.0
 11
-2.93778466445
 21
-16.433408693
 31
0.0
  0
LINE
  5
C1
330
5A0
100
AcDbEntity
  8
grip
100
AcDbLine
 10
-2.93778466445
 20
-16.433408693
 30
0.0
 11
-2.85399375235
 21
-16.8528104383
 31
0.0
  0
LINE
  5
C2
330
5A0
100
AcDbEntity
  8
grip
100
AcDbLine
 10
-2.85399375235
 20
-16.8528104383
 30
0.0
 11
-2.72048988271
 21
-17.3403124196
 31
0.0
  0
LINE
  5
C3
330
5A0
100
AcDbEntity
  8
grip
100
AcDbLine
 10
-2.72048988271
 20
-17.3403124196
 30
0.0
 11
-2.52739717758
 21
-17.8906334018
 31
0.0
  0
LINE
  5
C4
330
5A0
100
AcDbEntity
  8
grip
100
AcDbLine
 10
-2.52739717758
 20
-17.8906334018
 30
0.0
 11
-2.26536175985
 21
-18.4974494489
 31
0.0
  0
LINE
  5
C5
330
5A0
100
AcDbEntity
  8
grip
100
AcDbLine
 10
-2.26536175985
 20
-18.4974494489
 30
0.0
 11
-1.92564880421
 21
-19.1534429464
 31
0.0
  0
LINE
  5
C6
330
5A0
100
AcDbEntity
  8
grip
100
AcDbLine
 10
2.98032620052
 20
-15.4654503891
 30
0.0
 11
2.98588785849
 21
-15.5039341361
 31
0.0
  0
LINE
  5
C7
330
5A0
100
AcDbEntity
  8
grip
100
AcDbLine
 10
2.98588785849
 20
-15.5039341361
 30
0.0
 11
2.99533278743
 21
-15.6201946689
 31
0.0
  0
LINE
  5
C8
330
5A0
100
AcDbEntity
  8
grip
100
AcDbLine
 10
2.99533278743
 20
-15.6201946689
 30
0.0
 11
2.99773366999
 21
-15.8145848142
 31
0.0
  0
LINE
  5
C9
330
5A0
100
AcDbEntity
  8
grip
100
AcDbLine
 10
2.99773366999
 20
-15.8145848142
 30
0.0
 11
2.98215974535
 21
-16.086305457
 31
0.0
  0
LINE
  5
CA
330
5A0
100
AcDbEntity
  8
grip
100
AcDbLine
 10
2.98215974535
 20
-16.086305457
 30
0.0
 11
2.93778466445
 21
-16.433408693
 31
0.0
  0
LINE
  5
CB
330
5A0
100
AcDbEntity
  8
grip
100
AcDbLine
 10
2.93778466445
 20
-16.433408693
 30
0.0
 11
2.85399375235
 21
-16.8528104383
 31
0.0
  0
LINE
  5
CC
330
5A0
100
AcDbEntity
  8
grip
100
AcDbLine
 10
2.85399375235
 20
-16.8528104383
 30
0.0
 11
2.72048988271
 21
-17.3403124196
 31
0.0
  0
LINE
  5
CD
330
5A0
100
AcDbEntity
  8
grip
100
AcDbLine
 10
2.72048988271
 20
-17.3403124196
 30
0.0
 11
2.52739717758
 21
-17.8906334018
 31
0.0
  0
LINE
  5
CE
330
5A0
100
AcDbEntity
  8
grip
100
AcDbLine
 10
2.52739717758
 20
-17.8906334018
 30
0.0
 11
2.26536175985
 21
-18.4974494489
 31
0.0
  0
LINE
  5
CF
330
5A0
100
AcDbEntity
  8
grip
100
AcDbLine
 10
2.26536175985
 20
-18.4974494489
 30
0.0
 11
1.92564880421
 21
-19.1534429464
 31
0.0
  0
LINE
  5
D0
330
5A0
100
AcDbEntity
  8
grip
100
AcDbLine
 10
-1.92564880421
 20
-19.1534429464
 30
0.0
 11
1.92564880421
 21
-19.1534429464
 31
0.0
  0
LINE
  5
D1
330
5A0
100
AcDbEntity
  8
grip
100
AcDbLine
 10
2.98032620052
 20
-15.4654503891
 30
0.0
 11
6.67922911379
 21
-14.2636039782
 31
0.0
  0
LINE
  5
D2
330
5A0
100
AcDbEntity
  8
grip
100
AcDbLine
 10
6.67922911379
 20
-14.2636039782
 30
0.0
 11
6.6973498169
 21
-14.298007044
 31
0.0
  0
LINE
  5
D3
330
5A0
100
AcDbEntity
  8
grip
100
AcDbLine
 10
6.6973498169
 20
-14.298007044
 30
0.0
 11
6.75804493546
 21
-14.3976153807
 31
0.0
  0
LINE
  5
D4
330
5A0
100
AcDbEntity
  8
grip
100
AcDbLine
 10
6.75804493546
 20
-14.3976153807
 30
0.0
 11
6.87036224129
 21
-14.5562915152
 31
0.0
  0
LINE
  5
D5
330
5A0
100
AcDbEntity
  8
grip
100
AcDbLine
 10
6.87036224129
 20
-14.5562915152
 30
0.0
 11
7.04267519758
 21
-14.7669640097
 31
0.0
  0
LINE
  5
D6
330
5A0
100
AcDbEntity
  8
grip
100
AcDbLine
 10
7.04267519758
 20
-14.7669640097
 30
0.0
 11
7.28259755527
 21
-15.0216934083
 31
0.0
  0
LINE
  5
D7
330
5A0
100
AcDbEntity
  8
grip
100
AcDbLine
 10
7.28259755527
 20
-15.0216934083
 30
0.0
 11
7.59690398781
 21
-15.3117454853
 31
0.0
  0
LINE
  5
D8
330
5A0
100
AcDbEntity
  8
grip
100
AcDbLine
 10
7.59690398781
 20
-15.3117454853
 30
0.0
 11
7.99145736222
 21
-15.6276712673
 31
0.0
  0
LINE
  5
D9
330
5A0
100
AcDbEntity
  8
grip
100
AcDbLine
 10
7.99145736222
 20
-15.6276712673
 30
0.0
 11
8.47114319958
 21
-15.9593932499
 31
0.0
  0
LINE
  5
DA
330
5A0
100
AcDbEntity
  8
grip
100
AcDbLine
 10
8.47114319958
 20
-15.9593932499
 30
0.0
 11
9.03981182893
 21
-16.2962971903
 31
0.0
  0
LINE
  5
DB
330
5A0
100
AcDbEntity
  8
grip
100
AcDbLine
 10
9.03981182893
 20
-16.2962971903
 30
0.0
 11
9.70022868674
 21
-16.6273288127
 31
0.0
  0
LINE
  5
DC
330
5A0
100
AcDbEntity
  8
grip
100
AcDbLine
 10
11.5014982038
 20
-10.7600204028
 30
0.0
 11
11.5286178585
 21
-10.7878853476
 31
0.0
  0
LINE
  5
DD
330
5A0
100
AcDbEntity
  8
grip
100
AcDbLine
 10
11.5286178585
 20
-10.7878853476
 30
0.0
 11
11.6045951931
 21
-10.8763905044
 31
0.0
  0
LINE
  5
DE
330
5A0
100
AcDbEntity
  8
grip
100
AcDbLine
 10
11.6045951931
 20
-10.8763905044
 30
0.0
 11
11.7207972085
 21
-11.0322442322
 31
0.0
  0
LINE
  5
DF
330
5A0
100
AcDbEntity
  8
grip
100
AcDbLine
 10
11.7207972085
 20
-11.0322442322
 30
0.0
 11
11.8679110254
 21
-11.2612249731
 31
0.0
  0
LINE
  5
E0
330
5A0
100
AcDbEntity
  8
grip
100
AcDbLine
 10
11.8679110254
 20
-11.2612249731
 30
0.0
 11
12.036032994
 21
-11.568120408
 31
0.0
  0
LINE
  5
E1
330
5A0
100
AcDbEntity
  8
grip
100
AcDbLine
 10
12.036032994
 20
-11.568120408
 30
0.0
 11
12.2147628828
 21
-11.9566746098
 31
0.0
  0
LINE
  5
E2
330
5A0
100
AcDbEntity
  8
grip
100
AcDbLine
 10
12.2147628828
 20
-11.9566746098
 30
0.0
 11
12.3933024585
 21
-12.4295436031
 31
0.0
  0
LINE
  5
E3
330
5A0
100
AcDbEntity
  8
grip
100
AcDbLine
 10
12.3933024585
 20
-12.4295436031
 30
0.0
 11
12.560557736
 21
-12.9882596746
 31
0.0
  0
LINE
  5
E4
330
5A0
100
AcDbEntity
  8
grip
100
AcDbLine
 10
12.560557736
 20
-12.9882596746
 30
0.0
 11
12.7052441532
 21
-13.6332047232
 31
0.0
  0
LINE
  5
E5
330
5A0
100
AcDbEntity
  8
grip
100
AcDbLine
 10
12.7052441532
 20
-13.6332047232
 30
0.0
 11
12.8159939023
 21
-14.3635928762
 31
0.0
  0
LINE
  5
E6
330
5A0
100
AcDbEntity
  8
grip
100
AcDbLine
 10
9.70022868674
 20
-16.6273288127
 30
0.0
 11
12.8159939023
 21
-14.3635928762
 31
0.0
  0
LINE
  5
E7
330
5A0
100
AcDbEntity
  8
grip
100
AcDbLine
 10
11.5014982038
 20
-10.7600204028
 30
0.0
 11
13.7875459253
 21
-7.61354564959
 31
0.0
  0
LINE
  5
E8
330
5A0
100
AcDbEntity
  8
grip
100
AcDbLine
 10
13.7875459253
 20
-7.61354564959
 30
0.0
 11
13.8224274968
 21
-7.63072723247
 31
0.0
  0
LINE
  5
E9
330
5A0
100
AcDbEntity
  8
grip
100
AcDbLine
 10
13.8224274968
 20
-7.63072723247
 30
0.0
 11
13.9300791905
 21
-7.67563637408
 31
0.0
  0
LINE
  5
EA
330
5A0
100
AcDbEntity
  8
grip
100
AcDbLine
 10
13.9300791905
 20
-7.67563637408
 30
0.0
 11
14.1142132914
 21
-7.73798960753
 31
0.0
  0
LINE
  5
EB
330
5A0
100
AcDbEntity
  8
grip
100
AcDbLine
 10
14.1142132914
 20
-7.73798960753
 30
0.0
 11
14.3774475868
 21
-7.80714422137
 31
0.0
  0
LINE
  5
EC
330
5A0
100
AcDbEntity
  8
grip
100
AcDbLine
 10
14.3774475868
 20
-7.80714422137
 30
0.0
 11
14.7212750353
 21
-7.87220181023
 31
0.0
  0
LINE
  5
ED
330
5A0
100
AcDbEntity
  8
grip
100
AcDbLine
 10
14.7212750353
 20
-7.87220181023
 30
0.0
 11
15.1460426139
 21
-7.92211418405
 31
0.0
  0
LINE
  5
EE
330
5A0
100
AcDbEntity
  8
grip
100
AcDbLine
 10
15.1460426139
 20
-7.92211418405
 30
0.0
 11
15.6509395144
 21
-7.94579085588
 31
0.0
  0
LINE
  5
EF
330
5A0
100
AcDbEntity
  8
grip
100
AcDbLine
 10
15.6509395144
 20
-7.94579085588
 30
0.0
 11
16.2339947981
 21
-7.93220731631
 31
0.0
  0
LINE
  5
F0
330
5A0
100
AcDbEntity
  8
grip
100
AcDbLine
 10
16.2339947981
 20
-7.93220731631
 30
0.0
 11
16.892084551
 21
-7.87051329576
 31
0.0
  0
LINE
  5
F1
330
5A0
100
AcDbEntity
  8
grip
100
AcDbLine
 10
16.892084551
 20
-7.87051329576
 30
0.0
 11
17.620948518
 21
-7.75014021458
 31
0.0
  0
LINE
  5
F2
330
5A0
100
AcDbEntity
  8
grip
100
AcDbLine
 10
15.6294888148
 20
-1.94462834221
 30
0.0
 11
15.6678076799
 21
-1.95123102298
 31
0.0
  0
LINE
  5
F3
330
5A0
100
AcDbEntity
  8
grip
100
AcDbLine
 10
15.6678076799
 20
-1.95123102298
 30
0.0
 11
15.7812966608
 21
-1.97817484217
 31
0.0
  0
LINE
  5
F4
330
5A0
100
AcDbEntity
  8
grip
100
AcDbLine
 10
15.7812966608
 20
-1.97817484217
 30
0.0
 11
15.9669145887
 21
-2.03596132561
 31
0.0
  0
LINE
  5
F5
330
5A0
100
AcDbEntity
  8
grip
100
AcDbLine
 10
15.9669145887
 20
-2.03596132561
 30
0.0
 11
16.2205236693
 21
-2.13473930448
 31
0.0
  0
LINE
  5
F6
330
5A0
100
AcDbEntity
  8
grip
100
AcDbLine
 10
16.2205236693
 20
-2.13473930448
 30
0.0
 11
16.5369258095
 21
-2.28420331304
 31
0.0
  0
LINE
  5
F7
330
5A0
100
AcDbEntity
  8
grip
100
AcDbLine
 10
16.5369258095
 20
-2.28420331304
 30
0.0
 11
16.9099077565
 21
-2.49349547276
 31
0.0
  0
LINE
  5
F8
330
5A0
100
AcDbEntity
  8
grip
100
AcDbLine
 10
16.9099077565
 20
-2.49349547276
 30
0.0
 11
17.332294728
 21
-2.77111159494
 31
0.0
  0
LINE
  5
F9
330
5A0
100
AcDbEntity
  8
grip
100
AcDbLine
 10
17.332294728
 20
-2.77111159494
 30
0.0
 11
17.7960121569
 21
-3.1248122063
 31
0.0
  0
LINE
  5
FA
330
5A0
100
AcDbEntity
  8
grip
100
AcDbLine
 10
17.7960121569
 20
-3.1248122063
 30
0.0
 11
18.2921551154
 21
-3.56153916882
 31
0.0
  0
LINE
  5
FB
330
5A0
100
AcDbEntity
  8
grip
100
AcDbLine
 10
18.2921551154
 20
-3.56153916882
 30
0.0
 11
18.8110649294
 21
-4.0873385279
 31
0.0
  0
LINE
  5
FC
330
5A0
100
AcDbEntity
  8
grip
100
AcDbLine
 10
17.620948518
 20
-7.75014021458
 30
0.0
 11
18.8110649294
 21
-4.0873385279
 31
0.0
  0
CIRCLE
  5
FD
330
5A0
100
AcDbEntity
  8
grip
100
AcDbCircle
 10
0.0
 20
0.0
 30
0.0
 40
3.0
  0
LINE
  5
3B4
330
5A0
100
AcDbEntity
  8
spoon
100
AcDbLine
 10
15.6294888148
 20
-1.94462834221
 30
0.0
 11
15.6294888148
 21
1.94462834221
 31
0.0
  0
LINE
  5
3B5
330
5A0
100
AcDbEntity
  8
spoon
100
AcDbLine
 10
15.6294888148
 20
1.94462834221
 30
0.0
 11
15.6678076799
 21
1.95123102298
 31
0.0
  0
LINE
  5
3B6
330
5A0
100
AcDbEntity
  8
spoon
100
AcDbLine
 10
15.6678076799
 20
1.95123102298
 30
0.0
 11
15.7812966608
 21
1.97817484217
 31
0.0
  0
LINE
  5
3B7
330
5A0
100
AcDbEntity
  8
spoon
100
AcDbLine
 10
15.7812966608
 20
1.97817484217
 30
0.0
 11
15.9669145887
 21
2.03596132561
 31
0.0
  0
LINE
  5
3B8
330
5A0
100
AcDbEntity
  8
spoon
100
AcDbLine
 10
15.9669145887
 20
2.03596132561
 30
0.0
 11
16.2205236693
 21
2.13473930448
 31
0.0
  0
LINE
  5
3B9
330
5A0
100
AcDbEntity
  8
spoon
100
AcDbLine
 10
16.2205236693
 20
2.13473930448
 30
0.0
 11
16.5369258095
 21
2.28420331304
 31
0.0
  0
LINE
  5
3BA
330
5A0
100
AcDbEntity
  8
spoon
100
AcDbLine
 10
16.5369258095
 20
2.28420331304
 30
0.0
 11
16.9099077565
 21
2.49349547276
 31
0.0
  0
LINE
  5
3BB
330
5A0
100
AcDbEntity
  8
spoon
100
AcDbLine
 10
16.9099077565
 20
2.49349547276
 30
0.0
 11
17.332294728
 21
2.77111159494
 31
0.0
  0
LINE
  5
3BC
330
5A0
100
AcDbEntity
  8
spoon
100
AcDbLine
 10
17.332294728
 20
2.77111159494
 30
0.0
 11
17.7960121569
 21
3.1248122063
 31
0.0
  0
LINE
  5
3BD
330
5A0
100
AcDbEntity
  8
spoon
100
AcDbLine
 10
17.7960121569
 20
3.1248122063
 30
0.0
 11
18.2921551154
 21
3.56153916882
 31
0.0
  0
LINE
  5
3BE
330
5A0
100
AcDbEntity
  8
spoon
100
AcDbLine
 10
18.2921551154
 20
3.56153916882
 30
0.0
 11
18.8110649294
 21
4.0873385279
 31
0.0
  0
LINE
  5
3BF
330
5A0
100
AcDbEntity
  8
spoon
100
AcDbLine
 10
13.7875459253
 20
7.61354564959
 30
0.0
 11
13.8224274968
 21
7.63072723247
 31
0.0
  0
LINE
  5
3C0
330
5A0
100
AcDbEntity
  8
spoon
100
AcDbLine
 10
13.8224274968
 20
7.63072723247
 30
0.0
 11
13.9300791905
 21
7.67563637408
 31
0.0
  0
LINE
  5
3C1
330
5A0
100
AcDbEntity
  8
spoon
100
AcDbLine
 10
13.9300791905
 20
7.67563637408
 30
0.0
 11
14.1142132914
 21
7.73798960753
 31
0.0
  0
LINE
  5
3C2
330
5A0
100
AcDbEntity
  8
spoon
100
AcDbLine
 10
14.1142132914
 20
7.73798960753
 30
0.0
 11
14.3774475868
 21
7.80714422137
 31
0.0
  0
LINE
  5
3C3
330
5A0
100
AcDbEntity
  8
spoon
100
AcDbLine
 10
14.3774475868
 20
7.80714422137
 30
0.0
 11
14.7212750353
 21
7.87220181023
 31
0.0
  0
LINE
  5
3C4
330
5A0
100
AcDbEntity
  8
spoon
100
AcDbLine
 10
14.7212750353
 20
7.87220181023
 30
0.0
 11
15.1460426139
 21
7.92211418405
 31
0.0
  0
LINE
  5
3C5
330
5A0
100
AcDbEntity
  8
spoon
100
AcDbLine
 10
15.1460426139
 20
7.92211418405
 30
0.0
 11
15.6509395144
 21
7.94579085588
 31
0.0
  0
LINE
  5
3C6
330
5A0
100
AcDbEntity
  8
spoon
100
AcDbLine
 10
15.6509395144
 20
7.94579085588
 30
0.0
 11
16.2339947981
 21
7.93220731631
 31
0.0
  0
LINE
  5
3C7
330
5A0
100
AcDbEntity
  8
spoon
100
AcDbLine
 10
16.2339947981
 20
7.93220731631
 30
0.0
 11
16.892084551
 21
7.87051329576
 31
0.0
  0
LINE
  5
3C8
330
5A0
100
AcDbEntity
  8
spoon
100
AcDbLine
 10
16.892084551
 20
7.87051329576
 30
0.0
 11
17.620948518
 21
7.75014021458
 31
0.0
  0
LINE
  5
3C9
330
5A0
100
AcDbEntity
  8
spoon
100
AcDbLine
 10
18.8110649294
 20
4.0873385279
 30
0.0
 11
17.620948518
 21
7.75014021458
 31
0.0
  0
LINE
  5
3CA
330
5A0
100
AcDbEntity
  8
spoon
100
AcDbLine
 10
13.7875459253
 20
7.61354564959
 30
0.0
 11
11.5014982038
 21
10.7600204028
 31
0.0
  0
LINE
  5
3CB
330
5A0
100
AcDbEntity
  8
spoon
100
AcDbLine
 10
11.5014982038
 20
10.7600204028
 30
0.0
 11
11.5286178585
 21
10.7878853476
 31
0.0
  0
LINE
  5
3CC
330
5A0
100
AcDbEntity
  8
spoon
100
AcDbLine
 10
11.5286178585
 20
10.7878853476
 30
0.0
 11
11.6045951931
 21
10.8763905044
 31
0.0
  0
LINE
  5
3CD
330
5A0
100
AcDbEntity
  8
spoon
100
AcDbLine
 10
11.6045951931
 20
10.8763905044
 30
0.0
 11
11.7207972085
 21
11.0322442322
 31
0.0
  0
LINE
  5
3CE
330
5A0
100
AcDbEntity
  8
spoon
100
AcDbLine
 10
11.7207972085
 20
11.0322442322
 30
0.0
 11
11.8679110254
 21
11.2612249731
 31
0.0
  0
LINE
  5
3CF
330
5A0
100
AcDbEntity
  8
spoon
100
AcDbLine
 10
11.8679110254
 20
11.2612249731
 30
0.0
 11
12.036032994
 21
11.568120408
 31
0.0
  0
LINE
  5
3D0
330
5A0
100
AcDbEntity
  8
spoon
100
AcDbLine
 10
12.036032994
 20
11.568120408
 30
0.0
 11
12.2147628828
 21
11.9566746098
 31
0.0
  0
LINE
  5
3D1
330
5A0
100
AcDbEntity
  8
spoon
100
AcDbLine
 10
12.2147628828
 20
11.9566746098
 30
0.0
 11
12.3933024585
 21
12.4295436031
 31
0.0
  0
LINE
  5
3D2
330
5A0
100
AcDbEntity
  8
spoon
100
AcDbLine
 10
12.3933024585
 20
12.4295436031
 30
0.0
 11
12.560557736
 21
12.9882596746
 31
0.0
  0
LINE
  5
3D3
330
5A0
100
AcDbEntity
  8
spoon
100
AcDbLine
 10
12.560557736
 20
12.9882596746
 30
0.0
 11
12.7052441532
 21
13.6332047232
 31
0.0
  0
LINE
  5
3D4
330
5A0
100
AcDbEntity
  8
spoon
100
AcDbLine
 10
12.7052441532
 20
13.6332047232
 30
0.0
 11
12.8159939023
 21
14.3635928762
 31
0.0
  0
LINE
  5
3D5
330
5A0
100
AcDbEntity
  8
spoon
100
AcDbLine
 10
6.67922911379
 20
14.2636039782
 30
0.0
 11
6.6973498169
 21
14.298007044
 31
0.0
  0
LINE
  5
3D6
330
5A0
100
AcDbEntity
  8
spoon
100
AcDbLine
 10
6.6973498169
 20
14.298007044
 30
0.0
 11
6.75804493546
 21
14.3976153807
 31
0.0
  0
LINE
  5
3D7
330
5A0
100
AcDbEntity
  8
spoon
100
AcDbLine
 10
6.75804493546
 20
14.3976153807
 30
0.0
 11
6.87036224129
 21
14.5562915152
 31
0.0
  0
LINE
  5
3D8
330
5A0
100
AcDbEntity
  8
spoon
100
AcDbLine
 10
6.87036224129
 20
14.5562915152
 30
0.0
 11
7.04267519758
 21
14.7669640097
 31
0.0
  0
LINE
  5
3D9
330
5A0
100
AcDbEntity
  8
spoon
100
AcDbLine
 10
7.04267519758
 20
14.7669640097
 30
0.0
 11
7.28259755527
 21
15.0216934083
 31
0.0
  0
LINE
  5
3DA
330
5A0
100
AcDbEntity
  8
spoon
100
AcDbLine
 10
7.28259755527
 20
15.0216934083
 30
0.0
 11
7.59690398781
 21
15.3117454853
 31
0.0
  0
LINE
  5
3DB
330
5A0
100
AcDbEntity
  8
spoon
100
AcDbLine
 10
7.59690398781
 20
15.3117454853
 30
0.0
 11
7.99145736222
 21
15.6276712673
 31
0.0
  0
LINE
  5
3DC
330
5A0
100
AcDbEntity
  8
spoon
100
AcDbLine
 10
7.99145736222
 20
15.6276712673
 30
0.0
 11
8.47114319958
 21
15.9593932499
 31
0.0
  0
LINE
  5
3DD
330
5A0
100
AcDbEntity
  8
spoon
100
AcDbLine
 10
8.47114319958
 20
15.9593932499
 30
0.0
 11
9.03981182893
 21
16.2962971903
 31
0.0
  0
LINE
  5
3DE
330
5A0
100
AcDbEntity
  8
spoon
100
AcDbLine
 10
9.03981182893
 20
16.2962971903
 30
0.0
 11
9.70022868674
 21
16.6273288127
 31
0.0
  0
LINE
  5
3DF
330
5A0
100
AcDbEntity
  8
spoon
100
AcDbLine
 10
12.8159939023
 20
14.3635928762
 30
0.0
 11
9.70022868674
 21
16.6273288127
 31
0.0
  0
LINE
  5
3E0
330
5A0
100
AcDbEntity
  8
spoon
100
AcDbLine
 10
6.67922911379
 20
14.2636039782
 30
0.0
 11
2.98032620052
 21
15.4654503891
 31
0.0
  0
LINE
  5
3E1
330
5A0
100
AcDbEntity
  8
spoon
100
AcDbLine
 10
2.98032620052
 20
15.4654503891
 30
0.0
 11
2.98588785849
 21
15.5039341361
 31
0.0
  0
LINE
  5
3E2
330
5A0
100
AcDbEntity
  8
spoon
100
AcDbLine
 10
2.98588785849
 20
15.5039341361
 30
0.0
 11
2.99533278743
 21
15.6201946689
 31
0.0
  0
LINE
  5
3E3
330
5A0
100
AcDbEntity
  8
spoon
100
AcDbLine
 10
2.99533278743
 20
15.6201946689
 30
0.0
 11
2.99773366999
 21
15.8145848142
 31
0.0
  0
LINE
  5
3E4
330
5A0
100
AcDbEntity
  8
spoon
100
AcDbLine
 10
2.99773366999
 20
15.8145848142
 30
0.0
 11
2.98215974535
 21
16.086305457
 31
0.0
  0
LINE
  5
3E5
330
5A0
100
AcDbEntity
  8
spoon
100
AcDbLine
 10
2.98215974535
 20
16.086305457
 30
0.0
 11
2.93778466445
 21
16.433408693
 31
0.0
  0
LINE
  5
3E6
330
5A0
100
AcDbEntity
  8
spoon
100
AcDbLine
 10
2.93778466445
 20
16.433408693
 30
0.0
 11
2.85399375235
 21
16.8528104383
 31
0.0
  0
LINE
  5
3E7
330
5A0
100
AcDbEntity
  8
spoon
100
AcDbLine
 10
2.85399375235
 20
16.8528104383
 30
0.0
 11
2.72048988271
 21
17.3403124196
 31
0.0
  0
LINE
  5
3E8
330
5A0
100
AcDbEntity
  8
spoon
100
AcDbLine
 10
2.72048988271
 20
17.3403124196
 30
0.0
 11
2.52739717758
 21
17.8906334018
 31
0.0
  0
LINE
  5
3E9
330
5A0
100
AcDbEntity
  8
spoon
100
AcDbLine
 10
2.52739717758
 20
17.8906334018
 30
0.0
 11
2.26536175985
 21
18.4974494489
 31
0.0
  0
LINE
  5
3EA
330
5A0
100
AcDbEntity
  8
spoon
100
AcDbLine
 10
2.26536175985
 20
18.4974494489
 30
0.0
 11
1.92564880421
 21
19.1534429464
 31
0.0
  0
LINE
  5
3EB
330
5A0
100
AcDbEntity
  8
spoon
100
AcDbLine
 10
-2.98032620052
 20
15.4654503891
 30
0.0
 11
-2.98588785849
 21
15.5039341361
 31
0.0
  0
LINE
  5
3EC
330
5A0
100
AcDbEntity
  8
spoon
100
AcDbLine
 10
-2.98588785849
 20
15.5039341361
 30
0.0
 11
-2.99533278743
 21
15.6201946689
 31
0.0
  0
LINE
  5
3ED
330
5A0
100
AcDbEntity
  8
spoon
100
AcDbLine
 10
-2.99533278743
 20
15.6201946689
 30
0.0
 11
-2.99773366999
 21
15.8145848142
 31
0.0
  0
LINE
  5
3EE
330
5A0
100
AcDbEntity
  8
spoon
100
AcDbLine
 10
-2.99773366999
 20
15.8145848142
 30
0.0
 11
-2.98215974535
 21
16.086305457
 31
0.0
  0
LINE
  5
3EF
330
5A0
100
AcDbEntity
  8
spoon
100
AcDbLine
 10
-2.98215974535
 20
16.086305457
 30
0.0
 11
-2.93778466445
 21
16.433408693
 31
0.0
  0
LINE
  5
3F0
330
5A0
100
AcDbEntity
  8
spoon
100
AcDbLine
 10
-2.93778466445
 20
16.433408693
 30
0.0
 11
-2.85399375235
 21
16.8528104383
 31
0.0
  0
LINE
  5
3F1
330
5A0
100
AcDbEntity
  8
spoon
100
AcDbLine
 10
-2.85399375235
 20
16.8528104383
 30
0.0
 11
-2.72048988271
 21
17.3403124196
 31
0.0
  0
LINE
  5
3F2
330
5A0
100
AcDbEntity
  8
spoon
100
AcDbLine
 10
-2.72048988271
 20
17.3403124196
 30
0.0
 11
-2.52739717758
 21
17.8906334018
 31
0.0
  0
LINE
  5
3F3
330
5A0
100
AcDbEntity
  8
spoon
100
AcDbLine
 10
-2.52739717758
 20
17.8906334018
 30
0.0
 11
-2.26536175985
 21
18.4974494489
 31
0.0
  0
LINE
  5
3F4
330
5A0
100
AcDbEntity
  8
spoon
100
AcDbLine
 10
-2.26536175985
 20
18.4974494489
 30
0.0
 11
-1.92564880421
 21
19.1534429464
 31
0.0
  0
LINE
  5
3F5
330
5A0
100
AcDbEntity
  8
spoon
100
AcDbLine
 10
1.92564880421
 20
19.1534429464
 30
0.0
 11
-1.92564880421
 21
19.1534429464
 31
0.0
  0
LINE
  5
3F6
330
5A0
100
AcDbEntity
  8
spoon
100
AcDbLine
 10
-2.98032620052
 20
15.4654503891
 30
0.0
 11
-6.67922911379
 21
14.2636039782
 31
0.0
  0
LINE
  5
3F7
330
5A0
100
AcDbEntity
  8
spoon
100
AcDbLine
 10
-6.67922911379
 20
14.2636039782
 30
0.0
 11
-6.6973498169
 21
14.298007044
 31
0.0
  0
LINE
  5
3F8
330
5A0
100
AcDbEntity
  8
spoon
100
AcDbLine
 10
-6.6973498169
 20
14.298007044
 30
0.0
 11
-6.75804493546
 21
14.3976153807
 31
0.0
  0
LINE
  5
3F9
330
5A0
100
AcDbEntity
  8
spoon
100
AcDbLine
 10
-6.75804493546
 20
14.3976153807
 30
0.0
 11
-6.87036224129
 21
14.5562915152
 31
0.0
  0
LINE
  5
3FA
330
5A0
100
AcDbEntity
  8
spoon
100
AcDbLine
 10
-6.87036224129
 20
14.5562915152
 30
0.0
 11
-7.04267519758
 21
14.7669640097
 31
0.0
  0
LINE
  5
3FB
330
5A0
100
AcDbEntity
  8
spoon
100
AcDbLine
 10
-7.04267519758
 20
14.7669640097
 30
0.0
 11
-7.28259755527
 21
15.0216934083
 31
0.0
  0
LINE
  5
3FC
330
5A0
100
AcDbEntity
  8
spoon
100
AcDbLine
 10
-7.28259755527
 20
15.0216934083
 30
0.0
 11
-7.59690398781
 21
15.3117454853
 31
0.0
  0
LINE
  5
3FD
330
5A0
100
AcDbEntity
  8
spoon
100
AcDbLine
 10
-7.59690398781
 20
15.3117454853
 30
0.0
 11
-7.99145736222
 21
15.6276712673
 31
0.0
  0
LINE
  5
3FE
330
5A0
100
AcDbEntity
  8
spoon
100
AcDbLine
 10
-7.99145736222
 20
15.6276712673
 30
0.0
 11
-8.47114319958
 21
15.9593932499
 31
0.0
  0
LINE
  5
3FF
330
5A0
100
AcDbEntity
  8
spoon
100
AcDbLine
 10
-8.47114319958
 20
15.9593932499
 30
0.0
 11
-9.03981182893
 21
16.2962971903
 31
0.0
  0
LINE
  5
400
330
5A0
100
AcDbEntity
  8
spoon
100
AcDbLine
 10
-9.03981182893
 20
16.2962971903
 30
0.0
 11
-9.70022868674
 21
16.6273288127
 31
0.0
  0
LINE
  5
401
330
5A0
100
AcDbEntity
  8
spoon
100
AcDbLine
 10
-11.5014982038
 20
10.7600204028
 30
0.0
 11
-11.5286178585
 21
10.7878853476
 31
0.0
  0
LINE
  5
402
330
5A0
100
AcDbEntity
  8
spoon
100
AcDbLine
 10
-11.5286178585
 20
10.7878853476
 30
0.0
 11
-11.6045951931
 21
10.8763905044
 31
0.0
  0
LINE
  5
403
330
5A0
100
AcDbEntity
  8
spoon
100
AcDbLine
 10
-11.6045951931
 20
10.8763905044
 30
0.0
 11
-11.7207972085
 21
11.0322442322
 31
0.0
  0
LINE
  5
404
330
5A0
100
AcDbEntity
  8
spoon
100
AcDbLine
 10
-11.7207972085
 20
11.0322442322
 30
0.0
 11
-11.8679110254
 21
11.2612249731
 31
0.0
  0
LINE
  5
405
330
5A0
100
AcDbEntity
  8
spoon
100
AcDbLine
 10
-11.8679110254
 20
11.2612249731
 30
0.0
 11
-12.036032994
 21
11.568120408
 31
0.0
  0
LINE
  5
406
330
5A0
100
AcDbEntity
  8
spoon
100
AcDbLine
 10
-12.036032994
 20
11.568120408
 30
0.0
 11
-12.2147628828
 21
11.9566746098
 31
0.0
  0
LINE
  5
407
330
5A0
100
AcDbEntity
  8
spoon
100
AcDbLine
 10
-12.2147628828
 20
11.9566746098
 30
0.0
 11
-12.3933024585
 21
12.4295436031
 31
0.0
  0
LINE
  5
408
330
5A0
100
AcDbEntity
  8
spoon
100
AcDbLine
 10
-12.3933024585
 20
12.4295436031
 30
0.0
 11
-12.560557736
 21
12.9882596746
 31
0.0
  0
LINE
  5
409
330
5A0
100
AcDbEntity
  8
spoon
100
AcDbLine
 10
-12.560557736
 20
12.9882596746
 30
0.0
 11
-12.7052441532
 21
13.6332047232
 31
0.0
  0
LINE
  5
40A
330
5A0
100
AcDbEntity
  8
spoon
100
AcDbLine
 10
-12.7052441532
 20
13.6332047232
 30
0.0
 11
-12.8159939023
 21
14.3635928762
 31
0.0
  0
LINE
  5
40B
330
5A0
100
AcDbEntity
  8
spoon
100
AcDbLine
 10
-9.70022868674
 20
16.6273288127
 30
0.0
 11
-12.8159939023
 21
14.3635928762
 31
0.0
  0
LINE
  5
40C
330
5A0
100
AcDbEntity
  8
spoon
100
AcDbLine
 10
-11.5014982038
 20
10.7600204028
 30
0.0
 11
-13.7875459253
 21
7.61354564959
 31
0.0
  0
LINE
  5
40D
330
5A0
100
AcDbEntity
  8
spoon
100
AcDbLine
 10
-13.7875459253
 20
7.61354564959
 30
0.0
 11
-13.8224274968
 21
7.63072723247
 31
0.0
  0
LINE
  5
40E
330
5A0
100
AcDbEntity
  8
spoon
100
AcDbLine
 10
-13.8224274968
 20
7.63072723247
 30
0.0
 11
-13.9300791905
 21
7.67563637408
 31
0.0
  0
LINE
  5
40F
330
5A0
100
AcDbEntity
  8
spoon
100
AcDbLine
 10
-13.9300791905
 20
7.67563637408
 30
0.0
 11
-14.1142132914
 21
7.73798960753
 31
0.0
  0
LINE
  5
410
330
5A0
100
AcDbEntity
  8
spoon
100
AcDbLine
 10
-14.1142132914
 20
7.73798960753
 30
0.0
 11
-14.3774475868
 21
7.80714422137
 31
0.0
  0
LINE
  5
411
330
5A0
100
AcDbEntity
  8
spoon
100
AcDbLine
 10
-14.3774475868
 20
7.80714422137
 30
0.0
 11
-14.7212750353
 21
7.87220181023
 31
0.0
  0
LINE
  5
412
330
5A0
100
AcDbEntity
  8
spoon
100
AcDbLine
 10
-14.7212750353
 20
7.87220181023
 30
0.0
 11
-15.1460426139
 21
7.92211418405
 31
0.0
  0
LINE
  5
413
330
5A0
100
AcDbEntity
  8
spoon
100
AcDbLine
 10
-15.1460426139
 20
7.92211418405
 30
0.0
 11
-15.6509395144
 21
7.94579085588
 31
0.0
  0
LINE
  5
414
330
5A0
100
AcDbEntity
  8
spoon
100
AcDbLine
 10
-15.6509395144
 20
7.94579085588
 30
0.0
 11
-16.2339947981
 21
7.93220731631
 31
0.0
  0
LINE
  5
415
330
5A0
100
AcDbEntity
  8
spoon
100
AcDbLine
 10
-16.2339947981
 20
7.93220731631
 30
0.0
 11
-16.892084551
 21
7.87051329576
 31
0.0
  0
LINE
  5
416
330
5A0
100
AcDbEntity
  8
spoon
100
AcDbLine
 10
-16.892084551
 20
7.87051329576
 30
0.0
 11
-17.620948518
 21
7.75014021458
 31
0.0
  0
LINE
  5
417
330
5A0
100
AcDbEntity
  8
spoon
100
AcDbLine
 10
-15.6294888148
 20
1.94462834221
 30
0.0
 11
-15.6678076799
 21
1.95123102298
 31
0.0
  0
LINE
  5
418
330
5A0
100
AcDbEntity
  8
spoon
100
AcDbLine
 10
-15.6678076799
 20
1.95123102298
 30
0.0
 11
-15.7812966608
 21
1.97817484217
 31
0.0
  0
LINE
  5
419
330
5A0
100
AcDbEntity
  8
spoon
100
AcDbLine
 10
-15.7812966608
 20
1.97817484217
 30
0.0
 11
-15.9669145887
 21
2.03596132561
 31
0.0
  0
LINE
  5
41A
330
5A0
100
AcDbEntity
  8
spoon
100
AcDbLine
 10
-15.9669145887
 20
2.03596132561
 30
0.0
 11
-16.2205236693
 21
2.13473930448
 31
0.0
  0
LINE
  5
41B
330
5A0
100
AcDbEntity
  8
spoon
100
AcDbLine
 10
-16.2205236693
 20
2.13473930448
 30
0.0
 11
-16.5369258095
 21
2.28420331304
 31
0.0
  0
LINE
  5
41C
330
5A0
100
AcDbEntity
  8
spoon
100
AcDbLine
 10
-16.5369258095
 20
2.28420331304
 30
0.0
 11
-16.9099077565
 21
2.49349547276
 31
0.0
  0
LINE
  5
41D
330
5A0
100
AcDbEntity
  8
spoon
100
AcDbLine
 10
-16.9099077565
 20
2.49349547276
 30
0.0
 11
-17.332294728
 21
2.77111159494
 31
0.0
  0
LINE
  5
41E
330
5A0
100
AcDbEntity
  8
spoon
100
AcDbLine
 10
-17.332294728
 20
2.77111159494
 30
0.0
 11
-17.7960121569
 21
3.1248122063
 31
0.0
  0
LINE
  5
41F
330
5A0
100
AcDbEntity
  8
spoon
100
AcDbLine
 10
-17.7960121569
 20
3.1248122063
 30
0.0
 11
-18.2921551154
 21
3.56153916882
 31
0.0
  0
LINE
  5
420
330
5A0
100
AcDbEntity
  8
spoon
100
AcDbLine
 10
-18.2921551154
 20
3.56153916882
 30
0.0
 11
-18.8110649294
 21
4.0873385279
 31
0.0
  0
LINE
  5
421
330
5A0
100
AcDbEntity
  8
spoon
100
AcDbLine
 10
-17.620948518
 20
7.75014021458
 30
0.0
 11
-18.8110649294
 21
4.0873385279
 31
0.0
  0
LINE
  5
422
330
5A0
100
AcDbEntity
  8
spoon
100
AcDbLine
 10
-15.6294888148
 20
1.94462834221
 30
0.0
 11
-15.6294888148
 21
-1.94462834221
 31
0.0
  0
LINE
  5
423
330
5A0
100
AcDbEntity
  8
spoon
100
AcDbLine
 10
-15.6294888148
 20
-1.94462834221
 30
0.0
 11
-15.6678076799
 21
-1.95123102298
 31
0.0
  0
LINE
  5
424
330
5A0
100
AcDbEntity
  8
spoon
100
AcDbLine
 10
-15.6678076799
 20
-1.95123102298
 30
0.0
 11
-15.7812966608
 21
-1.97817484217
 31
0.0
  0
LINE
  5
425
330
5A0
100
AcDbEntity
  8
spoon
100
AcDbLine
 10
-15.7812966608
 20
-1.97817484217
 30
0.0
 11
-15.9669145887
 21
-2.03596132561
 31
0.0
  0
LINE
  5
426
330
5A0
100
AcDbEntity
  8
spoon
100
AcDbLine
 10
-15.9669145887
 20
-2.03596132561
 30
0.0
 11
-16.2205236693
 21
-2.13473930448
 31
0.0
  0
LINE
  5
427
330
5A0
100
AcDbEntity
  8
spoon
100
AcDbLine
 10
-16.2205236693
 20
-2.13473930448
 30
0.0
 11
-16.5369258095
 21
-2.28420331304
 31
0.0
  0
LINE
  5
428
330
5A0
100
AcDbEntity
  8
spoon
100
AcDbLine
 10
-16.5369258095
 20
-2.28420331304
 30
0.0
 11
-16.9099077565
 21
-2.49349547276
 31
0.0
  0
LINE
  5
429
330
5A0
100
AcDbEntity
  8
spoon
100
AcDbLine
 10
-16.9099077565
 20
-2.49349547276
 30
0.0
 11
-17.332294728
 21
-2.77111159494
 31
0.0
  0
LINE
  5
42A
330
5A0
100
AcDbEntity
  8
spoon
100
AcDbLine
 10
-17.332294728
 20
-2.77111159494
 30
0.0
 11
-17.7960121569
 21
-3.1248122063
 31
0.0
  0
LINE
  5
42B
330
5A0
100
AcDbEntity
  8
spoon
100
AcDbLine
 10
-17.7960121569
 20
-3.1248122063
 30
0.0
 11
-18.2921551154
 21
-3.56153916882
 31
0.0
  0
LINE
  5
42C
330
5A0
100
AcDbEntity
  8
spoon
100
AcDbLine
 10
-18.2921551154
 20
-3.56153916882
 30
0.0
 11
-18.8110649294
 21
-4.0873385279
 31
0.0
  0
LINE
  5
42D
330
5A0
100
AcDbEntity
  8
spoon
100
AcDbLine
 10
-13.7875459253
 20
-7.61354564959
 30
0.0
 11
-13.8224274968
 21
-7.63072723247
 31
0.0
  0
LINE
  5
42E
330
5A0
100
AcDbEntity
  8
spoon
100
AcDbLine
 10
-13.8224274968
 20
-7.63072723247
 30
0.0
 11
-13.9300791905
 21
-7.67563637408
 31
0.0
  0
LINE
  5
42F
330
5A0
100
AcDbEntity
  8
spoon
100
AcDbLine
 10
-13.9300791905
 20
-7.67563637408
 30
0.0
 11
-14.1142132914
 21
-7.73798960753
 31
0.0
  0
LINE
  5
430
330
5A0
100
AcDbEntity
  8
spoon
100
AcDbLine
 10
-14.1142132914
 20
-7.73798960753
 30
0.0
 11
-14.3774475868
 21
-7.80714422137
 31
0.0
  0
LINE
  5
431
330
5A0
100
AcDbEntity
  8
spoon
100
AcDbLine
 10
-14.3774475868
 20
-7.80714422137
 30
0.0
 11
-14.7212750353
 21
-7.87220181023
 31
0.0
  0
LINE
  5
432
330
5A0
100
AcDbEntity
  8
spoon
100
AcDbLine
 10
-14.7212750353
 20
-7.87220181023
 30
0.0
 11
-15.1460426139
 21
-7.92211418405
 31
0.0
  0
LINE
  5
433
330
5A0
100
AcDbEntity
  8
spoon
100
AcDbLine
 10
-15.1460426139
 20
-7.92211418405
 30
0.0
 11
-15.6509395144
 21
-7.94579085588
 31
0.0
  0
LINE
  5
434
330
5A0
100
AcDbEntity
  8
spoon
100
AcDbLine
 10
-15.6509395144
 20
-7.94579085588
 30
0.0
 11
-16.2339947981
 21
-7.93220731631
 31
0.0
  0
LINE
  5
435
330
5A0
100
AcDbEntity
  8
spoon
100
AcDbLine
 10
-16.2339947981
 20
-7.93220731631
 30
0.0
 11
-16.892084551
 21
-7.87051329576
 31
0.0
  0
LINE
  5
436
330
5A0
100
AcDbEntity
  8
spoon
100
AcDbLine
 10
-16.892084551
 20
-7.87051329576
 30
0.0
 11
-17.620948518
 21
-7.75014021458
 31
0.0
  0
LINE
  5
437
330
5A0
100
AcDbEntity
  8
spoon
100
AcDbLine
 10
-18.8110649294
 20
-4.0873385279
 30
0.0
 11
-17.620948518
 21
-7.75014021458
 31
0.0
  0
LINE
  5
438
330
5A0
100
AcDbEntity
  8
spoon
100
AcDbLine
 10
-13.7875459253
 20
-7.61354564959
 30
0.0
 11
-11.5014982038
 21
-10.7600204028
 31
0.0
  0
LINE
  5
439
330
5A0
100
AcDbEntity
  8
spoon
100
AcDbLine
 10
-11.5014982038
 20
-10.7600204028
 30
0.0
 11
-11.5286178585
 21
-10.7878853476
 31
0.0
  0
LINE
  5
43A
330
5A0
100
AcDbEntity
  8
spoon
100
AcDbLine
 10
-11.5286178585
 20
-10.7878853476
 30
0.0
 11
-11.6045951931
 21
-10.8763905044
 31
0.0
  0
LINE
  5
43B
330
5A0
100
AcDbEntity
  8
spoon
100
AcDbLine
 10
-11.6045951931
 20
-10.8763905044
 30
0.0
 11
-11.7207972085
 21
-11.0322442322
 31
0.0
  0
LINE
  5
43C
330
5A0
100
AcDbEntity
  8
spoon
100
AcDbLine
 10
-11.7207972085
 20
-11.0322442322
 30
0.0
 11
-11.8679110254
 21
-11.2612249731
 31
0.0
  0
LINE
  5
43D
330
5A0
100
AcDbEntity
  8
spoon
100
AcDbLine
 10
-11.8679110254
 20
-11.2612249731
 30
0.0
 11
-12.036032994
 21
-11.568120408
 31
0.0
  0
LINE
  5
43E
330
5A0
100
AcDbEntity
  8
spoon
100
AcDbLine
 10
-12.036032994
 20
-11.568120408
 30
0.0
 11
-12.2147628828
 21
-11.9566746098
 31
0.0
  0
LINE
  5
43F
330
5A0
100
AcDbEntity
  8
spoon
100
AcDbLine
 10
-12.2147628828
 20
-11.9566746098
 30
0.0
 11
-12.3933024585
 21
-12.4295436031
 31
0.0
  0
LINE
  5
440
330
5A0
100
AcDbEntity
  8
spoon
100
AcDbLine
 10
-12.3933024585
 20
-12.4295436031
 30
0.0
 11
-12.560557736
 21
-12.9882596746
 31
0.0
  0
LINE
  5
441
330
5A0
100
AcDbEntity
  8
spoon
100
AcDbLine
 10
-12.560557736
 20
-12.9882596746
 30
0.0
 11
-12.7052441532
 21
-13.6332047232
 31
0.0
  0
LINE
  5
442
330
5A0
100
AcDbEntity
  8
spoon
100
AcDbLine
 10
-12.7052441532
 20
-13.6332047232
 30
0.0
 11
-12.8159939023
 21
-14.3635928762
 31
0.0
  0
LINE
  5
443
330
5A0
100
AcDbEntity
  8
spoon
100
AcDbLine
 10
-6.67922911379
 20
-14.2636039782
 30
0.0
 11
-6.6973498169
 21
-14.298007044
 31
0.0
  0
LINE
  5
444
330
5A0
100
AcDbEntity
  8
spoon
100
AcDbLine
 10
-6.6973498169
 20
-14.298007044
 30
0.0
 11
-6.75804493546
 21
-14.3976153807
 31
0.0
  0
LINE
  5
445
330
5A0
100
AcDbEntity
  8
spoon
100
AcDbLine
 10
-6.75804493546
 20
-14.3976153807
 30
0.0
 11
-6.87036224129
 21
-14.5562915152
 31
0.0
  0
LINE
  5
446
330
5A0
100
AcDbEntity
  8
spoon
100
AcDbLine
 10
-6.87036224129
 20
-14.5562915152
 30
0.0
 11
-7.04267519758
 21
-14.7669640097
 31
0.0
  0
LINE
  5
447
330
5A0
100
AcDbEntity
  8
spoon
100
AcDbLine
 10
-7.04267519758
 20
-14.7669640097
 30
0.0
 11
-7.28259755527
 21
-15.0216934083
 31
0.0
  0
LINE
  5
448
330
5A0
100
AcDbEntity
  8
spoon
100
AcDbLine
 10
-7.28259755527
 20
-15.0216934083
 30
0.0
 11
-7.59690398781
 21
-15.3117454853
 31
0.0
  0
LINE
  5
449
330
5A0
100
AcDbEntity
  8
spoon
100
AcDbLine
 10
-7.59690398781
 20
-15.3117454853
 30
0.0
 11
-7.99145736222
 21
-15.6276712673
 31
0.0
  0
LINE
  5
44A
330
5A0
100
AcDbEntity
  8
spoon
100
AcDbLine
 10
-7.99145736222
 20
-15.6276712673
 30
0.0
 11
-8.47114319958
 21
-15.9593932499
 31
0.0
  0
LINE
  5
44B
330
5A0
100
AcDbEntity
  8
spoon
100
AcDbLine
 10
-8.47114319958
 20
-15.9593932499
 30
0.0
 11
-9.03981182893
 21
-16.2962971903
 31
0.0
  0
LINE
  5
44C
330
5A0
100
AcDbEntity
  8
spoon
100
AcDbLine
 10
-9.03981182893
 20
-16.2962971903
 30
0.0
 11
-9.70022868674
 21
-16.6273288127
 31
0.0
  0
LINE
  5
44D
330
5A0
100
AcDbEntity
  8
spoon
100
AcDbLine
 10
-12.8159939023
 20
-14.3635928762
 30
0.0
 11
-9.70022868674
 21
-16.6273288127
 31
0.0
  0
LINE
  5
44E
330
5A0
100
AcDbEntity
  8
spoon
100
AcDbLine
 10
-6.67922911379
 20
-14.2636039782
 30
0.0
 11
-2.98032620052
 21
-15.4654503891
 31
0.0
  0
LINE
  5
44F
330
5A0
100
AcDbEntity
  8
spoon
100
AcDbLine
 10
-2.98032620052
 20
-15.4654503891
 30
0.0
 11
-2.98588785849
 21
-15.5039341361
 31
0.0
  0
LINE
  5
450
330
5A0
100
AcDbEntity
  8
spoon
100
AcDbLine
 10
-2.98588785849
 20
-15.5039341361
 30
0.0
 11
-2.99533278743
 21
-15.6201946689
 31
0.0
  0
LINE
  5
451
330
5A0
100
AcDbEntity
  8
spoon
100
AcDbLine
 10
-2.99533278743
 20
-15.6201946689
 30
0.0
 11
-2.99773366999
 21
-15.8145848142
 31
0.0
  0
LINE
  5
452
330
5A0
100
AcDbEntity
  8
spoon
100
AcDbLine
 10
-2.99773366999
 20
-15.8145848142
 30
0.0
 11
-2.98215974535
 21
-16.086305457
 31
0.0
  0
LINE
  5
453
330
5A0
100
AcDbEntity
  8
spoon
100
AcDbLine
 10
-2.98215974535
 20
-16.086305457
 30
0.0
 11
-2.93778466445
 21
-16.433408693
 31
0.0
  0
LINE
  5
454
330
5A0
100
AcDbEntity
  8
spoon
100
AcDbLine
 10
-2.93778466445
 20
-16.433408693
 30
0.0
 11
-2.85399375235
 21
-16.8528104383
 31
0.0
  0
LINE
  5
455
330
5A0
100
AcDbEntity
  8
spoon
100
AcDbLine
 10
-2.85399375235
 20
-16.8528104383
 30
0.0
 11
-2.72048988271
 21
-17.3403124196
 31
0.0
  0
LINE
  5
456
330
5A0
100
AcDbEntity
  8
spoon
100
AcDbLine
 10
-2.72048988271
 20
-17.3403124196
 30
0.0
 11
-2.58
 21
-17.74071351289908
 31
0.0
  0
LINE
  5
459
330
5A0
100
AcDbEntity
  8
spoon
100
AcDbLine
 10
2.98032620052
 20
-15.4654503891
 30
0.0
 11
2.98588785849
 21
-15.5039341361
 31
0.0
  0
LINE
  5
45A
330
5A0
100
AcDbEntity
  8
spoon
100
AcDbLine
 10
2.98588785849
 20
-15.5039341361
 30
0.0
 11
2.99533278743
 21
-15.6201946689
 31
0.0
  0
LINE
  5
45B
330
5A0
100
AcDbEntity
  8
spoon
100
AcDbLine
 10
2.99533278743
 20
-15.6201946689
 30
0.0
 11
2.99773366999
 21
-15.8145848142
 31
0.0
  0
LINE
  5
45C
330
5A0
100
AcDbEntity
  8
spoon
100
AcDbLine
 10
2.99773366999
 20
-15.8145848142
 30
0.0
 11
2.98215974535
 21
-16.086305457
 31
0.0
  0
LINE
  5
45D
330
5A0
100
AcDbEntity
  8
spoon
100
AcDbLine
 10
2.98215974535
 20
-16.086305457
 30
0.0
 11
2.93778466445
 21
-16.433408693
 31
0.0
  0
LINE
  5
45E
330
5A0
100
AcDbEntity
  8
spoon
100
AcDbLine
 10
2.93778466445
 20
-16.433408693
 30
0.0
 11
2.85399375235
 21
-16.8528104383
 31
0.0
  0
LINE
  5
45F
330
5A0
100
AcDbEntity
  8
spoon
100
AcDbLine
 10
2.85399375235
 20
-16.8528104383
 30
0.0
 11
2.72048988271
 21
-17.3403124196
 31
0.0
  0
LINE
  5
460
330
5A0
100
AcDbEntity
  8
spoon
100
AcDbLine
 10
2.72048988271
 20
-17.3403124196
 30
0.0
 11
2.52739717758
 21
-17.8906334018
 31
0.0
  0
LINE
  5
461
330
5A0
100
AcDbEntity
  8
spoon
100
AcDbLine
 10
2.52739717758
 20
-17.8906334018
 30
0.0
 11
2.26536175985
 21
-18.4974494489
 31
0.0
  0
LINE
  5
462
330
5A0
100
AcDbEntity
  8
spoon
100
AcDbLine
 10
2.26536175985
 20
-18.4974494489
 30
0.0
 11
1.92564880421
 21
-19.1534429464
 31
0.0
  0
LINE
  5
464
330
5A0
100
AcDbEntity
  8
spoon
100
AcDbLine
 10
2.98032620052
 20
-15.4654503891
 30
0.0
 11
6.67922911379
 21
-14.2636039782
 31
0.0
  0
LINE
  5
465
330
5A0
100
AcDbEntity
  8
spoon
100
AcDbLine
 10
6.67922911379
 20
-14.2636039782
 30
0.0
 11
6.6973498169
 21
-14.298007044
 31
0.0
  0
LINE
  5
466
330
5A0
100
AcDbEntity
  8
spoon
100
AcDbLine
 10
6.6973498169
 20
-14.298007044
 30
0.0
 11
6.75804493546
 21
-14.3976153807
 31
0.0
  0
LINE
  5
467
330
5A0
100
AcDbEntity
  8
spoon
100
AcDbLine
 10
6.75804493546
 20
-14.3976153807
 30
0.0
 11
6.87036224129
 21
-14.5562915152
 31
0.0
  0
LINE
  5
468
330
5A0
100
AcDbEntity
  8
spoon
100
AcDbLine
 10
6.87036224129
 20
-14.5562915152
 30
0.0
 11
7.04267519758
 21
-14.7669640097
 31
0.0
  0
LINE
  5
469
330
5A0
100
AcDbEntity
  8
spoon
100
AcDbLine
 10
7.04267519758
 20
-14.7669640097
 30
0.0
 11
7.28259755527
 21
-15.0216934083
 31
0.0
  0
LINE
  5
46A
330
5A0
100
AcDbEntity
  8
spoon
100
AcDbLine
 10
7.28259755527
 20
-15.0216934083
 30
0.0
 11
7.59690398781
 21
-15.3117454853
 31
0.0
  0
LINE
  5
46B
330
5A0
100
AcDbEntity
  8
spoon
100
AcDbLine
 10
7.59690398781
 20
-15.3117454853
 30
0.0
 11
7.99145736222
 21
-15.6276712673
 31
0.0
  0
LINE
  5
46C
330
5A0
100
AcDbEntity
  8
spoon
100
AcDbLine
 10
7.99145736222
 20
-15.6276712673
 30
0.0
 11
8.47114319958
 21
-15.9593932499
 31
0.0
  0
LINE
  5
46D
330
5A0
100
AcDbEntity
  8
spoon
100
AcDbLine
 10
8.47114319958
 20
-15.9593932499
 30
0.0
 11
9.03981182893
 21
-16.2962971903
 31
0.0
  0
LINE
  5
46E
330
5A0
100
AcDbEntity
  8
spoon
100
AcDbLine
 10
9.03981182893
 20
-16.2962971903
 30
0.0
 11
9.70022868674
 21
-16.6273288127
 31
0.0
  0
LINE
  5
46F
330
5A0
100
AcDbEntity
  8
spoon
100
AcDbLine
 10
11.5014982038
 20
-10.7600204028
 30
0.0
 11
11.5286178585
 21
-10.7878853476
 31
0.0
  0
LINE
  5
470
330
5A0
100
AcDbEntity
  8
spoon
100
AcDbLine
 10
11.5286178585
 20
-10.7878853476
 30
0.0
 11
11.6045951931
 21
-10.8763905044
 31
0.0
  0
LINE
  5
471
330
5A0
100
AcDbEntity
  8
spoon
100
AcDbLine
 10
11.6045951931
 20
-10.8763905044
 30
0.0
 11
11.7207972085
 21
-11.0322442322
 31
0.0
  0
LINE
  5
472
330
5A0
100
AcDbEntity
  8
spoon
100
AcDbLine
 10
11.7207972085
 20
-11.0322442322
 30
0.0
 11
11.8679110254
 21
-11.2612249731
 31
0.0
  0
LINE
  5
473
330
5A0
100
AcDbEntity
  8
spoon
100
AcDbLine
 10
11.8679110254
 20
-11.2612249731
 30
0.0
 11
12.036032994
 21
-11.568120408
 31
0.0
  0
LINE
  5
474
330
5A0
100
AcDbEntity
  8
spoon
100
AcDbLine
 10
12.036032994
 20
-11.568120408
 30
0.0
 11
12.2147628828
 21
-11.9566746098
 31
0.0
  0
LINE
  5
475
330
5A0
100
AcDbEntity
  8
spoon
100
AcDbLine
 10
12.2147628828
 20
-11.9566746098
 30
0.0
 11
12.3933024585
 21
-12.4295436031
 31
0.0
  0
LINE
  5
476
330
5A0
100
AcDbEntity
  8
spoon
100
AcDbLine
 10
12.3933024585
 20
-12.4295436031
 30
0.0
 11
12.560557736
 21
-12.9882596746
 31
0.0
  0
LINE
  5
477
330
5A0
100
AcDbEntity
  8
spoon
100
AcDbLine
 10
12.560557736
 20
-12.9882596746
 30
0.0
 11
12.7052441532
 21
-13.6332047232
 31
0.0
  0
LINE
  5
478
330
5A0
100
AcDbEntity
  8
spoon
100
AcDbLine
 10
12.7052441532
 20
-13.6332047232
 30
0.0
 11
12.8159939023
 21
-14.3635928762
 31
0.0
  0
LINE
  5
479
330
5A0
100
AcDbEntity
  8
spoon
100
AcDbLine
 10
9.70022868674
 20
-16.6273288127
 30
0.0
 11
12.8159939023
 21
-14.3635928762
 31
0.0
  0
LINE
  5
47A
330
5A0
100
AcDbEntity
  8
spoon
100
AcDbLine
 10
11.5014982038
 20
-10.7600204028
 30
0.0
 11
13.7875459253
 21
-7.61354564959
 31
0.0
  0
LINE
  5
47B
330
5A0
100
AcDbEntity
  8
spoon
100
AcDbLine
 10
13.7875459253
 20
-7.61354564959
 30
0.0
 11
13.8224274968
 21
-7.63072723247
 31
0.0
  0
LINE
  5
47C
330
5A0
100
AcDbEntity
  8
spoon
100
AcDbLine
 10
13.8224274968
 20
-7.63072723247
 30
0.0
 11
13.9300791905
 21
-7.67563637408
 31
0.0
  0
LINE
  5
47D
330
5A0
100
AcDbEntity
  8
spoon
100
AcDbLine
 10
13.9300791905
 20
-7.67563637408
 30
0.0
 11
14.1142132914
 21
-7.73798960753
 31
0.0
  0
LINE
  5
47E
330
5A0
100
AcDbEntity
  8
spoon
100
AcDbLine
 10
14.1142132914
 20
-7.73798960753
 30
0.0
 11
14.3774475868
 21
-7.80714422137
 31
0.0
  0
LINE
  5
47F
330
5A0
100
AcDbEntity
  8
spoon
100
AcDbLine
 10
14.3774475868
 20
-7.80714422137
 30
0.0
 11
14.7212750353
 21
-7.87220181023
 31
0.0
  0
LINE
  5
480
330
5A0
100
AcDbEntity
  8
spoon
100
AcDbLine
 10
14.7212750353
 20
-7.87220181023
 30
0.0
 11
15.1460426139
 21
-7.92211418405
 31
0.0
  0
LINE
  5
481
330
5A0
100
AcDbEntity
  8
spoon
100
AcDbLine
 10
15.1460426139
 20
-7.92211418405
 30
0.0
 11
15.6509395144
 21
-7.94579085588
 31
0.0
  0
LINE
  5
482
330
5A0
100
AcDbEntity
  8
spoon
100
AcDbLine
 10
15.6509395144
 20
-7.94579085588
 30
0.0
 11
16.2339947981
 21
-7.93220731631
 31
0.0
  0
LINE
  5
483
330
5A0
100
AcDbEntity
  8
spoon
100
AcDbLine
 10
16.2339947981
 20
-7.93220731631
 30
0.0
 11
16.892084551
 21
-7.87051329576
 31
0.0
  0
LINE
  5
484
330
5A0
100
AcDbEntity
  8
spoon
100
AcDbLine
 10
16.892084551
 20
-7.87051329576
 30
0.0
 11
17.620948518
 21
-7.75014021458
 31
0.0
  0
LINE
  5
485
330
5A0
100
AcDbEntity
  8
spoon
100
AcDbLine
 10
15.6294888148
 20
-1.94462834221
 30
0.0
 11
15.6678076799
 21
-1.95123102298
 31
0.0
  0
LINE
  5
486
330
5A0
100
AcDbEntity
  8
spoon
100
AcDbLine
 10
15.6678076799
 20
-1.95123102298
 30
0.0
 11
15.7812966608
 21
-1.97817484217
 31
0.0
  0
LINE
  5
487
330
5A0
100
AcDbEntity
  8
spoon
100
AcDbLine
 10
15.7812966608
 20
-1.97817484217
 30
0.0
 11
15.9669145887
 21
-2.03596132561
 31
0.0
  0
LINE
  5
488
330
5A0
100
AcDbEntity
  8
spoon
100
AcDbLine
 10
15.9669145887
 20
-2.03596132561
 30
0.0
 11
16.2205236693
 21
-2.13473930448
 31
0.0
  0
LINE
  5
489
330
5A0
100
AcDbEntity
  8
spoon
100
AcDbLine
 10
16.2205236693
 20
-2.13473930448
 30
0.0
 11
16.5369258095
 21
-2.28420331304
 31
0.0
  0
LINE
  5
48A
330
5A0
100
AcDbEntity
  8
spoon
100
AcDbLine
 10
16.5369258095
 20
-2.28420331304
 30
0.0
 11
16.9099077565
 21
-2.49349547276
 31
0.0
  0
LINE
  5
48B
330
5A0
100
AcDbEntity
  8
spoon
100
AcDbLine
 10
16.9099077565
 20
-2.49349547276
 30
0.0
 11
17.332294728
 21
-2.77111159494
 31
0.0
  0
LINE
  5
48C
330
5A0
100
AcDbEntity
  8
spoon
100
AcDbLine
 10
17.332294728
 20
-2.77111159494
 30
0.0
 11
17.7960121569
 21
-3.1248122063
 31
0.0
  0
LINE
  5
48D
330
5A0
100
AcDbEntity
  8
spoon
100
AcDbLine
 10
17.7960121569
 20
-3.1248122063
 30
0.0
 11
18.2921551154
 21
-3.56153916882
 31
0.0
  0
LINE
  5
48E
330
5A0
100
AcDbEntity
  8
spoon
100
AcDbLine
 10
18.2921551154
 20
-3.56153916882
 30
0.0
 11
18.8110649294
 21
-4.0873385279
 31
0.0
  0
LINE
  5
48F
330
5A0
100
AcDbEntity
  8
spoon
100
AcDbLine
 10
17.620948518
 20
-7.75014021458
 30
0.0
 11
18.8110649294
 21
-4.0873385279
 31
0.0
  0
LINE
  5
491
330
5A0
100
AcDbEntity
  8
spoon2
100
AcDbLine
 10
15.46545038916383
 20
2.980326200535281
 30
0.0
 11
14.26360397819168
 21
6.679229113797422
 31
0.0
  0
LINE
  5
492
330
5A0
100
AcDbEntity
  8
spoon2
100
AcDbLine
 10
14.26360397819168
 20
6.679229113797422
 30
0.0
 11
14.29800704397572
 21
6.697349816889793
 31
0.0
  0
LINE
  5
493
330
5A0
100
AcDbEntity
  8
spoon2
100
AcDbLine
 10
14.29800704397572
 20
6.697349816889793
 30
0.0
 11
14.39761538076528
 21
6.75804493547672
 31
0.0
  0
LINE
  5
494
330
5A0
100
AcDbEntity
  8
spoon2
100
AcDbLine
 10
14.39761538076528
 20
6.75804493547672
 30
0.0
 11
14.55629151520765
 21
6.870362241287893
 31
0.0
  0
LINE
  5
495
330
5A0
100
AcDbEntity
  8
spoon2
100
AcDbLine
 10
14.55629151520765
 20
6.870362241287893
 30
0.0
 11
14.76696400976306
 21
7.042675197591877
 31
0.0
  0
LINE
  5
496
330
5A0
100
AcDbEntity
  8
spoon2
100
AcDbLine
 10
14.76696400976306
 20
7.042675197591877
 30
0.0
 11
15.02169340827756
 21
7.28259755526287
 31
0.0
  0
LINE
  5
497
330
5A0
100
AcDbEntity
  8
spoon2
100
AcDbLine
 10
15.02169340827756
 20
7.28259755526287
 30
0.0
 11
15.31174548528946
 21
7.596903987792095
 31
0.0
  0
LINE
  5
498
330
5A0
100
AcDbEntity
  8
spoon2
100
AcDbLine
 10
15.31174548528946
 20
7.596903987792095
 30
0.0
 11
15.62767126726661
 21
7.991457362216048
 31
0.0
  0
LINE
  5
499
330
5A0
100
AcDbEntity
  8
spoon2
100
AcDbLine
 10
15.62767126726661
 20
7.991457362216048
 30
0.0
 11
15.95939324991054
 21
8.47114319958552
 31
0.0
  0
LINE
  5
49A
330
5A0
100
AcDbEntity
  8
spoon2
100
AcDbLine
 10
15.95939324991054
 20
8.47114319958552
 30
0.0
 11
16.29629719028549
 21
9.039811828947919
 31
0.0
  0
LINE
  5
49B
330
5A0
100
AcDbEntity
  8
spoon2
100
AcDbLine
 10
16.29629719028549
 20
9.039811828947919
 30
0.0
 11
16.62732881267252
 21
9.700228686738704
 31
0.0
  0
LINE
  5
49C
330
5A0
100
AcDbEntity
  8
spoon2
100
AcDbLine
 10
10.7600204028025
 20
11.50149820379595
 30
0.0
 11
10.78788534757601
 21
11.52861785853824
 31
0.0
  0
LINE
  5
49D
330
5A0
100
AcDbEntity
  8
spoon2
100
AcDbLine
 10
10.78788534757601
 20
11.52861785853824
 30
0.0
 11
10.87639050439932
 21
11.6045951931342
 31
0.0
  0
LINE
  5
49E
330
5A0
100
AcDbEntity
  8
spoon2
100
AcDbLine
 10
10.87639050439932
 20
11.6045951931342
 30
0.0
 11
11.03224423214214
 21
11.72079720854095
 31
0.0
  0
LINE
  5
49F
330
5A0
100
AcDbEntity
  8
spoon2
100
AcDbLine
 10
11.03224423214214
 20
11.72079720854095
 30
0.0
 11
11.26122497317868
 21
11.86791102544627
 31
0.0
  0
LINE
  5
4A0
330
5A0
100
AcDbEntity
  8
spoon2
100
AcDbLine
 10
11.26122497317868
 20
11.86791102544627
 30
0.0
 11
11.56812040798494
 21
12.0360329939851
 31
0.0
  0
LINE
  5
4A1
330
5A0
100
AcDbEntity
  8
spoon2
100
AcDbLine
 10
11.56812040798494
 20
12.0360329939851
 30
0.0
 11
11.95667460978341
 21
12.21476288279727
 31
0.0
  0
LINE
  5
4A2
330
5A0
100
AcDbEntity
  8
spoon2
100
AcDbLine
 10
11.95667460978341
 20
12.21476288279727
 30
0.0
 11
12.42954360309544
 21
12.39330245848711
 31
0.0
  0
LINE
  5
4A3
330
5A0
100
AcDbEntity
  8
spoon2
100
AcDbLine
 10
12.42954360309544
 20
12.39330245848711
 30
0.0
 11
12.98825967458955
 21
12.56055773598811
 31
0.0
  0
LINE
  5
4A4
330
5A0
100
AcDbEntity
  8
spoon2
100
AcDbLine
 10
12.98825967458955
 20
12.56055773598811
 30
0.0
 11
13.63320472319343
 21
12.7052441531977
 31
0.0
  0
LINE
  5
4A5
330
5A0
100
AcDbEntity
  8
spoon2
100
AcDbLine
 10
13.63320472319343
 20
12.7052441531977
 30
0.0
 11
14.3635928762514
 21
12.81599390234547
 31
0.0
  0
LINE
  5
4A6
330
5A0
100
AcDbEntity
  8
spoon2
100
AcDbLine
 10
16.62732881267252
 20
9.700228686738704
 30
0.0
 11
14.3635928762514
 21
12.81599390234547
 31
0.0
  0
LINE
  5
4A7
330
5A0
100
AcDbEntity
  8
spoon2
100
AcDbLine
 10
10.7600204028025
 20
11.50149820379595
 30
0.0
 11
7.613545649594627
 21
13.78754592529888
 31
0.0
  0
LINE
  5
4A8
330
5A0
100
AcDbEntity
  8
spoon2
100
AcDbLine
 10
7.613545649594627
 20
13.78754592529888
 30
0.0
 11
7.630727232426217
 21
13.822427496811
 31
0.0
  0
LINE
  5
4A9
330
5A0
100
AcDbEntity
  8
spoon2
100
AcDbLine
 10
7.630727232426217
 20
13.822427496811
 30
0.0
 11
7.675636374047263
 21
13.93007919049008
 31
0.0
  0
LINE
  5
4AA
330
5A0
100
AcDbEntity
  8
spoon2
100
AcDbLine
 10
7.675636374047263
 20
13.93007919049008
 30
0.0
 11
7.73798960747318
 21
14.11421329144238
 31
0.0
  0
LINE
  5
4AB
330
5A0
100
AcDbEntity
  8
spoon2
100
AcDbLine
 10
7.73798960747318
 20
14.11421329144238
 30
0.0
 11
7.807144221350308
 21
14.37744758671088
 31
0.0
  0
LINE
  5
4AC
330
5A0
100
AcDbEntity
  8
spoon2
100
AcDbLine
 10
7.807144221350308
 20
14.37744758671088
 30
0.0
 11
7.872201810239519
 21
14.72127503531893
 31
0.0
  0
LINE
  5
4AD
330
5A0
100
AcDbEntity
  8
spoon2
100
AcDbLine
 10
7.872201810239519
 20
14.72127503531893
 30
0.0
 11
7.922114184047472
 21
15.14604261391663
 31
0.0
  0
LINE
  5
4AE
330
5A0
100
AcDbEntity
  8
spoon2
100
AcDbLine
 10
7.922114184047472
 20
15.14604261391663
 30
0.0
 11
7.945790855890854
 21
15.65093951440831
 31
0.0
  0
LINE
  5
4AF
330
5A0
100
AcDbEntity
  8
spoon2
100
AcDbLine
 10
7.945790855890854
 20
15.65093951440831
 30
0.0
 11
7.932207316318078
 21
16.23399479811361
 31
0.0
  0
LINE
  5
4B0
330
5A0
100
AcDbEntity
  8
spoon2
100
AcDbLine
 10
7.932207316318078
 20
16.23399479811361
 30
0.0
 11
7.870513295760162
 21
16.89208455100696
 31
0.0
  0
LINE
  5
4B1
330
5A0
100
AcDbEntity
  8
spoon2
100
AcDbLine
 10
7.870513295760162
 20
16.89208455100696
 30
0.0
 11
7.750140214552641
 21
17.62094851793706
 31
0.0
  0
LINE
  5
4B2
330
5A0
100
AcDbEntity
  8
spoon2
100
AcDbLine
 10
1.944628342200376
 20
15.62948881480562
 30
0.0
 11
1.951231022982195
 21
15.66780767992625
 31
0.0
  0
LINE
  5
4B3
330
5A0
100
AcDbEntity
  8
spoon2
100
AcDbLine
 10
1.951231022982195
 20
15.66780767992625
 30
0.0
 11
1.978174842174265
 21
15.78129666073275
 31
0.0
  0
LINE
  5
4B4
330
5A0
100
AcDbEntity
  8
spoon2
100
AcDbLine
 10
1.978174842174265
 20
15.78129666073275
 30
0.0
 11
2.035961325614377
 21
15.96691458869338
 31
0.0
  0
LINE
  5
4B5
330
5A0
100
AcDbEntity
  8
spoon2
100
AcDbLine
 10
2.035961325614377
 20
15.96691458869338
 30
0.0
 11
2.134739304488201
 21
16.22052366923636
 31
0.0
  0
LINE
  5
4B6
330
5A0
100
AcDbEntity
  8
spoon2
100
AcDbLine
 10
2.134739304488201
 20
16.22052366923636
 30
0.0
 11
2.284203313039861
 21
16.53692580952355
 31
0.0
  0
LINE
  5
4B7
330
5A0
100
AcDbEntity
  8
spoon2
100
AcDbLine
 10
2.284203313039861
 20
16.53692580952355
 30
0.0
 11
2.493495472773762
 21
16.90990775651556
 31
0.0
  0
LINE
  5
4B8
330
5A0
100
AcDbEntity
  8
spoon2
100
AcDbLine
 10
2.493495472773762
 20
16.90990775651556
 30
0.0
 11
2.771111594933438
 21
17.33229472803298
 31
0.0
  0
LINE
  5
4B9
330
5A0
100
AcDbEntity
  8
spoon2
100
AcDbLine
 10
2.771111594933438
 20
17.33229472803298
 30
0.0
 11
3.124812206298013
 21
17.79601215688827
 31
0.0
  0
LINE
  5
4BA
330
5A0
100
AcDbEntity
  8
spoon2
100
AcDbLine
 10
3.124812206298013
 20
17.79601215688827
 30
0.0
 11
3.56153916879848
 21
18.29215511540826
 31
0.0
  0
LINE
  5
4BB
330
5A0
100
AcDbEntity
  8
spoon2
100
AcDbLine
 10
3.56153916879848
 20
18.29215511540826
 30
0.0
 11
4.087338527892741
 21
18.81106492942653
 31
0.0
  0
LINE
  5
4BC
330
5A0
100
AcDbEntity
  8
spoon2
100
AcDbLine
 10
7.750140214552641
 20
17.62094851793706
 30
0.0
 11
4.087338527892741
 21
18.81106492942653
 31
0.0
  0
LINE
  5
4BD
330
5A0
100
AcDbEntity
  8
spoon2
100
AcDbLine
 10
1.944628342200376
 20
15.62948881480562
 30
0.0
 11
-1.944628342204821
 21
15.62948881473457
 31
0.0
  0
LINE
  5
4BE
330
5A0
100
AcDbEntity
  8
spoon2
100
AcDbLine
 10
-1.944628342204821
 20
15.62948881473457
 30
0.0
 11
-1.951231022981273
 21
15.66780767992
 31
0.0
  0
LINE
  5
4BF
330
5A0
100
AcDbEntity
  8
spoon2
100
AcDbLine
 10
-1.951231022981273
 20
15.66780767992
 30
0.0
 11
-1.978174842177229
 21
15.78129666078052
 31
0.0
  0
LINE
  5
4C0
330
5A0
100
AcDbEntity
  8
spoon2
100
AcDbLine
 10
-1.978174842177229
 20
15.78129666078052
 30
0.0
 11
-2.035961325610395
 21
15.96691458868418
 31
0.0
  0
LINE
  5
4C1
330
5A0
100
AcDbEntity
  8
spoon2
100
AcDbLine
 10
-2.035961325610395
 20
15.96691458868418
 30
0.0
 11
-2.134739304471241
 21
16.22052366924816
 31
0.0
  0
LINE
  5
4C2
330
5A0
100
AcDbEntity
  8
spoon2
100
AcDbLine
 10
-2.134739304471241
 20
16.22052366924816
 30
0.0
 11
-2.284203313048848
 21
16.53692580954823
 31
0.0
  0
LINE
  5
4C3
330
5A0
100
AcDbEntity
  8
spoon2
100
AcDbLine
 10
-2.284203313048848
 20
16.53692580954823
 30
0.0
 11
-2.493495472776082
 21
16.90990775654828
 31
0.0
  0
LINE
  5
4C4
330
5A0
100
AcDbEntity
  8
spoon2
100
AcDbLine
 10
-2.493495472776082
 20
16.90990775654828
 30
0.0
 11
-2.771111594960983
 21
17.33229472803686
 31
0.0
  0
LINE
  5
4C5
330
5A0
100
AcDbEntity
  8
spoon2
100
AcDbLine
 10
-2.771111594960983
 20
17.33229472803686
 30
0.0
 11
-3.124812206284837
 21
17.79601215683712
 31
0.0
  0
LINE
  5
4C6
330
5A0
100
AcDbEntity
  8
spoon2
100
AcDbLine
 10
-3.124812206284837
 20
17.79601215683712
 30
0.0
 11
-3.561539168830406
 21
18.29215511541733
 31
0.0
  0
LINE
  5
4C7
330
5A0
100
AcDbEntity
  8
spoon2
100
AcDbLine
 10
-3.561539168830406
 20
18.29215511541733
 30
0.0
 11
-4.087338527888673
 21
18.81106492935985
 31
0.0
  0
LINE
  5
4C8
330
5A0
100
AcDbEntity
  8
spoon2
100
AcDbLine
 10
-7.613545649584265
 20
13.78754592525138
 30
0.0
 11
-7.630727232468265
 21
13.82242749677755
 31
0.0
  0
LINE
  5
4C9
330
5A0
100
AcDbEntity
  8
spoon2
100
AcDbLine
 10
-7.630727232468265
 20
13.82242749677755
 30
0.0
 11
-7.67563637409288
 21
13.93007919053181
 31
0.0
  0
LINE
  5
4CA
330
5A0
100
AcDbEntity
  8
spoon2
100
AcDbLine
 10
-7.67563637409288
 20
13.93007919053181
 30
0.0
 11
-7.737989607533143
 21
14.1142132914104
 31
0.0
  0
LINE
  5
4CB
330
5A0
100
AcDbEntity
  8
spoon2
100
AcDbLine
 10
-7.737989607533143
 20
14.1142132914104
 30
0.0
 11
-7.807144221367669
 21
14.37744758674013
 31
0.0
  0
LINE
  5
4CC
330
5A0
100
AcDbEntity
  8
spoon2
100
AcDbLine
 10
-7.807144221367669
 20
14.37744758674013
 30
0.0
 11
-7.872201810243137
 21
14.72127503528992
 31
0.0
  0
LINE
  5
4CD
330
5A0
100
AcDbEntity
  8
spoon2
100
AcDbLine
 10
-7.872201810243137
 20
14.72127503528992
 30
0.0
 11
-7.922114184052329
 21
15.14604261391612
 31
0.0
  0
LINE
  5
4CE
330
5A0
100
AcDbEntity
  8
spoon2
100
AcDbLine
 10
-7.922114184052329
 20
15.14604261391612
 30
0.0
 11
-7.945790855893744
 21
15.65093951447187
 31
0.0
  0
LINE
  5
4CF
330
5A0
100
AcDbEntity
  8
spoon2
100
AcDbLine
 10
-7.945790855893744
 20
15.65093951447187
 30
0.0
 11
-7.932207316291715
 21
16.23399479802212
 31
0.0
  0
LINE
  5
4D0
330
5A0
100
AcDbEntity
  8
spoon2
100
AcDbLine
 10
-7.932207316291715
 20
16.23399479802212
 30
0.0
 11
-7.870513295772803
 21
16.89208455101576
 31
0.0
  0
LINE
  5
4D1
330
5A0
100
AcDbEntity
  8
spoon2
100
AcDbLine
 10
-7.870513295772803
 20
16.89208455101576
 30
0.0
 11
-7.750140214568454
 21
17.62094851796248
 31
0.0
  0
LINE
  5
4D2
330
5A0
100
AcDbEntity
  8
spoon2
100
AcDbLine
 10
-4.087338527888673
 20
18.81106492935985
 30
0.0
 11
-7.750140214568454
 21
17.62094851796248
 31
0.0
  0
LINE
  5
4D3
330
5A0
100
AcDbEntity
  8
spoon2
100
AcDbLine
 10
-7.613545649584265
 20
13.78754592525138
 30
0.0
 11
-10.76002040279619
 21
11.50149820383556
 31
0.0
  0
LINE
  5
4D4
330
5A0
100
AcDbEntity
  8
spoon2
100
AcDbLine
 10
-10.76002040279619
 20
11.50149820383556
 30
0.0
 11
-10.78788534755961
 21
11.52861785853416
 31
0.0
  0
LINE
  5
4D5
330
5A0
100
AcDbEntity
  8
spoon2
100
AcDbLine
 10
-10.78788534755961
 20
11.52861785853416
 30
0.0
 11
-10.87639050439512
 21
11.60459519311938
 31
0.0
  0
LINE
  5
4D6
330
5A0
100
AcDbEntity
  8
spoon2
100
AcDbLine
 10
-10.87639050439512
 20
11.60459519311938
 30
0.0
 11
-11.03224423215969
 21
11.72079720855225
 31
0.0
  0
LINE
  5
4D7
330
5A0
100
AcDbEntity
  8
spoon2
100
AcDbLine
 10
-11.03224423215969
 20
11.72079720855225
 30
0.0
 11
-11.26122497312923
 21
11.86791102540604
 31
0.0
  0
LINE
  5
4D8
330
5A0
100
AcDbEntity
  8
spoon2
100
AcDbLine
 10
-11.26122497312923
 20
11.86791102540604
 30
0.0
 11
-11.56812040794951
 21
12.03603299397979
 31
0.0
  0
LINE
  5
4D9
330
5A0
100
AcDbEntity
  8
spoon2
100
AcDbLine
 10
-11.56812040794951
 20
12.03603299397979
 30
0.0
 11
-11.95667460977691
 21
12.21476288277937
 31
0.0
  0
LINE
  5
4DA
330
5A0
100
AcDbEntity
  8
spoon2
100
AcDbLine
 10
-11.95667460977691
 20
12.21476288277937
 30
0.0
 11
-12.42954360313498
 21
12.39330245853544
 31
0.0
  0
LINE
  5
4DB
330
5A0
100
AcDbEntity
  8
spoon2
100
AcDbLine
 10
-12.42954360313498
 20
12.39330245853544
 30
0.0
 11
-12.98825967456186
 21
12.5605577359803
 31
0.0
  0
LINE
  5
4DC
330
5A0
100
AcDbEntity
  8
spoon2
100
AcDbLine
 10
-12.98825967456186
 20
12.5605577359803
 30
0.0
 11
-13.63320472317329
 21
12.70524415322617
 31
0.0
  0
LINE
  5
4DD
330
5A0
100
AcDbEntity
  8
spoon2
100
AcDbLine
 10
-13.63320472317329
 20
12.70524415322617
 30
0.0
 11
-14.36359287626177
 21
12.81599390237446
 31
0.0
  0
LINE
  5
4DE
330
5A0
100
AcDbEntity
  8
spoon2
100
AcDbLine
 10
-14.26360397816736
 20
6.679229113804612
 30
0.0
 11
-14.29800704397999
 21
6.697349816948976
 31
0.0
  0
LINE
  5
4DF
330
5A0
100
AcDbEntity
  8
spoon2
100
AcDbLine
 10
-14.29800704397999
 20
6.697349816948976
 30
0.0
 11
-14.39761538068307
 21
6.75804493547063
 31
0.0
  0
LINE
  5
4E0
330
5A0
100
AcDbEntity
  8
spoon2
100
AcDbLine
 10
-14.39761538068307
 20
6.75804493547063
 30
0.0
 11
-14.55629151516277
 21
6.870362241344487
 31
0.0
  0
LINE
  5
4E1
330
5A0
100
AcDbEntity
  8
spoon2
100
AcDbLine
 10
-14.55629151516277
 20
6.870362241344487
 30
0.0
 11
-14.76696400968522
 21
7.042675197554061
 31
0.0
  0
LINE
  5
4E2
330
5A0
100
AcDbEntity
  8
spoon2
100
AcDbLine
 10
-14.76696400968522
 20
7.042675197554061
 30
0.0
 11
-15.02169340833482
 21
7.282597555311765
 31
0.0
  0
LINE
  5
4E3
330
5A0
100
AcDbEntity
  8
spoon2
100
AcDbLine
 10
-15.02169340833482
 20
7.282597555311765
 30
0.0
 11
-15.31174548532676
 21
7.596903987825582
 31
0.0
  0
LINE
  5
4E4
330
5A0
100
AcDbEntity
  8
spoon2
100
AcDbLine
 10
-15.31174548532676
 20
7.596903987825582
 30
0.0
 11
-15.62767126725548
 21
7.991457362197683
 31
0.0
  0
LINE
  5
4E5
330
5A0
100
AcDbEntity
  8
spoon2
100
AcDbLine
 10
-15.62767126725548
 20
7.991457362197683
 30
0.0
 11
-15.95939324993052
 21
8.471143199610188
 31
0.0
  0
LINE
  5
4E6
330
5A0
100
AcDbEntity
  8
spoon2
100
AcDbLine
 10
-15.95939324993052
 20
8.471143199610188
 30
0.0
 11
-16.29629719028336
 21
9.039811828963487
 31
0.0
  0
LINE
  5
4E7
330
5A0
100
AcDbEntity
  8
spoon2
100
AcDbLine
 10
-16.29629719028336
 20
9.039811828963487
 30
0.0
 11
-16.6273288126101
 21
9.700228686704252
 31
0.0
  0
LINE
  5
4E8
330
5A0
100
AcDbEntity
  8
spoon2
100
AcDbLine
 10
-14.36359287626177
 20
12.81599390237446
 30
0.0
 11
-16.6273288126101
 21
9.700228686704252
 31
0.0
  0
LINE
  5
4E9
330
5A0
100
AcDbEntity
  8
spoon2
100
AcDbLine
 10
-14.26360397816736
 20
6.679229113804612
 30
0.0
 11
-15.46545038914802
 21
2.980326200510428
 31
0.0
  0
LINE
  5
4EA
330
5A0
100
AcDbEntity
  8
spoon2
100
AcDbLine
 10
-15.46545038914802
 20
2.980326200510428
 30
0.0
 11
-15.50393413612189
 21
2.985887858484715
 31
0.0
  0
LINE
  5
4EB
330
5A0
100
AcDbEntity
  8
spoon2
100
AcDbLine
 10
-15.50393413612189
 20
2.985887858484715
 30
0.0
 11
-15.62019466886577
 21
2.995332787427577
 31
0.0
  0
LINE
  5
4EC
330
5A0
100
AcDbEntity
  8
spoon2
100
AcDbLine
 10
-15.62019466886577
 20
2.995332787427577
 30
0.0
 11
-15.81458481418914
 21
2.997733669990227
 31
0.0
  0
LINE
  5
4ED
330
5A0
100
AcDbEntity
  8
spoon2
100
AcDbLine
 10
-15.81458481418914
 20
2.997733669990227
 30
0.0
 11
-16.08630545705767
 21
2.982159745333715
 31
0.0
  0
LINE
  5
4EE
330
5A0
100
AcDbEntity
  8
spoon2
100
AcDbLine
 10
-16.08630545705767
 20
2.982159745333715
 30
0.0
 11
-16.43340869300553
 21
2.937784664434392
 31
0.0
  0
LINE
  5
4EF
330
5A0
100
AcDbEntity
  8
spoon2
100
AcDbLine
 10
-16.43340869300553
 20
2.937784664434392
 30
0.0
 11
-16.85281043828395
 21
2.853993752352764
 31
0.0
  0
LINE
  5
4F0
330
5A0
100
AcDbEntity
  8
spoon2
100
AcDbLine
 10
-16.85281043828395
 20
2.853993752352764
 30
0.0
 11
-17.3403124195274
 21
2.72048988271914
 31
0.0
  0
LINE
  5
4F1
330
5A0
100
AcDbEntity
  8
spoon2
100
AcDbLine
 10
-17.3403124195274
 20
2.72048988271914
 30
0.0
 11
-17.89063340187971
 21
2.527397177573322
 31
0.0
  0
LINE
  5
4F2
330
5A0
100
AcDbEntity
  8
spoon2
100
AcDbLine
 10
-17.89063340187971
 20
2.527397177573322
 30
0.0
 11
-18.49744944888106
 21
2.265361759842695
 31
0.0
  0
LINE
  5
4F3
330
5A0
100
AcDbEntity
  8
spoon2
100
AcDbLine
 10
-18.49744944888106
 20
2.265361759842695
 30
0.0
 11
-19.15344294643925
 21
1.925648804209382
 31
0.0
  0
LINE
  5
4F4
330
5A0
100
AcDbEntity
  8
spoon2
100
AcDbLine
 10
-15.46545038916383
 20
-2.98032620053529
 30
0.0
 11
-15.50393413608058
 21
-2.985887858485039
 31
0.0
  0
LINE
  5
4F5
330
5A0
100
AcDbEntity
  8
spoon2
100
AcDbLine
 10
-15.50393413608058
 20
-2.985887858485039
 30
0.0
 11
-15.6201946689163
 21
-2.995332787442901
 31
0.0
  0
LINE
  5
4F6
330
5A0
100
AcDbEntity
  8
spoon2
100
AcDbLine
 10
-15.6201946689163
 20
-2.995332787442901
 30
0.0
 11
-15.81458481421492
 21
-2.997733669995256
 31
0.0
  0
LINE
  5
4F7
330
5A0
100
AcDbEntity
  8
spoon2
100
AcDbLine
 10
-15.81458481421492
 20
-2.997733669995256
 30
0.0
 11
-16.08630545705202
 21
-2.982159745357683
 31
0.0
  0
LINE
  5
4F8
330
5A0
100
AcDbEntity
  8
spoon2
100
AcDbLine
 10
-16.08630545705202
 20
-2.982159745357683
 30
0.0
 11
-16.43340869295141
 21
-2.937784664443496
 31
0.0
  0
LINE
  5
4F9
330
5A0
100
AcDbEntity
  8
spoon2
100
AcDbLine
 10
-16.43340869295141
 20
-2.937784664443496
 30
0.0
 11
-16.85281043824912
 21
-2.853993752350388
 31
0.0
  0
LINE
  5
4FA
330
5A0
100
AcDbEntity
  8
spoon2
100
AcDbLine
 10
-16.85281043824912
 20
-2.853993752350388
 30
0.0
 11
-17.34031241955846
 21
-2.720489882718564
 31
0.0
  0
LINE
  5
4FB
330
5A0
100
AcDbEntity
  8
spoon2
100
AcDbLine
 10
-17.34031241955846
 20
-2.720489882718564
 30
0.0
 11
-17.89063340186449
 21
-2.527397177585009
 31
0.0
  0
LINE
  5
4FC
330
5A0
100
AcDbEntity
  8
spoon2
100
AcDbLine
 10
-17.89063340186449
 20
-2.527397177585009
 30
0.0
 11
-18.4974494488803
 21
-2.265361759854537
 31
0.0
  0
LINE
  5
4FD
330
5A0
100
AcDbEntity
  8
spoon2
100
AcDbLine
 10
-18.4974494488803
 20
-2.265361759854537
 30
0.0
 11
-19.15344294644168
 21
-1.92564880421164
 31
0.0
  0
LINE
  5
4FE
330
5A0
100
AcDbEntity
  8
spoon2
100
AcDbLine
 10
-19.15344294643925
 20
1.925648804209382
 30
0.0
 11
-19.15344294644168
 21
-1.92564880421164
 31
0.0
  0
LINE
  5
4FF
330
5A0
100
AcDbEntity
  8
spoon2
100
AcDbLine
 10
-15.46545038916383
 20
-2.98032620053529
 30
0.0
 11
-14.26360397819169
 21
-6.679229113797417
 31
0.0
  0
LINE
  5
500
330
5A0
100
AcDbEntity
  8
spoon2
100
AcDbLine
 10
-14.26360397819169
 20
-6.679229113797417
 30
0.0
 11
-14.29800704397572
 21
-6.69734981688979
 31
0.0
  0
LINE
  5
501
330
5A0
100
AcDbEntity
  8
spoon2
100
AcDbLine
 10
-14.29800704397572
 20
-6.69734981688979
 30
0.0
 11
-14.39761538076528
 21
-6.758044935476716
 31
0.0
  0
LINE
  5
502
330
5A0
100
AcDbEntity
  8
spoon2
100
AcDbLine
 10
-14.39761538076528
 20
-6.758044935476716
 30
0.0
 11
-14.55629151520765
 21
-6.870362241287888
 31
0.0
  0
LINE
  5
503
330
5A0
100
AcDbEntity
  8
spoon2
100
AcDbLine
 10
-14.55629151520765
 20
-6.870362241287888
 30
0.0
 11
-14.76696400976306
 21
-7.042675197591872
 31
0.0
  0
LINE
  5
504
330
5A0
100
AcDbEntity
  8
spoon2
100
AcDbLine
 10
-14.76696400976306
 20
-7.042675197591872
 30
0.0
 11
-15.02169340827756
 21
-7.282597555262869
 31
0.0
  0
LINE
  5
505
330
5A0
100
AcDbEntity
  8
spoon2
100
AcDbLine
 10
-15.02169340827756
 20
-7.282597555262869
 30
0.0
 11
-15.31174548528946
 21
-7.596903987792089
 31
0.0
  0
LINE
  5
506
330
5A0
100
AcDbEntity
  8
spoon2
100
AcDbLine
 10
-15.31174548528946
 20
-7.596903987792089
 30
0.0
 11
-15.62767126726661
 21
-7.991457362216046
 31
0.0
  0
LINE
  5
507
330
5A0
100
AcDbEntity
  8
spoon2
100
AcDbLine
 10
-15.62767126726661
 20
-7.991457362216046
 30
0.0
 11
-15.95939324991054
 21
-8.471143199585516
 31
0.0
  0
LINE
  5
508
330
5A0
100
AcDbEntity
  8
spoon2
100
AcDbLine
 10
-15.95939324991054
 20
-8.471143199585516
 30
0.0
 11
-16.29629719028549
 21
-9.039811828947911
 31
0.0
  0
LINE
  5
509
330
5A0
100
AcDbEntity
  8
spoon2
100
AcDbLine
 10
-16.29629719028549
 20
-9.039811828947911
 30
0.0
 11
-16.62732881267253
 21
-9.700228686738697
 31
0.0
  0
LINE
  5
50A
330
5A0
100
AcDbEntity
  8
spoon2
100
AcDbLine
 10
-10.7600204028025
 20
-11.50149820379594
 30
0.0
 11
-10.78788534757601
 21
-11.52861785853824
 31
0.0
  0
LINE
  5
50B
330
5A0
100
AcDbEntity
  8
spoon2
100
AcDbLine
 10
-10.78788534757601
 20
-11.52861785853824
 30
0.0
 11
-10.87639050439933
 21
-11.6045951931342
 31
0.0
  0
LINE
  5
50C
330
5A0
100
AcDbEntity
  8
spoon2
100
AcDbLine
 10
-10.87639050439933
 20
-11.6045951931342
 30
0.0
 11
-11.03224423214214
 21
-11.72079720854095
 31
0.0
  0
LINE
  5
50D
330
5A0
100
AcDbEntity
  8
spoon2
100
AcDbLine
 10
-11.03224423214214
 20
-11.72079720854095
 30
0.0
 11
-11.26122497317868
 21
-11.86791102544627
 31
0.0
  0
LINE
  5
50E
330
5A0
100
AcDbEntity
  8
spoon2
100
AcDbLine
 10
-11.26122497317868
 20
-11.86791102544627
 30
0.0
 11
-11.56812040798494
 21
-12.0360329939851
 31
0.0
  0
LINE
  5
50F
330
5A0
100
AcDbEntity
  8
spoon2
100
AcDbLine
 10
-11.56812040798494
 20
-12.0360329939851
 30
0.0
 11
-11.95667460978341
 21
-12.21476288279726
 31
0.0
  0
LINE
  5
510
330
5A0
100
AcDbEntity
  8
spoon2
100
AcDbLine
 10
-11.95667460978341
 20
-12.21476288279726
 30
0.0
 11
-12.42954360309545
 21
-12.39330245848711
 31
0.0
  0
LINE
  5
511
330
5A0
100
AcDbEntity
  8
spoon2
100
AcDbLine
 10
-12.42954360309545
 20
-12.39330245848711
 30
0.0
 11
-12.98825967458955
 21
-12.56055773598811
 31
0.0
  0
LINE
  5
512
330
5A0
100
AcDbEntity
  8
spoon2
100
AcDbLine
 10
-12.98825967458955
 20
-12.56055773598811
 30
0.0
 11
-13.63320472319343
 21
-12.7052441531977
 31
0.0
  0
LINE
  5
513
330
5A0
100
AcDbEntity
  8
spoon2
100
AcDbLine
 10
-13.63320472319343
 20
-12.7052441531977
 30
0.0
 11
-14.36359287625141
 21
-12.81599390234546
 31
0.0
  0
LINE
  5
514
330
5A0
100
AcDbEntity
  8
spoon2
100
AcDbLine
 10
-16.62732881267253
 20
-9.700228686738697
 30
0.0
 11
-14.36359287625141
 21
-12.81599390234546
 31
0.0
  0
LINE
  5
515
330
5A0
100
AcDbEntity
  8
spoon2
100
AcDbLine
 10
-10.7600204028025
 20
-11.50149820379594
 30
0.0
 11
-7.613545649594635
 21
-13.78754592529887
 31
0.0
  0
LINE
  5
516
330
5A0
100
AcDbEntity
  8
spoon2
100
AcDbLine
 10
-7.613545649594635
 20
-13.78754592529887
 30
0.0
 11
-7.630727232426219
 21
-13.822427496811
 31
0.0
  0
LINE
  5
517
330
5A0
100
AcDbEntity
  8
spoon2
100
AcDbLine
 10
-7.630727232426219
 20
-13.822427496811
 30
0.0
 11
-7.675636374047271
 21
-13.93007919049007
 31
0.0
  0
LINE
  5
518
330
5A0
100
AcDbEntity
  8
spoon2
100
AcDbLine
 10
-7.675636374047271
 20
-13.93007919049007
 30
0.0
 11
-7.737989607473184
 21
-14.11421329144238
 31
0.0
  0
LINE
  5
519
330
5A0
100
AcDbEntity
  8
spoon2
100
AcDbLine
 10
-7.737989607473184
 20
-14.11421329144238
 30
0.0
 11
-7.807144221350316
 21
-14.37744758671087
 31
0.0
  0
LINE
  5
51A
330
5A0
100
AcDbEntity
  8
spoon2
100
AcDbLine
 10
-7.807144221350316
 20
-14.37744758671087
 30
0.0
 11
-7.872201810239524
 21
-14.72127503531892
 31
0.0
  0
LINE
  5
51B
330
5A0
100
AcDbEntity
  8
spoon2
100
AcDbLine
 10
-7.872201810239524
 20
-14.72127503531892
 30
0.0
 11
-7.922114184047481
 21
-15.14604261391662
 31
0.0
  0
LINE
  5
51C
330
5A0
100
AcDbEntity
  8
spoon2
100
AcDbLine
 10
-7.922114184047481
 20
-15.14604261391662
 30
0.0
 11
-7.945790855890856
 21
-15.65093951440831
 31
0.0
  0
LINE
  5
51D
330
5A0
100
AcDbEntity
  8
spoon2
100
AcDbLine
 10
-7.945790855890856
 20
-15.65093951440831
 30
0.0
 11
-7.932207316318086
 21
-16.23399479811361
 31
0.0
  0
LINE
  5
51E
330
5A0
100
AcDbEntity
  8
spoon2
100
AcDbLine
 10
-7.932207316318086
 20
-16.23399479811361
 30
0.0
 11
-7.870513295760173
 21
-16.89208455100696
 31
0.0
  0
LINE
  5
51F
330
5A0
100
AcDbEntity
  8
spoon2
100
AcDbLine
 10
-7.870513295760173
 20
-16.89208455100696
 30
0.0
 11
-7.75014021455264
 21
-17.62094851793706
 31
0.0
  0
LINE
  5
520
330
5A0
100
AcDbEntity
  8
spoon2
100
AcDbLine
 10
-1.944628342200378
 20
-15.62948881480562
 30
0.0
 11
-1.951231022982193
 21
-15.66780767992625
 31
0.0
  0
LINE
  5
521
330
5A0
100
AcDbEntity
  8
spoon2
100
AcDbLine
 10
-1.951231022982193
 20
-15.66780767992625
 30
0.0
 11
-1.978174842174263
 21
-15.78129666073275
 31
0.0
  0
LINE
  5
522
330
5A0
100
AcDbEntity
  8
spoon2
100
AcDbLine
 10
-1.978174842174263
 20
-15.78129666073275
 30
0.0
 11
-2.035961325614382
 21
-15.96691458869338
 31
0.0
  0
LINE
  5
523
330
5A0
100
AcDbEntity
  8
spoon2
100
AcDbLine
 10
-2.035961325614382
 20
-15.96691458869338
 30
0.0
 11
-2.134739304488202
 21
-16.22052366923636
 31
0.0
  0
LINE
  5
524
330
5A0
100
AcDbEntity
  8
spoon2
100
AcDbLine
 10
-2.134739304488202
 20
-16.22052366923636
 30
0.0
 11
-2.284203313039867
 21
-16.53692580952355
 31
0.0
  0
LINE
  5
525
330
5A0
100
AcDbEntity
  8
spoon2
100
AcDbLine
 10
-2.284203313039867
 20
-16.53692580952355
 30
0.0
 11
-2.493495472773772
 21
-16.90990775651556
 31
0.0
  0
LINE
  5
526
330
5A0
100
AcDbEntity
  8
spoon2
100
AcDbLine
 10
-2.493495472773772
 20
-16.90990775651556
 30
0.0
 11
-2.771111594933448
 21
-17.33229472803297
 31
0.0
  0
LINE
  5
527
330
5A0
100
AcDbEntity
  8
spoon2
100
AcDbLine
 10
-2.771111594933448
 20
-17.33229472803297
 30
0.0
 11
-3.124812206298019
 21
-17.79601215688827
 31
0.0
  0
LINE
  5
528
330
5A0
100
AcDbEntity
  8
spoon2
100
AcDbLine
 10
-3.124812206298019
 20
-17.79601215688827
 30
0.0
 11
-3.561539168798487
 21
-18.29215511540826
 31
0.0
  0
LINE
  5
529
330
5A0
100
AcDbEntity
  8
spoon2
100
AcDbLine
 10
-3.561539168798487
 20
-18.29215511540826
 30
0.0
 11
-4.087338527892743
 21
-18.81106492942653
 31
0.0
  0
LINE
  5
52A
330
5A0
100
AcDbEntity
  8
spoon2
100
AcDbLine
 10
-7.75014021455264
 20
-17.62094851793706
 30
0.0
 11
-4.087338527892743
 21
-18.81106492942653
 31
0.0
  0
LINE
  5
52B
330
5A0
100
AcDbEntity
  8
spoon2
100
AcDbLine
 10
-1.944628342200378
 20
-15.62948881480562
 30
0.0
 11
0.0
 21
-15.6294888147701
 31
0.0
  0
LINE
  5
533
330
5A0
100
AcDbEntity
  8
spoon2
100
AcDbLine
 10
2.77111159496098
 20
-17.33229472803686
 30
0.0
 11
3.124812206284827
 21
-17.79601215683712
 31
0.0
  0
LINE
  5
534
330
5A0
100
AcDbEntity
  8
spoon2
100
AcDbLine
 10
3.124812206284827
 20
-17.79601215683712
 30
0.0
 11
3.561539168830396
 21
-18.29215511541733
 31
0.0
  0
LINE
  5
535
330
5A0
100
AcDbEntity
  8
spoon2
100
AcDbLine
 10
3.561539168830396
 20
-18.29215511541733
 30
0.0
 11
4.087338527888675
 21
-18.81106492935985
 31
0.0
  0
LINE
  5
536
330
5A0
100
AcDbEntity
  8
spoon2
100
AcDbLine
 10
7.613545649584257
 20
-13.78754592525138
 30
0.0
 11
7.630727232468264
 21
-13.82242749677755
 31
0.0
  0
LINE
  5
537
330
5A0
100
AcDbEntity
  8
spoon2
100
AcDbLine
 10
7.630727232468264
 20
-13.82242749677755
 30
0.0
 11
7.675636374092878
 21
-13.93007919053182
 31
0.0
  0
LINE
  5
538
330
5A0
100
AcDbEntity
  8
spoon2
100
AcDbLine
 10
7.675636374092878
 20
-13.93007919053182
 30
0.0
 11
7.737989607533141
 21
-14.1142132914104
 31
0.0
  0
LINE
  5
539
330
5A0
100
AcDbEntity
  8
spoon2
100
AcDbLine
 10
7.737989607533141
 20
-14.1142132914104
 30
0.0
 11
7.807144221367667
 21
-14.37744758674013
 31
0.0
  0
LINE
  5
53A
330
5A0
100
AcDbEntity
  8
spoon2
100
AcDbLine
 10
7.807144221367667
 20
-14.37744758674013
 30
0.0
 11
7.872201810243129
 21
-14.72127503528993
 31
0.0
  0
LINE
  5
53B
330
5A0
100
AcDbEntity
  8
spoon2
100
AcDbLine
 10
7.872201810243129
 20
-14.72127503528993
 30
0.0
 11
7.922114184052333
 21
-15.14604261391612
 31
0.0
  0
LINE
  5
53C
330
5A0
100
AcDbEntity
  8
spoon2
100
AcDbLine
 10
7.922114184052333
 20
-15.14604261391612
 30
0.0
 11
7.945790855893742
 21
-15.65093951447187
 31
0.0
  0
LINE
  5
53D
330
5A0
100
AcDbEntity
  8
spoon2
100
AcDbLine
 10
7.945790855893742
 20
-15.65093951447187
 30
0.0
 11
7.932207316291706
 21
-16.23399479802213
 31
0.0
  0
LINE
  5
53E
330
5A0
100
AcDbEntity
  8
spoon2
100
AcDbLine
 10
7.932207316291706
 20
-16.23399479802213
 30
0.0
 11
7.870513295772808
 21
-16.89208455101575
 31
0.0
  0
LINE
  5
53F
330
5A0
100
AcDbEntity
  8
spoon2
100
AcDbLine
 10
7.870513295772808
 20
-16.89208455101575
 30
0.0
 11
7.750140214568448
 21
-17.62094851796248
 31
0.0
  0
LINE
  5
540
330
5A0
100
AcDbEntity
  8
spoon2
100
AcDbLine
 10
4.087338527888675
 20
-18.81106492935985
 30
0.0
 11
7.750140214568448
 21
-17.62094851796248
 31
0.0
  0
LINE
  5
541
330
5A0
100
AcDbEntity
  8
spoon2
100
AcDbLine
 10
7.613545649584257
 20
-13.78754592525138
 30
0.0
 11
10.76002040279619
 21
-11.50149820383556
 31
0.0
  0
LINE
  5
542
330
5A0
100
AcDbEntity
  8
spoon2
100
AcDbLine
 10
10.76002040279619
 20
-11.50149820383556
 30
0.0
 11
10.7878853475596
 21
-11.52861785853417
 31
0.0
  0
LINE
  5
543
330
5A0
100
AcDbEntity
  8
spoon2
100
AcDbLine
 10
10.7878853475596
 20
-11.52861785853417
 30
0.0
 11
10.87639050439512
 21
-11.60459519311938
 31
0.0
  0
LINE
  5
544
330
5A0
100
AcDbEntity
  8
spoon2
100
AcDbLine
 10
10.87639050439512
 20
-11.60459519311938
 30
0.0
 11
11.03224423215968
 21
-11.72079720855225
 31
0.0
  0
LINE
  5
545
330
5A0
100
AcDbEntity
  8
spoon2
100
AcDbLine
 10
11.03224423215968
 20
-11.72079720855225
 30
0.0
 11
11.26122497312923
 21
-11.86791102540604
 31
0.0
  0
LINE
  5
546
330
5A0
100
AcDbEntity
  8
spoon2
100
AcDbLine
 10
11.26122497312923
 20
-11.86791102540604
 30
0.0
 11
11.56812040794951
 21
-12.03603299397979
 31
0.0
  0
LINE
  5
547
330
5A0
100
AcDbEntity
  8
spoon2
100
AcDbLine
 10
11.56812040794951
 20
-12.03603299397979
 30
0.0
 11
11.95667460977691
 21
-12.21476288277937
 31
0.0
  0
LINE
  5
548
330
5A0
100
AcDbEntity
  8
spoon2
100
AcDbLine
 10
11.95667460977691
 20
-12.21476288277937
 30
0.0
 11
12.42954360313498
 21
-12.39330245853543
 31
0.0
  0
LINE
  5
549
330
5A0
100
AcDbEntity
  8
spoon2
100
AcDbLine
 10
12.42954360313498
 20
-12.39330245853543
 30
0.0
 11
12.98825967456186
 21
-12.5605577359803
 31
0.0
  0
LINE
  5
54A
330
5A0
100
AcDbEntity
  8
spoon2
100
AcDbLine
 10
12.98825967456186
 20
-12.5605577359803
 30
0.0
 11
13.63320472317329
 21
-12.70524415322617
 31
0.0
  0
LINE
  5
54B
330
5A0
100
AcDbEntity
  8
spoon2
100
AcDbLine
 10
13.63320472317329
 20
-12.70524415322617
 30
0.0
 11
14.36359287626177
 21
-12.81599390237446
 31
0.0
  0
LINE
  5
54C
330
5A0
100
AcDbEntity
  8
spoon2
100
AcDbLine
 10
14.26360397816736
 20
-6.679229113804608
 30
0.0
 11
14.29800704397999
 21
-6.697349816948978
 31
0.0
  0
LINE
  5
54D
330
5A0
100
AcDbEntity
  8
spoon2
100
AcDbLine
 10
14.29800704397999
 20
-6.697349816948978
 30
0.0
 11
14.39761538068308
 21
-6.758044935470625
 31
0.0
  0
LINE
  5
54E
330
5A0
100
AcDbEntity
  8
spoon2
100
AcDbLine
 10
14.39761538068308
 20
-6.758044935470625
 30
0.0
 11
14.55629151516276
 21
-6.870362241344488
 31
0.0
  0
LINE
  5
54F
330
5A0
100
AcDbEntity
  8
spoon2
100
AcDbLine
 10
14.55629151516276
 20
-6.870362241344488
 30
0.0
 11
14.76696400968523
 21
-7.042675197554057
 31
0.0
  0
LINE
  5
550
330
5A0
100
AcDbEntity
  8
spoon2
100
AcDbLine
 10
14.76696400968523
 20
-7.042675197554057
 30
0.0
 11
15.02169340833482
 21
-7.282597555311767
 31
0.0
  0
LINE
  5
551
330
5A0
100
AcDbEntity
  8
spoon2
100
AcDbLine
 10
15.02169340833482
 20
-7.282597555311767
 30
0.0
 11
15.31174548532676
 21
-7.596903987825577
 31
0.0
  0
LINE
  5
552
330
5A0
100
AcDbEntity
  8
spoon2
100
AcDbLine
 10
15.31174548532676
 20
-7.596903987825577
 30
0.0
 11
15.62767126725548
 21
-7.991457362197685
 31
0.0
  0
LINE
  5
553
330
5A0
100
AcDbEntity
  8
spoon2
100
AcDbLine
 10
15.62767126725548
 20
-7.991457362197685
 30
0.0
 11
15.95939324993053
 21
-8.471143199610182
 31
0.0
  0
LINE
  5
554
330
5A0
100
AcDbEntity
  8
spoon2
100
AcDbLine
 10
15.95939324993053
 20
-8.471143199610182
 30
0.0
 11
16.29629719028335
 21
-9.039811828963497
 31
0.0
  0
LINE
  5
555
330
5A0
100
AcDbEntity
  8
spoon2
100
AcDbLine
 10
16.29629719028335
 20
-9.039811828963497
 30
0.0
 11
16.6273288126101
 21
-9.700228686704262
 31
0.0
  0
LINE
  5
556
330
5A0
100
AcDbEntity
  8
spoon2
100
AcDbLine
 10
14.36359287626177
 20
-12.81599390237446
 30
0.0
 11
16.6273288126101
 21
-9.700228686704262
 31
0.0
  0
LINE
  5
557
330
5A0
100
AcDbEntity
  8
spoon2
100
AcDbLine
 10
14.26360397816736
 20
-6.679229113804608
 30
0.0
 11
15.46545038914802
 21
-2.98032620051043
 31
0.0
  0
LINE
  5
558
330
5A0
100
AcDbEntity
  8
spoon2
100
AcDbLine
 10
15.46545038914802
 20
-2.98032620051043
 30
0.0
 11
15.50393413612189
 21
-2.98588785848471
 31
0.0
  0
LINE
  5
559
330
5A0
100
AcDbEntity
  8
spoon2
100
AcDbLine
 10
15.50393413612189
 20
-2.98588785848471
 30
0.0
 11
15.62019466886577
 21
-2.995332787427579
 31
0.0
  0
LINE
  5
55A
330
5A0
100
AcDbEntity
  8
spoon2
100
AcDbLine
 10
15.62019466886577
 20
-2.995332787427579
 30
0.0
 11
15.81458481418914
 21
-2.997733669990228
 31
0.0
  0
LINE
  5
55B
330
5A0
100
AcDbEntity
  8
spoon2
100
AcDbLine
 10
15.81458481418914
 20
-2.997733669990228
 30
0.0
 11
16.08630545705767
 21
-2.982159745333724
 31
0.0
  0
LINE
  5
55C
330
5A0
100
AcDbEntity
  8
spoon2
100
AcDbLine
 10
16.08630545705767
 20
-2.982159745333724
 30
0.0
 11
16.43340869300552
 21
-2.937784664434401
 31
0.0
  0
LINE
  5
55D
330
5A0
100
AcDbEntity
  8
spoon2
100
AcDbLine
 10
16.43340869300552
 20
-2.937784664434401
 30
0.0
 11
16.85281043828395
 21
-2.853993752352773
 31
0.0
  0
LINE
  5
55E
330
5A0
100
AcDbEntity
  8
spoon2
100
AcDbLine
 10
16.85281043828395
 20
-2.853993752352773
 30
0.0
 11
17.3403124195274
 21
-2.720489882719142
 31
0.0
  0
LINE
  5
55F
330
5A0
100
AcDbEntity
  8
spoon2
100
AcDbLine
 10
17.3403124195274
 20
-2.720489882719142
 30
0.0
 11
17.89063340187971
 21
-2.527397177573333
 31
0.0
  0
LINE
  5
560
330
5A0
100
AcDbEntity
  8
spoon2
100
AcDbLine
 10
17.89063340187971
 20
-2.527397177573333
 30
0.0
 11
18.49744944888106
 21
-2.265361759842706
 31
0.0
  0
LINE
  5
561
330
5A0
100
AcDbEntity
  8
spoon2
100
AcDbLine
 10
18.49744944888106
 20
-2.265361759842706
 30
0.0
 11
19.15344294643925
 21
-1.925648804209392
 31
0.0
  0
LINE
  5
562
330
5A0
100
AcDbEntity
  8
spoon2
100
AcDbLine
 10
15.46545038916383
 20
2.980326200535281
 30
0.0
 11
15.50393413608058
 21
2.98588785848503
 31
0.0
  0
LINE
  5
563
330
5A0
100
AcDbEntity
  8
spoon2
100
AcDbLine
 10
15.50393413608058
 20
2.98588785848503
 30
0.0
 11
15.6201946689163
 21
2.995332787442899
 31
0.0
  0
LINE
  5
564
330
5A0
100
AcDbEntity
  8
spoon2
100
AcDbLine
 10
15.6201946689163
 20
2.995332787442899
 30
0.0
 11
15.81458481421492
 21
2.997733669995254
 31
0.0
  0
LINE
  5
565
330
5A0
100
AcDbEntity
  8
spoon2
100
AcDbLine
 10
15.81458481421492
 20
2.997733669995254
 30
0.0
 11
16.08630545705202
 21
2.982159745357674
 31
0.0
  0
LINE
  5
566
330
5A0
100
AcDbEntity
  8
spoon2
100
AcDbLine
 10
16.08630545705202
 20
2.982159745357674
 30
0.0
 11
16.43340869295141
 21
2.9377846644435
 31
0.0
  0
LINE
  5
567
330
5A0
100
AcDbEntity
  8
spoon2
100
AcDbLine
 10
16.43340869295141
 20
2.9377846644435
 30
0.0
 11
16.85281043824912
 21
2.853993752350378
 31
0.0
  0
LINE
  5
568
330
5A0
100
AcDbEntity
  8
spoon2
100
AcDbLine
 10
16.85281043824912
 20
2.853993752350378
 30
0.0
 11
17.34031241955846
 21
2.720489882718562
 31
0.0
  0
LINE
  5
569
330
5A0
100
AcDbEntity
  8
spoon2
100
AcDbLine
 10
17.34031241955846
 20
2.720489882718562
 30
0.0
 11
17.89063340186449
 21
2.527397177584998
 31
0.0
  0
LINE
  5
56A
330
5A0
100
AcDbEntity
  8
spoon2
100
AcDbLine
 10
17.89063340186449
 20
2.527397177584998
 30
0.0
 11
18.4974494488803
 21
2.265361759854527
 31
0.0
  0
LINE
  5
56B
330
5A0
100
AcDbEntity
  8
spoon2
100
AcDbLine
 10
18.4974494488803
 20
2.265361759854527
 30
0.0
 11
19.15344294644168
 21
1.925648804211638
 31
0.0
  0
LINE
  5
56C
330
5A0
100
AcDbEntity
  8
spoon2
100
AcDbLine
 10
19.15344294643925
 20
-1.925648804209392
 30
0.0
 11
19.15344294644168
 21
1.925648804211638
 31
0.0
  0
ARC
  5
57A
330
5A0
100
AcDbEntity
  8
spoon2
100
AcDbCircle
 10
0.0
 20
0.0
 30
0.0
 40
3.0
100
AcDbArc
 50
329.3165828910242
 51
270.0
  0
LINE
  5
57B
330
5A0
100
AcDbEntity
  8
spoon2
100
AcDbLine
 10
2.58
 20
-1.530882098660769
 30
0.0
 11
2.58
 21
-17.04152253809122
 31
0.0
  0
LINE
  5
57C
330
5A0
100
AcDbEntity
  8
spoon2
100
AcDbLine
 10
0.0
 20
-3.0
 30
0.0
 11
0.0
 21
-15.6294888147701
 31
0.0
  0
ARC
  5
57D
330
5A0
100
AcDbEntity
  8
spoon
100
AcDbCircle
 10
0.0
 20
0.0
 30
0.0
 40
3.0
100
AcDbArc
 50
270.0
 51
210.6834171089758
  0
LINE
  5
57E
330
5A0
100
AcDbEntity
  8
spoon
100
AcDbLine
 10
-2.58
 20
-1.530882098660769
 30
0.0
 11
-2.58
 21
-17.74071351289908
 31
0.0
  0
LINE
  5
57F
330
5A0
100
AcDbEntity
  8
spoon
100
AcDbLine
 10
0.0
 20
-3.0
 30
0.0
 11
0.0
 21
-19.1534429464
 31
0.0
  0
LINE
  5
580
330
5A0
100
AcDbEntity
  8
spoon
100
AcDbLine
 10
0.0
 20
-19.1534429464
 30
0.0
 11
1.92564880421
 21
-19.1534429464
 31
0.0
  0
LINE
  5
581
330
5A0
100
AcDbEntity
  8
spoon2
100
AcDbLine
 10
2.58
 20
-17.04152253809122
 30
0.0
 11
2.77111159496098
 21
-17.33229472803686
 31
0.0
  0
ENDSEC
  0
SECTION
  2
OBJECTS
  0
DICTIONARY
  5
58E
330
0
100
AcDbDictionary
281
     1
  3
ACAD_GROUP
350
58F
  3
ACAD_LAYOUT
350
59B
  3
ACAD_MATERIAL
350
5BC
  3
ACAD_MLEADERSTYLE
350
5ED
  3
ACAD_MLINESTYLE
350
598
  3
ACAD_PLOTSETTINGS
350
59A
  3
ACAD_PLOTSTYLENAME
350
590
  3
ACAD_TABLESTYLE
350
5EC
  3
ACAD_VISUALSTYLE
350
5AB
  3
QCAD_OBJECTS
350
5C1
  0
DICTIONARY
  5
58F
102
{ACAD_REACTORS
330
58E
102
}
330
58E
100
AcDbDictionary
281
     1
  0
DICTIONARY
  5
59B
102
{ACAD_REACTORS
330
58E
102
}
330
58E
100
AcDbDictionary
281
     1
  3
Layout1
350
59F
  3
Layout2
350
5A7
  3
Model
350
5A3
  0
DICTIONARY
  5
5BC
102
{ACAD_REACTORS
330
58E
102
}
330
58E
100
AcDbDictionary
281
     1
  3
ByBlock
350
5BE
  3
ByLayer
350
5BD
  3
Global
350
5BF
  0
DICTIONARY
  5
5ED
102
{ACAD_REACTORS
330
58E
102
}
330
58E
100
AcDbDictionary
281
     1
  0
DICTIONARY
  5
598
102
{ACAD_REACTORS
330
58E
102
}
330
58E
100
AcDbDictionary
281
     1
  3
Standard
350
599
  0
DICTIONARY
  5
59A
102
{ACAD_REACTORS
330
58E
102
}
330
58E
100
AcDbDictionary
281
     1
  0
ACDBDICTIONARYWDFLT
  5
590
102
{ACAD_REACTORS
330
58E
102
}
330
58E
100
AcDbDictionary
281
     1
  3
Normal
350
591
100
AcDbDictionaryWithDefault
340
591
  0
DICTIONARY
  5
5EC
102
{ACAD_REACTORS
330
58E
102
}
330
58E
100
AcDbDictionary
281
     1
  0
DICTIONARY
  5
5AB
102
{ACAD_REACTORS
330
58E
102
}
330
58E
100
AcDbDictionary
281
     1
  3
2dWireframe
350
5B0
  3
3D Hidden
350
5B2
  3
3dWireframe
350
5B1
  3
Basic
350
5B3
  3
Brighten
350
5B7
  3
ColorChange
350
5BB
  3
Conceptual
350
5B5
  3
Dim
350
5B6
  3
Facepattern
350
5BA
  3
Flat
350
5AC
  3
FlatWithEdges
350
5AD
  3
Gouraud
350
5AE
  3
GouraudWithEdges
350
5AF
  3
Linepattern
350
5B9
  3
Realistic
350
5B4
  3
Thicken
350
5B8
  0
DICTIONARY
  5
5C1
102
{ACAD_REACTORS
330
58E
102
}
330
58E
100
AcDbDictionary
281
     1
  3
Grid/DisplayGrid
350
5D1
  3
Grid/GridSpacingX
350
5CA
  3
Grid/GridSpacingY
350
5CB
  3
Grid/MetaGridSpacingX
350
5C5
  3
Grid/MetaGridSpacingY
350
5C8
  3
MultiPageSettings/Columns
350
5C9
  3
MultiPageSettings/GlueMarginsBottom
350
5CE
  3
MultiPageSettings/GlueMarginsLeft
350
5CC
  3
MultiPageSettings/GlueMarginsRight
350
5C2
  3
MultiPageSettings/GlueMarginsTop
350
5D5
  3
MultiPageSettings/PrintCropMarks
350
5C4
  3
MultiPageSettings/Rows
350
5CD
  3
PageSettings/OffsetX
350
5D3
  3
PageSettings/OffsetY
350
5D4
  3
PageSettings/PageOrientation
350
5C3
  3
PageSettings/PaperHeight
350
5C6
  3
PageSettings/PaperWidth
350
5CF
  3
PageSettings/Scale
350
5C7
  3
PageSettings/ShowPaperBorders
350
5D2
  3
UnitSettings/PaperUnit
350
5D0
  0
LAYOUT
  5
59F
102
{ACAD_REACTORS
330
59B
102
}
330
59B
100
AcDbPlotSettings
  1

  2
none_device
  4

  6

 40
0.0
 41
0.0
 42
0.0
 43
0.0
 44
0.0
 45
0.0
 46
0.0
 47
0.0
 48
0.0
 49
0.0
140
0.0
141
0.0
142
1.0
143
1.0
 70
   688
 72
     0
 73
     0
 74
     5
  7

 75
    16
 76
     0
 77
     2
 78
   300
147
1.0
148
0.0
149
0.0
100
AcDbLayout
  1
Layout1
 70
     1
 71
     1
 10
0.0
 20
0.0
 11
12.0
 21
9.0
 12
0.0
 22
0.0
 32
0.0
 14
1.000000000000000E+20
 24
1.000000000000000E+20
 34
1.000000000000000E+20
 15
-1.000000000000000E+20
 25
-1.000000000000000E+20
 35
-1.000000000000000E+20
146
0.0
 13
0.0
 23
0.0
 33
0.0
 16
1.0
 26
0.0
 36
0.0
 17
0.0
 27
1.0
 37
0.0
 76
     0
330
59C
  0
LAYOUT
  5
5A7
102
{ACAD_REACTORS
330
59B
102
}
330
59B
100
AcDbPlotSettings
  1

  2
none_device
  4

  6

 40
0.0
 41
0.0
 42
0.0
 43
0.0
 44
0.0
 45
0.0
 46
0.0
 47
0.0
 48
0.0
 49
0.0
140
0.0
141
0.0
142
1.0
143
1.0
 70
   688
 72
     0
 73
     0
 74
     5
  7

 75
    16
 76
     0
 77
     2
 78
   300
147
1.0
148
0.0
149
0.0
100
AcDbLayout
  1
Layout2
 70
     1
 71
     2
 10
0.0
 20
0.0
 11
0.0
 21
0.0
 12
0.0
 22
0.0
 32
0.0
 14
0.0
 24
0.0
 34
0.0
 15
0.0
 25
0.0
 35
0.0
146
0.0
 13
0.0
 23
0.0
 33
0.0
 16
1.0
 26
0.0
 36
0.0
 17
0.0
 27
1.0
 37
0.0
 76
     0
330
5A4
  0
LAYOUT
  5
5A3
102
{ACAD_REACTORS
330
59B
102
}
330
59B
100
AcDbPlotSettings
  1

  2
none_device
  4

  6

 40
0.0
 41
0.0
 42
0.0
 43
0.0
 44
0.0
 45
0.0
 46
0.0
 47
0.0
 48
0.0
 49
0.0
140
0.0
141
0.0
142
1.0
143
1.0
 70
  1712
 72
     0
 73
     0
 74
     0
  7

 75
     0
 76
     0
 77
     2
 78
   300
147
1.0
148
0.0
149
0.0
100
AcDbLayout
  1
Model
 70
     1
 71
     0
 10
0.0
 20
0.0
 11
12.0
 21
9.0
 12
0.0
 22
0.0
 32
0.0
 14
1.000000000000000E+20
 24
1.000000000000000E+20
 34
1.000000000000000E+20
 15
-1.000000000000000E+20
 25
-1.000000000000000E+20
 35
-1.000000000000000E+20
146
0.0
 13
0.0
 23
0.0
 33
0.0
 16
1.0
 26
0.0
 36
0.0
 17
0.0
 27
1.0
 37
0.0
 76
     0
330
5A0
331
5AA
  0
MATERIAL
  5
5BE
102
{ACAD_REACTORS
330
5BC
102
}
330
5BC
100
AcDbMaterial
  1
ByBlock
 72
     1
 94
      127
  0
MATERIAL
  5
5BD
102
{ACAD_REACTORS
330
5BC
102
}
330
5BC
100
AcDbMaterial
  1
ByLayer
 72
     1
 94
      127
  0
MATERIAL
  5
5BF
102
{ACAD_REACTORS
330
5BC
102
}
330
5BC
100
AcDbMaterial
  1
Global
 72
     1
 94
      127
  0
MLINESTYLE
  5
599
102
{ACAD_REACTORS
330
598
102
}
330
598
100
AcDbMlineStyle
  2
Standard
 70
     0
  3

 62
   256
 51
90.0
 52
90.0
 71
     2
 49
0.5
 62
   256
  6
BYLAYER
 49
-0.5
 62
   256
  6
BYLAYER
  0
ACDBPLACEHOLDER
  5
591
102
{ACAD_REACTORS
330
590
102
}
330
590
  0
VISUALSTYLE
  5
5B0
102
{ACAD_REACTORS
330
5AB
102
}
330
5AB
100
AcDbVisualStyle
  2
2dWireframe
 70
     4
177
     2
291
     0
 71
     0
176
     1
 72
     2
176
     1
 73
     0
176
     1
 90
        0
176
     1
 40
-0.6
176
     1
 41
-30.0
176
     1
 62
     5
 63
     7
421
 16777215
176
     1
 74
     1
176
     1
 91
        4
176
     1
 64
     7
176
     1
 65
   257
176
     1
 75
     1
176
     1
175
     1
176
     1
 42
1.0
176
     1
 92
        0
176
     1
 66
   257
176
     1
 43
1.0
176
     1
 76
     1
176
     1
 77
     6
176
     1
 78
     2
176
     1
 67
     7
176
     1
 79
     5
176
     1
170
     0
176
     1
171
     0
176
     1
290
     0
176
     1
 93
        1
176
     1
 44
0.0
176
     1
173
     0
176
     1
  0
VISUALSTYLE
  5
5B2
102
{ACAD_REACTORS
330
5AB
102
}
330
5AB
100
AcDbVisualStyle
  2
3D Hidden
 70
     6
177
     2
291
     0
 71
     1
176
     1
 72
     2
176
     1
 73
     2
176
     1
 90
        0
176
     1
 40
-0.6
176
     1
 41
-30.0
176
     1
 62
     5
 63
     7
421
 16777215
176
     1
 74
     2
176
     1
 91
        2
176
     1
 64
     7
176
     1
 65
   257
176
     1
 75
     2
176
     1
175
     1
176
     1
 42
40.0
176
     1
 92
        0
176
     1
 66
   257
176
     1
 43
1.0
176
     1
 76
     1
176
     1
 77
     6
176
     1
 78
     2
176
     1
 67
     7
176
     1
 79
     3
176
     1
170
     0
176
     1
171
     0
176
     1
290
     0
176
     1
 93
        1
176
     1
 44
0.0
176
     1
173
     0
176
     1
  0
VISUALSTYLE
  5
5B1
102
{ACAD_REACTORS
330
5AB
102
}
330
5AB
100
AcDbVisualStyle
  2
3dWireframe
 70
     5
177
     2
291
     0
 71
     0
176
     1
 72
     2
176
     1
 73
     0
176
     1
 90
        0
176
     1
 40
-0.6
176
     1
 41
-30.0
176
     1
 62
     5
 63
     7
421
 16777215
176
     1
 74
     1
176
     1
 91
        4
176
     1
 64
     7
176
     1
 65
   257
176
     1
 75
     1
176
     1
175
     1
176
     1
 42
1.0
176
     1
 92
        0
176
     1
 66
   257
176
     1
 43
1.0
176
     1
 76
     1
176
     1
 77
     6
176
     1
 78
     2
176
     1
 67
     7
176
     1
 79
     5
176
     1
170
     0
176
     1
171
     0
176
     1
290
     0
176
     1
 93
        1
176
     1
 44
0.0
176
     1
173
     0
176
     1
  0
VISUALSTYLE
  5
5B3
102
{ACAD_REACTORS
330
5AB
102
}
330
5AB
100
AcDbVisualStyle
  2
Basic
 70
     7
177
     2
291
     1
 71
     1
176
     1
 72
     0
176
     1
 73
     1
176
     1
 90
        0
176
     1
 40
-0.6
176
     1
 41
-30.0
176
     1
 62
     5
 63
     7
421
 16777215
176
     1
 74
     0
176
     1
 91
        4
176
     1
 64
     7
176
     1
 65
   257
176
     1
 75
     1
176
     1
175
     1
176
     1
 42
1.0
176
     1
 92
        8
176
     1
 66
     7
176
     1
 43
1.0
176
     1
 76
     1
176
     1
 77
     6
176
     1
 78
     2
176
     1
 67
     7
176
     1
 79
     5
176
     1
170
     0
176
     1
171
     0
176
     1
290
     0
176
     1
 93
        1
176
     1
 44
0.0
176
     1
173
     0
176
     1
  0
VISUALSTYLE
  5
5B7
102
{ACAD_REACTORS
330
5AB
102
}
330
5AB
100
AcDbVisualStyle
  2
Brighten
 70
    12
177
     2
291
     1
 71
     2
176
     1
 72
     2
176
     1
 73
     0
176
     1
 90
        0
176
     1
 40
-0.6
176
     1
 41
-30.0
176
     1
 62
     5
 63
     7
421
 16777215
176
     1
 74
     1
176
     1
 91
        4
176
     1
 64
     7
176
     1
 65
   257
176
     1
 75
     1
176
     1
175
     1
176
     1
 42
1.0
176
     1
 92
        8
176
     1
 66
     7
176
     1
 43
1.0
176
     1
 76
     1
176
     1
 77
     6
176
     1
 78
     2
176
     1
 67
     7
176
     1
 79
     5
176
     1
170
     0
176
     1
171
     0
176
     1
290
     0
176
     1
 93
        1
176
     1
 44
50.0
176
     1
173
     0
176
     1
  0
VISUALSTYLE
  5
5BB
102
{ACAD_REACTORS
330
5AB
102
}
330
5AB
100
AcDbVisualStyle
  2
ColorChange
 70
    16
177
     2
291
     1
 71
     2
176
     1
 72
     2
176
     1
 73
     3
176
     1
 90
        0
176
     1
 40
-0.6
176
     1
 41
-30.0
176
     1
 62
     5
 63
     8
421
  8421504
176
     1
 74
     1
176
     1
 91
        4
176
     1
 64
     7
176
     1
 65
   257
176
     1
 75
     1
176
     1
175
     1
176
     1
 42
1.0
176
     1
 92
        8
176
     1
 66
     8
424
  8421504
176
     1
 43
1.0
176
     1
 76
     1
176
     1
 77
     6
176
     1
 78
     2
176
     1
 67
     7
176
     1
 79
     5
176
     1
170
     0
176
     1
171
     0
176
     1
290
     0
176
     1
 93
        1
176
     1
 44
0.0
176
     1
173
     0
176
     1
  0
VISUALSTYLE
  5
5B5
102
{ACAD_REACTORS
330
5AB
102
}
330
5AB
100
AcDbVisualStyle
  2
Conceptual
 70
     9
177
     2
291
     0
 71
     3
176
     1
 72
     2
176
     1
 73
     0
176
     1
 90
        0
176
     1
 40
-0.6
176
     1
 41
-30.0
176
     1
 62
     5
 63
     7
421
 16777215
176
     1
 74
     2
176
     1
 91
        2
176
     1
 64
     7
176
     1
 65
   257
176
     1
 75
     1
176
     1
175
     1
176
     1
 42
40.0
176
     1
 92
        8
176
     1
 66
     7
176
     1
 43
1.0
176
     1
 76
     1
176
     1
 77
     6
176
     1
 78
     2
176
     1
 67
     7
176
     1
 79
     3
176
     1
170
     0
176
     1
171
     0
176
     1
290
     0
176
     1
 93
        1
176
     1
 44
0.0
176
     1
173
     0
176
     1
  0
VISUALSTYLE
  5
5B6
102
{ACAD_REACTORS
330
5AB
102
}
330
5AB
100
AcDbVisualStyle
  2
Dim
 70
    11
177
     2
291
     1
 71
     2
176
     1
 72
     2
176
     1
 73
     0
176
     1
 90
        0
176
     1
 40
-0.6
176
     1
 41
-30.0
176
     1
 62
     5
 63
     7
421
 16777215
176
     1
 74
     1
176
     1
 91
        4
176
     1
 64
     7
176
     1
 65
   257
176
     1
 75
     1
176
     1
175
     1
176
     1
 42
1.0
176
     1
 92
        8
176
     1
 66
     7
176
     1
 43
1.0
176
     1
 76
     1
176
     1
 77
     6
176
     1
 78
     2
176
     1
 67
     7
176
     1
 79
     5
176
     1
170
     0
176
     1
171
     0
176
     1
290
     0
176
     1
 93
        1
176
     1
 44
-50.0
176
     1
173
     0
176
     1
  0
VISUALSTYLE
  5
5BA
102
{ACAD_REACTORS
330
5AB
102
}
330
5AB
100
AcDbVisualStyle
  2
Facepattern
 70
    15
177
     2
291
     1
 71
     2
176
     1
 72
     2
176
     1
 73
     0
176
     1
 90
        0
176
     1
 40
-0.6
176
     1
 41
-30.0
176
     1
 62
     5
 63
     7
421
 16777215
176
     1
 74
     1
176
     1
 91
        4
176
     1
 64
     7
176
     1
 65
   257
176
     1
 75
     1
176
     1
175
     1
176
     1
 42
1.0
176
     1
 92
        8
176
     1
 66
     7
176
     1
 43
1.0
176
     1
 76
     1
176
     1
 77
     6
176
     1
 78
     2
176
     1
 67
     7
176
     1
 79
     5
176
     1
170
     0
176
     1
171
     0
176
     1
290
     0
176
     1
 93
        1
176
     1
 44
0.0
176
     1
173
     0
176
     1
  0
VISUALSTYLE
  5
5AC
102
{ACAD_REACTORS
330
5AB
102
}
330
5AB
100
AcDbVisualStyle
  2
Flat
 70
     0
177
     2
291
     1
 71
     2
176
     1
 72
     1
176
     1
 73
     1
176
     1
 90
        2
176
     1
 40
-0.6
176
     1
 41
30.0
176
     1
 62
     5
 63
     7
421
 16777215
176
     1
 74
     0
176
     1
 91
        4
176
     1
 64
     7
176
     1
 65
   257
176
     1
 75
     1
176
     1
175
     1
176
     1
 42
1.0
176
     1
 92
        8
176
     1
 66
     7
176
     1
 43
1.0
176
     1
 76
     1
176
     1
 77
     6
176
     1
 78
     2
176
     1
 67
     7
176
     1
 79
     5
176
     1
170
     0
176
     1
171
     0
176
     1
290
     0
176
     1
 93
       13
176
     1
 44
0.0
176
     1
173
     0
176
     1
  0
VISUALSTYLE
  5
5AD
102
{ACAD_REACTORS
330
5AB
102
}
330
5AB
100
AcDbVisualStyle
  2
FlatWithEdges
 70
     1
177
     2
291
     1
 71
     2
176
     1
 72
     1
176
     1
 73
     1
176
     1
 90
        2
176
     1
 40
-0.6
176
     1
 41
30.0
176
     1
 62
     5
 63
     7
421
 16777215
176
     1
 74
     1
176
     1
 91
        4
176
     1
 64
     7
176
     1
 65
   257
176
     1
 75
     1
176
     1
175
     1
176
     1
 42
1.0
176
     1
 92
        0
176
     1
 66
   257
176
     1
 43
1.0
176
     1
 76
     1
176
     1
 77
     6
176
     1
 78
     2
176
     1
 67
     7
176
     1
 79
     5
176
     1
170
     0
176
     1
171
     0
176
     1
290
     0
176
     1
 93
       13
176
     1
 44
0.0
176
     1
173
     0
176
     1
  0
VISUALSTYLE
  5
5AE
102
{ACAD_REACTORS
330
5AB
102
}
330
5AB
100
AcDbVisualStyle
  2
Gouraud
 70
     2
177
     2
291
     1
 71
     2
176
     1
 72
     2
176
     1
 73
     1
176
     1
 90
        2
176
     1
 40
-0.6
176
     1
 41
30.0
176
     1
 62
     5
 63
     7
421
 16777215
176
     1
 74
     0
176
     1
 91
        4
176
     1
 64
     7
176
     1
 65
   257
176
     1
 75
     1
176
     1
175
     1
176
     1
 42
1.0
176
     1
 92
        0
176
     1
 66
     7
176
     1
 43
1.0
176
     1
 76
     1
176
     1
 77
     6
176
     1
 78
     2
176
     1
 67
     7
176
     1
 79
     5
176
     1
170
     0
176
     1
171
     0
176
     1
290
     0
176
     1
 93
       13
176
     1
 44
0.0
176
     1
173
     0
176
     1
  0
VISUALSTYLE
  5
5AF
102
{ACAD_REACTORS
330
5AB
102
}
330
5AB
100
AcDbVisualStyle
  2
GouraudWithEdges
 70
     3
177
     2
291
     1
 71
     2
176
     1
 72
     2
176
     1
 73
     1
176
     1
 90
        2
176
     1
 40
-0.6
176
     1
 41
30.0
176
     1
 62
     5
 63
     7
421
 16777215
176
     1
 74
     1
176
     1
 91
        4
176
     1
 64
     7
176
     1
 65
   257
176
     1
 75
     1
176
     1
175
     1
176
     1
 42
1.0
176
     1
 92
        0
176
     1
 66
   257
176
     1
 43
1.0
176
     1
 76
     1
176
     1
 77
     6
176
     1
 78
     2
176
     1
 67
     7
176
     1
 79
     5
176
     1
170
     0
176
     1
171
     0
176
     1
290
     0
176
     1
 93
       13
176
     1
 44
0.0
176
     1
173
     0
176
     1
  0
VISUALSTYLE
  5
5B9
102
{ACAD_REACTORS
330
5AB
102
}
330
5AB
100
AcDbVisualStyle
  2
Linepattern
 70
    14
177
     2
291
     1
 71
     2
176
     1
 72
     2
176
     1
 73
     0
176
     1
 90
        0
176
     1
 40
-0.6
176
     1
 41
-30.0
176
     1
 62
     5
 63
     7
421
 16777215
176
     1
 74
     1
176
     1
 91
        4
176
     1
 64
     7
176
     1
 65
   257
176
     1
 75
     7
176
     1
175
     7
176
     1
 42
1.0
176
     1
 92
        8
176
     1
 66
     7
176
     1
 43
1.0
176
     1
 76
     1
176
     1
 77
     6
176
     1
 78
     2
176
     1
 67
     7
176
     1
 79
     5
176
     1
170
     0
176
     1
171
     0
176
     1
290
     0
176
     1
 93
        1
176
     1
 44
0.0
176
     1
173
     0
176
     1
  0
VISUALSTYLE
  5
5B4
102
{ACAD_REACTORS
330
5AB
102
}
330
5AB
100
AcDbVisualStyle
  2
Realistic
 70
     8
177
     2
291
     0
 71
     2
176
     1
 72
     2
176
     1
 73
     0
176
     1
 90
        0
176
     1
 40
-0.6
176
     1
 41
-30.0
176
     1
 62
     5
 63
     7
421
 16777215
176
     1
 74
     1
176
     1
 91
        0
176
     1
 64
     7
176
     1
 65
   257
176
     1
 75
     1
176
     1
175
     1
176
     1
 42
1.0
176
     1
 92
        8
176
     1
 66
     8
424
  7895160
176
     1
 43
1.0
176
     1
 76
     1
176
     1
 77
     6
176
     1
 78
     2
176
     1
 67
     7
176
     1
 79
     5
176
     1
170
     0
176
     1
171
     0
176
     1
290
     0
176
     1
 93
       13
176
     1
 44
0.0
176
     1
173
     0
176
     1
  0
VISUALSTYLE
  5
5B8
102
{ACAD_REACTORS
330
5AB
102
}
330
5AB
100
AcDbVisualStyle
  2
Thicken
 70
    13
177
     2
291
     1
 71
     2
176
     1
 72
     2
176
     1
 73
     0
176
     1
 90
        0
176
     1
 40
-0.6
176
     1
 41
-30.0
176
     1
 62
     5
 63
     7
421
 16777215
176
     1
 74
     1
176
     1
 91
        4
176
     1
 64
     7
176
     1
 65
   257
176
     1
 75
     1
176
     1
175
     1
176
     1
 42
1.0
176
     1
 92
       12
176
     1
 66
     7
176
     1
 43
1.0
176
     1
 76
     1
176
     1
 77
     6
176
     1
 78
     2
176
     1
 67
     7
176
     1
 79
     5
176
     1
170
     0
176
     1
171
     0
176
     1
290
     0
176
     1
 93
        1
176
     1
 44
0.0
176
     1
173
     0
176
     1
  0
XRECORD
  5
5D1
102
{ACAD_REACTORS
330
5C1
102
}
330
5C1
100
AcDbXrecord
280
     1
290
     1
  0
XRECORD
  5
5CA
102
{ACAD_REACTORS
330
5C1
102
}
330
5C1
100
AcDbXrecord
280
     1
1000
auto
  0
XRECORD
  5
5CB
102
{ACAD_REACTORS
330
5C1
102
}
330
5C1
100
AcDbXrecord
280
     1
1000
auto
  0
XRECORD
  5
5C5
102
{ACAD_REACTORS
330
5C1
102
}
330
5C1
100
AcDbXrecord
280
     1
1000
auto
  0
XRECORD
  5
5C8
102
{ACAD_REACTORS
330
5C1
102
}
330
5C1
100
AcDbXrecord
280
     1
1000
auto
  0
XRECORD
  5
5C9
102
{ACAD_REACTORS
330
5C1
102
}
330
5C1
100
AcDbXrecord
280
     1
 90
        1
  0
XRECORD
  5
5CE
102
{ACAD_REACTORS
330
5C1
102
}
330
5C1
100
AcDbXrecord
280
     1
 40
10.0
  0
XRECORD
  5
5CC
102
{ACAD_REACTORS
330
5C1
102
}
330
5C1
100
AcDbXrecord
280
     1
 40
10.0
  0
XRECORD
  5
5C2
102
{ACAD_REACTORS
330
5C1
102
}
330
5C1
100
AcDbXrecord
280
     1
 40
10.0
  0
XRECORD
  5
5D5
102
{ACAD_REACTORS
330
5C1
102
}
330
5C1
100
AcDbXrecord
280
     1
 40
10.0
  0
XRECORD
  5
5C4
102
{ACAD_REACTORS
330
5C1
102
}
330
5C1
100
AcDbXrecord
280
     1
290
     0
  0
XRECORD
  5
5CD
102
{ACAD_REACTORS
330
5C1
102
}
330
5C1
100
AcDbXrecord
280
     1
 90
        1
  0
XRECORD
  5
5D3
102
{ACAD_REACTORS
330
5C1
102
}
330
5C1
100
AcDbXrecord
280
     1
 40
0.0
  0
XRECORD
  5
5D4
102
{ACAD_REACTORS
330
5C1
102
}
330
5C1
100
AcDbXrecord
280
     1
 40
0.0
  0
XRECORD
  5
5C3
102
{ACAD_REACTORS
330
5C1
102
}
330
5C1
100
AcDbXrecord
280
     1
1000
Portrait
  0
XRECORD
  5
5C6
102
{ACAD_REACTORS
330
5C1
102
}
330
5C1
100
AcDbXrecord
280
     1
 40
297.0
  0
XRECORD
  5
5CF
102
{ACAD_REACTORS
330
5C1
102
}
330
5C1
100
AcDbXrecord
280
     1
 40
210.0
  0
XRECORD
  5
5C7
102
{ACAD_REACTORS
330
5C1
102
}
330
5C1
100
AcDbXrecord
280
     1
1000
1:1
  0
XRECORD
  5
5D2
102
{ACAD_REACTORS
330
5C1
102
}
330
5C1
100
AcDbXrecord
280
     1
290
     1
  0
XRECORD
  5
5D0
102
{ACAD_REACTORS
330
5C1
102
}
330
5C1
100
AcDbXrecord
280
     1
 90
        4
  0
ENDSEC
  0
EOF
