  0
SECTION
  2
HEADER
  9
$ACADVER
  1
AC1024
  9
$ACADMAINTVER
 70
     6
  9
$DWGCODEPAGE
  3
ASCII
  9
$INSBASE
 10
0.0
 20
0.0
 30
0.0
  9
$EXTMIN
 10
1.000000000000000E+20
 20
1.000000000000000E+20
 30
1.000000000000000E+20
  9
$EXTMAX
 10
-1.000000000000000E+20
 20
-1.000000000000000E+20
 30
-1.000000000000000E+20
  9
$LIMMIN
 10
0.0
 20
0.0
  9
$LIMMAX
 10
12.0
 20
9.0
  9
$ORTHOMODE
 70
     0
  9
$REGENMODE
 70
     1
  9
$FILLMODE
 70
     1
  9
$QTEXTMODE
 70
     0
  9
$MIRRTEXT
 70
     1
  9
$LTSCALE
 40
1.0
  9
$ATTMODE
 70
     1
  9
$TEXTSIZE
 40
0.2
  9
$TRACEWID
 40
0.05
  9
$TEXTSTYLE
  7
Standard
  9
$CLAYER
  8
0
  9
$CELTYPE
  6
ByLayer
  9
$CECOLOR
 62
   178
  9
$CELTSCALE
 40
1.0
  9
$DISPSILH
 70
     0
  9
$DIMSCALE
 40
1.0
  9
$DIMASZ
 40
2.5
  9
$DIMEXO
 40
0.625
  9
$DIMDLI
 40
0.38
  9
$DIMRND
 40
0.0
  9
$DIMDLE
 40
0.0
  9
$DIMEXE
 40
1.25
  9
$DIMTP
 40
0.0
  9
$DIMTM
 40
0.0
  9
$DIMTXT
 40
2.5
  9
$DIMCEN
 40
0.09
  9
$DIMTSZ
 40
0.0
  9
$DIMTOL
 70
     0
  9
$DIMLIM
 70
     0
  9
$DIMTIH
 70
     1
  9
$DIMTOH
 70
     1
  9
$DIMSE1
 70
     0
  9
$DIMSE2
 70
     0
  9
$DIMTAD
 70
     0
  9
$DIMZIN
 70
     8
  9
$DIMBLK
  1

  9
$DIMASO
 70
     1
  9
$DIMSHO
 70
     1
  9
$DIMPOST
  1

  9
$DIMAPOST
  1

  9
$DIMALT
 70
     0
  9
$DIMALTD
 70
     2
  9
$DIMALTF
 40
25.4
  9
$DIMLFAC
 40
1.0
  9
$DIMTOFL
 70
     0
  9
$DIMTVP
 40
0.0
  9
$DIMTIX
 70
     0
  9
$DIMSOXD
 70
     0
  9
$DIMSAH
 70
     0
  9
$DIMBLK1
  1

  9
$DIMBLK2
  1

  9
$DIMSTYLE
  2
Standard
  9
$DIMCLRD
 70
   178
  9
$DIMCLRE
 70
   178
  9
$DIMCLRT
 70
   178
  9
$DIMTFAC
 40
1.0
  9
$DIMGAP
 40
0.625
  9
$DIMJUST
 70
     0
  9
$DIMSD1
 70
     0
  9
$DIMSD2
 70
     0
  9
$DIMTOLJ
 70
     1
  9
$DIMTZIN
 70
     0
  9
$DIMALTZ
 70
     0
  9
$DIMALTTZ
 70
     0
  9
$DIMUPT
 70
     0
  9
$DIMDEC
 70
     4
  9
$DIMTDEC
 70
     4
  9
$DIMALTU
 70
     2
  9
$DIMALTTD
 70
     2
  9
$DIMTXSTY
  7
Standard
  9
$DIMAUNIT
 70
     0
  9
$DIMADEC
 70
     0
  9
$DIMALTRND
 40
0.0
  9
$DIMAZIN
 70
     2
  9
$DIMDSEP
 70
    46
  9
$DIMATFIT
 70
     3
  9
$DIMFRAC
 70
     0
  9
$DIMLDRBLK
  1

  9
$DIMLUNIT
 70
     2
  9
$DIMLWD
 70
    -2
  9
$DIMLWE
 70
    -2
  9
$DIMTMOVE
 70
     0
  9
$DIMFXL
 40
1.0
  9
$DIMFXLON
 70
     0
  9
$DIMJOGANG
 40
0.7853981633974483
  9
$DIMTFILL
 70
     0
  9
$DIMTFILLCLR
 70
     0
  9
$DIMARCSYM
 70
     0
  9
$DIMLTYPE
  6

  9
$DIMLTEX1
  6

  9
$DIMLTEX2
  6

  9
$DIMTXTDIRECTION
 70
     0
  9
$LUNITS
 70
     2
  9
$LUPREC
 70
     4
  9
$SKETCHINC
 40
0.1
  9
$FILLETRAD
 40
0.5
  9
$AUNITS
 70
     0
  9
$AUPREC
 70
     0
  9
$MENU
  1
.
  9
$ELEVATION
 40
0.0
  9
$PELEVATION
 40
0.0
  9
$THICKNESS
 40
0.0
  9
$LIMCHECK
 70
     0
  9
$CHAMFERA
 40
0.5
  9
$CHAMFERB
 40
0.5
  9
$CHAMFERC
 40
1.0
  9
$CHAMFERD
 40
0.0
  9
$SKPOLY
 70
     0
  9
$TDCREATE
 40
2456320.053634259
  9
$TDUCREATE
 40
2456320.261967592
  9
$TDUPDATE
 40
2456320.053634259
  9
$TDUUPDATE
 40
2456320.261967592
  9
$TDINDWG
 40
0.0000000116
  9
$TDUSRTIMER
 40
0.0000000116
  9
$USRTIMER
 70
     1
  9
$ANGBASE
 50
0.0
  9
$ANGDIR
 70
     0
  9
$PDMODE
 70
     0
  9
$PDSIZE
 40
0.0
  9
$PLINEWID
 40
0.0
  9
$SPLFRAME
 70
     0
  9
$SPLINETYPE
 70
     6
  9
$SPLINESEGS
 70
     8
  9
$HANDSEED
  5
253
  9
$SURFTAB1
 70
     6
  9
$SURFTAB2
 70
     6
  9
$SURFTYPE
 70
     6
  9
$SURFU
 70
     6
  9
$SURFV
 70
     6
  9
$UCSBASE
  2

  9
$UCSNAME
  2

  9
$UCSORG
 10
0.0
 20
0.0
 30
0.0
  9
$UCSXDIR
 10
1.0
 20
0.0
 30
0.0
  9
$UCSYDIR
 10
0.0
 20
1.0
 30
0.0
  9
$UCSORTHOREF
  2

  9
$UCSORTHOVIEW
 70
     0
  9
$UCSORGTOP
 10
0.0
 20
0.0
 30
0.0
  9
$UCSORGBOTTOM
 10
0.0
 20
0.0
 30
0.0
  9
$UCSORGLEFT
 10
0.0
 20
0.0
 30
0.0
  9
$UCSORGRIGHT
 10
0.0
 20
0.0
 30
0.0
  9
$UCSORGFRONT
 10
0.0
 20
0.0
 30
0.0
  9
$UCSORGBACK
 10
0.0
 20
0.0
 30
0.0
  9
$PUCSBASE
  2

  9
$PUCSNAME
  2

  9
$PUCSORG
 10
0.0
 20
0.0
 30
0.0
  9
$PUCSXDIR
 10
1.0
 20
0.0
 30
0.0
  9
$PUCSYDIR
 10
0.0
 20
1.0
 30
0.0
  9
$PUCSORTHOREF
  2

  9
$PUCSORTHOVIEW
 70
     0
  9
$PUCSORGTOP
 10
0.0
 20
0.0
 30
0.0
  9
$PUCSORGBOTTOM
 10
0.0
 20
0.0
 30
0.0
  9
$PUCSORGLEFT
 10
0.0
 20
0.0
 30
0.0
  9
$PUCSORGRIGHT
 10
0.0
 20
0.0
 30
0.0
  9
$PUCSORGFRONT
 10
0.0
 20
0.0
 30
0.0
  9
$PUCSORGBACK
 10
0.0
 20
0.0
 30
0.0
  9
$USERI1
 70
     0
  9
$USERI2
 70
     0
  9
$USERI3
 70
     0
  9
$USERI4
 70
     0
  9
$USERI5
 70
     0
  9
$USERR1
 40
0.0
  9
$USERR2
 40
0.0
  9
$USERR3
 40
0.0
  9
$USERR4
 40
0.0
  9
$USERR5
 40
0.0
  9
$WORLDVIEW
 70
     1
  9
$SHADEDGE
 70
     3
  9
$SHADEDIF
 70
    70
  9
$TILEMODE
 70
     1
  9
$MAXACTVP
 70
    64
  9
$PINSBASE
 10
0.0
 20
0.0
 30
0.0
  9
$PLIMCHECK
 70
     0
  9
$PEXTMIN
 10
1.000000000000000E+20
 20
1.000000000000000E+20
 30
1.000000000000000E+20
  9
$PEXTMAX
 10
-1.000000000000000E+20
 20
-1.000000000000000E+20
 30
-1.000000000000000E+20
  9
$PLIMMIN
 10
0.0
 20
0.0
  9
$PLIMMAX
 10
12.0
 20
9.0
  9
$UNITMODE
 70
     0
  9
$VISRETAIN
 70
     1
  9
$PLINEGEN
 70
     0
  9
$PSLTSCALE
 70
     1
  9
$TREEDEPTH
 70
  3020
  9
$CMLSTYLE
  2
Standard
  9
$CMLJUST
 70
     0
  9
$CMLSCALE
 40
1.0
  9
$PROXYGRAPHICS
 70
     1
  9
$MEASUREMENT
 70
     1
  9
$CELWEIGHT
370
    -1
  9
$ENDCAPS
280
     0
  9
$JOINSTYLE
280
     0
  9
$LWDISPLAY
290
     0
  9
$INSUNITS
 70
     4
  9
$HYPERLINKBASE
  1

  9
$STYLESHEET
  1

  9
$XEDIT
290
     1
  9
$CEPSNTYPE
380
     0
  9
$PSTYLEMODE
290
     1
  9
$FINGERPRINTGUID
  2
{E0A40C9B-EBA5-02B6-7D0A-5F0DEC9637BB}
  9
$VERSIONGUID
  2
{FAEB1C32-E019-11D5-929B-00C0DF256EC4}
  9
$EXTNAMES
290
     1
  9
$PSVPSCALE
 40
0.0
  9
$OLESTARTUP
290
     0
  9
$SORTENTS
280
   127
  9
$INDEXCTL
280
     0
  9
$HIDETEXT
280
     1
  9
$XCLIPFRAME
280
     2
  9
$HALOGAP
280
     0
  9
$OBSCOLOR
 70
   257
  9
$OBSLTYPE
280
     0
  9
$INTERSECTIONDISPLAY
280
     0
  9
$INTERSECTIONCOLOR
 70
   257
  9
$DIMASSOC
280
     2
  9
$PROJECTNAME
  1

  9
$CAMERADISPLAY
290
     0
  9
$LENSLENGTH
 40
50.0
  9
$CAMERAHEIGHT
 40
0.0
  9
$STEPSPERSEC
 40
2.0
  9
$STEPSIZE
 40
6.0
  9
$3DDWFPREC
 40
2.0
  9
$PSOLWIDTH
 40
0.25
  9
$PSOLHEIGHT
 40
4.0
  9
$LOFTANG1
 40
1.570796326794897
  9
$LOFTANG2
 40
1.570796326794897
  9
$LOFTMAG1
 40
0.0
  9
$LOFTMAG2
 40
0.0
  9
$LOFTPARAM
 70
     7
  9
$LOFTNORMALS
280
     1
  9
$LATITUDE
 40
37.795
  9
$LONGITUDE
 40
-122.394
  9
$NORTHDIRECTION
 40
0.0
  9
$TIMEZONE
 70
 -8000
  9
$LIGHTGLYPHDISPLAY
280
     1
  9
$TILEMODELIGHTSYNCH
280
     1
  9
$SOLIDHIST
280
     1
  9
$SHOWHIST
280
     1
  9
$DWFFRAME
280
     2
  9
$DGNFRAME
280
     2
  9
$REALWORLDSCALE
290
     1
  9
$INTERFERECOLOR
 62
   256
  9
$CSHADOW
280
     0
  9
$SHADOWPLANELOCATION
 40
0.0
  0
ENDSEC
  0
SECTION
  2
CLASSES
  0
CLASS
  1
ACDBDICTIONARYWDFLT
  2
AcDbDictionaryWithDefault
  3
ObjectDBX Classes
 90
        0
 91
        4
280
     0
281
     0
  0
CLASS
  1
VISUALSTYLE
  2
AcDbVisualStyle
  3
ObjectDBX Classes
 90
     4095
 91
        4
280
     0
281
     0
  0
CLASS
  1
MATERIAL
  2
AcDbMaterial
  3
ObjectDBX Classes
 90
     1153
 91
        4
280
     0
281
     0
  0
ENDSEC
  0
SECTION
  2
TABLES
  0
TABLE
  2
VPORT
  5
1C9
330
0
100
AcDbSymbolTable
 70
     1
  0
VPORT
  5
1E9
330
1C9
100
AcDbSymbolTableRecord
100
AcDbViewportTableRecord
  2
*Active
 70
     0
 10
0.0
 20
0.0
 11
1.0
 21
1.0
 12
10.42990654205607
 22
4.5
 13
0.0
 23
0.0
 14
0.5
 24
0.5
 15
0.5
 25
0.5
 16
0.0
 26
0.0
 36
1.0
 17
0.0
 27
0.0
 37
0.0
 40
9.0
 41
1.972972972850329
 42
50.0
 43
0.0
 44
0.0
 50
0.0
 51
0.0
 71
     0
 72
   100
 73
     1
 74
     3
 75
     0
 76
     0
 77
     0
 78
     0
281
     0
 65
     1
110
0.0
120
0.0
130
0.0
111
1.0
121
0.0
131
0.0
112
0.0
122
1.0
132
0.0
 79
     0
146
0.0
 60
     3
 61
     5
292
     1
282
     1
141
0.0
142
0.0
 63
   250
  0
ENDTAB
  0
TABLE
  2
LTYPE
  5
1C6
330
0
100
AcDbSymbolTable
 70
    19
  0
LTYPE
  5
1D4
330
1C6
100
AcDbSymbolTableRecord
100
AcDbLinetypeTableRecord
  2
ByBlock
 70
     0
  3

 72
    65
 73
     0
 40
0.0
  0
LTYPE
  5
1D5
330
1C6
100
AcDbSymbolTableRecord
100
AcDbLinetypeTableRecord
  2
ByLayer
 70
     0
  3

 72
    65
 73
     0
 40
0.0
  0
LTYPE
  5
1D6
330
1C6
100
AcDbSymbolTableRecord
100
AcDbLinetypeTableRecord
  2
Continuous
 70
     0
  3
Solid line
 72
    65
 73
     0
 40
0.0
  0
LTYPE
  5
216
330
1C6
100
AcDbSymbolTableRecord
100
AcDbLinetypeTableRecord
  2
BORDER
 70
     0
  3

 72
    65
 73
     6
 40
42.0
 49
12.0
 74
     0
 49
-6.0
 74
     0
 49
12.0
 74
     0
 49
-5.95
 74
     0
 49
0.1
 74
     0
 49
-5.95
 74
     0
  0
LTYPE
  5
217
330
1C6
100
AcDbSymbolTableRecord
100
AcDbLinetypeTableRecord
  2
BORDER2
 70
     0
  3

 72
    65
 73
     6
 40
21.0
 49
6.0
 74
     0
 49
-3.0
 74
     0
 49
6.0
 74
     0
 49
-2.95
 74
     0
 49
0.1
 74
     0
 49
-2.95
 74
     0
  0
LTYPE
  5
218
330
1C6
100
AcDbSymbolTableRecord
100
AcDbLinetypeTableRecord
  2
BORDERX2
 70
     0
  3

 72
    65
 73
     6
 40
84.0
 49
24.0
 74
     0
 49
-12.0
 74
     0
 49
24.0
 74
     0
 49
-11.95
 74
     0
 49
0.1
 74
     0
 49
-11.95
 74
     0
  0
LTYPE
  5
219
330
1C6
100
AcDbSymbolTableRecord
100
AcDbLinetypeTableRecord
  2
CENTER
 70
     0
  3

 72
    65
 73
     4
 40
50.0
 49
32.0
 74
     0
 49
-6.0
 74
     0
 49
6.0
 74
     0
 49
-6.0
 74
     0
  0
LTYPE
  5
21A
330
1C6
100
AcDbSymbolTableRecord
100
AcDbLinetypeTableRecord
  2
CENTER2
 70
     0
  3

 72
    65
 73
     4
 40
25.0
 49
16.0
 74
     0
 49
-3.0
 74
     0
 49
3.0
 74
     0
 49
-3.0
 74
     0
  0
LTYPE
  5
21B
330
1C6
100
AcDbSymbolTableRecord
100
AcDbLinetypeTableRecord
  2
CENTERX2
 70
     0
  3

 72
    65
 73
     4
 40
100.0
 49
64.0
 74
     0
 49
-12.0
 74
     0
 49
12.0
 74
     0
 49
-12.0
 74
     0
  0
LTYPE
  5
21C
330
1C6
100
AcDbSymbolTableRecord
100
AcDbLinetypeTableRecord
  2
DASHDOT
 70
     0
  3

 72
    65
 73
     4
 40
24.0
 49
12.0
 74
     0
 49
-5.95
 74
     0
 49
0.1
 74
     0
 49
-5.95
 74
     0
  0
LTYPE
  5
21D
330
1C6
100
AcDbSymbolTableRecord
100
AcDbLinetypeTableRecord
  2
DASHDOT2
 70
     0
  3

 72
    65
 73
     4
 40
12.0
 49
6.0
 74
     0
 49
-2.95
 74
     0
 49
0.1
 74
     0
 49
-2.95
 74
     0
  0
LTYPE
  5
21E
330
1C6
100
AcDbSymbolTableRecord
100
AcDbLinetypeTableRecord
  2
DASHDOTX2
 70
     0
  3

 72
    65
 73
     4
 40
48.0
 49
24.0
 74
     0
 49
-11.95
 74
     0
 49
0.1
 74
     0
 49
-11.95
 74
     0
  0
LTYPE
  5
21F
330
1C6
100
AcDbSymbolTableRecord
100
AcDbLinetypeTableRecord
  2
DASHED
 70
     0
  3

 72
    65
 73
     2
 40
18.0
 49
12.0
 74
     0
 49
-6.0
 74
     0
  0
LTYPE
  5
220
330
1C6
100
AcDbSymbolTableRecord
100
AcDbLinetypeTableRecord
  2
DASHED2
 70
     0
  3

 72
    65
 73
     2
 40
9.0
 49
6.0
 74
     0
 49
-3.0
 74
     0
  0
LTYPE
  5
221
330
1C6
100
AcDbSymbolTableRecord
100
AcDbLinetypeTableRecord
  2
DASHEDX2
 70
     0
  3

 72
    65
 73
     2
 40
36.0
 49
24.0
 74
     0
 49
-12.0
 74
     0
  0
LTYPE
  5
222
330
1C6
100
AcDbSymbolTableRecord
100
AcDbLinetypeTableRecord
  2
DIVIDE
 70
     0
  3

 72
    65
 73
     6
 40
30.0
 49
12.0
 74
     0
 49
-5.9
 74
     0
 49
0.15
 74
     0
 49
-5.9
 74
     0
 49
0.15
 74
     0
 49
-5.9
 74
     0
  0
LTYPE
  5
223
330
1C6
100
AcDbSymbolTableRecord
100
AcDbLinetypeTableRecord
  2
DIVIDE2
 70
     0
  3

 72
    65
 73
     6
 40
15.0
 49
6.0
 74
     0
 49
-2.9
 74
     0
 49
0.15
 74
     0
 49
-2.9
 74
     0
 49
0.15
 74
     0
 49
-2.9
 74
     0
  0
LTYPE
  5
224
330
1C6
100
AcDbSymbolTableRecord
100
AcDbLinetypeTableRecord
  2
DIVIDEX2
 70
     0
  3

 72
    65
 73
     6
 40
60.0
 49
24.0
 74
     0
 49
-11.9
 74
     0
 49
0.15
 74
     0
 49
-11.9
 74
     0
 49
0.15
 74
     0
 49
-11.9
 74
     0
  0
LTYPE
  5
225
330
1C6
100
AcDbSymbolTableRecord
100
AcDbLinetypeTableRecord
  2
DOT
 70
     0
  3

 72
    65
 73
     2
 40
6.3
 49
0.1
 74
     0
 49
-6.2
 74
     0
  0
LTYPE
  5
226
330
1C6
100
AcDbSymbolTableRecord
100
AcDbLinetypeTableRecord
  2
DOT2
 70
     0
  3

 72
    65
 73
     2
 40
3.2
 49
0.1
 74
     0
 49
-3.1
 74
     0
  0
LTYPE
  5
227
330
1C6
100
AcDbSymbolTableRecord
100
AcDbLinetypeTableRecord
  2
DOTX2
 70
     0
  3

 72
    65
 73
     2
 40
12.5
 49
0.1
 74
     0
 49
-12.4
 74
     0
  0
ENDTAB
  0
TABLE
  2
LAYER
  5
1C3
330
0
100
AcDbSymbolTable
 70
    14
  0
LAYER
  5
1D1
330
1C3
100
AcDbSymbolTableRecord
100
AcDbLayerTableRecord
  2
0
 70
     0
 62
     7
420
 16777215
  6
Continuous
370
    25
390
1D0
347
1FE
  0
LAYER
  5
228
330
1C3
100
AcDbSymbolTableRecord
100
AcDbLayerTableRecord
  2
Defpoints
 70
     0
 62
     7
420
 16777215
  6
Continuous
290
     0
370
    -3
390
1D0
347
1FE
  0
LAYER
  5
229
330
1C3
100
AcDbSymbolTableRecord
100
AcDbLayerTableRecord
  2
dipper
 70
     0
 62
   178
420
        0
  6
Continuous
370
     0
390
1D0
347
1FE
  0
LAYER
  5
22A
330
1C3
100
AcDbSymbolTableRecord
100
AcDbLayerTableRecord
  2
mount
 70
     0
 62
     1
420
 16711680
  6
Continuous
370
     0
390
1D0
347
1FE
  0
LAYER
  5
22B
330
1C3
100
AcDbSymbolTableRecord
100
AcDbLayerTableRecord
  2
cross
 70
     0
 62
   253
420
 10526884
  6
Continuous
370
     0
390
1D0
347
1FE
  0
LAYER
  5
22C
330
1C3
100
AcDbSymbolTableRecord
100
AcDbLayerTableRecord
  2
testplate
 70
     0
 62
   178
420
        0
  6
Continuous
370
     0
390
1D0
347
1FE
  0
LAYER
  5
22D
330
1C3
100
AcDbSymbolTableRecord
100
AcDbLayerTableRecord
  2
lever2
 70
     0
 62
   178
420
        0
  6
Continuous
370
     0
390
1D0
347
1FE
  0
LAYER
  5
22E
330
1C3
100
AcDbSymbolTableRecord
100
AcDbLayerTableRecord
  2
bskel
 70
     0
 62
     5
420
      255
  6
Continuous
370
     0
390
1D0
347
1FE
  0
LAYER
  5
22F
330
1C3
100
AcDbSymbolTableRecord
100
AcDbLayerTableRecord
  2
crossplate
 70
     0
 62
   178
420
        0
  6
Continuous
370
     0
390
1D0
347
1FE
  0
LAYER
  5
230
330
1C3
100
AcDbSymbolTableRecord
100
AcDbLayerTableRecord
  2
switchstop
 70
     0
 62
     2
420
 16776960
  6
Continuous
370
     0
390
1D0
347
1FE
  0
LAYER
  5
231
330
1C3
100
AcDbSymbolTableRecord
100
AcDbLayerTableRecord
  2
lever
 70
     0
 62
   178
420
        0
  6
Continuous
370
     0
390
1D0
347
1FE
  0
LAYER
  5
232
330
1C3
100
AcDbSymbolTableRecord
100
AcDbLayerTableRecord
  2
spacer
 70
     0
 62
   178
420
        0
  6
Continuous
370
     0
390
1D0
347
1FE
  0
LAYER
  5
233
330
1C3
100
AcDbSymbolTableRecord
100
AcDbLayerTableRecord
  2
guides
 70
     0
 62
   178
420
        0
  6
Continuous
370
     0
390
1D0
347
1FE
  0
LAYER
  5
234
330
1C3
100
AcDbSymbolTableRecord
100
AcDbLayerTableRecord
  2
cut
 70
     0
 62
   178
420
        0
  6
Continuous
370
     0
390
1D0
347
1FE
  0
ENDTAB
  0
TABLE
  2
STYLE
  5
1C4
330
0
100
AcDbSymbolTable
 70
     2
  0
STYLE
  5
1D2
330
1C4
100
AcDbSymbolTableRecord
100
AcDbTextStyleTableRecord
  2
Standard
 70
     0
 40
0.0
 41
1.0
 50
0.0
 71
     0
 42
0.2
  3
txt
  4

  0
STYLE
  5
238
330
1C4
100
AcDbSymbolTableRecord
100
AcDbTextStyleTableRecord
  2
textstyle0
 70
     0
 40
0.0
 41
1.0
 50
0.0
 71
     0
 42
0.2
  3

  4

1001
ACAD
1000
Liberation Sans
1071
 33554432
  0
ENDTAB
  0
TABLE
  2
VIEW
  5
1C7
330
0
100
AcDbSymbolTable
 70
     0
  0
ENDTAB
  0
TABLE
  2
UCS
  5
1C8
330
0
100
AcDbSymbolTable
 70
     0
  0
ENDTAB
  0
TABLE
  2
APPID
  5
1CA
330
0
100
AcDbSymbolTable
 70
     2
  0
APPID
  5
1D3
330
1CA
100
AcDbSymbolTableRecord
100
AcDbRegAppTableRecord
  2
ACAD
 70
     0
  0
APPID
  5
1FF
330
1CA
100
AcDbSymbolTableRecord
100
AcDbRegAppTableRecord
  2
QCAD
 70
     0
  0
ENDTAB
  0
TABLE
  2
DIMSTYLE
  5
1CB
330
0
100
AcDbSymbolTable
 70
     2
100
AcDbDimStyleTable
  0
DIMSTYLE
105
1E7
330
1CB
100
AcDbSymbolTableRecord
100
AcDbDimStyleTableRecord
  2
Standard
 70
     0
178
     0
340
1D2
  0
DIMSTYLE
105
215
102
{ACAD_REACTORS
330
156
330
157
102
}
330
1CB
100
AcDbSymbolTableRecord
100
AcDbDimStyleTableRecord
  2
QCADDimStyle
 70
     0
 41
2.5
 42
0.625
 44
1.25
 73
     0
 77
     1
140
2.5
147
0.625
178
     0
340
1D2
  0
ENDTAB
  0
TABLE
  2
BLOCK_RECORD
  5
1C2
330
0
100
AcDbSymbolTable
 70
     4
  0
BLOCK_RECORD
  5
1DF
330
1C2
100
AcDbSymbolTableRecord
100
AcDbBlockTableRecord
  2
*Model_Space
340
1E2
 70
     0
280
     1
281
     0
  0
BLOCK_RECORD
  5
1DB
330
1C2
100
AcDbSymbolTableRecord
100
AcDbBlockTableRecord
  2
*Paper_Space
340
1DE
 70
     0
280
     1
281
     0
  0
BLOCK_RECORD
  5
1E3
330
1C2
100
AcDbSymbolTableRecord
100
AcDbBlockTableRecord
  2
*Paper_Space0
340
1E6
 70
     0
280
     1
281
     0
  0
BLOCK_RECORD
  5
235
330
1C2
100
AcDbSymbolTableRecord
100
AcDbBlockTableRecord
  2
motor
340
0
102
{BLKREFS
331
159
102
}
 70
     0
280
     1
281
     0
  0
BLOCK_RECORD
  5
239
330
1C2
100
AcDbSymbolTableRecord
100
AcDbBlockTableRecord
  2
*D2
340
0
 70
     0
280
     1
281
     0
  0
BLOCK_RECORD
  5
245
330
1C2
100
AcDbSymbolTableRecord
100
AcDbBlockTableRecord
  2
*D3
340
0
 70
     0
280
     1
281
     0
  0
ENDTAB
  0
ENDSEC
  0
SECTION
  2
BLOCKS
  0
BLOCK
  5
1E0
330
1DF
100
AcDbEntity
  8
0
100
AcDbBlockBegin
  2
*Model_Space
 70
     0
 10
0.0
 20
0.0
 30
0.0
  3
*Model_Space
  1

  0
ENDBLK
  5
1E1
330
1DF
100
AcDbEntity
  8
0
100
AcDbBlockEnd
  0
BLOCK
  5
1DC
330
1DB
100
AcDbEntity
 67
     1
  8
0
100
AcDbBlockBegin
  2
*Paper_Space
 70
     0
 10
0.0
 20
0.0
 30
0.0
  3
*Paper_Space
  1

  0
ENDBLK
  5
1DD
330
1DB
100
AcDbEntity
 67
     1
  8
0
100
AcDbBlockEnd
  0
BLOCK
  5
1E4
330
1E3
100
AcDbEntity
  8
0
100
AcDbBlockBegin
  2
*Paper_Space0
 70
     0
 10
0.0
 20
0.0
 30
0.0
  3
*Paper_Space0
  1

  0
ENDBLK
  5
1E5
330
1E3
100
AcDbEntity
  8
0
100
AcDbBlockEnd
  0
BLOCK
  5
236
330
235
100
AcDbEntity
  8
0
100
AcDbBlockBegin
  2
motor
 70
     0
 10
0.0
 20
0.0
 30
0.0
  3
motor
  1

  0
LINE
  5
E2
330
235
100
AcDbEntity
  8
cut
100
AcDbLine
 10
-9.91
 20
9.66
 30
0.0
 11
-1.999999999999999
 21
9.66
 31
0.0
  0
LINE
  5
E3
330
235
100
AcDbEntity
  8
cut
100
AcDbLine
 10
9.91
 20
9.66
 30
0.0
 11
9.91
 21
-30.22
 31
0.0
  0
LINE
  5
E4
330
235
100
AcDbEntity
  8
cut
100
AcDbLine
 10
9.91
 20
-30.22
 30
0.0
 11
-9.91
 21
-30.22
 31
0.0
  0
LINE
  5
E5
330
235
100
AcDbEntity
  8
cut
100
AcDbLine
 10
-9.91
 20
-30.22
 30
0.0
 11
-9.91
 21
9.66
 31
0.0
  0
CIRCLE
  5
E6
330
235
100
AcDbEntity
  8
cut
100
AcDbCircle
 10
-5.085
 20
13.47
 30
0.0
 40
2.19
  0
CIRCLE
  5
E7
330
235
100
AcDbEntity
  8
cut
100
AcDbCircle
 10
5.085
 20
13.47
 30
0.0
 40
2.19
  0
CIRCLE
  5
E8
330
235
100
AcDbEntity
  8
cut
100
AcDbCircle
 10
5.085
 20
-33.79
 30
0.0
 40
2.19
  0
CIRCLE
  5
E9
330
235
100
AcDbEntity
  8
cut
100
AcDbCircle
 10
-5.085
 20
-33.79
 30
0.0
 40
2.19
  0
LINE
  5
EA
330
235
100
AcDbEntity
  8
cut
100
AcDbLine
 10
-2.0
 20
12.0
 30
0.0
 11
2.0
 21
12.0
 31
0.0
  0
LINE
  5
EB
330
235
100
AcDbEntity
  8
cut
100
AcDbLine
 10
2.0
 20
12.0
 30
0.0
 11
2.0
 21
9.66
 31
0.0
  0
LINE
  5
EC
330
235
100
AcDbEntity
  8
cut
100
AcDbLine
 10
-2.0
 20
12.0
 30
0.0
 11
-1.999999999999999
 21
9.66
 31
0.0
  0
LINE
  5
ED
330
235
100
AcDbEntity
  8
cut
100
AcDbLine
 10
2.0
 20
9.66
 30
0.0
 11
9.91
 21
9.66
 31
0.0
  0
POINT
  5
F0
330
235
100
AcDbEntity
  8
bskel
100
AcDbPoint
 10
0.0
 20
0.0
 30
0.0
  0
ENDBLK
  5
237
330
235
100
AcDbEntity
  8
0
100
AcDbBlockEnd
  0
BLOCK
  5
243
330
239
100
AcDbEntity
  8
0
100
AcDbBlockBegin
  2
*D2
 70
     1
 10
0.0
 20
0.0
 30
0.0
  3
*D2
  1

  0
LINE
  5
23A
330
239
100
AcDbEntity
  8
bskel
 62
     0
370
    -2
100
AcDbLine
 10
135.0
 20
-55.29606781186548
 30
0.0
 11
135.0
 21
-71.25
 31
0.0
  0
LINE
  5
23B
330
239
100
AcDbEntity
  8
bskel
 62
     0
370
    -2
100
AcDbLine
 10
179.0
 20
-55.29606781186548
 30
0.0
 11
179.0
 21
-71.25
 31
0.0
  0
LINE
  5
23C
330
239
100
AcDbEntity
  8
bskel
 62
     0
370
    -2
100
AcDbLine
 10
137.5
 20
-70.0
 30
0.0
 11
176.5
 21
-70.0
 31
0.0
  0
SOLID
  5
23D
330
239
100
AcDbEntity
  8
bskel
 62
     0
100
AcDbTrace
 10
137.5
 20
-69.58333333333333
 30
0.0
 11
137.5
 21
-70.41666666666667
 31
0.0
 12
135.0
 22
-70.0
 32
0.0
 13
135.0
 23
-70.0
 33
0.0
  0
SOLID
  5
23E
330
239
100
AcDbEntity
  8
bskel
 62
     0
100
AcDbTrace
 10
176.5
 20
-70.41666666666667
 30
0.0
 11
176.5
 21
-69.58333333333333
 31
0.0
 12
179.0
 22
-70.0
 32
0.0
 13
179.0
 23
-70.0
 33
0.0
  0
MTEXT
  5
23F
330
239
100
AcDbEntity
  8
bskel
 62
     0
100
AcDbMText
 10
157.0
 20
-68.125
 30
0.0
 40
2.5
 41
0.0
 46
0.0
 71
     5
 72
     1
  1
\A1;44
 73
     1
 44
1.0
  0
POINT
  5
240
330
239
100
AcDbEntity
  8
Defpoints
 62
     0
100
AcDbPoint
 10
135.0
 20
-54.67106781186548
 30
0.0
  0
POINT
  5
241
330
239
100
AcDbEntity
  8
Defpoints
 62
     0
100
AcDbPoint
 10
179.0
 20
-54.67106781186548
 30
0.0
  0
POINT
  5
242
330
239
100
AcDbEntity
  8
Defpoints
 62
     0
100
AcDbPoint
 10
179.0
 20
-70.0
 30
0.0
  0
ENDBLK
  5
244
330
239
100
AcDbEntity
  8
0
100
AcDbBlockEnd
  0
BLOCK
  5
24F
330
245
100
AcDbEntity
  8
0
100
AcDbBlockBegin
  2
*D3
 70
     1
 10
0.0
 20
0.0
 30
0.0
  3
*D3
  1

  0
LINE
  5
246
330
245
100
AcDbEntity
  8
bskel
 62
     0
370
    -2
100
AcDbLine
 10
139.3
 20
-55.29606781186548
 30
0.0
 11
139.3
 21
-66.72728860936407
 31
0.0
  0
LINE
  5
247
330
245
100
AcDbEntity
  8
bskel
 62
     0
370
    -2
100
AcDbLine
 10
174.7
 20
-55.29606781186548
 30
0.0
 11
174.7
 21
-66.72728860936407
 31
0.0
  0
LINE
  5
248
330
245
100
AcDbEntity
  8
bskel
 62
     0
370
    -2
100
AcDbLine
 10
141.8
 20
-65.47728860936407
 30
0.0
 11
172.2
 21
-65.47728860936407
 31
0.0
  0
SOLID
  5
249
330
245
100
AcDbEntity
  8
bskel
 62
     0
100
AcDbTrace
 10
141.8
 20
-65.0606219426974
 30
0.0
 11
141.8
 21
-65.89395527603074
 31
0.0
 12
139.3
 22
-65.47728860936407
 32
0.0
 13
139.3
 23
-65.47728860936407
 33
0.0
  0
SOLID
  5
24A
330
245
100
AcDbEntity
  8
bskel
 62
     0
100
AcDbTrace
 10
172.2
 20
-65.89395527603074
 30
0.0
 11
172.2
 21
-65.0606219426974
 31
0.0
 12
174.7
 22
-65.47728860936407
 32
0.0
 13
174.7
 23
-65.47728860936407
 33
0.0
  0
MTEXT
  5
24B
330
245
100
AcDbEntity
  8
bskel
 62
     0
100
AcDbMText
 10
157.0
 20
-63.60228860936407
 30
0.0
 40
2.5
 41
0.0
 46
0.0
 71
     5
 72
     1
  1
\A1;35.4
 73
     1
 44
1.0
  0
POINT
  5
24C
330
245
100
AcDbEntity
  8
Defpoints
 62
     0
100
AcDbPoint
 10
139.3
 20
-54.67106781186548
 30
0.0
  0
POINT
  5
24D
330
245
100
AcDbEntity
  8
Defpoints
 62
     0
100
AcDbPoint
 10
174.7
 20
-54.67106781186548
 30
0.0
  0
POINT
  5
24E
330
245
100
AcDbEntity
  8
Defpoints
 62
     0
100
AcDbPoint
 10
174.7
 20
-65.47728860936407
 30
0.0
  0
ENDBLK
  5
250
330
245
100
AcDbEntity
  8
0
100
AcDbBlockEnd
  0
ENDSEC
  0
SECTION
  2
ENTITIES
  0
LINE
  5
F1
330
1DF
100
AcDbEntity
  8
bskel
100
AcDbLine
 10
-14.14213562373095
 20
-13.92893218813452
 30
0.0
 11
-9.263098833543769
 21
-9.049895397947346
 31
0.0
  0
LINE
  5
F2
330
1DF
100
AcDbEntity
  8
bskel
100
AcDbLine
 10
-9.263098833543769
 20
-9.049895397947346
 30
0.0
 11
-7.707463914933371
 21
-10.60553031655775
 31
0.0
  0
LINE
  5
F3
330
1DF
100
AcDbEntity
  8
bskel
100
AcDbLine
 10
-7.707463914933371
 20
-10.60553031655775
 30
0.0
 11
-3.32340187157677
 21
-6.221468273201154
 31
0.0
  0
LINE
  5
F4
330
1DF
100
AcDbEntity
  8
bskel
100
AcDbLine
 10
-3.32340187157677
 20
-6.221468273201154
 30
0.0
 11
-4.879036790187179
 21
-4.665833354590756
 31
0.0
  0
LINE
  5
F5
330
1DF
100
AcDbEntity
  8
bskel
100
AcDbLine
 10
-4.879036790187179
 20
-4.665833354590756
 30
0.0
 11
0.0
 21
0.2132034355964265
 31
0.0
  0
LINE
  5
F6
330
1DF
100
AcDbEntity
  8
bskel
100
AcDbLine
 10
0.0
 20
0.2132034355964265
 30
0.0
 11
4.879036790187179
 21
-4.665833354590756
 31
0.0
  0
LINE
  5
F7
330
1DF
100
AcDbEntity
  8
bskel
100
AcDbLine
 10
4.879036790187179
 20
-4.665833354590756
 30
0.0
 11
3.32340187157677
 21
-6.221468273201154
 31
0.0
  0
LINE
  5
F8
330
1DF
100
AcDbEntity
  8
bskel
100
AcDbLine
 10
3.32340187157677
 20
-6.221468273201154
 30
0.0
 11
7.707463914933371
 21
-10.60553031655775
 31
0.0
  0
LINE
  5
F9
330
1DF
100
AcDbEntity
  8
bskel
100
AcDbLine
 10
7.707463914933371
 20
-10.60553031655775
 30
0.0
 11
9.26309883354378
 21
-9.049895397947356
 31
0.0
  0
LINE
  5
FA
330
1DF
100
AcDbEntity
  8
bskel
100
AcDbLine
 10
9.26309883354378
 20
-9.049895397947356
 30
0.0
 11
14.14213562373095
 21
-13.92893218813452
 31
0.0
  0
LINE
  5
FB
330
1DF
100
AcDbEntity
  8
bskel
100
AcDbLine
 10
14.14213562373095
 20
-13.92893218813452
 30
0.0
 11
9.263098833543772
 21
-18.8079689783217
 31
0.0
  0
LINE
  5
FC
330
1DF
100
AcDbEntity
  8
bskel
100
AcDbLine
 10
9.263098833543772
 20
-18.8079689783217
 30
0.0
 11
7.707463914933371
 21
-17.25233405971129
 31
0.0
  0
LINE
  5
FD
330
1DF
100
AcDbEntity
  8
bskel
100
AcDbLine
 10
7.707463914933371
 20
-17.25233405971129
 30
0.0
 11
3.32340187157677
 21
-21.6363961030679
 31
0.0
  0
LINE
  5
FE
330
1DF
100
AcDbEntity
  8
bskel
100
AcDbLine
 10
3.32340187157677
 20
-21.6363961030679
 30
0.0
 11
4.879036790187172
 21
-23.1920310216783
 31
0.0
  0
LINE
  5
FF
330
1DF
100
AcDbEntity
  8
bskel
100
AcDbLine
 10
4.879036790187172
 20
-23.1920310216783
 30
0.0
 11
0.0
 21
-28.07106781186548
 31
0.0
  0
LINE
  5
100
330
1DF
100
AcDbEntity
  8
bskel
100
AcDbLine
 10
0.0
 20
-28.07106781186548
 30
0.0
 11
-4.879036790187193
 21
-23.1920310216783
 31
0.0
  0
LINE
  5
101
330
1DF
100
AcDbEntity
  8
bskel
100
AcDbLine
 10
-4.879036790187193
 20
-23.1920310216783
 30
0.0
 11
-3.32340187157677
 21
-21.6363961030679
 31
0.0
  0
LINE
  5
102
330
1DF
100
AcDbEntity
  8
bskel
100
AcDbLine
 10
-3.32340187157677
 20
-21.6363961030679
 30
0.0
 11
-7.707463914933371
 21
-17.25233405971129
 31
0.0
  0
LINE
  5
103
330
1DF
100
AcDbEntity
  8
bskel
100
AcDbLine
 10
-7.707463914933371
 20
-17.25233405971129
 30
0.0
 11
-9.263098833543769
 21
-18.8079689783217
 31
0.0
  0
LINE
  5
104
330
1DF
100
AcDbEntity
  8
bskel
100
AcDbLine
 10
-9.263098833543769
 20
-18.8079689783217
 30
0.0
 11
-14.14213562373095
 21
-13.92893218813452
 31
0.0
  0
ARC
  5
105
330
1DF
100
AcDbEntity
  8
mount
100
AcDbCircle
 10
-14.14213562373095
 20
-13.92893218813452
 30
0.0
 40
1.0
100
AcDbArc
 50
45.0
 51
315.0
  0
ARC
  5
106
330
1DF
100
AcDbEntity
  8
mount
100
AcDbCircle
 10
0.0
 20
0.2132034355964265
 30
0.0
 40
1.0
100
AcDbArc
 50
315.0
 51
225.0
  0
ARC
  5
107
330
1DF
100
AcDbEntity
  8
mount
100
AcDbCircle
 10
14.0
 20
-13.92893218813452
 30
0.0
 40
1.0
100
AcDbArc
 50
230.7682550052694
 51
129.2317449947312
  0
LINE
  5
108
330
1DF
100
AcDbEntity
  8
mount
100
AcDbLine
 10
13.36754143274622
 20
-14.70352637911926
 30
0.0
 11
12.72792206135786
 21
-15.34314575050762
 31
0.0
  0
LINE
  5
109
330
1DF
100
AcDbEntity
  8
mount
100
AcDbLine
 10
-13.4350288425444
 20
-14.63603896932107
 30
0.0
 11
-12.72792206135786
 21
-15.34314575050762
 31
0.0
  0
LINE
  5
10A
330
1DF
100
AcDbEntity
  8
mount
100
AcDbLine
 10
-12.72792206135786
 20
-23.92893218813452
 30
0.0
 11
-12.72792206135786
 21
-15.34314575050762
 31
0.0
  0
LINE
  5
10B
330
1DF
100
AcDbEntity
  8
mount
100
AcDbLine
 10
12.72792206135786
 20
-23.92893218813452
 30
0.0
 11
12.72792206135786
 21
-15.34314575050762
 31
0.0
  0
LINE
  5
10C
330
1DF
100
AcDbEntity
  8
mount
100
AcDbLine
 10
-0.7071067811865532
 20
-0.4939033455901267
 30
0.0
 11
-13.4350288425444
 21
-13.22182540694797
 31
0.0
  0
LINE
  5
10D
330
1DF
100
AcDbEntity
  8
mount
100
AcDbLine
 10
0.7071067811865532
 20
-0.4939033455901267
 30
0.0
 11
13.36754143274621
 21
-13.1543379971498
 31
0.0
  0
LINE
  5
10E
330
1DF
100
AcDbEntity
  8
mount
100
AcDbLine
 10
25.0
 20
-23.92893218813452
 30
0.0
 11
25.0
 21
6.071067811865476
 31
0.0
  0
LINE
  5
10F
330
1DF
100
AcDbEntity
  8
mount
100
AcDbLine
 10
-25.0
 20
6.071067811865476
 30
0.0
 11
-25.0
 21
-23.92893218813452
 31
0.0
  0
LINE
  5
110
330
1DF
100
AcDbEntity
  8
mount
100
AcDbLine
 10
-25.0
 20
-23.92893218813452
 30
0.0
 11
-12.72792206135786
 21
-23.92893218813452
 31
0.0
  0
LINE
  5
111
330
1DF
100
AcDbEntity
  8
mount
100
AcDbLine
 10
12.72792206135786
 20
-23.92893218813452
 30
0.0
 11
25.0
 21
-23.92893218813452
 31
0.0
  0
CIRCLE
  5
112
330
1DF
100
AcDbEntity
  8
mount
100
AcDbCircle
 10
-22.0
 20
3.071067811865476
 30
0.0
 40
1.45
  0
CIRCLE
  5
113
330
1DF
100
AcDbEntity
  8
mount
100
AcDbCircle
 10
-22.0
 20
-20.92893218813452
 30
0.0
 40
1.45
  0
CIRCLE
  5
114
330
1DF
100
AcDbEntity
  8
mount
100
AcDbCircle
 10
22.0
 20
-20.92893218813452
 30
0.0
 40
1.45
  0
CIRCLE
  5
115
330
1DF
100
AcDbEntity
  8
mount
100
AcDbCircle
 10
22.0
 20
3.071067811865476
 30
0.0
 40
1.45
  0
CIRCLE
  5
116
330
1DF
100
AcDbEntity
  8
mount
100
AcDbCircle
 10
10.0
 20
-3.928932188134524
 30
0.0
 40
1.45
  0
CIRCLE
  5
117
330
1DF
100
AcDbEntity
  8
mount
100
AcDbCircle
 10
-10.0
 20
-3.928932188134524
 30
0.0
 40
1.45
  0
CIRCLE
  5
118
330
1DF
100
AcDbEntity
  8
mount
100
AcDbCircle
 10
-20.0
 20
-8.928932188134524
 30
0.0
 40
1.45
  0
CIRCLE
  5
119
330
1DF
100
AcDbEntity
  8
mount
100
AcDbCircle
 10
20.0
 20
-8.928932188134524
 30
0.0
 40
1.45
  0
CIRCLE
  5
11A
330
1DF
100
AcDbEntity
  8
mount
100
AcDbCircle
 10
16.0
 20
-20.92893218813452
 30
0.0
 40
1.45
  0
CIRCLE
  5
11B
330
1DF
100
AcDbEntity
  8
mount
100
AcDbCircle
 10
-16.0
 20
-20.92893218813452
 30
0.0
 40
1.45
  0
ARC
  5
11C
330
1DF
100
AcDbEntity
  8
switchstop
100
AcDbCircle
 10
-4.879036790187193
 20
-23.1920310216783
 30
0.0
 40
0.6999999999999986
100
AcDbArc
 50
44.99999999999959
 51
315.0000000000002
  0
ARC
  5
11D
330
1DF
100
AcDbEntity
  8
switchstop
100
AcDbCircle
 10
4.879036790187172
 20
-23.1920310216783
 30
0.0
 40
0.7000000000000024
100
AcDbArc
 50
224.9999999999998
 51
135.0000000000001
  0
LINE
  5
11E
330
1DF
100
AcDbEntity
  8
switchstop
100
AcDbLine
 10
-5.444722215136387
 20
-19.51507575950824
 30
0.0
 11
-3.32340187157677
 21
-21.6363961030679
 31
0.0
  0
LINE
  5
11F
330
1DF
100
AcDbEntity
  8
switchstop
100
AcDbLine
 10
3.0
 20
-29.31370849898476
 30
0.0
 11
3.0
 21
-33.92893218813452
 31
0.0
  0
LINE
  5
120
330
1DF
100
AcDbEntity
  8
switchstop
100
AcDbLine
 10
-7.329999999999998
 20
-24.98370849898478
 30
0.0
 11
-9.121677477306491
 21
-23.19203102167828
 31
0.0
  0
LINE
  5
121
330
1DF
100
AcDbEntity
  8
switchstop
100
AcDbLine
 10
3.32340187157677
 20
-21.6363961030679
 30
0.0
 11
4.384062043356593
 21
-22.69705627484772
 31
0.0
  0
LINE
  5
122
330
1DF
100
AcDbEntity
  8
switchstop
100
AcDbLine
 10
-3.32340187157677
 20
-21.6363961030679
 30
0.0
 11
-4.384062043356607
 21
-22.69705627484772
 31
0.0
  0
LINE
  5
123
330
1DF
100
AcDbEntity
  8
switchstop
100
AcDbLine
 10
-5.444722215136387
 20
-19.51507575950824
 30
0.0
 11
-9.121677477306491
 21
-23.19203102167828
 31
0.0
  0
LINE
  5
124
330
1DF
100
AcDbEntity
  8
switchstop
100
AcDbLine
 10
9.121677477306449
 20
-23.19203102167831
 30
0.0
 11
5.444722215136423
 21
-19.51507575950826
 31
0.0
  0
LINE
  5
125
330
1DF
100
AcDbEntity
  8
switchstop
100
AcDbLine
 10
-4.329999999999998
 20
-33.92893218813452
 30
0.0
 11
-4.329999999999998
 21
-49.67106781186548
 31
0.0
  0
LINE
  5
126
330
1DF
100
AcDbEntity
  8
switchstop
100
AcDbLine
 10
-7.329999999999998
 20
-33.92893218813452
 30
0.0
 11
-7.329999999999998
 21
-24.98370849898478
 31
0.0
  0
LINE
  5
127
330
1DF
100
AcDbEntity
  8
switchstop
100
AcDbLine
 10
3.0
 20
-29.31370849898476
 30
0.0
 11
9.121677477306449
 21
-23.19203102167831
 31
0.0
  0
LINE
  5
128
330
1DF
100
AcDbEntity
  8
switchstop
100
AcDbLine
 10
4.384062043356593
 20
-23.68700576850888
 30
0.0
 11
0.0
 21
-28.07106781186548
 31
0.0
  0
LINE
  5
129
330
1DF
100
AcDbEntity
  8
switchstop
100
AcDbLine
 10
-7.329999999999998
 20
-33.92893218813452
 30
0.0
 11
-4.329999999999998
 21
-33.92893218813452
 31
0.0
  0
LINE
  5
12A
330
1DF
100
AcDbEntity
  8
switchstop
100
AcDbLine
 10
0.0
 20
-33.92893218813452
 30
0.0
 11
3.0
 21
-33.92893218813452
 31
0.0
  0
LINE
  5
12B
330
1DF
100
AcDbEntity
  8
switchstop
100
AcDbLine
 10
0.0
 20
-28.07106781186548
 30
0.0
 11
-4.384062043356607
 21
-23.68700576850888
 31
0.0
  0
LINE
  5
12C
330
1DF
100
AcDbEntity
  8
switchstop
100
AcDbLine
 10
3.32340187157677
 20
-21.6363961030679
 30
0.0
 11
5.444722215136423
 21
-19.51507575950826
 31
0.0
  0
LINE
  5
12D
330
1DF
100
AcDbEntity
  8
switchstop
100
AcDbLine
 10
-0.0000000000000005
 20
-35.67106781186548
 30
0.0
 11
-0.0000000000000004
 21
-33.92893218813452
 31
0.0
  0
LINE
  5
12E
330
1DF
100
AcDbEntity
  8
switchstop
100
AcDbLine
 10
-4.329999999999998
 20
-35.67106781186548
 30
0.0
 11
-0.0000000000000005
 21
-35.67106781186548
 31
0.0
  0
LINE
  5
12F
330
1DF
100
AcDbEntity
  8
switchstop
100
AcDbLine
 10
-5.329999999999998
 20
-49.67106781186548
 30
0.0
 11
0.0000000000000004
 21
-49.67106781186548
 31
0.0
  0
LINE
  5
130
330
1DF
100
AcDbEntity
  8
switchstop
100
AcDbLine
 10
-7.329999999999997
 20
-46.67106781186548
 30
0.0
 11
3.000000000000001
 21
-46.67106781186548
 31
0.0
  0
LINE
  5
131
330
1DF
100
AcDbEntity
  8
switchstop
100
AcDbLine
 10
-5.329999999999998
 20
-33.92893218813452
 30
0.0
 11
-5.329999999999998
 21
-49.67106781186548
 31
0.0
  0
LINE
  5
132
330
1DF
100
AcDbEntity
  8
testplate
100
AcDbLine
 10
-13.0
 20
-18.0
 30
0.0
 11
-25.0
 21
-18.0
 31
0.0
  0
LINE
  5
133
330
1DF
100
AcDbEntity
  8
testplate
100
AcDbLine
 10
-25.0
 20
-18.0
 30
0.0
 11
-25.0
 21
-50.0
 31
0.0
  0
LINE
  5
134
330
1DF
100
AcDbEntity
  8
testplate
100
AcDbLine
 10
25.0
 20
-40.0
 30
0.0
 11
25.0
 21
-18.0
 31
0.0
  0
LINE
  5
135
330
1DF
100
AcDbEntity
  8
testplate
100
AcDbLine
 10
25.0
 20
-18.0
 30
0.0
 11
13.0
 21
-18.0
 31
0.0
  0
LINE
  5
136
330
1DF
100
AcDbEntity
  8
testplate
100
AcDbLine
 10
13.0
 20
-18.0
 30
0.0
 11
13.0
 21
-49.67106781186548
 31
0.0
  0
LINE
  5
137
330
1DF
100
AcDbEntity
  8
testplate
100
AcDbLine
 10
-13.0
 20
-18.0
 30
0.0
 11
-13.0
 21
-49.67106781186548
 31
0.0
  0
LINE
  5
138
330
1DF
100
AcDbEntity
  8
switchstop
100
AcDbLine
 10
-9.629999999999999
 20
-33.92893218813452
 30
0.0
 11
-9.629999999999999
 21
-49.67106781186548
 31
0.0
  0
LINE
  5
139
330
1DF
100
AcDbEntity
  8
switchstop
100
AcDbLine
 10
-9.629999999999999
 20
-49.67106781186548
 30
0.0
 11
-5.329999999999998
 21
-49.67106781186548
 31
0.0
  0
LINE
  5
13A
330
1DF
100
AcDbEntity
  8
testplate
100
AcDbLine
 10
-9.629999999999999
 20
-54.67106781186548
 30
0.0
 11
-5.329999999999998
 21
-54.67106781186548
 31
0.0
  0
LINE
  5
13B
330
1DF
100
AcDbEntity
  8
testplate
100
AcDbLine
 10
-13.0
 20
-49.67106781186548
 30
0.0
 11
-9.629999999999999
 21
-49.67106781186548
 31
0.0
  0
LINE
  5
13C
330
1DF
100
AcDbEntity
  8
testplate
100
AcDbLine
 10
-9.629999999999999
 20
-49.67106781186548
 30
0.0
 11
-9.629999999999999
 21
-54.67106781186548
 31
0.0
  0
LINE
  5
13D
330
1DF
100
AcDbEntity
  8
testplate
100
AcDbLine
 10
-5.329999999999998
 20
-54.67106781186548
 30
0.0
 11
-5.329999999999998
 21
-49.67106781186548
 31
0.0
  0
LINE
  5
13E
330
1DF
100
AcDbEntity
  8
testplate
100
AcDbLine
 10
-5.329999999999998
 20
-49.67106781186548
 30
0.0
 11
13.0
 21
-49.67106781186548
 31
0.0
  0
MTEXT
  5
13F
330
1DF
100
AcDbEntity
  8
bskel
100
AcDbMText
 10
0.0
 20
30.0
 30
0.0
 40
10.0
 41
0.0
 46
0.0
 71
     1
 72
     1
  1
44mm between plates
  7
textstyle0
 73
     1
 44
1.0
  0
LINE
  5
140
330
1DF
100
AcDbEntity
  8
cross
100
AcDbLine
 10
-5.329999999999998
 20
-54.67106781186548
 30
0.0
 11
194.67
 21
-54.67106781186548
 31
0.0
  0
LINE
  5
141
330
1DF
100
AcDbEntity
  8
cross
100
AcDbLine
 10
3.000000000000001
 20
-46.67106781186548
 30
0.0
 11
203.0
 21
-46.67106781186548
 31
0.0
  0
LINE
  5
142
330
1DF
100
AcDbEntity
  8
cross
100
AcDbLine
 10
13.0
 20
-49.67106781186548
 30
0.0
 11
213.0
 21
-49.67106781186548
 31
0.0
  0
LINE
  5
143
330
1DF
100
AcDbEntity
  8
crossplate
100
AcDbLine
 10
139.3
 20
-60.0
 30
0.0
 11
139.3
 21
-54.67106781186548
 31
0.0
  0
LINE
  5
144
330
1DF
100
AcDbEntity
  8
crossplate
100
AcDbLine
 10
174.7
 20
-60.0
 30
0.0
 11
174.7
 21
-54.67106781186548
 31
0.0
  0
LINE
  5
145
330
1DF
100
AcDbEntity
  8
crossplate
100
AcDbLine
 10
135.0
 20
-60.0
 30
0.0
 11
135.0
 21
-54.67106781186548
 31
0.0
  0
LINE
  5
146
330
1DF
100
AcDbEntity
  8
crossplate
100
AcDbLine
 10
179.0
 20
-60.0
 30
0.0
 11
179.0
 21
-54.67106781186548
 31
0.0
  0
LINE
  5
147
330
1DF
100
AcDbEntity
  8
crossplate
100
AcDbLine
 10
130.0
 20
-60.0
 30
0.0
 11
130.0
 21
-40.0
 31
0.0
  0
LINE
  5
148
330
1DF
100
AcDbEntity
  8
crossplate
100
AcDbLine
 10
184.0
 20
-60.0
 30
0.0
 11
184.0
 21
-40.0
 31
0.0
  0
LINE
  5
149
330
1DF
100
AcDbEntity
  8
crossplate
100
AcDbLine
 10
130.0
 20
-40.0
 30
0.0
 11
184.0
 21
-40.0
 31
0.0
  0
LINE
  5
14A
330
1DF
100
AcDbEntity
  8
crossplate
100
AcDbLine
 10
184.0
 20
-60.0
 30
0.0
 11
179.0
 21
-60.0
 31
0.0
  0
LINE
  5
14B
330
1DF
100
AcDbEntity
  8
crossplate
100
AcDbLine
 10
135.0
 20
-54.67106781186548
 30
0.0
 11
139.3
 21
-54.67106781186548
 31
0.0
  0
LINE
  5
14C
330
1DF
100
AcDbEntity
  8
crossplate
100
AcDbLine
 10
174.7
 20
-54.67106781186548
 30
0.0
 11
179.0
 21
-54.67106781186548
 31
0.0
  0
LINE
  5
14D
330
1DF
100
AcDbEntity
  8
crossplate
100
AcDbLine
 10
135.0
 20
-60.0
 30
0.0
 11
130.0
 21
-60.0
 31
0.0
  0
CIRCLE
  5
14E
330
1DF
100
AcDbEntity
  8
testplate
100
AcDbCircle
 10
-22.0
 20
-20.92893218813452
 30
0.0
 40
1.5
  0
CIRCLE
  5
14F
330
1DF
100
AcDbEntity
  8
testplate
100
AcDbCircle
 10
-16.0
 20
-20.92893218813452
 30
0.0
 40
1.5
  0
CIRCLE
  5
150
330
1DF
100
AcDbEntity
  8
testplate
100
AcDbCircle
 10
16.0
 20
-20.92893218813452
 30
0.0
 40
1.5
  0
CIRCLE
  5
151
330
1DF
100
AcDbEntity
  8
testplate
100
AcDbCircle
 10
22.0
 20
-20.92893218813452
 30
0.0
 40
1.5
  0
LINE
  5
152
330
1DF
100
AcDbEntity
  8
crossplate
100
AcDbLine
 10
174.7
 20
-60.0
 30
0.0
 11
139.3
 21
-60.0
 31
0.0
  0
LINE
  5
153
330
1DF
100
AcDbEntity
  8
crossplate
100
AcDbLine
 10
182.0
 20
-60.0
 30
0.0
 11
179.0
 21
-60.0
 31
0.0
  0
CIRCLE
  5
154
330
1DF
100
AcDbEntity
  8
crossplate
100
AcDbCircle
 10
154.3
 20
-46.67106781186548
 30
0.0
 40
1.0
  0
CIRCLE
  5
155
330
1DF
100
AcDbEntity
  8
crossplate
100
AcDbCircle
 10
164.3
 20
-46.67106781186548
 30
0.0
 40
1.0
  0
DIMENSION
  5
156
330
1DF
100
AcDbEntity
  8
bskel
100
AcDbDimension
280
     0
  2
*D2
 10
179.0
 20
-70.0
 30
0.0
 11
157.0
 21
-68.125
 31
0.0
 70
    33
 71
     5
 42
44.0
 73
     0
 74
     0
 75
     0
  3
QCADDimStyle
100
AcDbAlignedDimension
 13
135.0
 23
-54.67106781186548
 33
0.0
 14
179.0
 24
-54.67106781186548
 34
0.0
1001
ACAD
1000
DSTYLE
1002
{
1070
   279
1070
     2
1070
    41
1040
2.5
1070
    79
1070
     2
1070
   176
1070
     0
1070
   177
1070
     0
1070
   178
1070
     0
1070
    44
1040
1.25
1070
    42
1040
0.625
1070
   147
1040
0.625
1070
   140
1040
2.5
1070
    78
1070
     8
1002
}
  0
DIMENSION
  5
157
330
1DF
100
AcDbEntity
  8
bskel
100
AcDbDimension
280
     0
  2
*D3
 10
174.7
 20
-65.47728860936407
 30
0.0
 11
157.0
 21
-63.60228860936407
 31
0.0
 70
    33
 71
     5
 42
35.39999999999998
 73
     0
 74
     0
 75
     0
  3
QCADDimStyle
100
AcDbAlignedDimension
 13
139.3
 23
-54.67106781186548
 33
0.0
 14
174.7
 24
-54.67106781186548
 34
0.0
1001
ACAD
1000
DSTYLE
1002
{
1070
   279
1070
     2
1070
    41
1040
2.5
1070
    79
1070
     2
1070
   176
1070
     0
1070
   177
1070
     0
1070
   178
1070
     0
1070
    44
1040
1.25
1070
    42
1040
0.625
1070
   147
1040
0.625
1070
   140
1040
2.5
1070
    78
1070
     8
1002
}
  0
LINE
  5
158
330
1DF
100
AcDbEntity
  8
cross
100
AcDbLine
 10
-130.0
 20
-90.0
 30
0.0
 11
170.0
 21
-90.0
 31
0.0
  0
INSERT
  5
159
330
1DF
100
AcDbEntity
  8
cut
100
AcDbBlockReference
  2
motor
 10
-20.0
 20
-90.0
 30
0.0
  0
CIRCLE
  5
15A
330
1DF
100
AcDbEntity
  8
cut
100
AcDbCircle
 10
-20.0
 20
-90.0
 30
0.0
 40
2.95
  0
CIRCLE
  5
15B
330
1DF
100
AcDbEntity
  8
bskel
100
AcDbCircle
 10
50.0
 20
-90.0
 30
0.0
 40
2.95
  0
LINE
  5
15C
330
1DF
100
AcDbEntity
  8
bskel
100
AcDbLine
 10
0.0
 20
-90.0
 30
0.0
 11
50.0
 21
-40.00000000000001
 31
0.0
  0
LINE
  5
15D
330
1DF
100
AcDbEntity
  8
bskel
100
AcDbLine
 10
0.0
 20
-90.0
 30
0.0
 11
50.00000000000001
 21
-140.0
 31
0.0
  0
LINE
  5
15E
330
1DF
100
AcDbEntity
  8
bskel
100
AcDbLine
 10
50.0
 20
-140.0
 30
0.0
 11
50.0
 21
-40.0
 31
0.0
  0
LINE
  5
15F
330
1DF
100
AcDbEntity
  8
bskel
100
AcDbLine
 10
40.0
 20
-140.0
 30
0.0
 11
40.0
 21
-40.0
 31
0.0
  0
LINE
  5
160
330
1DF
100
AcDbEntity
  8
bskel
100
AcDbLine
 10
60.0
 20
-140.0
 30
0.0
 11
60.0
 21
-40.0
 31
0.0
  0
LINE
  5
161
330
1DF
100
AcDbEntity
  8
bskel
100
AcDbLine
 10
70.0
 20
-140.0
 30
0.0
 11
70.0
 21
-40.0
 31
0.0
  0
LINE
  5
162
330
1DF
100
AcDbEntity
  8
cut
100
AcDbLine
 10
70.0
 20
-140.0
 30
0.0
 11
40.0
 21
-140.0
 31
0.0
  0
LINE
  5
163
330
1DF
100
AcDbEntity
  8
cut
100
AcDbLine
 10
40.0
 20
-140.0
 30
0.0
 11
0.0
 21
-130.0
 31
0.0
  0
LINE
  5
164
330
1DF
100
AcDbEntity
  8
cut
100
AcDbLine
 10
0.0
 20
-130.0
 30
0.0
 11
-5.329999999999998
 21
-130.0
 31
0.0
  0
LINE
  5
165
330
1DF
100
AcDbEntity
  8
cut
100
AcDbLine
 10
-40.0
 20
-130.0
 30
0.0
 11
-40.0
 21
-50.0
 31
0.0
  0
LINE
  5
166
330
1DF
100
AcDbEntity
  8
cut
100
AcDbLine
 10
-40.0
 20
-50.0
 30
0.0
 11
-25.0
 21
-50.0
 31
0.0
  0
LINE
  5
167
330
1DF
100
AcDbEntity
  8
cut
100
AcDbLine
 10
70.0
 20
-40.0
 30
0.0
 11
25.0
 21
-40.0
 31
0.0
  0
LINE
  5
168
330
1DF
100
AcDbEntity
  8
cut
100
AcDbLine
 10
70.0
 20
-40.0
 30
0.0
 11
70.0
 21
-140.0
 31
0.0
  0
CIRCLE
  5
169
330
1DF
100
AcDbEntity
  8
cut
100
AcDbCircle
 10
45.0
 20
-110.0
 30
0.0
 40
1.45
  0
CIRCLE
  5
16A
330
1DF
100
AcDbEntity
  8
cut
100
AcDbCircle
 10
65.0
 20
-110.0
 30
0.0
 40
1.45
  0
CIRCLE
  5
16B
330
1DF
100
AcDbEntity
  8
cut
100
AcDbCircle
 10
65.0
 20
-60.0
 30
0.0
 40
1.45
  0
CIRCLE
  5
16C
330
1DF
100
AcDbEntity
  8
cut
100
AcDbCircle
 10
45.0
 20
-60.0
 30
0.0
 40
1.45
  0
CIRCLE
  5
16D
330
1DF
100
AcDbEntity
  8
cut
100
AcDbCircle
 10
-30.0
 20
-60.0
 30
0.0
 40
1.45
  0
CIRCLE
  5
16E
330
1DF
100
AcDbEntity
  8
cut
100
AcDbCircle
 10
-20.0
 20
-60.0
 30
0.0
 40
1.45
  0
CIRCLE
  5
16F
330
1DF
100
AcDbEntity
  8
cut
100
AcDbCircle
 10
-20.0
 20
-67.0
 30
0.0
 40
1.45
  0
CIRCLE
  5
170
330
1DF
100
AcDbEntity
  8
cut
100
AcDbCircle
 10
-30.0
 20
-67.0
 30
0.0
 40
1.45
  0
CIRCLE
  5
171
330
1DF
100
AcDbEntity
  8
cut
100
AcDbCircle
 10
30.0
 20
-65.0
 30
0.0
 40
1.45
  0
CIRCLE
  5
172
330
1DF
100
AcDbEntity
  8
cut
100
AcDbCircle
 10
20.0
 20
-65.0
 30
0.0
 40
1.45
  0
CIRCLE
  5
173
330
1DF
100
AcDbEntity
  8
cut
100
AcDbCircle
 10
10.0
 20
-65.0
 30
0.0
 40
1.45
  0
LINE
  5
174
330
1DF
100
AcDbEntity
  8
testplate
100
AcDbLine
 10
-9.629999999999999
 20
-125.0
 30
0.0
 11
-5.329999999999998
 21
-125.0
 31
0.0
  0
LINE
  5
175
330
1DF
100
AcDbEntity
  8
testplate
100
AcDbLine
 10
-5.329999999999998
 20
-125.0
 30
0.0
 11
-5.329999999999998
 21
-130.0
 31
0.0
  0
LINE
  5
176
330
1DF
100
AcDbEntity
  8
cut
100
AcDbLine
 10
-9.629999999999999
 20
-130.0
 30
0.0
 11
-40.0
 21
-130.0
 31
0.0
  0
LINE
  5
177
330
1DF
100
AcDbEntity
  8
testplate
100
AcDbLine
 10
-9.629999999999999
 20
-125.0
 30
0.0
 11
-9.629999999999999
 21
-130.0
 31
0.0
  0
LINE
  5
178
330
1DF
100
AcDbEntity
  8
cross
100
AcDbLine
 10
-130.0
 20
-85.0
 30
0.0
 11
170.0
 21
-85.0
 31
0.0
  0
LINE
  5
179
330
1DF
100
AcDbEntity
  8
cross
100
AcDbLine
 10
-130.0
 20
-95.0
 30
0.0
 11
170.0
 21
-95.0
 31
0.0
  0
CIRCLE
  5
17A
330
1DF
100
AcDbEntity
  8
cross
100
AcDbCircle
 10
47.04999999999998
 20
-90.0
 30
0.0
 40
3.0
  0
CIRCLE
  5
17B
330
1DF
100
AcDbEntity
  8
cross
100
AcDbCircle
 10
77.0
 20
-90.0
 30
0.0
 40
3.0
  0
CIRCLE
  5
17C
330
1DF
100
AcDbEntity
  8
cross
100
AcDbCircle
 10
76.99999999999997
 20
-90.0
 30
0.0
 40
5.0
  0
CIRCLE
  5
17D
330
1DF
100
AcDbEntity
  8
cross
100
AcDbCircle
 10
-75.0
 20
-90.0
 30
0.0
 40
5.0
  0
CIRCLE
  5
17E
330
1DF
100
AcDbEntity
  8
lever
100
AcDbCircle
 10
0.0
 20
-90.0
 30
0.0
 40
3.0
  0
LINE
  5
17F
330
1DF
100
AcDbEntity
  8
lever
100
AcDbLine
 10
47.04999999999998
 20
-87.0
 30
0.0
 11
77.0
 21
-87.0
 31
0.0
  0
LINE
  5
180
330
1DF
100
AcDbEntity
  8
lever
100
AcDbLine
 10
77.0
 20
-93.0
 30
0.0
 11
47.04999999999998
 21
-93.0
 31
0.0
  0
ARC
  5
181
330
1DF
100
AcDbEntity
  8
lever
100
AcDbCircle
 10
47.04999999999998
 20
-90.0
 30
0.0
 40
3.0
100
AcDbArc
 50
90.0
 51
270.0
  0
ARC
  5
182
330
1DF
100
AcDbEntity
  8
lever
100
AcDbCircle
 10
77.0
 20
-90.0
 30
0.0
 40
3.0
100
AcDbArc
 50
270.0
 51
90.0
  0
ARC
  5
183
330
1DF
100
AcDbEntity
  8
lever
100
AcDbCircle
 10
76.99999999999997
 20
-90.0
 30
0.0
 40
5.0
100
AcDbArc
 50
270.0
 51
90.0
  0
ARC
  5
184
330
1DF
100
AcDbEntity
  8
lever
100
AcDbCircle
 10
-75.0
 20
-90.0
 30
0.0
 40
5.0
100
AcDbArc
 50
90.0
 51
270.0
  0
LINE
  5
185
330
1DF
100
AcDbEntity
  8
lever
100
AcDbLine
 10
76.99999999999997
 20
-85.0
 30
0.0
 11
-75.0
 21
-85.0
 31
0.0
  0
LINE
  5
186
330
1DF
100
AcDbEntity
  8
lever
100
AcDbLine
 10
-75.0
 20
-95.0
 30
0.0
 11
76.99999999999997
 21
-95.0
 31
0.0
  0
LINE
  5
187
330
1DF
100
AcDbEntity
  8
guides
100
AcDbLine
 10
60.0
 20
-40.0
 30
0.0
 11
70.0
 21
-40.0
 31
0.0
  0
LINE
  5
188
330
1DF
100
AcDbEntity
  8
guides
100
AcDbLine
 10
70.0
 20
-40.0
 30
0.0
 11
70.0
 21
-140.0
 31
0.0
  0
LINE
  5
189
330
1DF
100
AcDbEntity
  8
guides
100
AcDbLine
 10
70.0
 20
-140.0
 30
0.0
 11
60.0
 21
-140.0
 31
0.0
  0
LINE
  5
18A
330
1DF
100
AcDbEntity
  8
guides
100
AcDbLine
 10
60.0
 20
-140.0
 30
0.0
 11
60.0
 21
-40.0
 31
0.0
  0
CIRCLE
  5
18B
330
1DF
100
AcDbEntity
  8
guides
100
AcDbCircle
 10
65.0
 20
-110.0
 30
0.0
 40
1.45
  0
CIRCLE
  5
18C
330
1DF
100
AcDbEntity
  8
guides
100
AcDbCircle
 10
65.0
 20
-60.0
 30
0.0
 40
1.45
  0
CIRCLE
  5
18D
330
1DF
100
AcDbEntity
  8
dipper
100
AcDbCircle
 10
55.0
 20
-50.0
 30
0.0
 40
2.95
  0
LINE
  5
18E
330
1DF
100
AcDbEntity
  8
dipper
100
AcDbLine
 10
50.00000000000001
 20
-40.0
 30
0.0
 11
60.0
 21
-40.0
 31
0.0
  0
LINE
  5
18F
330
1DF
100
AcDbEntity
  8
dipper
100
AcDbLine
 10
60.0
 20
-40.0
 30
0.0
 11
60.0
 21
-150.0
 31
0.0
  0
LINE
  5
190
330
1DF
100
AcDbEntity
  8
dipper
100
AcDbLine
 10
50.00000000000001
 20
-150.0
 30
0.0
 11
50.00000000000001
 21
-40.0
 31
0.0
  0
LINE
  5
191
330
1DF
100
AcDbEntity
  8
dipper
100
AcDbLine
 10
40.0
 20
-150.0
 30
0.0
 11
50.00000000000001
 21
-150.0
 31
0.0
  0
LINE
  5
192
330
1DF
100
AcDbEntity
  8
dipper
100
AcDbLine
 10
70.0
 20
-150.0
 30
0.0
 11
70.0
 21
-170.0
 31
0.0
  0
LINE
  5
193
330
1DF
100
AcDbEntity
  8
dipper
100
AcDbLine
 10
70.0
 20
-170.0
 30
0.0
 11
40.0
 21
-170.0
 31
0.0
  0
LINE
  5
194
330
1DF
100
AcDbEntity
  8
dipper
100
AcDbLine
 10
40.0
 20
-170.0
 30
0.0
 11
40.0
 21
-150.0
 31
0.0
  0
LINE
  5
195
330
1DF
100
AcDbEntity
  8
dipper
100
AcDbLine
 10
60.0
 20
-150.0
 30
0.0
 11
70.0
 21
-150.0
 31
0.0
  0
CIRCLE
  5
196
330
1DF
100
AcDbEntity
  8
dipper
100
AcDbCircle
 10
50.0
 20
-160.0
 30
0.0
 40
2.95
  0
CIRCLE
  5
197
330
1DF
100
AcDbEntity
  8
dipper
100
AcDbCircle
 10
60.0
 20
-160.0
 30
0.0
 40
2.95
  0
LINE
  5
199
330
1DF
100
AcDbEntity
  8
cross
100
AcDbLine
 10
135.0
 20
-160.0
 30
0.0
 11
135.0
 21
-60.0
 31
0.0
  0
LINE
  5
19A
330
1DF
100
AcDbEntity
  8
cross
100
AcDbLine
 10
139.3
 20
-160.0
 30
0.0
 11
139.3
 21
-60.0
 31
0.0
  0
LINE
  5
19B
330
1DF
100
AcDbEntity
  8
cross
100
AcDbLine
 10
174.7
 20
-160.0
 30
0.0
 11
174.7
 21
-60.0
 31
0.0
  0
LINE
  5
19C
330
1DF
100
AcDbEntity
  8
cross
100
AcDbLine
 10
179.0
 20
-160.0
 30
0.0
 11
179.0
 21
-60.0
 31
0.0
  0
LINE
  5
1A0
330
1DF
100
AcDbEntity
  8
cross
100
AcDbLine
 10
170.4
 20
-160.0
 30
0.0
 11
170.4
 21
-60.0
 31
0.0
  0
LINE
  5
1A1
330
1DF
100
AcDbEntity
  8
cross
100
AcDbLine
 10
143.6
 20
-160.0
 30
0.0
 11
143.6
 21
-60.0
 31
0.0
  0
LINE
  5
1A4
330
1DF
100
AcDbEntity
  8
cross
100
AcDbLine
 10
120.0
 20
-110.0
 30
0.0
 11
190.0
 21
-110.0
 31
0.0
  0
LINE
  5
1A5
330
1DF
100
AcDbEntity
  8
cross
100
AcDbLine
 10
190.0
 20
-150.0
 30
0.0
 11
120.0
 21
-150.0
 31
0.0
  0
LINE
  5
1A6
330
1DF
100
AcDbEntity
  8
spacer
100
AcDbLine
 10
143.6
 20
-110.0
 30
0.0
 11
170.4
 21
-110.0
 31
0.0
  0
LINE
  5
1A7
330
1DF
100
AcDbEntity
  8
spacer
100
AcDbLine
 10
170.4
 20
-110.0
 30
0.0
 11
170.4
 21
-150.0
 31
0.0
  0
LINE
  5
1A8
330
1DF
100
AcDbEntity
  8
spacer
100
AcDbLine
 10
170.4
 20
-150.0
 30
0.0
 11
143.6
 21
-150.0
 31
0.0
  0
LINE
  5
1A9
330
1DF
100
AcDbEntity
  8
spacer
100
AcDbLine
 10
143.6
 20
-150.0
 30
0.0
 11
143.6
 21
-110.0
 31
0.0
  0
LINE
  5
1AC
330
1DF
100
AcDbEntity
  8
lever2
100
AcDbLine
 10
30.0
 20
-87.0
 30
0.0
 11
77.0
 21
-87.0
 31
0.0
  0
LINE
  5
1AD
330
1DF
100
AcDbEntity
  8
lever2
100
AcDbLine
 10
77.0
 20
-93.0
 30
0.0
 11
30.0
 21
-93.0
 31
0.0
  0
ARC
  5
1AE
330
1DF
100
AcDbEntity
  8
lever2
100
AcDbCircle
 10
30.0
 20
-90.0
 30
0.0
 40
3.0
100
AcDbArc
 50
90.0
 51
270.0
  0
ARC
  5
1AF
330
1DF
100
AcDbEntity
  8
lever2
100
AcDbCircle
 10
77.0
 20
-90.0
 30
0.0
 40
3.0
100
AcDbArc
 50
270.0
 51
90.0
  0
LINE
  5
1B4
330
1DF
100
AcDbEntity
  8
lever2
100
AcDbLine
 10
76.99999999999997
 20
-82.0
 30
0.0
 11
-95.0
 21
-82.0
 31
0.0
  0
LINE
  5
1B5
330
1DF
100
AcDbEntity
  8
lever2
100
AcDbLine
 10
-95.0
 20
-98.0
 30
0.0
 11
76.99999999999997
 21
-98.0
 31
0.0
  0
ARC
  5
1B6
330
1DF
100
AcDbEntity
  8
lever2
100
AcDbCircle
 10
76.99999999999997
 20
-90.0
 30
0.0
 40
8.0
100
AcDbArc
 50
270.0
 51
90.0
  0
ARC
  5
1B7
330
1DF
100
AcDbEntity
  8
lever2
100
AcDbCircle
 10
-95.0
 20
-90.0
 30
0.0
 40
8.0
100
AcDbArc
 50
90.0
 51
270.0
  0
CIRCLE
  5
1BD
330
1DF
100
AcDbEntity
  8
lever2
100
AcDbCircle
 10
-28.5
 20
-90.0
 30
0.0
 40
1.05
  0
CIRCLE
  5
1BE
330
1DF
100
AcDbEntity
  8
lever2
100
AcDbCircle
 10
-11.5
 20
-90.0
 30
0.0
 40
1.05
  0
CIRCLE
  5
1BF
330
1DF
100
AcDbEntity
  8
lever2
100
AcDbCircle
 10
-20.0
 20
-90.0
 30
0.0
 40
4.02
  0
CIRCLE
  5
1C0
330
1DF
100
AcDbEntity
  8
lever2
100
AcDbCircle
 10
-95.0
 20
-90.0
 30
0.0
 40
4.02
  0
ENDSEC
  0
SECTION
  2
OBJECTS
  0
DICTIONARY
  5
1CD
330
0
100
AcDbDictionary
281
     1
  3
ACAD_GROUP
350
1CE
  3
ACAD_LAYOUT
350
1DA
  3
ACAD_MATERIAL
350
1FB
  3
ACAD_MLEADERSTYLE
350
252
  3
ACAD_MLINESTYLE
350
1D7
  3
ACAD_PLOTSETTINGS
350
1D9
  3
ACAD_PLOTSTYLENAME
350
1CF
  3
ACAD_TABLESTYLE
350
251
  3
ACAD_VISUALSTYLE
350
1EA
  3
QCAD_OBJECTS
350
200
  0
DICTIONARY
  5
1CE
102
{ACAD_REACTORS
330
1CD
102
}
330
1CD
100
AcDbDictionary
281
     1
  0
DICTIONARY
  5
1DA
102
{ACAD_REACTORS
330
1CD
102
}
330
1CD
100
AcDbDictionary
281
     1
  3
Layout1
350
1DE
  3
Layout2
350
1E6
  3
Model
350
1E2
  0
DICTIONARY
  5
1FB
102
{ACAD_REACTORS
330
1CD
102
}
330
1CD
100
AcDbDictionary
281
     1
  3
ByBlock
350
1FD
  3
ByLayer
350
1FC
  3
Global
350
1FE
  0
DICTIONARY
  5
252
102
{ACAD_REACTORS
330
1CD
102
}
330
1CD
100
AcDbDictionary
281
     1
  0
DICTIONARY
  5
1D7
102
{ACAD_REACTORS
330
1CD
102
}
330
1CD
100
AcDbDictionary
281
     1
  3
Standard
350
1D8
  0
DICTIONARY
  5
1D9
102
{ACAD_REACTORS
330
1CD
102
}
330
1CD
100
AcDbDictionary
281
     1
  0
ACDBDICTIONARYWDFLT
  5
1CF
102
{ACAD_REACTORS
330
1CD
102
}
330
1CD
100
AcDbDictionary
281
     1
  3
Normal
350
1D0
100
AcDbDictionaryWithDefault
340
1D0
  0
DICTIONARY
  5
251
102
{ACAD_REACTORS
330
1CD
102
}
330
1CD
100
AcDbDictionary
281
     1
  0
DICTIONARY
  5
1EA
102
{ACAD_REACTORS
330
1CD
102
}
330
1CD
100
AcDbDictionary
281
     1
  3
2dWireframe
350
1EF
  3
3D Hidden
350
1F1
  3
3dWireframe
350
1F0
  3
Basic
350
1F2
  3
Brighten
350
1F6
  3
ColorChange
350
1FA
  3
Conceptual
350
1F4
  3
Dim
350
1F5
  3
Facepattern
350
1F9
  3
Flat
350
1EB
  3
FlatWithEdges
350
1EC
  3
Gouraud
350
1ED
  3
GouraudWithEdges
350
1EE
  3
Linepattern
350
1F8
  3
Realistic
350
1F3
  3
Thicken
350
1F7
  0
DICTIONARY
  5
200
102
{ACAD_REACTORS
330
1CD
102
}
330
1CD
100
AcDbDictionary
281
     1
  3
Grid/DisplayGrid
350
210
  3
Grid/GridSpacingX
350
209
  3
Grid/GridSpacingY
350
20A
  3
Grid/MetaGridSpacingX
350
204
  3
Grid/MetaGridSpacingY
350
207
  3
MultiPageSettings/Columns
350
208
  3
MultiPageSettings/GlueMarginsBottom
350
20D
  3
MultiPageSettings/GlueMarginsLeft
350
20B
  3
MultiPageSettings/GlueMarginsRight
350
201
  3
MultiPageSettings/GlueMarginsTop
350
214
  3
MultiPageSettings/PrintCropMarks
350
203
  3
MultiPageSettings/Rows
350
20C
  3
PageSettings/OffsetX
350
212
  3
PageSettings/OffsetY
350
213
  3
PageSettings/PageOrientation
350
202
  3
PageSettings/PaperHeight
350
205
  3
PageSettings/PaperWidth
350
20E
  3
PageSettings/Scale
350
206
  3
PageSettings/ShowPaperBorders
350
211
  3
UnitSettings/PaperUnit
350
20F
  0
LAYOUT
  5
1DE
102
{ACAD_REACTORS
330
1DA
102
}
330
1DA
100
AcDbPlotSettings
  1

  2
none_device
  4

  6

 40
0.0
 41
0.0
 42
0.0
 43
0.0
 44
0.0
 45
0.0
 46
0.0
 47
0.0
 48
0.0
 49
0.0
140
0.0
141
0.0
142
1.0
143
1.0
 70
   688
 72
     0
 73
     0
 74
     5
  7

 75
    16
 76
     0
 77
     2
 78
   300
147
1.0
148
0.0
149
0.0
100
AcDbLayout
  1
Layout1
 70
     1
 71
     1
 10
0.0
 20
0.0
 11
12.0
 21
9.0
 12
0.0
 22
0.0
 32
0.0
 14
1.000000000000000E+20
 24
1.000000000000000E+20
 34
1.000000000000000E+20
 15
-1.000000000000000E+20
 25
-1.000000000000000E+20
 35
-1.000000000000000E+20
146
0.0
 13
0.0
 23
0.0
 33
0.0
 16
1.0
 26
0.0
 36
0.0
 17
0.0
 27
1.0
 37
0.0
 76
     0
330
1DB
  0
LAYOUT
  5
1E6
102
{ACAD_REACTORS
330
1DA
102
}
330
1DA
100
AcDbPlotSettings
  1

  2
none_device
  4

  6

 40
0.0
 41
0.0
 42
0.0
 43
0.0
 44
0.0
 45
0.0
 46
0.0
 47
0.0
 48
0.0
 49
0.0
140
0.0
141
0.0
142
1.0
143
1.0
 70
   688
 72
     0
 73
     0
 74
     5
  7

 75
    16
 76
     0
 77
     2
 78
   300
147
1.0
148
0.0
149
0.0
100
AcDbLayout
  1
Layout2
 70
     1
 71
     2
 10
0.0
 20
0.0
 11
0.0
 21
0.0
 12
0.0
 22
0.0
 32
0.0
 14
0.0
 24
0.0
 34
0.0
 15
0.0
 25
0.0
 35
0.0
146
0.0
 13
0.0
 23
0.0
 33
0.0
 16
1.0
 26
0.0
 36
0.0
 17
0.0
 27
1.0
 37
0.0
 76
     0
330
1E3
  0
LAYOUT
  5
1E2
102
{ACAD_REACTORS
330
1DA
102
}
330
1DA
100
AcDbPlotSettings
  1

  2
none_device
  4

  6

 40
0.0
 41
0.0
 42
0.0
 43
0.0
 44
0.0
 45
0.0
 46
0.0
 47
0.0
 48
0.0
 49
0.0
140
0.0
141
0.0
142
1.0
143
1.0
 70
  1712
 72
     0
 73
     0
 74
     0
  7

 75
     0
 76
     0
 77
     2
 78
   300
147
1.0
148
0.0
149
0.0
100
AcDbLayout
  1
Model
 70
     1
 71
     0
 10
0.0
 20
0.0
 11
12.0
 21
9.0
 12
0.0
 22
0.0
 32
0.0
 14
1.000000000000000E+20
 24
1.000000000000000E+20
 34
1.000000000000000E+20
 15
-1.000000000000000E+20
 25
-1.000000000000000E+20
 35
-1.000000000000000E+20
146
0.0
 13
0.0
 23
0.0
 33
0.0
 16
1.0
 26
0.0
 36
0.0
 17
0.0
 27
1.0
 37
0.0
 76
     0
330
1DF
331
1E9
  0
MATERIAL
  5
1FD
102
{ACAD_REACTORS
330
1FB
102
}
330
1FB
100
AcDbMaterial
  1
ByBlock
 72
     1
 94
      127
  0
MATERIAL
  5
1FC
102
{ACAD_REACTORS
330
1FB
102
}
330
1FB
100
AcDbMaterial
  1
ByLayer
 72
     1
 94
      127
  0
MATERIAL
  5
1FE
102
{ACAD_REACTORS
330
1FB
102
}
330
1FB
100
AcDbMaterial
  1
Global
 72
     1
 94
      127
  0
MLINESTYLE
  5
1D8
102
{ACAD_REACTORS
330
1D7
102
}
330
1D7
100
AcDbMlineStyle
  2
Standard
 70
     0
  3

 62
   256
 51
90.0
 52
90.0
 71
     2
 49
0.5
 62
   256
  6
BYLAYER
 49
-0.5
 62
   256
  6
BYLAYER
  0
ACDBPLACEHOLDER
  5
1D0
102
{ACAD_REACTORS
330
1CF
102
}
330
1CF
  0
VISUALSTYLE
  5
1EF
102
{ACAD_REACTORS
330
1EA
102
}
330
1EA
100
AcDbVisualStyle
  2
2dWireframe
 70
     4
177
     2
291
     0
 71
     0
176
     1
 72
     2
176
     1
 73
     0
176
     1
 90
        0
176
     1
 40
-0.6
176
     1
 41
-30.0
176
     1
 62
     5
 63
     7
421
 16777215
176
     1
 74
     1
176
     1
 91
        4
176
     1
 64
     7
176
     1
 65
   257
176
     1
 75
     1
176
     1
175
     1
176
     1
 42
1.0
176
     1
 92
        0
176
     1
 66
   257
176
     1
 43
1.0
176
     1
 76
     1
176
     1
 77
     6
176
     1
 78
     2
176
     1
 67
     7
176
     1
 79
     5
176
     1
170
     0
176
     1
171
     0
176
     1
290
     0
176
     1
 93
        1
176
     1
 44
0.0
176
     1
173
     0
176
     1
  0
VISUALSTYLE
  5
1F1
102
{ACAD_REACTORS
330
1EA
102
}
330
1EA
100
AcDbVisualStyle
  2
3D Hidden
 70
     6
177
     2
291
     0
 71
     1
176
     1
 72
     2
176
     1
 73
     2
176
     1
 90
        0
176
     1
 40
-0.6
176
     1
 41
-30.0
176
     1
 62
     5
 63
     7
421
 16777215
176
     1
 74
     2
176
     1
 91
        2
176
     1
 64
     7
176
     1
 65
   257
176
     1
 75
     2
176
     1
175
     1
176
     1
 42
40.0
176
     1
 92
        0
176
     1
 66
   257
176
     1
 43
1.0
176
     1
 76
     1
176
     1
 77
     6
176
     1
 78
     2
176
     1
 67
     7
176
     1
 79
     3
176
     1
170
     0
176
     1
171
     0
176
     1
290
     0
176
     1
 93
        1
176
     1
 44
0.0
176
     1
173
     0
176
     1
  0
VISUALSTYLE
  5
1F0
102
{ACAD_REACTORS
330
1EA
102
}
330
1EA
100
AcDbVisualStyle
  2
3dWireframe
 70
     5
177
     2
291
     0
 71
     0
176
     1
 72
     2
176
     1
 73
     0
176
     1
 90
        0
176
     1
 40
-0.6
176
     1
 41
-30.0
176
     1
 62
     5
 63
     7
421
 16777215
176
     1
 74
     1
176
     1
 91
        4
176
     1
 64
     7
176
     1
 65
   257
176
     1
 75
     1
176
     1
175
     1
176
     1
 42
1.0
176
     1
 92
        0
176
     1
 66
   257
176
     1
 43
1.0
176
     1
 76
     1
176
     1
 77
     6
176
     1
 78
     2
176
     1
 67
     7
176
     1
 79
     5
176
     1
170
     0
176
     1
171
     0
176
     1
290
     0
176
     1
 93
        1
176
     1
 44
0.0
176
     1
173
     0
176
     1
  0
VISUALSTYLE
  5
1F2
102
{ACAD_REACTORS
330
1EA
102
}
330
1EA
100
AcDbVisualStyle
  2
Basic
 70
     7
177
     2
291
     1
 71
     1
176
     1
 72
     0
176
     1
 73
     1
176
     1
 90
        0
176
     1
 40
-0.6
176
     1
 41
-30.0
176
     1
 62
     5
 63
     7
421
 16777215
176
     1
 74
     0
176
     1
 91
        4
176
     1
 64
     7
176
     1
 65
   257
176
     1
 75
     1
176
     1
175
     1
176
     1
 42
1.0
176
     1
 92
        8
176
     1
 66
     7
176
     1
 43
1.0
176
     1
 76
     1
176
     1
 77
     6
176
     1
 78
     2
176
     1
 67
     7
176
     1
 79
     5
176
     1
170
     0
176
     1
171
     0
176
     1
290
     0
176
     1
 93
        1
176
     1
 44
0.0
176
     1
173
     0
176
     1
  0
VISUALSTYLE
  5
1F6
102
{ACAD_REACTORS
330
1EA
102
}
330
1EA
100
AcDbVisualStyle
  2
Brighten
 70
    12
177
     2
291
     1
 71
     2
176
     1
 72
     2
176
     1
 73
     0
176
     1
 90
        0
176
     1
 40
-0.6
176
     1
 41
-30.0
176
     1
 62
     5
 63
     7
421
 16777215
176
     1
 74
     1
176
     1
 91
        4
176
     1
 64
     7
176
     1
 65
   257
176
     1
 75
     1
176
     1
175
     1
176
     1
 42
1.0
176
     1
 92
        8
176
     1
 66
     7
176
     1
 43
1.0
176
     1
 76
     1
176
     1
 77
     6
176
     1
 78
     2
176
     1
 67
     7
176
     1
 79
     5
176
     1
170
     0
176
     1
171
     0
176
     1
290
     0
176
     1
 93
        1
176
     1
 44
50.0
176
     1
173
     0
176
     1
  0
VISUALSTYLE
  5
1FA
102
{ACAD_REACTORS
330
1EA
102
}
330
1EA
100
AcDbVisualStyle
  2
ColorChange
 70
    16
177
     2
291
     1
 71
     2
176
     1
 72
     2
176
     1
 73
     3
176
     1
 90
        0
176
     1
 40
-0.6
176
     1
 41
-30.0
176
     1
 62
     5
 63
     8
421
  8421504
176
     1
 74
     1
176
     1
 91
        4
176
     1
 64
     7
176
     1
 65
   257
176
     1
 75
     1
176
     1
175
     1
176
     1
 42
1.0
176
     1
 92
        8
176
     1
 66
     8
424
  8421504
176
     1
 43
1.0
176
     1
 76
     1
176
     1
 77
     6
176
     1
 78
     2
176
     1
 67
     7
176
     1
 79
     5
176
     1
170
     0
176
     1
171
     0
176
     1
290
     0
176
     1
 93
        1
176
     1
 44
0.0
176
     1
173
     0
176
     1
  0
VISUALSTYLE
  5
1F4
102
{ACAD_REACTORS
330
1EA
102
}
330
1EA
100
AcDbVisualStyle
  2
Conceptual
 70
     9
177
     2
291
     0
 71
     3
176
     1
 72
     2
176
     1
 73
     0
176
     1
 90
        0
176
     1
 40
-0.6
176
     1
 41
-30.0
176
     1
 62
     5
 63
     7
421
 16777215
176
     1
 74
     2
176
     1
 91
        2
176
     1
 64
     7
176
     1
 65
   257
176
     1
 75
     1
176
     1
175
     1
176
     1
 42
40.0
176
     1
 92
        8
176
     1
 66
     7
176
     1
 43
1.0
176
     1
 76
     1
176
     1
 77
     6
176
     1
 78
     2
176
     1
 67
     7
176
     1
 79
     3
176
     1
170
     0
176
     1
171
     0
176
     1
290
     0
176
     1
 93
        1
176
     1
 44
0.0
176
     1
173
     0
176
     1
  0
VISUALSTYLE
  5
1F5
102
{ACAD_REACTORS
330
1EA
102
}
330
1EA
100
AcDbVisualStyle
  2
Dim
 70
    11
177
     2
291
     1
 71
     2
176
     1
 72
     2
176
     1
 73
     0
176
     1
 90
        0
176
     1
 40
-0.6
176
     1
 41
-30.0
176
     1
 62
     5
 63
     7
421
 16777215
176
     1
 74
     1
176
     1
 91
        4
176
     1
 64
     7
176
     1
 65
   257
176
     1
 75
     1
176
     1
175
     1
176
     1
 42
1.0
176
     1
 92
        8
176
     1
 66
     7
176
     1
 43
1.0
176
     1
 76
     1
176
     1
 77
     6
176
     1
 78
     2
176
     1
 67
     7
176
     1
 79
     5
176
     1
170
     0
176
     1
171
     0
176
     1
290
     0
176
     1
 93
        1
176
     1
 44
-50.0
176
     1
173
     0
176
     1
  0
VISUALSTYLE
  5
1F9
102
{ACAD_REACTORS
330
1EA
102
}
330
1EA
100
AcDbVisualStyle
  2
Facepattern
 70
    15
177
     2
291
     1
 71
     2
176
     1
 72
     2
176
     1
 73
     0
176
     1
 90
        0
176
     1
 40
-0.6
176
     1
 41
-30.0
176
     1
 62
     5
 63
     7
421
 16777215
176
     1
 74
     1
176
     1
 91
        4
176
     1
 64
     7
176
     1
 65
   257
176
     1
 75
     1
176
     1
175
     1
176
     1
 42
1.0
176
     1
 92
        8
176
     1
 66
     7
176
     1
 43
1.0
176
     1
 76
     1
176
     1
 77
     6
176
     1
 78
     2
176
     1
 67
     7
176
     1
 79
     5
176
     1
170
     0
176
     1
171
     0
176
     1
290
     0
176
     1
 93
        1
176
     1
 44
0.0
176
     1
173
     0
176
     1
  0
VISUALSTYLE
  5
1EB
102
{ACAD_REACTORS
330
1EA
102
}
330
1EA
100
AcDbVisualStyle
  2
Flat
 70
     0
177
     2
291
     1
 71
     2
176
     1
 72
     1
176
     1
 73
     1
176
     1
 90
        2
176
     1
 40
-0.6
176
     1
 41
30.0
176
     1
 62
     5
 63
     7
421
 16777215
176
     1
 74
     0
176
     1
 91
        4
176
     1
 64
     7
176
     1
 65
   257
176
     1
 75
     1
176
     1
175
     1
176
     1
 42
1.0
176
     1
 92
        8
176
     1
 66
     7
176
     1
 43
1.0
176
     1
 76
     1
176
     1
 77
     6
176
     1
 78
     2
176
     1
 67
     7
176
     1
 79
     5
176
     1
170
     0
176
     1
171
     0
176
     1
290
     0
176
     1
 93
       13
176
     1
 44
0.0
176
     1
173
     0
176
     1
  0
VISUALSTYLE
  5
1EC
102
{ACAD_REACTORS
330
1EA
102
}
330
1EA
100
AcDbVisualStyle
  2
FlatWithEdges
 70
     1
177
     2
291
     1
 71
     2
176
     1
 72
     1
176
     1
 73
     1
176
     1
 90
        2
176
     1
 40
-0.6
176
     1
 41
30.0
176
     1
 62
     5
 63
     7
421
 16777215
176
     1
 74
     1
176
     1
 91
        4
176
     1
 64
     7
176
     1
 65
   257
176
     1
 75
     1
176
     1
175
     1
176
     1
 42
1.0
176
     1
 92
        0
176
     1
 66
   257
176
     1
 43
1.0
176
     1
 76
     1
176
     1
 77
     6
176
     1
 78
     2
176
     1
 67
     7
176
     1
 79
     5
176
     1
170
     0
176
     1
171
     0
176
     1
290
     0
176
     1
 93
       13
176
     1
 44
0.0
176
     1
173
     0
176
     1
  0
VISUALSTYLE
  5
1ED
102
{ACAD_REACTORS
330
1EA
102
}
330
1EA
100
AcDbVisualStyle
  2
Gouraud
 70
     2
177
     2
291
     1
 71
     2
176
     1
 72
     2
176
     1
 73
     1
176
     1
 90
        2
176
     1
 40
-0.6
176
     1
 41
30.0
176
     1
 62
     5
 63
     7
421
 16777215
176
     1
 74
     0
176
     1
 91
        4
176
     1
 64
     7
176
     1
 65
   257
176
     1
 75
     1
176
     1
175
     1
176
     1
 42
1.0
176
     1
 92
        0
176
     1
 66
     7
176
     1
 43
1.0
176
     1
 76
     1
176
     1
 77
     6
176
     1
 78
     2
176
     1
 67
     7
176
     1
 79
     5
176
     1
170
     0
176
     1
171
     0
176
     1
290
     0
176
     1
 93
       13
176
     1
 44
0.0
176
     1
173
     0
176
     1
  0
VISUALSTYLE
  5
1EE
102
{ACAD_REACTORS
330
1EA
102
}
330
1EA
100
AcDbVisualStyle
  2
GouraudWithEdges
 70
     3
177
     2
291
     1
 71
     2
176
     1
 72
     2
176
     1
 73
     1
176
     1
 90
        2
176
     1
 40
-0.6
176
     1
 41
30.0
176
     1
 62
     5
 63
     7
421
 16777215
176
     1
 74
     1
176
     1
 91
        4
176
     1
 64
     7
176
     1
 65
   257
176
     1
 75
     1
176
     1
175
     1
176
     1
 42
1.0
176
     1
 92
        0
176
     1
 66
   257
176
     1
 43
1.0
176
     1
 76
     1
176
     1
 77
     6
176
     1
 78
     2
176
     1
 67
     7
176
     1
 79
     5
176
     1
170
     0
176
     1
171
     0
176
     1
290
     0
176
     1
 93
       13
176
     1
 44
0.0
176
     1
173
     0
176
     1
  0
VISUALSTYLE
  5
1F8
102
{ACAD_REACTORS
330
1EA
102
}
330
1EA
100
AcDbVisualStyle
  2
Linepattern
 70
    14
177
     2
291
     1
 71
     2
176
     1
 72
     2
176
     1
 73
     0
176
     1
 90
        0
176
     1
 40
-0.6
176
     1
 41
-30.0
176
     1
 62
     5
 63
     7
421
 16777215
176
     1
 74
     1
176
     1
 91
        4
176
     1
 64
     7
176
     1
 65
   257
176
     1
 75
     7
176
     1
175
     7
176
     1
 42
1.0
176
     1
 92
        8
176
     1
 66
     7
176
     1
 43
1.0
176
     1
 76
     1
176
     1
 77
     6
176
     1
 78
     2
176
     1
 67
     7
176
     1
 79
     5
176
     1
170
     0
176
     1
171
     0
176
     1
290
     0
176
     1
 93
        1
176
     1
 44
0.0
176
     1
173
     0
176
     1
  0
VISUALSTYLE
  5
1F3
102
{ACAD_REACTORS
330
1EA
102
}
330
1EA
100
AcDbVisualStyle
  2
Realistic
 70
     8
177
     2
291
     0
 71
     2
176
     1
 72
     2
176
     1
 73
     0
176
     1
 90
        0
176
     1
 40
-0.6
176
     1
 41
-30.0
176
     1
 62
     5
 63
     7
421
 16777215
176
     1
 74
     1
176
     1
 91
        0
176
     1
 64
     7
176
     1
 65
   257
176
     1
 75
     1
176
     1
175
     1
176
     1
 42
1.0
176
     1
 92
        8
176
     1
 66
     8
424
  7895160
176
     1
 43
1.0
176
     1
 76
     1
176
     1
 77
     6
176
     1
 78
     2
176
     1
 67
     7
176
     1
 79
     5
176
     1
170
     0
176
     1
171
     0
176
     1
290
     0
176
     1
 93
       13
176
     1
 44
0.0
176
     1
173
     0
176
     1
  0
VISUALSTYLE
  5
1F7
102
{ACAD_REACTORS
330
1EA
102
}
330
1EA
100
AcDbVisualStyle
  2
Thicken
 70
    13
177
     2
291
     1
 71
     2
176
     1
 72
     2
176
     1
 73
     0
176
     1
 90
        0
176
     1
 40
-0.6
176
     1
 41
-30.0
176
     1
 62
     5
 63
     7
421
 16777215
176
     1
 74
     1
176
     1
 91
        4
176
     1
 64
     7
176
     1
 65
   257
176
     1
 75
     1
176
     1
175
     1
176
     1
 42
1.0
176
     1
 92
       12
176
     1
 66
     7
176
     1
 43
1.0
176
     1
 76
     1
176
     1
 77
     6
176
     1
 78
     2
176
     1
 67
     7
176
     1
 79
     5
176
     1
170
     0
176
     1
171
     0
176
     1
290
     0
176
     1
 93
        1
176
     1
 44
0.0
176
     1
173
     0
176
     1
  0
XRECORD
  5
210
102
{ACAD_REACTORS
330
200
102
}
330
200
100
AcDbXrecord
280
     1
290
     1
  0
XRECORD
  5
209
102
{ACAD_REACTORS
330
200
102
}
330
200
100
AcDbXrecord
280
     1
1000
auto
  0
XRECORD
  5
20A
102
{ACAD_REACTORS
330
200
102
}
330
200
100
AcDbXrecord
280
     1
1000
auto
  0
XRECORD
  5
204
102
{ACAD_REACTORS
330
200
102
}
330
200
100
AcDbXrecord
280
     1
1000
auto
  0
XRECORD
  5
207
102
{ACAD_REACTORS
330
200
102
}
330
200
100
AcDbXrecord
280
     1
1000
auto
  0
XRECORD
  5
208
102
{ACAD_REACTORS
330
200
102
}
330
200
100
AcDbXrecord
280
     1
 90
        1
  0
XRECORD
  5
20D
102
{ACAD_REACTORS
330
200
102
}
330
200
100
AcDbXrecord
280
     1
 40
10.0
  0
XRECORD
  5
20B
102
{ACAD_REACTORS
330
200
102
}
330
200
100
AcDbXrecord
280
     1
 40
10.0
  0
XRECORD
  5
201
102
{ACAD_REACTORS
330
200
102
}
330
200
100
AcDbXrecord
280
     1
 40
10.0
  0
XRECORD
  5
214
102
{ACAD_REACTORS
330
200
102
}
330
200
100
AcDbXrecord
280
     1
 40
10.0
  0
XRECORD
  5
203
102
{ACAD_REACTORS
330
200
102
}
330
200
100
AcDbXrecord
280
     1
290
     0
  0
XRECORD
  5
20C
102
{ACAD_REACTORS
330
200
102
}
330
200
100
AcDbXrecord
280
     1
 90
        1
  0
XRECORD
  5
212
102
{ACAD_REACTORS
330
200
102
}
330
200
100
AcDbXrecord
280
     1
 40
0.0
  0
XRECORD
  5
213
102
{ACAD_REACTORS
330
200
102
}
330
200
100
AcDbXrecord
280
     1
 40
0.0
  0
XRECORD
  5
202
102
{ACAD_REACTORS
330
200
102
}
330
200
100
AcDbXrecord
280
     1
1000
Portrait
  0
XRECORD
  5
205
102
{ACAD_REACTORS
330
200
102
}
330
200
100
AcDbXrecord
280
     1
 40
297.0
  0
XRECORD
  5
20E
102
{ACAD_REACTORS
330
200
102
}
330
200
100
AcDbXrecord
280
     1
 40
210.0
  0
XRECORD
  5
206
102
{ACAD_REACTORS
330
200
102
}
330
200
100
AcDbXrecord
280
     1
1000
1:1
  0
XRECORD
  5
211
102
{ACAD_REACTORS
330
200
102
}
330
200
100
AcDbXrecord
280
     1
290
     1
  0
XRECORD
  5
20F
102
{ACAD_REACTORS
330
200
102
}
330
200
100
AcDbXrecord
280
     1
 90
        4
  0
ENDSEC
  0
EOF
